<?xml version="1.0" encoding="UTF-8"?><svg xmlns="http://www.w3.org/2000/svg" xmlns:xlink="http://www.w3.org/1999/xlink" stroke-dasharray="none" shape-rendering="auto" font-family="'Dialog'" width="439" text-rendering="auto" fill-opacity="1" contentScriptType="text/ecmascript" color-interpolation="auto" color-rendering="auto" preserveAspectRatio="xMidYMid meet" font-size="12" viewBox="0 0 439 303" fill="black" stroke="black" image-rendering="auto" stroke-miterlimit="10" zoomAndPan="magnify" version="1.0" stroke-linecap="square" stroke-linejoin="miter" contentStyleType="text/css" font-style="normal" height="303" stroke-width="1" stroke-dashoffset="0" font-weight="normal" stroke-opacity="1">
<!--Generated by the Batik Graphics2D SVG Generator-->
<defs id="genericDefs"/>
<g>
<defs id="defs1">
<clipPath clipPathUnits="userSpaceOnUse" id="clipPath1">
<path d="M33 119 L135 119 L135 171 L33 171 L33 119 Z"/>
</clipPath>
<clipPath clipPathUnits="userSpaceOnUse" id="clipPath2">
<path d="M62 122 L105 122 L105 135 L62 135 L62 122 Z"/>
</clipPath>
<clipPath clipPathUnits="userSpaceOnUse" id="clipPath3">
<path d="M33 134 L135 134 L135 171 L33 171 L33 134 Z"/>
</clipPath>
<clipPath clipPathUnits="userSpaceOnUse" id="clipPath4">
<path d="M33 9 L135 9 L135 62 L33 62 L33 9 Z"/>
</clipPath>
<clipPath clipPathUnits="userSpaceOnUse" id="clipPath5">
<path d="M52 29 L117 29 L117 42 L52 42 L52 29 Z"/>
</clipPath>
<clipPath clipPathUnits="userSpaceOnUse" id="clipPath6">
<path d="M33 241 L135 241 L135 294 L33 294 L33 241 Z"/>
</clipPath>
<clipPath clipPathUnits="userSpaceOnUse" id="clipPath7">
<path d="M63 261 L107 261 L107 274 L63 274 L63 261 Z"/>
</clipPath>
<clipPath clipPathUnits="userSpaceOnUse" id="clipPath8">
<path d="M214 124 L430 124 L430 170 L214 170 L214 124 Z"/>
</clipPath>
<clipPath clipPathUnits="userSpaceOnUse" id="clipPath9">
<path d="M225 130 L409 130 L409 143 L225 143 L225 130 Z"/>
</clipPath>
<clipPath clipPathUnits="userSpaceOnUse" id="clipPath10">
<path d="M220 141 L386 141 L386 164 L220 164 L220 141 Z"/>
</clipPath>
<clipPath clipPathUnits="userSpaceOnUse" id="clipPath11">
<path d="M-1 -1 L440 -1 L440 304 L-1 304 L-1 -1 Z"/>
</clipPath>
<clipPath clipPathUnits="userSpaceOnUse" id="clipPath12">
<path d="M74 60 L93 60 L93 73 L74 73 L74 60 Z"/>
</clipPath>
<clipPath clipPathUnits="userSpaceOnUse" id="clipPath13">
<path d="M22 212 L78 212 L78 225 L22 225 L22 212 Z"/>
</clipPath>
<clipPath clipPathUnits="userSpaceOnUse" id="clipPath14">
<path d="M25 171 L79 171 L79 184 L25 184 L25 171 Z"/>
</clipPath>
<clipPath clipPathUnits="userSpaceOnUse" id="clipPath15">
<path d="M85 212 L96 212 L96 225 L85 225 L85 212 Z"/>
</clipPath>
<clipPath clipPathUnits="userSpaceOnUse" id="clipPath16">
<path d="M87 173 L97 173 L97 186 L87 186 L87 173 Z"/>
</clipPath>
<clipPath clipPathUnits="userSpaceOnUse" id="clipPath17">
<path d="M75 223 L90 223 L90 244 L75 244 L75 223 Z"/>
</clipPath>
</defs>
<g font-size="11" fill="white" stroke-linejoin="round" stroke="white" stroke-width="0" stroke-miterlimit="0">
<rect x="34" y="120" clip-path="url(#clipPath1)" width="100" rx="0" ry="0" height="50" stroke="none"/>
</g>
<g font-size="9" font-family="'Helvetica'" stroke-linejoin="round" font-weight="bold" stroke-width="0" stroke-miterlimit="0">
<text xml:space="preserve" x="63" y="130" clip-path="url(#clipPath2)" stroke="none">CallEvent</text>
</g>
<g font-size="11" stroke-width="1.1" stroke-linecap="butt">
<line clip-path="url(#clipPath3)" fill="none" x1="34" x2="134" y1="135" y2="135"/>
<rect x="34" y="120" clip-path="url(#clipPath1)" fill="none" width="99" rx="0" ry="0" height="49"/>
<rect x="34" y="10" clip-path="url(#clipPath4)" fill="silver" width="100" rx="0" ry="0" height="51" stroke="none"/>
</g>
<g stroke-linecap="butt" font-size="9" font-family="'Helvetica'" font-style="italic" font-weight="bold" stroke-width="1.1">
<text xml:space="preserve" x="53" y="37" clip-path="url(#clipPath5)" stroke="none">MessageEvent</text>
</g>
<g font-size="11" stroke-width="1.1" stroke-linecap="butt">
<rect x="34" y="10" clip-path="url(#clipPath4)" fill="none" width="99" rx="0" ry="0" height="50"/>
<rect x="34" y="242" clip-path="url(#clipPath6)" fill="silver" width="100" rx="0" ry="0" height="51" stroke="none"/>
<text x="64" font-size="9" y="269" clip-path="url(#clipPath7)" font-family="'Helvetica'" stroke="none" font-weight="bold" xml:space="preserve">Operation</text>
<rect x="34" y="242" clip-path="url(#clipPath6)" fill="none" width="99" rx="0" ry="0" height="50"/>
</g>
<g stroke-linecap="butt" font-size="9" fill="rgb(245,245,220)" font-family="'Helvetica'" stroke="rgb(245,245,220)" stroke-width="1.1">
<path d="M215 125 L215 125 L416 125 L428 137 L428 168 L215 168 L215 125 ZM215 125" clip-path="url(#clipPath8)" fill-rule="evenodd" stroke="none"/>
<text x="226" y="138" clip-path="url(#clipPath9)" fill="black" stroke="none" xml:space="preserve">pssm_call_event_operation_has_no_method</text>
<text x="221" y="149" clip-path="url(#clipPath10)" fill="black" stroke="none" xml:space="preserve">{{Natural language} The operation of the</text>
<text x="221" y="160" clip-path="url(#clipPath10)" fill="black" stroke="none" xml:space="preserve">CallEvent must not have any methods.}</text>
<line clip-path="url(#clipPath8)" fill="none" x1="215" x2="416" y1="125" y2="125" stroke="black"/>
<line clip-path="url(#clipPath8)" fill="none" x1="416" x2="428" y1="125" y2="137" stroke="black"/>
<line clip-path="url(#clipPath8)" fill="none" x1="428" x2="428" y1="137" y2="168" stroke="black"/>
<line clip-path="url(#clipPath8)" fill="none" x1="428" x2="215" y1="168" y2="168" stroke="black"/>
<line clip-path="url(#clipPath8)" fill="none" x1="215" x2="215" y1="168" y2="125" stroke="black"/>
<line clip-path="url(#clipPath8)" fill="none" x1="215" x2="215" y1="125" y2="125" stroke="black"/>
<line clip-path="url(#clipPath8)" fill="none" x1="416" x2="416" y1="125" y2="137" stroke="black"/>
<line clip-path="url(#clipPath8)" fill="none" x1="416" x2="429" y1="137" y2="137" stroke="black"/>
</g>
<g text-rendering="optimizeLegibility" stroke-width="1.1" font-size="9" stroke-linecap="butt">
<line clip-path="url(#clipPath11)" fill="none" x1="83" x2="83" y1="120" y2="61"/>
<polygon fill="white" clip-path="url(#clipPath12)" points=" 83 61 91 71 75 71" stroke="none"/>
<polygon fill="none" clip-path="url(#clipPath12)" points=" 83 61 91 71 75 71"/>
<line clip-path="url(#clipPath11)" fill="none" x1="82" x2="82" y1="242" y2="170"/>
<text xml:space="preserve" x="23" y="222" clip-path="url(#clipPath13)" stroke="none"> + operation</text>
<text xml:space="preserve" x="26" y="181" clip-path="url(#clipPath14)" stroke="none"> + callEvent</text>
<text xml:space="preserve" x="86" y="222" clip-path="url(#clipPath15)" stroke="none"> 1</text>
<text xml:space="preserve" x="88" y="183" clip-path="url(#clipPath16)" stroke="none"> *</text>
<polygon clip-path="url(#clipPath17)" points=" 81 242 79 240 79 238 81 236 82 236 76 224 82 236 88 224 82 236 83 236 85 238 85 240 83 242" stroke="none"/>
<polygon fill="none" clip-path="url(#clipPath17)" points=" 81 242 79 240 79 238 81 236 82 236 76 224 82 236 88 224 82 236 83 236 85 238 85 240 83 242"/>
<line clip-path="url(#clipPath11)" fill="none" x1="215" x2="134" y1="146" y2="146" stroke-dasharray="6.6,3.3"/>
</g>
</g>
</svg>
