<?xml version="1.0" encoding="UTF-8"?><svg xmlns="http://www.w3.org/2000/svg" xmlns:xlink="http://www.w3.org/1999/xlink" stroke-dasharray="none" shape-rendering="auto" font-family="'Dialog'" width="733" text-rendering="auto" fill-opacity="1" contentScriptType="text/ecmascript" color-interpolation="auto" color-rendering="auto" preserveAspectRatio="xMidYMid meet" font-size="12" viewBox="0 0 733 330" fill="black" stroke="black" image-rendering="auto" stroke-miterlimit="10" zoomAndPan="magnify" version="1.0" stroke-linecap="square" stroke-linejoin="miter" contentStyleType="text/css" font-style="normal" height="330" stroke-width="1" stroke-dashoffset="0" font-weight="normal" stroke-opacity="1">
<!--Generated by the Batik Graphics2D SVG Generator-->
<defs id="genericDefs"/>
<g>
<defs id="defs1">
<clipPath clipPathUnits="userSpaceOnUse" id="clipPath1">
<path d="M298 112 L400 112 L400 214 L298 214 L298 112 Z"/>
</clipPath>
<clipPath clipPathUnits="userSpaceOnUse" id="clipPath2">
<path d="M326 115 L372 115 L372 128 L326 128 L326 115 Z"/>
</clipPath>
<clipPath clipPathUnits="userSpaceOnUse" id="clipPath3">
<path d="M298 127 L400 127 L400 213 L298 213 L298 127 Z"/>
</clipPath>
<clipPath clipPathUnits="userSpaceOnUse" id="clipPath4">
<path d="M9 133 L111 133 L111 188 L9 188 L9 133 Z"/>
</clipPath>
<clipPath clipPathUnits="userSpaceOnUse" id="clipPath5">
<path d="M34 154 L87 154 L87 167 L34 167 L34 154 Z"/>
</clipPath>
<clipPath clipPathUnits="userSpaceOnUse" id="clipPath6">
<path d="M621 100 L723 100 L723 155 L621 155 L621 100 Z"/>
</clipPath>
<clipPath clipPathUnits="userSpaceOnUse" id="clipPath7">
<path d="M653 121 L692 121 L692 134 L653 134 L653 121 Z"/>
</clipPath>
<clipPath clipPathUnits="userSpaceOnUse" id="clipPath8">
<path d="M622 169 L724 169 L724 224 L622 224 L622 169 Z"/>
</clipPath>
<clipPath clipPathUnits="userSpaceOnUse" id="clipPath9">
<path d="M632 190 L715 190 L715 203 L632 203 L632 190 Z"/>
</clipPath>
<clipPath clipPathUnits="userSpaceOnUse" id="clipPath10">
<path d="M298 9 L400 9 L400 64 L298 64 L298 9 Z"/>
</clipPath>
<clipPath clipPathUnits="userSpaceOnUse" id="clipPath11">
<path d="M303 30 L396 30 L396 43 L303 43 L303 30 Z"/>
</clipPath>
<clipPath clipPathUnits="userSpaceOnUse" id="clipPath12">
<path d="M251 259 L448 259 L448 321 L251 321 L251 259 Z"/>
</clipPath>
<clipPath clipPathUnits="userSpaceOnUse" id="clipPath13">
<path d="M290 265 L400 265 L400 278 L290 278 L290 265 Z"/>
</clipPath>
<clipPath clipPathUnits="userSpaceOnUse" id="clipPath14">
<path d="M257 276 L427 276 L427 311 L257 311 L257 276 Z"/>
</clipPath>
<clipPath clipPathUnits="userSpaceOnUse" id="clipPath15">
<path d="M-1 -1 L734 -1 L734 331 L-1 331 L-1 -1 Z"/>
</clipPath>
<clipPath clipPathUnits="userSpaceOnUse" id="clipPath16">
<path d="M340 62 L359 62 L359 75 L340 75 L340 62 Z"/>
</clipPath>
<clipPath clipPathUnits="userSpaceOnUse" id="clipPath17">
<path d="M535 181 L605 181 L605 194 L535 194 L535 181 Z"/>
</clipPath>
<clipPath clipPathUnits="userSpaceOnUse" id="clipPath18">
<path d="M417 183 L508 183 L508 196 L417 196 L417 183 Z"/>
</clipPath>
<clipPath clipPathUnits="userSpaceOnUse" id="clipPath19">
<path d="M591 200 L602 200 L602 213 L591 213 L591 200 Z"/>
</clipPath>
<clipPath clipPathUnits="userSpaceOnUse" id="clipPath20">
<path d="M417 200 L440 200 L440 213 L417 213 L417 200 Z"/>
</clipPath>
<clipPath clipPathUnits="userSpaceOnUse" id="clipPath21">
<path d="M604 190 L625 190 L625 205 L604 205 L604 190 Z"/>
</clipPath>
<clipPath clipPathUnits="userSpaceOnUse" id="clipPath22">
<path d="M398 192 L417 192 L417 203 L398 203 L398 192 Z"/>
</clipPath>
<clipPath clipPathUnits="userSpaceOnUse" id="clipPath23">
<path d="M221 144 L283 144 L283 157 L221 157 L221 144 Z"/>
</clipPath>
<clipPath clipPathUnits="userSpaceOnUse" id="clipPath24">
<path d="M155 145 L202 145 L202 158 L155 158 L155 145 Z"/>
</clipPath>
<clipPath clipPathUnits="userSpaceOnUse" id="clipPath25">
<path d="M271 163 L281 163 L281 176 L271 176 L271 163 Z"/>
</clipPath>
<clipPath clipPathUnits="userSpaceOnUse" id="clipPath26">
<path d="M156 163 L179 163 L179 176 L156 176 L156 163 Z"/>
</clipPath>
<clipPath clipPathUnits="userSpaceOnUse" id="clipPath27">
<path d="M280 153 L301 153 L301 168 L280 168 L280 153 Z"/>
</clipPath>
<clipPath clipPathUnits="userSpaceOnUse" id="clipPath28">
<path d="M109 153 L152 153 L152 168 L109 168 L109 153 Z"/>
</clipPath>
<clipPath clipPathUnits="userSpaceOnUse" id="clipPath29">
<path d="M500 110 L601 110 L601 123 L500 123 L500 110 Z"/>
</clipPath>
<clipPath clipPathUnits="userSpaceOnUse" id="clipPath30">
<path d="M402 112 L460 112 L460 125 L402 125 L402 112 Z"/>
</clipPath>
<clipPath clipPathUnits="userSpaceOnUse" id="clipPath31">
<path d="M592 132 L602 132 L602 145 L592 145 L592 132 Z"/>
</clipPath>
<clipPath clipPathUnits="userSpaceOnUse" id="clipPath32">
<path d="M407 130 L417 130 L417 143 L407 143 L407 130 Z"/>
</clipPath>
<clipPath clipPathUnits="userSpaceOnUse" id="clipPath33">
<path d="M603 121 L624 121 L624 136 L603 136 L603 121 Z"/>
</clipPath>
</defs>
<g font-size="11" fill="white" stroke-linejoin="round" stroke="white" stroke-width="0" stroke-miterlimit="0">
<rect x="299" y="113" clip-path="url(#clipPath1)" width="100" rx="0" ry="0" height="100" stroke="none"/>
</g>
<g font-size="9" font-family="'Helvetica'" stroke-linejoin="round" font-weight="bold" stroke-width="0" stroke-miterlimit="0">
<text xml:space="preserve" x="327" y="123" clip-path="url(#clipPath2)" stroke="none">Constraint</text>
</g>
<g font-size="11" stroke-width="1.1" stroke-linecap="butt">
<line clip-path="url(#clipPath3)" fill="none" x1="299" x2="399" y1="128" y2="128"/>
<rect x="299" y="113" clip-path="url(#clipPath1)" fill="none" width="99" rx="0" ry="0" height="99"/>
<rect x="10" y="134" clip-path="url(#clipPath4)" fill="silver" width="100" rx="0" ry="0" height="53" stroke="none"/>
</g>
<g stroke-linecap="butt" font-size="9" font-family="'Helvetica'" font-style="italic" font-weight="bold" stroke-width="1.1">
<text xml:space="preserve" x="35" y="162" clip-path="url(#clipPath5)" stroke="none">Namespace</text>
</g>
<g font-size="11" stroke-width="1.1" stroke-linecap="butt">
<rect x="10" y="134" clip-path="url(#clipPath4)" fill="none" width="99" rx="0" ry="0" height="52"/>
<rect x="622" y="101" clip-path="url(#clipPath6)" fill="silver" width="100" rx="0" ry="0" height="53" stroke="none"/>
</g>
<g stroke-linecap="butt" font-size="9" font-family="'Helvetica'" font-style="italic" font-weight="bold" stroke-width="1.1">
<text xml:space="preserve" x="654" y="129" clip-path="url(#clipPath7)" stroke="none">Element</text>
</g>
<g font-size="11" stroke-width="1.1" stroke-linecap="butt">
<rect x="622" y="101" clip-path="url(#clipPath6)" fill="none" width="99" rx="0" ry="0" height="52"/>
<rect x="623" y="170" clip-path="url(#clipPath8)" fill="silver" width="100" rx="0" ry="0" height="53" stroke="none"/>
</g>
<g stroke-linecap="butt" font-size="9" font-family="'Helvetica'" font-style="italic" font-weight="bold" stroke-width="1.1">
<text xml:space="preserve" x="633" y="198" clip-path="url(#clipPath9)" stroke="none">ValueSpecification</text>
</g>
<g font-size="11" stroke-width="1.1" stroke-linecap="butt">
<rect x="623" y="170" clip-path="url(#clipPath8)" fill="none" width="99" rx="0" ry="0" height="52"/>
<rect x="299" y="10" clip-path="url(#clipPath10)" fill="silver" width="100" rx="0" ry="0" height="53" stroke="none"/>
</g>
<g stroke-linecap="butt" font-size="9" font-family="'Helvetica'" font-style="italic" font-weight="bold" stroke-width="1.1">
<text xml:space="preserve" x="304" y="38" clip-path="url(#clipPath11)" stroke="none">PackageableElement</text>
</g>
<g font-size="11" stroke-width="1.1" stroke-linecap="butt">
<rect x="299" y="10" clip-path="url(#clipPath10)" fill="none" width="99" rx="0" ry="0" height="52"/>
</g>
<g stroke-linecap="butt" font-size="9" fill="rgb(245,245,220)" font-family="'Helvetica'" stroke="rgb(245,245,220)" stroke-width="1.1">
<path d="M252 260 L252 260 L434 260 L446 272 L446 319 L252 319 L252 260 ZM252 260" clip-path="url(#clipPath12)" fill-rule="evenodd" stroke="none"/>
<text x="291" y="273" clip-path="url(#clipPath13)" fill="black" stroke="none" xml:space="preserve">pssm_constraint_is_guard</text>
<text x="258" y="284" clip-path="url(#clipPath14)" fill="black" stroke="none" xml:space="preserve">{{Natural language} A Constraint must be</text>
<text x="258" y="295" clip-path="url(#clipPath14)" fill="black" stroke="none" xml:space="preserve">owned as a guard by a Transition and its</text>
<text x="258" y="306" clip-path="url(#clipPath14)" fill="black" stroke="none" xml:space="preserve">constrainedElements must be empty.}</text>
<line clip-path="url(#clipPath12)" fill="none" x1="252" x2="434" y1="260" y2="260" stroke="black"/>
<line clip-path="url(#clipPath12)" fill="none" x1="434" x2="446" y1="260" y2="272" stroke="black"/>
<line clip-path="url(#clipPath12)" fill="none" x1="446" x2="446" y1="272" y2="319" stroke="black"/>
<line clip-path="url(#clipPath12)" fill="none" x1="446" x2="252" y1="319" y2="319" stroke="black"/>
<line clip-path="url(#clipPath12)" fill="none" x1="252" x2="252" y1="319" y2="260" stroke="black"/>
<line clip-path="url(#clipPath12)" fill="none" x1="252" x2="252" y1="260" y2="260" stroke="black"/>
<line clip-path="url(#clipPath12)" fill="none" x1="434" x2="434" y1="260" y2="272" stroke="black"/>
<line clip-path="url(#clipPath12)" fill="none" x1="434" x2="447" y1="272" y2="272" stroke="black"/>
</g>
<g text-rendering="optimizeLegibility" stroke-width="1.1" font-size="9" stroke-linecap="butt">
<line clip-path="url(#clipPath15)" fill="none" x1="349" x2="349" y1="113" y2="87"/>
<line clip-path="url(#clipPath15)" fill="none" x1="349" x2="349" y1="87" y2="63"/>
<polygon fill="white" clip-path="url(#clipPath16)" points=" 349 63 357 73 341 73" stroke="none"/>
<polygon fill="none" clip-path="url(#clipPath16)" points=" 349 63 357 73 341 73"/>
<line clip-path="url(#clipPath15)" fill="none" x1="623" x2="399" y1="197" y2="197"/>
<text xml:space="preserve" x="536" y="191" clip-path="url(#clipPath17)" stroke="none"> + specification</text>
<text xml:space="preserve" x="418" y="193" clip-path="url(#clipPath18)" stroke="none"> + owningConstraint</text>
<text xml:space="preserve" x="592" y="210" clip-path="url(#clipPath19)" stroke="none"> 1</text>
<text xml:space="preserve" x="418" y="210" clip-path="url(#clipPath20)" stroke="none"> 0..1</text>
<polygon clip-path="url(#clipPath21)" points=" 623 198 621 200 619 200 617 198 617 197 605 203 617 197 605 191 617 197 617 196 619 194 621 194 623 196" stroke="none"/>
<polygon fill="none" clip-path="url(#clipPath21)" points=" 623 198 621 200 619 200 617 198 617 197 605 203 617 197 605 191 617 197 617 196 619 194 621 194 623 196"/>
<polygon clip-path="url(#clipPath22)" points=" 399 197 407 193 415 197 407 201" stroke="none"/>
<polygon fill="none" clip-path="url(#clipPath22)" points=" 399 197 407 193 415 197 407 201"/>
<line clip-path="url(#clipPath15)" fill="none" x1="299" x2="110" y1="160" y2="160"/>
<text xml:space="preserve" x="222" y="154" clip-path="url(#clipPath23)" stroke="none"> + ownedRule</text>
<text xml:space="preserve" x="156" y="155" clip-path="url(#clipPath24)" stroke="none"> + context</text>
<text xml:space="preserve" x="272" y="173" clip-path="url(#clipPath25)" stroke="none"> *</text>
<text xml:space="preserve" x="157" y="173" clip-path="url(#clipPath26)" stroke="none"> 0..1</text>
<polygon clip-path="url(#clipPath27)" points=" 299 161 297 163 295 163 293 161 293 160 281 166 293 160 281 154 293 160 293 159 295 157 297 157 299 159" stroke="none"/>
<polygon fill="none" clip-path="url(#clipPath27)" points=" 299 161 297 163 295 163 293 161 293 160 281 166 293 160 281 154 293 160 293 159 295 157 297 157 299 159"/>
<polygon clip-path="url(#clipPath28)" points=" 110 159 112 158 114 158 116 159 116 160 125 156 134 160 150 154 134 160 150 166 134 160 125 165 116 160 116 161 114 162 112 162 110 161" stroke="none"/>
<polygon fill="none" clip-path="url(#clipPath28)" points=" 110 159 112 158 114 158 116 159 116 160 125 156 134 160 150 154 134 160 150 166 134 160 125 165 116 160 116 161 114 162 112 162 110 161"/>
<line clip-path="url(#clipPath15)" fill="none" x1="622" x2="399" y1="128" y2="128"/>
<text xml:space="preserve" x="501" y="120" clip-path="url(#clipPath29)" stroke="none"> + constrainedElement</text>
<text xml:space="preserve" x="403" y="122" clip-path="url(#clipPath30)" stroke="none"> + constraint</text>
<text xml:space="preserve" x="593" y="142" clip-path="url(#clipPath31)" stroke="none"> *</text>
<text xml:space="preserve" x="408" y="140" clip-path="url(#clipPath32)" stroke="none"> *</text>
<polygon clip-path="url(#clipPath33)" points=" 622 129 620 131 618 131 616 129 616 128 604 134 616 128 604 122 616 128 616 127 618 125 620 125 622 127" stroke="none"/>
<polygon fill="none" clip-path="url(#clipPath33)" points=" 622 129 620 131 618 131 616 129 616 128 604 134 616 128 604 122 616 128 616 127 618 125 620 125 622 127"/>
<line clip-path="url(#clipPath15)" fill="none" x1="349" x2="349" y1="260" y2="213" stroke-dasharray="6.6,3.3"/>
</g>
</g>
</svg>
