<?xml version="1.0" encoding="UTF-8"?><svg xmlns="http://www.w3.org/2000/svg" xmlns:xlink="http://www.w3.org/1999/xlink" stroke-dasharray="none" shape-rendering="auto" font-family="'Dialog'" width="554" text-rendering="auto" fill-opacity="1" contentScriptType="text/ecmascript" color-interpolation="auto" color-rendering="auto" preserveAspectRatio="xMidYMid meet" font-size="12" viewBox="0 0 554 315" fill="black" stroke="black" image-rendering="auto" stroke-miterlimit="10" zoomAndPan="magnify" version="1.0" stroke-linecap="square" stroke-linejoin="miter" contentStyleType="text/css" font-style="normal" height="315" stroke-width="1" stroke-dashoffset="0" font-weight="normal" stroke-opacity="1">
<!--Generated by the Batik Graphics2D SVG Generator-->
<defs id="genericDefs"/>
<g>
<defs id="defs1">
<clipPath clipPathUnits="userSpaceOnUse" id="clipPath1">
<path d="M280 133 L457 133 L457 183 L280 183 L280 133 Z"/>
</clipPath>
<clipPath clipPathUnits="userSpaceOnUse" id="clipPath2">
<path d="M329 136 L407 136 L407 151 L329 151 L329 136 Z"/>
</clipPath>
<clipPath clipPathUnits="userSpaceOnUse" id="clipPath3">
<path d="M285 152 L357 152 L357 167 L285 167 L285 152 Z"/>
</clipPath>
<clipPath clipPathUnits="userSpaceOnUse" id="clipPath4">
<path d="M285 165 L374 165 L374 180 L285 180 L285 165 Z"/>
</clipPath>
<clipPath clipPathUnits="userSpaceOnUse" id="clipPath5">
<path d="M280 150 L457 150 L457 183 L280 183 L280 150 Z"/>
</clipPath>
<clipPath clipPathUnits="userSpaceOnUse" id="clipPath6">
<path d="M193 25 L295 25 L295 79 L193 79 L193 25 Z"/>
</clipPath>
<clipPath clipPathUnits="userSpaceOnUse" id="clipPath7">
<path d="M205 44 L284 44 L284 59 L205 59 L205 44 Z"/>
</clipPath>
<clipPath clipPathUnits="userSpaceOnUse" id="clipPath8">
<path d="M260 251 L362 251 L362 305 L260 305 L260 251 Z"/>
</clipPath>
<clipPath clipPathUnits="userSpaceOnUse" id="clipPath9">
<path d="M291 270 L332 270 L332 285 L291 285 L291 270 Z"/>
</clipPath>
<clipPath clipPathUnits="userSpaceOnUse" id="clipPath10">
<path d="M376 252 L478 252 L478 306 L376 306 L376 252 Z"/>
</clipPath>
<clipPath clipPathUnits="userSpaceOnUse" id="clipPath11">
<path d="M405 271 L451 271 L451 286 L405 286 L405 271 Z"/>
</clipPath>
<clipPath clipPathUnits="userSpaceOnUse" id="clipPath12">
<path d="M342 25 L545 25 L545 80 L342 80 L342 25 Z"/>
</clipPath>
<clipPath clipPathUnits="userSpaceOnUse" id="clipPath13">
<path d="M357 31 L521 31 L521 46 L357 46 L357 31 Z"/>
</clipPath>
<clipPath clipPathUnits="userSpaceOnUse" id="clipPath14">
<path d="M348 44 L520 44 L520 72 L348 72 L348 44 Z"/>
</clipPath>
<clipPath clipPathUnits="userSpaceOnUse" id="clipPath15">
<path d="M65 130 L167 130 L167 185 L65 185 L65 130 Z"/>
</clipPath>
<clipPath clipPathUnits="userSpaceOnUse" id="clipPath16">
<path d="M93 133 L139 133 L139 148 L93 148 L93 133 Z"/>
</clipPath>
<clipPath clipPathUnits="userSpaceOnUse" id="clipPath17">
<path d="M70 149 L162 149 L162 164 L70 164 L70 149 Z"/>
</clipPath>
<clipPath clipPathUnits="userSpaceOnUse" id="clipPath18">
<path d="M65 147 L167 147 L167 185 L65 185 L65 147 Z"/>
</clipPath>
<clipPath clipPathUnits="userSpaceOnUse" id="clipPath19">
<path d="M22 238 L207 238 L207 304 L22 304 L22 238 Z"/>
</clipPath>
<clipPath clipPathUnits="userSpaceOnUse" id="clipPath20">
<path d="M45 244 L174 244 L174 259 L45 259 L45 244 Z"/>
</clipPath>
<clipPath clipPathUnits="userSpaceOnUse" id="clipPath21">
<path d="M28 257 L190 257 L190 298 L28 298 L28 257 Z"/>
</clipPath>
<clipPath clipPathUnits="userSpaceOnUse" id="clipPath22">
<path d="M-1 -1 L555 -1 L555 316 L-1 316 L-1 -1 Z"/>
</clipPath>
<clipPath clipPathUnits="userSpaceOnUse" id="clipPath23">
<path d="M235 77 L254 77 L254 90 L235 90 L235 77 Z"/>
</clipPath>
<clipPath clipPathUnits="userSpaceOnUse" id="clipPath24">
<path d="M260 215 L306 215 L306 230 L260 230 L260 215 Z"/>
</clipPath>
<clipPath clipPathUnits="userSpaceOnUse" id="clipPath25">
<path d="M220 184 L303 184 L303 199 L220 199 L220 184 Z"/>
</clipPath>
<clipPath clipPathUnits="userSpaceOnUse" id="clipPath26">
<path d="M314 216 L334 216 L334 231 L314 231 L314 216 Z"/>
</clipPath>
<clipPath clipPathUnits="userSpaceOnUse" id="clipPath27">
<path d="M316 186 L325 186 L325 201 L316 201 L316 186 Z"/>
</clipPath>
<clipPath clipPathUnits="userSpaceOnUse" id="clipPath28">
<path d="M304 233 L319 233 L319 254 L304 254 L304 233 Z"/>
</clipPath>
<clipPath clipPathUnits="userSpaceOnUse" id="clipPath29">
<path d="M430 217 L467 217 L467 232 L430 232 L430 217 Z"/>
</clipPath>
<clipPath clipPathUnits="userSpaceOnUse" id="clipPath30">
<path d="M431 184 L514 184 L514 199 L431 199 L431 184 Z"/>
</clipPath>
<clipPath clipPathUnits="userSpaceOnUse" id="clipPath31">
<path d="M401 218 L421 218 L421 233 L401 233 L401 218 Z"/>
</clipPath>
<clipPath clipPathUnits="userSpaceOnUse" id="clipPath32">
<path d="M413 182 L422 182 L422 197 L413 197 L413 182 Z"/>
</clipPath>
<clipPath clipPathUnits="userSpaceOnUse" id="clipPath33">
<path d="M418 234 L433 234 L433 255 L418 255 L418 234 Z"/>
</clipPath>
<clipPath clipPathUnits="userSpaceOnUse" id="clipPath34">
<path d="M131 33 L175 33 L175 48 L131 48 L131 33 Z"/>
</clipPath>
<clipPath clipPathUnits="userSpaceOnUse" id="clipPath35">
<path d="M22 98 L75 98 L75 113 L22 113 L22 98 Z"/>
</clipPath>
<clipPath clipPathUnits="userSpaceOnUse" id="clipPath36">
<path d="M165 52 L174 52 L174 67 L165 67 L165 52 Z"/>
</clipPath>
<clipPath clipPathUnits="userSpaceOnUse" id="clipPath37">
<path d="M81 99 L101 99 L101 114 L81 114 L81 99 Z"/>
</clipPath>
<clipPath clipPathUnits="userSpaceOnUse" id="clipPath38">
<path d="M175 42 L196 42 L196 57 L175 57 L175 42 Z"/>
</clipPath>
<clipPath clipPathUnits="userSpaceOnUse" id="clipPath39">
<path d="M74 114 L85 114 L85 133 L74 133 L74 114 Z"/>
</clipPath>
</defs>
<g font-size="11" fill="white" stroke-linejoin="round" stroke="white" stroke-width="0" stroke-miterlimit="0">
<rect x="281" y="134" clip-path="url(#clipPath1)" width="175" rx="0" ry="0" height="48" stroke="none"/>
</g>
<g font-size="10" font-family="'Calibri'" stroke-linejoin="round" font-weight="bold" stroke-width="0" stroke-miterlimit="0">
<text xml:space="preserve" x="330" y="147" clip-path="url(#clipPath2)" stroke="none">OpaqueExpression</text>
<text x="286" y="163" clip-path="url(#clipPath3)" stroke="none" font-weight="normal" xml:space="preserve"> + body: String [*]</text>
<text x="286" y="176" clip-path="url(#clipPath4)" stroke="none" font-weight="normal" xml:space="preserve"> + language: String [*]</text>
</g>
<g font-size="11" stroke-width="1.1" stroke-linecap="butt">
<line clip-path="url(#clipPath5)" fill="none" x1="281" x2="456" y1="151" y2="151"/>
<rect x="281" y="134" clip-path="url(#clipPath1)" fill="none" width="174" rx="0" ry="0" height="47"/>
<rect x="194" y="26" clip-path="url(#clipPath6)" fill="silver" width="100" rx="0" ry="0" height="52" stroke="none"/>
</g>
<g stroke-linecap="butt" font-size="10" font-family="'Calibri'" font-style="italic" font-weight="bold" stroke-width="1.1">
<text xml:space="preserve" x="206" y="55" clip-path="url(#clipPath7)" stroke="none">ValueSpecification</text>
</g>
<g font-size="11" stroke-width="1.1" stroke-linecap="butt">
<rect x="194" y="26" clip-path="url(#clipPath6)" fill="none" width="99" rx="0" ry="0" height="51"/>
<rect x="261" y="252" clip-path="url(#clipPath8)" fill="silver" width="100" rx="0" ry="0" height="52" stroke="none"/>
</g>
<g stroke-linecap="butt" font-size="10" font-family="'Calibri'" font-style="italic" font-weight="bold" stroke-width="1.1">
<text xml:space="preserve" x="292" y="281" clip-path="url(#clipPath9)" stroke="none">Behavior</text>
</g>
<g font-size="11" stroke-width="1.1" stroke-linecap="butt">
<rect x="261" y="252" clip-path="url(#clipPath8)" fill="none" width="99" rx="0" ry="0" height="51"/>
<rect x="377" y="253" clip-path="url(#clipPath10)" fill="silver" width="100" rx="0" ry="0" height="52" stroke="none"/>
<text x="406" font-size="10" y="282" clip-path="url(#clipPath11)" font-family="'Calibri'" stroke="none" font-weight="bold" xml:space="preserve">Parameter</text>
<rect x="377" y="253" clip-path="url(#clipPath10)" fill="none" width="99" rx="0" ry="0" height="51"/>
</g>
<g stroke-linecap="butt" font-size="10" fill="rgb(245,245,220)" font-family="'Calibri'" stroke="rgb(245,245,220)" stroke-width="1.1">
<path d="M343 26 L343 26 L531 26 L543 38 L543 78 L343 78 L343 26 ZM343 26" clip-path="url(#clipPath12)" fill-rule="evenodd" stroke="none"/>
<text x="358" y="42" clip-path="url(#clipPath13)" fill="black" stroke="none" xml:space="preserve">pssm_opaque_expression_has_behavior</text>
<text x="349" y="55" clip-path="url(#clipPath14)" fill="black" stroke="none" xml:space="preserve">{{Natural language} The OpaqueExpression</text>
<text x="349" y="68" clip-path="url(#clipPath14)" fill="black" stroke="none" xml:space="preserve">must have a behavior.}</text>
<line clip-path="url(#clipPath12)" fill="none" x1="343" x2="531" y1="26" y2="26" stroke="black"/>
<line clip-path="url(#clipPath12)" fill="none" x1="531" x2="543" y1="26" y2="38" stroke="black"/>
<line clip-path="url(#clipPath12)" fill="none" x1="543" x2="543" y1="38" y2="78" stroke="black"/>
<line clip-path="url(#clipPath12)" fill="none" x1="543" x2="343" y1="78" y2="78" stroke="black"/>
<line clip-path="url(#clipPath12)" fill="none" x1="343" x2="343" y1="78" y2="26" stroke="black"/>
<line clip-path="url(#clipPath12)" fill="none" x1="343" x2="343" y1="26" y2="26" stroke="black"/>
<line clip-path="url(#clipPath12)" fill="none" x1="531" x2="531" y1="26" y2="38" stroke="black"/>
<line clip-path="url(#clipPath12)" fill="none" x1="531" x2="544" y1="38" y2="38" stroke="black"/>
</g>
<g fill="white" font-size="11" stroke-width="1.1" stroke-linecap="butt" stroke="white">
<rect x="66" y="131" clip-path="url(#clipPath15)" width="100" rx="0" ry="0" height="53" stroke="none"/>
</g>
<g stroke-width="1.1" font-size="10" font-family="'Calibri'" font-weight="bold" stroke-linecap="butt">
<text xml:space="preserve" x="94" y="144" clip-path="url(#clipPath16)" stroke="none">Expression</text>
<text x="71" y="160" clip-path="url(#clipPath17)" stroke="none" font-weight="normal" xml:space="preserve"> + symbol: String [0..1]</text>
<line clip-path="url(#clipPath18)" fill="none" x1="66" x2="166" y1="148" y2="148"/>
<rect x="66" y="131" clip-path="url(#clipPath15)" fill="none" width="99" rx="0" ry="0" height="52"/>
<path fill="rgb(245,245,220)" d="M23 239 L23 239 L193 239 L205 251 L205 302 L23 302 L23 239 ZM23 239" clip-path="url(#clipPath19)" fill-rule="evenodd" stroke="none"/>
<text x="46" y="255" clip-path="url(#clipPath20)" stroke="none" font-weight="normal" xml:space="preserve">pssm_expression_only_for_else</text>
<text x="29" y="268" clip-path="url(#clipPath21)" stroke="none" font-weight="normal" xml:space="preserve">{{Natural language} The Expression must</text>
<text x="29" y="281" clip-path="url(#clipPath21)" stroke="none" font-weight="normal" xml:space="preserve">have no operands and its symbol must</text>
<text x="29" y="294" clip-path="url(#clipPath21)" stroke="none" font-weight="normal" xml:space="preserve">be "else". }</text>
<line clip-path="url(#clipPath19)" fill="none" x1="23" x2="193" y1="239" y2="239"/>
<line clip-path="url(#clipPath19)" fill="none" x1="193" x2="205" y1="239" y2="251"/>
<line clip-path="url(#clipPath19)" fill="none" x1="205" x2="205" y1="251" y2="302"/>
<line clip-path="url(#clipPath19)" fill="none" x1="205" x2="23" y1="302" y2="302"/>
<line clip-path="url(#clipPath19)" fill="none" x1="23" x2="23" y1="302" y2="239"/>
<line clip-path="url(#clipPath19)" fill="none" x1="23" x2="23" y1="239" y2="239"/>
<line clip-path="url(#clipPath19)" fill="none" x1="193" x2="193" y1="239" y2="251"/>
<line clip-path="url(#clipPath19)" fill="none" x1="193" x2="206" y1="251" y2="251"/>
<line clip-path="url(#clipPath22)" fill="none" text-rendering="optimizeLegibility" x1="375" x2="375" y1="134" y2="108"/>
<line clip-path="url(#clipPath22)" fill="none" text-rendering="optimizeLegibility" x1="375" x2="244" y1="108" y2="108"/>
<line clip-path="url(#clipPath22)" fill="none" text-rendering="optimizeLegibility" x1="244" x2="244" y1="108" y2="78"/>
</g>
<g stroke-linecap="butt" font-size="10" fill="white" text-rendering="optimizeLegibility" font-family="'Calibri'" stroke="white" stroke-width="1.1">
<polygon clip-path="url(#clipPath23)" points=" 244 78 252 88 236 88" stroke="none"/>
<polygon fill="none" clip-path="url(#clipPath23)" points=" 244 78 252 88 236 88" stroke="black"/>
<line clip-path="url(#clipPath22)" fill="none" x1="311" x2="311" y1="252" y2="182" stroke="black"/>
<text x="261" y="226" clip-path="url(#clipPath24)" fill="black" stroke="none" xml:space="preserve"> + behavior</text>
<text x="221" y="195" clip-path="url(#clipPath25)" fill="black" stroke="none" xml:space="preserve"> + opaqueExpression</text>
<text x="315" y="227" clip-path="url(#clipPath26)" fill="black" stroke="none" xml:space="preserve"> 0..1</text>
<text x="317" y="197" clip-path="url(#clipPath27)" fill="black" stroke="none" xml:space="preserve"> *</text>
<polygon fill="black" clip-path="url(#clipPath28)" points=" 310 252 308 250 308 248 310 246 311 246 305 234 311 246 317 234 311 246 312 246 314 248 314 250 312 252" stroke="none"/>
<polygon fill="none" clip-path="url(#clipPath28)" points=" 310 252 308 250 308 248 310 246 311 246 305 234 311 246 317 234 311 246 312 246 314 248 314 250 312 252" stroke="black"/>
<line clip-path="url(#clipPath22)" fill="none" x1="425" x2="425" y1="253" y2="182" stroke="black"/>
<text x="431" y="228" clip-path="url(#clipPath29)" fill="black" stroke="none" xml:space="preserve"> +/ result</text>
<text x="432" y="195" clip-path="url(#clipPath30)" fill="black" stroke="none" xml:space="preserve"> + opaqueExpression</text>
<text x="402" y="229" clip-path="url(#clipPath31)" fill="black" stroke="none" xml:space="preserve"> 0..1</text>
<text x="414" y="193" clip-path="url(#clipPath32)" fill="black" stroke="none" xml:space="preserve"> *</text>
<polygon fill="black" clip-path="url(#clipPath33)" points=" 424 253 422 251 422 249 424 247 425 247 419 235 425 247 431 235 425 247 426 247 428 249 428 251 426 253" stroke="none"/>
<polygon fill="none" clip-path="url(#clipPath33)" points=" 424 253 422 251 422 249 424 247 425 247 419 235 425 247 431 235 425 247 426 247 428 249 428 251 426 253" stroke="black"/>
<line clip-path="url(#clipPath22)" fill="none" x1="426" x2="426" y1="79" y2="134" stroke-dasharray="6.6,3.3" stroke="black"/>
<line clip-path="url(#clipPath22)" fill="none" x1="116" x2="116" y1="131" y2="108" stroke="black"/>
<line clip-path="url(#clipPath22)" fill="none" x1="116" x2="244" y1="108" y2="108" stroke="black"/>
<line clip-path="url(#clipPath22)" fill="none" x1="244" x2="244" y1="108" y2="78" stroke="black"/>
<polygon clip-path="url(#clipPath23)" points=" 244 78 252 88 236 88" stroke="none"/>
<polygon fill="none" clip-path="url(#clipPath23)" points=" 244 78 252 88 236 88" stroke="black"/>
<line clip-path="url(#clipPath22)" fill="none" x1="194" x2="79" y1="49" y2="49" stroke="black"/>
<line clip-path="url(#clipPath22)" fill="none" x1="79" x2="79" y1="49" y2="131" stroke="black"/>
<text x="132" y="44" clip-path="url(#clipPath34)" fill="black" stroke="none" xml:space="preserve"> + operand</text>
<text x="23" y="109" clip-path="url(#clipPath35)" fill="black" stroke="none" xml:space="preserve"> + expression</text>
<text x="166" y="63" clip-path="url(#clipPath36)" fill="black" stroke="none" xml:space="preserve"> *</text>
<text x="82" y="110" clip-path="url(#clipPath37)" fill="black" stroke="none" xml:space="preserve"> 0..1</text>
<polygon fill="black" clip-path="url(#clipPath38)" points=" 194 50 192 52 190 52 188 50 188 49 176 55 188 49 176 43 188 49 188 48 190 46 192 46 194 48" stroke="none"/>
<polygon fill="none" clip-path="url(#clipPath38)" points=" 194 50 192 52 190 52 188 50 188 49 176 55 188 49 176 43 188 49 188 48 190 46 192 46 194 48" stroke="black"/>
<polygon fill="black" clip-path="url(#clipPath39)" points=" 79 131 75 123 79 115 83 123" stroke="none"/>
<polygon fill="none" clip-path="url(#clipPath39)" points=" 79 131 75 123 79 115 83 123" stroke="black"/>
<line clip-path="url(#clipPath22)" fill="none" x1="115" x2="115" y1="239" y2="184" stroke-dasharray="6.6,3.3" stroke="black"/>
</g>
</g>
</svg>
