<?xml version="1.0" encoding="UTF-8"?><svg xmlns="http://www.w3.org/2000/svg" xmlns:xlink="http://www.w3.org/1999/xlink" stroke-dasharray="none" shape-rendering="auto" font-family="'Dialog'" width="558" text-rendering="auto" fill-opacity="1" contentScriptType="text/ecmascript" color-interpolation="auto" color-rendering="auto" preserveAspectRatio="xMidYMid meet" font-size="12" viewBox="0 0 558 298" fill="black" stroke="black" image-rendering="auto" stroke-miterlimit="10" zoomAndPan="magnify" version="1.0" stroke-linecap="square" stroke-linejoin="miter" contentStyleType="text/css" font-style="normal" height="298" stroke-width="1" stroke-dashoffset="0" font-weight="normal" stroke-opacity="1">
<!--Generated by the Batik Graphics2D SVG Generator-->
<defs id="genericDefs"/>
<g>
<defs id="defs1">
<clipPath clipPathUnits="userSpaceOnUse" id="clipPath1">
<path d="M88 116 L265 116 L265 166 L88 166 L88 116 Z"/>
</clipPath>
<clipPath clipPathUnits="userSpaceOnUse" id="clipPath2">
<path d="M135 119 L217 119 L217 132 L135 132 L135 119 Z"/>
</clipPath>
<clipPath clipPathUnits="userSpaceOnUse" id="clipPath3">
<path d="M93 133 L169 133 L169 146 L93 146 L93 133 Z"/>
</clipPath>
<clipPath clipPathUnits="userSpaceOnUse" id="clipPath4">
<path d="M93 144 L186 144 L186 157 L93 157 L93 144 Z"/>
</clipPath>
<clipPath clipPathUnits="userSpaceOnUse" id="clipPath5">
<path d="M88 131 L265 131 L265 166 L88 166 L88 131 Z"/>
</clipPath>
<clipPath clipPathUnits="userSpaceOnUse" id="clipPath6">
<path d="M126 9 L228 9 L228 63 L126 63 L126 9 Z"/>
</clipPath>
<clipPath clipPathUnits="userSpaceOnUse" id="clipPath7">
<path d="M136 29 L219 29 L219 42 L136 42 L136 29 Z"/>
</clipPath>
<clipPath clipPathUnits="userSpaceOnUse" id="clipPath8">
<path d="M68 234 L170 234 L170 288 L68 288 L68 234 Z"/>
</clipPath>
<clipPath clipPathUnits="userSpaceOnUse" id="clipPath9">
<path d="M99 254 L141 254 L141 267 L99 267 L99 254 Z"/>
</clipPath>
<clipPath clipPathUnits="userSpaceOnUse" id="clipPath10">
<path d="M184 235 L286 235 L286 289 L184 289 L184 235 Z"/>
</clipPath>
<clipPath clipPathUnits="userSpaceOnUse" id="clipPath11">
<path d="M212 255 L259 255 L259 268 L212 268 L212 255 Z"/>
</clipPath>
<clipPath clipPathUnits="userSpaceOnUse" id="clipPath12">
<path d="M346 117 L549 117 L549 165 L346 165 L346 117 Z"/>
</clipPath>
<clipPath clipPathUnits="userSpaceOnUse" id="clipPath13">
<path d="M358 123 L527 123 L527 136 L358 136 L358 123 Z"/>
</clipPath>
<clipPath clipPathUnits="userSpaceOnUse" id="clipPath14">
<path d="M352 134 L531 134 L531 158 L352 158 L352 134 Z"/>
</clipPath>
<clipPath clipPathUnits="userSpaceOnUse" id="clipPath15">
<path d="M-1 -1 L559 -1 L559 299 L-1 299 L-1 -1 Z"/>
</clipPath>
<clipPath clipPathUnits="userSpaceOnUse" id="clipPath16">
<path d="M168 61 L187 61 L187 74 L168 74 L168 61 Z"/>
</clipPath>
<clipPath clipPathUnits="userSpaceOnUse" id="clipPath17">
<path d="M65 199 L117 199 L117 212 L65 212 L65 199 Z"/>
</clipPath>
<clipPath clipPathUnits="userSpaceOnUse" id="clipPath18">
<path d="M22 168 L116 168 L116 181 L22 181 L22 168 Z"/>
</clipPath>
<clipPath clipPathUnits="userSpaceOnUse" id="clipPath19">
<path d="M121 200 L144 200 L144 213 L121 213 L121 200 Z"/>
</clipPath>
<clipPath clipPathUnits="userSpaceOnUse" id="clipPath20">
<path d="M123 170 L133 170 L133 183 L123 183 L123 170 Z"/>
</clipPath>
<clipPath clipPathUnits="userSpaceOnUse" id="clipPath21">
<path d="M112 216 L127 216 L127 237 L112 237 L112 216 Z"/>
</clipPath>
<clipPath clipPathUnits="userSpaceOnUse" id="clipPath22">
<path d="M237 201 L279 201 L279 214 L237 214 L237 201 Z"/>
</clipPath>
<clipPath clipPathUnits="userSpaceOnUse" id="clipPath23">
<path d="M237 168 L331 168 L331 181 L237 181 L237 168 Z"/>
</clipPath>
<clipPath clipPathUnits="userSpaceOnUse" id="clipPath24">
<path d="M208 202 L231 202 L231 215 L208 215 L208 202 Z"/>
</clipPath>
<clipPath clipPathUnits="userSpaceOnUse" id="clipPath25">
<path d="M220 166 L230 166 L230 179 L220 179 L220 166 Z"/>
</clipPath>
<clipPath clipPathUnits="userSpaceOnUse" id="clipPath26">
<path d="M226 217 L241 217 L241 238 L226 238 L226 217 Z"/>
</clipPath>
</defs>
<g font-size="11" fill="white" stroke-linejoin="round" stroke="white" stroke-width="0" stroke-miterlimit="0">
<rect x="89" y="117" clip-path="url(#clipPath1)" width="175" rx="0" ry="0" height="48" stroke="none"/>
</g>
<g font-size="9" font-family="'Helvetica'" stroke-linejoin="round" font-weight="bold" stroke-width="0" stroke-miterlimit="0">
<text xml:space="preserve" x="136" y="127" clip-path="url(#clipPath2)" stroke="none">OpaqueExpression</text>
<text x="94" y="141" clip-path="url(#clipPath3)" stroke="none" font-weight="normal" xml:space="preserve"> + body: String [*]</text>
<text x="94" y="152" clip-path="url(#clipPath4)" stroke="none" font-weight="normal" xml:space="preserve"> + language: String [*]</text>
</g>
<g font-size="11" stroke-width="1.1" stroke-linecap="butt">
<line clip-path="url(#clipPath5)" fill="none" x1="89" x2="264" y1="132" y2="132"/>
<rect x="89" y="117" clip-path="url(#clipPath1)" fill="none" width="174" rx="0" ry="0" height="47"/>
<rect x="127" y="10" clip-path="url(#clipPath6)" fill="silver" width="100" rx="0" ry="0" height="52" stroke="none"/>
</g>
<g stroke-linecap="butt" font-size="9" font-family="'Helvetica'" font-style="italic" font-weight="bold" stroke-width="1.1">
<text xml:space="preserve" x="137" y="37" clip-path="url(#clipPath7)" stroke="none">ValueSpecification</text>
</g>
<g font-size="11" stroke-width="1.1" stroke-linecap="butt">
<rect x="127" y="10" clip-path="url(#clipPath6)" fill="none" width="99" rx="0" ry="0" height="51"/>
<rect x="69" y="235" clip-path="url(#clipPath8)" fill="silver" width="100" rx="0" ry="0" height="52" stroke="none"/>
</g>
<g stroke-linecap="butt" font-size="9" font-family="'Helvetica'" font-style="italic" font-weight="bold" stroke-width="1.1">
<text xml:space="preserve" x="100" y="262" clip-path="url(#clipPath9)" stroke="none">Behavior</text>
</g>
<g font-size="11" stroke-width="1.1" stroke-linecap="butt">
<rect x="69" y="235" clip-path="url(#clipPath8)" fill="none" width="99" rx="0" ry="0" height="51"/>
<rect x="185" y="236" clip-path="url(#clipPath10)" fill="silver" width="100" rx="0" ry="0" height="52" stroke="none"/>
<text x="213" font-size="9" y="263" clip-path="url(#clipPath11)" font-family="'Helvetica'" stroke="none" font-weight="bold" xml:space="preserve">Parameter</text>
<rect x="185" y="236" clip-path="url(#clipPath10)" fill="none" width="99" rx="0" ry="0" height="51"/>
</g>
<g stroke-linecap="butt" font-size="9" fill="rgb(245,245,220)" font-family="'Helvetica'" stroke="rgb(245,245,220)" stroke-width="1.1">
<path d="M347 118 L347 118 L535 118 L547 130 L547 163 L347 163 L347 118 ZM347 118" clip-path="url(#clipPath12)" fill-rule="evenodd" stroke="none"/>
<text x="359" y="131" clip-path="url(#clipPath13)" fill="black" stroke="none" xml:space="preserve">pssm_opaque_expression_has_behavior</text>
<text x="353" y="142" clip-path="url(#clipPath14)" fill="black" stroke="none" xml:space="preserve">{{Natural language} The OpaqueExpression</text>
<text x="353" y="153" clip-path="url(#clipPath14)" fill="black" stroke="none" xml:space="preserve">must have a behavior.}</text>
<line clip-path="url(#clipPath12)" fill="none" x1="347" x2="535" y1="118" y2="118" stroke="black"/>
<line clip-path="url(#clipPath12)" fill="none" x1="535" x2="547" y1="118" y2="130" stroke="black"/>
<line clip-path="url(#clipPath12)" fill="none" x1="547" x2="547" y1="130" y2="163" stroke="black"/>
<line clip-path="url(#clipPath12)" fill="none" x1="547" x2="347" y1="163" y2="163" stroke="black"/>
<line clip-path="url(#clipPath12)" fill="none" x1="347" x2="347" y1="163" y2="118" stroke="black"/>
<line clip-path="url(#clipPath12)" fill="none" x1="347" x2="347" y1="118" y2="118" stroke="black"/>
<line clip-path="url(#clipPath12)" fill="none" x1="535" x2="535" y1="118" y2="130" stroke="black"/>
<line clip-path="url(#clipPath12)" fill="none" x1="535" x2="548" y1="130" y2="130" stroke="black"/>
</g>
<g text-rendering="optimizeLegibility" stroke-width="1.1" font-size="9" stroke-linecap="butt">
<line clip-path="url(#clipPath15)" fill="none" x1="177" x2="177" y1="117" y2="62"/>
<polygon fill="white" clip-path="url(#clipPath16)" points=" 177 62 185 72 169 72" stroke="none"/>
<polygon fill="none" clip-path="url(#clipPath16)" points=" 177 62 185 72 169 72"/>
<line clip-path="url(#clipPath15)" fill="none" x1="119" x2="119" y1="235" y2="165"/>
<text xml:space="preserve" x="66" y="209" clip-path="url(#clipPath17)" stroke="none"> + behavior</text>
<text xml:space="preserve" x="23" y="178" clip-path="url(#clipPath18)" stroke="none"> + opaqueExpression</text>
<text xml:space="preserve" x="122" y="210" clip-path="url(#clipPath19)" stroke="none"> 0..1</text>
<text xml:space="preserve" x="124" y="180" clip-path="url(#clipPath20)" stroke="none"> *</text>
<polygon clip-path="url(#clipPath21)" points=" 118 235 116 233 116 231 118 229 119 229 113 217 119 229 125 217 119 229 120 229 122 231 122 233 120 235" stroke="none"/>
<polygon fill="none" clip-path="url(#clipPath21)" points=" 118 235 116 233 116 231 118 229 119 229 113 217 119 229 125 217 119 229 120 229 122 231 122 233 120 235"/>
<line clip-path="url(#clipPath15)" fill="none" x1="233" x2="233" y1="236" y2="165"/>
<text xml:space="preserve" x="238" y="211" clip-path="url(#clipPath22)" stroke="none"> +/ result</text>
<text xml:space="preserve" x="238" y="178" clip-path="url(#clipPath23)" stroke="none"> + opaqueExpression</text>
<text xml:space="preserve" x="209" y="212" clip-path="url(#clipPath24)" stroke="none"> 0..1</text>
<text xml:space="preserve" x="221" y="176" clip-path="url(#clipPath25)" stroke="none"> *</text>
<polygon clip-path="url(#clipPath26)" points=" 232 236 230 234 230 232 232 230 233 230 227 218 233 230 239 218 233 230 234 230 236 232 236 234 234 236" stroke="none"/>
<polygon fill="none" clip-path="url(#clipPath26)" points=" 232 236 230 234 230 232 232 230 233 230 227 218 233 230 239 218 233 230 234 230 236 232 236 234 234 236"/>
<line clip-path="url(#clipPath15)" fill="none" x1="347" x2="264" y1="140" y2="140" stroke-dasharray="6.6,3.3"/>
</g>
</g>
</svg>
