<?xml version="1.0" encoding="UTF-8"?><svg xmlns="http://www.w3.org/2000/svg" xmlns:xlink="http://www.w3.org/1999/xlink" stroke-dasharray="none" shape-rendering="auto" font-family="'Dialog'" width="407" text-rendering="auto" fill-opacity="1" contentScriptType="text/ecmascript" color-interpolation="auto" color-rendering="auto" preserveAspectRatio="xMidYMid meet" font-size="12" viewBox="0 0 407 164" fill="black" stroke="black" image-rendering="auto" stroke-miterlimit="10" zoomAndPan="magnify" version="1.0" stroke-linecap="square" stroke-linejoin="miter" contentStyleType="text/css" font-style="normal" height="164" stroke-width="1" stroke-dashoffset="0" font-weight="normal" stroke-opacity="1">
<!--Generated by the Batik Graphics2D SVG Generator-->
<defs id="genericDefs"/>
<g>
<defs id="defs1">
<clipPath clipPathUnits="userSpaceOnUse" id="clipPath1">
<path d="M9 13 L111 13 L111 66 L9 66 L9 13 Z"/>
</clipPath>
<clipPath clipPathUnits="userSpaceOnUse" id="clipPath2">
<path d="M39 33 L83 33 L83 46 L39 46 L39 33 Z"/>
</clipPath>
<clipPath clipPathUnits="userSpaceOnUse" id="clipPath3">
<path d="M182 9 L398 9 L398 71 L182 71 L182 9 Z"/>
</clipPath>
<clipPath clipPathUnits="userSpaceOnUse" id="clipPath4">
<path d="M195 15 L375 15 L375 28 L195 28 L195 15 Z"/>
</clipPath>
<clipPath clipPathUnits="userSpaceOnUse" id="clipPath5">
<path d="M188 26 L383 26 L383 61 L188 61 L188 26 Z"/>
</clipPath>
<clipPath clipPathUnits="userSpaceOnUse" id="clipPath6">
<path d="M211 110 L369 110 L369 155 L211 155 L211 110 Z"/>
</clipPath>
<clipPath clipPathUnits="userSpaceOnUse" id="clipPath7">
<path d="M217 116 L354 116 L354 140 L217 140 L217 116 Z"/>
</clipPath>
<clipPath clipPathUnits="userSpaceOnUse" id="clipPath8">
<path d="M-1 -1 L408 -1 L408 165 L-1 165 L-1 -1 Z"/>
</clipPath>
</defs>
<g font-size="11" fill="white" stroke-linejoin="round" stroke="white" stroke-width="0" stroke-miterlimit="0">
<rect x="10" y="14" clip-path="url(#clipPath1)" width="100" rx="0" ry="0" height="51" stroke="none"/>
</g>
<g font-size="9" font-family="'Helvetica'" stroke-linejoin="round" font-weight="bold" stroke-width="0" stroke-miterlimit="0">
<text xml:space="preserve" x="40" y="41" clip-path="url(#clipPath2)" stroke="none">Operation</text>
</g>
<g font-size="11" stroke-width="1.1" stroke-linecap="butt">
<rect x="10" y="14" clip-path="url(#clipPath1)" fill="none" width="99" rx="0" ry="0" height="50"/>
</g>
<g stroke-linecap="butt" font-size="9" fill="rgb(245,245,220)" font-family="'Helvetica'" stroke="rgb(245,245,220)" stroke-width="1.1">
<path d="M183 10 L183 10 L384 10 L396 22 L396 69 L183 69 L183 10 ZM183 10" clip-path="url(#clipPath3)" fill-rule="evenodd" stroke="none"/>
<text x="196" y="23" clip-path="url(#clipPath4)" fill="black" stroke="none" xml:space="preserve">pssm_operation_has_at_most_one_method</text>
<text x="189" y="34" clip-path="url(#clipPath5)" fill="black" stroke="none" xml:space="preserve">{{Natural language} If an Operation is abstract,</text>
<text x="189" y="45" clip-path="url(#clipPath5)" fill="black" stroke="none" xml:space="preserve">it must have no method. Otherwise it must not</text>
<text x="189" y="56" clip-path="url(#clipPath5)" fill="black" stroke="none" xml:space="preserve">have more than one method.}</text>
<line clip-path="url(#clipPath3)" fill="none" x1="183" x2="384" y1="10" y2="10" stroke="black"/>
<line clip-path="url(#clipPath3)" fill="none" x1="384" x2="396" y1="10" y2="22" stroke="black"/>
<line clip-path="url(#clipPath3)" fill="none" x1="396" x2="396" y1="22" y2="69" stroke="black"/>
<line clip-path="url(#clipPath3)" fill="none" x1="396" x2="183" y1="69" y2="69" stroke="black"/>
<line clip-path="url(#clipPath3)" fill="none" x1="183" x2="183" y1="69" y2="10" stroke="black"/>
<line clip-path="url(#clipPath3)" fill="none" x1="183" x2="183" y1="10" y2="10" stroke="black"/>
<line clip-path="url(#clipPath3)" fill="none" x1="384" x2="384" y1="10" y2="22" stroke="black"/>
<line clip-path="url(#clipPath3)" fill="none" x1="384" x2="397" y1="22" y2="22" stroke="black"/>
<path d="M212 111 L212 111 L355 111 L367 123 L367 153 L212 153 L212 111 ZM212 111" clip-path="url(#clipPath6)" fill-rule="evenodd" stroke="none"/>
<text x="218" y="124" clip-path="url(#clipPath7)" fill="black" stroke="none" xml:space="preserve">This replaces fUML constraint</text>
<text x="218" y="135" clip-path="url(#clipPath7)" fill="black" stroke="none" xml:space="preserve">Operation::zero_or_one_method.</text>
<line clip-path="url(#clipPath6)" fill="none" x1="212" x2="355" y1="111" y2="111" stroke="black"/>
<line clip-path="url(#clipPath6)" fill="none" x1="355" x2="367" y1="111" y2="123" stroke="black"/>
<line clip-path="url(#clipPath6)" fill="none" x1="367" x2="367" y1="123" y2="153" stroke="black"/>
<line clip-path="url(#clipPath6)" fill="none" x1="367" x2="212" y1="153" y2="153" stroke="black"/>
<line clip-path="url(#clipPath6)" fill="none" x1="212" x2="212" y1="153" y2="111" stroke="black"/>
<line clip-path="url(#clipPath6)" fill="none" x1="212" x2="212" y1="111" y2="111" stroke="black"/>
<line clip-path="url(#clipPath6)" fill="none" x1="355" x2="355" y1="111" y2="123" stroke="black"/>
<line clip-path="url(#clipPath6)" fill="none" x1="355" x2="368" y1="123" y2="123" stroke="black"/>
</g>
<g text-rendering="optimizeLegibility" stroke-width="1.1" font-size="9" stroke-dasharray="6.6,3.3" stroke-linecap="butt">
<line clip-path="url(#clipPath8)" fill="none" x1="183" x2="110" y1="38" y2="38"/>
<line clip-path="url(#clipPath8)" fill="none" x1="291" x2="291" y1="111" y2="70"/>
</g>
</g>
</svg>
