<?xml version="1.0" encoding="UTF-8"?><svg xmlns="http://www.w3.org/2000/svg" xmlns:xlink="http://www.w3.org/1999/xlink" stroke-dasharray="none" shape-rendering="auto" font-family="'Dialog'" width="407" text-rendering="auto" fill-opacity="1" contentScriptType="text/ecmascript" color-interpolation="auto" color-rendering="auto" preserveAspectRatio="xMidYMid meet" font-size="12" viewBox="0 0 407 179" fill="black" stroke="black" image-rendering="auto" stroke-miterlimit="10" zoomAndPan="magnify" version="1.0" stroke-linecap="square" stroke-linejoin="miter" contentStyleType="text/css" font-style="normal" height="179" stroke-width="1" stroke-dashoffset="0" font-weight="normal" stroke-opacity="1">
<!--Generated by the Batik Graphics2D SVG Generator-->
<defs id="genericDefs"/>
<g>
<defs id="defs1">
<clipPath clipPathUnits="userSpaceOnUse" id="clipPath1">
<path d="M9 28 L111 28 L111 81 L9 81 L9 28 Z"/>
</clipPath>
<clipPath clipPathUnits="userSpaceOnUse" id="clipPath2">
<path d="M39 47 L83 47 L83 62 L39 62 L39 47 Z"/>
</clipPath>
<clipPath clipPathUnits="userSpaceOnUse" id="clipPath3">
<path d="M182 9 L398 9 L398 101 L182 101 L182 9 Z"/>
</clipPath>
<clipPath clipPathUnits="userSpaceOnUse" id="clipPath4">
<path d="M195 15 L375 15 L375 30 L195 30 L195 15 Z"/>
</clipPath>
<clipPath clipPathUnits="userSpaceOnUse" id="clipPath5">
<path d="M188 28 L381 28 L381 95 L188 95 L188 28 Z"/>
</clipPath>
<clipPath clipPathUnits="userSpaceOnUse" id="clipPath6">
<path d="M181 125 L397 125 L397 170 L181 170 L181 125 Z"/>
</clipPath>
<clipPath clipPathUnits="userSpaceOnUse" id="clipPath7">
<path d="M187 131 L345 131 L345 159 L187 159 L187 131 Z"/>
</clipPath>
<clipPath clipPathUnits="userSpaceOnUse" id="clipPath8">
<path d="M-1 -1 L408 -1 L408 180 L-1 180 L-1 -1 Z"/>
</clipPath>
</defs>
<g font-size="11" fill="white" stroke-linejoin="round" stroke="white" stroke-width="0" stroke-miterlimit="0">
<rect x="10" y="29" clip-path="url(#clipPath1)" width="100" rx="0" ry="0" height="51" stroke="none"/>
</g>
<g font-size="10" font-family="'Calibri'" stroke-linejoin="round" font-weight="bold" stroke-width="0" stroke-miterlimit="0">
<text xml:space="preserve" x="40" y="58" clip-path="url(#clipPath2)" stroke="none">Operation</text>
</g>
<g font-size="11" stroke-width="1.1" stroke-linecap="butt">
<rect x="10" y="29" clip-path="url(#clipPath1)" fill="none" width="99" rx="0" ry="0" height="50"/>
</g>
<g stroke-linecap="butt" font-size="10" fill="rgb(245,245,220)" font-family="'Calibri'" stroke="rgb(245,245,220)" stroke-width="1.1">
<path d="M183 10 L183 10 L384 10 L396 22 L396 99 L183 99 L183 10 ZM183 10" clip-path="url(#clipPath3)" fill-rule="evenodd" stroke="none"/>
<text x="196" y="26" clip-path="url(#clipPath4)" fill="black" stroke="none" xml:space="preserve">pssm_operation_has_at_most_one_method</text>
<text x="189" y="39" clip-path="url(#clipPath5)" fill="black" stroke="none" xml:space="preserve">{{Natural language} If an Operation is abstract, it</text>
<text x="189" y="52" clip-path="url(#clipPath5)" fill="black" stroke="none" xml:space="preserve">must have no method. Otherwise it must not</text>
<text x="189" y="65" clip-path="url(#clipPath5)" fill="black" stroke="none" xml:space="preserve">have more than one method and it must have</text>
<text x="189" y="78" clip-path="url(#clipPath5)" fill="black" stroke="none" xml:space="preserve">exactly one method unless owned by an active</text>
<text x="189" y="91" clip-path="url(#clipPath5)" fill="black" stroke="none" xml:space="preserve">Class.}</text>
<line clip-path="url(#clipPath3)" fill="none" x1="183" x2="384" y1="10" y2="10" stroke="black"/>
<line clip-path="url(#clipPath3)" fill="none" x1="384" x2="396" y1="10" y2="22" stroke="black"/>
<line clip-path="url(#clipPath3)" fill="none" x1="396" x2="396" y1="22" y2="99" stroke="black"/>
<line clip-path="url(#clipPath3)" fill="none" x1="396" x2="183" y1="99" y2="99" stroke="black"/>
<line clip-path="url(#clipPath3)" fill="none" x1="183" x2="183" y1="99" y2="10" stroke="black"/>
<line clip-path="url(#clipPath3)" fill="none" x1="183" x2="183" y1="10" y2="10" stroke="black"/>
<line clip-path="url(#clipPath3)" fill="none" x1="384" x2="384" y1="10" y2="22" stroke="black"/>
<line clip-path="url(#clipPath3)" fill="none" x1="384" x2="397" y1="22" y2="22" stroke="black"/>
<path d="M182 126 L182 126 L383 126 L395 138 L395 168 L182 168 L182 126 ZM182 126" clip-path="url(#clipPath6)" fill-rule="evenodd" stroke="none"/>
<text x="188" y="142" clip-path="url(#clipPath7)" fill="black" stroke="none" xml:space="preserve">This replaces fUML constraint</text>
<text x="188" y="155" clip-path="url(#clipPath7)" fill="black" stroke="none" xml:space="preserve">fuml_operation_zero_or_one_method.</text>
<line clip-path="url(#clipPath6)" fill="none" x1="182" x2="383" y1="126" y2="126" stroke="black"/>
<line clip-path="url(#clipPath6)" fill="none" x1="383" x2="395" y1="126" y2="138" stroke="black"/>
<line clip-path="url(#clipPath6)" fill="none" x1="395" x2="395" y1="138" y2="168" stroke="black"/>
<line clip-path="url(#clipPath6)" fill="none" x1="395" x2="182" y1="168" y2="168" stroke="black"/>
<line clip-path="url(#clipPath6)" fill="none" x1="182" x2="182" y1="168" y2="126" stroke="black"/>
<line clip-path="url(#clipPath6)" fill="none" x1="182" x2="182" y1="126" y2="126" stroke="black"/>
<line clip-path="url(#clipPath6)" fill="none" x1="383" x2="383" y1="126" y2="138" stroke="black"/>
<line clip-path="url(#clipPath6)" fill="none" x1="383" x2="396" y1="138" y2="138" stroke="black"/>
</g>
<g stroke-linecap="butt" font-size="10" text-rendering="optimizeLegibility" font-family="'Calibri'" stroke-dasharray="6.6,3.3" stroke-width="1.1">
<line clip-path="url(#clipPath8)" fill="none" x1="183" x2="110" y1="53" y2="53"/>
<line clip-path="url(#clipPath8)" fill="none" x1="289" x2="289" y1="126" y2="100"/>
</g>
</g>
</svg>
