<?xml version="1.0" encoding="UTF-8"?><svg xmlns="http://www.w3.org/2000/svg" xmlns:xlink="http://www.w3.org/1999/xlink" stroke-dasharray="none" shape-rendering="auto" font-family="'Dialog'" width="519" text-rendering="auto" fill-opacity="1" contentScriptType="text/ecmascript" color-interpolation="auto" color-rendering="auto" preserveAspectRatio="xMidYMid meet" font-size="12" viewBox="0 0 519 617" fill="black" stroke="black" image-rendering="auto" stroke-miterlimit="10" zoomAndPan="magnify" version="1.0" stroke-linecap="square" stroke-linejoin="miter" contentStyleType="text/css" font-style="normal" height="617" stroke-width="1" stroke-dashoffset="0" font-weight="normal" stroke-opacity="1">
<!--Generated by the Batik Graphics2D SVG Generator-->
<defs id="genericDefs"/>
<g>
<defs id="defs1">
<clipPath clipPathUnits="userSpaceOnUse" id="clipPath1">
<path d="M66 9 L168 9 L168 61 L66 61 L66 9 Z"/>
</clipPath>
<clipPath clipPathUnits="userSpaceOnUse" id="clipPath2">
<path d="M88 28 L147 28 L147 41 L88 41 L88 28 Z"/>
</clipPath>
<clipPath clipPathUnits="userSpaceOnUse" id="clipPath3">
<path d="M66 384 L168 384 L168 486 L66 486 L66 384 Z"/>
</clipPath>
<clipPath clipPathUnits="userSpaceOnUse" id="clipPath4">
<path d="M76 387 L157 387 L157 400 L76 400 L76 387 Z"/>
</clipPath>
<clipPath clipPathUnits="userSpaceOnUse" id="clipPath5">
<path d="M66 399 L168 399 L168 485 L66 485 L66 399 Z"/>
</clipPath>
<clipPath clipPathUnits="userSpaceOnUse" id="clipPath6">
<path d="M408 384 L510 384 L510 486 L408 486 L408 384 Z"/>
</clipPath>
<clipPath clipPathUnits="userSpaceOnUse" id="clipPath7">
<path d="M437 428 L483 428 L483 441 L437 441 L437 428 Z"/>
</clipPath>
<clipPath clipPathUnits="userSpaceOnUse" id="clipPath8">
<path d="M408 117 L510 117 L510 219 L408 219 L408 117 Z"/>
</clipPath>
<clipPath clipPathUnits="userSpaceOnUse" id="clipPath9">
<path d="M412 120 L506 120 L506 133 L412 133 L412 120 Z"/>
</clipPath>
<clipPath clipPathUnits="userSpaceOnUse" id="clipPath10">
<path d="M408 132 L510 132 L510 218 L408 218 L408 132 Z"/>
</clipPath>
<clipPath clipPathUnits="userSpaceOnUse" id="clipPath11">
<path d="M66 277 L168 277 L168 330 L66 330 L66 277 Z"/>
</clipPath>
<clipPath clipPathUnits="userSpaceOnUse" id="clipPath12">
<path d="M95 297 L140 297 L140 310 L95 310 L95 297 Z"/>
</clipPath>
<clipPath clipPathUnits="userSpaceOnUse" id="clipPath13">
<path d="M66 120 L168 120 L168 222 L66 222 L66 120 Z"/>
</clipPath>
<clipPath clipPathUnits="userSpaceOnUse" id="clipPath14">
<path d="M69 123 L164 123 L164 136 L69 136 L69 123 Z"/>
</clipPath>
<clipPath clipPathUnits="userSpaceOnUse" id="clipPath15">
<path d="M66 135 L168 135 L168 221 L66 221 L66 135 Z"/>
</clipPath>
<clipPath clipPathUnits="userSpaceOnUse" id="clipPath16">
<path d="M68 554 L170 554 L170 608 L68 608 L68 554 Z"/>
</clipPath>
<clipPath clipPathUnits="userSpaceOnUse" id="clipPath17">
<path d="M98 574 L142 574 L142 587 L98 587 L98 574 Z"/>
</clipPath>
<clipPath clipPathUnits="userSpaceOnUse" id="clipPath18">
<path d="M-1 -1 L520 -1 L520 618 L-1 618 L-1 -1 Z"/>
</clipPath>
<clipPath clipPathUnits="userSpaceOnUse" id="clipPath19">
<path d="M188 183 L272 183 L272 196 L188 196 L188 183 Z"/>
</clipPath>
<clipPath clipPathUnits="userSpaceOnUse" id="clipPath20">
<path d="M297 183 L406 183 L406 196 L297 196 L297 183 Z"/>
</clipPath>
<clipPath clipPathUnits="userSpaceOnUse" id="clipPath21">
<path d="M190 199 L201 199 L201 212 L190 212 L190 199 Z"/>
</clipPath>
<clipPath clipPathUnits="userSpaceOnUse" id="clipPath22">
<path d="M394 200 L404 200 L404 213 L394 213 L394 200 Z"/>
</clipPath>
<clipPath clipPathUnits="userSpaceOnUse" id="clipPath23">
<path d="M166 190 L187 190 L187 205 L166 205 L166 190 Z"/>
</clipPath>
<clipPath clipPathUnits="userSpaceOnUse" id="clipPath24">
<path d="M108 59 L127 59 L127 72 L108 72 L108 59 Z"/>
</clipPath>
<clipPath clipPathUnits="userSpaceOnUse" id="clipPath25">
<path d="M315 452 L391 452 L391 465 L315 465 L315 452 Z"/>
</clipPath>
<clipPath clipPathUnits="userSpaceOnUse" id="clipPath26">
<path d="M188 452 L277 452 L277 465 L188 465 L188 452 Z"/>
</clipPath>
<clipPath clipPathUnits="userSpaceOnUse" id="clipPath27">
<path d="M368 468 L391 468 L391 481 L368 481 L368 468 Z"/>
</clipPath>
<clipPath clipPathUnits="userSpaceOnUse" id="clipPath28">
<path d="M191 469 L214 469 L214 482 L191 482 L191 469 Z"/>
</clipPath>
<clipPath clipPathUnits="userSpaceOnUse" id="clipPath29">
<path d="M390 459 L411 459 L411 474 L390 474 L390 459 Z"/>
</clipPath>
<clipPath clipPathUnits="userSpaceOnUse" id="clipPath30">
<path d="M166 461 L185 461 L185 472 L166 472 L166 461 Z"/>
</clipPath>
<clipPath clipPathUnits="userSpaceOnUse" id="clipPath31">
<path d="M318 393 L389 393 L389 406 L318 406 L318 393 Z"/>
</clipPath>
<clipPath clipPathUnits="userSpaceOnUse" id="clipPath32">
<path d="M186 393 L280 393 L280 406 L186 406 L186 393 Z"/>
</clipPath>
<clipPath clipPathUnits="userSpaceOnUse" id="clipPath33">
<path d="M367 410 L390 410 L390 423 L367 423 L367 410 Z"/>
</clipPath>
<clipPath clipPathUnits="userSpaceOnUse" id="clipPath34">
<path d="M187 410 L210 410 L210 423 L187 423 L187 410 Z"/>
</clipPath>
<clipPath clipPathUnits="userSpaceOnUse" id="clipPath35">
<path d="M390 400 L411 400 L411 415 L390 415 L390 400 Z"/>
</clipPath>
<clipPath clipPathUnits="userSpaceOnUse" id="clipPath36">
<path d="M166 402 L185 402 L185 413 L166 413 L166 402 Z"/>
</clipPath>
<clipPath clipPathUnits="userSpaceOnUse" id="clipPath37">
<path d="M318 127 L389 127 L389 140 L318 140 L318 127 Z"/>
</clipPath>
<clipPath clipPathUnits="userSpaceOnUse" id="clipPath38">
<path d="M214 126 L299 126 L299 139 L214 139 L214 126 Z"/>
</clipPath>
<clipPath clipPathUnits="userSpaceOnUse" id="clipPath39">
<path d="M380 141 L390 141 L390 154 L380 154 L380 141 Z"/>
</clipPath>
<clipPath clipPathUnits="userSpaceOnUse" id="clipPath40">
<path d="M213 142 L224 142 L224 155 L213 155 L213 142 Z"/>
</clipPath>
<clipPath clipPathUnits="userSpaceOnUse" id="clipPath41">
<path d="M390 133 L411 133 L411 148 L390 148 L390 133 Z"/>
</clipPath>
<clipPath clipPathUnits="userSpaceOnUse" id="clipPath42">
<path d="M166 133 L209 133 L209 148 L166 148 L166 133 Z"/>
</clipPath>
<clipPath clipPathUnits="userSpaceOnUse" id="clipPath43">
<path d="M109 328 L128 328 L128 341 L109 341 L109 328 Z"/>
</clipPath>
<clipPath clipPathUnits="userSpaceOnUse" id="clipPath44">
<path d="M64 522 L117 522 L117 535 L64 535 L64 522 Z"/>
</clipPath>
<clipPath clipPathUnits="userSpaceOnUse" id="clipPath45">
<path d="M22 488 L116 488 L116 501 L22 501 L22 488 Z"/>
</clipPath>
<clipPath clipPathUnits="userSpaceOnUse" id="clipPath46">
<path d="M121 523 L131 523 L131 536 L121 536 L121 523 Z"/>
</clipPath>
<clipPath clipPathUnits="userSpaceOnUse" id="clipPath47">
<path d="M121 490 L131 490 L131 503 L121 503 L121 490 Z"/>
</clipPath>
<clipPath clipPathUnits="userSpaceOnUse" id="clipPath48">
<path d="M111 536 L126 536 L126 557 L111 557 L111 536 Z"/>
</clipPath>
</defs>
<g font-size="11" fill="silver" stroke-linejoin="round" stroke="silver" stroke-width="0" stroke-miterlimit="0">
<rect x="67" y="10" clip-path="url(#clipPath1)" width="100" rx="0" ry="0" height="50" stroke="none"/>
</g>
<g font-size="9" font-family="'Helvetica'" stroke-linejoin="round" font-weight="bold" stroke-width="0" stroke-miterlimit="0">
<text xml:space="preserve" x="89" y="36" clip-path="url(#clipPath2)" stroke="none">StateMachine</text>
</g>
<g font-size="11" stroke-width="1.1" stroke-linecap="butt">
<rect x="67" y="10" clip-path="url(#clipPath1)" fill="none" width="99" rx="0" ry="0" height="49"/>
<rect x="67" y="385" clip-path="url(#clipPath3)" fill="white" width="100" rx="0" ry="0" height="100" stroke="none"/>
<text x="77" font-size="9" y="395" clip-path="url(#clipPath4)" font-family="'Helvetica'" stroke="none" font-weight="bold" xml:space="preserve">ProtocolTransition</text>
<line clip-path="url(#clipPath5)" fill="none" x1="67" x2="167" y1="400" y2="400"/>
<rect x="67" y="385" clip-path="url(#clipPath3)" fill="none" width="99" rx="0" ry="0" height="99"/>
<rect x="409" y="385" clip-path="url(#clipPath6)" fill="silver" width="100" rx="0" ry="0" height="100" stroke="none"/>
<text x="438" font-size="9" y="436" clip-path="url(#clipPath7)" font-family="'Helvetica'" stroke="none" font-weight="bold" xml:space="preserve">Constraint</text>
<rect x="409" y="385" clip-path="url(#clipPath6)" fill="none" width="99" rx="0" ry="0" height="99"/>
<rect x="409" y="118" clip-path="url(#clipPath8)" fill="white" width="100" rx="0" ry="0" height="100" stroke="none"/>
<text x="413" font-size="9" y="128" clip-path="url(#clipPath9)" font-family="'Helvetica'" stroke="none" font-weight="bold" xml:space="preserve">ProtocolConformance</text>
<line clip-path="url(#clipPath10)" fill="none" x1="409" x2="509" y1="133" y2="133"/>
<rect x="409" y="118" clip-path="url(#clipPath8)" fill="none" width="99" rx="0" ry="0" height="99"/>
<rect x="67" y="278" clip-path="url(#clipPath11)" fill="silver" width="100" rx="0" ry="0" height="51" stroke="none"/>
<text x="96" font-size="9" y="305" clip-path="url(#clipPath12)" font-family="'Helvetica'" stroke="none" font-weight="bold" xml:space="preserve">Transition</text>
<rect x="67" y="278" clip-path="url(#clipPath11)" fill="none" width="99" rx="0" ry="0" height="50"/>
<rect x="67" y="121" clip-path="url(#clipPath13)" fill="white" width="100" rx="0" ry="0" height="100" stroke="none"/>
<text x="70" font-size="9" y="131" clip-path="url(#clipPath14)" font-family="'Helvetica'" stroke="none" font-weight="bold" xml:space="preserve">ProtocolStateMachine</text>
<line clip-path="url(#clipPath15)" fill="none" x1="67" x2="167" y1="136" y2="136"/>
<rect x="67" y="121" clip-path="url(#clipPath13)" fill="none" width="99" rx="0" ry="0" height="99"/>
<rect x="69" y="555" clip-path="url(#clipPath16)" fill="silver" width="100" rx="0" ry="0" height="52" stroke="none"/>
<text x="99" font-size="9" y="582" clip-path="url(#clipPath17)" font-family="'Helvetica'" stroke="none" font-weight="bold" xml:space="preserve">Operation</text>
<rect x="69" y="555" clip-path="url(#clipPath16)" fill="none" width="99" rx="0" ry="0" height="51"/>
<line clip-path="url(#clipPath18)" fill="none" text-rendering="optimizeLegibility" x1="167" x2="409" y1="197" y2="197"/>
<text x="189" font-size="9" y="193" clip-path="url(#clipPath19)" text-rendering="optimizeLegibility" stroke="none" xml:space="preserve"> + generalMachine</text>
<text x="298" font-size="9" y="193" clip-path="url(#clipPath20)" text-rendering="optimizeLegibility" stroke="none" xml:space="preserve"> + protocolConformance</text>
<text x="191" font-size="9" y="209" clip-path="url(#clipPath21)" text-rendering="optimizeLegibility" stroke="none" xml:space="preserve"> 1</text>
<text x="395" font-size="9" y="210" clip-path="url(#clipPath22)" text-rendering="optimizeLegibility" stroke="none" xml:space="preserve"> *</text>
<polygon text-rendering="optimizeLegibility" clip-path="url(#clipPath23)" points=" 167 196 169 194 171 194 173 196 173 197 185 191 173 197 185 203 173 197 173 198 171 200 169 200 167 198" stroke="none"/>
<polygon fill="none" text-rendering="optimizeLegibility" clip-path="url(#clipPath23)" points=" 167 196 169 194 171 194 173 196 173 197 185 191 173 197 185 203 173 197 173 198 171 200 169 200 167 198"/>
<line clip-path="url(#clipPath18)" fill="none" text-rendering="optimizeLegibility" x1="117" x2="117" y1="121" y2="60"/>
</g>
<g stroke-linecap="butt" font-size="9" fill="white" text-rendering="optimizeLegibility" stroke="white" stroke-width="1.1">
<polygon clip-path="url(#clipPath24)" points=" 117 60 125 70 109 70" stroke="none"/>
<polygon fill="none" clip-path="url(#clipPath24)" points=" 117 60 125 70 109 70" stroke="black"/>
<line clip-path="url(#clipPath18)" fill="none" x1="409" x2="167" y1="466" y2="466" stroke="black"/>
<text x="316" y="462" clip-path="url(#clipPath25)" fill="black" stroke="none" xml:space="preserve"> + postCondition</text>
<text x="189" y="462" clip-path="url(#clipPath26)" fill="black" stroke="none" xml:space="preserve"> + owningTransition</text>
<text x="369" y="478" clip-path="url(#clipPath27)" fill="black" stroke="none" xml:space="preserve"> 0..1</text>
<text x="192" y="479" clip-path="url(#clipPath28)" fill="black" stroke="none" xml:space="preserve"> 0..1</text>
<polygon fill="black" clip-path="url(#clipPath29)" points=" 409 467 407 469 405 469 403 467 403 466 391 472 403 466 391 460 403 466 403 465 405 463 407 463 409 465" stroke="none"/>
<polygon fill="none" clip-path="url(#clipPath29)" points=" 409 467 407 469 405 469 403 467 403 466 391 472 403 466 391 460 403 466 403 465 405 463 407 463 409 465" stroke="black"/>
<polygon fill="black" clip-path="url(#clipPath30)" points=" 167 466 175 462 183 466 175 470" stroke="none"/>
<polygon fill="none" clip-path="url(#clipPath30)" points=" 167 466 175 462 183 466 175 470" stroke="black"/>
<line clip-path="url(#clipPath18)" fill="none" x1="409" x2="167" y1="407" y2="407" stroke="black"/>
<text x="319" y="403" clip-path="url(#clipPath31)" fill="black" stroke="none" xml:space="preserve"> + preCondition</text>
<text x="187" y="403" clip-path="url(#clipPath32)" fill="black" stroke="none" xml:space="preserve"> + protocolTransition</text>
<text x="368" y="420" clip-path="url(#clipPath33)" fill="black" stroke="none" xml:space="preserve"> 0..1</text>
<text x="188" y="420" clip-path="url(#clipPath34)" fill="black" stroke="none" xml:space="preserve"> 0..1</text>
<polygon fill="black" clip-path="url(#clipPath35)" points=" 409 408 407 410 405 410 403 408 403 407 391 413 403 407 391 401 403 407 403 406 405 404 407 404 409 406" stroke="none"/>
<polygon fill="none" clip-path="url(#clipPath35)" points=" 409 408 407 410 405 410 403 408 403 407 391 413 403 407 391 401 403 407 403 406 405 404 407 404 409 406" stroke="black"/>
<polygon fill="black" clip-path="url(#clipPath36)" points=" 167 407 175 403 183 407 175 411" stroke="none"/>
<polygon fill="none" clip-path="url(#clipPath36)" points=" 167 407 175 403 183 407 175 411" stroke="black"/>
<line clip-path="url(#clipPath18)" fill="none" x1="409" x2="167" y1="140" y2="140" stroke="black"/>
<text x="319" y="137" clip-path="url(#clipPath37)" fill="black" stroke="none" xml:space="preserve"> + conformance</text>
<text x="215" y="136" clip-path="url(#clipPath38)" fill="black" stroke="none" xml:space="preserve"> + specificMachine</text>
<text x="381" y="151" clip-path="url(#clipPath39)" fill="black" stroke="none" xml:space="preserve"> *</text>
<text x="214" y="152" clip-path="url(#clipPath40)" fill="black" stroke="none" xml:space="preserve"> 1</text>
<polygon fill="black" clip-path="url(#clipPath41)" points=" 409 141 407 143 405 143 403 141 403 140 391 146 403 140 391 134 403 140 403 139 405 137 407 137 409 139" stroke="none"/>
<polygon fill="none" clip-path="url(#clipPath41)" points=" 409 141 407 143 405 143 403 141 403 140 391 146 403 140 391 134 403 140 403 139 405 137 407 137 409 139" stroke="black"/>
<polygon fill="black" clip-path="url(#clipPath42)" points=" 167 139 169 138 171 138 173 139 173 140 182 136 191 140 207 134 191 140 207 146 191 140 182 145 173 140 173 141 171 142 169 142 167 141" stroke="none"/>
<polygon fill="none" clip-path="url(#clipPath42)" points=" 167 139 169 138 171 138 173 139 173 140 182 136 191 140 207 134 191 140 207 146 191 140 182 145 173 140 173 141 171 142 169 142 167 141" stroke="black"/>
<line clip-path="url(#clipPath18)" fill="none" x1="118" x2="118" y1="385" y2="329" stroke="black"/>
<polygon clip-path="url(#clipPath43)" points=" 118 329 126 339 110 339" stroke="none"/>
<polygon fill="none" clip-path="url(#clipPath43)" points=" 118 329 126 339 110 339" stroke="black"/>
<line clip-path="url(#clipPath18)" fill="none" x1="118" x2="118" y1="555" y2="485" stroke="black"/>
<text x="65" y="532" clip-path="url(#clipPath44)" fill="black" stroke="none" xml:space="preserve"> +/ referred</text>
<text x="23" y="498" clip-path="url(#clipPath45)" fill="black" stroke="none" xml:space="preserve"> + protocolTransition</text>
<text x="122" y="533" clip-path="url(#clipPath46)" fill="black" stroke="none" xml:space="preserve"> *</text>
<text x="122" y="500" clip-path="url(#clipPath47)" fill="black" stroke="none" xml:space="preserve"> *</text>
<polygon fill="black" clip-path="url(#clipPath48)" points=" 117 555 115 553 115 551 117 549 118 549 112 537 118 549 124 537 118 549 119 549 121 551 121 553 119 555" stroke="none"/>
<polygon fill="none" clip-path="url(#clipPath48)" points=" 117 555 115 553 115 551 117 549 118 549 112 537 118 549 124 537 118 549 119 549 121 551 121 553 119 555" stroke="black"/>
</g>
</g>
</svg>
