<?xml version="1.0" encoding="UTF-8"?><svg xmlns="http://www.w3.org/2000/svg" xmlns:xlink="http://www.w3.org/1999/xlink" stroke-dasharray="none" shape-rendering="auto" font-family="'Dialog'" width="856" text-rendering="auto" fill-opacity="1" contentScriptType="text/ecmascript" color-interpolation="auto" color-rendering="auto" preserveAspectRatio="xMidYMid meet" font-size="12" viewBox="0 0 856 678" fill="black" stroke="black" image-rendering="auto" stroke-miterlimit="10" zoomAndPan="magnify" version="1.0" stroke-linecap="square" stroke-linejoin="miter" contentStyleType="text/css" font-style="normal" height="678" stroke-width="1" stroke-dashoffset="0" font-weight="normal" stroke-opacity="1">
<!--Generated by the Batik Graphics2D SVG Generator-->
<defs id="genericDefs"/>
<g>
<defs id="defs1">
<clipPath clipPathUnits="userSpaceOnUse" id="clipPath1">
<path d="M325 287 L529 287 L529 391 L325 391 L325 287 Z"/>
</clipPath>
<clipPath clipPathUnits="userSpaceOnUse" id="clipPath2">
<path d="M326 291 L528 291 L528 306 L326 306 L326 291 Z"/>
</clipPath>
<clipPath clipPathUnits="userSpaceOnUse" id="clipPath3">
<path d="M331 305 L378 305 L378 320 L331 320 L331 305 Z"/>
</clipPath>
<clipPath clipPathUnits="userSpaceOnUse" id="clipPath4">
<path d="M326 321 L528 321 L528 390 L326 390 L326 321 Z"/>
</clipPath>
<clipPath clipPathUnits="userSpaceOnUse" id="clipPath5">
<path d="M644 8 L848 8 L848 112 L644 112 L644 8 Z"/>
</clipPath>
<clipPath clipPathUnits="userSpaceOnUse" id="clipPath6">
<path d="M645 12 L847 12 L847 27 L645 27 L645 12 Z"/>
</clipPath>
<clipPath clipPathUnits="userSpaceOnUse" id="clipPath7">
<path d="M650 26 L726 26 L726 41 L650 41 L650 26 Z"/>
</clipPath>
<clipPath clipPathUnits="userSpaceOnUse" id="clipPath8">
<path d="M645 42 L847 42 L847 111 L645 111 L645 42 Z"/>
</clipPath>
<clipPath clipPathUnits="userSpaceOnUse" id="clipPath9">
<path d="M644 147 L848 147 L848 251 L644 251 L644 147 Z"/>
</clipPath>
<clipPath clipPathUnits="userSpaceOnUse" id="clipPath10">
<path d="M645 151 L847 151 L847 166 L645 166 L645 151 Z"/>
</clipPath>
<clipPath clipPathUnits="userSpaceOnUse" id="clipPath11">
<path d="M650 165 L679 165 L679 180 L650 180 L650 165 Z"/>
</clipPath>
<clipPath clipPathUnits="userSpaceOnUse" id="clipPath12">
<path d="M645 181 L847 181 L847 250 L645 250 L645 181 Z"/>
</clipPath>
<clipPath clipPathUnits="userSpaceOnUse" id="clipPath13">
<path d="M644 287 L848 287 L848 391 L644 391 L644 287 Z"/>
</clipPath>
<clipPath clipPathUnits="userSpaceOnUse" id="clipPath14">
<path d="M645 291 L847 291 L847 306 L645 306 L645 291 Z"/>
</clipPath>
<clipPath clipPathUnits="userSpaceOnUse" id="clipPath15">
<path d="M650 305 L705 305 L705 320 L650 320 L650 305 Z"/>
</clipPath>
<clipPath clipPathUnits="userSpaceOnUse" id="clipPath16">
<path d="M645 321 L847 321 L847 390 L645 390 L645 321 Z"/>
</clipPath>
<clipPath clipPathUnits="userSpaceOnUse" id="clipPath17">
<path d="M644 426 L848 426 L848 530 L644 530 L644 426 Z"/>
</clipPath>
<clipPath clipPathUnits="userSpaceOnUse" id="clipPath18">
<path d="M645 430 L847 430 L847 445 L645 445 L645 430 Z"/>
</clipPath>
<clipPath clipPathUnits="userSpaceOnUse" id="clipPath19">
<path d="M650 444 L725 444 L725 459 L650 459 L650 444 Z"/>
</clipPath>
<clipPath clipPathUnits="userSpaceOnUse" id="clipPath20">
<path d="M645 460 L847 460 L847 529 L645 529 L645 460 Z"/>
</clipPath>
<clipPath clipPathUnits="userSpaceOnUse" id="clipPath21">
<path d="M644 566 L848 566 L848 670 L644 670 L644 566 Z"/>
</clipPath>
<clipPath clipPathUnits="userSpaceOnUse" id="clipPath22">
<path d="M645 570 L847 570 L847 585 L645 585 L645 570 Z"/>
</clipPath>
<clipPath clipPathUnits="userSpaceOnUse" id="clipPath23">
<path d="M650 584 L712 584 L712 599 L650 599 L650 584 Z"/>
</clipPath>
<clipPath clipPathUnits="userSpaceOnUse" id="clipPath24">
<path d="M645 600 L847 600 L847 669 L645 669 L645 600 Z"/>
</clipPath>
<clipPath clipPathUnits="userSpaceOnUse" id="clipPath25">
<path d="M8 82 L212 82 L212 186 L8 186 L8 82 Z"/>
</clipPath>
<clipPath clipPathUnits="userSpaceOnUse" id="clipPath26">
<path d="M9 86 L211 86 L211 101 L9 101 L9 86 Z"/>
</clipPath>
<clipPath clipPathUnits="userSpaceOnUse" id="clipPath27">
<path d="M14 100 L100 100 L100 115 L14 115 L14 100 Z"/>
</clipPath>
<clipPath clipPathUnits="userSpaceOnUse" id="clipPath28">
<path d="M9 116 L211 116 L211 185 L9 185 L9 116 Z"/>
</clipPath>
<clipPath clipPathUnits="userSpaceOnUse" id="clipPath29">
<path d="M8 222 L212 222 L212 326 L8 326 L8 222 Z"/>
</clipPath>
<clipPath clipPathUnits="userSpaceOnUse" id="clipPath30">
<path d="M9 226 L211 226 L211 241 L9 241 L9 226 Z"/>
</clipPath>
<clipPath clipPathUnits="userSpaceOnUse" id="clipPath31">
<path d="M14 240 L54 240 L54 255 L14 255 L14 240 Z"/>
</clipPath>
<clipPath clipPathUnits="userSpaceOnUse" id="clipPath32">
<path d="M9 256 L211 256 L211 325 L9 325 L9 256 Z"/>
</clipPath>
<clipPath clipPathUnits="userSpaceOnUse" id="clipPath33">
<path d="M8 362 L212 362 L212 466 L8 466 L8 362 Z"/>
</clipPath>
<clipPath clipPathUnits="userSpaceOnUse" id="clipPath34">
<path d="M9 366 L211 366 L211 381 L9 381 L9 366 Z"/>
</clipPath>
<clipPath clipPathUnits="userSpaceOnUse" id="clipPath35">
<path d="M14 380 L54 380 L54 395 L14 395 L14 380 Z"/>
</clipPath>
<clipPath clipPathUnits="userSpaceOnUse" id="clipPath36">
<path d="M9 396 L211 396 L211 465 L9 465 L9 396 Z"/>
</clipPath>
<clipPath clipPathUnits="userSpaceOnUse" id="clipPath37">
<path d="M8 503 L212 503 L212 607 L8 607 L8 503 Z"/>
</clipPath>
<clipPath clipPathUnits="userSpaceOnUse" id="clipPath38">
<path d="M9 507 L211 507 L211 522 L9 522 L9 507 Z"/>
</clipPath>
<clipPath clipPathUnits="userSpaceOnUse" id="clipPath39">
<path d="M14 521 L46 521 L46 536 L14 536 L14 521 Z"/>
</clipPath>
<clipPath clipPathUnits="userSpaceOnUse" id="clipPath40">
<path d="M9 537 L211 537 L211 606 L9 606 L9 537 Z"/>
</clipPath>
<clipPath clipPathUnits="userSpaceOnUse" id="clipPath41">
<path d="M-1 -1 L857 -1 L857 679 L-1 679 L-1 -1 Z"/>
</clipPath>
<clipPath clipPathUnits="userSpaceOnUse" id="clipPath42">
<path d="M633 108 L648 108 L648 127 L633 127 L633 108 Z"/>
</clipPath>
<clipPath clipPathUnits="userSpaceOnUse" id="clipPath43">
<path d="M631 210 L648 210 L648 227 L631 227 L631 210 Z"/>
</clipPath>
<clipPath clipPathUnits="userSpaceOnUse" id="clipPath44">
<path d="M630 346 L648 346 L648 359 L630 359 L630 346 Z"/>
</clipPath>
<clipPath clipPathUnits="userSpaceOnUse" id="clipPath45">
<path d="M631 474 L648 474 L648 491 L631 491 L631 474 Z"/>
</clipPath>
<clipPath clipPathUnits="userSpaceOnUse" id="clipPath46">
<path d="M633 581 L648 581 L648 599 L633 599 L633 581 Z"/>
</clipPath>
<clipPath clipPathUnits="userSpaceOnUse" id="clipPath47">
<path d="M209 182 L226 182 L226 200 L209 200 L209 182 Z"/>
</clipPath>
<clipPath clipPathUnits="userSpaceOnUse" id="clipPath48">
<path d="M209 285 L228 285 L228 299 L209 299 L209 285 Z"/>
</clipPath>
<clipPath clipPathUnits="userSpaceOnUse" id="clipPath49">
<path d="M209 415 L228 415 L228 429 L209 429 L209 415 Z"/>
</clipPath>
<clipPath clipPathUnits="userSpaceOnUse" id="clipPath50">
<path d="M205 522 L221 522 L221 540 L205 540 L205 522 Z"/>
</clipPath>
</defs>
<g font-size="11" fill="white" stroke-linejoin="round" stroke="white" stroke-width="0" stroke-miterlimit="0">
<polygon clip-path="url(#clipPath1)" points=" 327 289 387 289 387 322 527 322 527 389 327 389 327 289" stroke="none"/>
</g>
<g font-size="11" stroke-width="1.1" stroke-linecap="butt">
<line clip-path="url(#clipPath1)" fill="none" x1="327" x2="387" y1="289" y2="289"/>
<line clip-path="url(#clipPath1)" fill="none" x1="387" x2="387" y1="289" y2="322"/>
<line clip-path="url(#clipPath1)" fill="none" x1="387" x2="527" y1="322" y2="322"/>
<line clip-path="url(#clipPath1)" fill="none" x1="527" x2="527" y1="322" y2="389"/>
<line clip-path="url(#clipPath1)" fill="none" x1="527" x2="327" y1="389" y2="389"/>
<line clip-path="url(#clipPath1)" fill="none" x1="327" x2="327" y1="389" y2="289"/>
<text x="395" font-size="10" y="302" clip-path="url(#clipPath2)" font-family="'Calibri'" stroke="none" font-weight="bold" xml:space="preserve">(PSSM_Syntax)</text>
<text x="332" font-size="10" y="316" clip-path="url(#clipPath3)" font-family="'Calibri'" stroke="none" font-weight="bold" xml:space="preserve">Constraints</text>
<line clip-path="url(#clipPath4)" fill="none" x1="327" x2="527" y1="322" y2="322"/>
<polygon fill="white" clip-path="url(#clipPath5)" points=" 646 10 730 10 730 43 846 43 846 110 646 110 646 10" stroke="none"/>
<line clip-path="url(#clipPath5)" fill="none" x1="646" x2="730" y1="10" y2="10"/>
<line clip-path="url(#clipPath5)" fill="none" x1="730" x2="730" y1="10" y2="43"/>
<line clip-path="url(#clipPath5)" fill="none" x1="730" x2="846" y1="43" y2="43"/>
<line clip-path="url(#clipPath5)" fill="none" x1="846" x2="846" y1="43" y2="110"/>
<line clip-path="url(#clipPath5)" fill="none" x1="846" x2="646" y1="110" y2="110"/>
<line clip-path="url(#clipPath5)" fill="none" x1="646" x2="646" y1="110" y2="10"/>
<text x="689" font-size="10" y="23" clip-path="url(#clipPath6)" font-family="'Calibri'" stroke="none" font-weight="bold" xml:space="preserve">(PSSM_Syntax::Constraints)</text>
<text x="651" font-size="10" y="37" clip-path="url(#clipPath7)" font-family="'Calibri'" stroke="none" font-weight="bold" xml:space="preserve">CommonStructure</text>
<line clip-path="url(#clipPath8)" fill="none" x1="646" x2="846" y1="43" y2="43"/>
<polygon fill="white" clip-path="url(#clipPath9)" points=" 646 149 706 149 706 182 846 182 846 249 646 249 646 149" stroke="none"/>
<line clip-path="url(#clipPath9)" fill="none" x1="646" x2="706" y1="149" y2="149"/>
<line clip-path="url(#clipPath9)" fill="none" x1="706" x2="706" y1="149" y2="182"/>
<line clip-path="url(#clipPath9)" fill="none" x1="706" x2="846" y1="182" y2="182"/>
<line clip-path="url(#clipPath9)" fill="none" x1="846" x2="846" y1="182" y2="249"/>
<line clip-path="url(#clipPath9)" fill="none" x1="846" x2="646" y1="249" y2="249"/>
<line clip-path="url(#clipPath9)" fill="none" x1="646" x2="646" y1="249" y2="149"/>
<text x="689" font-size="10" y="162" clip-path="url(#clipPath10)" font-family="'Calibri'" stroke="none" font-weight="bold" xml:space="preserve">(PSSM_Syntax::Constraints)</text>
<text x="651" font-size="10" y="176" clip-path="url(#clipPath11)" font-family="'Calibri'" stroke="none" font-weight="bold" xml:space="preserve">Values</text>
<line clip-path="url(#clipPath12)" fill="none" x1="646" x2="846" y1="182" y2="182"/>
<polygon fill="white" clip-path="url(#clipPath13)" points=" 646 289 709 289 709 322 846 322 846 389 646 389 646 289" stroke="none"/>
<line clip-path="url(#clipPath13)" fill="none" x1="646" x2="709" y1="289" y2="289"/>
<line clip-path="url(#clipPath13)" fill="none" x1="709" x2="709" y1="289" y2="322"/>
<line clip-path="url(#clipPath13)" fill="none" x1="709" x2="846" y1="322" y2="322"/>
<line clip-path="url(#clipPath13)" fill="none" x1="846" x2="846" y1="322" y2="389"/>
<line clip-path="url(#clipPath13)" fill="none" x1="846" x2="646" y1="389" y2="389"/>
<line clip-path="url(#clipPath13)" fill="none" x1="646" x2="646" y1="389" y2="289"/>
<text x="689" font-size="10" y="302" clip-path="url(#clipPath14)" font-family="'Calibri'" stroke="none" font-weight="bold" xml:space="preserve">(PSSM_Syntax::Constraints)</text>
<text x="651" font-size="10" y="316" clip-path="url(#clipPath15)" font-family="'Calibri'" stroke="none" font-weight="bold" xml:space="preserve">Classification</text>
<line clip-path="url(#clipPath16)" fill="none" x1="646" x2="846" y1="322" y2="322"/>
<polygon fill="white" clip-path="url(#clipPath17)" points=" 646 428 729 428 729 461 846 461 846 528 646 528 646 428" stroke="none"/>
<line clip-path="url(#clipPath17)" fill="none" x1="646" x2="729" y1="428" y2="428"/>
<line clip-path="url(#clipPath17)" fill="none" x1="729" x2="729" y1="428" y2="461"/>
<line clip-path="url(#clipPath17)" fill="none" x1="729" x2="846" y1="461" y2="461"/>
<line clip-path="url(#clipPath17)" fill="none" x1="846" x2="846" y1="461" y2="528"/>
<line clip-path="url(#clipPath17)" fill="none" x1="846" x2="646" y1="528" y2="528"/>
<line clip-path="url(#clipPath17)" fill="none" x1="646" x2="646" y1="528" y2="428"/>
<text x="689" font-size="10" y="441" clip-path="url(#clipPath18)" font-family="'Calibri'" stroke="none" font-weight="bold" xml:space="preserve">(PSSM_Syntax::Constraints)</text>
<text x="651" font-size="10" y="455" clip-path="url(#clipPath19)" font-family="'Calibri'" stroke="none" font-weight="bold" xml:space="preserve">CommonBehavior</text>
<line clip-path="url(#clipPath20)" fill="none" x1="646" x2="846" y1="461" y2="461"/>
<polygon fill="white" clip-path="url(#clipPath21)" points=" 646 568 716 568 716 601 846 601 846 668 646 668 646 568" stroke="none"/>
<line clip-path="url(#clipPath21)" fill="none" x1="646" x2="716" y1="568" y2="568"/>
<line clip-path="url(#clipPath21)" fill="none" x1="716" x2="716" y1="568" y2="601"/>
<line clip-path="url(#clipPath21)" fill="none" x1="716" x2="846" y1="601" y2="601"/>
<line clip-path="url(#clipPath21)" fill="none" x1="846" x2="846" y1="601" y2="668"/>
<line clip-path="url(#clipPath21)" fill="none" x1="846" x2="646" y1="668" y2="668"/>
<line clip-path="url(#clipPath21)" fill="none" x1="646" x2="646" y1="668" y2="568"/>
<text x="689" font-size="10" y="581" clip-path="url(#clipPath22)" font-family="'Calibri'" stroke="none" font-weight="bold" xml:space="preserve">(PSSM_Syntax::Constraints)</text>
<text x="651" font-size="10" y="595" clip-path="url(#clipPath23)" font-family="'Calibri'" stroke="none" font-weight="bold" xml:space="preserve">StateMachines</text>
<line clip-path="url(#clipPath24)" fill="none" x1="646" x2="846" y1="601" y2="601"/>
<polygon fill="white" clip-path="url(#clipPath25)" points=" 10 84 104 84 104 117 210 117 210 184 10 184 10 84" stroke="none"/>
<line clip-path="url(#clipPath25)" fill="none" x1="10" x2="104" y1="84" y2="84"/>
<line clip-path="url(#clipPath25)" fill="none" x1="104" x2="104" y1="84" y2="117"/>
<line clip-path="url(#clipPath25)" fill="none" x1="104" x2="210" y1="117" y2="117"/>
<line clip-path="url(#clipPath25)" fill="none" x1="210" x2="210" y1="117" y2="184"/>
<line clip-path="url(#clipPath25)" fill="none" x1="210" x2="10" y1="184" y2="184"/>
<line clip-path="url(#clipPath25)" fill="none" x1="10" x2="10" y1="184" y2="84"/>
<text x="53" font-size="10" y="97" clip-path="url(#clipPath26)" font-family="'Calibri'" stroke="none" font-weight="bold" xml:space="preserve">(fUML_Syntax::Constraints)</text>
<text x="15" font-size="10" y="111" clip-path="url(#clipPath27)" font-family="'Calibri'" stroke="none" font-weight="bold" xml:space="preserve">StructuredClassifiers</text>
<line clip-path="url(#clipPath28)" fill="none" x1="10" x2="210" y1="117" y2="117"/>
<polygon fill="white" clip-path="url(#clipPath29)" points=" 10 224 70 224 70 257 210 257 210 324 10 324 10 224" stroke="none"/>
<line clip-path="url(#clipPath29)" fill="none" x1="10" x2="70" y1="224" y2="224"/>
<line clip-path="url(#clipPath29)" fill="none" x1="70" x2="70" y1="224" y2="257"/>
<line clip-path="url(#clipPath29)" fill="none" x1="70" x2="210" y1="257" y2="257"/>
<line clip-path="url(#clipPath29)" fill="none" x1="210" x2="210" y1="257" y2="324"/>
<line clip-path="url(#clipPath29)" fill="none" x1="210" x2="10" y1="324" y2="324"/>
<line clip-path="url(#clipPath29)" fill="none" x1="10" x2="10" y1="324" y2="224"/>
<text x="53" font-size="10" y="237" clip-path="url(#clipPath30)" font-family="'Calibri'" stroke="none" font-weight="bold" xml:space="preserve">(fUML_Syntax::Constraints)</text>
<text x="15" font-size="10" y="251" clip-path="url(#clipPath31)" font-family="'Calibri'" stroke="none" font-weight="bold" xml:space="preserve">Packages</text>
<line clip-path="url(#clipPath32)" fill="none" x1="10" x2="210" y1="257" y2="257"/>
<polygon fill="white" clip-path="url(#clipPath33)" points=" 10 364 70 364 70 397 210 397 210 464 10 464 10 364" stroke="none"/>
<line clip-path="url(#clipPath33)" fill="none" x1="10" x2="70" y1="364" y2="364"/>
<line clip-path="url(#clipPath33)" fill="none" x1="70" x2="70" y1="364" y2="397"/>
<line clip-path="url(#clipPath33)" fill="none" x1="70" x2="210" y1="397" y2="397"/>
<line clip-path="url(#clipPath33)" fill="none" x1="210" x2="210" y1="397" y2="464"/>
<line clip-path="url(#clipPath33)" fill="none" x1="210" x2="10" y1="464" y2="464"/>
<line clip-path="url(#clipPath33)" fill="none" x1="10" x2="10" y1="464" y2="364"/>
<text x="53" font-size="10" y="377" clip-path="url(#clipPath34)" font-family="'Calibri'" stroke="none" font-weight="bold" xml:space="preserve">(fUML_Syntax::Constraints)</text>
<text x="15" font-size="10" y="391" clip-path="url(#clipPath35)" font-family="'Calibri'" stroke="none" font-weight="bold" xml:space="preserve">Activities</text>
<line clip-path="url(#clipPath36)" fill="none" x1="10" x2="210" y1="397" y2="397"/>
<polygon fill="white" clip-path="url(#clipPath37)" points=" 10 505 70 505 70 538 210 538 210 605 10 605 10 505" stroke="none"/>
<line clip-path="url(#clipPath37)" fill="none" x1="10" x2="70" y1="505" y2="505"/>
<line clip-path="url(#clipPath37)" fill="none" x1="70" x2="70" y1="505" y2="538"/>
<line clip-path="url(#clipPath37)" fill="none" x1="70" x2="210" y1="538" y2="538"/>
<line clip-path="url(#clipPath37)" fill="none" x1="210" x2="210" y1="538" y2="605"/>
<line clip-path="url(#clipPath37)" fill="none" x1="210" x2="10" y1="605" y2="605"/>
<line clip-path="url(#clipPath37)" fill="none" x1="10" x2="10" y1="605" y2="505"/>
<text x="53" font-size="10" y="518" clip-path="url(#clipPath38)" font-family="'Calibri'" stroke="none" font-weight="bold" xml:space="preserve">(fUML_Syntax::Constraints)</text>
<text x="15" font-size="10" y="532" clip-path="url(#clipPath39)" font-family="'Calibri'" stroke="none" font-weight="bold" xml:space="preserve">Actions</text>
<line clip-path="url(#clipPath40)" fill="none" x1="10" x2="210" y1="538" y2="538"/>
</g>
<g stroke-linecap="butt" font-size="10" text-rendering="optimizeLegibility" font-family="'Calibri'" stroke-dasharray="5,5,5,5,5,5,5,5,5,5" stroke-width="1.1">
<line clip-path="url(#clipPath41)" fill="none" x1="524" x2="646" y1="322" y2="109"/>
<line clip-path="url(#clipPath42)" fill="none" x1="643" x2="646" y1="125" y2="109" stroke-dasharray="none"/>
<line clip-path="url(#clipPath42)" fill="none" x1="646" x2="634" y1="109" y2="120" stroke-dasharray="none"/>
<line clip-path="url(#clipPath41)" fill="none" x1="527" x2="646" y1="336" y2="211"/>
<line clip-path="url(#clipPath43)" fill="none" x1="639" x2="646" y1="225" y2="211" stroke-dasharray="none"/>
<line clip-path="url(#clipPath43)" fill="none" x1="646" x2="632" y1="211" y2="218" stroke-dasharray="none"/>
<line clip-path="url(#clipPath41)" fill="none" x1="527" x2="646" y1="352" y2="352"/>
<line clip-path="url(#clipPath44)" fill="none" x1="631" x2="646" y1="357" y2="352" stroke-dasharray="none"/>
<line clip-path="url(#clipPath44)" fill="none" x1="646" x2="631" y1="352" y2="347" stroke-dasharray="none"/>
<line clip-path="url(#clipPath41)" fill="none" x1="527" x2="646" y1="370" y2="489"/>
<line clip-path="url(#clipPath45)" fill="none" x1="632" x2="646" y1="482" y2="489" stroke-dasharray="none"/>
<line clip-path="url(#clipPath45)" fill="none" x1="646" x2="639" y1="489" y2="475" stroke-dasharray="none"/>
<line clip-path="url(#clipPath41)" fill="none" x1="525" x2="646" y1="389" y2="597"/>
<line clip-path="url(#clipPath46)" fill="none" x1="634" x2="646" y1="587" y2="597" stroke-dasharray="none"/>
<line clip-path="url(#clipPath46)" fill="none" x1="646" x2="643" y1="597" y2="582" stroke-dasharray="none"/>
<line clip-path="url(#clipPath41)" fill="none" x1="327" x2="210" y1="319" y2="183"/>
<line clip-path="url(#clipPath47)" fill="none" x1="224" x2="210" y1="191" y2="183" stroke-dasharray="none"/>
<line clip-path="url(#clipPath47)" fill="none" x1="210" x2="216" y1="183" y2="198" stroke-dasharray="none"/>
<line clip-path="url(#clipPath41)" fill="none" x1="327" x2="210" y1="341" y2="286"/>
<line clip-path="url(#clipPath48)" fill="none" x1="226" x2="210" y1="288" y2="286" stroke-dasharray="none"/>
<line clip-path="url(#clipPath48)" fill="none" x1="210" x2="221" y1="286" y2="297" stroke-dasharray="none"/>
<line clip-path="url(#clipPath41)" fill="none" x1="327" x2="210" y1="367" y2="427"/>
<line clip-path="url(#clipPath49)" fill="none" x1="221" x2="210" y1="416" y2="427" stroke-dasharray="none"/>
<line clip-path="url(#clipPath49)" fill="none" x1="210" x2="226" y1="427" y2="425" stroke-dasharray="none"/>
<line clip-path="url(#clipPath41)" fill="none" x1="327" x2="206" y1="389" y2="538"/>
<line clip-path="url(#clipPath50)" fill="none" x1="212" x2="206" y1="523" y2="538" stroke-dasharray="none"/>
<line clip-path="url(#clipPath50)" fill="none" x1="206" x2="219" y1="538" y2="530" stroke-dasharray="none"/>
</g>
</g>
</svg>
