<?xml version="1.0" encoding="UTF-8"?><svg xmlns="http://www.w3.org/2000/svg" xmlns:xlink="http://www.w3.org/1999/xlink" stroke-dasharray="none" shape-rendering="auto" font-family="'Dialog'" width="856" text-rendering="auto" fill-opacity="1" contentScriptType="text/ecmascript" color-interpolation="auto" color-rendering="auto" preserveAspectRatio="xMidYMid meet" font-size="12" viewBox="0 0 856 678" fill="black" stroke="black" image-rendering="auto" stroke-miterlimit="10" zoomAndPan="magnify" version="1.0" stroke-linecap="square" stroke-linejoin="miter" contentStyleType="text/css" font-style="normal" height="678" stroke-width="1" stroke-dashoffset="0" font-weight="normal" stroke-opacity="1">
<!--Generated by the Batik Graphics2D SVG Generator-->
<defs id="genericDefs"/>
<g>
<defs id="defs1">
<clipPath clipPathUnits="userSpaceOnUse" id="clipPath1">
<path d="M325 287 L529 287 L529 391 L325 391 L325 287 Z"/>
</clipPath>
<clipPath clipPathUnits="userSpaceOnUse" id="clipPath2">
<path d="M331 291 L396 291 L396 306 L331 306 L331 291 Z"/>
</clipPath>
<clipPath clipPathUnits="userSpaceOnUse" id="clipPath3">
<path d="M331 307 L378 307 L378 322 L331 322 L331 307 Z"/>
</clipPath>
<clipPath clipPathUnits="userSpaceOnUse" id="clipPath4">
<path d="M326 323 L528 323 L528 390 L326 390 L326 323 Z"/>
</clipPath>
<clipPath clipPathUnits="userSpaceOnUse" id="clipPath5">
<path d="M644 8 L848 8 L848 112 L644 112 L644 8 Z"/>
</clipPath>
<clipPath clipPathUnits="userSpaceOnUse" id="clipPath6">
<path d="M650 12 L766 12 L766 27 L650 27 L650 12 Z"/>
</clipPath>
<clipPath clipPathUnits="userSpaceOnUse" id="clipPath7">
<path d="M650 28 L726 28 L726 43 L650 43 L650 28 Z"/>
</clipPath>
<clipPath clipPathUnits="userSpaceOnUse" id="clipPath8">
<path d="M645 44 L847 44 L847 111 L645 111 L645 44 Z"/>
</clipPath>
<clipPath clipPathUnits="userSpaceOnUse" id="clipPath9">
<path d="M644 147 L848 147 L848 251 L644 251 L644 147 Z"/>
</clipPath>
<clipPath clipPathUnits="userSpaceOnUse" id="clipPath10">
<path d="M650 151 L766 151 L766 166 L650 166 L650 151 Z"/>
</clipPath>
<clipPath clipPathUnits="userSpaceOnUse" id="clipPath11">
<path d="M650 167 L679 167 L679 182 L650 182 L650 167 Z"/>
</clipPath>
<clipPath clipPathUnits="userSpaceOnUse" id="clipPath12">
<path d="M645 183 L847 183 L847 250 L645 250 L645 183 Z"/>
</clipPath>
<clipPath clipPathUnits="userSpaceOnUse" id="clipPath13">
<path d="M644 287 L848 287 L848 391 L644 391 L644 287 Z"/>
</clipPath>
<clipPath clipPathUnits="userSpaceOnUse" id="clipPath14">
<path d="M650 291 L766 291 L766 306 L650 306 L650 291 Z"/>
</clipPath>
<clipPath clipPathUnits="userSpaceOnUse" id="clipPath15">
<path d="M650 307 L705 307 L705 322 L650 322 L650 307 Z"/>
</clipPath>
<clipPath clipPathUnits="userSpaceOnUse" id="clipPath16">
<path d="M645 323 L847 323 L847 390 L645 390 L645 323 Z"/>
</clipPath>
<clipPath clipPathUnits="userSpaceOnUse" id="clipPath17">
<path d="M644 426 L848 426 L848 530 L644 530 L644 426 Z"/>
</clipPath>
<clipPath clipPathUnits="userSpaceOnUse" id="clipPath18">
<path d="M650 430 L766 430 L766 445 L650 445 L650 430 Z"/>
</clipPath>
<clipPath clipPathUnits="userSpaceOnUse" id="clipPath19">
<path d="M650 446 L725 446 L725 461 L650 461 L650 446 Z"/>
</clipPath>
<clipPath clipPathUnits="userSpaceOnUse" id="clipPath20">
<path d="M645 462 L847 462 L847 529 L645 529 L645 462 Z"/>
</clipPath>
<clipPath clipPathUnits="userSpaceOnUse" id="clipPath21">
<path d="M644 566 L848 566 L848 670 L644 670 L644 566 Z"/>
</clipPath>
<clipPath clipPathUnits="userSpaceOnUse" id="clipPath22">
<path d="M650 570 L766 570 L766 585 L650 585 L650 570 Z"/>
</clipPath>
<clipPath clipPathUnits="userSpaceOnUse" id="clipPath23">
<path d="M650 586 L712 586 L712 601 L650 601 L650 586 Z"/>
</clipPath>
<clipPath clipPathUnits="userSpaceOnUse" id="clipPath24">
<path d="M645 602 L847 602 L847 669 L645 669 L645 602 Z"/>
</clipPath>
<clipPath clipPathUnits="userSpaceOnUse" id="clipPath25">
<path d="M8 147 L212 147 L212 251 L8 251 L8 147 Z"/>
</clipPath>
<clipPath clipPathUnits="userSpaceOnUse" id="clipPath26">
<path d="M14 151 L129 151 L129 166 L14 166 L14 151 Z"/>
</clipPath>
<clipPath clipPathUnits="userSpaceOnUse" id="clipPath27">
<path d="M14 167 L100 167 L100 182 L14 182 L14 167 Z"/>
</clipPath>
<clipPath clipPathUnits="userSpaceOnUse" id="clipPath28">
<path d="M9 183 L211 183 L211 250 L9 250 L9 183 Z"/>
</clipPath>
<clipPath clipPathUnits="userSpaceOnUse" id="clipPath29">
<path d="M8 287 L212 287 L212 391 L8 391 L8 287 Z"/>
</clipPath>
<clipPath clipPathUnits="userSpaceOnUse" id="clipPath30">
<path d="M14 291 L129 291 L129 306 L14 306 L14 291 Z"/>
</clipPath>
<clipPath clipPathUnits="userSpaceOnUse" id="clipPath31">
<path d="M14 307 L54 307 L54 322 L14 322 L14 307 Z"/>
</clipPath>
<clipPath clipPathUnits="userSpaceOnUse" id="clipPath32">
<path d="M9 323 L211 323 L211 390 L9 390 L9 323 Z"/>
</clipPath>
<clipPath clipPathUnits="userSpaceOnUse" id="clipPath33">
<path d="M8 426 L212 426 L212 530 L8 530 L8 426 Z"/>
</clipPath>
<clipPath clipPathUnits="userSpaceOnUse" id="clipPath34">
<path d="M14 430 L129 430 L129 445 L14 445 L14 430 Z"/>
</clipPath>
<clipPath clipPathUnits="userSpaceOnUse" id="clipPath35">
<path d="M14 446 L46 446 L46 461 L14 461 L14 446 Z"/>
</clipPath>
<clipPath clipPathUnits="userSpaceOnUse" id="clipPath36">
<path d="M9 462 L211 462 L211 529 L9 529 L9 462 Z"/>
</clipPath>
<clipPath clipPathUnits="userSpaceOnUse" id="clipPath37">
<path d="M-1 -1 L857 -1 L857 679 L-1 679 L-1 -1 Z"/>
</clipPath>
<clipPath clipPathUnits="userSpaceOnUse" id="clipPath38">
<path d="M556 229 L594 229 L594 244 L556 244 L556 229 Z"/>
</clipPath>
<clipPath clipPathUnits="userSpaceOnUse" id="clipPath39">
<path d="M633 108 L648 108 L648 127 L633 127 L633 108 Z"/>
</clipPath>
<clipPath clipPathUnits="userSpaceOnUse" id="clipPath40">
<path d="M562 274 L600 274 L600 289 L562 289 L562 274 Z"/>
</clipPath>
<clipPath clipPathUnits="userSpaceOnUse" id="clipPath41">
<path d="M631 210 L648 210 L648 227 L631 227 L631 210 Z"/>
</clipPath>
<clipPath clipPathUnits="userSpaceOnUse" id="clipPath42">
<path d="M561 339 L599 339 L599 354 L561 354 L561 339 Z"/>
</clipPath>
<clipPath clipPathUnits="userSpaceOnUse" id="clipPath43">
<path d="M630 346 L648 346 L648 359 L630 359 L630 346 Z"/>
</clipPath>
<clipPath clipPathUnits="userSpaceOnUse" id="clipPath44">
<path d="M560 408 L598 408 L598 423 L560 423 L560 408 Z"/>
</clipPath>
<clipPath clipPathUnits="userSpaceOnUse" id="clipPath45">
<path d="M631 474 L648 474 L648 491 L631 491 L631 474 Z"/>
</clipPath>
<clipPath clipPathUnits="userSpaceOnUse" id="clipPath46">
<path d="M560 475 L598 475 L598 490 L560 490 L560 475 Z"/>
</clipPath>
<clipPath clipPathUnits="userSpaceOnUse" id="clipPath47">
<path d="M633 581 L648 581 L648 599 L633 599 L633 581 Z"/>
</clipPath>
<clipPath clipPathUnits="userSpaceOnUse" id="clipPath48">
<path d="M250 276 L288 276 L288 291 L250 291 L250 276 Z"/>
</clipPath>
<clipPath clipPathUnits="userSpaceOnUse" id="clipPath49">
<path d="M209 247 L227 247 L227 262 L209 262 L209 247 Z"/>
</clipPath>
<clipPath clipPathUnits="userSpaceOnUse" id="clipPath50">
<path d="M250 336 L288 336 L288 351 L250 351 L250 336 Z"/>
</clipPath>
<clipPath clipPathUnits="userSpaceOnUse" id="clipPath51">
<path d="M209 346 L227 346 L227 359 L209 359 L209 346 Z"/>
</clipPath>
<clipPath clipPathUnits="userSpaceOnUse" id="clipPath52">
<path d="M250 419 L288 419 L288 434 L250 434 L250 419 Z"/>
</clipPath>
<clipPath clipPathUnits="userSpaceOnUse" id="clipPath53">
<path d="M209 448 L227 448 L227 463 L209 463 L209 448 Z"/>
</clipPath>
</defs>
<g font-size="11" fill="white" stroke-linejoin="round" stroke="white" stroke-width="0" stroke-miterlimit="0">
<polygon clip-path="url(#clipPath1)" points=" 327 289 400 289 400 324 527 324 527 389 327 389 327 289" stroke="none"/>
</g>
<g font-size="11" stroke-width="1.1" stroke-linecap="butt">
<line clip-path="url(#clipPath1)" fill="none" x1="327" x2="400" y1="289" y2="289"/>
<line clip-path="url(#clipPath1)" fill="none" x1="400" x2="400" y1="289" y2="324"/>
<line clip-path="url(#clipPath1)" fill="none" x1="400" x2="527" y1="324" y2="324"/>
<line clip-path="url(#clipPath1)" fill="none" x1="527" x2="527" y1="324" y2="389"/>
<line clip-path="url(#clipPath1)" fill="none" x1="527" x2="327" y1="389" y2="389"/>
<line clip-path="url(#clipPath1)" fill="none" x1="327" x2="327" y1="389" y2="289"/>
<text x="332" font-size="10" y="302" clip-path="url(#clipPath2)" font-family="'Calibri'" stroke="none" font-weight="bold" xml:space="preserve">(PSSM_Syntax)</text>
<text x="332" font-size="10" y="318" clip-path="url(#clipPath3)" font-family="'Calibri'" stroke="none" font-weight="bold" xml:space="preserve">Constraints</text>
<line clip-path="url(#clipPath4)" fill="none" x1="327" x2="527" y1="324" y2="324"/>
<polygon fill="white" clip-path="url(#clipPath5)" points=" 646 10 770 10 770 45 846 45 846 110 646 110 646 10" stroke="none"/>
<line clip-path="url(#clipPath5)" fill="none" x1="646" x2="770" y1="10" y2="10"/>
<line clip-path="url(#clipPath5)" fill="none" x1="770" x2="770" y1="10" y2="45"/>
<line clip-path="url(#clipPath5)" fill="none" x1="770" x2="846" y1="45" y2="45"/>
<line clip-path="url(#clipPath5)" fill="none" x1="846" x2="846" y1="45" y2="110"/>
<line clip-path="url(#clipPath5)" fill="none" x1="846" x2="646" y1="110" y2="110"/>
<line clip-path="url(#clipPath5)" fill="none" x1="646" x2="646" y1="110" y2="10"/>
<text x="651" font-size="10" y="23" clip-path="url(#clipPath6)" font-family="'Calibri'" stroke="none" font-weight="bold" xml:space="preserve">(PSSM_Syntax::Constraints)</text>
<text x="651" font-size="10" y="39" clip-path="url(#clipPath7)" font-family="'Calibri'" stroke="none" font-weight="bold" xml:space="preserve">CommonStructure</text>
<line clip-path="url(#clipPath8)" fill="none" x1="646" x2="846" y1="45" y2="45"/>
<polygon fill="white" clip-path="url(#clipPath9)" points=" 646 149 770 149 770 184 846 184 846 249 646 249 646 149" stroke="none"/>
<line clip-path="url(#clipPath9)" fill="none" x1="646" x2="770" y1="149" y2="149"/>
<line clip-path="url(#clipPath9)" fill="none" x1="770" x2="770" y1="149" y2="184"/>
<line clip-path="url(#clipPath9)" fill="none" x1="770" x2="846" y1="184" y2="184"/>
<line clip-path="url(#clipPath9)" fill="none" x1="846" x2="846" y1="184" y2="249"/>
<line clip-path="url(#clipPath9)" fill="none" x1="846" x2="646" y1="249" y2="249"/>
<line clip-path="url(#clipPath9)" fill="none" x1="646" x2="646" y1="249" y2="149"/>
<text x="651" font-size="10" y="162" clip-path="url(#clipPath10)" font-family="'Calibri'" stroke="none" font-weight="bold" xml:space="preserve">(PSSM_Syntax::Constraints)</text>
<text x="651" font-size="10" y="178" clip-path="url(#clipPath11)" font-family="'Calibri'" stroke="none" font-weight="bold" xml:space="preserve">Values</text>
<line clip-path="url(#clipPath12)" fill="none" x1="646" x2="846" y1="184" y2="184"/>
<polygon fill="white" clip-path="url(#clipPath13)" points=" 646 289 770 289 770 324 846 324 846 389 646 389 646 289" stroke="none"/>
<line clip-path="url(#clipPath13)" fill="none" x1="646" x2="770" y1="289" y2="289"/>
<line clip-path="url(#clipPath13)" fill="none" x1="770" x2="770" y1="289" y2="324"/>
<line clip-path="url(#clipPath13)" fill="none" x1="770" x2="846" y1="324" y2="324"/>
<line clip-path="url(#clipPath13)" fill="none" x1="846" x2="846" y1="324" y2="389"/>
<line clip-path="url(#clipPath13)" fill="none" x1="846" x2="646" y1="389" y2="389"/>
<line clip-path="url(#clipPath13)" fill="none" x1="646" x2="646" y1="389" y2="289"/>
<text x="651" font-size="10" y="302" clip-path="url(#clipPath14)" font-family="'Calibri'" stroke="none" font-weight="bold" xml:space="preserve">(PSSM_Syntax::Constraints)</text>
<text x="651" font-size="10" y="318" clip-path="url(#clipPath15)" font-family="'Calibri'" stroke="none" font-weight="bold" xml:space="preserve">Classification</text>
<line clip-path="url(#clipPath16)" fill="none" x1="646" x2="846" y1="324" y2="324"/>
<polygon fill="white" clip-path="url(#clipPath17)" points=" 646 428 770 428 770 463 846 463 846 528 646 528 646 428" stroke="none"/>
<line clip-path="url(#clipPath17)" fill="none" x1="646" x2="770" y1="428" y2="428"/>
<line clip-path="url(#clipPath17)" fill="none" x1="770" x2="770" y1="428" y2="463"/>
<line clip-path="url(#clipPath17)" fill="none" x1="770" x2="846" y1="463" y2="463"/>
<line clip-path="url(#clipPath17)" fill="none" x1="846" x2="846" y1="463" y2="528"/>
<line clip-path="url(#clipPath17)" fill="none" x1="846" x2="646" y1="528" y2="528"/>
<line clip-path="url(#clipPath17)" fill="none" x1="646" x2="646" y1="528" y2="428"/>
<text x="651" font-size="10" y="441" clip-path="url(#clipPath18)" font-family="'Calibri'" stroke="none" font-weight="bold" xml:space="preserve">(PSSM_Syntax::Constraints)</text>
<text x="651" font-size="10" y="457" clip-path="url(#clipPath19)" font-family="'Calibri'" stroke="none" font-weight="bold" xml:space="preserve">CommonBehavior</text>
<line clip-path="url(#clipPath20)" fill="none" x1="646" x2="846" y1="463" y2="463"/>
<polygon fill="white" clip-path="url(#clipPath21)" points=" 646 568 770 568 770 603 846 603 846 668 646 668 646 568" stroke="none"/>
<line clip-path="url(#clipPath21)" fill="none" x1="646" x2="770" y1="568" y2="568"/>
<line clip-path="url(#clipPath21)" fill="none" x1="770" x2="770" y1="568" y2="603"/>
<line clip-path="url(#clipPath21)" fill="none" x1="770" x2="846" y1="603" y2="603"/>
<line clip-path="url(#clipPath21)" fill="none" x1="846" x2="846" y1="603" y2="668"/>
<line clip-path="url(#clipPath21)" fill="none" x1="846" x2="646" y1="668" y2="668"/>
<line clip-path="url(#clipPath21)" fill="none" x1="646" x2="646" y1="668" y2="568"/>
<text x="651" font-size="10" y="581" clip-path="url(#clipPath22)" font-family="'Calibri'" stroke="none" font-weight="bold" xml:space="preserve">(PSSM_Syntax::Constraints)</text>
<text x="651" font-size="10" y="597" clip-path="url(#clipPath23)" font-family="'Calibri'" stroke="none" font-weight="bold" xml:space="preserve">StateMachines</text>
<line clip-path="url(#clipPath24)" fill="none" x1="646" x2="846" y1="603" y2="603"/>
<polygon fill="white" clip-path="url(#clipPath25)" points=" 10 149 133 149 133 184 210 184 210 249 10 249 10 149" stroke="none"/>
<line clip-path="url(#clipPath25)" fill="none" x1="10" x2="133" y1="149" y2="149"/>
<line clip-path="url(#clipPath25)" fill="none" x1="133" x2="133" y1="149" y2="184"/>
<line clip-path="url(#clipPath25)" fill="none" x1="133" x2="210" y1="184" y2="184"/>
<line clip-path="url(#clipPath25)" fill="none" x1="210" x2="210" y1="184" y2="249"/>
<line clip-path="url(#clipPath25)" fill="none" x1="210" x2="10" y1="249" y2="249"/>
<line clip-path="url(#clipPath25)" fill="none" x1="10" x2="10" y1="249" y2="149"/>
<text x="15" font-size="10" y="162" clip-path="url(#clipPath26)" font-family="'Calibri'" stroke="none" font-weight="bold" xml:space="preserve">(fUML_Syntax::Constraints)</text>
<text x="15" font-size="10" y="178" clip-path="url(#clipPath27)" font-family="'Calibri'" stroke="none" font-weight="bold" xml:space="preserve">StructuredClassifiers</text>
<line clip-path="url(#clipPath28)" fill="none" x1="10" x2="210" y1="184" y2="184"/>
<polygon fill="white" clip-path="url(#clipPath29)" points=" 10 289 133 289 133 324 210 324 210 389 10 389 10 289" stroke="none"/>
<line clip-path="url(#clipPath29)" fill="none" x1="10" x2="133" y1="289" y2="289"/>
<line clip-path="url(#clipPath29)" fill="none" x1="133" x2="133" y1="289" y2="324"/>
<line clip-path="url(#clipPath29)" fill="none" x1="133" x2="210" y1="324" y2="324"/>
<line clip-path="url(#clipPath29)" fill="none" x1="210" x2="210" y1="324" y2="389"/>
<line clip-path="url(#clipPath29)" fill="none" x1="210" x2="10" y1="389" y2="389"/>
<line clip-path="url(#clipPath29)" fill="none" x1="10" x2="10" y1="389" y2="289"/>
<text x="15" font-size="10" y="302" clip-path="url(#clipPath30)" font-family="'Calibri'" stroke="none" font-weight="bold" xml:space="preserve">(fUML_Syntax::Constraints)</text>
<text x="15" font-size="10" y="318" clip-path="url(#clipPath31)" font-family="'Calibri'" stroke="none" font-weight="bold" xml:space="preserve">Activities</text>
<line clip-path="url(#clipPath32)" fill="none" x1="10" x2="210" y1="324" y2="324"/>
<polygon fill="white" clip-path="url(#clipPath33)" points=" 10 428 133 428 133 463 210 463 210 528 10 528 10 428" stroke="none"/>
<line clip-path="url(#clipPath33)" fill="none" x1="10" x2="133" y1="428" y2="428"/>
<line clip-path="url(#clipPath33)" fill="none" x1="133" x2="133" y1="428" y2="463"/>
<line clip-path="url(#clipPath33)" fill="none" x1="133" x2="210" y1="463" y2="463"/>
<line clip-path="url(#clipPath33)" fill="none" x1="210" x2="210" y1="463" y2="528"/>
<line clip-path="url(#clipPath33)" fill="none" x1="210" x2="10" y1="528" y2="528"/>
<line clip-path="url(#clipPath33)" fill="none" x1="10" x2="10" y1="528" y2="428"/>
<text x="15" font-size="10" y="441" clip-path="url(#clipPath34)" font-family="'Calibri'" stroke="none" font-weight="bold" xml:space="preserve">(fUML_Syntax::Constraints)</text>
<text x="15" font-size="10" y="457" clip-path="url(#clipPath35)" font-family="'Calibri'" stroke="none" font-weight="bold" xml:space="preserve">Actions</text>
<line clip-path="url(#clipPath36)" fill="none" x1="10" x2="210" y1="463" y2="463"/>
</g>
<g stroke-linecap="butt" font-size="10" text-rendering="optimizeLegibility" font-family="'Calibri'" stroke-dasharray="5,5,5,5,5,5,5,5,5,5" stroke-width="1.1">
<line clip-path="url(#clipPath37)" fill="none" x1="527" x2="646" y1="322" y2="109"/>
<text xml:space="preserve" x="557" y="240" clip-path="url(#clipPath38)" stroke="none">«import»</text>
<line clip-path="url(#clipPath39)" fill="none" x1="643" x2="646" y1="125" y2="109" stroke-dasharray="none"/>
<line clip-path="url(#clipPath39)" fill="none" x1="646" x2="634" y1="109" y2="120" stroke-dasharray="none"/>
<line clip-path="url(#clipPath37)" fill="none" x1="527" x2="646" y1="336" y2="211"/>
<text xml:space="preserve" x="563" y="285" clip-path="url(#clipPath40)" stroke="none">«import»</text>
<line clip-path="url(#clipPath41)" fill="none" x1="639" x2="646" y1="225" y2="211" stroke-dasharray="none"/>
<line clip-path="url(#clipPath41)" fill="none" x1="646" x2="632" y1="211" y2="218" stroke-dasharray="none"/>
<line clip-path="url(#clipPath37)" fill="none" x1="527" x2="646" y1="352" y2="352"/>
<text xml:space="preserve" x="562" y="350" clip-path="url(#clipPath42)" stroke="none">«import»</text>
<line clip-path="url(#clipPath43)" fill="none" x1="631" x2="646" y1="357" y2="352" stroke-dasharray="none"/>
<line clip-path="url(#clipPath43)" fill="none" x1="646" x2="631" y1="352" y2="347" stroke-dasharray="none"/>
<line clip-path="url(#clipPath37)" fill="none" x1="527" x2="646" y1="370" y2="489"/>
<text xml:space="preserve" x="561" y="419" clip-path="url(#clipPath44)" stroke="none">«import»</text>
<line clip-path="url(#clipPath45)" fill="none" x1="632" x2="646" y1="482" y2="489" stroke-dasharray="none"/>
<line clip-path="url(#clipPath45)" fill="none" x1="646" x2="639" y1="489" y2="475" stroke-dasharray="none"/>
<line clip-path="url(#clipPath37)" fill="none" x1="525" x2="646" y1="389" y2="597"/>
<text xml:space="preserve" x="561" y="486" clip-path="url(#clipPath46)" stroke="none">«import»</text>
<line clip-path="url(#clipPath47)" fill="none" x1="634" x2="646" y1="587" y2="597" stroke-dasharray="none"/>
<line clip-path="url(#clipPath47)" fill="none" x1="646" x2="643" y1="597" y2="582" stroke-dasharray="none"/>
<line clip-path="url(#clipPath37)" fill="none" x1="327" x2="210" y1="319" y2="248"/>
<text xml:space="preserve" x="251" y="287" clip-path="url(#clipPath48)" stroke="none">«import»</text>
<line clip-path="url(#clipPath49)" fill="none" x1="225" x2="210" y1="252" y2="248" stroke-dasharray="none"/>
<line clip-path="url(#clipPath49)" fill="none" x1="210" x2="220" y1="248" y2="260" stroke-dasharray="none"/>
<line clip-path="url(#clipPath37)" fill="none" x1="327" x2="210" y1="352" y2="352"/>
<text xml:space="preserve" x="251" y="347" clip-path="url(#clipPath50)" stroke="none">«import»</text>
<line clip-path="url(#clipPath51)" fill="none" x1="225" x2="210" y1="347" y2="352" stroke-dasharray="none"/>
<line clip-path="url(#clipPath51)" fill="none" x1="210" x2="225" y1="352" y2="357" stroke-dasharray="none"/>
<line clip-path="url(#clipPath37)" fill="none" x1="327" x2="210" y1="389" y2="461"/>
<text xml:space="preserve" x="251" y="430" clip-path="url(#clipPath52)" stroke="none">«import»</text>
<line clip-path="url(#clipPath53)" fill="none" x1="220" x2="210" y1="449" y2="461" stroke-dasharray="none"/>
<line clip-path="url(#clipPath53)" fill="none" x1="210" x2="225" y1="461" y2="457" stroke-dasharray="none"/>
</g>
</g>
</svg>
