<?xml version="1.0" encoding="UTF-8"?><svg xmlns="http://www.w3.org/2000/svg" xmlns:xlink="http://www.w3.org/1999/xlink" stroke-dasharray="none" shape-rendering="auto" font-family="'Dialog'" width="856" text-rendering="auto" fill-opacity="1" contentScriptType="text/ecmascript" color-interpolation="auto" color-rendering="auto" preserveAspectRatio="xMidYMid meet" font-size="12" viewBox="0 0 856 678" fill="black" stroke="black" image-rendering="auto" stroke-miterlimit="10" zoomAndPan="magnify" version="1.0" stroke-linecap="square" stroke-linejoin="miter" contentStyleType="text/css" font-style="normal" height="678" stroke-width="1" stroke-dashoffset="0" font-weight="normal" stroke-opacity="1">
<!--Generated by the Batik Graphics2D SVG Generator-->
<defs id="genericDefs"/>
<g>
<defs id="defs1">
<linearGradient x1="327" x2="327" y1="289" gradientUnits="userSpaceOnUse" y2="389" xlink:type="simple" xlink:actuate="onLoad" id="linearGradient1" xlink:show="other" spreadMethod="pad">
<stop stop-opacity="1" stop-color="white" offset="0%"/>
<stop stop-opacity="1" stop-color="white" offset="100%"/>
</linearGradient>
<linearGradient x1="646" x2="646" y1="10" gradientUnits="userSpaceOnUse" y2="110" xlink:type="simple" xlink:actuate="onLoad" id="linearGradient2" xlink:show="other" spreadMethod="pad">
<stop stop-opacity="1" stop-color="white" offset="0%"/>
<stop stop-opacity="1" stop-color="white" offset="100%"/>
</linearGradient>
<linearGradient x1="646" x2="646" y1="149" gradientUnits="userSpaceOnUse" y2="249" xlink:type="simple" xlink:actuate="onLoad" id="linearGradient3" xlink:show="other" spreadMethod="pad">
<stop stop-opacity="1" stop-color="white" offset="0%"/>
<stop stop-opacity="1" stop-color="white" offset="100%"/>
</linearGradient>
<linearGradient x1="646" x2="646" y1="289" gradientUnits="userSpaceOnUse" y2="389" xlink:type="simple" xlink:actuate="onLoad" id="linearGradient4" xlink:show="other" spreadMethod="pad">
<stop stop-opacity="1" stop-color="white" offset="0%"/>
<stop stop-opacity="1" stop-color="white" offset="100%"/>
</linearGradient>
<linearGradient x1="646" x2="646" y1="428" gradientUnits="userSpaceOnUse" y2="528" xlink:type="simple" xlink:actuate="onLoad" id="linearGradient5" xlink:show="other" spreadMethod="pad">
<stop stop-opacity="1" stop-color="white" offset="0%"/>
<stop stop-opacity="1" stop-color="white" offset="100%"/>
</linearGradient>
<linearGradient x1="646" x2="646" y1="568" gradientUnits="userSpaceOnUse" y2="668" xlink:type="simple" xlink:actuate="onLoad" id="linearGradient6" xlink:show="other" spreadMethod="pad">
<stop stop-opacity="1" stop-color="white" offset="0%"/>
<stop stop-opacity="1" stop-color="white" offset="100%"/>
</linearGradient>
<linearGradient x1="10" x2="10" y1="84" gradientUnits="userSpaceOnUse" y2="184" xlink:type="simple" xlink:actuate="onLoad" id="linearGradient7" xlink:show="other" spreadMethod="pad">
<stop stop-opacity="1" stop-color="white" offset="0%"/>
<stop stop-opacity="1" stop-color="white" offset="100%"/>
</linearGradient>
<linearGradient x1="10" x2="10" y1="224" gradientUnits="userSpaceOnUse" y2="324" xlink:type="simple" xlink:actuate="onLoad" id="linearGradient8" xlink:show="other" spreadMethod="pad">
<stop stop-opacity="1" stop-color="white" offset="0%"/>
<stop stop-opacity="1" stop-color="white" offset="100%"/>
</linearGradient>
<linearGradient x1="10" x2="10" y1="364" gradientUnits="userSpaceOnUse" y2="464" xlink:type="simple" xlink:actuate="onLoad" id="linearGradient9" xlink:show="other" spreadMethod="pad">
<stop stop-opacity="1" stop-color="white" offset="0%"/>
<stop stop-opacity="1" stop-color="white" offset="100%"/>
</linearGradient>
<linearGradient x1="10" x2="10" y1="505" gradientUnits="userSpaceOnUse" y2="605" xlink:type="simple" xlink:actuate="onLoad" id="linearGradient10" xlink:show="other" spreadMethod="pad">
<stop stop-opacity="1" stop-color="white" offset="0%"/>
<stop stop-opacity="1" stop-color="white" offset="100%"/>
</linearGradient>
<clipPath clipPathUnits="userSpaceOnUse" id="clipPath1">
<path d="M327 289 L327 389 L527 389 L527 318 L387 318 L387 289 Z"/>
</clipPath>
<clipPath clipPathUnits="userSpaceOnUse" id="clipPath2">
<path d="M325 287 L529 287 L529 391 L325 391 L325 287 Z"/>
</clipPath>
<clipPath clipPathUnits="userSpaceOnUse" id="clipPath3">
<path d="M326 291 L528 291 L528 304 L326 304 L326 291 Z"/>
</clipPath>
<clipPath clipPathUnits="userSpaceOnUse" id="clipPath4">
<path d="M331 303 L382 303 L382 316 L331 316 L331 303 Z"/>
</clipPath>
<clipPath clipPathUnits="userSpaceOnUse" id="clipPath5">
<path d="M326 317 L528 317 L528 390 L326 390 L326 317 Z"/>
</clipPath>
<clipPath clipPathUnits="userSpaceOnUse" id="clipPath6">
<path d="M646 10 L646 110 L846 110 L846 39 L733 39 L733 10 Z"/>
</clipPath>
<clipPath clipPathUnits="userSpaceOnUse" id="clipPath7">
<path d="M644 8 L848 8 L848 112 L644 112 L644 8 Z"/>
</clipPath>
<clipPath clipPathUnits="userSpaceOnUse" id="clipPath8">
<path d="M645 12 L847 12 L847 25 L645 25 L645 12 Z"/>
</clipPath>
<clipPath clipPathUnits="userSpaceOnUse" id="clipPath9">
<path d="M650 24 L729 24 L729 37 L650 37 L650 24 Z"/>
</clipPath>
<clipPath clipPathUnits="userSpaceOnUse" id="clipPath10">
<path d="M645 38 L847 38 L847 111 L645 111 L645 38 Z"/>
</clipPath>
<clipPath clipPathUnits="userSpaceOnUse" id="clipPath11">
<path d="M646 149 L646 249 L846 249 L846 178 L706 178 L706 149 Z"/>
</clipPath>
<clipPath clipPathUnits="userSpaceOnUse" id="clipPath12">
<path d="M644 147 L848 147 L848 251 L644 251 L644 147 Z"/>
</clipPath>
<clipPath clipPathUnits="userSpaceOnUse" id="clipPath13">
<path d="M645 151 L847 151 L847 164 L645 164 L645 151 Z"/>
</clipPath>
<clipPath clipPathUnits="userSpaceOnUse" id="clipPath14">
<path d="M650 163 L681 163 L681 176 L650 176 L650 163 Z"/>
</clipPath>
<clipPath clipPathUnits="userSpaceOnUse" id="clipPath15">
<path d="M645 177 L847 177 L847 250 L645 250 L645 177 Z"/>
</clipPath>
<clipPath clipPathUnits="userSpaceOnUse" id="clipPath16">
<path d="M646 289 L646 389 L846 389 L846 318 L714 318 L714 289 Z"/>
</clipPath>
<clipPath clipPathUnits="userSpaceOnUse" id="clipPath17">
<path d="M644 287 L848 287 L848 391 L644 391 L644 287 Z"/>
</clipPath>
<clipPath clipPathUnits="userSpaceOnUse" id="clipPath18">
<path d="M645 291 L847 291 L847 304 L645 304 L645 291 Z"/>
</clipPath>
<clipPath clipPathUnits="userSpaceOnUse" id="clipPath19">
<path d="M650 303 L710 303 L710 316 L650 316 L650 303 Z"/>
</clipPath>
<clipPath clipPathUnits="userSpaceOnUse" id="clipPath20">
<path d="M645 317 L847 317 L847 390 L645 390 L645 317 Z"/>
</clipPath>
<clipPath clipPathUnits="userSpaceOnUse" id="clipPath21">
<path d="M646 428 L646 528 L846 528 L846 457 L731 457 L731 428 Z"/>
</clipPath>
<clipPath clipPathUnits="userSpaceOnUse" id="clipPath22">
<path d="M644 426 L848 426 L848 530 L644 530 L644 426 Z"/>
</clipPath>
<clipPath clipPathUnits="userSpaceOnUse" id="clipPath23">
<path d="M645 430 L847 430 L847 443 L645 443 L645 430 Z"/>
</clipPath>
<clipPath clipPathUnits="userSpaceOnUse" id="clipPath24">
<path d="M650 442 L727 442 L727 455 L650 455 L650 442 Z"/>
</clipPath>
<clipPath clipPathUnits="userSpaceOnUse" id="clipPath25">
<path d="M645 456 L847 456 L847 529 L645 529 L645 456 Z"/>
</clipPath>
<clipPath clipPathUnits="userSpaceOnUse" id="clipPath26">
<path d="M646 568 L646 668 L846 668 L846 597 L718 597 L718 568 Z"/>
</clipPath>
<clipPath clipPathUnits="userSpaceOnUse" id="clipPath27">
<path d="M644 566 L848 566 L848 670 L644 670 L644 566 Z"/>
</clipPath>
<clipPath clipPathUnits="userSpaceOnUse" id="clipPath28">
<path d="M645 570 L847 570 L847 583 L645 583 L645 570 Z"/>
</clipPath>
<clipPath clipPathUnits="userSpaceOnUse" id="clipPath29">
<path d="M650 582 L714 582 L714 595 L650 595 L650 582 Z"/>
</clipPath>
<clipPath clipPathUnits="userSpaceOnUse" id="clipPath30">
<path d="M645 596 L847 596 L847 669 L645 669 L645 596 Z"/>
</clipPath>
<clipPath clipPathUnits="userSpaceOnUse" id="clipPath31">
<path d="M10 84 L10 184 L210 184 L210 113 L111 113 L111 84 Z"/>
</clipPath>
<clipPath clipPathUnits="userSpaceOnUse" id="clipPath32">
<path d="M8 82 L212 82 L212 186 L8 186 L8 82 Z"/>
</clipPath>
<clipPath clipPathUnits="userSpaceOnUse" id="clipPath33">
<path d="M9 86 L211 86 L211 99 L9 99 L9 86 Z"/>
</clipPath>
<clipPath clipPathUnits="userSpaceOnUse" id="clipPath34">
<path d="M14 98 L107 98 L107 111 L14 111 L14 98 Z"/>
</clipPath>
<clipPath clipPathUnits="userSpaceOnUse" id="clipPath35">
<path d="M9 112 L211 112 L211 185 L9 185 L9 112 Z"/>
</clipPath>
<clipPath clipPathUnits="userSpaceOnUse" id="clipPath36">
<path d="M10 224 L10 324 L210 324 L210 253 L70 253 L70 224 Z"/>
</clipPath>
<clipPath clipPathUnits="userSpaceOnUse" id="clipPath37">
<path d="M8 222 L212 222 L212 326 L8 326 L8 222 Z"/>
</clipPath>
<clipPath clipPathUnits="userSpaceOnUse" id="clipPath38">
<path d="M9 226 L211 226 L211 239 L9 239 L9 226 Z"/>
</clipPath>
<clipPath clipPathUnits="userSpaceOnUse" id="clipPath39">
<path d="M14 238 L57 238 L57 251 L14 251 L14 238 Z"/>
</clipPath>
<clipPath clipPathUnits="userSpaceOnUse" id="clipPath40">
<path d="M9 252 L211 252 L211 325 L9 325 L9 252 Z"/>
</clipPath>
<clipPath clipPathUnits="userSpaceOnUse" id="clipPath41">
<path d="M10 364 L10 464 L210 464 L210 393 L70 393 L70 364 Z"/>
</clipPath>
<clipPath clipPathUnits="userSpaceOnUse" id="clipPath42">
<path d="M8 362 L212 362 L212 466 L8 466 L8 362 Z"/>
</clipPath>
<clipPath clipPathUnits="userSpaceOnUse" id="clipPath43">
<path d="M9 366 L211 366 L211 379 L9 379 L9 366 Z"/>
</clipPath>
<clipPath clipPathUnits="userSpaceOnUse" id="clipPath44">
<path d="M14 378 L57 378 L57 391 L14 391 L14 378 Z"/>
</clipPath>
<clipPath clipPathUnits="userSpaceOnUse" id="clipPath45">
<path d="M9 392 L211 392 L211 465 L9 465 L9 392 Z"/>
</clipPath>
<clipPath clipPathUnits="userSpaceOnUse" id="clipPath46">
<path d="M10 505 L10 605 L210 605 L210 534 L70 534 L70 505 Z"/>
</clipPath>
<clipPath clipPathUnits="userSpaceOnUse" id="clipPath47">
<path d="M8 503 L212 503 L212 607 L8 607 L8 503 Z"/>
</clipPath>
<clipPath clipPathUnits="userSpaceOnUse" id="clipPath48">
<path d="M9 507 L211 507 L211 520 L9 520 L9 507 Z"/>
</clipPath>
<clipPath clipPathUnits="userSpaceOnUse" id="clipPath49">
<path d="M14 519 L48 519 L48 532 L14 532 L14 519 Z"/>
</clipPath>
<clipPath clipPathUnits="userSpaceOnUse" id="clipPath50">
<path d="M9 533 L211 533 L211 606 L9 606 L9 533 Z"/>
</clipPath>
<clipPath clipPathUnits="userSpaceOnUse" id="clipPath51">
<path d="M-1 -1 L857 -1 L857 679 L-1 679 L-1 -1 Z"/>
</clipPath>
<clipPath clipPathUnits="userSpaceOnUse" id="clipPath52">
<path d="M553 229 L597 229 L597 242 L553 242 L553 229 Z"/>
</clipPath>
<clipPath clipPathUnits="userSpaceOnUse" id="clipPath53">
<path d="M633 108 L648 108 L648 127 L633 127 L633 108 Z"/>
</clipPath>
<clipPath clipPathUnits="userSpaceOnUse" id="clipPath54">
<path d="M558 276 L602 276 L602 289 L558 289 L558 276 Z"/>
</clipPath>
<clipPath clipPathUnits="userSpaceOnUse" id="clipPath55">
<path d="M631 210 L648 210 L648 227 L631 227 L631 210 Z"/>
</clipPath>
<clipPath clipPathUnits="userSpaceOnUse" id="clipPath56">
<path d="M558 340 L602 340 L602 353 L558 353 L558 340 Z"/>
</clipPath>
<clipPath clipPathUnits="userSpaceOnUse" id="clipPath57">
<path d="M630 346 L648 346 L648 359 L630 359 L630 346 Z"/>
</clipPath>
<clipPath clipPathUnits="userSpaceOnUse" id="clipPath58">
<path d="M556 408 L600 408 L600 421 L556 421 L556 408 Z"/>
</clipPath>
<clipPath clipPathUnits="userSpaceOnUse" id="clipPath59">
<path d="M631 474 L648 474 L648 491 L631 491 L631 474 Z"/>
</clipPath>
<clipPath clipPathUnits="userSpaceOnUse" id="clipPath60">
<path d="M556 475 L600 475 L600 488 L556 488 L556 475 Z"/>
</clipPath>
<clipPath clipPathUnits="userSpaceOnUse" id="clipPath61">
<path d="M633 581 L648 581 L648 599 L633 599 L633 581 Z"/>
</clipPath>
<clipPath clipPathUnits="userSpaceOnUse" id="clipPath62">
<path d="M249 246 L293 246 L293 259 L249 259 L249 246 Z"/>
</clipPath>
<clipPath clipPathUnits="userSpaceOnUse" id="clipPath63">
<path d="M209 182 L226 182 L226 200 L209 200 L209 182 Z"/>
</clipPath>
<clipPath clipPathUnits="userSpaceOnUse" id="clipPath64">
<path d="M248 305 L292 305 L292 318 L248 318 L248 305 Z"/>
</clipPath>
<clipPath clipPathUnits="userSpaceOnUse" id="clipPath65">
<path d="M209 285 L228 285 L228 299 L209 299 L209 285 Z"/>
</clipPath>
<clipPath clipPathUnits="userSpaceOnUse" id="clipPath66">
<path d="M247 390 L291 390 L291 403 L247 403 L247 390 Z"/>
</clipPath>
<clipPath clipPathUnits="userSpaceOnUse" id="clipPath67">
<path d="M209 415 L228 415 L228 429 L209 429 L209 415 Z"/>
</clipPath>
<clipPath clipPathUnits="userSpaceOnUse" id="clipPath68">
<path d="M250 456 L294 456 L294 469 L250 469 L250 456 Z"/>
</clipPath>
<clipPath clipPathUnits="userSpaceOnUse" id="clipPath69">
<path d="M209 518 L225 518 L225 536 L209 536 L209 518 Z"/>
</clipPath>
</defs>
<g font-size="11" fill="url(#linearGradient1)" stroke-linejoin="round" stroke="url(#linearGradient1)" stroke-width="0" stroke-miterlimit="0">
<rect x="327" y="289" clip-path="url(#clipPath1)" width="200" height="100" stroke="none"/>
</g>
<g font-size="11" stroke-width="1.1" stroke-linecap="butt">
<line clip-path="url(#clipPath2)" fill="none" x1="327" x2="387" y1="289" y2="289"/>
<line clip-path="url(#clipPath2)" fill="none" x1="387" x2="387" y1="289" y2="318"/>
<line clip-path="url(#clipPath2)" fill="none" x1="387" x2="527" y1="318" y2="318"/>
<line clip-path="url(#clipPath2)" fill="none" x1="527" x2="527" y1="318" y2="389"/>
<line clip-path="url(#clipPath2)" fill="none" x1="527" x2="327" y1="389" y2="389"/>
<line clip-path="url(#clipPath2)" fill="none" x1="327" x2="327" y1="389" y2="289"/>
<text x="394" font-size="9" y="299" clip-path="url(#clipPath3)" font-family="'Helvetica'" stroke="none" font-weight="bold" xml:space="preserve">(PSSM_Syntax)</text>
<text x="332" font-size="9" y="311" clip-path="url(#clipPath4)" font-family="'Helvetica'" stroke="none" font-weight="bold" xml:space="preserve">Constraints</text>
<line clip-path="url(#clipPath5)" fill="none" x1="327" x2="527" y1="318" y2="318"/>
<rect x="646" y="10" clip-path="url(#clipPath6)" fill="url(#linearGradient2)" width="200" height="100" stroke="none"/>
<line clip-path="url(#clipPath7)" fill="none" x1="646" x2="733" y1="10" y2="10"/>
<line clip-path="url(#clipPath7)" fill="none" x1="733" x2="733" y1="10" y2="39"/>
<line clip-path="url(#clipPath7)" fill="none" x1="733" x2="846" y1="39" y2="39"/>
<line clip-path="url(#clipPath7)" fill="none" x1="846" x2="846" y1="39" y2="110"/>
<line clip-path="url(#clipPath7)" fill="none" x1="846" x2="646" y1="110" y2="110"/>
<line clip-path="url(#clipPath7)" fill="none" x1="646" x2="646" y1="110" y2="10"/>
<text x="686" font-size="9" y="20" clip-path="url(#clipPath8)" font-family="'Helvetica'" stroke="none" font-weight="bold" xml:space="preserve">(PSSM_Syntax::Constraints)</text>
<text x="651" font-size="9" y="32" clip-path="url(#clipPath9)" font-family="'Helvetica'" stroke="none" font-weight="bold" xml:space="preserve">CommonStructure</text>
<line clip-path="url(#clipPath10)" fill="none" x1="646" x2="846" y1="39" y2="39"/>
<rect x="646" y="149" clip-path="url(#clipPath11)" fill="url(#linearGradient3)" width="200" height="100" stroke="none"/>
<line clip-path="url(#clipPath12)" fill="none" x1="646" x2="706" y1="149" y2="149"/>
<line clip-path="url(#clipPath12)" fill="none" x1="706" x2="706" y1="149" y2="178"/>
<line clip-path="url(#clipPath12)" fill="none" x1="706" x2="846" y1="178" y2="178"/>
<line clip-path="url(#clipPath12)" fill="none" x1="846" x2="846" y1="178" y2="249"/>
<line clip-path="url(#clipPath12)" fill="none" x1="846" x2="646" y1="249" y2="249"/>
<line clip-path="url(#clipPath12)" fill="none" x1="646" x2="646" y1="249" y2="149"/>
<text x="686" font-size="9" y="159" clip-path="url(#clipPath13)" font-family="'Helvetica'" stroke="none" font-weight="bold" xml:space="preserve">(PSSM_Syntax::Constraints)</text>
<text x="651" font-size="9" y="171" clip-path="url(#clipPath14)" font-family="'Helvetica'" stroke="none" font-weight="bold" xml:space="preserve">Values</text>
<line clip-path="url(#clipPath15)" fill="none" x1="646" x2="846" y1="178" y2="178"/>
<rect x="646" y="289" clip-path="url(#clipPath16)" fill="url(#linearGradient4)" width="200" height="100" stroke="none"/>
<line clip-path="url(#clipPath17)" fill="none" x1="646" x2="714" y1="289" y2="289"/>
<line clip-path="url(#clipPath17)" fill="none" x1="714" x2="714" y1="289" y2="318"/>
<line clip-path="url(#clipPath17)" fill="none" x1="714" x2="846" y1="318" y2="318"/>
<line clip-path="url(#clipPath17)" fill="none" x1="846" x2="846" y1="318" y2="389"/>
<line clip-path="url(#clipPath17)" fill="none" x1="846" x2="646" y1="389" y2="389"/>
<line clip-path="url(#clipPath17)" fill="none" x1="646" x2="646" y1="389" y2="289"/>
<text x="686" font-size="9" y="299" clip-path="url(#clipPath18)" font-family="'Helvetica'" stroke="none" font-weight="bold" xml:space="preserve">(PSSM_Syntax::Constraints)</text>
<text x="651" font-size="9" y="311" clip-path="url(#clipPath19)" font-family="'Helvetica'" stroke="none" font-weight="bold" xml:space="preserve">Classification</text>
<line clip-path="url(#clipPath20)" fill="none" x1="646" x2="846" y1="318" y2="318"/>
<rect x="646" y="428" clip-path="url(#clipPath21)" fill="url(#linearGradient5)" width="200" height="100" stroke="none"/>
<line clip-path="url(#clipPath22)" fill="none" x1="646" x2="731" y1="428" y2="428"/>
<line clip-path="url(#clipPath22)" fill="none" x1="731" x2="731" y1="428" y2="457"/>
<line clip-path="url(#clipPath22)" fill="none" x1="731" x2="846" y1="457" y2="457"/>
<line clip-path="url(#clipPath22)" fill="none" x1="846" x2="846" y1="457" y2="528"/>
<line clip-path="url(#clipPath22)" fill="none" x1="846" x2="646" y1="528" y2="528"/>
<line clip-path="url(#clipPath22)" fill="none" x1="646" x2="646" y1="528" y2="428"/>
<text x="686" font-size="9" y="438" clip-path="url(#clipPath23)" font-family="'Helvetica'" stroke="none" font-weight="bold" xml:space="preserve">(PSSM_Syntax::Constraints)</text>
<text x="651" font-size="9" y="450" clip-path="url(#clipPath24)" font-family="'Helvetica'" stroke="none" font-weight="bold" xml:space="preserve">CommonBehavior</text>
<line clip-path="url(#clipPath25)" fill="none" x1="646" x2="846" y1="457" y2="457"/>
<rect x="646" y="568" clip-path="url(#clipPath26)" fill="url(#linearGradient6)" width="200" height="100" stroke="none"/>
<line clip-path="url(#clipPath27)" fill="none" x1="646" x2="718" y1="568" y2="568"/>
<line clip-path="url(#clipPath27)" fill="none" x1="718" x2="718" y1="568" y2="597"/>
<line clip-path="url(#clipPath27)" fill="none" x1="718" x2="846" y1="597" y2="597"/>
<line clip-path="url(#clipPath27)" fill="none" x1="846" x2="846" y1="597" y2="668"/>
<line clip-path="url(#clipPath27)" fill="none" x1="846" x2="646" y1="668" y2="668"/>
<line clip-path="url(#clipPath27)" fill="none" x1="646" x2="646" y1="668" y2="568"/>
<text x="686" font-size="9" y="578" clip-path="url(#clipPath28)" font-family="'Helvetica'" stroke="none" font-weight="bold" xml:space="preserve">(PSSM_Syntax::Constraints)</text>
<text x="651" font-size="9" y="590" clip-path="url(#clipPath29)" font-family="'Helvetica'" stroke="none" font-weight="bold" xml:space="preserve">StateMachines</text>
<line clip-path="url(#clipPath30)" fill="none" x1="646" x2="846" y1="597" y2="597"/>
<rect x="10" y="84" clip-path="url(#clipPath31)" fill="url(#linearGradient7)" width="200" height="100" stroke="none"/>
<line clip-path="url(#clipPath32)" fill="none" x1="10" x2="111" y1="84" y2="84"/>
<line clip-path="url(#clipPath32)" fill="none" x1="111" x2="111" y1="84" y2="113"/>
<line clip-path="url(#clipPath32)" fill="none" x1="111" x2="210" y1="113" y2="113"/>
<line clip-path="url(#clipPath32)" fill="none" x1="210" x2="210" y1="113" y2="184"/>
<line clip-path="url(#clipPath32)" fill="none" x1="210" x2="10" y1="184" y2="184"/>
<line clip-path="url(#clipPath32)" fill="none" x1="10" x2="10" y1="184" y2="84"/>
<text x="52" font-size="9" y="94" clip-path="url(#clipPath33)" font-family="'Helvetica'" stroke="none" font-weight="bold" xml:space="preserve">(fUML_Syntax::Constraints)</text>
<text x="15" font-size="9" y="106" clip-path="url(#clipPath34)" font-family="'Helvetica'" stroke="none" font-weight="bold" xml:space="preserve">StructuredClassifiers</text>
<line clip-path="url(#clipPath35)" fill="none" x1="10" x2="210" y1="113" y2="113"/>
<rect x="10" y="224" clip-path="url(#clipPath36)" fill="url(#linearGradient8)" width="200" height="100" stroke="none"/>
<line clip-path="url(#clipPath37)" fill="none" x1="10" x2="70" y1="224" y2="224"/>
<line clip-path="url(#clipPath37)" fill="none" x1="70" x2="70" y1="224" y2="253"/>
<line clip-path="url(#clipPath37)" fill="none" x1="70" x2="210" y1="253" y2="253"/>
<line clip-path="url(#clipPath37)" fill="none" x1="210" x2="210" y1="253" y2="324"/>
<line clip-path="url(#clipPath37)" fill="none" x1="210" x2="10" y1="324" y2="324"/>
<line clip-path="url(#clipPath37)" fill="none" x1="10" x2="10" y1="324" y2="224"/>
<text x="52" font-size="9" y="234" clip-path="url(#clipPath38)" font-family="'Helvetica'" stroke="none" font-weight="bold" xml:space="preserve">(fUML_Syntax::Constraints)</text>
<text x="15" font-size="9" y="246" clip-path="url(#clipPath39)" font-family="'Helvetica'" stroke="none" font-weight="bold" xml:space="preserve">Packages</text>
<line clip-path="url(#clipPath40)" fill="none" x1="10" x2="210" y1="253" y2="253"/>
<rect x="10" y="364" clip-path="url(#clipPath41)" fill="url(#linearGradient9)" width="200" height="100" stroke="none"/>
<line clip-path="url(#clipPath42)" fill="none" x1="10" x2="70" y1="364" y2="364"/>
<line clip-path="url(#clipPath42)" fill="none" x1="70" x2="70" y1="364" y2="393"/>
<line clip-path="url(#clipPath42)" fill="none" x1="70" x2="210" y1="393" y2="393"/>
<line clip-path="url(#clipPath42)" fill="none" x1="210" x2="210" y1="393" y2="464"/>
<line clip-path="url(#clipPath42)" fill="none" x1="210" x2="10" y1="464" y2="464"/>
<line clip-path="url(#clipPath42)" fill="none" x1="10" x2="10" y1="464" y2="364"/>
<text x="52" font-size="9" y="374" clip-path="url(#clipPath43)" font-family="'Helvetica'" stroke="none" font-weight="bold" xml:space="preserve">(fUML_Syntax::Constraints)</text>
<text x="15" font-size="9" y="386" clip-path="url(#clipPath44)" font-family="'Helvetica'" stroke="none" font-weight="bold" xml:space="preserve">Activities</text>
<line clip-path="url(#clipPath45)" fill="none" x1="10" x2="210" y1="393" y2="393"/>
<rect x="10" y="505" clip-path="url(#clipPath46)" fill="url(#linearGradient10)" width="200" height="100" stroke="none"/>
<line clip-path="url(#clipPath47)" fill="none" x1="10" x2="70" y1="505" y2="505"/>
<line clip-path="url(#clipPath47)" fill="none" x1="70" x2="70" y1="505" y2="534"/>
<line clip-path="url(#clipPath47)" fill="none" x1="70" x2="210" y1="534" y2="534"/>
<line clip-path="url(#clipPath47)" fill="none" x1="210" x2="210" y1="534" y2="605"/>
<line clip-path="url(#clipPath47)" fill="none" x1="210" x2="10" y1="605" y2="605"/>
<line clip-path="url(#clipPath47)" fill="none" x1="10" x2="10" y1="605" y2="505"/>
<text x="52" font-size="9" y="515" clip-path="url(#clipPath48)" font-family="'Helvetica'" stroke="none" font-weight="bold" xml:space="preserve">(fUML_Syntax::Constraints)</text>
<text x="15" font-size="9" y="527" clip-path="url(#clipPath49)" font-family="'Helvetica'" stroke="none" font-weight="bold" xml:space="preserve">Actions</text>
<line clip-path="url(#clipPath50)" fill="none" x1="10" x2="210" y1="534" y2="534"/>
<line clip-path="url(#clipPath51)" fill="none" text-rendering="optimizeLegibility" x1="527" x2="646" y1="318" y2="109" stroke-dasharray="5,5,5,5,5,5,5,5,5,5"/>
<text x="554" font-size="9" y="239" clip-path="url(#clipPath52)" text-rendering="optimizeLegibility" stroke-dasharray="5,5,5,5,5,5,5,5,5,5" stroke="none" xml:space="preserve">«import»</text>
<line clip-path="url(#clipPath53)" fill="none" text-rendering="optimizeLegibility" x1="643" x2="646" y1="125" y2="109"/>
<line clip-path="url(#clipPath53)" fill="none" text-rendering="optimizeLegibility" x1="646" x2="634" y1="109" y2="120"/>
<line clip-path="url(#clipPath51)" fill="none" text-rendering="optimizeLegibility" x1="527" x2="646" y1="336" y2="211" stroke-dasharray="5,5,5,5,5,5,5,5,5,5"/>
<text x="559" font-size="9" y="286" clip-path="url(#clipPath54)" text-rendering="optimizeLegibility" stroke-dasharray="5,5,5,5,5,5,5,5,5,5" stroke="none" xml:space="preserve">«import»</text>
<line clip-path="url(#clipPath55)" fill="none" text-rendering="optimizeLegibility" x1="639" x2="646" y1="225" y2="211"/>
<line clip-path="url(#clipPath55)" fill="none" text-rendering="optimizeLegibility" x1="646" x2="632" y1="211" y2="218"/>
<line clip-path="url(#clipPath51)" fill="none" text-rendering="optimizeLegibility" x1="527" x2="646" y1="352" y2="352" stroke-dasharray="5,5,5,5,5,5,5,5,5,5"/>
<text x="559" font-size="9" y="350" clip-path="url(#clipPath56)" text-rendering="optimizeLegibility" stroke-dasharray="5,5,5,5,5,5,5,5,5,5" stroke="none" xml:space="preserve">«import»</text>
<line clip-path="url(#clipPath57)" fill="none" text-rendering="optimizeLegibility" x1="631" x2="646" y1="357" y2="352"/>
<line clip-path="url(#clipPath57)" fill="none" text-rendering="optimizeLegibility" x1="646" x2="631" y1="352" y2="347"/>
<line clip-path="url(#clipPath51)" fill="none" text-rendering="optimizeLegibility" x1="527" x2="646" y1="370" y2="489" stroke-dasharray="5,5,5,5,5,5,5,5,5,5"/>
<text x="557" font-size="9" y="418" clip-path="url(#clipPath58)" text-rendering="optimizeLegibility" stroke-dasharray="5,5,5,5,5,5,5,5,5,5" stroke="none" xml:space="preserve">«import»</text>
<line clip-path="url(#clipPath59)" fill="none" text-rendering="optimizeLegibility" x1="632" x2="646" y1="482" y2="489"/>
<line clip-path="url(#clipPath59)" fill="none" text-rendering="optimizeLegibility" x1="646" x2="639" y1="489" y2="475"/>
<line clip-path="url(#clipPath51)" fill="none" text-rendering="optimizeLegibility" x1="525" x2="646" y1="389" y2="597" stroke-dasharray="5,5,5,5,5,5,5,5,5,5"/>
<text x="557" font-size="9" y="485" clip-path="url(#clipPath60)" text-rendering="optimizeLegibility" stroke-dasharray="5,5,5,5,5,5,5,5,5,5" stroke="none" xml:space="preserve">«import»</text>
<line clip-path="url(#clipPath61)" fill="none" text-rendering="optimizeLegibility" x1="634" x2="646" y1="587" y2="597"/>
<line clip-path="url(#clipPath61)" fill="none" text-rendering="optimizeLegibility" x1="646" x2="643" y1="597" y2="582"/>
<line clip-path="url(#clipPath51)" fill="none" text-rendering="optimizeLegibility" x1="327" x2="210" y1="319" y2="183" stroke-dasharray="5,5,5,5,5,5,5,5,5,5"/>
<text x="250" font-size="9" y="256" clip-path="url(#clipPath62)" text-rendering="optimizeLegibility" stroke-dasharray="5,5,5,5,5,5,5,5,5,5" stroke="none" xml:space="preserve">«import»</text>
<line clip-path="url(#clipPath63)" fill="none" text-rendering="optimizeLegibility" x1="224" x2="210" y1="191" y2="183"/>
<line clip-path="url(#clipPath63)" fill="none" text-rendering="optimizeLegibility" x1="210" x2="216" y1="183" y2="198"/>
<line clip-path="url(#clipPath51)" fill="none" text-rendering="optimizeLegibility" x1="327" x2="210" y1="341" y2="286" stroke-dasharray="5,5,5,5,5,5,5,5,5,5"/>
<text x="249" font-size="9" y="315" clip-path="url(#clipPath64)" text-rendering="optimizeLegibility" stroke-dasharray="5,5,5,5,5,5,5,5,5,5" stroke="none" xml:space="preserve">«import»</text>
<line clip-path="url(#clipPath65)" fill="none" text-rendering="optimizeLegibility" x1="226" x2="210" y1="288" y2="286"/>
<line clip-path="url(#clipPath65)" fill="none" text-rendering="optimizeLegibility" x1="210" x2="221" y1="286" y2="297"/>
<line clip-path="url(#clipPath51)" fill="none" text-rendering="optimizeLegibility" x1="327" x2="210" y1="367" y2="427" stroke-dasharray="5,5,5,5,5,5,5,5,5,5"/>
<text x="248" font-size="9" y="400" clip-path="url(#clipPath66)" text-rendering="optimizeLegibility" stroke-dasharray="5,5,5,5,5,5,5,5,5,5" stroke="none" xml:space="preserve">«import»</text>
<line clip-path="url(#clipPath67)" fill="none" text-rendering="optimizeLegibility" x1="221" x2="210" y1="416" y2="427"/>
<line clip-path="url(#clipPath67)" fill="none" text-rendering="optimizeLegibility" x1="210" x2="226" y1="427" y2="425"/>
<line clip-path="url(#clipPath51)" fill="none" text-rendering="optimizeLegibility" x1="327" x2="210" y1="389" y2="534" stroke-dasharray="5,5,5,5,5,5,5,5,5,5"/>
<text x="251" font-size="9" y="466" clip-path="url(#clipPath68)" text-rendering="optimizeLegibility" stroke-dasharray="5,5,5,5,5,5,5,5,5,5" stroke="none" xml:space="preserve">«import»</text>
<line clip-path="url(#clipPath69)" fill="none" text-rendering="optimizeLegibility" x1="216" x2="210" y1="519" y2="534"/>
<line clip-path="url(#clipPath69)" fill="none" text-rendering="optimizeLegibility" x1="210" x2="223" y1="534" y2="525"/>
</g>
</g>
</svg>
