<?xml version="1.0" encoding="UTF-8"?><svg xmlns="http://www.w3.org/2000/svg" xmlns:xlink="http://www.w3.org/1999/xlink" stroke-dasharray="none" shape-rendering="auto" font-family="'Dialog'" width="838" text-rendering="auto" fill-opacity="1" contentScriptType="text/ecmascript" color-interpolation="auto" color-rendering="auto" preserveAspectRatio="xMidYMid meet" font-size="12" viewBox="0 0 838 771" fill="black" stroke="black" image-rendering="auto" stroke-miterlimit="10" zoomAndPan="magnify" version="1.0" stroke-linecap="square" stroke-linejoin="miter" contentStyleType="text/css" font-style="normal" height="771" stroke-width="1" stroke-dashoffset="0" font-weight="normal" stroke-opacity="1">
<!--Generated by the Batik Graphics2D SVG Generator-->
<defs id="genericDefs"/>
<g>
<defs id="defs1">
<linearGradient x1="10" x2="10" y1="532" gradientUnits="userSpaceOnUse" y2="632" xlink:type="simple" xlink:actuate="onLoad" id="linearGradient1" xlink:show="other" spreadMethod="pad">
<stop stop-opacity="1" stop-color="white" offset="0%"/>
<stop stop-opacity="1" stop-color="white" offset="100%"/>
</linearGradient>
<linearGradient x1="627" x2="627" y1="267" gradientUnits="userSpaceOnUse" y2="367" xlink:type="simple" xlink:actuate="onLoad" id="linearGradient2" xlink:show="other" spreadMethod="pad">
<stop stop-opacity="1" stop-color="white" offset="0%"/>
<stop stop-opacity="1" stop-color="white" offset="100%"/>
</linearGradient>
<linearGradient x1="11" x2="11" y1="401" gradientUnits="userSpaceOnUse" y2="501" xlink:type="simple" xlink:actuate="onLoad" id="linearGradient3" xlink:show="other" spreadMethod="pad">
<stop stop-opacity="1" stop-color="white" offset="0%"/>
<stop stop-opacity="1" stop-color="white" offset="100%"/>
</linearGradient>
<linearGradient x1="628" x2="628" y1="400" gradientUnits="userSpaceOnUse" y2="500" xlink:type="simple" xlink:actuate="onLoad" id="linearGradient4" xlink:show="other" spreadMethod="pad">
<stop stop-opacity="1" stop-color="white" offset="0%"/>
<stop stop-opacity="1" stop-color="white" offset="100%"/>
</linearGradient>
<linearGradient x1="11" x2="11" y1="10" gradientUnits="userSpaceOnUse" y2="110" xlink:type="simple" xlink:actuate="onLoad" id="linearGradient5" xlink:show="other" spreadMethod="pad">
<stop stop-opacity="1" stop-color="white" offset="0%"/>
<stop stop-opacity="1" stop-color="white" offset="100%"/>
</linearGradient>
<linearGradient x1="625" x2="625" y1="141" gradientUnits="userSpaceOnUse" y2="241" xlink:type="simple" xlink:actuate="onLoad" id="linearGradient6" xlink:show="other" spreadMethod="pad">
<stop stop-opacity="1" stop-color="white" offset="0%"/>
<stop stop-opacity="1" stop-color="white" offset="100%"/>
</linearGradient>
<linearGradient x1="11" x2="11" y1="661" gradientUnits="userSpaceOnUse" y2="761" xlink:type="simple" xlink:actuate="onLoad" id="linearGradient7" xlink:show="other" spreadMethod="pad">
<stop stop-opacity="1" stop-color="white" offset="0%"/>
<stop stop-opacity="1" stop-color="white" offset="100%"/>
</linearGradient>
<linearGradient x1="627" x2="627" y1="532" gradientUnits="userSpaceOnUse" y2="632" xlink:type="simple" xlink:actuate="onLoad" id="linearGradient8" xlink:show="other" spreadMethod="pad">
<stop stop-opacity="1" stop-color="white" offset="0%"/>
<stop stop-opacity="1" stop-color="white" offset="100%"/>
</linearGradient>
<linearGradient x1="328" x2="328" y1="323" gradientUnits="userSpaceOnUse" y2="423" xlink:type="simple" xlink:actuate="onLoad" id="linearGradient9" xlink:show="other" spreadMethod="pad">
<stop stop-opacity="1" stop-color="white" offset="0%"/>
<stop stop-opacity="1" stop-color="white" offset="100%"/>
</linearGradient>
<linearGradient x1="11" x2="11" y1="142" gradientUnits="userSpaceOnUse" y2="242" xlink:type="simple" xlink:actuate="onLoad" id="linearGradient10" xlink:show="other" spreadMethod="pad">
<stop stop-opacity="1" stop-color="white" offset="0%"/>
<stop stop-opacity="1" stop-color="white" offset="100%"/>
</linearGradient>
<linearGradient x1="11" x2="11" y1="274" gradientUnits="userSpaceOnUse" y2="374" xlink:type="simple" xlink:actuate="onLoad" id="linearGradient11" xlink:show="other" spreadMethod="pad">
<stop stop-opacity="1" stop-color="white" offset="0%"/>
<stop stop-opacity="1" stop-color="white" offset="100%"/>
</linearGradient>
<clipPath clipPathUnits="userSpaceOnUse" id="clipPath1">
<path d="M10 532 L10 632 L210 632 L210 561 L70 561 L70 532 Z"/>
</clipPath>
<clipPath clipPathUnits="userSpaceOnUse" id="clipPath2">
<path d="M8 530 L212 530 L212 634 L8 634 L8 530 Z"/>
</clipPath>
<clipPath clipPathUnits="userSpaceOnUse" id="clipPath3">
<path d="M9 534 L211 534 L211 547 L9 547 L9 534 Z"/>
</clipPath>
<clipPath clipPathUnits="userSpaceOnUse" id="clipPath4">
<path d="M14 546 L57 546 L57 559 L14 559 L14 546 Z"/>
</clipPath>
<clipPath clipPathUnits="userSpaceOnUse" id="clipPath5">
<path d="M9 560 L211 560 L211 633 L9 633 L9 560 Z"/>
</clipPath>
<clipPath clipPathUnits="userSpaceOnUse" id="clipPath6">
<path d="M627 267 L627 367 L827 367 L827 296 L687 296 L687 267 Z"/>
</clipPath>
<clipPath clipPathUnits="userSpaceOnUse" id="clipPath7">
<path d="M625 265 L829 265 L829 369 L625 369 L625 265 Z"/>
</clipPath>
<clipPath clipPathUnits="userSpaceOnUse" id="clipPath8">
<path d="M626 269 L828 269 L828 282 L626 282 L626 269 Z"/>
</clipPath>
<clipPath clipPathUnits="userSpaceOnUse" id="clipPath9">
<path d="M631 281 L662 281 L662 294 L631 294 L631 281 Z"/>
</clipPath>
<clipPath clipPathUnits="userSpaceOnUse" id="clipPath10">
<path d="M626 295 L828 295 L828 368 L626 368 L626 295 Z"/>
</clipPath>
<clipPath clipPathUnits="userSpaceOnUse" id="clipPath11">
<path d="M11 401 L11 501 L211 501 L211 430 L71 430 L71 401 Z"/>
</clipPath>
<clipPath clipPathUnits="userSpaceOnUse" id="clipPath12">
<path d="M9 399 L213 399 L213 503 L9 503 L9 399 Z"/>
</clipPath>
<clipPath clipPathUnits="userSpaceOnUse" id="clipPath13">
<path d="M10 403 L212 403 L212 416 L10 416 L10 403 Z"/>
</clipPath>
<clipPath clipPathUnits="userSpaceOnUse" id="clipPath14">
<path d="M15 415 L58 415 L58 428 L15 428 L15 415 Z"/>
</clipPath>
<clipPath clipPathUnits="userSpaceOnUse" id="clipPath15">
<path d="M10 429 L212 429 L212 502 L10 502 L10 429 Z"/>
</clipPath>
<clipPath clipPathUnits="userSpaceOnUse" id="clipPath16">
<path d="M628 400 L628 500 L828 500 L828 429 L713 429 L713 400 Z"/>
</clipPath>
<clipPath clipPathUnits="userSpaceOnUse" id="clipPath17">
<path d="M626 398 L830 398 L830 502 L626 502 L626 398 Z"/>
</clipPath>
<clipPath clipPathUnits="userSpaceOnUse" id="clipPath18">
<path d="M627 402 L829 402 L829 415 L627 415 L627 402 Z"/>
</clipPath>
<clipPath clipPathUnits="userSpaceOnUse" id="clipPath19">
<path d="M632 414 L709 414 L709 427 L632 427 L632 414 Z"/>
</clipPath>
<clipPath clipPathUnits="userSpaceOnUse" id="clipPath20">
<path d="M627 428 L829 428 L829 501 L627 501 L627 428 Z"/>
</clipPath>
<clipPath clipPathUnits="userSpaceOnUse" id="clipPath21">
<path d="M11 10 L11 110 L211 110 L211 39 L79 39 L79 10 Z"/>
</clipPath>
<clipPath clipPathUnits="userSpaceOnUse" id="clipPath22">
<path d="M9 8 L213 8 L213 112 L9 112 L9 8 Z"/>
</clipPath>
<clipPath clipPathUnits="userSpaceOnUse" id="clipPath23">
<path d="M10 12 L212 12 L212 25 L10 25 L10 12 Z"/>
</clipPath>
<clipPath clipPathUnits="userSpaceOnUse" id="clipPath24">
<path d="M15 24 L75 24 L75 37 L15 37 L15 24 Z"/>
</clipPath>
<clipPath clipPathUnits="userSpaceOnUse" id="clipPath25">
<path d="M10 38 L212 38 L212 111 L10 111 L10 38 Z"/>
</clipPath>
<clipPath clipPathUnits="userSpaceOnUse" id="clipPath26">
<path d="M625 141 L625 241 L825 241 L825 170 L712 170 L712 141 Z"/>
</clipPath>
<clipPath clipPathUnits="userSpaceOnUse" id="clipPath27">
<path d="M623 139 L827 139 L827 243 L623 243 L623 139 Z"/>
</clipPath>
<clipPath clipPathUnits="userSpaceOnUse" id="clipPath28">
<path d="M624 143 L826 143 L826 156 L624 156 L624 143 Z"/>
</clipPath>
<clipPath clipPathUnits="userSpaceOnUse" id="clipPath29">
<path d="M629 155 L708 155 L708 168 L629 168 L629 155 Z"/>
</clipPath>
<clipPath clipPathUnits="userSpaceOnUse" id="clipPath30">
<path d="M624 169 L826 169 L826 242 L624 242 L624 169 Z"/>
</clipPath>
<clipPath clipPathUnits="userSpaceOnUse" id="clipPath31">
<path d="M11 661 L11 761 L211 761 L211 690 L71 690 L71 661 Z"/>
</clipPath>
<clipPath clipPathUnits="userSpaceOnUse" id="clipPath32">
<path d="M9 659 L213 659 L213 763 L9 763 L9 659 Z"/>
</clipPath>
<clipPath clipPathUnits="userSpaceOnUse" id="clipPath33">
<path d="M10 663 L212 663 L212 676 L10 676 L10 663 Z"/>
</clipPath>
<clipPath clipPathUnits="userSpaceOnUse" id="clipPath34">
<path d="M15 675 L49 675 L49 688 L15 688 L15 675 Z"/>
</clipPath>
<clipPath clipPathUnits="userSpaceOnUse" id="clipPath35">
<path d="M10 689 L212 689 L212 762 L10 762 L10 689 Z"/>
</clipPath>
<clipPath clipPathUnits="userSpaceOnUse" id="clipPath36">
<path d="M627 532 L627 632 L827 632 L827 561 L699 561 L699 532 Z"/>
</clipPath>
<clipPath clipPathUnits="userSpaceOnUse" id="clipPath37">
<path d="M625 530 L829 530 L829 634 L625 634 L625 530 Z"/>
</clipPath>
<clipPath clipPathUnits="userSpaceOnUse" id="clipPath38">
<path d="M626 534 L828 534 L828 547 L626 547 L626 534 Z"/>
</clipPath>
<clipPath clipPathUnits="userSpaceOnUse" id="clipPath39">
<path d="M631 546 L695 546 L695 559 L631 559 L631 546 Z"/>
</clipPath>
<clipPath clipPathUnits="userSpaceOnUse" id="clipPath40">
<path d="M626 560 L828 560 L828 633 L626 633 L626 560 Z"/>
</clipPath>
<clipPath clipPathUnits="userSpaceOnUse" id="clipPath41">
<path d="M328 323 L328 423 L528 423 L528 352 L388 352 L388 323 Z"/>
</clipPath>
<clipPath clipPathUnits="userSpaceOnUse" id="clipPath42">
<path d="M326 321 L530 321 L530 425 L326 425 L326 321 Z"/>
</clipPath>
<clipPath clipPathUnits="userSpaceOnUse" id="clipPath43">
<path d="M327 325 L529 325 L529 338 L327 338 L327 325 Z"/>
</clipPath>
<clipPath clipPathUnits="userSpaceOnUse" id="clipPath44">
<path d="M332 337 L363 337 L363 350 L332 350 L332 337 Z"/>
</clipPath>
<clipPath clipPathUnits="userSpaceOnUse" id="clipPath45">
<path d="M327 351 L529 351 L529 424 L327 424 L327 351 Z"/>
</clipPath>
<clipPath clipPathUnits="userSpaceOnUse" id="clipPath46">
<path d="M11 142 L11 242 L211 242 L211 171 L97 171 L97 142 Z"/>
</clipPath>
<clipPath clipPathUnits="userSpaceOnUse" id="clipPath47">
<path d="M9 140 L213 140 L213 244 L9 244 L9 140 Z"/>
</clipPath>
<clipPath clipPathUnits="userSpaceOnUse" id="clipPath48">
<path d="M10 144 L212 144 L212 157 L10 157 L10 144 Z"/>
</clipPath>
<clipPath clipPathUnits="userSpaceOnUse" id="clipPath49">
<path d="M15 156 L93 156 L93 169 L15 169 L15 156 Z"/>
</clipPath>
<clipPath clipPathUnits="userSpaceOnUse" id="clipPath50">
<path d="M10 170 L212 170 L212 243 L10 243 L10 170 Z"/>
</clipPath>
<clipPath clipPathUnits="userSpaceOnUse" id="clipPath51">
<path d="M11 274 L11 374 L211 374 L211 303 L112 303 L112 274 Z"/>
</clipPath>
<clipPath clipPathUnits="userSpaceOnUse" id="clipPath52">
<path d="M9 272 L213 272 L213 376 L9 376 L9 272 Z"/>
</clipPath>
<clipPath clipPathUnits="userSpaceOnUse" id="clipPath53">
<path d="M10 276 L212 276 L212 289 L10 289 L10 276 Z"/>
</clipPath>
<clipPath clipPathUnits="userSpaceOnUse" id="clipPath54">
<path d="M15 288 L108 288 L108 301 L15 301 L15 288 Z"/>
</clipPath>
<clipPath clipPathUnits="userSpaceOnUse" id="clipPath55">
<path d="M10 302 L212 302 L212 375 L10 375 L10 302 Z"/>
</clipPath>
<clipPath clipPathUnits="userSpaceOnUse" id="clipPath56">
<path d="M-1 -1 L839 -1 L839 772 L-1 772 L-1 -1 Z"/>
</clipPath>
<clipPath clipPathUnits="userSpaceOnUse" id="clipPath57">
<path d="M252 201 L296 201 L296 214 L252 214 L252 201 Z"/>
</clipPath>
<clipPath clipPathUnits="userSpaceOnUse" id="clipPath58">
<path d="M210 109 L224 109 L224 128 L210 128 L210 109 Z"/>
</clipPath>
<clipPath clipPathUnits="userSpaceOnUse" id="clipPath59">
<path d="M256 477 L300 477 L300 490 L256 490 L256 477 Z"/>
</clipPath>
<clipPath clipPathUnits="userSpaceOnUse" id="clipPath60">
<path d="M209 579 L224 579 L224 597 L209 597 L209 579 Z"/>
</clipPath>
<clipPath clipPathUnits="userSpaceOnUse" id="clipPath61">
<path d="M254 418 L298 418 L298 431 L254 431 L254 418 Z"/>
</clipPath>
<clipPath clipPathUnits="userSpaceOnUse" id="clipPath62">
<path d="M210 448 L229 448 L229 463 L210 463 L210 448 Z"/>
</clipPath>
<clipPath clipPathUnits="userSpaceOnUse" id="clipPath63">
<path d="M553 343 L597 343 L597 356 L553 356 L553 343 Z"/>
</clipPath>
<clipPath clipPathUnits="userSpaceOnUse" id="clipPath64">
<path d="M610 328 L629 328 L629 341 L610 341 L610 328 Z"/>
</clipPath>
<clipPath clipPathUnits="userSpaceOnUse" id="clipPath65">
<path d="M553 422 L597 422 L597 435 L553 435 L553 422 Z"/>
</clipPath>
<clipPath clipPathUnits="userSpaceOnUse" id="clipPath66">
<path d="M611 444 L630 444 L630 459 L611 459 L611 444 Z"/>
</clipPath>
<clipPath clipPathUnits="userSpaceOnUse" id="clipPath67">
<path d="M553 295 L597 295 L597 308 L553 308 L553 295 Z"/>
</clipPath>
<clipPath clipPathUnits="userSpaceOnUse" id="clipPath68">
<path d="M610 240 L627 240 L627 258 L610 258 L610 240 Z"/>
</clipPath>
<clipPath clipPathUnits="userSpaceOnUse" id="clipPath69">
<path d="M254 537 L298 537 L298 550 L254 550 L254 537 Z"/>
</clipPath>
<clipPath clipPathUnits="userSpaceOnUse" id="clipPath70">
<path d="M210 675 L224 675 L224 694 L210 694 L210 675 Z"/>
</clipPath>
<clipPath clipPathUnits="userSpaceOnUse" id="clipPath71">
<path d="M552 479 L596 479 L596 492 L552 492 L552 479 Z"/>
</clipPath>
<clipPath clipPathUnits="userSpaceOnUse" id="clipPath72">
<path d="M613 544 L629 544 L629 562 L613 562 L613 544 Z"/>
</clipPath>
<clipPath clipPathUnits="userSpaceOnUse" id="clipPath73">
<path d="M254 354 L298 354 L298 367 L254 367 L254 354 Z"/>
</clipPath>
<clipPath clipPathUnits="userSpaceOnUse" id="clipPath74">
<path d="M210 335 L229 335 L229 348 L210 348 L210 335 Z"/>
</clipPath>
<clipPath clipPathUnits="userSpaceOnUse" id="clipPath75">
<path d="M252 282 L296 282 L296 295 L252 295 L252 282 Z"/>
</clipPath>
<clipPath clipPathUnits="userSpaceOnUse" id="clipPath76">
<path d="M210 216 L226 216 L226 234 L210 234 L210 216 Z"/>
</clipPath>
</defs>
<g font-size="11" fill="url(#linearGradient1)" stroke-linejoin="round" stroke="url(#linearGradient1)" stroke-width="0" stroke-miterlimit="0">
<rect x="10" y="532" clip-path="url(#clipPath1)" width="200" height="100" stroke="none"/>
</g>
<g font-size="11" stroke-width="1.1" stroke-linecap="butt">
<line clip-path="url(#clipPath2)" fill="none" x1="10" x2="70" y1="532" y2="532"/>
<line clip-path="url(#clipPath2)" fill="none" x1="70" x2="70" y1="532" y2="561"/>
<line clip-path="url(#clipPath2)" fill="none" x1="70" x2="210" y1="561" y2="561"/>
<line clip-path="url(#clipPath2)" fill="none" x1="210" x2="210" y1="561" y2="632"/>
<line clip-path="url(#clipPath2)" fill="none" x1="210" x2="10" y1="632" y2="632"/>
<line clip-path="url(#clipPath2)" fill="none" x1="10" x2="10" y1="632" y2="532"/>
<text x="62" font-size="9" y="542" clip-path="url(#clipPath3)" font-family="'Helvetica'" stroke="none" font-weight="bold" xml:space="preserve">(fUML_Syntax::Syntax)</text>
<text x="15" font-size="9" y="554" clip-path="url(#clipPath4)" font-family="'Helvetica'" stroke="none" font-weight="bold" xml:space="preserve">Activities</text>
<line clip-path="url(#clipPath5)" fill="none" x1="10" x2="210" y1="561" y2="561"/>
<rect x="627" y="267" clip-path="url(#clipPath6)" fill="url(#linearGradient2)" width="200" height="100" stroke="none"/>
<line clip-path="url(#clipPath7)" fill="none" x1="627" x2="687" y1="267" y2="267"/>
<line clip-path="url(#clipPath7)" fill="none" x1="687" x2="687" y1="267" y2="296"/>
<line clip-path="url(#clipPath7)" fill="none" x1="687" x2="827" y1="296" y2="296"/>
<line clip-path="url(#clipPath7)" fill="none" x1="827" x2="827" y1="296" y2="367"/>
<line clip-path="url(#clipPath7)" fill="none" x1="827" x2="627" y1="367" y2="367"/>
<line clip-path="url(#clipPath7)" fill="none" x1="627" x2="627" y1="367" y2="267"/>
<text x="677" font-size="9" y="277" clip-path="url(#clipPath8)" font-family="'Helvetica'" stroke="none" font-weight="bold" xml:space="preserve">(PSSM_Syntax::Syntax)</text>
<text x="632" font-size="9" y="289" clip-path="url(#clipPath9)" font-family="'Helvetica'" stroke="none" font-weight="bold" xml:space="preserve">Values</text>
<line clip-path="url(#clipPath10)" fill="none" x1="627" x2="827" y1="296" y2="296"/>
<rect x="11" y="401" clip-path="url(#clipPath11)" fill="url(#linearGradient3)" width="200" height="100" stroke="none"/>
<line clip-path="url(#clipPath12)" fill="none" x1="11" x2="71" y1="401" y2="401"/>
<line clip-path="url(#clipPath12)" fill="none" x1="71" x2="71" y1="401" y2="430"/>
<line clip-path="url(#clipPath12)" fill="none" x1="71" x2="211" y1="430" y2="430"/>
<line clip-path="url(#clipPath12)" fill="none" x1="211" x2="211" y1="430" y2="501"/>
<line clip-path="url(#clipPath12)" fill="none" x1="211" x2="11" y1="501" y2="501"/>
<line clip-path="url(#clipPath12)" fill="none" x1="11" x2="11" y1="501" y2="401"/>
<text x="63" font-size="9" y="411" clip-path="url(#clipPath13)" font-family="'Helvetica'" stroke="none" font-weight="bold" xml:space="preserve">(fUML_Syntax::Syntax)</text>
<text x="16" font-size="9" y="423" clip-path="url(#clipPath14)" font-family="'Helvetica'" stroke="none" font-weight="bold" xml:space="preserve">Packages</text>
<line clip-path="url(#clipPath15)" fill="none" x1="11" x2="211" y1="430" y2="430"/>
<rect x="628" y="400" clip-path="url(#clipPath16)" fill="url(#linearGradient4)" width="200" height="100" stroke="none"/>
<line clip-path="url(#clipPath17)" fill="none" x1="628" x2="713" y1="400" y2="400"/>
<line clip-path="url(#clipPath17)" fill="none" x1="713" x2="713" y1="400" y2="429"/>
<line clip-path="url(#clipPath17)" fill="none" x1="713" x2="828" y1="429" y2="429"/>
<line clip-path="url(#clipPath17)" fill="none" x1="828" x2="828" y1="429" y2="500"/>
<line clip-path="url(#clipPath17)" fill="none" x1="828" x2="628" y1="500" y2="500"/>
<line clip-path="url(#clipPath17)" fill="none" x1="628" x2="628" y1="500" y2="400"/>
<text x="678" font-size="9" y="410" clip-path="url(#clipPath18)" font-family="'Helvetica'" stroke="none" font-weight="bold" xml:space="preserve">(PSSM_Syntax::Syntax)</text>
<text x="633" font-size="9" y="422" clip-path="url(#clipPath19)" font-family="'Helvetica'" stroke="none" font-weight="bold" xml:space="preserve">CommonBehavior</text>
<line clip-path="url(#clipPath20)" fill="none" x1="628" x2="828" y1="429" y2="429"/>
<rect x="11" y="10" clip-path="url(#clipPath21)" fill="url(#linearGradient5)" width="200" height="100" stroke="none"/>
<line clip-path="url(#clipPath22)" fill="none" x1="11" x2="79" y1="10" y2="10"/>
<line clip-path="url(#clipPath22)" fill="none" x1="79" x2="79" y1="10" y2="39"/>
<line clip-path="url(#clipPath22)" fill="none" x1="79" x2="211" y1="39" y2="39"/>
<line clip-path="url(#clipPath22)" fill="none" x1="211" x2="211" y1="39" y2="110"/>
<line clip-path="url(#clipPath22)" fill="none" x1="211" x2="11" y1="110" y2="110"/>
<line clip-path="url(#clipPath22)" fill="none" x1="11" x2="11" y1="110" y2="10"/>
<text x="63" font-size="9" y="20" clip-path="url(#clipPath23)" font-family="'Helvetica'" stroke="none" font-weight="bold" xml:space="preserve">(fUML_Syntax::Syntax)</text>
<text x="16" font-size="9" y="32" clip-path="url(#clipPath24)" font-family="'Helvetica'" stroke="none" font-weight="bold" xml:space="preserve">Classification</text>
<line clip-path="url(#clipPath25)" fill="none" x1="11" x2="211" y1="39" y2="39"/>
<rect x="625" y="141" clip-path="url(#clipPath26)" fill="url(#linearGradient6)" width="200" height="100" stroke="none"/>
<line clip-path="url(#clipPath27)" fill="none" x1="625" x2="712" y1="141" y2="141"/>
<line clip-path="url(#clipPath27)" fill="none" x1="712" x2="712" y1="141" y2="170"/>
<line clip-path="url(#clipPath27)" fill="none" x1="712" x2="825" y1="170" y2="170"/>
<line clip-path="url(#clipPath27)" fill="none" x1="825" x2="825" y1="170" y2="241"/>
<line clip-path="url(#clipPath27)" fill="none" x1="825" x2="625" y1="241" y2="241"/>
<line clip-path="url(#clipPath27)" fill="none" x1="625" x2="625" y1="241" y2="141"/>
<text x="675" font-size="9" y="151" clip-path="url(#clipPath28)" font-family="'Helvetica'" stroke="none" font-weight="bold" xml:space="preserve">(PSSM_Syntax::Syntax)</text>
<text x="630" font-size="9" y="163" clip-path="url(#clipPath29)" font-family="'Helvetica'" stroke="none" font-weight="bold" xml:space="preserve">CommonStructure</text>
<line clip-path="url(#clipPath30)" fill="none" x1="625" x2="825" y1="170" y2="170"/>
<rect x="11" y="661" clip-path="url(#clipPath31)" fill="url(#linearGradient7)" width="200" height="100" stroke="none"/>
<line clip-path="url(#clipPath32)" fill="none" x1="11" x2="71" y1="661" y2="661"/>
<line clip-path="url(#clipPath32)" fill="none" x1="71" x2="71" y1="661" y2="690"/>
<line clip-path="url(#clipPath32)" fill="none" x1="71" x2="211" y1="690" y2="690"/>
<line clip-path="url(#clipPath32)" fill="none" x1="211" x2="211" y1="690" y2="761"/>
<line clip-path="url(#clipPath32)" fill="none" x1="211" x2="11" y1="761" y2="761"/>
<line clip-path="url(#clipPath32)" fill="none" x1="11" x2="11" y1="761" y2="661"/>
<text x="63" font-size="9" y="671" clip-path="url(#clipPath33)" font-family="'Helvetica'" stroke="none" font-weight="bold" xml:space="preserve">(fUML_Syntax::Syntax)</text>
<text x="16" font-size="9" y="683" clip-path="url(#clipPath34)" font-family="'Helvetica'" stroke="none" font-weight="bold" xml:space="preserve">Actions</text>
<line clip-path="url(#clipPath35)" fill="none" x1="11" x2="211" y1="690" y2="690"/>
<rect x="627" y="532" clip-path="url(#clipPath36)" fill="url(#linearGradient8)" width="200" height="100" stroke="none"/>
<line clip-path="url(#clipPath37)" fill="none" x1="627" x2="699" y1="532" y2="532"/>
<line clip-path="url(#clipPath37)" fill="none" x1="699" x2="699" y1="532" y2="561"/>
<line clip-path="url(#clipPath37)" fill="none" x1="699" x2="827" y1="561" y2="561"/>
<line clip-path="url(#clipPath37)" fill="none" x1="827" x2="827" y1="561" y2="632"/>
<line clip-path="url(#clipPath37)" fill="none" x1="827" x2="627" y1="632" y2="632"/>
<line clip-path="url(#clipPath37)" fill="none" x1="627" x2="627" y1="632" y2="532"/>
<text x="677" font-size="9" y="542" clip-path="url(#clipPath38)" font-family="'Helvetica'" stroke="none" font-weight="bold" xml:space="preserve">(PSSM_Syntax::Syntax)</text>
<text x="632" font-size="9" y="554" clip-path="url(#clipPath39)" font-family="'Helvetica'" stroke="none" font-weight="bold" xml:space="preserve">StateMachines</text>
<line clip-path="url(#clipPath40)" fill="none" x1="627" x2="827" y1="561" y2="561"/>
<rect x="328" y="323" clip-path="url(#clipPath41)" fill="url(#linearGradient9)" width="200" height="100" stroke="none"/>
<line clip-path="url(#clipPath42)" fill="none" x1="328" x2="388" y1="323" y2="323"/>
<line clip-path="url(#clipPath42)" fill="none" x1="388" x2="388" y1="323" y2="352"/>
<line clip-path="url(#clipPath42)" fill="none" x1="388" x2="528" y1="352" y2="352"/>
<line clip-path="url(#clipPath42)" fill="none" x1="528" x2="528" y1="352" y2="423"/>
<line clip-path="url(#clipPath42)" fill="none" x1="528" x2="328" y1="423" y2="423"/>
<line clip-path="url(#clipPath42)" fill="none" x1="328" x2="328" y1="423" y2="323"/>
<text x="395" font-size="9" y="333" clip-path="url(#clipPath43)" font-family="'Helvetica'" stroke="none" font-weight="bold" xml:space="preserve">(PSSM_Syntax)</text>
<text x="333" font-size="9" y="345" clip-path="url(#clipPath44)" font-family="'Helvetica'" stroke="none" font-weight="bold" xml:space="preserve">Syntax</text>
<line clip-path="url(#clipPath45)" fill="none" x1="328" x2="528" y1="352" y2="352"/>
<rect x="11" y="142" clip-path="url(#clipPath46)" fill="url(#linearGradient10)" width="200" height="100" stroke="none"/>
<line clip-path="url(#clipPath47)" fill="none" x1="11" x2="97" y1="142" y2="142"/>
<line clip-path="url(#clipPath47)" fill="none" x1="97" x2="97" y1="142" y2="171"/>
<line clip-path="url(#clipPath47)" fill="none" x1="97" x2="211" y1="171" y2="171"/>
<line clip-path="url(#clipPath47)" fill="none" x1="211" x2="211" y1="171" y2="242"/>
<line clip-path="url(#clipPath47)" fill="none" x1="211" x2="11" y1="242" y2="242"/>
<line clip-path="url(#clipPath47)" fill="none" x1="11" x2="11" y1="242" y2="142"/>
<text x="63" font-size="9" y="152" clip-path="url(#clipPath48)" font-family="'Helvetica'" stroke="none" font-weight="bold" xml:space="preserve">(fUML_Syntax::Syntax)</text>
<text x="16" font-size="9" y="164" clip-path="url(#clipPath49)" font-family="'Helvetica'" stroke="none" font-weight="bold" xml:space="preserve">SimpleClassifiers</text>
<line clip-path="url(#clipPath50)" fill="none" x1="11" x2="211" y1="171" y2="171"/>
<rect x="11" y="274" clip-path="url(#clipPath51)" fill="url(#linearGradient11)" width="200" height="100" stroke="none"/>
<line clip-path="url(#clipPath52)" fill="none" x1="11" x2="112" y1="274" y2="274"/>
<line clip-path="url(#clipPath52)" fill="none" x1="112" x2="112" y1="274" y2="303"/>
<line clip-path="url(#clipPath52)" fill="none" x1="112" x2="211" y1="303" y2="303"/>
<line clip-path="url(#clipPath52)" fill="none" x1="211" x2="211" y1="303" y2="374"/>
<line clip-path="url(#clipPath52)" fill="none" x1="211" x2="11" y1="374" y2="374"/>
<line clip-path="url(#clipPath52)" fill="none" x1="11" x2="11" y1="374" y2="274"/>
<text x="63" font-size="9" y="284" clip-path="url(#clipPath53)" font-family="'Helvetica'" stroke="none" font-weight="bold" xml:space="preserve">(fUML_Syntax::Syntax)</text>
<text x="16" font-size="9" y="296" clip-path="url(#clipPath54)" font-family="'Helvetica'" stroke="none" font-weight="bold" xml:space="preserve">StructuredClassifiers</text>
<line clip-path="url(#clipPath55)" fill="none" x1="11" x2="211" y1="303" y2="303"/>
<line clip-path="url(#clipPath56)" fill="none" text-rendering="optimizeLegibility" x1="328" x2="211" y1="352" y2="110" stroke-dasharray="5,5,5,5,5,5,5,5,5,5"/>
<text x="253" font-size="9" y="211" clip-path="url(#clipPath57)" text-rendering="optimizeLegibility" stroke-dasharray="5,5,5,5,5,5,5,5,5,5" stroke="none" xml:space="preserve">«import»</text>
<line clip-path="url(#clipPath58)" fill="none" text-rendering="optimizeLegibility" x1="222" x2="211" y1="121" y2="110"/>
<line clip-path="url(#clipPath58)" fill="none" text-rendering="optimizeLegibility" x1="211" x2="213" y1="110" y2="126"/>
<line clip-path="url(#clipPath56)" fill="none" text-rendering="optimizeLegibility" x1="328" x2="210" y1="408" y2="595" stroke-dasharray="5,5,5,5,5,5,5,5,5,5"/>
<text x="257" font-size="9" y="487" clip-path="url(#clipPath59)" text-rendering="optimizeLegibility" stroke-dasharray="5,5,5,5,5,5,5,5,5,5" stroke="none" xml:space="preserve">«import»</text>
<line clip-path="url(#clipPath60)" fill="none" text-rendering="optimizeLegibility" x1="214" x2="210" y1="580" y2="595"/>
<line clip-path="url(#clipPath60)" fill="none" text-rendering="optimizeLegibility" x1="210" x2="222" y1="595" y2="585"/>
<line clip-path="url(#clipPath56)" fill="none" text-rendering="optimizeLegibility" x1="328" x2="211" y1="395" y2="461" stroke-dasharray="5,5,5,5,5,5,5,5,5,5"/>
<text x="255" font-size="9" y="428" clip-path="url(#clipPath61)" text-rendering="optimizeLegibility" stroke-dasharray="5,5,5,5,5,5,5,5,5,5" stroke="none" xml:space="preserve">«import»</text>
<line clip-path="url(#clipPath62)" fill="none" text-rendering="optimizeLegibility" x1="222" x2="211" y1="449" y2="461"/>
<line clip-path="url(#clipPath62)" fill="none" text-rendering="optimizeLegibility" x1="211" x2="227" y1="461" y2="458"/>
<line clip-path="url(#clipPath56)" fill="none" text-rendering="optimizeLegibility" x1="528" x2="627" y1="369" y2="329" stroke-dasharray="5,5,5,5,5,5,5,5,5,5"/>
<text x="554" font-size="9" y="353" clip-path="url(#clipPath63)" text-rendering="optimizeLegibility" stroke-dasharray="5,5,5,5,5,5,5,5,5,5" stroke="none" xml:space="preserve">«import»</text>
<line clip-path="url(#clipPath64)" fill="none" text-rendering="optimizeLegibility" x1="615" x2="627" y1="339" y2="329"/>
<line clip-path="url(#clipPath64)" fill="none" text-rendering="optimizeLegibility" x1="627" x2="611" y1="329" y2="330"/>
<line clip-path="url(#clipPath56)" fill="none" text-rendering="optimizeLegibility" x1="528" x2="628" y1="401" y2="457" stroke-dasharray="5,5,5,5,5,5,5,5,5,5"/>
<text x="554" font-size="9" y="432" clip-path="url(#clipPath65)" text-rendering="optimizeLegibility" stroke-dasharray="5,5,5,5,5,5,5,5,5,5" stroke="none" xml:space="preserve">«import»</text>
<line clip-path="url(#clipPath66)" fill="none" text-rendering="optimizeLegibility" x1="612" x2="628" y1="454" y2="457"/>
<line clip-path="url(#clipPath66)" fill="none" text-rendering="optimizeLegibility" x1="628" x2="617" y1="457" y2="445"/>
<line clip-path="url(#clipPath56)" fill="none" text-rendering="optimizeLegibility" x1="528" x2="625" y1="352" y2="241" stroke-dasharray="5,5,5,5,5,5,5,5,5,5"/>
<text x="554" font-size="9" y="305" clip-path="url(#clipPath67)" text-rendering="optimizeLegibility" stroke-dasharray="5,5,5,5,5,5,5,5,5,5" stroke="none" xml:space="preserve">«import»</text>
<line clip-path="url(#clipPath68)" fill="none" text-rendering="optimizeLegibility" x1="619" x2="625" y1="256" y2="241"/>
<line clip-path="url(#clipPath68)" fill="none" text-rendering="optimizeLegibility" x1="625" x2="611" y1="241" y2="249"/>
<line clip-path="url(#clipPath56)" fill="none" text-rendering="optimizeLegibility" x1="329" x2="211" y1="423" y2="692" stroke-dasharray="5,5,5,5,5,5,5,5,5,5"/>
<text x="255" font-size="9" y="547" clip-path="url(#clipPath69)" text-rendering="optimizeLegibility" stroke-dasharray="5,5,5,5,5,5,5,5,5,5" stroke="none" xml:space="preserve">«import»</text>
<line clip-path="url(#clipPath70)" fill="none" text-rendering="optimizeLegibility" x1="212" x2="211" y1="676" y2="692"/>
<line clip-path="url(#clipPath70)" fill="none" text-rendering="optimizeLegibility" x1="211" x2="222" y1="692" y2="680"/>
<line clip-path="url(#clipPath56)" fill="none" text-rendering="optimizeLegibility" x1="528" x2="627" y1="423" y2="560" stroke-dasharray="5,5,5,5,5,5,5,5,5,5"/>
<text x="553" font-size="9" y="489" clip-path="url(#clipPath71)" text-rendering="optimizeLegibility" stroke-dasharray="5,5,5,5,5,5,5,5,5,5" stroke="none" xml:space="preserve">«import»</text>
<line clip-path="url(#clipPath72)" fill="none" text-rendering="optimizeLegibility" x1="614" x2="627" y1="551" y2="560"/>
<line clip-path="url(#clipPath72)" fill="none" text-rendering="optimizeLegibility" x1="627" x2="622" y1="560" y2="545"/>
<line clip-path="url(#clipPath56)" fill="none" text-rendering="optimizeLegibility" x1="328" x2="211" y1="379" y2="336" stroke-dasharray="5,5,5,5,5,5,5,5,5,5"/>
<text x="255" font-size="9" y="364" clip-path="url(#clipPath73)" text-rendering="optimizeLegibility" stroke-dasharray="5,5,5,5,5,5,5,5,5,5" stroke="none" xml:space="preserve">«import»</text>
<line clip-path="url(#clipPath74)" fill="none" text-rendering="optimizeLegibility" x1="227" x2="211" y1="336" y2="336"/>
<line clip-path="url(#clipPath74)" fill="none" text-rendering="optimizeLegibility" x1="211" x2="223" y1="336" y2="346"/>
<line clip-path="url(#clipPath56)" fill="none" text-rendering="optimizeLegibility" x1="328" x2="211" y1="365" y2="217" stroke-dasharray="5,5,5,5,5,5,5,5,5,5"/>
<text x="253" font-size="9" y="292" clip-path="url(#clipPath75)" text-rendering="optimizeLegibility" stroke-dasharray="5,5,5,5,5,5,5,5,5,5" stroke="none" xml:space="preserve">«import»</text>
<line clip-path="url(#clipPath76)" fill="none" text-rendering="optimizeLegibility" x1="224" x2="211" y1="226" y2="217"/>
<line clip-path="url(#clipPath76)" fill="none" text-rendering="optimizeLegibility" x1="211" x2="216" y1="217" y2="232"/>
</g>
</g>
</svg>
