<?xml version="1.0" encoding="UTF-8"?><svg xmlns="http://www.w3.org/2000/svg" xmlns:xlink="http://www.w3.org/1999/xlink" stroke-dasharray="none" shape-rendering="auto" font-family="'Dialog'" width="856" text-rendering="auto" fill-opacity="1" contentScriptType="text/ecmascript" color-interpolation="auto" color-rendering="auto" preserveAspectRatio="xMidYMid meet" font-size="12" viewBox="0 0 856 627" fill="black" stroke="black" image-rendering="auto" stroke-miterlimit="10" zoomAndPan="magnify" version="1.0" stroke-linecap="square" stroke-linejoin="miter" contentStyleType="text/css" font-style="normal" height="627" stroke-width="1" stroke-dashoffset="0" font-weight="normal" stroke-opacity="1">
<!--Generated by the Batik Graphics2D SVG Generator-->
<defs id="genericDefs"/>
<g>
<defs id="defs1">
<clipPath clipPathUnits="userSpaceOnUse" id="clipPath1">
<path d="M212 139 L314 139 L314 241 L212 241 L212 139 Z"/>
</clipPath>
<clipPath clipPathUnits="userSpaceOnUse" id="clipPath2">
<path d="M248 142 L278 142 L278 157 L248 157 L248 142 Z"/>
</clipPath>
<clipPath clipPathUnits="userSpaceOnUse" id="clipPath3">
<path d="M212 156 L314 156 L314 241 L212 241 L212 156 Z"/>
</clipPath>
<clipPath clipPathUnits="userSpaceOnUse" id="clipPath4">
<path d="M557 385 L659 385 L659 487 L557 487 L557 385 Z"/>
</clipPath>
<clipPath clipPathUnits="userSpaceOnUse" id="clipPath5">
<path d="M586 388 L629 388 L629 403 L586 403 L586 388 Z"/>
</clipPath>
<clipPath clipPathUnits="userSpaceOnUse" id="clipPath6">
<path d="M557 402 L659 402 L659 487 L557 487 L557 402 Z"/>
</clipPath>
<clipPath clipPathUnits="userSpaceOnUse" id="clipPath7">
<path d="M383 9 L485 9 L485 61 L383 61 L383 9 Z"/>
</clipPath>
<clipPath clipPathUnits="userSpaceOnUse" id="clipPath8">
<path d="M392 27 L478 27 L478 42 L392 42 L392 27 Z"/>
</clipPath>
<clipPath clipPathUnits="userSpaceOnUse" id="clipPath9">
<path d="M70 286 L172 286 L172 340 L70 340 L70 286 Z"/>
</clipPath>
<clipPath clipPathUnits="userSpaceOnUse" id="clipPath10">
<path d="M102 305 L142 305 L142 320 L102 320 L102 305 Z"/>
</clipPath>
<clipPath clipPathUnits="userSpaceOnUse" id="clipPath11">
<path d="M383 504 L485 504 L485 606 L383 606 L383 504 Z"/>
</clipPath>
<clipPath clipPathUnits="userSpaceOnUse" id="clipPath12">
<path d="M405 507 L463 507 L463 522 L405 522 L405 507 Z"/>
</clipPath>
<clipPath clipPathUnits="userSpaceOnUse" id="clipPath13">
<path d="M383 521 L485 521 L485 606 L383 606 L383 521 Z"/>
</clipPath>
<clipPath clipPathUnits="userSpaceOnUse" id="clipPath14">
<path d="M91 535 L305 535 L305 587 L91 587 L91 535 Z"/>
</clipPath>
<clipPath clipPathUnits="userSpaceOnUse" id="clipPath15">
<path d="M103 541 L284 541 L284 556 L103 556 L103 541 Z"/>
</clipPath>
<clipPath clipPathUnits="userSpaceOnUse" id="clipPath16">
<path d="M97 554 L280 554 L280 581 L97 581 L97 554 Z"/>
</clipPath>
<clipPath clipPathUnits="userSpaceOnUse" id="clipPath17">
<path d="M383 264 L485 264 L485 366 L383 366 L383 264 Z"/>
</clipPath>
<clipPath clipPathUnits="userSpaceOnUse" id="clipPath18">
<path d="M418 267 L450 267 L450 282 L418 282 L418 267 Z"/>
</clipPath>
<clipPath clipPathUnits="userSpaceOnUse" id="clipPath19">
<path d="M383 281 L485 281 L485 366 L383 366 L383 281 Z"/>
</clipPath>
<clipPath clipPathUnits="userSpaceOnUse" id="clipPath20">
<path d="M-1 -1 L857 -1 L857 628 L-1 628 L-1 -1 Z"/>
</clipPath>
<clipPath clipPathUnits="userSpaceOnUse" id="clipPath21">
<path d="M334 226 L409 226 L409 241 L334 241 L334 226 Z"/>
</clipPath>
<clipPath clipPathUnits="userSpaceOnUse" id="clipPath22">
<path d="M324 149 L360 149 L360 164 L324 164 L324 149 Z"/>
</clipPath>
<clipPath clipPathUnits="userSpaceOnUse" id="clipPath23">
<path d="M337 209 L357 209 L357 224 L337 224 L337 209 Z"/>
</clipPath>
<clipPath clipPathUnits="userSpaceOnUse" id="clipPath24">
<path d="M323 165 L332 165 L332 180 L323 180 L323 165 Z"/>
</clipPath>
<clipPath clipPathUnits="userSpaceOnUse" id="clipPath25">
<path d="M312 217 L333 217 L333 232 L312 232 L312 217 Z"/>
</clipPath>
<clipPath clipPathUnits="userSpaceOnUse" id="clipPath26">
<path d="M505 351 L580 351 L580 366 L505 366 L505 351 Z"/>
</clipPath>
<clipPath clipPathUnits="userSpaceOnUse" id="clipPath27">
<path d="M493 274 L529 274 L529 289 L493 289 L493 274 Z"/>
</clipPath>
<clipPath clipPathUnits="userSpaceOnUse" id="clipPath28">
<path d="M509 335 L529 335 L529 350 L509 350 L509 335 Z"/>
</clipPath>
<clipPath clipPathUnits="userSpaceOnUse" id="clipPath29">
<path d="M494 291 L503 291 L503 306 L494 306 L494 291 Z"/>
</clipPath>
<clipPath clipPathUnits="userSpaceOnUse" id="clipPath30">
<path d="M483 342 L504 342 L504 357 L483 357 L483 342 Z"/>
</clipPath>
<clipPath clipPathUnits="userSpaceOnUse" id="clipPath31">
<path d="M424 59 L443 59 L443 72 L424 72 L424 59 Z"/>
</clipPath>
<clipPath clipPathUnits="userSpaceOnUse" id="clipPath32">
<path d="M425 59 L444 59 L444 72 L425 72 L425 59 Z"/>
</clipPath>
<clipPath clipPathUnits="userSpaceOnUse" id="clipPath33">
<path d="M682 472 L771 472 L771 487 L682 487 L682 472 Z"/>
</clipPath>
<clipPath clipPathUnits="userSpaceOnUse" id="clipPath34">
<path d="M666 395 L715 395 L715 410 L666 410 L666 395 Z"/>
</clipPath>
<clipPath clipPathUnits="userSpaceOnUse" id="clipPath35">
<path d="M682 455 L702 455 L702 470 L682 470 L682 455 Z"/>
</clipPath>
<clipPath clipPathUnits="userSpaceOnUse" id="clipPath36">
<path d="M665 412 L674 412 L674 427 L665 427 L665 412 Z"/>
</clipPath>
<clipPath clipPathUnits="userSpaceOnUse" id="clipPath37">
<path d="M657 464 L678 464 L678 479 L657 479 L657 464 Z"/>
</clipPath>
<clipPath clipPathUnits="userSpaceOnUse" id="clipPath38">
<path d="M22 247 L113 247 L113 262 L22 262 L22 247 Z"/>
</clipPath>
<clipPath clipPathUnits="userSpaceOnUse" id="clipPath39">
<path d="M162 170 L198 170 L198 185 L162 185 L162 170 Z"/>
</clipPath>
<clipPath clipPathUnits="userSpaceOnUse" id="clipPath40">
<path d="M121 246 L130 246 L130 261 L121 261 L121 246 Z"/>
</clipPath>
<clipPath clipPathUnits="userSpaceOnUse" id="clipPath41">
<path d="M190 187 L199 187 L199 202 L190 202 L190 187 Z"/>
</clipPath>
<clipPath clipPathUnits="userSpaceOnUse" id="clipPath42">
<path d="M109 268 L124 268 L124 289 L109 289 L109 268 Z"/>
</clipPath>
<clipPath clipPathUnits="userSpaceOnUse" id="clipPath43">
<path d="M195 299 L286 299 L286 314 L195 314 L195 299 Z"/>
</clipPath>
<clipPath clipPathUnits="userSpaceOnUse" id="clipPath44">
<path d="M343 299 L379 299 L379 314 L343 314 L343 299 Z"/>
</clipPath>
<clipPath clipPathUnits="userSpaceOnUse" id="clipPath45">
<path d="M195 315 L204 315 L204 330 L195 330 L195 315 Z"/>
</clipPath>
<clipPath clipPathUnits="userSpaceOnUse" id="clipPath46">
<path d="M367 315 L376 315 L376 330 L367 330 L367 315 Z"/>
</clipPath>
<clipPath clipPathUnits="userSpaceOnUse" id="clipPath47">
<path d="M170 307 L191 307 L191 322 L170 322 L170 307 Z"/>
</clipPath>
<clipPath clipPathUnits="userSpaceOnUse" id="clipPath48">
<path d="M22 360 L113 360 L113 375 L22 375 L22 360 Z"/>
</clipPath>
<clipPath clipPathUnits="userSpaceOnUse" id="clipPath49">
<path d="M508 422 L557 422 L557 437 L508 437 L508 422 Z"/>
</clipPath>
<clipPath clipPathUnits="userSpaceOnUse" id="clipPath50">
<path d="M120 361 L129 361 L129 376 L120 376 L120 361 Z"/>
</clipPath>
<clipPath clipPathUnits="userSpaceOnUse" id="clipPath51">
<path d="M550 439 L559 439 L559 454 L550 454 L550 439 Z"/>
</clipPath>
<clipPath clipPathUnits="userSpaceOnUse" id="clipPath52">
<path d="M109 338 L124 338 L124 359 L109 359 L109 338 Z"/>
</clipPath>
<clipPath clipPathUnits="userSpaceOnUse" id="clipPath53">
<path d="M505 590 L609 590 L609 605 L505 605 L505 590 Z"/>
</clipPath>
<clipPath clipPathUnits="userSpaceOnUse" id="clipPath54">
<path d="M498 516 L564 516 L564 531 L498 531 L498 516 Z"/>
</clipPath>
<clipPath clipPathUnits="userSpaceOnUse" id="clipPath55">
<path d="M507 574 L516 574 L516 589 L507 589 L507 574 Z"/>
</clipPath>
<clipPath clipPathUnits="userSpaceOnUse" id="clipPath56">
<path d="M497 533 L506 533 L506 548 L497 548 L497 533 Z"/>
</clipPath>
<clipPath clipPathUnits="userSpaceOnUse" id="clipPath57">
<path d="M483 582 L504 582 L504 597 L483 597 L483 582 Z"/>
</clipPath>
</defs>
<g font-size="11" fill="white" stroke-linejoin="round" stroke="white" stroke-width="0" stroke-miterlimit="0">
<rect x="213" y="140" clip-path="url(#clipPath1)" width="100" rx="0" ry="0" height="100" stroke="none"/>
</g>
<g font-size="10" font-family="'Calibri'" stroke-linejoin="round" font-weight="bold" stroke-width="0" stroke-miterlimit="0">
<text xml:space="preserve" x="249" y="153" clip-path="url(#clipPath2)" stroke="none">Region</text>
</g>
<g font-size="11" stroke-width="1.1" stroke-linecap="butt">
<line clip-path="url(#clipPath3)" fill="none" x1="213" x2="313" y1="157" y2="157"/>
<rect x="213" y="140" clip-path="url(#clipPath1)" fill="none" width="99" rx="0" ry="0" height="99"/>
<rect x="558" y="386" clip-path="url(#clipPath4)" fill="white" width="100" rx="0" ry="0" height="100" stroke="none"/>
<text x="587" font-size="10" y="399" clip-path="url(#clipPath5)" font-family="'Calibri'" stroke="none" font-weight="bold" xml:space="preserve">Transition</text>
<line clip-path="url(#clipPath6)" fill="none" x1="558" x2="658" y1="403" y2="403"/>
<rect x="558" y="386" clip-path="url(#clipPath4)" fill="none" width="99" rx="0" ry="0" height="99"/>
<rect x="384" y="10" clip-path="url(#clipPath7)" fill="silver" width="100" rx="0" ry="0" height="50" stroke="none"/>
</g>
<g stroke-linecap="butt" font-size="10" font-family="'Calibri'" font-style="italic" font-weight="bold" stroke-width="1.1">
<text xml:space="preserve" x="393" y="38" clip-path="url(#clipPath8)" stroke="none">RedefinableElement</text>
</g>
<g font-size="11" stroke-width="1.1" stroke-linecap="butt">
<rect x="384" y="10" clip-path="url(#clipPath7)" fill="none" width="99" rx="0" ry="0" height="49"/>
<rect x="71" y="287" clip-path="url(#clipPath9)" fill="silver" width="100" rx="0" ry="0" height="52" stroke="none"/>
</g>
<g stroke-linecap="butt" font-size="10" font-family="'Calibri'" font-style="italic" font-weight="bold" stroke-width="1.1">
<text xml:space="preserve" x="103" y="316" clip-path="url(#clipPath10)" stroke="none">Classifier</text>
</g>
<g font-size="11" stroke-width="1.1" stroke-linecap="butt">
<rect x="71" y="287" clip-path="url(#clipPath9)" fill="none" width="99" rx="0" ry="0" height="51"/>
<rect x="384" y="505" clip-path="url(#clipPath11)" fill="white" width="100" rx="0" ry="0" height="100" stroke="none"/>
<text x="406" font-size="10" y="518" clip-path="url(#clipPath12)" font-family="'Calibri'" stroke="none" font-weight="bold" xml:space="preserve">StateMachine</text>
<line clip-path="url(#clipPath13)" fill="none" x1="384" x2="484" y1="522" y2="522"/>
<rect x="384" y="505" clip-path="url(#clipPath11)" fill="none" width="99" rx="0" ry="0" height="99"/>
</g>
<g stroke-linecap="butt" font-size="10" fill="rgb(245,245,220)" font-family="'Calibri'" stroke="rgb(245,245,220)" stroke-width="1.1">
<path d="M92 536 L92 536 L291 536 L303 548 L303 585 L92 585 L92 536 ZM92 536" clip-path="url(#clipPath14)" fill-rule="evenodd" stroke="none"/>
<text x="104" y="552" clip-path="url(#clipPath15)" fill="black" stroke="none" xml:space="preserve">pssm_state_machine_extends_at_most_one</text>
<text x="98" y="565" clip-path="url(#clipPath16)" fill="black" stroke="none" xml:space="preserve">{{Natural language} A StateMachine must not</text>
<text x="98" y="578" clip-path="url(#clipPath16)" fill="black" stroke="none" xml:space="preserve">have more than one extendedStateMachine.}</text>
<line clip-path="url(#clipPath14)" fill="none" x1="92" x2="291" y1="536" y2="536" stroke="black"/>
<line clip-path="url(#clipPath14)" fill="none" x1="291" x2="303" y1="536" y2="548" stroke="black"/>
<line clip-path="url(#clipPath14)" fill="none" x1="303" x2="303" y1="548" y2="585" stroke="black"/>
<line clip-path="url(#clipPath14)" fill="none" x1="303" x2="92" y1="585" y2="585" stroke="black"/>
<line clip-path="url(#clipPath14)" fill="none" x1="92" x2="92" y1="585" y2="536" stroke="black"/>
<line clip-path="url(#clipPath14)" fill="none" x1="92" x2="92" y1="536" y2="536" stroke="black"/>
<line clip-path="url(#clipPath14)" fill="none" x1="291" x2="291" y1="536" y2="548" stroke="black"/>
<line clip-path="url(#clipPath14)" fill="none" x1="291" x2="304" y1="548" y2="548" stroke="black"/>
</g>
<g fill="white" font-size="11" stroke-width="1.1" stroke-linecap="butt" stroke="white">
<rect x="384" y="265" clip-path="url(#clipPath17)" width="100" rx="0" ry="0" height="100" stroke="none"/>
</g>
<g stroke-linecap="butt" font-size="10" font-family="'Calibri'" font-style="italic" font-weight="bold" stroke-width="1.1">
<text xml:space="preserve" x="419" y="278" clip-path="url(#clipPath18)" stroke="none">Vertex</text>
</g>
<g font-size="11" stroke-width="1.1" stroke-linecap="butt">
<line clip-path="url(#clipPath19)" fill="none" x1="384" x2="484" y1="282" y2="282"/>
<rect x="384" y="265" clip-path="url(#clipPath17)" fill="none" width="99" rx="0" ry="0" height="99"/>
<line clip-path="url(#clipPath20)" fill="none" text-rendering="optimizeLegibility" x1="313" x2="398" y1="224" y2="224"/>
<line clip-path="url(#clipPath20)" fill="none" text-rendering="optimizeLegibility" x1="398" x2="398" y1="224" y2="164"/>
<line clip-path="url(#clipPath20)" fill="none" text-rendering="optimizeLegibility" x1="398" x2="313" y1="164" y2="164"/>
<text x="335" font-size="10" y="237" clip-path="url(#clipPath21)" text-rendering="optimizeLegibility" font-family="'Calibri'" stroke="none" xml:space="preserve"> + extendedRegion</text>
<text x="325" font-size="10" y="160" clip-path="url(#clipPath22)" text-rendering="optimizeLegibility" font-family="'Calibri'" stroke="none" xml:space="preserve"> + region</text>
<text x="338" font-size="10" y="220" clip-path="url(#clipPath23)" text-rendering="optimizeLegibility" font-family="'Calibri'" stroke="none" xml:space="preserve"> 0..1</text>
<text x="324" font-size="10" y="176" clip-path="url(#clipPath24)" text-rendering="optimizeLegibility" font-family="'Calibri'" stroke="none" xml:space="preserve"> *</text>
<polygon text-rendering="optimizeLegibility" clip-path="url(#clipPath25)" points=" 313 223 315 221 317 221 319 223 319 224 331 218 319 224 331 230 319 224 319 225 317 227 315 227 313 225" stroke="none"/>
<polygon fill="none" text-rendering="optimizeLegibility" clip-path="url(#clipPath25)" points=" 313 223 315 221 317 221 319 223 319 224 331 218 319 224 331 230 319 224 319 225 317 227 315 227 313 225"/>
<line clip-path="url(#clipPath20)" fill="none" text-rendering="optimizeLegibility" x1="484" x2="571" y1="349" y2="349"/>
<line clip-path="url(#clipPath20)" fill="none" text-rendering="optimizeLegibility" x1="571" x2="571" y1="349" y2="290"/>
<line clip-path="url(#clipPath20)" fill="none" text-rendering="optimizeLegibility" x1="571" x2="484" y1="290" y2="290"/>
<text x="506" font-size="10" y="362" clip-path="url(#clipPath26)" text-rendering="optimizeLegibility" font-family="'Calibri'" stroke="none" xml:space="preserve"> + redefinedVertex</text>
<text x="494" font-size="10" y="285" clip-path="url(#clipPath27)" text-rendering="optimizeLegibility" font-family="'Calibri'" stroke="none" xml:space="preserve"> + vertex</text>
<text x="510" font-size="10" y="346" clip-path="url(#clipPath28)" text-rendering="optimizeLegibility" font-family="'Calibri'" stroke="none" xml:space="preserve"> 0..1</text>
<text x="495" font-size="10" y="302" clip-path="url(#clipPath29)" text-rendering="optimizeLegibility" font-family="'Calibri'" stroke="none" xml:space="preserve"> *</text>
<polygon text-rendering="optimizeLegibility" clip-path="url(#clipPath30)" points=" 484 348 486 346 488 346 490 348 490 349 502 343 490 349 502 355 490 349 490 350 488 352 486 352 484 350" stroke="none"/>
<polygon fill="none" text-rendering="optimizeLegibility" clip-path="url(#clipPath30)" points=" 484 348 486 346 488 346 490 348 490 349 502 343 490 349 502 355 490 349 490 350 488 352 486 352 484 350"/>
<line clip-path="url(#clipPath20)" fill="none" text-rendering="optimizeLegibility" x1="263" x2="263" y1="140" y2="102"/>
<line clip-path="url(#clipPath20)" fill="none" text-rendering="optimizeLegibility" x1="263" x2="433" y1="102" y2="102"/>
<line clip-path="url(#clipPath20)" fill="none" text-rendering="optimizeLegibility" x1="433" x2="433" y1="102" y2="60"/>
</g>
<g stroke-linecap="butt" font-size="10" fill="white" text-rendering="optimizeLegibility" font-family="'Calibri'" stroke="white" stroke-width="1.1">
<polygon clip-path="url(#clipPath31)" points=" 433 60 441 70 425 70" stroke="none"/>
<polygon fill="none" clip-path="url(#clipPath31)" points=" 433 60 441 70 425 70" stroke="black"/>
<line clip-path="url(#clipPath20)" fill="none" x1="434" x2="434" y1="265" y2="92" stroke="black"/>
<line clip-path="url(#clipPath20)" fill="none" x1="434" x2="434" y1="92" y2="92" stroke="black"/>
<line clip-path="url(#clipPath20)" fill="none" x1="434" x2="434" y1="92" y2="60" stroke="black"/>
<polygon clip-path="url(#clipPath32)" points=" 434 60 442 70 426 70" stroke="none"/>
<polygon fill="none" clip-path="url(#clipPath32)" points=" 434 60 442 70 426 70" stroke="black"/>
<line clip-path="url(#clipPath20)" fill="none" x1="658" x2="747" y1="471" y2="471" stroke="black"/>
<line clip-path="url(#clipPath20)" fill="none" x1="747" x2="747" y1="471" y2="411" stroke="black"/>
<line clip-path="url(#clipPath20)" fill="none" x1="747" x2="658" y1="411" y2="411" stroke="black"/>
<text x="683" y="483" clip-path="url(#clipPath33)" fill="black" stroke="none" xml:space="preserve"> + redefinedTransition</text>
<text x="667" y="406" clip-path="url(#clipPath34)" fill="black" stroke="none" xml:space="preserve"> + transition</text>
<text x="683" y="466" clip-path="url(#clipPath35)" fill="black" stroke="none" xml:space="preserve"> 0..1</text>
<text x="666" y="423" clip-path="url(#clipPath36)" fill="black" stroke="none" xml:space="preserve"> *</text>
<polygon fill="black" clip-path="url(#clipPath37)" points=" 658 470 660 468 662 468 664 470 664 471 676 465 664 471 676 477 664 471 664 472 662 474 660 474 658 472" stroke="none"/>
<polygon fill="none" clip-path="url(#clipPath37)" points=" 658 470 660 468 662 468 664 470 664 471 676 465 664 471 676 477 664 471 664 472 662 474 660 474 658 472" stroke="black"/>
<line clip-path="url(#clipPath20)" fill="none" x1="608" x2="608" y1="386" y2="102" stroke="black"/>
<line clip-path="url(#clipPath20)" fill="none" x1="608" x2="433" y1="102" y2="102" stroke="black"/>
<line clip-path="url(#clipPath20)" fill="none" x1="433" x2="433" y1="102" y2="60" stroke="black"/>
<polygon clip-path="url(#clipPath31)" points=" 433 60 441 70 425 70" stroke="none"/>
<polygon fill="none" clip-path="url(#clipPath31)" points=" 433 60 441 70 425 70" stroke="black"/>
<line clip-path="url(#clipPath20)" fill="none" x1="116" x2="116" y1="287" y2="185" stroke="black"/>
<line clip-path="url(#clipPath20)" fill="none" x1="116" x2="213" y1="185" y2="185" stroke="black"/>
<text x="23" y="258" clip-path="url(#clipPath38)" fill="black" stroke="none" xml:space="preserve"> +/ redefinitionContext</text>
<text x="163" y="181" clip-path="url(#clipPath39)" fill="black" stroke="none" xml:space="preserve"> + region</text>
<text x="122" y="257" clip-path="url(#clipPath40)" fill="black" stroke="none" xml:space="preserve"> 1</text>
<text x="191" y="198" clip-path="url(#clipPath41)" fill="black" stroke="none" xml:space="preserve"> *</text>
<polygon fill="black" clip-path="url(#clipPath42)" points=" 115 287 113 285 113 283 115 281 116 281 110 269 116 281 122 269 116 281 117 281 119 283 119 285 117 287" stroke="none"/>
<polygon fill="none" clip-path="url(#clipPath42)" points=" 115 287 113 285 113 283 115 281 116 281 110 269 116 281 122 269 116 281 117 281 119 283 119 285 117 287" stroke="black"/>
<line clip-path="url(#clipPath20)" fill="none" x1="171" x2="384" y1="314" y2="314" stroke="black"/>
<text x="196" y="310" clip-path="url(#clipPath43)" fill="black" stroke="none" xml:space="preserve"> +/ redefinitionContext</text>
<text x="344" y="310" clip-path="url(#clipPath44)" fill="black" stroke="none" xml:space="preserve"> + vertex</text>
<text x="196" y="326" clip-path="url(#clipPath45)" fill="black" stroke="none" xml:space="preserve"> 1</text>
<text x="368" y="326" clip-path="url(#clipPath46)" fill="black" stroke="none" xml:space="preserve"> *</text>
<polygon fill="black" clip-path="url(#clipPath47)" points=" 171 313 173 311 175 311 177 313 177 314 189 308 177 314 189 320 177 314 177 315 175 317 173 317 171 315" stroke="none"/>
<polygon fill="none" clip-path="url(#clipPath47)" points=" 171 313 173 311 175 311 177 313 177 314 189 308 177 314 189 320 177 314 177 315 175 317 173 317 171 315" stroke="black"/>
<line clip-path="url(#clipPath20)" fill="none" x1="116" x2="116" y1="339" y2="437" stroke="black"/>
<line clip-path="url(#clipPath20)" fill="none" x1="116" x2="558" y1="437" y2="437" stroke="black"/>
<text x="23" y="371" clip-path="url(#clipPath48)" fill="black" stroke="none" xml:space="preserve"> +/ redefinitionContext</text>
<text x="509" y="433" clip-path="url(#clipPath49)" fill="black" stroke="none" xml:space="preserve"> + transition</text>
<text x="121" y="372" clip-path="url(#clipPath50)" fill="black" stroke="none" xml:space="preserve"> 1</text>
<text x="551" y="450" clip-path="url(#clipPath51)" fill="black" stroke="none" xml:space="preserve"> *</text>
<polygon fill="black" clip-path="url(#clipPath52)" points=" 117 339 119 341 119 343 117 345 116 345 122 357 116 345 110 357 116 345 115 345 113 343 113 341 115 339" stroke="none"/>
<polygon fill="none" clip-path="url(#clipPath52)" points=" 117 339 119 341 119 343 117 345 116 345 122 357 116 345 110 357 116 345 115 345 113 343 113 341 115 339" stroke="black"/>
<line clip-path="url(#clipPath20)" fill="none" x1="484" x2="574" y1="589" y2="589" stroke="black"/>
<line clip-path="url(#clipPath20)" fill="none" x1="574" x2="574" y1="589" y2="531" stroke="black"/>
<line clip-path="url(#clipPath20)" fill="none" x1="574" x2="484" y1="531" y2="531" stroke="black"/>
<text x="506" y="601" clip-path="url(#clipPath53)" fill="black" stroke="none" xml:space="preserve"> + extendedStateMachine</text>
<text x="499" y="527" clip-path="url(#clipPath54)" fill="black" stroke="none" xml:space="preserve"> + stateMachine</text>
<text x="508" y="585" clip-path="url(#clipPath55)" fill="black" stroke="none" xml:space="preserve"> *</text>
<text x="498" y="544" clip-path="url(#clipPath56)" fill="black" stroke="none" xml:space="preserve"> *</text>
<polygon fill="black" clip-path="url(#clipPath57)" points=" 484 588 486 586 488 586 490 588 490 589 502 583 490 589 502 595 490 589 490 590 488 592 486 592 484 590" stroke="none"/>
<polygon fill="none" clip-path="url(#clipPath57)" points=" 484 588 486 586 488 586 490 588 490 589 502 583 490 589 502 595 490 589 490 590 488 592 486 592 484 590" stroke="black"/>
<line clip-path="url(#clipPath20)" fill="none" x1="304" x2="384" y1="564" y2="564" stroke-dasharray="6.6,3.3" stroke="black"/>
</g>
</g>
</svg>
