<?xml version="1.0" encoding="UTF-8"?><svg xmlns="http://www.w3.org/2000/svg" xmlns:xlink="http://www.w3.org/1999/xlink" stroke-dasharray="none" shape-rendering="auto" font-family="'Dialog'" width="871" text-rendering="auto" fill-opacity="1" contentScriptType="text/ecmascript" color-interpolation="auto" color-rendering="auto" preserveAspectRatio="xMidYMid meet" font-size="12" viewBox="0 0 871 629" fill="black" stroke="black" image-rendering="auto" stroke-miterlimit="10" zoomAndPan="magnify" version="1.0" stroke-linecap="square" stroke-linejoin="miter" contentStyleType="text/css" font-style="normal" height="629" stroke-width="1" stroke-dashoffset="0" font-weight="normal" stroke-opacity="1">
<!--Generated by the Batik Graphics2D SVG Generator-->
<defs id="genericDefs"/>
<g>
<defs id="defs1">
<clipPath clipPathUnits="userSpaceOnUse" id="clipPath1">
<path d="M223 139 L325 139 L325 241 L223 241 L223 139 Z"/>
</clipPath>
<clipPath clipPathUnits="userSpaceOnUse" id="clipPath2">
<path d="M258 142 L289 142 L289 155 L258 155 L258 142 Z"/>
</clipPath>
<clipPath clipPathUnits="userSpaceOnUse" id="clipPath3">
<path d="M223 154 L325 154 L325 240 L223 240 L223 154 Z"/>
</clipPath>
<clipPath clipPathUnits="userSpaceOnUse" id="clipPath4">
<path d="M394 261 L496 261 L496 363 L394 363 L394 261 Z"/>
</clipPath>
<clipPath clipPathUnits="userSpaceOnUse" id="clipPath5">
<path d="M433 264 L457 264 L457 277 L433 277 L433 264 Z"/>
</clipPath>
<clipPath clipPathUnits="userSpaceOnUse" id="clipPath6">
<path d="M394 276 L496 276 L496 362 L394 362 L394 276 Z"/>
</clipPath>
<clipPath clipPathUnits="userSpaceOnUse" id="clipPath7">
<path d="M568 385 L670 385 L670 487 L568 487 L568 385 Z"/>
</clipPath>
<clipPath clipPathUnits="userSpaceOnUse" id="clipPath8">
<path d="M596 388 L641 388 L641 401 L596 401 L596 388 Z"/>
</clipPath>
<clipPath clipPathUnits="userSpaceOnUse" id="clipPath9">
<path d="M568 400 L670 400 L670 486 L568 486 L568 400 Z"/>
</clipPath>
<clipPath clipPathUnits="userSpaceOnUse" id="clipPath10">
<path d="M394 9 L496 9 L496 61 L394 61 L394 9 Z"/>
</clipPath>
<clipPath clipPathUnits="userSpaceOnUse" id="clipPath11">
<path d="M402 28 L490 28 L490 41 L402 41 L402 28 Z"/>
</clipPath>
<clipPath clipPathUnits="userSpaceOnUse" id="clipPath12">
<path d="M81 286 L183 286 L183 340 L81 340 L81 286 Z"/>
</clipPath>
<clipPath clipPathUnits="userSpaceOnUse" id="clipPath13">
<path d="M110 306 L155 306 L155 319 L110 319 L110 306 Z"/>
</clipPath>
<clipPath clipPathUnits="userSpaceOnUse" id="clipPath14">
<path d="M394 504 L496 504 L496 606 L394 606 L394 504 Z"/>
</clipPath>
<clipPath clipPathUnits="userSpaceOnUse" id="clipPath15">
<path d="M415 507 L474 507 L474 520 L415 520 L415 507 Z"/>
</clipPath>
<clipPath clipPathUnits="userSpaceOnUse" id="clipPath16">
<path d="M394 519 L496 519 L496 605 L394 605 L394 519 Z"/>
</clipPath>
<clipPath clipPathUnits="userSpaceOnUse" id="clipPath17">
<path d="M102 535 L316 535 L316 581 L102 581 L102 535 Z"/>
</clipPath>
<clipPath clipPathUnits="userSpaceOnUse" id="clipPath18">
<path d="M112 541 L297 541 L297 554 L112 554 L112 541 Z"/>
</clipPath>
<clipPath clipPathUnits="userSpaceOnUse" id="clipPath19">
<path d="M108 552 L295 552 L295 575 L108 575 L108 552 Z"/>
</clipPath>
<clipPath clipPathUnits="userSpaceOnUse" id="clipPath20">
<path d="M-1 -1 L872 -1 L872 630 L-1 630 L-1 -1 Z"/>
</clipPath>
<clipPath clipPathUnits="userSpaceOnUse" id="clipPath21">
<path d="M342 230 L427 230 L427 243 L342 243 L342 230 Z"/>
</clipPath>
<clipPath clipPathUnits="userSpaceOnUse" id="clipPath22">
<path d="M334 150 L376 150 L376 163 L334 163 L334 150 Z"/>
</clipPath>
<clipPath clipPathUnits="userSpaceOnUse" id="clipPath23">
<path d="M345 212 L368 212 L368 225 L345 225 L345 212 Z"/>
</clipPath>
<clipPath clipPathUnits="userSpaceOnUse" id="clipPath24">
<path d="M332 166 L342 166 L342 179 L332 179 L332 166 Z"/>
</clipPath>
<clipPath clipPathUnits="userSpaceOnUse" id="clipPath25">
<path d="M323 219 L344 219 L344 234 L323 234 L323 219 Z"/>
</clipPath>
<clipPath clipPathUnits="userSpaceOnUse" id="clipPath26">
<path d="M514 351 L593 351 L593 364 L514 364 L514 351 Z"/>
</clipPath>
<clipPath clipPathUnits="userSpaceOnUse" id="clipPath27">
<path d="M503 273 L539 273 L539 286 L503 286 L503 273 Z"/>
</clipPath>
<clipPath clipPathUnits="userSpaceOnUse" id="clipPath28">
<path d="M522 332 L545 332 L545 345 L522 345 L522 332 Z"/>
</clipPath>
<clipPath clipPathUnits="userSpaceOnUse" id="clipPath29">
<path d="M504 289 L514 289 L514 302 L504 302 L504 289 Z"/>
</clipPath>
<clipPath clipPathUnits="userSpaceOnUse" id="clipPath30">
<path d="M494 341 L515 341 L515 356 L494 356 L494 341 Z"/>
</clipPath>
<clipPath clipPathUnits="userSpaceOnUse" id="clipPath31">
<path d="M435 59 L454 59 L454 72 L435 72 L435 59 Z"/>
</clipPath>
<clipPath clipPathUnits="userSpaceOnUse" id="clipPath32">
<path d="M687 473 L786 473 L786 486 L687 486 L687 473 Z"/>
</clipPath>
<clipPath clipPathUnits="userSpaceOnUse" id="clipPath33">
<path d="M672 392 L727 392 L727 405 L672 405 L672 392 Z"/>
</clipPath>
<clipPath clipPathUnits="userSpaceOnUse" id="clipPath34">
<path d="M686 457 L709 457 L709 470 L686 470 L686 457 Z"/>
</clipPath>
<clipPath clipPathUnits="userSpaceOnUse" id="clipPath35">
<path d="M673 411 L683 411 L683 424 L673 424 L673 411 Z"/>
</clipPath>
<clipPath clipPathUnits="userSpaceOnUse" id="clipPath36">
<path d="M668 465 L689 465 L689 480 L668 480 L668 465 Z"/>
</clipPath>
<clipPath clipPathUnits="userSpaceOnUse" id="clipPath37">
<path d="M23 251 L125 251 L125 264 L23 264 L23 251 Z"/>
</clipPath>
<clipPath clipPathUnits="userSpaceOnUse" id="clipPath38">
<path d="M175 175 L217 175 L217 188 L175 188 L175 175 Z"/>
</clipPath>
<clipPath clipPathUnits="userSpaceOnUse" id="clipPath39">
<path d="M133 252 L144 252 L144 265 L133 265 L133 252 Z"/>
</clipPath>
<clipPath clipPathUnits="userSpaceOnUse" id="clipPath40">
<path d="M205 192 L215 192 L215 205 L205 205 L205 192 Z"/>
</clipPath>
<clipPath clipPathUnits="userSpaceOnUse" id="clipPath41">
<path d="M122 268 L137 268 L137 289 L122 289 L122 268 Z"/>
</clipPath>
<clipPath clipPathUnits="userSpaceOnUse" id="clipPath42">
<path d="M196 298 L298 298 L298 311 L196 311 L196 298 Z"/>
</clipPath>
<clipPath clipPathUnits="userSpaceOnUse" id="clipPath43">
<path d="M357 297 L393 297 L393 310 L357 310 L357 297 Z"/>
</clipPath>
<clipPath clipPathUnits="userSpaceOnUse" id="clipPath44">
<path d="M197 316 L208 316 L208 329 L197 329 L197 316 Z"/>
</clipPath>
<clipPath clipPathUnits="userSpaceOnUse" id="clipPath45">
<path d="M382 315 L392 315 L392 328 L382 328 L382 315 Z"/>
</clipPath>
<clipPath clipPathUnits="userSpaceOnUse" id="clipPath46">
<path d="M181 305 L202 305 L202 320 L181 320 L181 305 Z"/>
</clipPath>
<clipPath clipPathUnits="userSpaceOnUse" id="clipPath47">
<path d="M22 360 L124 360 L124 373 L22 373 L22 360 Z"/>
</clipPath>
<clipPath clipPathUnits="userSpaceOnUse" id="clipPath48">
<path d="M511 423 L566 423 L566 436 L511 436 L511 423 Z"/>
</clipPath>
<clipPath clipPathUnits="userSpaceOnUse" id="clipPath49">
<path d="M127 361 L138 361 L138 374 L127 374 L127 361 Z"/>
</clipPath>
<clipPath clipPathUnits="userSpaceOnUse" id="clipPath50">
<path d="M555 440 L565 440 L565 453 L555 453 L555 440 Z"/>
</clipPath>
<clipPath clipPathUnits="userSpaceOnUse" id="clipPath51">
<path d="M119 338 L134 338 L134 359 L119 359 L119 338 Z"/>
</clipPath>
<clipPath clipPathUnits="userSpaceOnUse" id="clipPath52">
<path d="M515 594 L630 594 L630 607 L515 607 L515 594 Z"/>
</clipPath>
<clipPath clipPathUnits="userSpaceOnUse" id="clipPath53">
<path d="M499 515 L572 515 L572 528 L499 528 L499 515 Z"/>
</clipPath>
<clipPath clipPathUnits="userSpaceOnUse" id="clipPath54">
<path d="M516 578 L526 578 L526 591 L516 591 L516 578 Z"/>
</clipPath>
<clipPath clipPathUnits="userSpaceOnUse" id="clipPath55">
<path d="M500 532 L510 532 L510 545 L500 545 L500 532 Z"/>
</clipPath>
<clipPath clipPathUnits="userSpaceOnUse" id="clipPath56">
<path d="M494 585 L515 585 L515 600 L494 600 L494 585 Z"/>
</clipPath>
</defs>
<g font-size="11" fill="white" stroke-linejoin="round" stroke="white" stroke-width="0" stroke-miterlimit="0">
<rect x="224" y="140" clip-path="url(#clipPath1)" width="100" rx="0" ry="0" height="100" stroke="none"/>
</g>
<g font-size="9" font-family="'Helvetica'" stroke-linejoin="round" font-weight="bold" stroke-width="0" stroke-miterlimit="0">
<text xml:space="preserve" x="259" y="150" clip-path="url(#clipPath2)" stroke="none">Region</text>
</g>
<g font-size="11" stroke-width="1.1" stroke-linecap="butt">
<line clip-path="url(#clipPath3)" fill="none" x1="224" x2="324" y1="155" y2="155"/>
<rect x="224" y="140" clip-path="url(#clipPath1)" fill="none" width="99" rx="0" ry="0" height="99"/>
<rect x="395" y="262" clip-path="url(#clipPath4)" fill="white" width="100" rx="0" ry="0" height="100" stroke="none"/>
<text x="434" font-size="9" y="272" clip-path="url(#clipPath5)" font-family="'Helvetica'" stroke="none" font-weight="bold" xml:space="preserve">State</text>
<line clip-path="url(#clipPath6)" fill="none" x1="395" x2="495" y1="277" y2="277"/>
<rect x="395" y="262" clip-path="url(#clipPath4)" fill="none" width="99" rx="0" ry="0" height="99"/>
<rect x="569" y="386" clip-path="url(#clipPath7)" fill="white" width="100" rx="0" ry="0" height="100" stroke="none"/>
<text x="597" font-size="9" y="396" clip-path="url(#clipPath8)" font-family="'Helvetica'" stroke="none" font-weight="bold" xml:space="preserve">Transition</text>
<line clip-path="url(#clipPath9)" fill="none" x1="569" x2="669" y1="401" y2="401"/>
<rect x="569" y="386" clip-path="url(#clipPath7)" fill="none" width="99" rx="0" ry="0" height="99"/>
<rect x="395" y="10" clip-path="url(#clipPath10)" fill="silver" width="100" rx="0" ry="0" height="50" stroke="none"/>
</g>
<g stroke-linecap="butt" font-size="9" font-family="'Helvetica'" font-style="italic" font-weight="bold" stroke-width="1.1">
<text xml:space="preserve" x="403" y="36" clip-path="url(#clipPath11)" stroke="none">RedefinableElement</text>
</g>
<g font-size="11" stroke-width="1.1" stroke-linecap="butt">
<rect x="395" y="10" clip-path="url(#clipPath10)" fill="none" width="99" rx="0" ry="0" height="49"/>
<rect x="82" y="287" clip-path="url(#clipPath12)" fill="silver" width="100" rx="0" ry="0" height="52" stroke="none"/>
</g>
<g stroke-linecap="butt" font-size="9" font-family="'Helvetica'" font-style="italic" font-weight="bold" stroke-width="1.1">
<text xml:space="preserve" x="111" y="314" clip-path="url(#clipPath13)" stroke="none">Classifier</text>
</g>
<g font-size="11" stroke-width="1.1" stroke-linecap="butt">
<rect x="82" y="287" clip-path="url(#clipPath12)" fill="none" width="99" rx="0" ry="0" height="51"/>
<rect x="395" y="505" clip-path="url(#clipPath14)" fill="white" width="100" rx="0" ry="0" height="100" stroke="none"/>
<text x="416" font-size="9" y="515" clip-path="url(#clipPath15)" font-family="'Helvetica'" stroke="none" font-weight="bold" xml:space="preserve">StateMachine</text>
<line clip-path="url(#clipPath16)" fill="none" x1="395" x2="495" y1="520" y2="520"/>
<rect x="395" y="505" clip-path="url(#clipPath14)" fill="none" width="99" rx="0" ry="0" height="99"/>
</g>
<g stroke-linecap="butt" font-size="9" fill="rgb(245,245,220)" font-family="'Helvetica'" stroke="rgb(245,245,220)" stroke-width="1.1">
<path d="M103 536 L103 536 L302 536 L314 548 L314 579 L103 579 L103 536 ZM103 536" clip-path="url(#clipPath17)" fill-rule="evenodd" stroke="none"/>
<text x="113" y="549" clip-path="url(#clipPath18)" fill="black" stroke="none" xml:space="preserve">pssm_state_machine_extends_at_most_one</text>
<text x="109" y="560" clip-path="url(#clipPath19)" fill="black" stroke="none" xml:space="preserve">{{Natural language} A StateMachine must not</text>
<text x="109" y="571" clip-path="url(#clipPath19)" fill="black" stroke="none" xml:space="preserve">have more than one extendedStateMachine.}</text>
<line clip-path="url(#clipPath17)" fill="none" x1="103" x2="302" y1="536" y2="536" stroke="black"/>
<line clip-path="url(#clipPath17)" fill="none" x1="302" x2="314" y1="536" y2="548" stroke="black"/>
<line clip-path="url(#clipPath17)" fill="none" x1="314" x2="314" y1="548" y2="579" stroke="black"/>
<line clip-path="url(#clipPath17)" fill="none" x1="314" x2="103" y1="579" y2="579" stroke="black"/>
<line clip-path="url(#clipPath17)" fill="none" x1="103" x2="103" y1="579" y2="536" stroke="black"/>
<line clip-path="url(#clipPath17)" fill="none" x1="103" x2="103" y1="536" y2="536" stroke="black"/>
<line clip-path="url(#clipPath17)" fill="none" x1="302" x2="302" y1="536" y2="548" stroke="black"/>
<line clip-path="url(#clipPath17)" fill="none" x1="302" x2="315" y1="548" y2="548" stroke="black"/>
</g>
<g text-rendering="optimizeLegibility" stroke-width="1.1" font-size="9" stroke-linecap="butt">
<line clip-path="url(#clipPath20)" fill="none" x1="324" x2="411" y1="226" y2="226"/>
<line clip-path="url(#clipPath20)" fill="none" x1="411" x2="411" y1="226" y2="164"/>
<line clip-path="url(#clipPath20)" fill="none" x1="411" x2="324" y1="164" y2="164"/>
<text xml:space="preserve" x="343" y="240" clip-path="url(#clipPath21)" stroke="none"> + extendedRegion</text>
<text xml:space="preserve" x="335" y="160" clip-path="url(#clipPath22)" stroke="none"> + region</text>
<text xml:space="preserve" x="346" y="222" clip-path="url(#clipPath23)" stroke="none"> 0..1</text>
<text xml:space="preserve" x="333" y="176" clip-path="url(#clipPath24)" stroke="none"> *</text>
<polygon clip-path="url(#clipPath25)" points=" 324 225 326 223 328 223 330 225 330 226 342 220 330 226 342 232 330 226 330 227 328 229 326 229 324 227" stroke="none"/>
<polygon fill="none" clip-path="url(#clipPath25)" points=" 324 225 326 223 328 223 330 225 330 226 342 220 330 226 342 232 330 226 330 227 328 229 326 229 324 227"/>
<line clip-path="url(#clipPath20)" fill="none" x1="495" x2="586" y1="348" y2="348"/>
<line clip-path="url(#clipPath20)" fill="none" x1="586" x2="586" y1="348" y2="287"/>
<line clip-path="url(#clipPath20)" fill="none" x1="586" x2="495" y1="287" y2="287"/>
<text xml:space="preserve" x="515" y="361" clip-path="url(#clipPath26)" stroke="none"> + redefinedState</text>
<text xml:space="preserve" x="504" y="283" clip-path="url(#clipPath27)" stroke="none"> + state</text>
<text xml:space="preserve" x="523" y="342" clip-path="url(#clipPath28)" stroke="none"> 0..1</text>
<text xml:space="preserve" x="505" y="299" clip-path="url(#clipPath29)" stroke="none"> *</text>
<polygon clip-path="url(#clipPath30)" points=" 495 347 497 345 499 345 501 347 501 348 513 342 501 348 513 354 501 348 501 349 499 351 497 351 495 349" stroke="none"/>
<polygon fill="none" clip-path="url(#clipPath30)" points=" 495 347 497 345 499 345 501 347 501 348 513 342 501 348 513 354 501 348 501 349 499 351 497 351 495 349"/>
<line clip-path="url(#clipPath20)" fill="none" x1="274" x2="274" y1="140" y2="102"/>
<line clip-path="url(#clipPath20)" fill="none" x1="274" x2="444" y1="102" y2="102"/>
<line clip-path="url(#clipPath20)" fill="none" x1="444" x2="444" y1="102" y2="60"/>
<polygon fill="white" clip-path="url(#clipPath31)" points=" 444 60 452 70 436 70" stroke="none"/>
<polygon fill="none" clip-path="url(#clipPath31)" points=" 444 60 452 70 436 70"/>
<line clip-path="url(#clipPath20)" fill="none" x1="444" x2="444" y1="262" y2="102"/>
<line clip-path="url(#clipPath20)" fill="none" x1="444" x2="444" y1="102" y2="102"/>
<line clip-path="url(#clipPath20)" fill="none" x1="444" x2="444" y1="102" y2="60"/>
<polygon fill="white" clip-path="url(#clipPath31)" points=" 444 60 452 70 436 70" stroke="none"/>
<polygon fill="none" clip-path="url(#clipPath31)" points=" 444 60 452 70 436 70"/>
<line clip-path="url(#clipPath20)" fill="none" x1="669" x2="757" y1="472" y2="472"/>
<line clip-path="url(#clipPath20)" fill="none" x1="757" x2="757" y1="472" y2="408"/>
<line clip-path="url(#clipPath20)" fill="none" x1="757" x2="669" y1="408" y2="408"/>
<text xml:space="preserve" x="688" y="483" clip-path="url(#clipPath32)" stroke="none"> + redefinedTransition</text>
<text xml:space="preserve" x="673" y="402" clip-path="url(#clipPath33)" stroke="none"> + transition</text>
<text xml:space="preserve" x="687" y="467" clip-path="url(#clipPath34)" stroke="none"> 0..1</text>
<text xml:space="preserve" x="674" y="421" clip-path="url(#clipPath35)" stroke="none"> *</text>
<polygon clip-path="url(#clipPath36)" points=" 669 471 671 469 673 469 675 471 675 472 687 466 675 472 687 478 675 472 675 473 673 475 671 475 669 473" stroke="none"/>
<polygon fill="none" clip-path="url(#clipPath36)" points=" 669 471 671 469 673 469 675 471 675 472 687 466 675 472 687 478 675 472 675 473 673 475 671 475 669 473"/>
<line clip-path="url(#clipPath20)" fill="none" x1="619" x2="619" y1="386" y2="102"/>
<line clip-path="url(#clipPath20)" fill="none" x1="619" x2="444" y1="102" y2="102"/>
<line clip-path="url(#clipPath20)" fill="none" x1="444" x2="444" y1="102" y2="60"/>
<polygon fill="white" clip-path="url(#clipPath31)" points=" 444 60 452 70 436 70" stroke="none"/>
<polygon fill="none" clip-path="url(#clipPath31)" points=" 444 60 452 70 436 70"/>
<line clip-path="url(#clipPath20)" fill="none" x1="129" x2="129" y1="287" y2="189"/>
<line clip-path="url(#clipPath20)" fill="none" x1="129" x2="224" y1="189" y2="189"/>
<text xml:space="preserve" x="24" y="261" clip-path="url(#clipPath37)" stroke="none"> +/ redefinitionContext</text>
<text xml:space="preserve" x="176" y="185" clip-path="url(#clipPath38)" stroke="none"> + region</text>
<text xml:space="preserve" x="134" y="262" clip-path="url(#clipPath39)" stroke="none"> 1</text>
<text xml:space="preserve" x="206" y="202" clip-path="url(#clipPath40)" stroke="none"> *</text>
<polygon clip-path="url(#clipPath41)" points=" 128 287 126 285 126 283 128 281 129 281 123 269 129 281 135 269 129 281 130 281 132 283 132 285 130 287" stroke="none"/>
<polygon fill="none" clip-path="url(#clipPath41)" points=" 128 287 126 285 126 283 128 281 129 281 123 269 129 281 135 269 129 281 130 281 132 283 132 285 130 287"/>
<line clip-path="url(#clipPath20)" fill="none" x1="182" x2="395" y1="312" y2="312"/>
<text xml:space="preserve" x="197" y="308" clip-path="url(#clipPath42)" stroke="none"> +/ redefinitionContext</text>
<text xml:space="preserve" x="358" y="307" clip-path="url(#clipPath43)" stroke="none"> + state</text>
<text xml:space="preserve" x="198" y="326" clip-path="url(#clipPath44)" stroke="none"> 1</text>
<text xml:space="preserve" x="383" y="325" clip-path="url(#clipPath45)" stroke="none"> *</text>
<polygon clip-path="url(#clipPath46)" points=" 182 311 184 309 186 309 188 311 188 312 200 306 188 312 200 318 188 312 188 313 186 315 184 315 182 313" stroke="none"/>
<polygon fill="none" clip-path="url(#clipPath46)" points=" 182 311 184 309 186 309 188 311 188 312 200 306 188 312 200 318 188 312 188 313 186 315 184 315 182 313"/>
<line clip-path="url(#clipPath20)" fill="none" x1="126" x2="126" y1="339" y2="437"/>
<line clip-path="url(#clipPath20)" fill="none" x1="126" x2="569" y1="437" y2="437"/>
<text xml:space="preserve" x="23" y="370" clip-path="url(#clipPath47)" stroke="none"> +/ redefinitionContext</text>
<text xml:space="preserve" x="512" y="433" clip-path="url(#clipPath48)" stroke="none"> + transition</text>
<text xml:space="preserve" x="128" y="371" clip-path="url(#clipPath49)" stroke="none"> 1</text>
<text xml:space="preserve" x="556" y="450" clip-path="url(#clipPath50)" stroke="none"> *</text>
<polygon clip-path="url(#clipPath51)" points=" 127 339 129 341 129 343 127 345 126 345 132 357 126 345 120 357 126 345 125 345 123 343 123 341 125 339" stroke="none"/>
<polygon fill="none" clip-path="url(#clipPath51)" points=" 127 339 129 341 129 343 127 345 126 345 132 357 126 345 120 357 126 345 125 345 123 343 123 341 125 339"/>
<line clip-path="url(#clipPath20)" fill="none" x1="495" x2="589" y1="592" y2="592"/>
<line clip-path="url(#clipPath20)" fill="none" x1="589" x2="589" y1="592" y2="529"/>
<line clip-path="url(#clipPath20)" fill="none" x1="589" x2="495" y1="529" y2="529"/>
<text xml:space="preserve" x="516" y="604" clip-path="url(#clipPath52)" stroke="none"> + extendedStateMachine</text>
<text xml:space="preserve" x="500" y="525" clip-path="url(#clipPath53)" stroke="none"> + stateMachine</text>
<text xml:space="preserve" x="517" y="588" clip-path="url(#clipPath54)" stroke="none"> *</text>
<text xml:space="preserve" x="501" y="542" clip-path="url(#clipPath55)" stroke="none"> *</text>
<polygon clip-path="url(#clipPath56)" points=" 495 591 497 589 499 589 501 591 501 592 513 586 501 592 513 598 501 592 501 593 499 595 497 595 495 593" stroke="none"/>
<polygon fill="none" clip-path="url(#clipPath56)" points=" 495 591 497 589 499 589 501 591 501 592 513 586 501 592 513 598 501 592 501 593 499 595 497 595 495 593"/>
<line clip-path="url(#clipPath20)" fill="none" x1="315" x2="395" y1="558" y2="558" stroke-dasharray="6.6,3.3"/>
</g>
</g>
</svg>
