<?xml version="1.0" encoding="UTF-8"?><svg xmlns="http://www.w3.org/2000/svg" xmlns:xlink="http://www.w3.org/1999/xlink" stroke-dasharray="none" shape-rendering="auto" font-family="'Dialog'" width="629" text-rendering="auto" fill-opacity="1" contentScriptType="text/ecmascript" color-interpolation="auto" color-rendering="auto" preserveAspectRatio="xMidYMid meet" font-size="12" viewBox="0 0 629 443" fill="black" stroke="black" image-rendering="auto" stroke-miterlimit="10" zoomAndPan="magnify" version="1.0" stroke-linecap="square" stroke-linejoin="miter" contentStyleType="text/css" font-style="normal" height="443" stroke-width="1" stroke-dashoffset="0" font-weight="normal" stroke-opacity="1">
<!--Generated by the Batik Graphics2D SVG Generator-->
<defs id="genericDefs"/>
<g>
<defs id="defs1">
<clipPath clipPathUnits="userSpaceOnUse" id="clipPath1">
<path d="M14 30 L183 30 L183 128 L14 128 L14 30 Z"/>
</clipPath>
<clipPath clipPathUnits="userSpaceOnUse" id="clipPath2">
<path d="M77 33 L119 33 L119 50 L77 50 L77 33 Z"/>
</clipPath>
<clipPath clipPathUnits="userSpaceOnUse" id="clipPath3">
<path d="M19 51 L99 51 L99 68 L19 68 L19 51 Z"/>
</clipPath>
<clipPath clipPathUnits="userSpaceOnUse" id="clipPath4">
<path d="M14 49 L183 49 L183 89 L14 89 L14 49 Z"/>
</clipPath>
<clipPath clipPathUnits="userSpaceOnUse" id="clipPath5">
<path d="M19 90 L123 90 L123 107 L19 107 L19 90 Z"/>
</clipPath>
<clipPath clipPathUnits="userSpaceOnUse" id="clipPath6">
<path d="M14 88 L183 88 L183 128 L14 128 L14 88 Z"/>
</clipPath>
<clipPath clipPathUnits="userSpaceOnUse" id="clipPath7">
<path d="M378 9 L620 9 L620 154 L378 154 L378 9 Z"/>
</clipPath>
<clipPath clipPathUnits="userSpaceOnUse" id="clipPath8">
<path d="M478 12 L520 12 L520 29 L478 29 L478 12 Z"/>
</clipPath>
<clipPath clipPathUnits="userSpaceOnUse" id="clipPath9">
<path d="M383 30 L557 30 L557 47 L383 47 L383 30 Z"/>
</clipPath>
<clipPath clipPathUnits="userSpaceOnUse" id="clipPath10">
<path d="M378 28 L620 28 L620 56 L378 56 L378 28 Z"/>
</clipPath>
<clipPath clipPathUnits="userSpaceOnUse" id="clipPath11">
<path d="M383 57 L487 57 L487 74 L383 74 L383 57 Z"/>
</clipPath>
<clipPath clipPathUnits="userSpaceOnUse" id="clipPath12">
<path d="M383 72 L513 72 L513 89 L383 89 L383 72 Z"/>
</clipPath>
<clipPath clipPathUnits="userSpaceOnUse" id="clipPath13">
<path d="M383 87 L555 87 L555 104 L383 104 L383 87 Z"/>
</clipPath>
<clipPath clipPathUnits="userSpaceOnUse" id="clipPath14">
<path d="M383 102 L463 102 L463 119 L383 119 L383 102 Z"/>
</clipPath>
<clipPath clipPathUnits="userSpaceOnUse" id="clipPath15">
<path d="M378 55 L620 55 L620 126 L378 126 L378 55 Z"/>
</clipPath>
<clipPath clipPathUnits="userSpaceOnUse" id="clipPath16">
<path d="M383 127 L487 127 L487 144 L383 144 L383 127 Z"/>
</clipPath>
<clipPath clipPathUnits="userSpaceOnUse" id="clipPath17">
<path d="M378 125 L620 125 L620 153 L378 153 L378 125 Z"/>
</clipPath>
<clipPath clipPathUnits="userSpaceOnUse" id="clipPath18">
<path d="M12 216 L618 216 L618 434 L12 434 L12 216 Z"/>
</clipPath>
<clipPath clipPathUnits="userSpaceOnUse" id="clipPath19">
<path d="M273 219 L357 219 L357 236 L273 236 L273 219 Z"/>
</clipPath>
<clipPath clipPathUnits="userSpaceOnUse" id="clipPath20">
<path d="M17 237 L129 237 L129 254 L17 254 L17 237 Z"/>
</clipPath>
<clipPath clipPathUnits="userSpaceOnUse" id="clipPath21">
<path d="M17 252 L119 252 L119 269 L17 269 L17 252 Z"/>
</clipPath>
<clipPath clipPathUnits="userSpaceOnUse" id="clipPath22">
<path d="M17 267 L172 267 L172 284 L17 284 L17 267 Z"/>
</clipPath>
<clipPath clipPathUnits="userSpaceOnUse" id="clipPath23">
<path d="M12 235 L618 235 L618 302 L12 302 L12 235 Z"/>
</clipPath>
<clipPath clipPathUnits="userSpaceOnUse" id="clipPath24">
<path d="M17 303 L116 303 L116 320 L17 320 L17 303 Z"/>
</clipPath>
<clipPath clipPathUnits="userSpaceOnUse" id="clipPath25">
<path d="M17 318 L202 318 L202 335 L17 335 L17 318 Z"/>
</clipPath>
<clipPath clipPathUnits="userSpaceOnUse" id="clipPath26">
<path d="M17 333 L172 333 L172 350 L17 350 L17 333 Z"/>
</clipPath>
<clipPath clipPathUnits="userSpaceOnUse" id="clipPath27">
<path d="M17 348 L97 348 L97 365 L17 365 L17 348 Z"/>
</clipPath>
<clipPath clipPathUnits="userSpaceOnUse" id="clipPath28">
<path d="M17 363 L175 363 L175 380 L17 380 L17 363 Z"/>
</clipPath>
<clipPath clipPathUnits="userSpaceOnUse" id="clipPath29">
<path d="M12 301 L618 301 L618 401 L12 401 L12 301 Z"/>
</clipPath>
<clipPath clipPathUnits="userSpaceOnUse" id="clipPath30">
<path d="M17 402 L206 402 L206 419 L17 419 L17 402 Z"/>
</clipPath>
<clipPath clipPathUnits="userSpaceOnUse" id="clipPath31">
<path d="M12 400 L618 400 L618 433 L12 433 L12 400 Z"/>
</clipPath>
<clipPath clipPathUnits="userSpaceOnUse" id="clipPath32">
<path d="M-1 -1 L630 -1 L630 444 L-1 444 L-1 -1 Z"/>
</clipPath>
<clipPath clipPathUnits="userSpaceOnUse" id="clipPath33">
<path d="M306 89 L364 89 L364 106 L306 106 L306 89 Z"/>
</clipPath>
<clipPath clipPathUnits="userSpaceOnUse" id="clipPath34">
<path d="M184 58 L230 58 L230 75 L184 75 L184 58 Z"/>
</clipPath>
<clipPath clipPathUnits="userSpaceOnUse" id="clipPath35">
<path d="M366 89 L378 89 L378 106 L366 106 L366 89 Z"/>
</clipPath>
<clipPath clipPathUnits="userSpaceOnUse" id="clipPath36">
<path d="M232 59 L244 59 L244 76 L232 76 L232 59 Z"/>
</clipPath>
<clipPath clipPathUnits="userSpaceOnUse" id="clipPath37">
<path d="M363 73 L381 73 L381 86 L363 86 L363 73 Z"/>
</clipPath>
<clipPath clipPathUnits="userSpaceOnUse" id="clipPath38">
<path d="M109 130 L155 130 L155 147 L109 147 L109 130 Z"/>
</clipPath>
<clipPath clipPathUnits="userSpaceOnUse" id="clipPath39">
<path d="M57 194 L93 194 L93 211 L57 211 L57 194 Z"/>
</clipPath>
<clipPath clipPathUnits="userSpaceOnUse" id="clipPath40">
<path d="M155 131 L167 131 L167 148 L155 148 L155 131 Z"/>
</clipPath>
<clipPath clipPathUnits="userSpaceOnUse" id="clipPath41">
<path d="M106 196 L118 196 L118 213 L106 213 L106 196 Z"/>
</clipPath>
<clipPath clipPathUnits="userSpaceOnUse" id="clipPath42">
<path d="M93 126 L106 126 L106 144 L93 144 L93 126 Z"/>
</clipPath>
<clipPath clipPathUnits="userSpaceOnUse" id="clipPath43">
<path d="M505 160 L553 160 L553 177 L505 177 L505 160 Z"/>
</clipPath>
<clipPath clipPathUnits="userSpaceOnUse" id="clipPath44">
<path d="M439 195 L475 195 L475 212 L439 212 L439 195 Z"/>
</clipPath>
<clipPath clipPathUnits="userSpaceOnUse" id="clipPath45">
<path d="M552 161 L564 161 L564 178 L552 178 L552 161 Z"/>
</clipPath>
<clipPath clipPathUnits="userSpaceOnUse" id="clipPath46">
<path d="M478 195 L490 195 L490 212 L478 212 L478 195 Z"/>
</clipPath>
<clipPath clipPathUnits="userSpaceOnUse" id="clipPath47">
<path d="M491 152 L504 152 L504 170 L491 170 L491 152 Z"/>
</clipPath>
<clipPath clipPathUnits="userSpaceOnUse" id="clipPath48">
<path d="M491 201 L504 201 L504 219 L491 219 L491 201 Z"/>
</clipPath>
</defs>
<g fill="white" font-family="'Segoe UI'" stroke-linejoin="round" stroke="white" stroke-width="0" stroke-miterlimit="0">
<rect x="15" y="31" clip-path="url(#clipPath1)" width="167" rx="0" ry="0" height="96" stroke="none"/>
</g>
<g font-family="'SansSerif'" stroke-linejoin="round" font-style="italic" font-weight="bold" stroke-width="0" stroke-miterlimit="0">
<text xml:space="preserve" x="78" y="47" clip-path="url(#clipPath2)" stroke="none">Tester</text>
<text x="20" y="65" clip-path="url(#clipPath3)" font-style="normal" stroke="none" font-weight="normal" xml:space="preserve">«Signal» Start</text>
</g>
<g stroke-width="1.1" font-family="'Segoe UI'" stroke-linecap="butt">
<line clip-path="url(#clipPath4)" fill="none" x1="15" x2="182" y1="50" y2="50"/>
<text x="20" y="104" clip-path="url(#clipPath5)" font-family="'SansSerif'" stroke="none" xml:space="preserve">Tester$behavior$1</text>
<line clip-path="url(#clipPath6)" fill="none" x1="15" x2="182" y1="89" y2="89"/>
<rect x="15" y="31" clip-path="url(#clipPath1)" fill="none" width="166" rx="0" ry="0" height="95"/>
<line clip-path="url(#clipPath1)" fill="none" x1="19" x2="19" y1="31" y2="126"/>
<line clip-path="url(#clipPath1)" fill="none" x1="177" x2="177" y1="31" y2="126"/>
<line clip-path="url(#clipPath1)" fill="none" x1="17" x2="17" y1="32" y2="125" stroke="white" stroke-width="3.1"/>
<line clip-path="url(#clipPath1)" fill="none" x1="179" x2="179" y1="32" y2="125" stroke="white" stroke-width="3.1"/>
<rect x="379" y="10" clip-path="url(#clipPath7)" fill="white" width="240" rx="0" ry="0" height="143" stroke="none" stroke-width="3.1"/>
</g>
<g font-style="italic" stroke-width="3.1" font-weight="bold" font-family="'SansSerif'" stroke-linecap="butt">
<text xml:space="preserve" x="479" y="26" clip-path="url(#clipPath8)" stroke="none">Target</text>
<text x="384" y="44" clip-path="url(#clipPath9)" font-style="normal" stroke="none" font-weight="normal" xml:space="preserve"> + traceBuilder: TraceBuilder [1]</text>
</g>
<g stroke-width="1.1" font-family="'Segoe UI'" stroke-linecap="butt">
<line clip-path="url(#clipPath10)" fill="none" x1="379" x2="619" y1="29" y2="29"/>
<text x="384" y="71" clip-path="url(#clipPath11)" font-family="'SansSerif'" stroke="none" xml:space="preserve">«Signal» Continue</text>
<text x="384" y="86" clip-path="url(#clipPath12)" font-family="'SansSerif'" stroke="none" xml:space="preserve">«Signal» AnotherSignal</text>
<text x="384" y="101" clip-path="url(#clipPath13)" font-family="'SansSerif'" stroke="none" xml:space="preserve"> + trace(  in segment: String [1])</text>
<text x="384" y="116" clip-path="url(#clipPath14)" font-family="'SansSerif'" stroke="none" xml:space="preserve">«Signal» Start</text>
<line clip-path="url(#clipPath15)" fill="none" x1="379" x2="619" y1="56" y2="56"/>
<text x="384" y="141" clip-path="url(#clipPath16)" font-family="'SansSerif'" stroke="none" xml:space="preserve">Target$behavior$1</text>
<line clip-path="url(#clipPath17)" fill="none" x1="379" x2="619" y1="126" y2="126"/>
<rect x="379" y="10" clip-path="url(#clipPath7)" fill="none" width="239" rx="0" ry="0" height="142"/>
<line clip-path="url(#clipPath7)" fill="none" x1="383" x2="383" y1="10" y2="152"/>
<line clip-path="url(#clipPath7)" fill="none" x1="614" x2="614" y1="10" y2="152"/>
<line clip-path="url(#clipPath7)" fill="none" x1="381" x2="381" y1="11" y2="151" stroke="white" stroke-width="3.1"/>
<line clip-path="url(#clipPath7)" fill="none" x1="616" x2="616" y1="11" y2="151" stroke="white" stroke-width="3.1"/>
<rect x="13" y="217" clip-path="url(#clipPath18)" fill="white" width="604" rx="0" ry="0" height="216" stroke="none" stroke-width="3.1"/>
</g>
<g font-style="italic" stroke-width="3.1" font-weight="bold" font-family="'SansSerif'" stroke-linecap="butt">
<text xml:space="preserve" x="274" y="233" clip-path="url(#clipPath19)" stroke="none">SemanticTest</text>
<text x="18" y="251" clip-path="url(#clipPath20)" font-style="normal" stroke="none" font-weight="normal" xml:space="preserve"> + pass: Boolean [1]</text>
<text x="18" y="266" clip-path="url(#clipPath21)" font-style="normal" stroke="none" font-weight="normal" xml:space="preserve"> + name: String [1]</text>
<text x="18" y="281" clip-path="url(#clipPath22)" font-style="normal" stroke="none" font-weight="normal" xml:space="preserve"> + expectedResult: String [1]</text>
</g>
<g stroke-width="1.1" font-family="'Segoe UI'" stroke-linecap="butt">
<line clip-path="url(#clipPath23)" fill="none" x1="13" x2="617" y1="236" y2="236"/>
<text x="18" y="317" clip-path="url(#clipPath24)" font-family="'SansSerif'" stroke="none" xml:space="preserve">«Signal» TestEnd</text>
<text x="18" y="332" clip-path="url(#clipPath25)" font-family="'SansSerif'" font-style="italic" stroke="none" xml:space="preserve"> + getTestComponent(): Tester [1]</text>
<text x="18" y="347" clip-path="url(#clipPath26)" font-family="'SansSerif'" font-style="italic" stroke="none" xml:space="preserve"> + getTestTarget(): Target [1]</text>
<text x="18" y="362" clip-path="url(#clipPath27)" font-family="'SansSerif'" stroke="none" xml:space="preserve">«Signal» Start</text>
<text x="18" y="377" clip-path="url(#clipPath28)" font-family="'SansSerif'" stroke="none" xml:space="preserve"> + assert(  in trace: String [1])</text>
<line clip-path="url(#clipPath29)" fill="none" x1="13" x2="617" y1="302" y2="302"/>
<text x="18" y="416" clip-path="url(#clipPath30)" font-family="'SansSerif'" stroke="none" xml:space="preserve">AbstractSemanticTest$behavior$1</text>
<line clip-path="url(#clipPath31)" fill="none" x1="13" x2="617" y1="401" y2="401"/>
<rect x="13" y="217" clip-path="url(#clipPath18)" fill="none" width="603" rx="0" ry="0" height="215"/>
<line clip-path="url(#clipPath18)" fill="none" x1="17" x2="17" y1="217" y2="432"/>
<line clip-path="url(#clipPath18)" fill="none" x1="612" x2="612" y1="217" y2="432"/>
<line clip-path="url(#clipPath18)" fill="none" x1="15" x2="15" y1="218" y2="431" stroke="white" stroke-width="3.1"/>
<line clip-path="url(#clipPath18)" fill="none" x1="614" x2="614" y1="218" y2="431" stroke="white" stroke-width="3.1"/>
<line clip-path="url(#clipPath32)" fill="none" text-rendering="optimizeLegibility" x1="379" x2="182" y1="79" y2="79"/>
<text x="307" y="103" clip-path="url(#clipPath33)" text-rendering="optimizeLegibility" stroke="none" xml:space="preserve"> + testable</text>
<text x="185" y="72" clip-path="url(#clipPath34)" text-rendering="optimizeLegibility" stroke="none" xml:space="preserve"> + tester</text>
<text x="367" y="103" clip-path="url(#clipPath35)" text-rendering="optimizeLegibility" stroke="none" xml:space="preserve"> 1</text>
<text x="233" y="73" clip-path="url(#clipPath36)" text-rendering="optimizeLegibility" stroke="none" xml:space="preserve"> 1</text>
<line clip-path="url(#clipPath37)" fill="none" text-rendering="optimizeLegibility" x1="364" x2="379" y1="84" y2="79"/>
<line clip-path="url(#clipPath37)" fill="none" text-rendering="optimizeLegibility" x1="379" x2="364" y1="79" y2="74"/>
<line clip-path="url(#clipPath32)" fill="none" text-rendering="optimizeLegibility" x1="99" x2="99" y1="127" y2="217"/>
<text x="110" y="144" clip-path="url(#clipPath38)" text-rendering="optimizeLegibility" stroke="none" xml:space="preserve"> + tester</text>
<text x="58" y="208" clip-path="url(#clipPath39)" text-rendering="optimizeLegibility" stroke="none" xml:space="preserve"> + test</text>
<text x="156" y="145" clip-path="url(#clipPath40)" text-rendering="optimizeLegibility" stroke="none" xml:space="preserve"> 1</text>
<text x="107" y="210" clip-path="url(#clipPath41)" text-rendering="optimizeLegibility" stroke="none" xml:space="preserve"> 1</text>
<line clip-path="url(#clipPath42)" fill="none" text-rendering="optimizeLegibility" x1="104" x2="99" y1="142" y2="127"/>
<line clip-path="url(#clipPath42)" fill="none" text-rendering="optimizeLegibility" x1="99" x2="94" y1="127" y2="142"/>
<line clip-path="url(#clipPath32)" fill="none" text-rendering="optimizeLegibility" x1="497" x2="497" y1="153" y2="217"/>
<text x="506" y="174" clip-path="url(#clipPath43)" text-rendering="optimizeLegibility" stroke="none" xml:space="preserve"> + target</text>
<text x="440" y="209" clip-path="url(#clipPath44)" text-rendering="optimizeLegibility" stroke="none" xml:space="preserve"> + test</text>
<text x="553" y="175" clip-path="url(#clipPath45)" text-rendering="optimizeLegibility" stroke="none" xml:space="preserve"> 1</text>
<text x="479" y="209" clip-path="url(#clipPath46)" text-rendering="optimizeLegibility" stroke="none" xml:space="preserve"> 1</text>
<line clip-path="url(#clipPath47)" fill="none" text-rendering="optimizeLegibility" x1="502" x2="497" y1="168" y2="153"/>
<line clip-path="url(#clipPath47)" fill="none" text-rendering="optimizeLegibility" x1="497" x2="492" y1="153" y2="168"/>
<line clip-path="url(#clipPath48)" fill="none" text-rendering="optimizeLegibility" x1="492" x2="497" y1="202" y2="217"/>
<line clip-path="url(#clipPath48)" fill="none" text-rendering="optimizeLegibility" x1="497" x2="502" y1="217" y2="202"/>
</g>
</g>
</svg>
