<?xml version="1.0" encoding="UTF-8"?><svg xmlns="http://www.w3.org/2000/svg" xmlns:xlink="http://www.w3.org/1999/xlink" stroke-dasharray="none" shape-rendering="auto" font-family="'Dialog'" width="942" text-rendering="auto" fill-opacity="1" contentScriptType="text/ecmascript" color-interpolation="auto" color-rendering="auto" preserveAspectRatio="xMidYMid meet" font-size="12" viewBox="0 0 942 143" fill="black" stroke="black" image-rendering="auto" stroke-miterlimit="10" zoomAndPan="magnify" version="1.0" stroke-linecap="square" stroke-linejoin="miter" contentStyleType="text/css" font-style="normal" height="143" stroke-width="1" stroke-dashoffset="0" font-weight="normal" stroke-opacity="1">
<!--Generated by the Batik Graphics2D SVG Generator-->
<defs id="genericDefs"/>
<g>
<defs id="defs1">
<clipPath clipPathUnits="userSpaceOnUse" id="clipPath1">
<path d="M9 32 L210 32 L210 101 L9 101 L9 32 Z"/>
</clipPath>
<clipPath clipPathUnits="userSpaceOnUse" id="clipPath2">
<path d="M68 58 L152 58 L152 75 L68 75 L68 58 Z"/>
</clipPath>
<clipPath clipPathUnits="userSpaceOnUse" id="clipPath3">
<path d="M435 9 L933 9 L933 134 L435 134 L435 9 Z"/>
</clipPath>
<clipPath clipPathUnits="userSpaceOnUse" id="clipPath4">
<path d="M629 12 L738 12 L738 29 L629 29 L629 12 Z"/>
</clipPath>
<clipPath clipPathUnits="userSpaceOnUse" id="clipPath5">
<path d="M440 30 L539 30 L539 47 L440 47 L440 30 Z"/>
</clipPath>
<clipPath clipPathUnits="userSpaceOnUse" id="clipPath6">
<path d="M435 28 L933 28 L933 63 L435 63 L435 28 Z"/>
</clipPath>
<clipPath clipPathUnits="userSpaceOnUse" id="clipPath7">
<path d="M440 64 L927 64 L927 81 L440 81 L440 64 Z"/>
</clipPath>
<clipPath clipPathUnits="userSpaceOnUse" id="clipPath8">
<path d="M440 79 L581 79 L581 96 L440 96 L440 79 Z"/>
</clipPath>
<clipPath clipPathUnits="userSpaceOnUse" id="clipPath9">
<path d="M440 94 L539 94 L539 111 L440 111 L440 94 Z"/>
</clipPath>
<clipPath clipPathUnits="userSpaceOnUse" id="clipPath10">
<path d="M435 62 L933 62 L933 133 L435 133 L435 62 Z"/>
</clipPath>
<clipPath clipPathUnits="userSpaceOnUse" id="clipPath11">
<path d="M-1 -1 L943 -1 L943 144 L-1 144 L-1 -1 Z"/>
</clipPath>
<clipPath clipPathUnits="userSpaceOnUse" id="clipPath12">
<path d="M216 38 L257 38 L257 55 L216 55 L216 38 Z"/>
</clipPath>
<clipPath clipPathUnits="userSpaceOnUse" id="clipPath13">
<path d="M357 78 L420 78 L420 95 L357 95 L357 78 Z"/>
</clipPath>
<clipPath clipPathUnits="userSpaceOnUse" id="clipPath14">
<path d="M232 72 L242 72 L242 89 L232 89 L232 72 Z"/>
</clipPath>
<clipPath clipPathUnits="userSpaceOnUse" id="clipPath15">
<path d="M405 36 L417 36 L417 53 L405 53 L405 36 Z"/>
</clipPath>
<clipPath clipPathUnits="userSpaceOnUse" id="clipPath16">
<path d="M208 60 L226 60 L226 73 L208 73 L208 60 Z"/>
</clipPath>
<clipPath clipPathUnits="userSpaceOnUse" id="clipPath17">
<path d="M419 61 L438 61 L438 72 L419 72 L419 61 Z"/>
</clipPath>
</defs>
<g fill="white" font-family="'Segoe UI'" stroke-linejoin="round" stroke="white" stroke-width="0" stroke-miterlimit="0">
<rect x="10" y="33" clip-path="url(#clipPath1)" width="199" rx="0" ry="0" height="67" stroke="none"/>
</g>
<g font-family="'SansSerif'" stroke-linejoin="round" font-style="italic" font-weight="bold" stroke-width="0" stroke-miterlimit="0">
<text xml:space="preserve" x="69" y="72" clip-path="url(#clipPath2)" stroke="none">SemanticTest</text>
</g>
<g stroke-width="1.1" font-family="'Segoe UI'" stroke-linecap="butt">
<rect x="10" y="33" clip-path="url(#clipPath1)" fill="none" width="198" rx="0" ry="0" height="66"/>
<line clip-path="url(#clipPath1)" fill="none" x1="14" x2="14" y1="33" y2="99"/>
<line clip-path="url(#clipPath1)" fill="none" x1="204" x2="204" y1="33" y2="99"/>
<line clip-path="url(#clipPath1)" fill="none" x1="12" x2="12" y1="34" y2="98" stroke="white" stroke-width="3.1"/>
<line clip-path="url(#clipPath1)" fill="none" x1="206" x2="206" y1="34" y2="98" stroke="white" stroke-width="3.1"/>
<rect x="436" y="10" clip-path="url(#clipPath3)" fill="white" width="496" rx="0" ry="0" height="123" stroke="none" stroke-width="3.1"/>
<text x="630" y="26" clip-path="url(#clipPath4)" font-family="'SansSerif'" stroke="none" font-weight="bold" stroke-width="3.1" xml:space="preserve">SemanticTestSuite</text>
<text x="441" y="44" clip-path="url(#clipPath5)" font-family="'SansSerif'" stroke="none" stroke-width="3.1" xml:space="preserve"> - name: String [1]</text>
<line clip-path="url(#clipPath6)" fill="none" x1="436" x2="932" y1="29" y2="29"/>
<text x="441" y="78" clip-path="url(#clipPath7)" font-family="'SansSerif'" stroke="none" xml:space="preserve"> - displayResultLabel(  in verdict: Boolean [1],   in label: String [1],   in test: SemanticTest...</text>
<text x="441" y="93" clip-path="url(#clipPath8)" font-family="'SansSerif'" stroke="none" xml:space="preserve"> - displayTestSuiteLabel()</text>
<text x="441" y="108" clip-path="url(#clipPath9)" font-family="'SansSerif'" stroke="none" xml:space="preserve">«Signal» TestEnd</text>
<line clip-path="url(#clipPath10)" fill="none" x1="436" x2="932" y1="63" y2="63"/>
<rect x="436" y="10" clip-path="url(#clipPath3)" fill="none" width="495" rx="0" ry="0" height="122"/>
<line clip-path="url(#clipPath3)" fill="none" x1="440" x2="440" y1="10" y2="132"/>
<line clip-path="url(#clipPath3)" fill="none" x1="927" x2="927" y1="10" y2="132"/>
<line clip-path="url(#clipPath3)" fill="none" x1="438" x2="438" y1="11" y2="131" stroke="white" stroke-width="3.1"/>
<line clip-path="url(#clipPath3)" fill="none" x1="929" x2="929" y1="11" y2="131" stroke="white" stroke-width="3.1"/>
<line clip-path="url(#clipPath11)" fill="none" text-rendering="optimizeLegibility" x1="209" x2="436" y1="66" y2="66"/>
<text x="217" y="52" clip-path="url(#clipPath12)" text-rendering="optimizeLegibility" font-family="'SansSerif'" stroke="none" xml:space="preserve"> + tests</text>
<text x="358" y="92" clip-path="url(#clipPath13)" text-rendering="optimizeLegibility" font-family="'SansSerif'" stroke="none" xml:space="preserve"> + testSuite</text>
<text x="233" y="86" clip-path="url(#clipPath14)" text-rendering="optimizeLegibility" font-family="'SansSerif'" stroke="none" xml:space="preserve"> *</text>
<text x="406" y="50" clip-path="url(#clipPath15)" text-rendering="optimizeLegibility" font-family="'SansSerif'" stroke="none" xml:space="preserve"> 1</text>
<line clip-path="url(#clipPath16)" fill="none" text-rendering="optimizeLegibility" x1="224" x2="209" y1="61" y2="66"/>
<line clip-path="url(#clipPath16)" fill="none" text-rendering="optimizeLegibility" x1="209" x2="224" y1="66" y2="71"/>
<polygon text-rendering="optimizeLegibility" clip-path="url(#clipPath17)" points=" 436 66 428 70 420 66 428 62" stroke="none"/>
<polygon fill="none" text-rendering="optimizeLegibility" clip-path="url(#clipPath17)" points=" 436 66 428 70 420 66 428 62"/>
</g>
</g>
</svg>
