<?xml version="1.0" encoding="UTF-8"?><svg xmlns="http://www.w3.org/2000/svg" xmlns:xlink="http://www.w3.org/1999/xlink" stroke-dasharray="none" shape-rendering="auto" font-family="'Dialog'" width="219" text-rendering="auto" fill-opacity="1" contentScriptType="text/ecmascript" color-interpolation="auto" color-rendering="auto" preserveAspectRatio="xMidYMid meet" font-size="12" viewBox="0 0 219 186" fill="black" stroke="black" image-rendering="auto" stroke-miterlimit="10" zoomAndPan="magnify" version="1.0" stroke-linecap="square" stroke-linejoin="miter" contentStyleType="text/css" font-style="normal" height="186" stroke-width="1" stroke-dashoffset="0" font-weight="normal" stroke-opacity="1">
<!--Generated by the Batik Graphics2D SVG Generator-->
<defs id="genericDefs"/>
<g>
<defs id="defs1">
<clipPath clipPathUnits="userSpaceOnUse" id="clipPath1">
<path d="M9 9 L210 9 L210 63 L9 63 L9 9 Z"/>
</clipPath>
<clipPath clipPathUnits="userSpaceOnUse" id="clipPath2">
<path d="M31 22 L190 22 L190 37 L31 37 L31 22 Z"/>
</clipPath>
<clipPath clipPathUnits="userSpaceOnUse" id="clipPath3">
<path d="M50 36 L171 36 L171 51 L50 51 L50 36 Z"/>
</clipPath>
<clipPath clipPathUnits="userSpaceOnUse" id="clipPath4">
<path d="M31 122 L184 122 L184 177 L31 177 L31 122 Z"/>
</clipPath>
<clipPath clipPathUnits="userSpaceOnUse" id="clipPath5">
<path d="M45 125 L170 125 L170 140 L45 140 L45 125 Z"/>
</clipPath>
<clipPath clipPathUnits="userSpaceOnUse" id="clipPath6">
<path d="M36 141 L179 141 L179 156 L36 156 L36 141 Z"/>
</clipPath>
<clipPath clipPathUnits="userSpaceOnUse" id="clipPath7">
<path d="M31 139 L184 139 L184 177 L31 177 L31 139 Z"/>
</clipPath>
<clipPath clipPathUnits="userSpaceOnUse" id="clipPath8">
<path d="M-1 -1 L220 -1 L220 187 L-1 187 L-1 -1 Z"/>
</clipPath>
<clipPath clipPathUnits="userSpaceOnUse" id="clipPath9">
<path d="M97 61 L116 61 L116 74 L97 74 L97 61 Z"/>
</clipPath>
</defs>
<g font-size="11" fill="silver" stroke-linejoin="round" stroke="silver" stroke-width="0" stroke-miterlimit="0">
<rect x="10" y="10" clip-path="url(#clipPath1)" width="199" rx="0" ry="0" height="52" stroke="none"/>
</g>
<g font-size="10" font-family="'Calibri'" stroke-linejoin="round" font-weight="bold" stroke-width="0" stroke-miterlimit="0">
<text xml:space="preserve" x="32" y="33" clip-path="url(#clipPath2)" stroke="none">(PSCS_Semantics::Semantics::Actions)</text>
<text xml:space="preserve" x="51" y="47" clip-path="url(#clipPath3)" stroke="none">CS_ReadSelfActionActivation</text>
</g>
<g font-size="11" stroke-width="1.1" stroke-linecap="butt">
<rect x="10" y="10" clip-path="url(#clipPath1)" fill="none" width="198" rx="0" ry="0" height="51"/>
<rect x="32" y="123" clip-path="url(#clipPath4)" fill="white" width="151" rx="0" ry="0" height="53" stroke="none"/>
<text x="46" font-size="10" y="136" clip-path="url(#clipPath5)" font-family="'Calibri'" stroke="none" font-weight="bold" xml:space="preserve">SM_ReadSelfActionActivation</text>
<text x="37" font-size="10" y="152" clip-path="url(#clipPath6)" font-family="'Calibri'" stroke="none" xml:space="preserve"> + getExecutionContext(): Object [1]</text>
<line clip-path="url(#clipPath7)" fill="none" x1="32" x2="183" y1="140" y2="140"/>
<rect x="32" y="123" clip-path="url(#clipPath4)" fill="none" width="150" rx="0" ry="0" height="52"/>
<line clip-path="url(#clipPath8)" fill="none" text-rendering="optimizeLegibility" x1="106" x2="106" y1="123" y2="87"/>
<line clip-path="url(#clipPath8)" fill="none" text-rendering="optimizeLegibility" x1="106" x2="106" y1="87" y2="62"/>
</g>
<g stroke-linecap="butt" font-size="10" fill="white" text-rendering="optimizeLegibility" font-family="'Calibri'" stroke="white" stroke-width="1.1">
<polygon clip-path="url(#clipPath9)" points=" 106 62 114 72 98 72" stroke="none"/>
<polygon fill="none" clip-path="url(#clipPath9)" points=" 106 62 114 72 98 72" stroke="black"/>
</g>
</g>
</svg>
