<?xml version="1.0" encoding="UTF-8"?><svg xmlns="http://www.w3.org/2000/svg" xmlns:xlink="http://www.w3.org/1999/xlink" stroke-dasharray="none" shape-rendering="auto" font-family="'Dialog'" width="308" text-rendering="auto" fill-opacity="1" contentScriptType="text/ecmascript" color-interpolation="auto" color-rendering="auto" preserveAspectRatio="xMidYMid meet" font-size="12" viewBox="0 0 308 192" fill="black" stroke="black" image-rendering="auto" stroke-miterlimit="10" zoomAndPan="magnify" version="1.0" stroke-linecap="square" stroke-linejoin="miter" contentStyleType="text/css" font-style="normal" height="192" stroke-width="1" stroke-dashoffset="0" font-weight="normal" stroke-opacity="1">
<!--Generated by the Batik Graphics2D SVG Generator-->
<defs id="genericDefs"/>
<g>
<defs id="defs1">
<clipPath clipPathUnits="userSpaceOnUse" id="clipPath1">
<path d="M9 121 L299 121 L299 183 L9 183 L9 121 Z"/>
</clipPath>
<clipPath clipPathUnits="userSpaceOnUse" id="clipPath2">
<path d="M108 124 L199 124 L199 137 L108 137 L108 124 Z"/>
</clipPath>
<clipPath clipPathUnits="userSpaceOnUse" id="clipPath3">
<path d="M9 136 L299 136 L299 159 L9 159 L9 136 Z"/>
</clipPath>
<clipPath clipPathUnits="userSpaceOnUse" id="clipPath4">
<path d="M14 160 L294 160 L294 173 L14 173 L14 160 Z"/>
</clipPath>
<clipPath clipPathUnits="userSpaceOnUse" id="clipPath5">
<path d="M9 158 L299 158 L299 182 L9 182 L9 158 Z"/>
</clipPath>
<clipPath clipPathUnits="userSpaceOnUse" id="clipPath6">
<path d="M33 9 L274 9 L274 61 L33 61 L33 9 Z"/>
</clipPath>
<clipPath clipPathUnits="userSpaceOnUse" id="clipPath7">
<path d="M34 23 L274 23 L274 36 L34 36 L34 23 Z"/>
</clipPath>
<clipPath clipPathUnits="userSpaceOnUse" id="clipPath8">
<path d="M118 35 L191 35 L191 48 L118 48 L118 35 Z"/>
</clipPath>
<clipPath clipPathUnits="userSpaceOnUse" id="clipPath9">
<path d="M-1 -1 L309 -1 L309 193 L-1 193 L-1 -1 Z"/>
</clipPath>
<clipPath clipPathUnits="userSpaceOnUse" id="clipPath10">
<path d="M146 59 L165 59 L165 72 L146 72 L146 59 Z"/>
</clipPath>
</defs>
<g font-size="11" fill="white" stroke-linejoin="round" stroke="white" stroke-width="0" stroke-miterlimit="0">
<rect x="10" y="122" clip-path="url(#clipPath1)" width="288" rx="0" ry="0" height="60" stroke="none"/>
</g>
<g font-size="9" font-family="'Helvetica'" stroke-linejoin="round" font-weight="bold" stroke-width="0" stroke-miterlimit="0">
<text xml:space="preserve" x="109" y="132" clip-path="url(#clipPath2)" stroke="none">SM_ObjectActivation</text>
</g>
<g font-size="11" stroke-width="1.1" stroke-linecap="butt">
<line clip-path="url(#clipPath3)" fill="none" x1="10" x2="298" y1="137" y2="137"/>
<text x="15" font-size="9" y="168" clip-path="url(#clipPath4)" font-family="'Helvetica'" stroke="none" xml:space="preserve"> + registerCompletionEvent(  in stateActivation: StateActivation [1])</text>
<line clip-path="url(#clipPath5)" fill="none" x1="10" x2="298" y1="159" y2="159"/>
<rect x="10" y="122" clip-path="url(#clipPath1)" fill="none" width="287" rx="0" ry="0" height="59"/>
<line clip-path="url(#clipPath1)" fill="none" x1="14" x2="14" y1="122" y2="181"/>
<line clip-path="url(#clipPath1)" fill="none" x1="293" x2="293" y1="122" y2="181"/>
<line clip-path="url(#clipPath1)" fill="none" x1="12" x2="12" y1="123" y2="180" stroke="white" stroke-width="3.1"/>
<line clip-path="url(#clipPath1)" fill="none" x1="295" x2="295" y1="123" y2="180" stroke="white" stroke-width="3.1"/>
<rect x="34" y="10" clip-path="url(#clipPath6)" fill="silver" width="239" rx="0" ry="0" height="50" stroke="none" stroke-width="3.1"/>
</g>
<g stroke-width="3.1" font-size="9" font-family="'Helvetica'" font-weight="bold" stroke-linecap="butt">
<text xml:space="preserve" x="50" y="31" clip-path="url(#clipPath7)" stroke="none">(fUML_Semantics::Semantics::CommonBehavior)</text>
<text xml:space="preserve" x="119" y="43" clip-path="url(#clipPath8)" stroke="none">ObjectActivation</text>
</g>
<g font-size="11" stroke-width="1.1" stroke-linecap="butt">
<rect x="34" y="10" clip-path="url(#clipPath6)" fill="none" width="238" rx="0" ry="0" height="49"/>
<line clip-path="url(#clipPath6)" fill="none" x1="38" x2="38" y1="10" y2="59"/>
<line clip-path="url(#clipPath6)" fill="none" x1="268" x2="268" y1="10" y2="59"/>
<line clip-path="url(#clipPath6)" fill="none" x1="36" x2="36" y1="11" y2="58" stroke="silver" stroke-width="3.1"/>
<line clip-path="url(#clipPath6)" fill="none" x1="270" x2="270" y1="11" y2="58" stroke="silver" stroke-width="3.1"/>
<line clip-path="url(#clipPath9)" fill="none" text-rendering="optimizeLegibility" x1="155" x2="155" y1="122" y2="60"/>
</g>
<g stroke-linecap="butt" font-size="9" fill="white" text-rendering="optimizeLegibility" stroke="white" stroke-width="1.1">
<polygon clip-path="url(#clipPath10)" points=" 155 60 163 70 147 70" stroke="none"/>
<polygon fill="none" clip-path="url(#clipPath10)" points=" 155 60 163 70 147 70" stroke="black"/>
</g>
</g>
</svg>
