<?xml version="1.0" encoding="UTF-8"?><svg xmlns="http://www.w3.org/2000/svg" xmlns:xlink="http://www.w3.org/1999/xlink" stroke-dasharray="none" shape-rendering="auto" font-family="'Dialog'" width="707" text-rendering="auto" fill-opacity="1" contentScriptType="text/ecmascript" color-interpolation="auto" color-rendering="auto" preserveAspectRatio="xMidYMid meet" font-size="12" viewBox="0 0 707 201" fill="black" stroke="black" image-rendering="auto" stroke-miterlimit="10" zoomAndPan="magnify" version="1.0" stroke-linecap="square" stroke-linejoin="miter" contentStyleType="text/css" font-style="normal" height="201" stroke-width="1" stroke-dashoffset="0" font-weight="normal" stroke-opacity="1">
<!--Generated by the Batik Graphics2D SVG Generator-->
<defs id="genericDefs"/>
<g>
<defs id="defs1">
<clipPath clipPathUnits="userSpaceOnUse" id="clipPath1">
<path d="M9 123 L299 123 L299 185 L9 185 L9 123 Z"/>
</clipPath>
<clipPath clipPathUnits="userSpaceOnUse" id="clipPath2">
<path d="M108 126 L199 126 L199 139 L108 139 L108 126 Z"/>
</clipPath>
<clipPath clipPathUnits="userSpaceOnUse" id="clipPath3">
<path d="M9 138 L299 138 L299 161 L9 161 L9 138 Z"/>
</clipPath>
<clipPath clipPathUnits="userSpaceOnUse" id="clipPath4">
<path d="M14 162 L294 162 L294 175 L14 175 L14 162 Z"/>
</clipPath>
<clipPath clipPathUnits="userSpaceOnUse" id="clipPath5">
<path d="M9 160 L299 160 L299 184 L9 184 L9 160 Z"/>
</clipPath>
<clipPath clipPathUnits="userSpaceOnUse" id="clipPath6">
<path d="M34 21 L275 21 L275 73 L34 73 L34 21 Z"/>
</clipPath>
<clipPath clipPathUnits="userSpaceOnUse" id="clipPath7">
<path d="M35 35 L275 35 L275 48 L35 48 L35 35 Z"/>
</clipPath>
<clipPath clipPathUnits="userSpaceOnUse" id="clipPath8">
<path d="M119 47 L192 47 L192 60 L119 60 L119 47 Z"/>
</clipPath>
<clipPath clipPathUnits="userSpaceOnUse" id="clipPath9">
<path d="M456 127 L697 127 L697 179 L456 179 L456 127 Z"/>
</clipPath>
<clipPath clipPathUnits="userSpaceOnUse" id="clipPath10">
<path d="M457 141 L697 141 L697 154 L457 154 L457 141 Z"/>
</clipPath>
<clipPath clipPathUnits="userSpaceOnUse" id="clipPath11">
<path d="M521 153 L634 153 L634 166 L521 166 L521 153 Z"/>
</clipPath>
<clipPath clipPathUnits="userSpaceOnUse" id="clipPath12">
<path d="M457 22 L698 22 L698 74 L457 74 L457 22 Z"/>
</clipPath>
<clipPath clipPathUnits="userSpaceOnUse" id="clipPath13">
<path d="M540 41 L616 41 L616 54 L540 54 L540 41 Z"/>
</clipPath>
<clipPath clipPathUnits="userSpaceOnUse" id="clipPath14">
<path d="M-1 -1 L708 -1 L708 202 L-1 202 L-1 -1 Z"/>
</clipPath>
<clipPath clipPathUnits="userSpaceOnUse" id="clipPath15">
<path d="M144 71 L163 71 L163 84 L144 84 L144 71 Z"/>
</clipPath>
<clipPath clipPathUnits="userSpaceOnUse" id="clipPath16">
<path d="M298 155 L377 155 L377 168 L298 168 L298 155 Z"/>
</clipPath>
<clipPath clipPathUnits="userSpaceOnUse" id="clipPath17">
<path d="M349 138 L438 138 L438 151 L349 151 L349 138 Z"/>
</clipPath>
<clipPath clipPathUnits="userSpaceOnUse" id="clipPath18">
<path d="M299 139 L309 139 L309 152 L299 152 L299 139 Z"/>
</clipPath>
<clipPath clipPathUnits="userSpaceOnUse" id="clipPath19">
<path d="M431 154 L440 154 L440 167 L431 167 L431 154 Z"/>
</clipPath>
<clipPath clipPathUnits="userSpaceOnUse" id="clipPath20">
<path d="M438 145 L459 145 L459 160 L438 160 L438 145 Z"/>
</clipPath>
<clipPath clipPathUnits="userSpaceOnUse" id="clipPath21">
<path d="M384 35 L438 35 L438 48 L384 48 L384 35 Z"/>
</clipPath>
<clipPath clipPathUnits="userSpaceOnUse" id="clipPath22">
<path d="M431 49 L440 49 L440 62 L431 62 L431 49 Z"/>
</clipPath>
<clipPath clipPathUnits="userSpaceOnUse" id="clipPath23">
<path d="M292 49 L313 49 L313 62 L292 62 L292 49 Z"/>
</clipPath>
<clipPath clipPathUnits="userSpaceOnUse" id="clipPath24">
<path d="M439 41 L460 41 L460 56 L439 56 L439 41 Z"/>
</clipPath>
<clipPath clipPathUnits="userSpaceOnUse" id="clipPath25">
<path d="M273 43 L292 43 L292 54 L273 54 L273 43 Z"/>
</clipPath>
<clipPath clipPathUnits="userSpaceOnUse" id="clipPath26">
<path d="M567 72 L586 72 L586 85 L567 85 L567 72 Z"/>
</clipPath>
</defs>
<g font-size="11" fill="white" stroke-linejoin="round" stroke="white" stroke-width="0" stroke-miterlimit="0">
<rect x="10" y="124" clip-path="url(#clipPath1)" width="288" rx="0" ry="0" height="60" stroke="none"/>
</g>
<g font-size="9" font-family="'Helvetica'" stroke-linejoin="round" font-weight="bold" stroke-width="0" stroke-miterlimit="0">
<text xml:space="preserve" x="109" y="134" clip-path="url(#clipPath2)" stroke="none">SM_ObjectActivation</text>
</g>
<g font-size="11" stroke-width="1.1" stroke-linecap="butt">
<line clip-path="url(#clipPath3)" fill="none" x1="10" x2="298" y1="139" y2="139"/>
<text x="15" font-size="9" y="170" clip-path="url(#clipPath4)" font-family="'Helvetica'" stroke="none" xml:space="preserve"> + registerCompletionEvent(  in stateActivation: StateActivation [1])</text>
<line clip-path="url(#clipPath5)" fill="none" x1="10" x2="298" y1="161" y2="161"/>
<rect x="10" y="124" clip-path="url(#clipPath1)" fill="none" width="287" rx="0" ry="0" height="59"/>
<line clip-path="url(#clipPath1)" fill="none" x1="14" x2="14" y1="124" y2="183"/>
<line clip-path="url(#clipPath1)" fill="none" x1="293" x2="293" y1="124" y2="183"/>
<line clip-path="url(#clipPath1)" fill="none" x1="12" x2="12" y1="125" y2="182" stroke="white" stroke-width="3.1"/>
<line clip-path="url(#clipPath1)" fill="none" x1="295" x2="295" y1="125" y2="182" stroke="white" stroke-width="3.1"/>
<rect x="35" y="22" clip-path="url(#clipPath6)" fill="silver" width="239" rx="0" ry="0" height="50" stroke="none" stroke-width="3.1"/>
</g>
<g stroke-width="3.1" font-size="9" font-family="'Helvetica'" font-weight="bold" stroke-linecap="butt">
<text xml:space="preserve" x="51" y="43" clip-path="url(#clipPath7)" stroke="none">(fUML_Semantics::Semantics::CommonBehavior)</text>
<text xml:space="preserve" x="120" y="55" clip-path="url(#clipPath8)" stroke="none">ObjectActivation</text>
</g>
<g font-size="11" stroke-width="1.1" stroke-linecap="butt">
<rect x="35" y="22" clip-path="url(#clipPath6)" fill="none" width="238" rx="0" ry="0" height="49"/>
<line clip-path="url(#clipPath6)" fill="none" x1="39" x2="39" y1="22" y2="71"/>
<line clip-path="url(#clipPath6)" fill="none" x1="269" x2="269" y1="22" y2="71"/>
<line clip-path="url(#clipPath6)" fill="none" x1="37" x2="37" y1="23" y2="70" stroke="silver" stroke-width="3.1"/>
<line clip-path="url(#clipPath6)" fill="none" x1="271" x2="271" y1="23" y2="70" stroke="silver" stroke-width="3.1"/>
<rect x="457" y="128" clip-path="url(#clipPath9)" fill="white" width="239" rx="0" ry="0" height="50" stroke="none" stroke-width="3.1"/>
</g>
<g stroke-width="3.1" font-size="9" font-family="'Helvetica'" font-weight="bold" stroke-linecap="butt">
<text xml:space="preserve" x="477" y="149" clip-path="url(#clipPath10)" stroke="none">(PSSM_Semantics::Semantics::StateMachines)</text>
<text xml:space="preserve" x="522" y="161" clip-path="url(#clipPath11)" stroke="none">DeferredEventOccurrence</text>
</g>
<g font-size="11" stroke-width="1.1" stroke-linecap="butt">
<rect x="457" y="128" clip-path="url(#clipPath9)" fill="none" width="238" rx="0" ry="0" height="49"/>
<rect x="458" y="23" clip-path="url(#clipPath12)" fill="white" width="239" rx="0" ry="0" height="50" stroke="none"/>
<text x="541" font-size="9" y="49" clip-path="url(#clipPath13)" font-family="'Helvetica'" stroke="none" font-weight="bold" xml:space="preserve">EventOccurrence</text>
<rect x="458" y="23" clip-path="url(#clipPath12)" fill="none" width="238" rx="0" ry="0" height="49"/>
<line clip-path="url(#clipPath14)" fill="none" text-rendering="optimizeLegibility" x1="153" x2="153" y1="124" y2="72"/>
</g>
<g stroke-linecap="butt" font-size="9" fill="white" text-rendering="optimizeLegibility" font-family="'Helvetica'" stroke="white" stroke-width="1.1">
<polygon clip-path="url(#clipPath15)" points=" 153 72 161 82 145 82" stroke="none"/>
<polygon fill="none" clip-path="url(#clipPath15)" points=" 153 72 161 82 145 82" stroke="black"/>
<line clip-path="url(#clipPath14)" fill="none" x1="298" x2="457" y1="152" y2="152" stroke="black"/>
<text x="299" y="163" clip-path="url(#clipPath16)" fill="black" stroke="none" xml:space="preserve"> + objectActivation</text>
<text x="350" y="146" clip-path="url(#clipPath17)" fill="black" stroke="none" xml:space="preserve"> + deferredEventPool</text>
<text x="300" y="147" clip-path="url(#clipPath18)" fill="black" stroke="none" xml:space="preserve"> 1</text>
<text x="432" y="162" clip-path="url(#clipPath19)" fill="black" stroke="none" xml:space="preserve"> *</text>
<polygon fill="black" clip-path="url(#clipPath20)" points=" 457 153 455 155 453 155 451 153 451 152 439 158 451 152 439 146 451 152 451 151 453 149 455 149 457 151" stroke="none"/>
<polygon fill="none" clip-path="url(#clipPath20)" points=" 457 153 455 155 453 155 451 153 451 152 439 158 451 152 439 146 451 152 451 151 453 149 455 149 457 151" stroke="black"/>
<line clip-path="url(#clipPath14)" fill="none" x1="458" x2="274" y1="48" y2="48" stroke="black"/>
<text x="385" y="43" clip-path="url(#clipPath21)" fill="black" stroke="none" xml:space="preserve"> + eventPool</text>
<text x="432" y="57" clip-path="url(#clipPath22)" fill="black" stroke="none" xml:space="preserve"> *</text>
<text x="293" y="57" clip-path="url(#clipPath23)" fill="black" stroke="none" xml:space="preserve"> 0..1</text>
<polygon fill="black" clip-path="url(#clipPath24)" points=" 458 49 456 51 454 51 452 49 452 48 440 54 452 48 440 42 452 48 452 47 454 45 456 45 458 47" stroke="none"/>
<polygon fill="none" clip-path="url(#clipPath24)" points=" 458 49 456 51 454 51 452 49 452 48 440 54 452 48 440 42 452 48 452 47 454 45 456 45 458 47" stroke="black"/>
<polygon fill="black" clip-path="url(#clipPath25)" points=" 274 48 282 44 290 48 282 52" stroke="none"/>
<polygon fill="none" clip-path="url(#clipPath25)" points=" 274 48 282 44 290 48 282 52" stroke="black"/>
<line clip-path="url(#clipPath14)" fill="none" x1="576" x2="576" y1="128" y2="73" stroke="black"/>
<polygon clip-path="url(#clipPath26)" points=" 576 73 584 83 568 83" stroke="none"/>
<polygon fill="none" clip-path="url(#clipPath26)" points=" 576 73 584 83 568 83" stroke="black"/>
</g>
</g>
</svg>
