<?xml version="1.0" encoding="UTF-8"?><svg xmlns="http://www.w3.org/2000/svg" xmlns:xlink="http://www.w3.org/1999/xlink" stroke-dasharray="none" shape-rendering="auto" font-family="'Dialog'" width="901" text-rendering="auto" fill-opacity="1" contentScriptType="text/ecmascript" color-interpolation="auto" color-rendering="auto" preserveAspectRatio="xMidYMid meet" font-size="12" viewBox="0 0 901 232" fill="black" stroke="black" image-rendering="auto" stroke-miterlimit="10" zoomAndPan="magnify" version="1.0" stroke-linecap="square" stroke-linejoin="miter" contentStyleType="text/css" font-style="normal" height="232" stroke-width="1" stroke-dashoffset="0" font-weight="normal" stroke-opacity="1">
<!--Generated by the Batik Graphics2D SVG Generator-->
<defs id="genericDefs"/>
<g>
<defs id="defs1">
<clipPath clipPathUnits="userSpaceOnUse" id="clipPath1">
<path d="M9 122 L498 122 L498 223 L9 223 L9 122 Z"/>
</clipPath>
<clipPath clipPathUnits="userSpaceOnUse" id="clipPath2">
<path d="M208 125 L299 125 L299 137 L208 137 L208 125 Z"/>
</clipPath>
<clipPath clipPathUnits="userSpaceOnUse" id="clipPath3">
<path d="M14 138 L271 138 L271 150 L14 150 L14 138 Z"/>
</clipPath>
<clipPath clipPathUnits="userSpaceOnUse" id="clipPath4">
<path d="M14 148 L213 148 L213 160 L14 160 L14 148 Z"/>
</clipPath>
<clipPath clipPathUnits="userSpaceOnUse" id="clipPath5">
<path d="M14 158 L294 158 L294 170 L14 170 L14 158 Z"/>
</clipPath>
<clipPath clipPathUnits="userSpaceOnUse" id="clipPath6">
<path d="M14 168 L284 168 L284 180 L14 180 L14 168 Z"/>
</clipPath>
<clipPath clipPathUnits="userSpaceOnUse" id="clipPath7">
<path d="M14 178 L469 178 L469 190 L14 190 L14 178 Z"/>
</clipPath>
<clipPath clipPathUnits="userSpaceOnUse" id="clipPath8">
<path d="M14 188 L181 188 L181 200 L14 200 L14 188 Z"/>
</clipPath>
<clipPath clipPathUnits="userSpaceOnUse" id="clipPath9">
<path d="M9 136 L498 136 L498 223 L9 223 L9 136 Z"/>
</clipPath>
<clipPath clipPathUnits="userSpaceOnUse" id="clipPath10">
<path d="M143 21 L384 21 L384 73 L143 73 L143 21 Z"/>
</clipPath>
<clipPath clipPathUnits="userSpaceOnUse" id="clipPath11">
<path d="M159 36 L370 36 L370 48 L159 48 L159 36 Z"/>
</clipPath>
<clipPath clipPathUnits="userSpaceOnUse" id="clipPath12">
<path d="M228 47 L301 47 L301 59 L228 59 L228 47 Z"/>
</clipPath>
<clipPath clipPathUnits="userSpaceOnUse" id="clipPath13">
<path d="M650 152 L891 152 L891 204 L650 204 L650 152 Z"/>
</clipPath>
<clipPath clipPathUnits="userSpaceOnUse" id="clipPath14">
<path d="M670 167 L872 167 L872 179 L670 179 L670 167 Z"/>
</clipPath>
<clipPath clipPathUnits="userSpaceOnUse" id="clipPath15">
<path d="M715 178 L828 178 L828 190 L715 190 L715 178 Z"/>
</clipPath>
<clipPath clipPathUnits="userSpaceOnUse" id="clipPath16">
<path d="M651 21 L892 21 L892 73 L651 73 L651 21 Z"/>
</clipPath>
<clipPath clipPathUnits="userSpaceOnUse" id="clipPath17">
<path d="M734 41 L810 41 L810 53 L734 53 L734 41 Z"/>
</clipPath>
<clipPath clipPathUnits="userSpaceOnUse" id="clipPath18">
<path d="M-1 -1 L902 -1 L902 233 L-1 233 L-1 -1 Z"/>
</clipPath>
<clipPath clipPathUnits="userSpaceOnUse" id="clipPath19">
<path d="M253 71 L272 71 L272 84 L253 84 L253 71 Z"/>
</clipPath>
<clipPath clipPathUnits="userSpaceOnUse" id="clipPath20">
<path d="M499 181 L578 181 L578 193 L499 193 L499 181 Z"/>
</clipPath>
<clipPath clipPathUnits="userSpaceOnUse" id="clipPath21">
<path d="M543 160 L632 160 L632 172 L543 172 L543 160 Z"/>
</clipPath>
<clipPath clipPathUnits="userSpaceOnUse" id="clipPath22">
<path d="M500 159 L510 159 L510 171 L500 171 L500 159 Z"/>
</clipPath>
<clipPath clipPathUnits="userSpaceOnUse" id="clipPath23">
<path d="M621 181 L630 181 L630 193 L621 193 L621 181 Z"/>
</clipPath>
<clipPath clipPathUnits="userSpaceOnUse" id="clipPath24">
<path d="M632 170 L653 170 L653 185 L632 185 L632 170 Z"/>
</clipPath>
<clipPath clipPathUnits="userSpaceOnUse" id="clipPath25">
<path d="M571 31 L625 31 L625 43 L571 43 L571 31 Z"/>
</clipPath>
<clipPath clipPathUnits="userSpaceOnUse" id="clipPath26">
<path d="M620 54 L629 54 L629 66 L620 66 L620 54 Z"/>
</clipPath>
<clipPath clipPathUnits="userSpaceOnUse" id="clipPath27">
<path d="M397 53 L418 53 L418 65 L397 65 L397 53 Z"/>
</clipPath>
<clipPath clipPathUnits="userSpaceOnUse" id="clipPath28">
<path d="M633 41 L654 41 L654 56 L633 56 L633 41 Z"/>
</clipPath>
<clipPath clipPathUnits="userSpaceOnUse" id="clipPath29">
<path d="M382 43 L401 43 L401 54 L382 54 L382 43 Z"/>
</clipPath>
<clipPath clipPathUnits="userSpaceOnUse" id="clipPath30">
<path d="M761 71 L780 71 L780 84 L761 84 L761 71 Z"/>
</clipPath>
</defs>
<g font-size="11" fill="white" stroke-linejoin="round" stroke="white" stroke-width="0" stroke-miterlimit="0">
<rect x="10" y="123" clip-path="url(#clipPath1)" width="487" rx="0" ry="0" height="99" stroke="none"/>
</g>
<g font-size="9" font-family="'Arial'" stroke-linejoin="round" font-weight="bold" stroke-width="0" stroke-miterlimit="0">
<text xml:space="preserve" x="209" y="135" clip-path="url(#clipPath2)" stroke="none">SM_ObjectActivation</text>
<text x="15" y="148" clip-path="url(#clipPath3)" stroke="none" font-weight="normal" xml:space="preserve"> + getNextCompletionEvent(): CompletionEventOccurrence [1]</text>
<text x="15" y="158" clip-path="url(#clipPath4)" stroke="none" font-weight="normal" xml:space="preserve"> # getDeferredEventInsertionIndex(): Integer [1]</text>
<text x="15" y="168" clip-path="url(#clipPath5)" stroke="none" font-weight="normal" xml:space="preserve"> + registerCompletionEvent(  in stateActivation: StateActivation [1])</text>
<text x="15" y="178" clip-path="url(#clipPath6)" stroke="none" font-weight="normal" xml:space="preserve"> + releaseDeferredEvents(  in deferringState: StateActivation [1])</text>
<text x="15" y="188" clip-path="url(#clipPath7)" stroke="none" font-weight="normal" xml:space="preserve"> + registerDeferredEvent(  in eventOccurrence: EventOccurrence [1],   in stateActivation: StateActivation [1])</text>
<text x="15" y="198" clip-path="url(#clipPath8)" stroke="none" font-weight="normal" xml:space="preserve"> + getNextEvent(): EventOccurrence [1]</text>
</g>
<g font-size="11" stroke-width="1.1" stroke-linecap="butt">
<line clip-path="url(#clipPath9)" fill="none" x1="10" x2="497" y1="137" y2="137"/>
<rect x="10" y="123" clip-path="url(#clipPath1)" fill="none" width="486" rx="0" ry="0" height="98"/>
<line clip-path="url(#clipPath1)" fill="none" x1="14" x2="14" y1="123" y2="221"/>
<line clip-path="url(#clipPath1)" fill="none" x1="492" x2="492" y1="123" y2="221"/>
<line clip-path="url(#clipPath1)" fill="none" x1="12" x2="12" y1="124" y2="220" stroke="white" stroke-width="3.1"/>
<line clip-path="url(#clipPath1)" fill="none" x1="494" x2="494" y1="124" y2="220" stroke="white" stroke-width="3.1"/>
<rect x="144" y="22" clip-path="url(#clipPath10)" fill="silver" width="239" rx="0" ry="0" height="50" stroke="none" stroke-width="3.1"/>
</g>
<g stroke-width="3.1" font-size="9" font-family="'Arial'" font-weight="bold" stroke-linecap="butt">
<text xml:space="preserve" x="160" y="46" clip-path="url(#clipPath11)" stroke="none">(fUML_Semantics::Semantics::CommonBehavior)</text>
<text xml:space="preserve" x="229" y="57" clip-path="url(#clipPath12)" stroke="none">ObjectActivation</text>
</g>
<g font-size="11" stroke-width="1.1" stroke-linecap="butt">
<rect x="144" y="22" clip-path="url(#clipPath10)" fill="none" width="238" rx="0" ry="0" height="49"/>
<line clip-path="url(#clipPath10)" fill="none" x1="148" x2="148" y1="22" y2="71"/>
<line clip-path="url(#clipPath10)" fill="none" x1="378" x2="378" y1="22" y2="71"/>
<line clip-path="url(#clipPath10)" fill="none" x1="146" x2="146" y1="23" y2="70" stroke="silver" stroke-width="3.1"/>
<line clip-path="url(#clipPath10)" fill="none" x1="380" x2="380" y1="23" y2="70" stroke="silver" stroke-width="3.1"/>
<rect x="651" y="153" clip-path="url(#clipPath13)" fill="white" width="239" rx="0" ry="0" height="50" stroke="none" stroke-width="3.1"/>
</g>
<g stroke-width="3.1" font-size="9" font-family="'Arial'" font-weight="bold" stroke-linecap="butt">
<text xml:space="preserve" x="671" y="177" clip-path="url(#clipPath14)" stroke="none">(PSSM_Semantics::Semantics::StateMachines)</text>
<text xml:space="preserve" x="716" y="188" clip-path="url(#clipPath15)" stroke="none">DeferredEventOccurrence</text>
</g>
<g font-size="11" stroke-width="1.1" stroke-linecap="butt">
<rect x="651" y="153" clip-path="url(#clipPath13)" fill="none" width="238" rx="0" ry="0" height="49"/>
<rect x="652" y="22" clip-path="url(#clipPath16)" fill="white" width="239" rx="0" ry="0" height="50" stroke="none"/>
<text x="735" font-size="9" y="51" clip-path="url(#clipPath17)" font-family="'Arial'" stroke="none" font-weight="bold" xml:space="preserve">EventOccurrence</text>
<rect x="652" y="22" clip-path="url(#clipPath16)" fill="none" width="238" rx="0" ry="0" height="49"/>
<line clip-path="url(#clipPath18)" fill="none" text-rendering="optimizeLegibility" x1="262" x2="262" y1="123" y2="72"/>
</g>
<g stroke-linecap="butt" font-size="9" fill="white" text-rendering="optimizeLegibility" font-family="'Arial'" stroke="white" stroke-width="1.1">
<polygon clip-path="url(#clipPath19)" points=" 262 72 270 82 254 82" stroke="none"/>
<polygon fill="none" clip-path="url(#clipPath19)" points=" 262 72 270 82 254 82" stroke="black"/>
<line clip-path="url(#clipPath18)" fill="none" x1="497" x2="651" y1="177" y2="177" stroke="black"/>
<text x="500" y="191" clip-path="url(#clipPath20)" fill="black" stroke="none" xml:space="preserve"> + objectActivation</text>
<text x="544" y="170" clip-path="url(#clipPath21)" fill="black" stroke="none" xml:space="preserve"> + deferredEventPool</text>
<text x="501" y="169" clip-path="url(#clipPath22)" fill="black" stroke="none" xml:space="preserve"> 1</text>
<text x="622" y="191" clip-path="url(#clipPath23)" fill="black" stroke="none" xml:space="preserve"> *</text>
<polygon fill="black" clip-path="url(#clipPath24)" points=" 651 178 649 180 647 180 645 178 645 177 633 183 645 177 633 171 645 177 645 176 647 174 649 174 651 176" stroke="none"/>
<polygon fill="none" clip-path="url(#clipPath24)" points=" 651 178 649 180 647 180 645 178 645 177 633 183 645 177 633 171 645 177 645 176 647 174 649 174 651 176" stroke="black"/>
<line clip-path="url(#clipPath18)" fill="none" x1="652" x2="383" y1="48" y2="48" stroke="black"/>
<text x="572" y="41" clip-path="url(#clipPath25)" fill="black" stroke="none" xml:space="preserve"> + eventPool</text>
<text x="621" y="64" clip-path="url(#clipPath26)" fill="black" stroke="none" xml:space="preserve"> *</text>
<text x="398" y="63" clip-path="url(#clipPath27)" fill="black" stroke="none" xml:space="preserve"> 0..1</text>
<polygon fill="black" clip-path="url(#clipPath28)" points=" 652 49 650 51 648 51 646 49 646 48 634 54 646 48 634 42 646 48 646 47 648 45 650 45 652 47" stroke="none"/>
<polygon fill="none" clip-path="url(#clipPath28)" points=" 652 49 650 51 648 51 646 49 646 48 634 54 646 48 634 42 646 48 646 47 648 45 650 45 652 47" stroke="black"/>
<polygon fill="black" clip-path="url(#clipPath29)" points=" 383 48 391 44 399 48 391 52" stroke="none"/>
<polygon fill="none" clip-path="url(#clipPath29)" points=" 383 48 391 44 399 48 391 52" stroke="black"/>
<line clip-path="url(#clipPath18)" fill="none" x1="770" x2="770" y1="153" y2="72" stroke="black"/>
<polygon clip-path="url(#clipPath30)" points=" 770 72 778 82 762 82" stroke="none"/>
<polygon fill="none" clip-path="url(#clipPath30)" points=" 770 72 778 82 762 82" stroke="black"/>
</g>
</g>
</svg>
