<?xml version="1.0" encoding="UTF-8"?><svg xmlns="http://www.w3.org/2000/svg" xmlns:xlink="http://www.w3.org/1999/xlink" stroke-dasharray="none" shape-rendering="auto" font-family="'Dialog'" width="308" text-rendering="auto" fill-opacity="1" contentScriptType="text/ecmascript" color-interpolation="auto" color-rendering="auto" preserveAspectRatio="xMidYMid meet" font-size="12" viewBox="0 0 308 303" fill="black" stroke="black" image-rendering="auto" stroke-miterlimit="10" zoomAndPan="magnify" version="1.0" stroke-linecap="square" stroke-linejoin="miter" contentStyleType="text/css" font-style="normal" height="303" stroke-width="1" stroke-dashoffset="0" font-weight="normal" stroke-opacity="1">
<!--Generated by the Batik Graphics2D SVG Generator-->
<defs id="genericDefs"/>
<g>
<defs id="defs1">
<clipPath clipPathUnits="userSpaceOnUse" id="clipPath1">
<path d="M9 110 L299 110 L299 172 L9 172 L9 110 Z"/>
</clipPath>
<clipPath clipPathUnits="userSpaceOnUse" id="clipPath2">
<path d="M108 113 L199 113 L199 126 L108 126 L108 113 Z"/>
</clipPath>
<clipPath clipPathUnits="userSpaceOnUse" id="clipPath3">
<path d="M9 125 L299 125 L299 148 L9 148 L9 125 Z"/>
</clipPath>
<clipPath clipPathUnits="userSpaceOnUse" id="clipPath4">
<path d="M14 149 L294 149 L294 162 L14 162 L14 149 Z"/>
</clipPath>
<clipPath clipPathUnits="userSpaceOnUse" id="clipPath5">
<path d="M9 147 L299 147 L299 171 L9 171 L9 147 Z"/>
</clipPath>
<clipPath clipPathUnits="userSpaceOnUse" id="clipPath6">
<path d="M34 9 L275 9 L275 61 L34 61 L34 9 Z"/>
</clipPath>
<clipPath clipPathUnits="userSpaceOnUse" id="clipPath7">
<path d="M35 23 L275 23 L275 36 L35 36 L35 23 Z"/>
</clipPath>
<clipPath clipPathUnits="userSpaceOnUse" id="clipPath8">
<path d="M119 35 L192 35 L192 48 L119 48 L119 35 Z"/>
</clipPath>
<clipPath clipPathUnits="userSpaceOnUse" id="clipPath9">
<path d="M97 242 L212 242 L212 294 L97 294 L97 242 Z"/>
</clipPath>
<clipPath clipPathUnits="userSpaceOnUse" id="clipPath10">
<path d="M99 261 L212 261 L212 274 L99 274 L99 261 Z"/>
</clipPath>
<clipPath clipPathUnits="userSpaceOnUse" id="clipPath11">
<path d="M-1 -1 L309 -1 L309 304 L-1 304 L-1 -1 Z"/>
</clipPath>
<clipPath clipPathUnits="userSpaceOnUse" id="clipPath12">
<path d="M144 59 L163 59 L163 72 L144 72 L144 59 Z"/>
</clipPath>
<clipPath clipPathUnits="userSpaceOnUse" id="clipPath13">
<path d="M70 177 L149 177 L149 190 L70 190 L70 177 Z"/>
</clipPath>
<clipPath clipPathUnits="userSpaceOnUse" id="clipPath14">
<path d="M61 211 L150 211 L150 224 L61 224 L61 211 Z"/>
</clipPath>
<clipPath clipPathUnits="userSpaceOnUse" id="clipPath15">
<path d="M158 178 L168 178 L168 191 L158 191 L158 178 Z"/>
</clipPath>
<clipPath clipPathUnits="userSpaceOnUse" id="clipPath16">
<path d="M160 213 L169 213 L169 226 L160 226 L160 213 Z"/>
</clipPath>
<clipPath clipPathUnits="userSpaceOnUse" id="clipPath17">
<path d="M146 224 L161 224 L161 245 L146 245 L146 224 Z"/>
</clipPath>
</defs>
<g font-size="11" fill="white" stroke-linejoin="round" stroke="white" stroke-width="0" stroke-miterlimit="0">
<rect x="10" y="111" clip-path="url(#clipPath1)" width="288" rx="0" ry="0" height="60" stroke="none"/>
</g>
<g font-size="9" font-family="'Helvetica'" stroke-linejoin="round" font-weight="bold" stroke-width="0" stroke-miterlimit="0">
<text xml:space="preserve" x="109" y="121" clip-path="url(#clipPath2)" stroke="none">SM_ObjectActivation</text>
</g>
<g font-size="11" stroke-width="1.1" stroke-linecap="butt">
<line clip-path="url(#clipPath3)" fill="none" x1="10" x2="298" y1="126" y2="126"/>
<text x="15" font-size="9" y="157" clip-path="url(#clipPath4)" font-family="'Helvetica'" stroke="none" xml:space="preserve"> + registerCompletionEvent(  in stateActivation: StateActivation [1])</text>
<line clip-path="url(#clipPath5)" fill="none" x1="10" x2="298" y1="148" y2="148"/>
<rect x="10" y="111" clip-path="url(#clipPath1)" fill="none" width="287" rx="0" ry="0" height="59"/>
<line clip-path="url(#clipPath1)" fill="none" x1="14" x2="14" y1="111" y2="170"/>
<line clip-path="url(#clipPath1)" fill="none" x1="293" x2="293" y1="111" y2="170"/>
<line clip-path="url(#clipPath1)" fill="none" x1="12" x2="12" y1="112" y2="169" stroke="white" stroke-width="3.1"/>
<line clip-path="url(#clipPath1)" fill="none" x1="295" x2="295" y1="112" y2="169" stroke="white" stroke-width="3.1"/>
<rect x="35" y="10" clip-path="url(#clipPath6)" fill="silver" width="239" rx="0" ry="0" height="50" stroke="none" stroke-width="3.1"/>
</g>
<g stroke-width="3.1" font-size="9" font-family="'Helvetica'" font-weight="bold" stroke-linecap="butt">
<text xml:space="preserve" x="51" y="31" clip-path="url(#clipPath7)" stroke="none">(fUML_Semantics::Semantics::CommonBehavior)</text>
<text xml:space="preserve" x="120" y="43" clip-path="url(#clipPath8)" stroke="none">ObjectActivation</text>
</g>
<g font-size="11" stroke-width="1.1" stroke-linecap="butt">
<rect x="35" y="10" clip-path="url(#clipPath6)" fill="none" width="238" rx="0" ry="0" height="49"/>
<line clip-path="url(#clipPath6)" fill="none" x1="39" x2="39" y1="10" y2="59"/>
<line clip-path="url(#clipPath6)" fill="none" x1="269" x2="269" y1="10" y2="59"/>
<line clip-path="url(#clipPath6)" fill="none" x1="37" x2="37" y1="11" y2="58" stroke="silver" stroke-width="3.1"/>
<line clip-path="url(#clipPath6)" fill="none" x1="271" x2="271" y1="11" y2="58" stroke="silver" stroke-width="3.1"/>
<rect x="98" y="243" clip-path="url(#clipPath9)" fill="white" width="113" rx="0" ry="0" height="50" stroke="none" stroke-width="3.1"/>
</g>
<g stroke-width="3.1" font-size="9" font-family="'Helvetica'" font-weight="bold" stroke-linecap="butt">
<text xml:space="preserve" x="100" y="269" clip-path="url(#clipPath10)" stroke="none">DeferredEventOccurrence</text>
</g>
<g font-size="11" stroke-width="1.1" stroke-linecap="butt">
<rect x="98" y="243" clip-path="url(#clipPath9)" fill="none" width="112" rx="0" ry="0" height="49"/>
<line clip-path="url(#clipPath11)" fill="none" text-rendering="optimizeLegibility" x1="153" x2="153" y1="111" y2="60"/>
</g>
<g stroke-linecap="butt" font-size="9" fill="white" text-rendering="optimizeLegibility" font-family="'Helvetica'" stroke="white" stroke-width="1.1">
<polygon clip-path="url(#clipPath12)" points=" 153 60 161 70 145 70" stroke="none"/>
<polygon fill="none" clip-path="url(#clipPath12)" points=" 153 60 161 70 145 70" stroke="black"/>
<line clip-path="url(#clipPath11)" fill="none" x1="153" x2="153" y1="171" y2="243" stroke="black"/>
<text x="71" y="185" clip-path="url(#clipPath13)" fill="black" stroke="none" xml:space="preserve"> + objectActivation</text>
<text x="62" y="219" clip-path="url(#clipPath14)" fill="black" stroke="none" xml:space="preserve"> + deferredEventPool</text>
<text x="159" y="186" clip-path="url(#clipPath15)" fill="black" stroke="none" xml:space="preserve"> 1</text>
<text x="161" y="221" clip-path="url(#clipPath16)" fill="black" stroke="none" xml:space="preserve"> *</text>
<polygon fill="black" clip-path="url(#clipPath17)" points=" 152 243 150 241 150 239 152 237 153 237 147 225 153 237 159 225 153 237 154 237 156 239 156 241 154 243" stroke="none"/>
<polygon fill="none" clip-path="url(#clipPath17)" points=" 152 243 150 241 150 239 152 237 153 237 147 225 153 237 159 225 153 237 154 237 156 239 156 241 154 243" stroke="black"/>
</g>
</g>
</svg>
