<?xml version="1.0" encoding="UTF-8"?><svg xmlns="http://www.w3.org/2000/svg" xmlns:xlink="http://www.w3.org/1999/xlink" stroke-dasharray="none" shape-rendering="auto" font-family="'Dialog'" width="426" text-rendering="auto" fill-opacity="1" contentScriptType="text/ecmascript" color-interpolation="auto" color-rendering="auto" preserveAspectRatio="xMidYMid meet" font-size="12" viewBox="0 0 426 321" fill="black" stroke="black" image-rendering="auto" stroke-miterlimit="10" zoomAndPan="magnify" version="1.0" stroke-linecap="square" stroke-linejoin="miter" contentStyleType="text/css" font-style="normal" height="321" stroke-width="1" stroke-dashoffset="0" font-weight="normal" stroke-opacity="1">
<!--Generated by the Batik Graphics2D SVG Generator-->
<defs id="genericDefs"/>
<g>
<defs id="defs1">
<clipPath clipPathUnits="userSpaceOnUse" id="clipPath1">
<path d="M98 117 L224 117 L224 203 L98 203 L98 117 Z"/>
</clipPath>
<clipPath clipPathUnits="userSpaceOnUse" id="clipPath2">
<path d="M106 120 L215 120 L215 132 L106 132 L106 120 Z"/>
</clipPath>
<clipPath clipPathUnits="userSpaceOnUse" id="clipPath3">
<path d="M103 133 L151 133 L151 145 L103 145 L103 133 Z"/>
</clipPath>
<clipPath clipPathUnits="userSpaceOnUse" id="clipPath4">
<path d="M103 143 L155 143 L155 155 L103 155 L103 143 Z"/>
</clipPath>
<clipPath clipPathUnits="userSpaceOnUse" id="clipPath5">
<path d="M103 153 L155 153 L155 165 L103 165 L103 153 Z"/>
</clipPath>
<clipPath clipPathUnits="userSpaceOnUse" id="clipPath6">
<path d="M103 163 L185 163 L185 175 L103 175 L103 163 Z"/>
</clipPath>
<clipPath clipPathUnits="userSpaceOnUse" id="clipPath7">
<path d="M103 173 L186 173 L186 185 L103 185 L103 173 Z"/>
</clipPath>
<clipPath clipPathUnits="userSpaceOnUse" id="clipPath8">
<path d="M98 131 L224 131 L224 203 L98 203 L98 131 Z"/>
</clipPath>
<clipPath clipPathUnits="userSpaceOnUse" id="clipPath9">
<path d="M16 9 L307 9 L307 58 L16 58 L16 9 Z"/>
</clipPath>
<clipPath clipPathUnits="userSpaceOnUse" id="clipPath10">
<path d="M56 22 L269 22 L269 34 L56 34 L56 22 Z"/>
</clipPath>
<clipPath clipPathUnits="userSpaceOnUse" id="clipPath11">
<path d="M139 33 L185 33 L185 45 L139 45 L139 33 Z"/>
</clipPath>
<clipPath clipPathUnits="userSpaceOnUse" id="clipPath12">
<path d="M16 263 L307 263 L307 312 L16 312 L16 263 Z"/>
</clipPath>
<clipPath clipPathUnits="userSpaceOnUse" id="clipPath13">
<path d="M57 276 L268 276 L268 288 L57 288 L57 276 Z"/>
</clipPath>
<clipPath clipPathUnits="userSpaceOnUse" id="clipPath14">
<path d="M124 287 L200 287 L200 299 L124 299 L124 287 Z"/>
</clipPath>
<clipPath clipPathUnits="userSpaceOnUse" id="clipPath15">
<path d="M-1 -1 L427 -1 L427 322 L-1 322 L-1 -1 Z"/>
</clipPath>
<clipPath clipPathUnits="userSpaceOnUse" id="clipPath16">
<path d="M289 80 L377 80 L377 92 L289 92 L289 80 Z"/>
</clipPath>
<clipPath clipPathUnits="userSpaceOnUse" id="clipPath17">
<path d="M222 161 L243 161 L243 173 L222 173 L222 161 Z"/>
</clipPath>
<clipPath clipPathUnits="userSpaceOnUse" id="clipPath18">
<path d="M274 81 L284 81 L284 93 L274 93 L274 81 Z"/>
</clipPath>
<clipPath clipPathUnits="userSpaceOnUse" id="clipPath19">
<path d="M279 56 L294 56 L294 77 L279 77 L279 56 Z"/>
</clipPath>
<clipPath clipPathUnits="userSpaceOnUse" id="clipPath20">
<path d="M148 56 L167 56 L167 69 L148 69 L148 56 Z"/>
</clipPath>
<clipPath clipPathUnits="userSpaceOnUse" id="clipPath21">
<path d="M161 233 L284 233 L284 245 L161 245 L161 233 Z"/>
</clipPath>
<clipPath clipPathUnits="userSpaceOnUse" id="clipPath22">
<path d="M133 204 L154 204 L154 216 L133 216 L133 204 Z"/>
</clipPath>
<clipPath clipPathUnits="userSpaceOnUse" id="clipPath23">
<path d="M145 232 L155 232 L155 244 L145 244 L145 232 Z"/>
</clipPath>
<clipPath clipPathUnits="userSpaceOnUse" id="clipPath24">
<path d="M150 245 L165 245 L165 266 L150 266 L150 245 Z"/>
</clipPath>
</defs>
<g font-size="11" fill="white" stroke-linejoin="round" stroke="white" stroke-width="0" stroke-miterlimit="0">
<rect x="99" y="118" clip-path="url(#clipPath1)" width="124" rx="0" ry="0" height="84" stroke="none"/>
</g>
<g font-size="9" font-family="'Arial'" stroke-linejoin="round" font-weight="bold" stroke-width="0" stroke-miterlimit="0">
<text xml:space="preserve" x="107" y="130" clip-path="url(#clipPath2)" stroke="none">EventTriggeredExecution</text>
<text x="104" y="143" clip-path="url(#clipPath3)" stroke="none" font-weight="normal" xml:space="preserve"> + finalize()</text>
<text x="104" y="153" clip-path="url(#clipPath4)" stroke="none" font-weight="normal" xml:space="preserve"> + execute()</text>
<text x="104" y="163" clip-path="url(#clipPath5)" stroke="none" font-weight="normal" xml:space="preserve"> + initialize()</text>
<text x="104" y="173" clip-path="url(#clipPath6)" stroke="none" font-weight="normal" xml:space="preserve"> + copy(): Value [1]</text>
<text x="104" y="183" clip-path="url(#clipPath7)" stroke="none" font-weight="normal" xml:space="preserve"> + new_(): Value [1]</text>
</g>
<g font-size="11" stroke-width="1.1" stroke-linecap="butt">
<line clip-path="url(#clipPath8)" fill="none" x1="99" x2="223" y1="132" y2="132"/>
<rect x="99" y="118" clip-path="url(#clipPath1)" fill="none" width="123" rx="0" ry="0" height="83"/>
<rect x="17" y="10" clip-path="url(#clipPath9)" fill="silver" width="289" rx="0" ry="0" height="47" stroke="none"/>
</g>
<g stroke-linecap="butt" font-size="9" font-family="'Arial'" font-style="italic" font-weight="bold" stroke-width="1.1">
<text xml:space="preserve" x="57" y="32" clip-path="url(#clipPath10)" stroke="none">(fUML_Semantics::Semantics::CommonBehavior)</text>
<text xml:space="preserve" x="140" y="43" clip-path="url(#clipPath11)" stroke="none">Execution</text>
</g>
<g font-size="11" stroke-width="1.1" stroke-linecap="butt">
<rect x="17" y="10" clip-path="url(#clipPath9)" fill="none" width="288" rx="0" ry="0" height="46"/>
<rect x="17" y="264" clip-path="url(#clipPath12)" fill="silver" width="289" rx="0" ry="0" height="47" stroke="none"/>
<text x="58" font-size="9" y="286" clip-path="url(#clipPath13)" font-family="'Arial'" stroke="none" font-weight="bold" xml:space="preserve">(fUML_Semantics::Semantics::CommonBehavior)</text>
<text x="125" font-size="9" y="297" clip-path="url(#clipPath14)" font-family="'Arial'" stroke="none" font-weight="bold" xml:space="preserve">EventOccurrence</text>
<rect x="17" y="264" clip-path="url(#clipPath12)" fill="none" width="288" rx="0" ry="0" height="46"/>
<line clip-path="url(#clipPath15)" fill="none" text-rendering="optimizeLegibility" x1="223" x2="286" y1="157" y2="157"/>
<line clip-path="url(#clipPath15)" fill="none" text-rendering="optimizeLegibility" x1="286" x2="286" y1="157" y2="57"/>
<text x="290" font-size="9" y="90" clip-path="url(#clipPath16)" text-rendering="optimizeLegibility" font-family="'Arial'" stroke="none" xml:space="preserve"> + wrappedExecution</text>
<text x="223" font-size="9" y="171" clip-path="url(#clipPath17)" text-rendering="optimizeLegibility" font-family="'Arial'" stroke="none" xml:space="preserve"> 0..1</text>
<text x="275" font-size="9" y="91" clip-path="url(#clipPath18)" text-rendering="optimizeLegibility" font-family="'Arial'" stroke="none" xml:space="preserve"> 1</text>
<polygon text-rendering="optimizeLegibility" clip-path="url(#clipPath19)" points=" 287 57 289 59 289 61 287 63 286 63 292 75 286 63 280 75 286 63 285 63 283 61 283 59 285 57" stroke="none"/>
<polygon fill="none" text-rendering="optimizeLegibility" clip-path="url(#clipPath19)" points=" 287 57 289 59 289 61 287 63 286 63 292 75 286 63 280 75 286 63 285 63 283 61 283 59 285 57"/>
<line clip-path="url(#clipPath15)" fill="none" text-rendering="optimizeLegibility" x1="157" x2="157" y1="118" y2="57"/>
</g>
<g stroke-linecap="butt" font-size="9" fill="white" text-rendering="optimizeLegibility" font-family="'Arial'" stroke="white" stroke-width="1.1">
<polygon clip-path="url(#clipPath20)" points=" 157 57 165 67 149 67" stroke="none"/>
<polygon fill="none" clip-path="url(#clipPath20)" points=" 157 57 165 67 149 67" stroke="black"/>
<line clip-path="url(#clipPath15)" fill="none" x1="157" x2="157" y1="202" y2="264" stroke="black"/>
<text x="162" y="243" clip-path="url(#clipPath21)" fill="black" stroke="none" xml:space="preserve"> + triggeringEventOccurrence</text>
<text x="134" y="214" clip-path="url(#clipPath22)" fill="black" stroke="none" xml:space="preserve"> 0..1</text>
<text x="146" y="242" clip-path="url(#clipPath23)" fill="black" stroke="none" xml:space="preserve"> 1</text>
<polygon fill="black" clip-path="url(#clipPath24)" points=" 156 264 154 262 154 260 156 258 157 258 151 246 157 258 163 246 157 258 158 258 160 260 160 262 158 264" stroke="none"/>
<polygon fill="none" clip-path="url(#clipPath24)" points=" 156 264 154 262 154 260 156 258 157 258 151 246 157 258 163 246 157 258 158 258 160 260 160 262 158 264" stroke="black"/>
</g>
</g>
</svg>
