<?xml version="1.0" encoding="UTF-8"?><svg xmlns="http://www.w3.org/2000/svg" xmlns:xlink="http://www.w3.org/1999/xlink" stroke-dasharray="none" shape-rendering="auto" font-family="'Dialog'" width="603" text-rendering="auto" fill-opacity="1" contentScriptType="text/ecmascript" color-interpolation="auto" color-rendering="auto" preserveAspectRatio="xMidYMid meet" font-size="12" viewBox="0 0 603 193" fill="black" stroke="black" image-rendering="auto" stroke-miterlimit="10" zoomAndPan="magnify" version="1.0" stroke-linecap="square" stroke-linejoin="miter" contentStyleType="text/css" font-style="normal" height="193" stroke-width="1" stroke-dashoffset="0" font-weight="normal" stroke-opacity="1">
<!--Generated by the Batik Graphics2D SVG Generator-->
<defs id="genericDefs"/>
<g>
<defs id="defs1">
<clipPath clipPathUnits="userSpaceOnUse" id="clipPath1">
<path d="M311 118 L594 118 L594 183 L311 183 L311 118 Z"/>
</clipPath>
<clipPath clipPathUnits="userSpaceOnUse" id="clipPath2">
<path d="M405 121 L499 121 L499 134 L405 134 L405 121 Z"/>
</clipPath>
<clipPath clipPathUnits="userSpaceOnUse" id="clipPath3">
<path d="M311 133 L594 133 L594 157 L311 157 L311 133 Z"/>
</clipPath>
<clipPath clipPathUnits="userSpaceOnUse" id="clipPath4">
<path d="M316 158 L589 158 L589 171 L316 171 L316 158 Z"/>
</clipPath>
<clipPath clipPathUnits="userSpaceOnUse" id="clipPath5">
<path d="M311 156 L594 156 L594 182 L311 182 L311 156 Z"/>
</clipPath>
<clipPath clipPathUnits="userSpaceOnUse" id="clipPath6">
<path d="M9 119 L205 119 L205 184 L9 184 L9 119 Z"/>
</clipPath>
<clipPath clipPathUnits="userSpaceOnUse" id="clipPath7">
<path d="M84 122 L129 122 L129 135 L84 135 L84 122 Z"/>
</clipPath>
<clipPath clipPathUnits="userSpaceOnUse" id="clipPath8">
<path d="M9 134 L205 134 L205 158 L9 158 L9 134 Z"/>
</clipPath>
<clipPath clipPathUnits="userSpaceOnUse" id="clipPath9">
<path d="M14 159 L200 159 L200 172 L14 172 L14 159 Z"/>
</clipPath>
<clipPath clipPathUnits="userSpaceOnUse" id="clipPath10">
<path d="M9 157 L205 157 L205 183 L9 183 L9 157 Z"/>
</clipPath>
<clipPath clipPathUnits="userSpaceOnUse" id="clipPath11">
<path d="M311 9 L594 9 L594 63 L311 63 L311 9 Z"/>
</clipPath>
<clipPath clipPathUnits="userSpaceOnUse" id="clipPath12">
<path d="M312 24 L594 24 L594 37 L312 37 L312 24 Z"/>
</clipPath>
<clipPath clipPathUnits="userSpaceOnUse" id="clipPath13">
<path d="M407 36 L500 36 L500 49 L407 49 L407 36 Z"/>
</clipPath>
<clipPath clipPathUnits="userSpaceOnUse" id="clipPath14">
<path d="M9 9 L205 9 L205 63 L9 63 L9 9 Z"/>
</clipPath>
<clipPath clipPathUnits="userSpaceOnUse" id="clipPath15">
<path d="M10 24 L205 24 L205 37 L10 37 L10 24 Z"/>
</clipPath>
<clipPath clipPathUnits="userSpaceOnUse" id="clipPath16">
<path d="M86 36 L130 36 L130 49 L86 49 L86 36 Z"/>
</clipPath>
<clipPath clipPathUnits="userSpaceOnUse" id="clipPath17">
<path d="M-1 -1 L604 -1 L604 194 L-1 194 L-1 -1 Z"/>
</clipPath>
<clipPath clipPathUnits="userSpaceOnUse" id="clipPath18">
<path d="M440 61 L459 61 L459 74 L440 74 L440 61 Z"/>
</clipPath>
<clipPath clipPathUnits="userSpaceOnUse" id="clipPath19">
<path d="M96 61 L115 61 L115 74 L96 74 L96 61 Z"/>
</clipPath>
</defs>
<g font-size="11" fill="white" stroke-linejoin="round" stroke="white" stroke-width="0" stroke-miterlimit="0">
<rect x="312" y="119" clip-path="url(#clipPath1)" width="281" rx="0" ry="0" height="63" stroke="none"/>
</g>
<g font-size="9" font-family="'Helvetica'" stroke-linejoin="round" font-weight="bold" stroke-width="0" stroke-miterlimit="0">
<text xml:space="preserve" x="406" y="129" clip-path="url(#clipPath2)" stroke="none">SM_ExecutionFactory</text>
</g>
<g font-size="11" stroke-width="1.1" stroke-linecap="butt">
<line clip-path="url(#clipPath3)" fill="none" x1="312" x2="593" y1="134" y2="134"/>
<text x="317" font-size="9" y="166" clip-path="url(#clipPath4)" font-family="'Helvetica'" stroke="none" xml:space="preserve"> + instantiateVisitor(  in element: Element [1]): SemanticVisitor [1]</text>
<line clip-path="url(#clipPath5)" fill="none" x1="312" x2="593" y1="157" y2="157"/>
<rect x="312" y="119" clip-path="url(#clipPath1)" fill="none" width="280" rx="0" ry="0" height="62"/>
<rect x="10" y="120" clip-path="url(#clipPath6)" fill="white" width="194" rx="0" ry="0" height="63" stroke="none"/>
<text x="85" font-size="9" y="130" clip-path="url(#clipPath7)" font-family="'Helvetica'" stroke="none" font-weight="bold" xml:space="preserve">SM_Locus</text>
<line clip-path="url(#clipPath8)" fill="none" x1="10" x2="204" y1="135" y2="135"/>
<text x="15" font-size="9" y="167" clip-path="url(#clipPath9)" font-family="'Helvetica'" stroke="none" xml:space="preserve"> + instantiate(  in type: Class [1]): Object [1]</text>
<line clip-path="url(#clipPath10)" fill="none" x1="10" x2="204" y1="158" y2="158"/>
<rect x="10" y="120" clip-path="url(#clipPath6)" fill="none" width="193" rx="0" ry="0" height="62"/>
<rect x="312" y="10" clip-path="url(#clipPath11)" fill="silver" width="281" rx="0" ry="0" height="52" stroke="none"/>
<text x="376" font-size="9" y="32" clip-path="url(#clipPath12)" font-family="'Helvetica'" stroke="none" font-weight="bold" xml:space="preserve">(PSCS_Semantics::Semantics::Loci)</text>
<text x="408" font-size="9" y="44" clip-path="url(#clipPath13)" font-family="'Helvetica'" stroke="none" font-weight="bold" xml:space="preserve">CS_ExecutionFactory</text>
<rect x="312" y="10" clip-path="url(#clipPath11)" fill="none" width="280" rx="0" ry="0" height="51"/>
<rect x="10" y="10" clip-path="url(#clipPath14)" fill="silver" width="194" rx="0" ry="0" height="52" stroke="none"/>
<text x="30" font-size="9" y="32" clip-path="url(#clipPath15)" font-family="'Helvetica'" stroke="none" font-weight="bold" xml:space="preserve">(PSCS_Semantics::Semantics::Loci)</text>
<text x="87" font-size="9" y="44" clip-path="url(#clipPath16)" font-family="'Helvetica'" stroke="none" font-weight="bold" xml:space="preserve">CS_Locus</text>
<rect x="10" y="10" clip-path="url(#clipPath14)" fill="none" width="193" rx="0" ry="0" height="51"/>
<line clip-path="url(#clipPath17)" fill="none" text-rendering="optimizeLegibility" x1="449" x2="449" y1="119" y2="62"/>
</g>
<g stroke-linecap="butt" font-size="9" fill="white" text-rendering="optimizeLegibility" font-family="'Helvetica'" stroke="white" stroke-width="1.1">
<polygon clip-path="url(#clipPath18)" points=" 449 62 457 72 441 72" stroke="none"/>
<polygon fill="none" clip-path="url(#clipPath18)" points=" 449 62 457 72 441 72" stroke="black"/>
<line clip-path="url(#clipPath17)" fill="none" x1="105" x2="105" y1="120" y2="62" stroke="black"/>
<polygon clip-path="url(#clipPath19)" points=" 105 62 113 72 97 72" stroke="none"/>
<polygon fill="none" clip-path="url(#clipPath19)" points=" 105 62 113 72 97 72" stroke="black"/>
</g>
</g>
</svg>
