<?xml version="1.0" encoding="UTF-8"?><svg xmlns="http://www.w3.org/2000/svg" xmlns:xlink="http://www.w3.org/1999/xlink" stroke-dasharray="none" shape-rendering="auto" font-family="'Dialog'" width="606" text-rendering="auto" fill-opacity="1" contentScriptType="text/ecmascript" color-interpolation="auto" color-rendering="auto" preserveAspectRatio="xMidYMid meet" font-size="12" viewBox="0 0 606 194" fill="black" stroke="black" image-rendering="auto" stroke-miterlimit="10" zoomAndPan="magnify" version="1.0" stroke-linecap="square" stroke-linejoin="miter" contentStyleType="text/css" font-style="normal" height="194" stroke-width="1" stroke-dashoffset="0" font-weight="normal" stroke-opacity="1">
<!--Generated by the Batik Graphics2D SVG Generator-->
<defs id="genericDefs"/>
<g>
<defs id="defs1">
<clipPath clipPathUnits="userSpaceOnUse" id="clipPath1">
<path d="M314 119 L597 119 L597 184 L314 184 L314 119 Z"/>
</clipPath>
<clipPath clipPathUnits="userSpaceOnUse" id="clipPath2">
<path d="M408 122 L502 122 L502 135 L408 135 L408 122 Z"/>
</clipPath>
<clipPath clipPathUnits="userSpaceOnUse" id="clipPath3">
<path d="M314 134 L597 134 L597 158 L314 158 L314 134 Z"/>
</clipPath>
<clipPath clipPathUnits="userSpaceOnUse" id="clipPath4">
<path d="M319 159 L592 159 L592 172 L319 172 L319 159 Z"/>
</clipPath>
<clipPath clipPathUnits="userSpaceOnUse" id="clipPath5">
<path d="M314 157 L597 157 L597 183 L314 183 L314 157 Z"/>
</clipPath>
<clipPath clipPathUnits="userSpaceOnUse" id="clipPath6">
<path d="M9 120 L205 120 L205 185 L9 185 L9 120 Z"/>
</clipPath>
<clipPath clipPathUnits="userSpaceOnUse" id="clipPath7">
<path d="M84 123 L129 123 L129 136 L84 136 L84 123 Z"/>
</clipPath>
<clipPath clipPathUnits="userSpaceOnUse" id="clipPath8">
<path d="M9 135 L205 135 L205 159 L9 159 L9 135 Z"/>
</clipPath>
<clipPath clipPathUnits="userSpaceOnUse" id="clipPath9">
<path d="M14 160 L200 160 L200 173 L14 173 L14 160 Z"/>
</clipPath>
<clipPath clipPathUnits="userSpaceOnUse" id="clipPath10">
<path d="M9 158 L205 158 L205 184 L9 184 L9 158 Z"/>
</clipPath>
<clipPath clipPathUnits="userSpaceOnUse" id="clipPath11">
<path d="M370 9 L544 9 L544 63 L370 63 L370 9 Z"/>
</clipPath>
<clipPath clipPathUnits="userSpaceOnUse" id="clipPath12">
<path d="M371 24 L544 24 L544 37 L371 37 L371 24 Z"/>
</clipPath>
<clipPath clipPathUnits="userSpaceOnUse" id="clipPath13">
<path d="M411 36 L504 36 L504 49 L411 49 L411 36 Z"/>
</clipPath>
<clipPath clipPathUnits="userSpaceOnUse" id="clipPath14">
<path d="M22 10 L196 10 L196 64 L22 64 L22 10 Z"/>
</clipPath>
<clipPath clipPathUnits="userSpaceOnUse" id="clipPath15">
<path d="M23 25 L196 25 L196 38 L23 38 L23 25 Z"/>
</clipPath>
<clipPath clipPathUnits="userSpaceOnUse" id="clipPath16">
<path d="M88 37 L132 37 L132 50 L88 50 L88 37 Z"/>
</clipPath>
<clipPath clipPathUnits="userSpaceOnUse" id="clipPath17">
<path d="M-1 -1 L607 -1 L607 195 L-1 195 L-1 -1 Z"/>
</clipPath>
<clipPath clipPathUnits="userSpaceOnUse" id="clipPath18">
<path d="M446 61 L465 61 L465 74 L446 74 L446 61 Z"/>
</clipPath>
<clipPath clipPathUnits="userSpaceOnUse" id="clipPath19">
<path d="M99 62 L118 62 L118 75 L99 75 L99 62 Z"/>
</clipPath>
</defs>
<g font-size="11" fill="white" stroke-linejoin="round" stroke="white" stroke-width="0" stroke-miterlimit="0">
<rect x="315" y="120" clip-path="url(#clipPath1)" width="281" rx="0" ry="0" height="63" stroke="none"/>
</g>
<g font-size="9" font-family="'Helvetica'" stroke-linejoin="round" font-weight="bold" stroke-width="0" stroke-miterlimit="0">
<text xml:space="preserve" x="409" y="130" clip-path="url(#clipPath2)" stroke="none">SM_ExecutionFactory</text>
</g>
<g font-size="11" stroke-width="1.1" stroke-linecap="butt">
<line clip-path="url(#clipPath3)" fill="none" x1="315" x2="596" y1="135" y2="135"/>
<text x="320" font-size="9" y="167" clip-path="url(#clipPath4)" font-family="'Helvetica'" stroke="none" xml:space="preserve"> + instantiateVisitor(  in element: Element [1]): SemanticVisitor [1]</text>
<line clip-path="url(#clipPath5)" fill="none" x1="315" x2="596" y1="158" y2="158"/>
<rect x="315" y="120" clip-path="url(#clipPath1)" fill="none" width="280" rx="0" ry="0" height="62"/>
<rect x="10" y="121" clip-path="url(#clipPath6)" fill="white" width="194" rx="0" ry="0" height="63" stroke="none"/>
<text x="85" font-size="9" y="131" clip-path="url(#clipPath7)" font-family="'Helvetica'" stroke="none" font-weight="bold" xml:space="preserve">SM_Locus</text>
<line clip-path="url(#clipPath8)" fill="none" x1="10" x2="204" y1="136" y2="136"/>
<text x="15" font-size="9" y="168" clip-path="url(#clipPath9)" font-family="'Helvetica'" stroke="none" xml:space="preserve"> + instantiate(  in type: Class [1]): Object [1]</text>
<line clip-path="url(#clipPath10)" fill="none" x1="10" x2="204" y1="159" y2="159"/>
<rect x="10" y="121" clip-path="url(#clipPath6)" fill="none" width="193" rx="0" ry="0" height="62"/>
<rect x="371" y="10" clip-path="url(#clipPath11)" fill="silver" width="172" rx="0" ry="0" height="52" stroke="none"/>
<text x="380" font-size="9" y="32" clip-path="url(#clipPath12)" font-family="'Helvetica'" stroke="none" font-weight="bold" xml:space="preserve">(PSCS_Semantics::Semantics::Loci)</text>
<text x="412" font-size="9" y="44" clip-path="url(#clipPath13)" font-family="'Helvetica'" stroke="none" font-weight="bold" xml:space="preserve">CS_ExecutionFactory</text>
<rect x="371" y="10" clip-path="url(#clipPath11)" fill="none" width="171" rx="0" ry="0" height="51"/>
<rect x="23" y="11" clip-path="url(#clipPath14)" fill="silver" width="172" rx="0" ry="0" height="52" stroke="none"/>
<text x="32" font-size="9" y="33" clip-path="url(#clipPath15)" font-family="'Helvetica'" stroke="none" font-weight="bold" xml:space="preserve">(PSCS_Semantics::Semantics::Loci)</text>
<text x="89" font-size="9" y="45" clip-path="url(#clipPath16)" font-family="'Helvetica'" stroke="none" font-weight="bold" xml:space="preserve">CS_Locus</text>
<rect x="23" y="11" clip-path="url(#clipPath14)" fill="none" width="171" rx="0" ry="0" height="51"/>
<line clip-path="url(#clipPath17)" fill="none" text-rendering="optimizeLegibility" x1="455" x2="455" y1="120" y2="62"/>
</g>
<g stroke-linecap="butt" font-size="9" fill="white" text-rendering="optimizeLegibility" stroke="white" stroke-width="1.1">
<polygon clip-path="url(#clipPath18)" points=" 455 62 463 72 447 72" stroke="none"/>
<polygon fill="none" clip-path="url(#clipPath18)" points=" 455 62 463 72 447 72" stroke="black"/>
<line clip-path="url(#clipPath17)" fill="none" x1="108" x2="108" y1="121" y2="63" stroke="black"/>
<polygon clip-path="url(#clipPath19)" points=" 108 63 116 73 100 73" stroke="none"/>
<polygon fill="none" clip-path="url(#clipPath19)" points=" 108 63 116 73 100 73" stroke="black"/>
</g>
</g>
</svg>
