<?xml version="1.0" encoding="UTF-8"?><svg xmlns="http://www.w3.org/2000/svg" xmlns:xlink="http://www.w3.org/1999/xlink" stroke-dasharray="none" shape-rendering="auto" font-family="'Dialog'" width="602" text-rendering="auto" fill-opacity="1" contentScriptType="text/ecmascript" color-interpolation="auto" color-rendering="auto" preserveAspectRatio="xMidYMid meet" font-size="12" viewBox="0 0 602 175" fill="black" stroke="black" image-rendering="auto" stroke-miterlimit="10" zoomAndPan="magnify" version="1.0" stroke-linecap="square" stroke-linejoin="miter" contentStyleType="text/css" font-style="normal" height="175" stroke-width="1" stroke-dashoffset="0" font-weight="normal" stroke-opacity="1">
<!--Generated by the Batik Graphics2D SVG Generator-->
<defs id="genericDefs"/>
<g>
<defs id="defs1">
<clipPath clipPathUnits="userSpaceOnUse" id="clipPath1">
<path d="M310 118 L593 118 L593 165 L310 165 L310 118 Z"/>
</clipPath>
<clipPath clipPathUnits="userSpaceOnUse" id="clipPath2">
<path d="M404 121 L498 121 L498 133 L404 133 L404 121 Z"/>
</clipPath>
<clipPath clipPathUnits="userSpaceOnUse" id="clipPath3">
<path d="M315 134 L588 134 L588 146 L315 146 L315 134 Z"/>
</clipPath>
<clipPath clipPathUnits="userSpaceOnUse" id="clipPath4">
<path d="M310 132 L593 132 L593 165 L310 165 L310 132 Z"/>
</clipPath>
<clipPath clipPathUnits="userSpaceOnUse" id="clipPath5">
<path d="M11 119 L198 119 L198 166 L11 166 L11 119 Z"/>
</clipPath>
<clipPath clipPathUnits="userSpaceOnUse" id="clipPath6">
<path d="M82 122 L127 122 L127 134 L82 134 L82 122 Z"/>
</clipPath>
<clipPath clipPathUnits="userSpaceOnUse" id="clipPath7">
<path d="M16 135 L193 135 L193 147 L16 147 L16 135 Z"/>
</clipPath>
<clipPath clipPathUnits="userSpaceOnUse" id="clipPath8">
<path d="M11 133 L198 133 L198 166 L11 166 L11 133 Z"/>
</clipPath>
<clipPath clipPathUnits="userSpaceOnUse" id="clipPath9">
<path d="M307 9 L590 9 L590 63 L307 63 L307 9 Z"/>
</clipPath>
<clipPath clipPathUnits="userSpaceOnUse" id="clipPath10">
<path d="M371 25 L528 25 L528 37 L371 37 L371 25 Z"/>
</clipPath>
<clipPath clipPathUnits="userSpaceOnUse" id="clipPath11">
<path d="M403 36 L496 36 L496 48 L403 48 L403 36 Z"/>
</clipPath>
<clipPath clipPathUnits="userSpaceOnUse" id="clipPath12">
<path d="M9 9 L205 9 L205 63 L9 63 L9 9 Z"/>
</clipPath>
<clipPath clipPathUnits="userSpaceOnUse" id="clipPath13">
<path d="M29 25 L186 25 L186 37 L29 37 L29 25 Z"/>
</clipPath>
<clipPath clipPathUnits="userSpaceOnUse" id="clipPath14">
<path d="M86 36 L130 36 L130 48 L86 48 L86 36 Z"/>
</clipPath>
<clipPath clipPathUnits="userSpaceOnUse" id="clipPath15">
<path d="M-1 -1 L603 -1 L603 176 L-1 176 L-1 -1 Z"/>
</clipPath>
<clipPath clipPathUnits="userSpaceOnUse" id="clipPath16">
<path d="M440 61 L459 61 L459 74 L440 74 L440 61 Z"/>
</clipPath>
<clipPath clipPathUnits="userSpaceOnUse" id="clipPath17">
<path d="M96 61 L115 61 L115 74 L96 74 L96 61 Z"/>
</clipPath>
</defs>
<g font-size="11" fill="white" stroke-linejoin="round" stroke="white" stroke-width="0" stroke-miterlimit="0">
<rect x="311" y="119" clip-path="url(#clipPath1)" width="281" rx="0" ry="0" height="45" stroke="none"/>
</g>
<g font-size="9" font-family="'Arial'" stroke-linejoin="round" font-weight="bold" stroke-width="0" stroke-miterlimit="0">
<text xml:space="preserve" x="405" y="131" clip-path="url(#clipPath2)" stroke="none">SM_ExecutionFactory</text>
<text x="316" y="144" clip-path="url(#clipPath3)" stroke="none" font-weight="normal" xml:space="preserve"> + instantiateVisitor(  in element: Element [1]): SemanticVisitor [1]</text>
</g>
<g font-size="11" stroke-width="1.1" stroke-linecap="butt">
<line clip-path="url(#clipPath4)" fill="none" x1="311" x2="592" y1="133" y2="133"/>
<rect x="311" y="119" clip-path="url(#clipPath1)" fill="none" width="280" rx="0" ry="0" height="44"/>
<rect x="12" y="120" clip-path="url(#clipPath5)" fill="white" width="185" rx="0" ry="0" height="45" stroke="none"/>
<text x="83" font-size="9" y="132" clip-path="url(#clipPath6)" font-family="'Arial'" stroke="none" font-weight="bold" xml:space="preserve">SM_Locus</text>
<text x="17" font-size="9" y="145" clip-path="url(#clipPath7)" font-family="'Arial'" stroke="none" xml:space="preserve"> + instantiate(  in type: null [1]): Object [1]</text>
<line clip-path="url(#clipPath8)" fill="none" x1="12" x2="197" y1="134" y2="134"/>
<rect x="12" y="120" clip-path="url(#clipPath5)" fill="none" width="184" rx="0" ry="0" height="44"/>
<rect x="308" y="10" clip-path="url(#clipPath9)" fill="silver" width="281" rx="0" ry="0" height="52" stroke="none"/>
<text x="372" font-size="9" y="35" clip-path="url(#clipPath10)" font-family="'Arial'" stroke="none" font-weight="bold" xml:space="preserve">(PSCS_Semantics::Semantics::Loci)</text>
<text x="404" font-size="9" y="46" clip-path="url(#clipPath11)" font-family="'Arial'" stroke="none" font-weight="bold" xml:space="preserve">CS_ExecutionFactory</text>
<rect x="308" y="10" clip-path="url(#clipPath9)" fill="none" width="280" rx="0" ry="0" height="51"/>
<rect x="10" y="10" clip-path="url(#clipPath12)" fill="silver" width="194" rx="0" ry="0" height="52" stroke="none"/>
<text x="30" font-size="9" y="35" clip-path="url(#clipPath13)" font-family="'Arial'" stroke="none" font-weight="bold" xml:space="preserve">(PSCS_Semantics::Semantics::Loci)</text>
<text x="87" font-size="9" y="46" clip-path="url(#clipPath14)" font-family="'Arial'" stroke="none" font-weight="bold" xml:space="preserve">CS_Locus</text>
<rect x="10" y="10" clip-path="url(#clipPath12)" fill="none" width="193" rx="0" ry="0" height="51"/>
<line clip-path="url(#clipPath15)" fill="none" text-rendering="optimizeLegibility" x1="449" x2="449" y1="119" y2="62"/>
</g>
<g stroke-linecap="butt" font-size="9" fill="white" text-rendering="optimizeLegibility" font-family="'Arial'" stroke="white" stroke-width="1.1">
<polygon clip-path="url(#clipPath16)" points=" 449 62 457 72 441 72" stroke="none"/>
<polygon fill="none" clip-path="url(#clipPath16)" points=" 449 62 457 72 441 72" stroke="black"/>
<line clip-path="url(#clipPath15)" fill="none" x1="105" x2="105" y1="120" y2="91" stroke="black"/>
<line clip-path="url(#clipPath15)" fill="none" x1="105" x2="105" y1="91" y2="62" stroke="black"/>
<polygon clip-path="url(#clipPath17)" points=" 105 62 113 72 97 72" stroke="none"/>
<polygon fill="none" clip-path="url(#clipPath17)" points=" 105 62 113 72 97 72" stroke="black"/>
</g>
</g>
</svg>
