<?xml version="1.0" encoding="UTF-8"?><svg xmlns="http://www.w3.org/2000/svg" xmlns:xlink="http://www.w3.org/1999/xlink" stroke-dasharray="none" shape-rendering="auto" font-family="'Dialog'" width="927" text-rendering="auto" fill-opacity="1" contentScriptType="text/ecmascript" color-interpolation="auto" color-rendering="auto" preserveAspectRatio="xMidYMid meet" font-size="12" viewBox="0 0 927 1165" fill="black" stroke="black" image-rendering="auto" stroke-miterlimit="10" zoomAndPan="magnify" version="1.0" stroke-linecap="square" stroke-linejoin="miter" contentStyleType="text/css" font-style="normal" height="1165" stroke-width="1" stroke-dashoffset="0" font-weight="normal" stroke-opacity="1">
<!--Generated by the Batik Graphics2D SVG Generator-->
<defs id="genericDefs"/>
<g>
<defs id="defs1">
<clipPath clipPathUnits="userSpaceOnUse" id="clipPath1">
<path d="M358 167 L562 167 L562 271 L358 271 L358 167 Z"/>
</clipPath>
<clipPath clipPathUnits="userSpaceOnUse" id="clipPath2">
<path d="M364 171 L491 171 L491 186 L364 186 L364 171 Z"/>
</clipPath>
<clipPath clipPathUnits="userSpaceOnUse" id="clipPath3">
<path d="M364 187 L393 187 L393 202 L364 202 L364 187 Z"/>
</clipPath>
<clipPath clipPathUnits="userSpaceOnUse" id="clipPath4">
<path d="M359 203 L561 203 L561 270 L359 270 L359 203 Z"/>
</clipPath>
<clipPath clipPathUnits="userSpaceOnUse" id="clipPath5">
<path d="M715 169 L919 169 L919 273 L715 273 L715 169 Z"/>
</clipPath>
<clipPath clipPathUnits="userSpaceOnUse" id="clipPath6">
<path d="M721 173 L844 173 L844 188 L721 188 L721 173 Z"/>
</clipPath>
<clipPath clipPathUnits="userSpaceOnUse" id="clipPath7">
<path d="M721 189 L750 189 L750 204 L721 204 L721 189 Z"/>
</clipPath>
<clipPath clipPathUnits="userSpaceOnUse" id="clipPath8">
<path d="M716 205 L918 205 L918 272 L716 272 L716 205 Z"/>
</clipPath>
<clipPath clipPathUnits="userSpaceOnUse" id="clipPath9">
<path d="M8 169 L212 169 L212 273 L8 273 L8 169 Z"/>
</clipPath>
<clipPath clipPathUnits="userSpaceOnUse" id="clipPath10">
<path d="M14 173 L113 173 L113 188 L14 188 L14 173 Z"/>
</clipPath>
<clipPath clipPathUnits="userSpaceOnUse" id="clipPath11">
<path d="M14 189 L43 189 L43 204 L14 204 L14 189 Z"/>
</clipPath>
<clipPath clipPathUnits="userSpaceOnUse" id="clipPath12">
<path d="M9 205 L211 205 L211 272 L9 272 L9 205 Z"/>
</clipPath>
<clipPath clipPathUnits="userSpaceOnUse" id="clipPath13">
<path d="M8 8 L212 8 L212 112 L8 112 L8 8 Z"/>
</clipPath>
<clipPath clipPathUnits="userSpaceOnUse" id="clipPath14">
<path d="M14 12 L113 12 L113 27 L14 27 L14 12 Z"/>
</clipPath>
<clipPath clipPathUnits="userSpaceOnUse" id="clipPath15">
<path d="M14 28 L89 28 L89 43 L14 43 L14 28 Z"/>
</clipPath>
<clipPath clipPathUnits="userSpaceOnUse" id="clipPath16">
<path d="M9 44 L211 44 L211 111 L9 111 L9 44 Z"/>
</clipPath>
<clipPath clipPathUnits="userSpaceOnUse" id="clipPath17">
<path d="M358 517 L562 517 L562 621 L358 621 L358 517 Z"/>
</clipPath>
<clipPath clipPathUnits="userSpaceOnUse" id="clipPath18">
<path d="M364 521 L491 521 L491 536 L364 536 L364 521 Z"/>
</clipPath>
<clipPath clipPathUnits="userSpaceOnUse" id="clipPath19">
<path d="M364 537 L439 537 L439 552 L364 552 L364 537 Z"/>
</clipPath>
<clipPath clipPathUnits="userSpaceOnUse" id="clipPath20">
<path d="M359 553 L561 553 L561 620 L359 620 L359 553 Z"/>
</clipPath>
<clipPath clipPathUnits="userSpaceOnUse" id="clipPath21">
<path d="M358 341 L562 341 L562 445 L358 445 L358 341 Z"/>
</clipPath>
<clipPath clipPathUnits="userSpaceOnUse" id="clipPath22">
<path d="M364 345 L491 345 L491 360 L364 360 L364 345 Z"/>
</clipPath>
<clipPath clipPathUnits="userSpaceOnUse" id="clipPath23">
<path d="M364 361 L450 361 L450 376 L364 376 L364 361 Z"/>
</clipPath>
<clipPath clipPathUnits="userSpaceOnUse" id="clipPath24">
<path d="M359 377 L561 377 L561 444 L359 444 L359 377 Z"/>
</clipPath>
<clipPath clipPathUnits="userSpaceOnUse" id="clipPath25">
<path d="M715 341 L919 341 L919 445 L715 445 L715 341 Z"/>
</clipPath>
<clipPath clipPathUnits="userSpaceOnUse" id="clipPath26">
<path d="M721 345 L844 345 L844 360 L721 360 L721 345 Z"/>
</clipPath>
<clipPath clipPathUnits="userSpaceOnUse" id="clipPath27">
<path d="M721 361 L807 361 L807 376 L721 376 L721 361 Z"/>
</clipPath>
<clipPath clipPathUnits="userSpaceOnUse" id="clipPath28">
<path d="M716 377 L918 377 L918 444 L716 444 L716 377 Z"/>
</clipPath>
<clipPath clipPathUnits="userSpaceOnUse" id="clipPath29">
<path d="M8 341 L212 341 L212 445 L8 445 L8 341 Z"/>
</clipPath>
<clipPath clipPathUnits="userSpaceOnUse" id="clipPath30">
<path d="M14 345 L112 345 L112 360 L14 360 L14 345 Z"/>
</clipPath>
<clipPath clipPathUnits="userSpaceOnUse" id="clipPath31">
<path d="M14 361 L100 361 L100 376 L14 376 L14 361 Z"/>
</clipPath>
<clipPath clipPathUnits="userSpaceOnUse" id="clipPath32">
<path d="M9 377 L211 377 L211 444 L9 444 L9 377 Z"/>
</clipPath>
<clipPath clipPathUnits="userSpaceOnUse" id="clipPath33">
<path d="M358 693 L562 693 L562 797 L358 797 L358 693 Z"/>
</clipPath>
<clipPath clipPathUnits="userSpaceOnUse" id="clipPath34">
<path d="M364 697 L491 697 L491 712 L364 712 L364 697 Z"/>
</clipPath>
<clipPath clipPathUnits="userSpaceOnUse" id="clipPath35">
<path d="M364 713 L426 713 L426 728 L364 728 L364 713 Z"/>
</clipPath>
<clipPath clipPathUnits="userSpaceOnUse" id="clipPath36">
<path d="M359 729 L561 729 L561 796 L359 796 L359 729 Z"/>
</clipPath>
<clipPath clipPathUnits="userSpaceOnUse" id="clipPath37">
<path d="M8 516 L212 516 L212 620 L8 620 L8 516 Z"/>
</clipPath>
<clipPath clipPathUnits="userSpaceOnUse" id="clipPath38">
<path d="M14 520 L113 520 L113 535 L14 535 L14 520 Z"/>
</clipPath>
<clipPath clipPathUnits="userSpaceOnUse" id="clipPath39">
<path d="M14 536 L90 536 L90 551 L14 551 L14 536 Z"/>
</clipPath>
<clipPath clipPathUnits="userSpaceOnUse" id="clipPath40">
<path d="M9 552 L211 552 L211 619 L9 619 L9 552 Z"/>
</clipPath>
<clipPath clipPathUnits="userSpaceOnUse" id="clipPath41">
<path d="M8 693 L212 693 L212 797 L8 797 L8 693 Z"/>
</clipPath>
<clipPath clipPathUnits="userSpaceOnUse" id="clipPath42">
<path d="M14 697 L113 697 L113 712 L14 712 L14 697 Z"/>
</clipPath>
<clipPath clipPathUnits="userSpaceOnUse" id="clipPath43">
<path d="M14 713 L76 713 L76 728 L14 728 L14 713 Z"/>
</clipPath>
<clipPath clipPathUnits="userSpaceOnUse" id="clipPath44">
<path d="M9 729 L211 729 L211 796 L9 796 L9 729 Z"/>
</clipPath>
<clipPath clipPathUnits="userSpaceOnUse" id="clipPath45">
<path d="M358 1053 L562 1053 L562 1157 L358 1157 L358 1053 Z"/>
</clipPath>
<clipPath clipPathUnits="userSpaceOnUse" id="clipPath46">
<path d="M364 1057 L491 1057 L491 1072 L364 1072 L364 1057 Z"/>
</clipPath>
<clipPath clipPathUnits="userSpaceOnUse" id="clipPath47">
<path d="M364 1073 L381 1073 L381 1088 L364 1088 L364 1073 Z"/>
</clipPath>
<clipPath clipPathUnits="userSpaceOnUse" id="clipPath48">
<path d="M359 1089 L561 1089 L561 1156 L359 1156 L359 1089 Z"/>
</clipPath>
<clipPath clipPathUnits="userSpaceOnUse" id="clipPath49">
<path d="M715 1053 L919 1053 L919 1157 L715 1157 L715 1053 Z"/>
</clipPath>
<clipPath clipPathUnits="userSpaceOnUse" id="clipPath50">
<path d="M721 1057 L844 1057 L844 1072 L721 1072 L721 1057 Z"/>
</clipPath>
<clipPath clipPathUnits="userSpaceOnUse" id="clipPath51">
<path d="M721 1073 L738 1073 L738 1088 L721 1088 L721 1073 Z"/>
</clipPath>
<clipPath clipPathUnits="userSpaceOnUse" id="clipPath52">
<path d="M716 1089 L918 1089 L918 1156 L716 1156 L716 1089 Z"/>
</clipPath>
<clipPath clipPathUnits="userSpaceOnUse" id="clipPath53">
<path d="M715 9 L919 9 L919 113 L715 113 L715 9 Z"/>
</clipPath>
<clipPath clipPathUnits="userSpaceOnUse" id="clipPath54">
<path d="M721 13 L847 13 L847 28 L721 28 L721 13 Z"/>
</clipPath>
<clipPath clipPathUnits="userSpaceOnUse" id="clipPath55">
<path d="M721 29 L796 29 L796 44 L721 44 L721 29 Z"/>
</clipPath>
<clipPath clipPathUnits="userSpaceOnUse" id="clipPath56">
<path d="M716 45 L918 45 L918 112 L716 112 L716 45 Z"/>
</clipPath>
<clipPath clipPathUnits="userSpaceOnUse" id="clipPath57">
<path d="M715 693 L919 693 L919 797 L715 797 L715 693 Z"/>
</clipPath>
<clipPath clipPathUnits="userSpaceOnUse" id="clipPath58">
<path d="M721 697 L847 697 L847 712 L721 712 L721 697 Z"/>
</clipPath>
<clipPath clipPathUnits="userSpaceOnUse" id="clipPath59">
<path d="M721 713 L738 713 L738 728 L721 728 L721 713 Z"/>
</clipPath>
<clipPath clipPathUnits="userSpaceOnUse" id="clipPath60">
<path d="M716 729 L918 729 L918 796 L716 796 L716 729 Z"/>
</clipPath>
<clipPath clipPathUnits="userSpaceOnUse" id="clipPath61">
<path d="M357 872 L561 872 L561 976 L357 976 L357 872 Z"/>
</clipPath>
<clipPath clipPathUnits="userSpaceOnUse" id="clipPath62">
<path d="M363 876 L490 876 L490 891 L363 891 L363 876 Z"/>
</clipPath>
<clipPath clipPathUnits="userSpaceOnUse" id="clipPath63">
<path d="M363 892 L395 892 L395 907 L363 907 L363 892 Z"/>
</clipPath>
<clipPath clipPathUnits="userSpaceOnUse" id="clipPath64">
<path d="M358 908 L560 908 L560 975 L358 975 L358 908 Z"/>
</clipPath>
<clipPath clipPathUnits="userSpaceOnUse" id="clipPath65">
<path d="M715 872 L919 872 L919 976 L715 976 L715 872 Z"/>
</clipPath>
<clipPath clipPathUnits="userSpaceOnUse" id="clipPath66">
<path d="M721 876 L844 876 L844 891 L721 891 L721 876 Z"/>
</clipPath>
<clipPath clipPathUnits="userSpaceOnUse" id="clipPath67">
<path d="M721 892 L753 892 L753 907 L721 907 L721 892 Z"/>
</clipPath>
<clipPath clipPathUnits="userSpaceOnUse" id="clipPath68">
<path d="M716 908 L918 908 L918 975 L716 975 L716 908 Z"/>
</clipPath>
<clipPath clipPathUnits="userSpaceOnUse" id="clipPath69">
<path d="M-1 -1 L928 -1 L928 1166 L-1 1166 L-1 -1 Z"/>
</clipPath>
<clipPath clipPathUnits="userSpaceOnUse" id="clipPath70">
<path d="M621 215 L659 215 L659 230 L621 230 L621 215 Z"/>
</clipPath>
<clipPath clipPathUnits="userSpaceOnUse" id="clipPath71">
<path d="M701 228 L719 228 L719 241 L701 241 L701 228 Z"/>
</clipPath>
<clipPath clipPathUnits="userSpaceOnUse" id="clipPath72">
<path d="M265 215 L303 215 L303 230 L265 230 L265 215 Z"/>
</clipPath>
<clipPath clipPathUnits="userSpaceOnUse" id="clipPath73">
<path d="M209 226 L227 226 L227 239 L209 239 L209 226 Z"/>
</clipPath>
<clipPath clipPathUnits="userSpaceOnUse" id="clipPath74">
<path d="M268 147 L306 147 L306 162 L268 162 L268 147 Z"/>
</clipPath>
<clipPath clipPathUnits="userSpaceOnUse" id="clipPath75">
<path d="M209 106 L227 106 L227 121 L209 121 L209 106 Z"/>
</clipPath>
<clipPath clipPathUnits="userSpaceOnUse" id="clipPath76">
<path d="M620 303 L658 303 L658 318 L620 318 L620 303 Z"/>
</clipPath>
<clipPath clipPathUnits="userSpaceOnUse" id="clipPath77">
<path d="M701 358 L719 358 L719 373 L701 373 L701 358 Z"/>
</clipPath>
<clipPath clipPathUnits="userSpaceOnUse" id="clipPath78">
<path d="M266 385 L304 385 L304 400 L266 400 L266 385 Z"/>
</clipPath>
<clipPath clipPathUnits="userSpaceOnUse" id="clipPath79">
<path d="M209 395 L227 395 L227 408 L209 408 L209 395 Z"/>
</clipPath>
<clipPath clipPathUnits="userSpaceOnUse" id="clipPath80">
<path d="M267 666 L305 666 L305 681 L267 681 L267 666 Z"/>
</clipPath>
<clipPath clipPathUnits="userSpaceOnUse" id="clipPath81">
<path d="M209 615 L227 615 L227 631 L209 631 L209 615 Z"/>
</clipPath>
<clipPath clipPathUnits="userSpaceOnUse" id="clipPath82">
<path d="M266 741 L304 741 L304 756 L266 756 L266 741 Z"/>
</clipPath>
<clipPath clipPathUnits="userSpaceOnUse" id="clipPath83">
<path d="M209 750 L227 750 L227 763 L209 763 L209 750 Z"/>
</clipPath>
<clipPath clipPathUnits="userSpaceOnUse" id="clipPath84">
<path d="M418 474 L456 474 L456 489 L418 489 L418 474 Z"/>
</clipPath>
<clipPath clipPathUnits="userSpaceOnUse" id="clipPath85">
<path d="M456 442 L469 442 L469 460 L456 460 L456 442 Z"/>
</clipPath>
<clipPath clipPathUnits="userSpaceOnUse" id="clipPath86">
<path d="M416 299 L454 299 L454 314 L416 314 L416 299 Z"/>
</clipPath>
<clipPath clipPathUnits="userSpaceOnUse" id="clipPath87">
<path d="M454 268 L467 268 L467 286 L454 286 L454 268 Z"/>
</clipPath>
<clipPath clipPathUnits="userSpaceOnUse" id="clipPath88">
<path d="M411 1007 L449 1007 L449 1022 L411 1022 L411 1007 Z"/>
</clipPath>
<clipPath clipPathUnits="userSpaceOnUse" id="clipPath89">
<path d="M449 973 L462 973 L462 991 L449 991 L449 973 Z"/>
</clipPath>
<clipPath clipPathUnits="userSpaceOnUse" id="clipPath90">
<path d="M519 650 L557 650 L557 665 L519 665 L519 650 Z"/>
</clipPath>
<clipPath clipPathUnits="userSpaceOnUse" id="clipPath91">
<path d="M508 679 L521 679 L521 697 L508 697 L508 679 Z"/>
</clipPath>
<clipPath clipPathUnits="userSpaceOnUse" id="clipPath92">
<path d="M620 1103 L658 1103 L658 1118 L620 1118 L620 1103 Z"/>
</clipPath>
<clipPath clipPathUnits="userSpaceOnUse" id="clipPath93">
<path d="M701 1113 L719 1113 L719 1126 L701 1126 L701 1113 Z"/>
</clipPath>
<clipPath clipPathUnits="userSpaceOnUse" id="clipPath94">
<path d="M417 649 L455 649 L455 664 L417 664 L417 649 Z"/>
</clipPath>
<clipPath clipPathUnits="userSpaceOnUse" id="clipPath95">
<path d="M455 618 L468 618 L468 636 L455 636 L455 618 Z"/>
</clipPath>
<clipPath clipPathUnits="userSpaceOnUse" id="clipPath96">
<path d="M620 148 L658 148 L658 163 L620 163 L620 148 Z"/>
</clipPath>
<clipPath clipPathUnits="userSpaceOnUse" id="clipPath97">
<path d="M701 108 L719 108 L719 123 L701 123 L701 108 Z"/>
</clipPath>
<clipPath clipPathUnits="userSpaceOnUse" id="clipPath98">
<path d="M619 740 L657 740 L657 755 L619 755 L619 740 Z"/>
</clipPath>
<clipPath clipPathUnits="userSpaceOnUse" id="clipPath99">
<path d="M701 751 L719 751 L719 764 L701 764 L701 751 Z"/>
</clipPath>
<clipPath clipPathUnits="userSpaceOnUse" id="clipPath100">
<path d="M520 473 L558 473 L558 488 L520 488 L520 473 Z"/>
</clipPath>
<clipPath clipPathUnits="userSpaceOnUse" id="clipPath101">
<path d="M507 503 L520 503 L520 521 L507 521 L507 503 Z"/>
</clipPath>
<clipPath clipPathUnits="userSpaceOnUse" id="clipPath102">
<path d="M475 828 L513 828 L513 843 L475 843 L475 828 Z"/>
</clipPath>
<clipPath clipPathUnits="userSpaceOnUse" id="clipPath103">
<path d="M452 794 L465 794 L465 812 L452 812 L452 794 Z"/>
</clipPath>
<clipPath clipPathUnits="userSpaceOnUse" id="clipPath104">
<path d="M616 920 L654 920 L654 935 L616 935 L616 920 Z"/>
</clipPath>
<clipPath clipPathUnits="userSpaceOnUse" id="clipPath105">
<path d="M701 932 L719 932 L719 945 L701 945 L701 932 Z"/>
</clipPath>
</defs>
<g font-size="11" fill="white" stroke-linejoin="round" stroke="white" stroke-width="0" stroke-miterlimit="0">
<polygon clip-path="url(#clipPath1)" points=" 360 169 495 169 495 204 560 204 560 269 360 269 360 169" stroke="none"/>
</g>
<g font-size="11" stroke-width="1.1" stroke-linecap="butt">
<line clip-path="url(#clipPath1)" fill="none" x1="360" x2="495" y1="169" y2="169"/>
<line clip-path="url(#clipPath1)" fill="none" x1="495" x2="495" y1="169" y2="204"/>
<line clip-path="url(#clipPath1)" fill="none" x1="495" x2="560" y1="204" y2="204"/>
<line clip-path="url(#clipPath1)" fill="none" x1="560" x2="560" y1="204" y2="269"/>
<line clip-path="url(#clipPath1)" fill="none" x1="560" x2="360" y1="269" y2="269"/>
<line clip-path="url(#clipPath1)" fill="none" x1="360" x2="360" y1="269" y2="169"/>
<text x="365" font-size="10" y="182" clip-path="url(#clipPath2)" font-family="'Calibri'" stroke="none" font-weight="bold" xml:space="preserve">(PSSM_Semantics::Semantics)</text>
<text x="365" font-size="10" y="198" clip-path="url(#clipPath3)" font-family="'Calibri'" stroke="none" font-weight="bold" xml:space="preserve">Values</text>
<line clip-path="url(#clipPath4)" fill="none" x1="360" x2="560" y1="204" y2="204"/>
<polygon fill="silver" clip-path="url(#clipPath5)" points=" 717 171 848 171 848 206 917 206 917 271 717 271 717 171" stroke="none"/>
<line clip-path="url(#clipPath5)" fill="none" x1="717" x2="848" y1="171" y2="171"/>
<line clip-path="url(#clipPath5)" fill="none" x1="848" x2="848" y1="171" y2="206"/>
<line clip-path="url(#clipPath5)" fill="none" x1="848" x2="917" y1="206" y2="206"/>
<line clip-path="url(#clipPath5)" fill="none" x1="917" x2="917" y1="206" y2="271"/>
<line clip-path="url(#clipPath5)" fill="none" x1="917" x2="717" y1="271" y2="271"/>
<line clip-path="url(#clipPath5)" fill="none" x1="717" x2="717" y1="271" y2="171"/>
<text x="722" font-size="10" y="184" clip-path="url(#clipPath6)" font-family="'Calibri'" stroke="none" font-weight="bold" xml:space="preserve">(PSCS_Semantics::Semantics)</text>
<text x="722" font-size="10" y="200" clip-path="url(#clipPath7)" font-family="'Calibri'" stroke="none" font-weight="bold" xml:space="preserve">Values</text>
<line clip-path="url(#clipPath8)" fill="none" x1="717" x2="917" y1="206" y2="206"/>
<polygon fill="white" clip-path="url(#clipPath9)" points=" 10 171 117 171 117 206 210 206 210 271 10 271 10 171" stroke="none"/>
<line clip-path="url(#clipPath9)" fill="none" x1="10" x2="117" y1="171" y2="171"/>
<line clip-path="url(#clipPath9)" fill="none" x1="117" x2="117" y1="171" y2="206"/>
<line clip-path="url(#clipPath9)" fill="none" x1="117" x2="210" y1="206" y2="206"/>
<line clip-path="url(#clipPath9)" fill="none" x1="210" x2="210" y1="206" y2="271"/>
<line clip-path="url(#clipPath9)" fill="none" x1="210" x2="10" y1="271" y2="271"/>
<line clip-path="url(#clipPath9)" fill="none" x1="10" x2="10" y1="271" y2="171"/>
<text x="15" font-size="10" y="184" clip-path="url(#clipPath10)" font-family="'Calibri'" stroke="none" font-weight="bold" xml:space="preserve">(PSSM_Syntax::Syntax)</text>
<text x="15" font-size="10" y="200" clip-path="url(#clipPath11)" font-family="'Calibri'" stroke="none" font-weight="bold" xml:space="preserve">Values</text>
<line clip-path="url(#clipPath12)" fill="none" x1="10" x2="210" y1="206" y2="206"/>
<polygon fill="white" clip-path="url(#clipPath13)" points=" 10 10 117 10 117 45 210 45 210 110 10 110 10 10" stroke="none"/>
<line clip-path="url(#clipPath13)" fill="none" x1="10" x2="117" y1="10" y2="10"/>
<line clip-path="url(#clipPath13)" fill="none" x1="117" x2="117" y1="10" y2="45"/>
<line clip-path="url(#clipPath13)" fill="none" x1="117" x2="210" y1="45" y2="45"/>
<line clip-path="url(#clipPath13)" fill="none" x1="210" x2="210" y1="45" y2="110"/>
<line clip-path="url(#clipPath13)" fill="none" x1="210" x2="10" y1="110" y2="110"/>
<line clip-path="url(#clipPath13)" fill="none" x1="10" x2="10" y1="110" y2="10"/>
<text x="15" font-size="10" y="23" clip-path="url(#clipPath14)" font-family="'Calibri'" stroke="none" font-weight="bold" xml:space="preserve">(PSSM_Syntax::Syntax)</text>
<text x="15" font-size="10" y="39" clip-path="url(#clipPath15)" font-family="'Calibri'" stroke="none" font-weight="bold" xml:space="preserve">CommonBehavior</text>
<line clip-path="url(#clipPath16)" fill="none" x1="10" x2="210" y1="45" y2="45"/>
<polygon fill="white" clip-path="url(#clipPath17)" points=" 360 519 495 519 495 554 560 554 560 619 360 619 360 519" stroke="none"/>
<line clip-path="url(#clipPath17)" fill="none" x1="360" x2="495" y1="519" y2="519"/>
<line clip-path="url(#clipPath17)" fill="none" x1="495" x2="495" y1="519" y2="554"/>
<line clip-path="url(#clipPath17)" fill="none" x1="495" x2="560" y1="554" y2="554"/>
<line clip-path="url(#clipPath17)" fill="none" x1="560" x2="560" y1="554" y2="619"/>
<line clip-path="url(#clipPath17)" fill="none" x1="560" x2="360" y1="619" y2="619"/>
<line clip-path="url(#clipPath17)" fill="none" x1="360" x2="360" y1="619" y2="519"/>
<text x="365" font-size="10" y="532" clip-path="url(#clipPath18)" font-family="'Calibri'" stroke="none" font-weight="bold" xml:space="preserve">(PSSM_Semantics::Semantics)</text>
<text x="365" font-size="10" y="548" clip-path="url(#clipPath19)" font-family="'Calibri'" stroke="none" font-weight="bold" xml:space="preserve">CommonBehavior</text>
<line clip-path="url(#clipPath20)" fill="none" x1="360" x2="560" y1="554" y2="554"/>
<polygon fill="white" clip-path="url(#clipPath21)" points=" 360 343 495 343 495 378 560 378 560 443 360 443 360 343" stroke="none"/>
<line clip-path="url(#clipPath21)" fill="none" x1="360" x2="495" y1="343" y2="343"/>
<line clip-path="url(#clipPath21)" fill="none" x1="495" x2="495" y1="343" y2="378"/>
<line clip-path="url(#clipPath21)" fill="none" x1="495" x2="560" y1="378" y2="378"/>
<line clip-path="url(#clipPath21)" fill="none" x1="560" x2="560" y1="378" y2="443"/>
<line clip-path="url(#clipPath21)" fill="none" x1="560" x2="360" y1="443" y2="443"/>
<line clip-path="url(#clipPath21)" fill="none" x1="360" x2="360" y1="443" y2="343"/>
<text x="365" font-size="10" y="356" clip-path="url(#clipPath22)" font-family="'Calibri'" stroke="none" font-weight="bold" xml:space="preserve">(PSSM_Semantics::Semantics)</text>
<text x="365" font-size="10" y="372" clip-path="url(#clipPath23)" font-family="'Calibri'" stroke="none" font-weight="bold" xml:space="preserve">StructuredClassifiers</text>
<line clip-path="url(#clipPath24)" fill="none" x1="360" x2="560" y1="378" y2="378"/>
<polygon fill="silver" clip-path="url(#clipPath25)" points=" 717 343 848 343 848 378 917 378 917 443 717 443 717 343" stroke="none"/>
<line clip-path="url(#clipPath25)" fill="none" x1="717" x2="848" y1="343" y2="343"/>
<line clip-path="url(#clipPath25)" fill="none" x1="848" x2="848" y1="343" y2="378"/>
<line clip-path="url(#clipPath25)" fill="none" x1="848" x2="917" y1="378" y2="378"/>
<line clip-path="url(#clipPath25)" fill="none" x1="917" x2="917" y1="378" y2="443"/>
<line clip-path="url(#clipPath25)" fill="none" x1="917" x2="717" y1="443" y2="443"/>
<line clip-path="url(#clipPath25)" fill="none" x1="717" x2="717" y1="443" y2="343"/>
<text x="722" font-size="10" y="356" clip-path="url(#clipPath26)" font-family="'Calibri'" stroke="none" font-weight="bold" xml:space="preserve">(PSCS_Semantics::Semantics)</text>
<text x="722" font-size="10" y="372" clip-path="url(#clipPath27)" font-family="'Calibri'" stroke="none" font-weight="bold" xml:space="preserve">StructuredClassifiers</text>
<line clip-path="url(#clipPath28)" fill="none" x1="717" x2="917" y1="378" y2="378"/>
<polygon fill="silver" clip-path="url(#clipPath29)" points=" 10 343 116 343 116 378 210 378 210 443 10 443 10 343" stroke="none"/>
<line clip-path="url(#clipPath29)" fill="none" x1="10" x2="116" y1="343" y2="343"/>
<line clip-path="url(#clipPath29)" fill="none" x1="116" x2="116" y1="343" y2="378"/>
<line clip-path="url(#clipPath29)" fill="none" x1="116" x2="210" y1="378" y2="378"/>
<line clip-path="url(#clipPath29)" fill="none" x1="210" x2="210" y1="378" y2="443"/>
<line clip-path="url(#clipPath29)" fill="none" x1="210" x2="10" y1="443" y2="443"/>
<line clip-path="url(#clipPath29)" fill="none" x1="10" x2="10" y1="443" y2="343"/>
<text x="15" font-size="10" y="356" clip-path="url(#clipPath30)" font-family="'Calibri'" stroke="none" font-weight="bold" xml:space="preserve">(fUML_Syntax::Syntax)</text>
<text x="15" font-size="10" y="372" clip-path="url(#clipPath31)" font-family="'Calibri'" stroke="none" font-weight="bold" xml:space="preserve">StructuredClassifiers</text>
<line clip-path="url(#clipPath32)" fill="none" x1="10" x2="210" y1="378" y2="378"/>
<polygon fill="white" clip-path="url(#clipPath33)" points=" 360 695 495 695 495 730 560 730 560 795 360 795 360 695" stroke="none"/>
<line clip-path="url(#clipPath33)" fill="none" x1="360" x2="495" y1="695" y2="695"/>
<line clip-path="url(#clipPath33)" fill="none" x1="495" x2="495" y1="695" y2="730"/>
<line clip-path="url(#clipPath33)" fill="none" x1="495" x2="560" y1="730" y2="730"/>
<line clip-path="url(#clipPath33)" fill="none" x1="560" x2="560" y1="730" y2="795"/>
<line clip-path="url(#clipPath33)" fill="none" x1="560" x2="360" y1="795" y2="795"/>
<line clip-path="url(#clipPath33)" fill="none" x1="360" x2="360" y1="795" y2="695"/>
<text x="365" font-size="10" y="708" clip-path="url(#clipPath34)" font-family="'Calibri'" stroke="none" font-weight="bold" xml:space="preserve">(PSSM_Semantics::Semantics)</text>
<text x="365" font-size="10" y="724" clip-path="url(#clipPath35)" font-family="'Calibri'" stroke="none" font-weight="bold" xml:space="preserve">StateMachines</text>
<line clip-path="url(#clipPath36)" fill="none" x1="360" x2="560" y1="730" y2="730"/>
<polygon fill="white" clip-path="url(#clipPath37)" points=" 10 518 117 518 117 553 210 553 210 618 10 618 10 518" stroke="none"/>
<line clip-path="url(#clipPath37)" fill="none" x1="10" x2="117" y1="518" y2="518"/>
<line clip-path="url(#clipPath37)" fill="none" x1="117" x2="117" y1="518" y2="553"/>
<line clip-path="url(#clipPath37)" fill="none" x1="117" x2="210" y1="553" y2="553"/>
<line clip-path="url(#clipPath37)" fill="none" x1="210" x2="210" y1="553" y2="618"/>
<line clip-path="url(#clipPath37)" fill="none" x1="210" x2="10" y1="618" y2="618"/>
<line clip-path="url(#clipPath37)" fill="none" x1="10" x2="10" y1="618" y2="518"/>
<text x="15" font-size="10" y="531" clip-path="url(#clipPath38)" font-family="'Calibri'" stroke="none" font-weight="bold" xml:space="preserve">(PSSM_Syntax::Syntax)</text>
<text x="15" font-size="10" y="547" clip-path="url(#clipPath39)" font-family="'Calibri'" stroke="none" font-weight="bold" xml:space="preserve">CommonStructure</text>
<line clip-path="url(#clipPath40)" fill="none" x1="10" x2="210" y1="553" y2="553"/>
<polygon fill="white" clip-path="url(#clipPath41)" points=" 10 695 117 695 117 730 210 730 210 795 10 795 10 695" stroke="none"/>
<line clip-path="url(#clipPath41)" fill="none" x1="10" x2="117" y1="695" y2="695"/>
<line clip-path="url(#clipPath41)" fill="none" x1="117" x2="117" y1="695" y2="730"/>
<line clip-path="url(#clipPath41)" fill="none" x1="117" x2="210" y1="730" y2="730"/>
<line clip-path="url(#clipPath41)" fill="none" x1="210" x2="210" y1="730" y2="795"/>
<line clip-path="url(#clipPath41)" fill="none" x1="210" x2="10" y1="795" y2="795"/>
<line clip-path="url(#clipPath41)" fill="none" x1="10" x2="10" y1="795" y2="695"/>
<text x="15" font-size="10" y="708" clip-path="url(#clipPath42)" font-family="'Calibri'" stroke="none" font-weight="bold" xml:space="preserve">(PSSM_Syntax::Syntax)</text>
<text x="15" font-size="10" y="724" clip-path="url(#clipPath43)" font-family="'Calibri'" stroke="none" font-weight="bold" xml:space="preserve">StateMachines</text>
<line clip-path="url(#clipPath44)" fill="none" x1="10" x2="210" y1="730" y2="730"/>
<polygon fill="white" clip-path="url(#clipPath45)" points=" 360 1055 495 1055 495 1090 560 1090 560 1155 360 1155 360 1055" stroke="none"/>
<line clip-path="url(#clipPath45)" fill="none" x1="360" x2="495" y1="1055" y2="1055"/>
<line clip-path="url(#clipPath45)" fill="none" x1="495" x2="495" y1="1055" y2="1090"/>
<line clip-path="url(#clipPath45)" fill="none" x1="495" x2="560" y1="1090" y2="1090"/>
<line clip-path="url(#clipPath45)" fill="none" x1="560" x2="560" y1="1090" y2="1155"/>
<line clip-path="url(#clipPath45)" fill="none" x1="560" x2="360" y1="1155" y2="1155"/>
<line clip-path="url(#clipPath45)" fill="none" x1="360" x2="360" y1="1155" y2="1055"/>
<text x="365" font-size="10" y="1068" clip-path="url(#clipPath46)" font-family="'Calibri'" stroke="none" font-weight="bold" xml:space="preserve">(PSSM_Semantics::Semantics)</text>
<text x="365" font-size="10" y="1084" clip-path="url(#clipPath47)" font-family="'Calibri'" stroke="none" font-weight="bold" xml:space="preserve">Loci</text>
<line clip-path="url(#clipPath48)" fill="none" x1="360" x2="560" y1="1090" y2="1090"/>
<polygon fill="silver" clip-path="url(#clipPath49)" points=" 717 1055 848 1055 848 1090 917 1090 917 1155 717 1155 717 1055" stroke="none"/>
<line clip-path="url(#clipPath49)" fill="none" x1="717" x2="848" y1="1055" y2="1055"/>
<line clip-path="url(#clipPath49)" fill="none" x1="848" x2="848" y1="1055" y2="1090"/>
<line clip-path="url(#clipPath49)" fill="none" x1="848" x2="917" y1="1090" y2="1090"/>
<line clip-path="url(#clipPath49)" fill="none" x1="917" x2="917" y1="1090" y2="1155"/>
<line clip-path="url(#clipPath49)" fill="none" x1="917" x2="717" y1="1155" y2="1155"/>
<line clip-path="url(#clipPath49)" fill="none" x1="717" x2="717" y1="1155" y2="1055"/>
<text x="722" font-size="10" y="1068" clip-path="url(#clipPath50)" font-family="'Calibri'" stroke="none" font-weight="bold" xml:space="preserve">(PSCS_Semantics::Semantics)</text>
<text x="722" font-size="10" y="1084" clip-path="url(#clipPath51)" font-family="'Calibri'" stroke="none" font-weight="bold" xml:space="preserve">Loci</text>
<line clip-path="url(#clipPath52)" fill="none" x1="717" x2="917" y1="1090" y2="1090"/>
<polygon fill="silver" clip-path="url(#clipPath53)" points=" 717 11 851 11 851 46 917 46 917 111 717 111 717 11" stroke="none"/>
<line clip-path="url(#clipPath53)" fill="none" x1="717" x2="851" y1="11" y2="11"/>
<line clip-path="url(#clipPath53)" fill="none" x1="851" x2="851" y1="11" y2="46"/>
<line clip-path="url(#clipPath53)" fill="none" x1="851" x2="917" y1="46" y2="46"/>
<line clip-path="url(#clipPath53)" fill="none" x1="917" x2="917" y1="46" y2="111"/>
<line clip-path="url(#clipPath53)" fill="none" x1="917" x2="717" y1="111" y2="111"/>
<line clip-path="url(#clipPath53)" fill="none" x1="717" x2="717" y1="111" y2="11"/>
<text x="722" font-size="10" y="24" clip-path="url(#clipPath54)" font-family="'Calibri'" stroke="none" font-weight="bold" xml:space="preserve">(fUML_Semantics::Semantics)</text>
<text x="722" font-size="10" y="40" clip-path="url(#clipPath55)" font-family="'Calibri'" stroke="none" font-weight="bold" xml:space="preserve">CommonBehavior</text>
<line clip-path="url(#clipPath56)" fill="none" x1="717" x2="917" y1="46" y2="46"/>
<polygon fill="silver" clip-path="url(#clipPath57)" points=" 717 695 851 695 851 730 917 730 917 795 717 795 717 695" stroke="none"/>
<line clip-path="url(#clipPath57)" fill="none" x1="717" x2="851" y1="695" y2="695"/>
<line clip-path="url(#clipPath57)" fill="none" x1="851" x2="851" y1="695" y2="730"/>
<line clip-path="url(#clipPath57)" fill="none" x1="851" x2="917" y1="730" y2="730"/>
<line clip-path="url(#clipPath57)" fill="none" x1="917" x2="917" y1="730" y2="795"/>
<line clip-path="url(#clipPath57)" fill="none" x1="917" x2="717" y1="795" y2="795"/>
<line clip-path="url(#clipPath57)" fill="none" x1="717" x2="717" y1="795" y2="695"/>
<text x="722" font-size="10" y="708" clip-path="url(#clipPath58)" font-family="'Calibri'" stroke="none" font-weight="bold" xml:space="preserve">(fUML_Semantics::Semantics)</text>
<text x="722" font-size="10" y="724" clip-path="url(#clipPath59)" font-family="'Calibri'" stroke="none" font-weight="bold" xml:space="preserve">Loci</text>
<line clip-path="url(#clipPath60)" fill="none" x1="717" x2="917" y1="730" y2="730"/>
<polygon fill="white" clip-path="url(#clipPath61)" points=" 359 874 494 874 494 909 559 909 559 974 359 974 359 874" stroke="none"/>
<line clip-path="url(#clipPath61)" fill="none" x1="359" x2="494" y1="874" y2="874"/>
<line clip-path="url(#clipPath61)" fill="none" x1="494" x2="494" y1="874" y2="909"/>
<line clip-path="url(#clipPath61)" fill="none" x1="494" x2="559" y1="909" y2="909"/>
<line clip-path="url(#clipPath61)" fill="none" x1="559" x2="559" y1="909" y2="974"/>
<line clip-path="url(#clipPath61)" fill="none" x1="559" x2="359" y1="974" y2="974"/>
<line clip-path="url(#clipPath61)" fill="none" x1="359" x2="359" y1="974" y2="874"/>
<text x="364" font-size="10" y="887" clip-path="url(#clipPath62)" font-family="'Calibri'" stroke="none" font-weight="bold" xml:space="preserve">(PSSM_Semantics::Semantics)</text>
<text x="364" font-size="10" y="903" clip-path="url(#clipPath63)" font-family="'Calibri'" stroke="none" font-weight="bold" xml:space="preserve">Actions</text>
<line clip-path="url(#clipPath64)" fill="none" x1="359" x2="559" y1="909" y2="909"/>
<polygon fill="silver" clip-path="url(#clipPath65)" points=" 717 874 848 874 848 909 917 909 917 974 717 974 717 874" stroke="none"/>
<line clip-path="url(#clipPath65)" fill="none" x1="717" x2="848" y1="874" y2="874"/>
<line clip-path="url(#clipPath65)" fill="none" x1="848" x2="848" y1="874" y2="909"/>
<line clip-path="url(#clipPath65)" fill="none" x1="848" x2="917" y1="909" y2="909"/>
<line clip-path="url(#clipPath65)" fill="none" x1="917" x2="917" y1="909" y2="974"/>
<line clip-path="url(#clipPath65)" fill="none" x1="917" x2="717" y1="974" y2="974"/>
<line clip-path="url(#clipPath65)" fill="none" x1="717" x2="717" y1="974" y2="874"/>
<text x="722" font-size="10" y="887" clip-path="url(#clipPath66)" font-family="'Calibri'" stroke="none" font-weight="bold" xml:space="preserve">(PSCS_Semantics::Semantics)</text>
<text x="722" font-size="10" y="903" clip-path="url(#clipPath67)" font-family="'Calibri'" stroke="none" font-weight="bold" xml:space="preserve">Actions</text>
<line clip-path="url(#clipPath68)" fill="none" x1="717" x2="917" y1="909" y2="909"/>
</g>
<g stroke-linecap="butt" font-size="10" text-rendering="optimizeLegibility" font-family="'Calibri'" stroke-dasharray="5,5,5,5,5,5,5,5,5,5" stroke-width="1.1">
<line clip-path="url(#clipPath69)" fill="none" x1="560" x2="717" y1="234" y2="234"/>
<text xml:space="preserve" x="622" y="226" clip-path="url(#clipPath70)" stroke="none">«import»</text>
<line clip-path="url(#clipPath71)" fill="none" x1="702" x2="717" y1="239" y2="234" stroke-dasharray="none"/>
<line clip-path="url(#clipPath71)" fill="none" x1="717" x2="702" y1="234" y2="229" stroke-dasharray="none"/>
<line clip-path="url(#clipPath69)" fill="none" x1="360" x2="210" y1="232" y2="232"/>
<text xml:space="preserve" x="266" y="226" clip-path="url(#clipPath72)" stroke="none">«import»</text>
<line clip-path="url(#clipPath73)" fill="none" x1="225" x2="210" y1="227" y2="232" stroke-dasharray="none"/>
<line clip-path="url(#clipPath73)" fill="none" x1="210" x2="225" y1="232" y2="237" stroke-dasharray="none"/>
<line clip-path="url(#clipPath69)" fill="none" x1="360" x2="210" y1="199" y2="107"/>
<text xml:space="preserve" x="269" y="158" clip-path="url(#clipPath74)" stroke="none">«import»</text>
<line clip-path="url(#clipPath75)" fill="none" x1="225" x2="210" y1="111" y2="107" stroke-dasharray="none"/>
<line clip-path="url(#clipPath75)" fill="none" x1="210" x2="220" y1="107" y2="119" stroke-dasharray="none"/>
<line clip-path="url(#clipPath69)" fill="none" x1="560" x2="717" y1="269" y2="371"/>
<text xml:space="preserve" x="621" y="314" clip-path="url(#clipPath76)" stroke="none">«import»</text>
<line clip-path="url(#clipPath77)" fill="none" x1="702" x2="717" y1="367" y2="371" stroke-dasharray="none"/>
<line clip-path="url(#clipPath77)" fill="none" x1="717" x2="707" y1="371" y2="359" stroke-dasharray="none"/>
<line clip-path="url(#clipPath69)" fill="none" x1="360" x2="210" y1="401" y2="401"/>
<text xml:space="preserve" x="267" y="396" clip-path="url(#clipPath78)" stroke="none">«import»</text>
<line clip-path="url(#clipPath79)" fill="none" x1="225" x2="210" y1="396" y2="401" stroke-dasharray="none"/>
<line clip-path="url(#clipPath79)" fill="none" x1="210" x2="225" y1="401" y2="406" stroke-dasharray="none"/>
<line clip-path="url(#clipPath69)" fill="none" x1="360" x2="210" y1="728" y2="616"/>
<text xml:space="preserve" x="268" y="677" clip-path="url(#clipPath80)" stroke="none">«import»</text>
<line clip-path="url(#clipPath81)" fill="none" x1="225" x2="210" y1="621" y2="616" stroke-dasharray="none"/>
<line clip-path="url(#clipPath81)" fill="none" x1="210" x2="219" y1="616" y2="629" stroke-dasharray="none"/>
<line clip-path="url(#clipPath69)" fill="none" x1="360" x2="210" y1="756" y2="756"/>
<text xml:space="preserve" x="267" y="752" clip-path="url(#clipPath82)" stroke="none">«import»</text>
<line clip-path="url(#clipPath83)" fill="none" x1="225" x2="210" y1="751" y2="756" stroke-dasharray="none"/>
<line clip-path="url(#clipPath83)" fill="none" x1="210" x2="225" y1="756" y2="761" stroke-dasharray="none"/>
<line clip-path="url(#clipPath69)" fill="none" x1="462" x2="462" y1="519" y2="443"/>
<text xml:space="preserve" x="419" y="485" clip-path="url(#clipPath84)" stroke="none">«import»</text>
<line clip-path="url(#clipPath85)" fill="none" x1="467" x2="462" y1="458" y2="443" stroke-dasharray="none"/>
<line clip-path="url(#clipPath85)" fill="none" x1="462" x2="457" y1="443" y2="458" stroke-dasharray="none"/>
<line clip-path="url(#clipPath69)" fill="none" x1="460" x2="460" y1="343" y2="269"/>
<text xml:space="preserve" x="417" y="310" clip-path="url(#clipPath86)" stroke="none">«import»</text>
<line clip-path="url(#clipPath87)" fill="none" x1="465" x2="460" y1="284" y2="269" stroke-dasharray="none"/>
<line clip-path="url(#clipPath87)" fill="none" x1="460" x2="455" y1="269" y2="284" stroke-dasharray="none"/>
<line clip-path="url(#clipPath69)" fill="none" x1="454" x2="455" y1="1055" y2="974"/>
<text xml:space="preserve" x="412" y="1018" clip-path="url(#clipPath88)" stroke="none">«import»</text>
<line clip-path="url(#clipPath89)" fill="none" x1="460" x2="455" y1="989" y2="974" stroke-dasharray="none"/>
<line clip-path="url(#clipPath89)" fill="none" x1="455" x2="450" y1="974" y2="989" stroke-dasharray="none"/>
<line clip-path="url(#clipPath69)" fill="none" x1="514" x2="514" y1="619" y2="695"/>
<text xml:space="preserve" x="520" y="661" clip-path="url(#clipPath90)" stroke="none">«import»</text>
<line clip-path="url(#clipPath91)" fill="none" x1="509" x2="514" y1="680" y2="695" stroke-dasharray="none"/>
<line clip-path="url(#clipPath91)" fill="none" x1="514" x2="519" y1="695" y2="680" stroke-dasharray="none"/>
<line clip-path="url(#clipPath69)" fill="none" x1="560" x2="717" y1="1119" y2="1119"/>
<text xml:space="preserve" x="621" y="1114" clip-path="url(#clipPath92)" stroke="none">«import»</text>
<line clip-path="url(#clipPath93)" fill="none" x1="702" x2="717" y1="1124" y2="1119" stroke-dasharray="none"/>
<line clip-path="url(#clipPath93)" fill="none" x1="717" x2="702" y1="1119" y2="1114" stroke-dasharray="none"/>
<line clip-path="url(#clipPath69)" fill="none" x1="461" x2="461" y1="695" y2="619"/>
<text xml:space="preserve" x="418" y="660" clip-path="url(#clipPath94)" stroke="none">«import»</text>
<line clip-path="url(#clipPath95)" fill="none" x1="466" x2="461" y1="634" y2="619" stroke-dasharray="none"/>
<line clip-path="url(#clipPath95)" fill="none" x1="461" x2="456" y1="619" y2="634" stroke-dasharray="none"/>
<line clip-path="url(#clipPath69)" fill="none" x1="560" x2="717" y1="202" y2="109"/>
<text xml:space="preserve" x="621" y="159" clip-path="url(#clipPath96)" stroke="none">«import»</text>
<line clip-path="url(#clipPath97)" fill="none" x1="707" x2="717" y1="121" y2="109" stroke-dasharray="none"/>
<line clip-path="url(#clipPath97)" fill="none" x1="717" x2="702" y1="109" y2="112" stroke-dasharray="none"/>
<line clip-path="url(#clipPath69)" fill="none" x1="560" x2="717" y1="757" y2="757"/>
<text xml:space="preserve" x="620" y="751" clip-path="url(#clipPath98)" stroke="none">«import»</text>
<line clip-path="url(#clipPath99)" fill="none" x1="702" x2="717" y1="762" y2="757" stroke-dasharray="none"/>
<line clip-path="url(#clipPath99)" fill="none" x1="717" x2="702" y1="757" y2="752" stroke-dasharray="none"/>
<line clip-path="url(#clipPath69)" fill="none" x1="513" x2="513" y1="443" y2="519"/>
<text xml:space="preserve" x="521" y="484" clip-path="url(#clipPath100)" stroke="none">«import»</text>
<line clip-path="url(#clipPath101)" fill="none" x1="508" x2="513" y1="504" y2="519" stroke-dasharray="none"/>
<line clip-path="url(#clipPath101)" fill="none" x1="513" x2="518" y1="519" y2="504" stroke-dasharray="none"/>
<line clip-path="url(#clipPath69)" fill="none" x1="457" x2="458" y1="874" y2="795"/>
<text xml:space="preserve" x="476" y="839" clip-path="url(#clipPath102)" stroke="none">«import»</text>
<line clip-path="url(#clipPath103)" fill="none" x1="463" x2="458" y1="810" y2="795" stroke-dasharray="none"/>
<line clip-path="url(#clipPath103)" fill="none" x1="458" x2="453" y1="795" y2="810" stroke-dasharray="none"/>
<line clip-path="url(#clipPath69)" fill="none" x1="559" x2="717" y1="938" y2="938"/>
<text xml:space="preserve" x="617" y="931" clip-path="url(#clipPath104)" stroke="none">«import»</text>
<line clip-path="url(#clipPath105)" fill="none" x1="702" x2="717" y1="943" y2="938" stroke-dasharray="none"/>
<line clip-path="url(#clipPath105)" fill="none" x1="717" x2="702" y1="938" y2="933" stroke-dasharray="none"/>
</g>
</g>
</svg>
