<?xml version="1.0" encoding="UTF-8"?><svg xmlns="http://www.w3.org/2000/svg" xmlns:xlink="http://www.w3.org/1999/xlink" stroke-dasharray="none" shape-rendering="auto" font-family="'Dialog'" width="927" text-rendering="auto" fill-opacity="1" contentScriptType="text/ecmascript" color-interpolation="auto" color-rendering="auto" preserveAspectRatio="xMidYMid meet" font-size="12" viewBox="0 0 927 980" fill="black" stroke="black" image-rendering="auto" stroke-miterlimit="10" zoomAndPan="magnify" version="1.0" stroke-linecap="square" stroke-linejoin="miter" contentStyleType="text/css" font-style="normal" height="980" stroke-width="1" stroke-dashoffset="0" font-weight="normal" stroke-opacity="1">
<!--Generated by the Batik Graphics2D SVG Generator-->
<defs id="genericDefs"/>
<g>
<defs id="defs1">
<clipPath clipPathUnits="userSpaceOnUse" id="clipPath1">
<path d="M358 168 L562 168 L562 272 L358 272 L358 168 Z"/>
</clipPath>
<clipPath clipPathUnits="userSpaceOnUse" id="clipPath2">
<path d="M359 172 L561 172 L561 185 L359 185 L359 172 Z"/>
</clipPath>
<clipPath clipPathUnits="userSpaceOnUse" id="clipPath3">
<path d="M364 184 L395 184 L395 197 L364 197 L364 184 Z"/>
</clipPath>
<clipPath clipPathUnits="userSpaceOnUse" id="clipPath4">
<path d="M359 198 L561 198 L561 271 L359 271 L359 198 Z"/>
</clipPath>
<clipPath clipPathUnits="userSpaceOnUse" id="clipPath5">
<path d="M715 169 L919 169 L919 273 L715 273 L715 169 Z"/>
</clipPath>
<clipPath clipPathUnits="userSpaceOnUse" id="clipPath6">
<path d="M716 173 L918 173 L918 186 L716 186 L716 173 Z"/>
</clipPath>
<clipPath clipPathUnits="userSpaceOnUse" id="clipPath7">
<path d="M721 185 L752 185 L752 198 L721 198 L721 185 Z"/>
</clipPath>
<clipPath clipPathUnits="userSpaceOnUse" id="clipPath8">
<path d="M716 199 L918 199 L918 272 L716 272 L716 199 Z"/>
</clipPath>
<clipPath clipPathUnits="userSpaceOnUse" id="clipPath9">
<path d="M8 169 L212 169 L212 273 L8 273 L8 169 Z"/>
</clipPath>
<clipPath clipPathUnits="userSpaceOnUse" id="clipPath10">
<path d="M9 173 L211 173 L211 186 L9 186 L9 173 Z"/>
</clipPath>
<clipPath clipPathUnits="userSpaceOnUse" id="clipPath11">
<path d="M14 185 L45 185 L45 198 L14 198 L14 185 Z"/>
</clipPath>
<clipPath clipPathUnits="userSpaceOnUse" id="clipPath12">
<path d="M9 199 L211 199 L211 272 L9 272 L9 199 Z"/>
</clipPath>
<clipPath clipPathUnits="userSpaceOnUse" id="clipPath13">
<path d="M8 8 L212 8 L212 112 L8 112 L8 8 Z"/>
</clipPath>
<clipPath clipPathUnits="userSpaceOnUse" id="clipPath14">
<path d="M9 12 L211 12 L211 25 L9 25 L9 12 Z"/>
</clipPath>
<clipPath clipPathUnits="userSpaceOnUse" id="clipPath15">
<path d="M14 24 L91 24 L91 37 L14 37 L14 24 Z"/>
</clipPath>
<clipPath clipPathUnits="userSpaceOnUse" id="clipPath16">
<path d="M9 38 L211 38 L211 111 L9 111 L9 38 Z"/>
</clipPath>
<clipPath clipPathUnits="userSpaceOnUse" id="clipPath17">
<path d="M358 517 L562 517 L562 621 L358 621 L358 517 Z"/>
</clipPath>
<clipPath clipPathUnits="userSpaceOnUse" id="clipPath18">
<path d="M359 521 L561 521 L561 534 L359 534 L359 521 Z"/>
</clipPath>
<clipPath clipPathUnits="userSpaceOnUse" id="clipPath19">
<path d="M364 533 L441 533 L441 546 L364 546 L364 533 Z"/>
</clipPath>
<clipPath clipPathUnits="userSpaceOnUse" id="clipPath20">
<path d="M359 547 L561 547 L561 620 L359 620 L359 547 Z"/>
</clipPath>
<clipPath clipPathUnits="userSpaceOnUse" id="clipPath21">
<path d="M358 341 L562 341 L562 445 L358 445 L358 341 Z"/>
</clipPath>
<clipPath clipPathUnits="userSpaceOnUse" id="clipPath22">
<path d="M359 345 L561 345 L561 358 L359 358 L359 345 Z"/>
</clipPath>
<clipPath clipPathUnits="userSpaceOnUse" id="clipPath23">
<path d="M364 357 L457 357 L457 370 L364 370 L364 357 Z"/>
</clipPath>
<clipPath clipPathUnits="userSpaceOnUse" id="clipPath24">
<path d="M359 371 L561 371 L561 444 L359 444 L359 371 Z"/>
</clipPath>
<clipPath clipPathUnits="userSpaceOnUse" id="clipPath25">
<path d="M715 341 L919 341 L919 445 L715 445 L715 341 Z"/>
</clipPath>
<clipPath clipPathUnits="userSpaceOnUse" id="clipPath26">
<path d="M716 345 L918 345 L918 358 L716 358 L716 345 Z"/>
</clipPath>
<clipPath clipPathUnits="userSpaceOnUse" id="clipPath27">
<path d="M721 357 L814 357 L814 370 L721 370 L721 357 Z"/>
</clipPath>
<clipPath clipPathUnits="userSpaceOnUse" id="clipPath28">
<path d="M716 371 L918 371 L918 444 L716 444 L716 371 Z"/>
</clipPath>
<clipPath clipPathUnits="userSpaceOnUse" id="clipPath29">
<path d="M8 341 L212 341 L212 445 L8 445 L8 341 Z"/>
</clipPath>
<clipPath clipPathUnits="userSpaceOnUse" id="clipPath30">
<path d="M9 345 L211 345 L211 358 L9 358 L9 345 Z"/>
</clipPath>
<clipPath clipPathUnits="userSpaceOnUse" id="clipPath31">
<path d="M14 357 L107 357 L107 370 L14 370 L14 357 Z"/>
</clipPath>
<clipPath clipPathUnits="userSpaceOnUse" id="clipPath32">
<path d="M9 371 L211 371 L211 444 L9 444 L9 371 Z"/>
</clipPath>
<clipPath clipPathUnits="userSpaceOnUse" id="clipPath33">
<path d="M358 693 L562 693 L562 797 L358 797 L358 693 Z"/>
</clipPath>
<clipPath clipPathUnits="userSpaceOnUse" id="clipPath34">
<path d="M359 697 L561 697 L561 710 L359 710 L359 697 Z"/>
</clipPath>
<clipPath clipPathUnits="userSpaceOnUse" id="clipPath35">
<path d="M364 709 L428 709 L428 722 L364 722 L364 709 Z"/>
</clipPath>
<clipPath clipPathUnits="userSpaceOnUse" id="clipPath36">
<path d="M359 723 L561 723 L561 796 L359 796 L359 723 Z"/>
</clipPath>
<clipPath clipPathUnits="userSpaceOnUse" id="clipPath37">
<path d="M8 516 L212 516 L212 620 L8 620 L8 516 Z"/>
</clipPath>
<clipPath clipPathUnits="userSpaceOnUse" id="clipPath38">
<path d="M9 520 L211 520 L211 533 L9 533 L9 520 Z"/>
</clipPath>
<clipPath clipPathUnits="userSpaceOnUse" id="clipPath39">
<path d="M14 532 L93 532 L93 545 L14 545 L14 532 Z"/>
</clipPath>
<clipPath clipPathUnits="userSpaceOnUse" id="clipPath40">
<path d="M9 546 L211 546 L211 619 L9 619 L9 546 Z"/>
</clipPath>
<clipPath clipPathUnits="userSpaceOnUse" id="clipPath41">
<path d="M8 693 L212 693 L212 797 L8 797 L8 693 Z"/>
</clipPath>
<clipPath clipPathUnits="userSpaceOnUse" id="clipPath42">
<path d="M9 697 L211 697 L211 710 L9 710 L9 697 Z"/>
</clipPath>
<clipPath clipPathUnits="userSpaceOnUse" id="clipPath43">
<path d="M14 709 L78 709 L78 722 L14 722 L14 709 Z"/>
</clipPath>
<clipPath clipPathUnits="userSpaceOnUse" id="clipPath44">
<path d="M9 723 L211 723 L211 796 L9 796 L9 723 Z"/>
</clipPath>
<clipPath clipPathUnits="userSpaceOnUse" id="clipPath45">
<path d="M358 868 L562 868 L562 972 L358 972 L358 868 Z"/>
</clipPath>
<clipPath clipPathUnits="userSpaceOnUse" id="clipPath46">
<path d="M359 872 L561 872 L561 885 L359 885 L359 872 Z"/>
</clipPath>
<clipPath clipPathUnits="userSpaceOnUse" id="clipPath47">
<path d="M364 884 L384 884 L384 897 L364 897 L364 884 Z"/>
</clipPath>
<clipPath clipPathUnits="userSpaceOnUse" id="clipPath48">
<path d="M359 898 L561 898 L561 971 L359 971 L359 898 Z"/>
</clipPath>
<clipPath clipPathUnits="userSpaceOnUse" id="clipPath49">
<path d="M715 868 L919 868 L919 972 L715 972 L715 868 Z"/>
</clipPath>
<clipPath clipPathUnits="userSpaceOnUse" id="clipPath50">
<path d="M716 872 L918 872 L918 885 L716 885 L716 872 Z"/>
</clipPath>
<clipPath clipPathUnits="userSpaceOnUse" id="clipPath51">
<path d="M721 884 L741 884 L741 897 L721 897 L721 884 Z"/>
</clipPath>
<clipPath clipPathUnits="userSpaceOnUse" id="clipPath52">
<path d="M716 898 L918 898 L918 971 L716 971 L716 898 Z"/>
</clipPath>
<clipPath clipPathUnits="userSpaceOnUse" id="clipPath53">
<path d="M715 9 L919 9 L919 113 L715 113 L715 9 Z"/>
</clipPath>
<clipPath clipPathUnits="userSpaceOnUse" id="clipPath54">
<path d="M716 13 L918 13 L918 26 L716 26 L716 13 Z"/>
</clipPath>
<clipPath clipPathUnits="userSpaceOnUse" id="clipPath55">
<path d="M721 25 L798 25 L798 38 L721 38 L721 25 Z"/>
</clipPath>
<clipPath clipPathUnits="userSpaceOnUse" id="clipPath56">
<path d="M716 39 L918 39 L918 112 L716 112 L716 39 Z"/>
</clipPath>
<clipPath clipPathUnits="userSpaceOnUse" id="clipPath57">
<path d="M715 693 L919 693 L919 797 L715 797 L715 693 Z"/>
</clipPath>
<clipPath clipPathUnits="userSpaceOnUse" id="clipPath58">
<path d="M716 697 L918 697 L918 710 L716 710 L716 697 Z"/>
</clipPath>
<clipPath clipPathUnits="userSpaceOnUse" id="clipPath59">
<path d="M721 709 L741 709 L741 722 L721 722 L721 709 Z"/>
</clipPath>
<clipPath clipPathUnits="userSpaceOnUse" id="clipPath60">
<path d="M716 723 L918 723 L918 796 L716 796 L716 723 Z"/>
</clipPath>
<clipPath clipPathUnits="userSpaceOnUse" id="clipPath61">
<path d="M-1 -1 L928 -1 L928 981 L-1 981 L-1 -1 Z"/>
</clipPath>
<clipPath clipPathUnits="userSpaceOnUse" id="clipPath62">
<path d="M622 216 L659 216 L659 229 L622 229 L622 216 Z"/>
</clipPath>
<clipPath clipPathUnits="userSpaceOnUse" id="clipPath63">
<path d="M701 228 L719 228 L719 241 L701 241 L701 228 Z"/>
</clipPath>
<clipPath clipPathUnits="userSpaceOnUse" id="clipPath64">
<path d="M266 216 L303 216 L303 229 L266 229 L266 216 Z"/>
</clipPath>
<clipPath clipPathUnits="userSpaceOnUse" id="clipPath65">
<path d="M209 226 L227 226 L227 239 L209 239 L209 226 Z"/>
</clipPath>
<clipPath clipPathUnits="userSpaceOnUse" id="clipPath66">
<path d="M270 150 L307 150 L307 163 L270 163 L270 150 Z"/>
</clipPath>
<clipPath clipPathUnits="userSpaceOnUse" id="clipPath67">
<path d="M209 106 L227 106 L227 121 L209 121 L209 106 Z"/>
</clipPath>
<clipPath clipPathUnits="userSpaceOnUse" id="clipPath68">
<path d="M621 303 L658 303 L658 316 L621 316 L621 303 Z"/>
</clipPath>
<clipPath clipPathUnits="userSpaceOnUse" id="clipPath69">
<path d="M701 358 L719 358 L719 373 L701 373 L701 358 Z"/>
</clipPath>
<clipPath clipPathUnits="userSpaceOnUse" id="clipPath70">
<path d="M267 386 L304 386 L304 399 L267 399 L267 386 Z"/>
</clipPath>
<clipPath clipPathUnits="userSpaceOnUse" id="clipPath71">
<path d="M209 395 L227 395 L227 408 L209 408 L209 395 Z"/>
</clipPath>
<clipPath clipPathUnits="userSpaceOnUse" id="clipPath72">
<path d="M269 667 L306 667 L306 680 L269 680 L269 667 Z"/>
</clipPath>
<clipPath clipPathUnits="userSpaceOnUse" id="clipPath73">
<path d="M209 615 L227 615 L227 631 L209 631 L209 615 Z"/>
</clipPath>
<clipPath clipPathUnits="userSpaceOnUse" id="clipPath74">
<path d="M267 742 L304 742 L304 755 L267 755 L267 742 Z"/>
</clipPath>
<clipPath clipPathUnits="userSpaceOnUse" id="clipPath75">
<path d="M209 750 L227 750 L227 763 L209 763 L209 750 Z"/>
</clipPath>
<clipPath clipPathUnits="userSpaceOnUse" id="clipPath76">
<path d="M419 489 L456 489 L456 502 L419 502 L419 489 Z"/>
</clipPath>
<clipPath clipPathUnits="userSpaceOnUse" id="clipPath77">
<path d="M456 442 L469 442 L469 460 L456 460 L456 442 Z"/>
</clipPath>
<clipPath clipPathUnits="userSpaceOnUse" id="clipPath78">
<path d="M417 300 L454 300 L454 313 L417 313 L417 300 Z"/>
</clipPath>
<clipPath clipPathUnits="userSpaceOnUse" id="clipPath79">
<path d="M454 269 L467 269 L467 287 L454 287 L454 269 Z"/>
</clipPath>
<clipPath clipPathUnits="userSpaceOnUse" id="clipPath80">
<path d="M416 841 L453 841 L453 854 L416 854 L416 841 Z"/>
</clipPath>
<clipPath clipPathUnits="userSpaceOnUse" id="clipPath81">
<path d="M454 794 L467 794 L467 812 L454 812 L454 794 Z"/>
</clipPath>
<clipPath clipPathUnits="userSpaceOnUse" id="clipPath82">
<path d="M520 666 L557 666 L557 679 L520 679 L520 666 Z"/>
</clipPath>
<clipPath clipPathUnits="userSpaceOnUse" id="clipPath83">
<path d="M508 708 L521 708 L521 726 L508 726 L508 708 Z"/>
</clipPath>
<clipPath clipPathUnits="userSpaceOnUse" id="clipPath84">
<path d="M621 919 L658 919 L658 932 L621 932 L621 919 Z"/>
</clipPath>
<clipPath clipPathUnits="userSpaceOnUse" id="clipPath85">
<path d="M701 928 L719 928 L719 941 L701 941 L701 928 Z"/>
</clipPath>
<clipPath clipPathUnits="userSpaceOnUse" id="clipPath86">
<path d="M418 664 L455 664 L455 677 L418 677 L418 664 Z"/>
</clipPath>
<clipPath clipPathUnits="userSpaceOnUse" id="clipPath87">
<path d="M455 618 L468 618 L468 636 L455 636 L455 618 Z"/>
</clipPath>
<clipPath clipPathUnits="userSpaceOnUse" id="clipPath88">
<path d="M623 147 L660 147 L660 160 L623 160 L623 147 Z"/>
</clipPath>
<clipPath clipPathUnits="userSpaceOnUse" id="clipPath89">
<path d="M700 108 L719 108 L719 123 L700 123 L700 108 Z"/>
</clipPath>
<clipPath clipPathUnits="userSpaceOnUse" id="clipPath90">
<path d="M620 741 L657 741 L657 754 L620 754 L620 741 Z"/>
</clipPath>
<clipPath clipPathUnits="userSpaceOnUse" id="clipPath91">
<path d="M701 751 L719 751 L719 764 L701 764 L701 751 Z"/>
</clipPath>
<clipPath clipPathUnits="userSpaceOnUse" id="clipPath92">
<path d="M521 489 L558 489 L558 502 L521 502 L521 489 Z"/>
</clipPath>
<clipPath clipPathUnits="userSpaceOnUse" id="clipPath93">
<path d="M507 532 L520 532 L520 550 L507 550 L507 532 Z"/>
</clipPath>
</defs>
<g font-size="11" fill="white" stroke-linejoin="round" stroke="white" stroke-width="0" stroke-miterlimit="0">
<polygon clip-path="url(#clipPath1)" points=" 360 170 420 170 420 199 560 199 560 270 360 270 360 170" stroke="none"/>
</g>
<g font-size="11" stroke-width="1.1" stroke-linecap="butt">
<line clip-path="url(#clipPath1)" fill="none" x1="360" x2="420" y1="170" y2="170"/>
<line clip-path="url(#clipPath1)" fill="none" x1="420" x2="420" y1="170" y2="199"/>
<line clip-path="url(#clipPath1)" fill="none" x1="420" x2="560" y1="199" y2="199"/>
<line clip-path="url(#clipPath1)" fill="none" x1="560" x2="560" y1="199" y2="270"/>
<line clip-path="url(#clipPath1)" fill="none" x1="560" x2="360" y1="270" y2="270"/>
<line clip-path="url(#clipPath1)" fill="none" x1="360" x2="360" y1="270" y2="170"/>
<text x="394" font-size="9" y="180" clip-path="url(#clipPath2)" font-family="'Helvetica'" stroke="none" font-weight="bold" xml:space="preserve">(PSSM_Semantics::Semantics)</text>
<text x="365" font-size="9" y="192" clip-path="url(#clipPath3)" font-family="'Helvetica'" stroke="none" font-weight="bold" xml:space="preserve">Values</text>
<line clip-path="url(#clipPath4)" fill="none" x1="360" x2="560" y1="199" y2="199"/>
<polygon fill="silver" clip-path="url(#clipPath5)" points=" 717 171 777 171 777 200 917 200 917 271 717 271 717 171" stroke="none"/>
<line clip-path="url(#clipPath5)" fill="none" x1="717" x2="777" y1="171" y2="171"/>
<line clip-path="url(#clipPath5)" fill="none" x1="777" x2="777" y1="171" y2="200"/>
<line clip-path="url(#clipPath5)" fill="none" x1="777" x2="917" y1="200" y2="200"/>
<line clip-path="url(#clipPath5)" fill="none" x1="917" x2="917" y1="200" y2="271"/>
<line clip-path="url(#clipPath5)" fill="none" x1="917" x2="717" y1="271" y2="271"/>
<line clip-path="url(#clipPath5)" fill="none" x1="717" x2="717" y1="271" y2="171"/>
<text x="751" font-size="9" y="181" clip-path="url(#clipPath6)" font-family="'Helvetica'" stroke="none" font-weight="bold" xml:space="preserve">(PSCS_Semantics::Semantics)</text>
<text x="722" font-size="9" y="193" clip-path="url(#clipPath7)" font-family="'Helvetica'" stroke="none" font-weight="bold" xml:space="preserve">Values</text>
<line clip-path="url(#clipPath8)" fill="none" x1="717" x2="917" y1="200" y2="200"/>
<polygon fill="white" clip-path="url(#clipPath9)" points=" 10 171 70 171 70 200 210 200 210 271 10 271 10 171" stroke="none"/>
<line clip-path="url(#clipPath9)" fill="none" x1="10" x2="70" y1="171" y2="171"/>
<line clip-path="url(#clipPath9)" fill="none" x1="70" x2="70" y1="171" y2="200"/>
<line clip-path="url(#clipPath9)" fill="none" x1="70" x2="210" y1="200" y2="200"/>
<line clip-path="url(#clipPath9)" fill="none" x1="210" x2="210" y1="200" y2="271"/>
<line clip-path="url(#clipPath9)" fill="none" x1="210" x2="10" y1="271" y2="271"/>
<line clip-path="url(#clipPath9)" fill="none" x1="10" x2="10" y1="271" y2="171"/>
<text x="60" font-size="9" y="181" clip-path="url(#clipPath10)" font-family="'Helvetica'" stroke="none" font-weight="bold" xml:space="preserve">(PSSM_Syntax::Syntax)</text>
<text x="15" font-size="9" y="193" clip-path="url(#clipPath11)" font-family="'Helvetica'" stroke="none" font-weight="bold" xml:space="preserve">Values</text>
<line clip-path="url(#clipPath12)" fill="none" x1="10" x2="210" y1="200" y2="200"/>
<polygon fill="white" clip-path="url(#clipPath13)" points=" 10 10 95 10 95 39 210 39 210 110 10 110 10 10" stroke="none"/>
<line clip-path="url(#clipPath13)" fill="none" x1="10" x2="95" y1="10" y2="10"/>
<line clip-path="url(#clipPath13)" fill="none" x1="95" x2="95" y1="10" y2="39"/>
<line clip-path="url(#clipPath13)" fill="none" x1="95" x2="210" y1="39" y2="39"/>
<line clip-path="url(#clipPath13)" fill="none" x1="210" x2="210" y1="39" y2="110"/>
<line clip-path="url(#clipPath13)" fill="none" x1="210" x2="10" y1="110" y2="110"/>
<line clip-path="url(#clipPath13)" fill="none" x1="10" x2="10" y1="110" y2="10"/>
<text x="60" font-size="9" y="20" clip-path="url(#clipPath14)" font-family="'Helvetica'" stroke="none" font-weight="bold" xml:space="preserve">(PSSM_Syntax::Syntax)</text>
<text x="15" font-size="9" y="32" clip-path="url(#clipPath15)" font-family="'Helvetica'" stroke="none" font-weight="bold" xml:space="preserve">CommonBehavior</text>
<line clip-path="url(#clipPath16)" fill="none" x1="10" x2="210" y1="39" y2="39"/>
<polygon fill="white" clip-path="url(#clipPath17)" points=" 360 519 445 519 445 548 560 548 560 619 360 619 360 519" stroke="none"/>
<line clip-path="url(#clipPath17)" fill="none" x1="360" x2="445" y1="519" y2="519"/>
<line clip-path="url(#clipPath17)" fill="none" x1="445" x2="445" y1="519" y2="548"/>
<line clip-path="url(#clipPath17)" fill="none" x1="445" x2="560" y1="548" y2="548"/>
<line clip-path="url(#clipPath17)" fill="none" x1="560" x2="560" y1="548" y2="619"/>
<line clip-path="url(#clipPath17)" fill="none" x1="560" x2="360" y1="619" y2="619"/>
<line clip-path="url(#clipPath17)" fill="none" x1="360" x2="360" y1="619" y2="519"/>
<text x="394" font-size="9" y="529" clip-path="url(#clipPath18)" font-family="'Helvetica'" stroke="none" font-weight="bold" xml:space="preserve">(PSSM_Semantics::Semantics)</text>
<text x="365" font-size="9" y="541" clip-path="url(#clipPath19)" font-family="'Helvetica'" stroke="none" font-weight="bold" xml:space="preserve">CommonBehavior</text>
<line clip-path="url(#clipPath20)" fill="none" x1="360" x2="560" y1="548" y2="548"/>
<polygon fill="white" clip-path="url(#clipPath21)" points=" 360 343 461 343 461 372 560 372 560 443 360 443 360 343" stroke="none"/>
<line clip-path="url(#clipPath21)" fill="none" x1="360" x2="461" y1="343" y2="343"/>
<line clip-path="url(#clipPath21)" fill="none" x1="461" x2="461" y1="343" y2="372"/>
<line clip-path="url(#clipPath21)" fill="none" x1="461" x2="560" y1="372" y2="372"/>
<line clip-path="url(#clipPath21)" fill="none" x1="560" x2="560" y1="372" y2="443"/>
<line clip-path="url(#clipPath21)" fill="none" x1="560" x2="360" y1="443" y2="443"/>
<line clip-path="url(#clipPath21)" fill="none" x1="360" x2="360" y1="443" y2="343"/>
<text x="394" font-size="9" y="353" clip-path="url(#clipPath22)" font-family="'Helvetica'" stroke="none" font-weight="bold" xml:space="preserve">(PSSM_Semantics::Semantics)</text>
<text x="365" font-size="9" y="365" clip-path="url(#clipPath23)" font-family="'Helvetica'" stroke="none" font-weight="bold" xml:space="preserve">StructuredClassifiers</text>
<line clip-path="url(#clipPath24)" fill="none" x1="360" x2="560" y1="372" y2="372"/>
<polygon fill="silver" clip-path="url(#clipPath25)" points=" 717 343 818 343 818 372 917 372 917 443 717 443 717 343" stroke="none"/>
<line clip-path="url(#clipPath25)" fill="none" x1="717" x2="818" y1="343" y2="343"/>
<line clip-path="url(#clipPath25)" fill="none" x1="818" x2="818" y1="343" y2="372"/>
<line clip-path="url(#clipPath25)" fill="none" x1="818" x2="917" y1="372" y2="372"/>
<line clip-path="url(#clipPath25)" fill="none" x1="917" x2="917" y1="372" y2="443"/>
<line clip-path="url(#clipPath25)" fill="none" x1="917" x2="717" y1="443" y2="443"/>
<line clip-path="url(#clipPath25)" fill="none" x1="717" x2="717" y1="443" y2="343"/>
<text x="751" font-size="9" y="353" clip-path="url(#clipPath26)" font-family="'Helvetica'" stroke="none" font-weight="bold" xml:space="preserve">(PSCS_Semantics::Semantics)</text>
<text x="722" font-size="9" y="365" clip-path="url(#clipPath27)" font-family="'Helvetica'" stroke="none" font-weight="bold" xml:space="preserve">StructuredClassifiers</text>
<line clip-path="url(#clipPath28)" fill="none" x1="717" x2="917" y1="372" y2="372"/>
<polygon fill="silver" clip-path="url(#clipPath29)" points=" 10 343 111 343 111 372 210 372 210 443 10 443 10 343" stroke="none"/>
<line clip-path="url(#clipPath29)" fill="none" x1="10" x2="111" y1="343" y2="343"/>
<line clip-path="url(#clipPath29)" fill="none" x1="111" x2="111" y1="343" y2="372"/>
<line clip-path="url(#clipPath29)" fill="none" x1="111" x2="210" y1="372" y2="372"/>
<line clip-path="url(#clipPath29)" fill="none" x1="210" x2="210" y1="372" y2="443"/>
<line clip-path="url(#clipPath29)" fill="none" x1="210" x2="10" y1="443" y2="443"/>
<line clip-path="url(#clipPath29)" fill="none" x1="10" x2="10" y1="443" y2="343"/>
<text x="62" font-size="9" y="353" clip-path="url(#clipPath30)" font-family="'Helvetica'" stroke="none" font-weight="bold" xml:space="preserve">(fUML_Syntax::Syntax)</text>
<text x="15" font-size="9" y="365" clip-path="url(#clipPath31)" font-family="'Helvetica'" stroke="none" font-weight="bold" xml:space="preserve">StructuredClassifiers</text>
<line clip-path="url(#clipPath32)" fill="none" x1="10" x2="210" y1="372" y2="372"/>
<polygon fill="white" clip-path="url(#clipPath33)" points=" 360 695 432 695 432 724 560 724 560 795 360 795 360 695" stroke="none"/>
<line clip-path="url(#clipPath33)" fill="none" x1="360" x2="432" y1="695" y2="695"/>
<line clip-path="url(#clipPath33)" fill="none" x1="432" x2="432" y1="695" y2="724"/>
<line clip-path="url(#clipPath33)" fill="none" x1="432" x2="560" y1="724" y2="724"/>
<line clip-path="url(#clipPath33)" fill="none" x1="560" x2="560" y1="724" y2="795"/>
<line clip-path="url(#clipPath33)" fill="none" x1="560" x2="360" y1="795" y2="795"/>
<line clip-path="url(#clipPath33)" fill="none" x1="360" x2="360" y1="795" y2="695"/>
<text x="394" font-size="9" y="705" clip-path="url(#clipPath34)" font-family="'Helvetica'" stroke="none" font-weight="bold" xml:space="preserve">(PSSM_Semantics::Semantics)</text>
<text x="365" font-size="9" y="717" clip-path="url(#clipPath35)" font-family="'Helvetica'" stroke="none" font-weight="bold" xml:space="preserve">StateMachines</text>
<line clip-path="url(#clipPath36)" fill="none" x1="360" x2="560" y1="724" y2="724"/>
<polygon fill="white" clip-path="url(#clipPath37)" points=" 10 518 97 518 97 547 210 547 210 618 10 618 10 518" stroke="none"/>
<line clip-path="url(#clipPath37)" fill="none" x1="10" x2="97" y1="518" y2="518"/>
<line clip-path="url(#clipPath37)" fill="none" x1="97" x2="97" y1="518" y2="547"/>
<line clip-path="url(#clipPath37)" fill="none" x1="97" x2="210" y1="547" y2="547"/>
<line clip-path="url(#clipPath37)" fill="none" x1="210" x2="210" y1="547" y2="618"/>
<line clip-path="url(#clipPath37)" fill="none" x1="210" x2="10" y1="618" y2="618"/>
<line clip-path="url(#clipPath37)" fill="none" x1="10" x2="10" y1="618" y2="518"/>
<text x="60" font-size="9" y="528" clip-path="url(#clipPath38)" font-family="'Helvetica'" stroke="none" font-weight="bold" xml:space="preserve">(PSSM_Syntax::Syntax)</text>
<text x="15" font-size="9" y="540" clip-path="url(#clipPath39)" font-family="'Helvetica'" stroke="none" font-weight="bold" xml:space="preserve">CommonStructure</text>
<line clip-path="url(#clipPath40)" fill="none" x1="10" x2="210" y1="547" y2="547"/>
<polygon fill="white" clip-path="url(#clipPath41)" points=" 10 695 82 695 82 724 210 724 210 795 10 795 10 695" stroke="none"/>
<line clip-path="url(#clipPath41)" fill="none" x1="10" x2="82" y1="695" y2="695"/>
<line clip-path="url(#clipPath41)" fill="none" x1="82" x2="82" y1="695" y2="724"/>
<line clip-path="url(#clipPath41)" fill="none" x1="82" x2="210" y1="724" y2="724"/>
<line clip-path="url(#clipPath41)" fill="none" x1="210" x2="210" y1="724" y2="795"/>
<line clip-path="url(#clipPath41)" fill="none" x1="210" x2="10" y1="795" y2="795"/>
<line clip-path="url(#clipPath41)" fill="none" x1="10" x2="10" y1="795" y2="695"/>
<text x="60" font-size="9" y="705" clip-path="url(#clipPath42)" font-family="'Helvetica'" stroke="none" font-weight="bold" xml:space="preserve">(PSSM_Syntax::Syntax)</text>
<text x="15" font-size="9" y="717" clip-path="url(#clipPath43)" font-family="'Helvetica'" stroke="none" font-weight="bold" xml:space="preserve">StateMachines</text>
<line clip-path="url(#clipPath44)" fill="none" x1="10" x2="210" y1="724" y2="724"/>
<polygon fill="white" clip-path="url(#clipPath45)" points=" 360 870 420 870 420 899 560 899 560 970 360 970 360 870" stroke="none"/>
<line clip-path="url(#clipPath45)" fill="none" x1="360" x2="420" y1="870" y2="870"/>
<line clip-path="url(#clipPath45)" fill="none" x1="420" x2="420" y1="870" y2="899"/>
<line clip-path="url(#clipPath45)" fill="none" x1="420" x2="560" y1="899" y2="899"/>
<line clip-path="url(#clipPath45)" fill="none" x1="560" x2="560" y1="899" y2="970"/>
<line clip-path="url(#clipPath45)" fill="none" x1="560" x2="360" y1="970" y2="970"/>
<line clip-path="url(#clipPath45)" fill="none" x1="360" x2="360" y1="970" y2="870"/>
<text x="394" font-size="9" y="880" clip-path="url(#clipPath46)" font-family="'Helvetica'" stroke="none" font-weight="bold" xml:space="preserve">(PSSM_Semantics::Semantics)</text>
<text x="365" font-size="9" y="892" clip-path="url(#clipPath47)" font-family="'Helvetica'" stroke="none" font-weight="bold" xml:space="preserve">Loci</text>
<line clip-path="url(#clipPath48)" fill="none" x1="360" x2="560" y1="899" y2="899"/>
<polygon fill="silver" clip-path="url(#clipPath49)" points=" 717 870 777 870 777 899 917 899 917 970 717 970 717 870" stroke="none"/>
<line clip-path="url(#clipPath49)" fill="none" x1="717" x2="777" y1="870" y2="870"/>
<line clip-path="url(#clipPath49)" fill="none" x1="777" x2="777" y1="870" y2="899"/>
<line clip-path="url(#clipPath49)" fill="none" x1="777" x2="917" y1="899" y2="899"/>
<line clip-path="url(#clipPath49)" fill="none" x1="917" x2="917" y1="899" y2="970"/>
<line clip-path="url(#clipPath49)" fill="none" x1="917" x2="717" y1="970" y2="970"/>
<line clip-path="url(#clipPath49)" fill="none" x1="717" x2="717" y1="970" y2="870"/>
<text x="751" font-size="9" y="880" clip-path="url(#clipPath50)" font-family="'Helvetica'" stroke="none" font-weight="bold" xml:space="preserve">(PSCS_Semantics::Semantics)</text>
<text x="722" font-size="9" y="892" clip-path="url(#clipPath51)" font-family="'Helvetica'" stroke="none" font-weight="bold" xml:space="preserve">Loci</text>
<line clip-path="url(#clipPath52)" fill="none" x1="717" x2="917" y1="899" y2="899"/>
<polygon fill="silver" clip-path="url(#clipPath53)" points=" 717 11 802 11 802 40 917 40 917 111 717 111 717 11" stroke="none"/>
<line clip-path="url(#clipPath53)" fill="none" x1="717" x2="802" y1="11" y2="11"/>
<line clip-path="url(#clipPath53)" fill="none" x1="802" x2="802" y1="11" y2="40"/>
<line clip-path="url(#clipPath53)" fill="none" x1="802" x2="917" y1="40" y2="40"/>
<line clip-path="url(#clipPath53)" fill="none" x1="917" x2="917" y1="40" y2="111"/>
<line clip-path="url(#clipPath53)" fill="none" x1="917" x2="717" y1="111" y2="111"/>
<line clip-path="url(#clipPath53)" fill="none" x1="717" x2="717" y1="111" y2="11"/>
<text x="753" font-size="9" y="21" clip-path="url(#clipPath54)" font-family="'Helvetica'" stroke="none" font-weight="bold" xml:space="preserve">(fUML_Semantics::Semantics)</text>
<text x="722" font-size="9" y="33" clip-path="url(#clipPath55)" font-family="'Helvetica'" stroke="none" font-weight="bold" xml:space="preserve">CommonBehavior</text>
<line clip-path="url(#clipPath56)" fill="none" x1="717" x2="917" y1="40" y2="40"/>
<polygon fill="silver" clip-path="url(#clipPath57)" points=" 717 695 777 695 777 724 917 724 917 795 717 795 717 695" stroke="none"/>
<line clip-path="url(#clipPath57)" fill="none" x1="717" x2="777" y1="695" y2="695"/>
<line clip-path="url(#clipPath57)" fill="none" x1="777" x2="777" y1="695" y2="724"/>
<line clip-path="url(#clipPath57)" fill="none" x1="777" x2="917" y1="724" y2="724"/>
<line clip-path="url(#clipPath57)" fill="none" x1="917" x2="917" y1="724" y2="795"/>
<line clip-path="url(#clipPath57)" fill="none" x1="917" x2="717" y1="795" y2="795"/>
<line clip-path="url(#clipPath57)" fill="none" x1="717" x2="717" y1="795" y2="695"/>
<text x="753" font-size="9" y="705" clip-path="url(#clipPath58)" font-family="'Helvetica'" stroke="none" font-weight="bold" xml:space="preserve">(fUML_Semantics::Semantics)</text>
<text x="722" font-size="9" y="717" clip-path="url(#clipPath59)" font-family="'Helvetica'" stroke="none" font-weight="bold" xml:space="preserve">Loci</text>
<line clip-path="url(#clipPath60)" fill="none" x1="717" x2="917" y1="724" y2="724"/>
</g>
<g stroke-linecap="butt" font-size="9" text-rendering="optimizeLegibility" font-family="'Helvetica'" stroke-dasharray="5,5,5,5,5,5,5,5,5,5" stroke-width="1.1">
<line clip-path="url(#clipPath61)" fill="none" x1="560" x2="717" y1="234" y2="234"/>
<text xml:space="preserve" x="623" y="224" clip-path="url(#clipPath62)" stroke="none">«import»</text>
<line clip-path="url(#clipPath63)" fill="none" x1="702" x2="717" y1="239" y2="234" stroke-dasharray="none"/>
<line clip-path="url(#clipPath63)" fill="none" x1="717" x2="702" y1="234" y2="229" stroke-dasharray="none"/>
<line clip-path="url(#clipPath61)" fill="none" x1="360" x2="210" y1="232" y2="232"/>
<text xml:space="preserve" x="267" y="224" clip-path="url(#clipPath64)" stroke="none">«import»</text>
<line clip-path="url(#clipPath65)" fill="none" x1="225" x2="210" y1="227" y2="232" stroke-dasharray="none"/>
<line clip-path="url(#clipPath65)" fill="none" x1="210" x2="225" y1="232" y2="237" stroke-dasharray="none"/>
<line clip-path="url(#clipPath61)" fill="none" x1="360" x2="210" y1="200" y2="107"/>
<text xml:space="preserve" x="271" y="158" clip-path="url(#clipPath66)" stroke="none">«import»</text>
<line clip-path="url(#clipPath67)" fill="none" x1="225" x2="210" y1="111" y2="107" stroke-dasharray="none"/>
<line clip-path="url(#clipPath67)" fill="none" x1="210" x2="220" y1="107" y2="119" stroke-dasharray="none"/>
<line clip-path="url(#clipPath61)" fill="none" x1="560" x2="717" y1="270" y2="371"/>
<text xml:space="preserve" x="622" y="311" clip-path="url(#clipPath68)" stroke="none">«import»</text>
<line clip-path="url(#clipPath69)" fill="none" x1="702" x2="717" y1="367" y2="371" stroke-dasharray="none"/>
<line clip-path="url(#clipPath69)" fill="none" x1="717" x2="707" y1="371" y2="359" stroke-dasharray="none"/>
<line clip-path="url(#clipPath61)" fill="none" x1="360" x2="210" y1="401" y2="401"/>
<text xml:space="preserve" x="268" y="394" clip-path="url(#clipPath70)" stroke="none">«import»</text>
<line clip-path="url(#clipPath71)" fill="none" x1="225" x2="210" y1="396" y2="401" stroke-dasharray="none"/>
<line clip-path="url(#clipPath71)" fill="none" x1="210" x2="225" y1="401" y2="406" stroke-dasharray="none"/>
<line clip-path="url(#clipPath61)" fill="none" x1="360" x2="210" y1="728" y2="616"/>
<text xml:space="preserve" x="270" y="675" clip-path="url(#clipPath72)" stroke="none">«import»</text>
<line clip-path="url(#clipPath73)" fill="none" x1="225" x2="210" y1="621" y2="616" stroke-dasharray="none"/>
<line clip-path="url(#clipPath73)" fill="none" x1="210" x2="219" y1="616" y2="629" stroke-dasharray="none"/>
<line clip-path="url(#clipPath61)" fill="none" x1="360" x2="210" y1="756" y2="756"/>
<text xml:space="preserve" x="268" y="750" clip-path="url(#clipPath74)" stroke="none">«import»</text>
<line clip-path="url(#clipPath75)" fill="none" x1="225" x2="210" y1="751" y2="756" stroke-dasharray="none"/>
<line clip-path="url(#clipPath75)" fill="none" x1="210" x2="225" y1="756" y2="761" stroke-dasharray="none"/>
<line clip-path="url(#clipPath61)" fill="none" x1="462" x2="462" y1="548" y2="443"/>
<text xml:space="preserve" x="420" y="497" clip-path="url(#clipPath76)" stroke="none">«import»</text>
<line clip-path="url(#clipPath77)" fill="none" x1="467" x2="462" y1="458" y2="443" stroke-dasharray="none"/>
<line clip-path="url(#clipPath77)" fill="none" x1="462" x2="457" y1="443" y2="458" stroke-dasharray="none"/>
<line clip-path="url(#clipPath61)" fill="none" x1="460" x2="460" y1="343" y2="270"/>
<text xml:space="preserve" x="418" y="308" clip-path="url(#clipPath78)" stroke="none">«import»</text>
<line clip-path="url(#clipPath79)" fill="none" x1="465" x2="460" y1="285" y2="270" stroke-dasharray="none"/>
<line clip-path="url(#clipPath79)" fill="none" x1="460" x2="455" y1="270" y2="285" stroke-dasharray="none"/>
<line clip-path="url(#clipPath61)" fill="none" x1="460" x2="460" y1="899" y2="795"/>
<text xml:space="preserve" x="417" y="849" clip-path="url(#clipPath80)" stroke="none">«import»</text>
<line clip-path="url(#clipPath81)" fill="none" x1="465" x2="460" y1="810" y2="795" stroke-dasharray="none"/>
<line clip-path="url(#clipPath81)" fill="none" x1="460" x2="455" y1="795" y2="810" stroke-dasharray="none"/>
<line clip-path="url(#clipPath61)" fill="none" x1="514" x2="514" y1="619" y2="724"/>
<text xml:space="preserve" x="521" y="674" clip-path="url(#clipPath82)" stroke="none">«import»</text>
<line clip-path="url(#clipPath83)" fill="none" x1="509" x2="514" y1="709" y2="724" stroke-dasharray="none"/>
<line clip-path="url(#clipPath83)" fill="none" x1="514" x2="519" y1="724" y2="709" stroke-dasharray="none"/>
<line clip-path="url(#clipPath61)" fill="none" x1="560" x2="717" y1="934" y2="934"/>
<text xml:space="preserve" x="622" y="927" clip-path="url(#clipPath84)" stroke="none">«import»</text>
<line clip-path="url(#clipPath85)" fill="none" x1="702" x2="717" y1="939" y2="934" stroke-dasharray="none"/>
<line clip-path="url(#clipPath85)" fill="none" x1="717" x2="702" y1="934" y2="929" stroke-dasharray="none"/>
<line clip-path="url(#clipPath61)" fill="none" x1="461" x2="461" y1="724" y2="619"/>
<text xml:space="preserve" x="419" y="672" clip-path="url(#clipPath86)" stroke="none">«import»</text>
<line clip-path="url(#clipPath87)" fill="none" x1="466" x2="461" y1="634" y2="619" stroke-dasharray="none"/>
<line clip-path="url(#clipPath87)" fill="none" x1="461" x2="456" y1="619" y2="634" stroke-dasharray="none"/>
<line clip-path="url(#clipPath61)" fill="none" x1="560" x2="717" y1="199" y2="109"/>
<text xml:space="preserve" x="624" y="155" clip-path="url(#clipPath88)" stroke="none">«import»</text>
<line clip-path="url(#clipPath89)" fill="none" x1="706" x2="717" y1="121" y2="109" stroke-dasharray="none"/>
<line clip-path="url(#clipPath89)" fill="none" x1="717" x2="701" y1="109" y2="112" stroke-dasharray="none"/>
<line clip-path="url(#clipPath61)" fill="none" x1="560" x2="717" y1="757" y2="757"/>
<text xml:space="preserve" x="621" y="749" clip-path="url(#clipPath90)" stroke="none">«import»</text>
<line clip-path="url(#clipPath91)" fill="none" x1="702" x2="717" y1="762" y2="757" stroke-dasharray="none"/>
<line clip-path="url(#clipPath91)" fill="none" x1="717" x2="702" y1="757" y2="752" stroke-dasharray="none"/>
<line clip-path="url(#clipPath61)" fill="none" x1="513" x2="513" y1="443" y2="548"/>
<text xml:space="preserve" x="522" y="497" clip-path="url(#clipPath92)" stroke="none">«import»</text>
<line clip-path="url(#clipPath93)" fill="none" x1="508" x2="513" y1="533" y2="548" stroke-dasharray="none"/>
<line clip-path="url(#clipPath93)" fill="none" x1="513" x2="518" y1="548" y2="533" stroke-dasharray="none"/>
</g>
</g>
</svg>
