<?xml version="1.0" encoding="UTF-8"?><svg xmlns="http://www.w3.org/2000/svg" xmlns:xlink="http://www.w3.org/1999/xlink" stroke-dasharray="none" shape-rendering="auto" font-family="'Dialog'" width="927" text-rendering="auto" fill-opacity="1" contentScriptType="text/ecmascript" color-interpolation="auto" color-rendering="auto" preserveAspectRatio="xMidYMid meet" font-size="12" viewBox="0 0 927 980" fill="black" stroke="black" image-rendering="auto" stroke-miterlimit="10" zoomAndPan="magnify" version="1.0" stroke-linecap="square" stroke-linejoin="miter" contentStyleType="text/css" font-style="normal" height="980" stroke-width="1" stroke-dashoffset="0" font-weight="normal" stroke-opacity="1">
<!--Generated by the Batik Graphics2D SVG Generator-->
<defs id="genericDefs"/>
<g>
<defs id="defs1">
<clipPath clipPathUnits="userSpaceOnUse" id="clipPath1">
<path d="M358 167 L562 167 L562 271 L358 271 L358 167 Z"/>
</clipPath>
<clipPath clipPathUnits="userSpaceOnUse" id="clipPath2">
<path d="M359 171 L561 171 L561 186 L359 186 L359 171 Z"/>
</clipPath>
<clipPath clipPathUnits="userSpaceOnUse" id="clipPath3">
<path d="M364 185 L393 185 L393 200 L364 200 L364 185 Z"/>
</clipPath>
<clipPath clipPathUnits="userSpaceOnUse" id="clipPath4">
<path d="M359 201 L561 201 L561 270 L359 270 L359 201 Z"/>
</clipPath>
<clipPath clipPathUnits="userSpaceOnUse" id="clipPath5">
<path d="M715 169 L919 169 L919 273 L715 273 L715 169 Z"/>
</clipPath>
<clipPath clipPathUnits="userSpaceOnUse" id="clipPath6">
<path d="M716 173 L918 173 L918 188 L716 188 L716 173 Z"/>
</clipPath>
<clipPath clipPathUnits="userSpaceOnUse" id="clipPath7">
<path d="M721 187 L750 187 L750 202 L721 202 L721 187 Z"/>
</clipPath>
<clipPath clipPathUnits="userSpaceOnUse" id="clipPath8">
<path d="M716 203 L918 203 L918 272 L716 272 L716 203 Z"/>
</clipPath>
<clipPath clipPathUnits="userSpaceOnUse" id="clipPath9">
<path d="M8 169 L212 169 L212 273 L8 273 L8 169 Z"/>
</clipPath>
<clipPath clipPathUnits="userSpaceOnUse" id="clipPath10">
<path d="M9 173 L211 173 L211 188 L9 188 L9 173 Z"/>
</clipPath>
<clipPath clipPathUnits="userSpaceOnUse" id="clipPath11">
<path d="M14 187 L43 187 L43 202 L14 202 L14 187 Z"/>
</clipPath>
<clipPath clipPathUnits="userSpaceOnUse" id="clipPath12">
<path d="M9 203 L211 203 L211 272 L9 272 L9 203 Z"/>
</clipPath>
<clipPath clipPathUnits="userSpaceOnUse" id="clipPath13">
<path d="M8 8 L212 8 L212 112 L8 112 L8 8 Z"/>
</clipPath>
<clipPath clipPathUnits="userSpaceOnUse" id="clipPath14">
<path d="M9 12 L211 12 L211 27 L9 27 L9 12 Z"/>
</clipPath>
<clipPath clipPathUnits="userSpaceOnUse" id="clipPath15">
<path d="M14 26 L89 26 L89 41 L14 41 L14 26 Z"/>
</clipPath>
<clipPath clipPathUnits="userSpaceOnUse" id="clipPath16">
<path d="M9 42 L211 42 L211 111 L9 111 L9 42 Z"/>
</clipPath>
<clipPath clipPathUnits="userSpaceOnUse" id="clipPath17">
<path d="M358 517 L562 517 L562 621 L358 621 L358 517 Z"/>
</clipPath>
<clipPath clipPathUnits="userSpaceOnUse" id="clipPath18">
<path d="M359 521 L561 521 L561 536 L359 536 L359 521 Z"/>
</clipPath>
<clipPath clipPathUnits="userSpaceOnUse" id="clipPath19">
<path d="M364 535 L439 535 L439 550 L364 550 L364 535 Z"/>
</clipPath>
<clipPath clipPathUnits="userSpaceOnUse" id="clipPath20">
<path d="M359 551 L561 551 L561 620 L359 620 L359 551 Z"/>
</clipPath>
<clipPath clipPathUnits="userSpaceOnUse" id="clipPath21">
<path d="M358 341 L562 341 L562 445 L358 445 L358 341 Z"/>
</clipPath>
<clipPath clipPathUnits="userSpaceOnUse" id="clipPath22">
<path d="M359 345 L561 345 L561 360 L359 360 L359 345 Z"/>
</clipPath>
<clipPath clipPathUnits="userSpaceOnUse" id="clipPath23">
<path d="M364 359 L450 359 L450 374 L364 374 L364 359 Z"/>
</clipPath>
<clipPath clipPathUnits="userSpaceOnUse" id="clipPath24">
<path d="M359 375 L561 375 L561 444 L359 444 L359 375 Z"/>
</clipPath>
<clipPath clipPathUnits="userSpaceOnUse" id="clipPath25">
<path d="M715 341 L919 341 L919 445 L715 445 L715 341 Z"/>
</clipPath>
<clipPath clipPathUnits="userSpaceOnUse" id="clipPath26">
<path d="M716 345 L918 345 L918 360 L716 360 L716 345 Z"/>
</clipPath>
<clipPath clipPathUnits="userSpaceOnUse" id="clipPath27">
<path d="M721 359 L807 359 L807 374 L721 374 L721 359 Z"/>
</clipPath>
<clipPath clipPathUnits="userSpaceOnUse" id="clipPath28">
<path d="M716 375 L918 375 L918 444 L716 444 L716 375 Z"/>
</clipPath>
<clipPath clipPathUnits="userSpaceOnUse" id="clipPath29">
<path d="M8 341 L212 341 L212 445 L8 445 L8 341 Z"/>
</clipPath>
<clipPath clipPathUnits="userSpaceOnUse" id="clipPath30">
<path d="M9 345 L211 345 L211 360 L9 360 L9 345 Z"/>
</clipPath>
<clipPath clipPathUnits="userSpaceOnUse" id="clipPath31">
<path d="M14 359 L100 359 L100 374 L14 374 L14 359 Z"/>
</clipPath>
<clipPath clipPathUnits="userSpaceOnUse" id="clipPath32">
<path d="M9 375 L211 375 L211 444 L9 444 L9 375 Z"/>
</clipPath>
<clipPath clipPathUnits="userSpaceOnUse" id="clipPath33">
<path d="M358 693 L562 693 L562 797 L358 797 L358 693 Z"/>
</clipPath>
<clipPath clipPathUnits="userSpaceOnUse" id="clipPath34">
<path d="M359 697 L561 697 L561 712 L359 712 L359 697 Z"/>
</clipPath>
<clipPath clipPathUnits="userSpaceOnUse" id="clipPath35">
<path d="M364 711 L426 711 L426 726 L364 726 L364 711 Z"/>
</clipPath>
<clipPath clipPathUnits="userSpaceOnUse" id="clipPath36">
<path d="M359 727 L561 727 L561 796 L359 796 L359 727 Z"/>
</clipPath>
<clipPath clipPathUnits="userSpaceOnUse" id="clipPath37">
<path d="M8 516 L212 516 L212 620 L8 620 L8 516 Z"/>
</clipPath>
<clipPath clipPathUnits="userSpaceOnUse" id="clipPath38">
<path d="M9 520 L211 520 L211 535 L9 535 L9 520 Z"/>
</clipPath>
<clipPath clipPathUnits="userSpaceOnUse" id="clipPath39">
<path d="M14 534 L90 534 L90 549 L14 549 L14 534 Z"/>
</clipPath>
<clipPath clipPathUnits="userSpaceOnUse" id="clipPath40">
<path d="M9 550 L211 550 L211 619 L9 619 L9 550 Z"/>
</clipPath>
<clipPath clipPathUnits="userSpaceOnUse" id="clipPath41">
<path d="M8 693 L212 693 L212 797 L8 797 L8 693 Z"/>
</clipPath>
<clipPath clipPathUnits="userSpaceOnUse" id="clipPath42">
<path d="M9 697 L211 697 L211 712 L9 712 L9 697 Z"/>
</clipPath>
<clipPath clipPathUnits="userSpaceOnUse" id="clipPath43">
<path d="M14 711 L76 711 L76 726 L14 726 L14 711 Z"/>
</clipPath>
<clipPath clipPathUnits="userSpaceOnUse" id="clipPath44">
<path d="M9 727 L211 727 L211 796 L9 796 L9 727 Z"/>
</clipPath>
<clipPath clipPathUnits="userSpaceOnUse" id="clipPath45">
<path d="M358 868 L562 868 L562 972 L358 972 L358 868 Z"/>
</clipPath>
<clipPath clipPathUnits="userSpaceOnUse" id="clipPath46">
<path d="M359 872 L561 872 L561 887 L359 887 L359 872 Z"/>
</clipPath>
<clipPath clipPathUnits="userSpaceOnUse" id="clipPath47">
<path d="M364 886 L381 886 L381 901 L364 901 L364 886 Z"/>
</clipPath>
<clipPath clipPathUnits="userSpaceOnUse" id="clipPath48">
<path d="M359 902 L561 902 L561 971 L359 971 L359 902 Z"/>
</clipPath>
<clipPath clipPathUnits="userSpaceOnUse" id="clipPath49">
<path d="M715 868 L919 868 L919 972 L715 972 L715 868 Z"/>
</clipPath>
<clipPath clipPathUnits="userSpaceOnUse" id="clipPath50">
<path d="M716 872 L918 872 L918 887 L716 887 L716 872 Z"/>
</clipPath>
<clipPath clipPathUnits="userSpaceOnUse" id="clipPath51">
<path d="M721 886 L738 886 L738 901 L721 901 L721 886 Z"/>
</clipPath>
<clipPath clipPathUnits="userSpaceOnUse" id="clipPath52">
<path d="M716 902 L918 902 L918 971 L716 971 L716 902 Z"/>
</clipPath>
<clipPath clipPathUnits="userSpaceOnUse" id="clipPath53">
<path d="M715 9 L919 9 L919 113 L715 113 L715 9 Z"/>
</clipPath>
<clipPath clipPathUnits="userSpaceOnUse" id="clipPath54">
<path d="M716 13 L918 13 L918 28 L716 28 L716 13 Z"/>
</clipPath>
<clipPath clipPathUnits="userSpaceOnUse" id="clipPath55">
<path d="M721 27 L796 27 L796 42 L721 42 L721 27 Z"/>
</clipPath>
<clipPath clipPathUnits="userSpaceOnUse" id="clipPath56">
<path d="M716 43 L918 43 L918 112 L716 112 L716 43 Z"/>
</clipPath>
<clipPath clipPathUnits="userSpaceOnUse" id="clipPath57">
<path d="M715 693 L919 693 L919 797 L715 797 L715 693 Z"/>
</clipPath>
<clipPath clipPathUnits="userSpaceOnUse" id="clipPath58">
<path d="M716 697 L918 697 L918 712 L716 712 L716 697 Z"/>
</clipPath>
<clipPath clipPathUnits="userSpaceOnUse" id="clipPath59">
<path d="M721 711 L738 711 L738 726 L721 726 L721 711 Z"/>
</clipPath>
<clipPath clipPathUnits="userSpaceOnUse" id="clipPath60">
<path d="M716 727 L918 727 L918 796 L716 796 L716 727 Z"/>
</clipPath>
<clipPath clipPathUnits="userSpaceOnUse" id="clipPath61">
<path d="M-1 -1 L928 -1 L928 981 L-1 981 L-1 -1 Z"/>
</clipPath>
<clipPath clipPathUnits="userSpaceOnUse" id="clipPath62">
<path d="M621 215 L659 215 L659 230 L621 230 L621 215 Z"/>
</clipPath>
<clipPath clipPathUnits="userSpaceOnUse" id="clipPath63">
<path d="M701 228 L719 228 L719 241 L701 241 L701 228 Z"/>
</clipPath>
<clipPath clipPathUnits="userSpaceOnUse" id="clipPath64">
<path d="M265 215 L303 215 L303 230 L265 230 L265 215 Z"/>
</clipPath>
<clipPath clipPathUnits="userSpaceOnUse" id="clipPath65">
<path d="M209 226 L227 226 L227 239 L209 239 L209 226 Z"/>
</clipPath>
<clipPath clipPathUnits="userSpaceOnUse" id="clipPath66">
<path d="M269 148 L307 148 L307 163 L269 163 L269 148 Z"/>
</clipPath>
<clipPath clipPathUnits="userSpaceOnUse" id="clipPath67">
<path d="M209 106 L227 106 L227 121 L209 121 L209 106 Z"/>
</clipPath>
<clipPath clipPathUnits="userSpaceOnUse" id="clipPath68">
<path d="M620 301 L658 301 L658 316 L620 316 L620 301 Z"/>
</clipPath>
<clipPath clipPathUnits="userSpaceOnUse" id="clipPath69">
<path d="M701 358 L719 358 L719 373 L701 373 L701 358 Z"/>
</clipPath>
<clipPath clipPathUnits="userSpaceOnUse" id="clipPath70">
<path d="M266 385 L304 385 L304 400 L266 400 L266 385 Z"/>
</clipPath>
<clipPath clipPathUnits="userSpaceOnUse" id="clipPath71">
<path d="M209 395 L227 395 L227 408 L209 408 L209 395 Z"/>
</clipPath>
<clipPath clipPathUnits="userSpaceOnUse" id="clipPath72">
<path d="M268 666 L306 666 L306 681 L268 681 L268 666 Z"/>
</clipPath>
<clipPath clipPathUnits="userSpaceOnUse" id="clipPath73">
<path d="M209 615 L227 615 L227 631 L209 631 L209 615 Z"/>
</clipPath>
<clipPath clipPathUnits="userSpaceOnUse" id="clipPath74">
<path d="M266 741 L304 741 L304 756 L266 756 L266 741 Z"/>
</clipPath>
<clipPath clipPathUnits="userSpaceOnUse" id="clipPath75">
<path d="M209 750 L227 750 L227 763 L209 763 L209 750 Z"/>
</clipPath>
<clipPath clipPathUnits="userSpaceOnUse" id="clipPath76">
<path d="M418 490 L456 490 L456 505 L418 505 L418 490 Z"/>
</clipPath>
<clipPath clipPathUnits="userSpaceOnUse" id="clipPath77">
<path d="M456 442 L469 442 L469 460 L456 460 L456 442 Z"/>
</clipPath>
<clipPath clipPathUnits="userSpaceOnUse" id="clipPath78">
<path d="M416 316 L454 316 L454 331 L416 331 L416 316 Z"/>
</clipPath>
<clipPath clipPathUnits="userSpaceOnUse" id="clipPath79">
<path d="M454 268 L467 268 L467 286 L454 286 L454 268 Z"/>
</clipPath>
<clipPath clipPathUnits="userSpaceOnUse" id="clipPath80">
<path d="M415 842 L453 842 L453 857 L415 857 L415 842 Z"/>
</clipPath>
<clipPath clipPathUnits="userSpaceOnUse" id="clipPath81">
<path d="M454 794 L467 794 L467 812 L454 812 L454 794 Z"/>
</clipPath>
<clipPath clipPathUnits="userSpaceOnUse" id="clipPath82">
<path d="M519 667 L557 667 L557 682 L519 682 L519 667 Z"/>
</clipPath>
<clipPath clipPathUnits="userSpaceOnUse" id="clipPath83">
<path d="M508 712 L521 712 L521 730 L508 730 L508 712 Z"/>
</clipPath>
<clipPath clipPathUnits="userSpaceOnUse" id="clipPath84">
<path d="M620 918 L658 918 L658 933 L620 933 L620 918 Z"/>
</clipPath>
<clipPath clipPathUnits="userSpaceOnUse" id="clipPath85">
<path d="M701 928 L719 928 L719 941 L701 941 L701 928 Z"/>
</clipPath>
<clipPath clipPathUnits="userSpaceOnUse" id="clipPath86">
<path d="M417 665 L455 665 L455 680 L417 680 L417 665 Z"/>
</clipPath>
<clipPath clipPathUnits="userSpaceOnUse" id="clipPath87">
<path d="M455 618 L468 618 L468 636 L455 636 L455 618 Z"/>
</clipPath>
<clipPath clipPathUnits="userSpaceOnUse" id="clipPath88">
<path d="M621 148 L659 148 L659 163 L621 163 L621 148 Z"/>
</clipPath>
<clipPath clipPathUnits="userSpaceOnUse" id="clipPath89">
<path d="M701 108 L719 108 L719 123 L701 123 L701 108 Z"/>
</clipPath>
<clipPath clipPathUnits="userSpaceOnUse" id="clipPath90">
<path d="M619 740 L657 740 L657 755 L619 755 L619 740 Z"/>
</clipPath>
<clipPath clipPathUnits="userSpaceOnUse" id="clipPath91">
<path d="M701 751 L719 751 L719 764 L701 764 L701 751 Z"/>
</clipPath>
<clipPath clipPathUnits="userSpaceOnUse" id="clipPath92">
<path d="M520 490 L558 490 L558 505 L520 505 L520 490 Z"/>
</clipPath>
<clipPath clipPathUnits="userSpaceOnUse" id="clipPath93">
<path d="M507 536 L520 536 L520 554 L507 554 L507 536 Z"/>
</clipPath>
</defs>
<g font-size="11" fill="white" stroke-linejoin="round" stroke="white" stroke-width="0" stroke-miterlimit="0">
<polygon clip-path="url(#clipPath1)" points=" 360 169 420 169 420 202 560 202 560 269 360 269 360 169" stroke="none"/>
</g>
<g font-size="11" stroke-width="1.1" stroke-linecap="butt">
<line clip-path="url(#clipPath1)" fill="none" x1="360" x2="420" y1="169" y2="169"/>
<line clip-path="url(#clipPath1)" fill="none" x1="420" x2="420" y1="169" y2="202"/>
<line clip-path="url(#clipPath1)" fill="none" x1="420" x2="560" y1="202" y2="202"/>
<line clip-path="url(#clipPath1)" fill="none" x1="560" x2="560" y1="202" y2="269"/>
<line clip-path="url(#clipPath1)" fill="none" x1="560" x2="360" y1="269" y2="269"/>
<line clip-path="url(#clipPath1)" fill="none" x1="360" x2="360" y1="269" y2="169"/>
<text x="397" font-size="10" y="182" clip-path="url(#clipPath2)" font-family="'Calibri'" stroke="none" font-weight="bold" xml:space="preserve">(PSSM_Semantics::Semantics)</text>
<text x="365" font-size="10" y="196" clip-path="url(#clipPath3)" font-family="'Calibri'" stroke="none" font-weight="bold" xml:space="preserve">Values</text>
<line clip-path="url(#clipPath4)" fill="none" x1="360" x2="560" y1="202" y2="202"/>
<polygon fill="silver" clip-path="url(#clipPath5)" points=" 717 171 777 171 777 204 917 204 917 271 717 271 717 171" stroke="none"/>
<line clip-path="url(#clipPath5)" fill="none" x1="717" x2="777" y1="171" y2="171"/>
<line clip-path="url(#clipPath5)" fill="none" x1="777" x2="777" y1="171" y2="204"/>
<line clip-path="url(#clipPath5)" fill="none" x1="777" x2="917" y1="204" y2="204"/>
<line clip-path="url(#clipPath5)" fill="none" x1="917" x2="917" y1="204" y2="271"/>
<line clip-path="url(#clipPath5)" fill="none" x1="917" x2="717" y1="271" y2="271"/>
<line clip-path="url(#clipPath5)" fill="none" x1="717" x2="717" y1="271" y2="171"/>
<text x="756" font-size="10" y="184" clip-path="url(#clipPath6)" font-family="'Calibri'" stroke="none" font-weight="bold" xml:space="preserve">(PSCS_Semantics::Semantics)</text>
<text x="722" font-size="10" y="198" clip-path="url(#clipPath7)" font-family="'Calibri'" stroke="none" font-weight="bold" xml:space="preserve">Values</text>
<line clip-path="url(#clipPath8)" fill="none" x1="717" x2="917" y1="204" y2="204"/>
<polygon fill="white" clip-path="url(#clipPath9)" points=" 10 171 70 171 70 204 210 204 210 271 10 271 10 171" stroke="none"/>
<line clip-path="url(#clipPath9)" fill="none" x1="10" x2="70" y1="171" y2="171"/>
<line clip-path="url(#clipPath9)" fill="none" x1="70" x2="70" y1="171" y2="204"/>
<line clip-path="url(#clipPath9)" fill="none" x1="70" x2="210" y1="204" y2="204"/>
<line clip-path="url(#clipPath9)" fill="none" x1="210" x2="210" y1="204" y2="271"/>
<line clip-path="url(#clipPath9)" fill="none" x1="210" x2="10" y1="271" y2="271"/>
<line clip-path="url(#clipPath9)" fill="none" x1="10" x2="10" y1="271" y2="171"/>
<text x="61" font-size="10" y="184" clip-path="url(#clipPath10)" font-family="'Calibri'" stroke="none" font-weight="bold" xml:space="preserve">(PSSM_Syntax::Syntax)</text>
<text x="15" font-size="10" y="198" clip-path="url(#clipPath11)" font-family="'Calibri'" stroke="none" font-weight="bold" xml:space="preserve">Values</text>
<line clip-path="url(#clipPath12)" fill="none" x1="10" x2="210" y1="204" y2="204"/>
<polygon fill="white" clip-path="url(#clipPath13)" points=" 10 10 93 10 93 43 210 43 210 110 10 110 10 10" stroke="none"/>
<line clip-path="url(#clipPath13)" fill="none" x1="10" x2="93" y1="10" y2="10"/>
<line clip-path="url(#clipPath13)" fill="none" x1="93" x2="93" y1="10" y2="43"/>
<line clip-path="url(#clipPath13)" fill="none" x1="93" x2="210" y1="43" y2="43"/>
<line clip-path="url(#clipPath13)" fill="none" x1="210" x2="210" y1="43" y2="110"/>
<line clip-path="url(#clipPath13)" fill="none" x1="210" x2="10" y1="110" y2="110"/>
<line clip-path="url(#clipPath13)" fill="none" x1="10" x2="10" y1="110" y2="10"/>
<text x="61" font-size="10" y="23" clip-path="url(#clipPath14)" font-family="'Calibri'" stroke="none" font-weight="bold" xml:space="preserve">(PSSM_Syntax::Syntax)</text>
<text x="15" font-size="10" y="37" clip-path="url(#clipPath15)" font-family="'Calibri'" stroke="none" font-weight="bold" xml:space="preserve">CommonBehavior</text>
<line clip-path="url(#clipPath16)" fill="none" x1="10" x2="210" y1="43" y2="43"/>
<polygon fill="white" clip-path="url(#clipPath17)" points=" 360 519 443 519 443 552 560 552 560 619 360 619 360 519" stroke="none"/>
<line clip-path="url(#clipPath17)" fill="none" x1="360" x2="443" y1="519" y2="519"/>
<line clip-path="url(#clipPath17)" fill="none" x1="443" x2="443" y1="519" y2="552"/>
<line clip-path="url(#clipPath17)" fill="none" x1="443" x2="560" y1="552" y2="552"/>
<line clip-path="url(#clipPath17)" fill="none" x1="560" x2="560" y1="552" y2="619"/>
<line clip-path="url(#clipPath17)" fill="none" x1="560" x2="360" y1="619" y2="619"/>
<line clip-path="url(#clipPath17)" fill="none" x1="360" x2="360" y1="619" y2="519"/>
<text x="397" font-size="10" y="532" clip-path="url(#clipPath18)" font-family="'Calibri'" stroke="none" font-weight="bold" xml:space="preserve">(PSSM_Semantics::Semantics)</text>
<text x="365" font-size="10" y="546" clip-path="url(#clipPath19)" font-family="'Calibri'" stroke="none" font-weight="bold" xml:space="preserve">CommonBehavior</text>
<line clip-path="url(#clipPath20)" fill="none" x1="360" x2="560" y1="552" y2="552"/>
<polygon fill="white" clip-path="url(#clipPath21)" points=" 360 343 454 343 454 376 560 376 560 443 360 443 360 343" stroke="none"/>
<line clip-path="url(#clipPath21)" fill="none" x1="360" x2="454" y1="343" y2="343"/>
<line clip-path="url(#clipPath21)" fill="none" x1="454" x2="454" y1="343" y2="376"/>
<line clip-path="url(#clipPath21)" fill="none" x1="454" x2="560" y1="376" y2="376"/>
<line clip-path="url(#clipPath21)" fill="none" x1="560" x2="560" y1="376" y2="443"/>
<line clip-path="url(#clipPath21)" fill="none" x1="560" x2="360" y1="443" y2="443"/>
<line clip-path="url(#clipPath21)" fill="none" x1="360" x2="360" y1="443" y2="343"/>
<text x="397" font-size="10" y="356" clip-path="url(#clipPath22)" font-family="'Calibri'" stroke="none" font-weight="bold" xml:space="preserve">(PSSM_Semantics::Semantics)</text>
<text x="365" font-size="10" y="370" clip-path="url(#clipPath23)" font-family="'Calibri'" stroke="none" font-weight="bold" xml:space="preserve">StructuredClassifiers</text>
<line clip-path="url(#clipPath24)" fill="none" x1="360" x2="560" y1="376" y2="376"/>
<polygon fill="silver" clip-path="url(#clipPath25)" points=" 717 343 811 343 811 376 917 376 917 443 717 443 717 343" stroke="none"/>
<line clip-path="url(#clipPath25)" fill="none" x1="717" x2="811" y1="343" y2="343"/>
<line clip-path="url(#clipPath25)" fill="none" x1="811" x2="811" y1="343" y2="376"/>
<line clip-path="url(#clipPath25)" fill="none" x1="811" x2="917" y1="376" y2="376"/>
<line clip-path="url(#clipPath25)" fill="none" x1="917" x2="917" y1="376" y2="443"/>
<line clip-path="url(#clipPath25)" fill="none" x1="917" x2="717" y1="443" y2="443"/>
<line clip-path="url(#clipPath25)" fill="none" x1="717" x2="717" y1="443" y2="343"/>
<text x="756" font-size="10" y="356" clip-path="url(#clipPath26)" font-family="'Calibri'" stroke="none" font-weight="bold" xml:space="preserve">(PSCS_Semantics::Semantics)</text>
<text x="722" font-size="10" y="370" clip-path="url(#clipPath27)" font-family="'Calibri'" stroke="none" font-weight="bold" xml:space="preserve">StructuredClassifiers</text>
<line clip-path="url(#clipPath28)" fill="none" x1="717" x2="917" y1="376" y2="376"/>
<polygon fill="silver" clip-path="url(#clipPath29)" points=" 10 343 104 343 104 376 210 376 210 443 10 443 10 343" stroke="none"/>
<line clip-path="url(#clipPath29)" fill="none" x1="10" x2="104" y1="343" y2="343"/>
<line clip-path="url(#clipPath29)" fill="none" x1="104" x2="104" y1="343" y2="376"/>
<line clip-path="url(#clipPath29)" fill="none" x1="104" x2="210" y1="376" y2="376"/>
<line clip-path="url(#clipPath29)" fill="none" x1="210" x2="210" y1="376" y2="443"/>
<line clip-path="url(#clipPath29)" fill="none" x1="210" x2="10" y1="443" y2="443"/>
<line clip-path="url(#clipPath29)" fill="none" x1="10" x2="10" y1="443" y2="343"/>
<text x="62" font-size="10" y="356" clip-path="url(#clipPath30)" font-family="'Calibri'" stroke="none" font-weight="bold" xml:space="preserve">(fUML_Syntax::Syntax)</text>
<text x="15" font-size="10" y="370" clip-path="url(#clipPath31)" font-family="'Calibri'" stroke="none" font-weight="bold" xml:space="preserve">StructuredClassifiers</text>
<line clip-path="url(#clipPath32)" fill="none" x1="10" x2="210" y1="376" y2="376"/>
<polygon fill="white" clip-path="url(#clipPath33)" points=" 360 695 430 695 430 728 560 728 560 795 360 795 360 695" stroke="none"/>
<line clip-path="url(#clipPath33)" fill="none" x1="360" x2="430" y1="695" y2="695"/>
<line clip-path="url(#clipPath33)" fill="none" x1="430" x2="430" y1="695" y2="728"/>
<line clip-path="url(#clipPath33)" fill="none" x1="430" x2="560" y1="728" y2="728"/>
<line clip-path="url(#clipPath33)" fill="none" x1="560" x2="560" y1="728" y2="795"/>
<line clip-path="url(#clipPath33)" fill="none" x1="560" x2="360" y1="795" y2="795"/>
<line clip-path="url(#clipPath33)" fill="none" x1="360" x2="360" y1="795" y2="695"/>
<text x="397" font-size="10" y="708" clip-path="url(#clipPath34)" font-family="'Calibri'" stroke="none" font-weight="bold" xml:space="preserve">(PSSM_Semantics::Semantics)</text>
<text x="365" font-size="10" y="722" clip-path="url(#clipPath35)" font-family="'Calibri'" stroke="none" font-weight="bold" xml:space="preserve">StateMachines</text>
<line clip-path="url(#clipPath36)" fill="none" x1="360" x2="560" y1="728" y2="728"/>
<polygon fill="white" clip-path="url(#clipPath37)" points=" 10 518 94 518 94 551 210 551 210 618 10 618 10 518" stroke="none"/>
<line clip-path="url(#clipPath37)" fill="none" x1="10" x2="94" y1="518" y2="518"/>
<line clip-path="url(#clipPath37)" fill="none" x1="94" x2="94" y1="518" y2="551"/>
<line clip-path="url(#clipPath37)" fill="none" x1="94" x2="210" y1="551" y2="551"/>
<line clip-path="url(#clipPath37)" fill="none" x1="210" x2="210" y1="551" y2="618"/>
<line clip-path="url(#clipPath37)" fill="none" x1="210" x2="10" y1="618" y2="618"/>
<line clip-path="url(#clipPath37)" fill="none" x1="10" x2="10" y1="618" y2="518"/>
<text x="61" font-size="10" y="531" clip-path="url(#clipPath38)" font-family="'Calibri'" stroke="none" font-weight="bold" xml:space="preserve">(PSSM_Syntax::Syntax)</text>
<text x="15" font-size="10" y="545" clip-path="url(#clipPath39)" font-family="'Calibri'" stroke="none" font-weight="bold" xml:space="preserve">CommonStructure</text>
<line clip-path="url(#clipPath40)" fill="none" x1="10" x2="210" y1="551" y2="551"/>
<polygon fill="white" clip-path="url(#clipPath41)" points=" 10 695 80 695 80 728 210 728 210 795 10 795 10 695" stroke="none"/>
<line clip-path="url(#clipPath41)" fill="none" x1="10" x2="80" y1="695" y2="695"/>
<line clip-path="url(#clipPath41)" fill="none" x1="80" x2="80" y1="695" y2="728"/>
<line clip-path="url(#clipPath41)" fill="none" x1="80" x2="210" y1="728" y2="728"/>
<line clip-path="url(#clipPath41)" fill="none" x1="210" x2="210" y1="728" y2="795"/>
<line clip-path="url(#clipPath41)" fill="none" x1="210" x2="10" y1="795" y2="795"/>
<line clip-path="url(#clipPath41)" fill="none" x1="10" x2="10" y1="795" y2="695"/>
<text x="61" font-size="10" y="708" clip-path="url(#clipPath42)" font-family="'Calibri'" stroke="none" font-weight="bold" xml:space="preserve">(PSSM_Syntax::Syntax)</text>
<text x="15" font-size="10" y="722" clip-path="url(#clipPath43)" font-family="'Calibri'" stroke="none" font-weight="bold" xml:space="preserve">StateMachines</text>
<line clip-path="url(#clipPath44)" fill="none" x1="10" x2="210" y1="728" y2="728"/>
<polygon fill="white" clip-path="url(#clipPath45)" points=" 360 870 420 870 420 903 560 903 560 970 360 970 360 870" stroke="none"/>
<line clip-path="url(#clipPath45)" fill="none" x1="360" x2="420" y1="870" y2="870"/>
<line clip-path="url(#clipPath45)" fill="none" x1="420" x2="420" y1="870" y2="903"/>
<line clip-path="url(#clipPath45)" fill="none" x1="420" x2="560" y1="903" y2="903"/>
<line clip-path="url(#clipPath45)" fill="none" x1="560" x2="560" y1="903" y2="970"/>
<line clip-path="url(#clipPath45)" fill="none" x1="560" x2="360" y1="970" y2="970"/>
<line clip-path="url(#clipPath45)" fill="none" x1="360" x2="360" y1="970" y2="870"/>
<text x="397" font-size="10" y="883" clip-path="url(#clipPath46)" font-family="'Calibri'" stroke="none" font-weight="bold" xml:space="preserve">(PSSM_Semantics::Semantics)</text>
<text x="365" font-size="10" y="897" clip-path="url(#clipPath47)" font-family="'Calibri'" stroke="none" font-weight="bold" xml:space="preserve">Loci</text>
<line clip-path="url(#clipPath48)" fill="none" x1="360" x2="560" y1="903" y2="903"/>
<polygon fill="silver" clip-path="url(#clipPath49)" points=" 717 870 777 870 777 903 917 903 917 970 717 970 717 870" stroke="none"/>
<line clip-path="url(#clipPath49)" fill="none" x1="717" x2="777" y1="870" y2="870"/>
<line clip-path="url(#clipPath49)" fill="none" x1="777" x2="777" y1="870" y2="903"/>
<line clip-path="url(#clipPath49)" fill="none" x1="777" x2="917" y1="903" y2="903"/>
<line clip-path="url(#clipPath49)" fill="none" x1="917" x2="917" y1="903" y2="970"/>
<line clip-path="url(#clipPath49)" fill="none" x1="917" x2="717" y1="970" y2="970"/>
<line clip-path="url(#clipPath49)" fill="none" x1="717" x2="717" y1="970" y2="870"/>
<text x="756" font-size="10" y="883" clip-path="url(#clipPath50)" font-family="'Calibri'" stroke="none" font-weight="bold" xml:space="preserve">(PSCS_Semantics::Semantics)</text>
<text x="722" font-size="10" y="897" clip-path="url(#clipPath51)" font-family="'Calibri'" stroke="none" font-weight="bold" xml:space="preserve">Loci</text>
<line clip-path="url(#clipPath52)" fill="none" x1="717" x2="917" y1="903" y2="903"/>
<polygon fill="silver" clip-path="url(#clipPath53)" points=" 717 11 800 11 800 44 917 44 917 111 717 111 717 11" stroke="none"/>
<line clip-path="url(#clipPath53)" fill="none" x1="717" x2="800" y1="11" y2="11"/>
<line clip-path="url(#clipPath53)" fill="none" x1="800" x2="800" y1="11" y2="44"/>
<line clip-path="url(#clipPath53)" fill="none" x1="800" x2="917" y1="44" y2="44"/>
<line clip-path="url(#clipPath53)" fill="none" x1="917" x2="917" y1="44" y2="111"/>
<line clip-path="url(#clipPath53)" fill="none" x1="917" x2="717" y1="111" y2="111"/>
<line clip-path="url(#clipPath53)" fill="none" x1="717" x2="717" y1="111" y2="11"/>
<text x="755" font-size="10" y="24" clip-path="url(#clipPath54)" font-family="'Calibri'" stroke="none" font-weight="bold" xml:space="preserve">(fUML_Semantics::Semantics)</text>
<text x="722" font-size="10" y="38" clip-path="url(#clipPath55)" font-family="'Calibri'" stroke="none" font-weight="bold" xml:space="preserve">CommonBehavior</text>
<line clip-path="url(#clipPath56)" fill="none" x1="717" x2="917" y1="44" y2="44"/>
<polygon fill="silver" clip-path="url(#clipPath57)" points=" 717 695 777 695 777 728 917 728 917 795 717 795 717 695" stroke="none"/>
<line clip-path="url(#clipPath57)" fill="none" x1="717" x2="777" y1="695" y2="695"/>
<line clip-path="url(#clipPath57)" fill="none" x1="777" x2="777" y1="695" y2="728"/>
<line clip-path="url(#clipPath57)" fill="none" x1="777" x2="917" y1="728" y2="728"/>
<line clip-path="url(#clipPath57)" fill="none" x1="917" x2="917" y1="728" y2="795"/>
<line clip-path="url(#clipPath57)" fill="none" x1="917" x2="717" y1="795" y2="795"/>
<line clip-path="url(#clipPath57)" fill="none" x1="717" x2="717" y1="795" y2="695"/>
<text x="755" font-size="10" y="708" clip-path="url(#clipPath58)" font-family="'Calibri'" stroke="none" font-weight="bold" xml:space="preserve">(fUML_Semantics::Semantics)</text>
<text x="722" font-size="10" y="722" clip-path="url(#clipPath59)" font-family="'Calibri'" stroke="none" font-weight="bold" xml:space="preserve">Loci</text>
<line clip-path="url(#clipPath60)" fill="none" x1="717" x2="917" y1="728" y2="728"/>
</g>
<g stroke-linecap="butt" font-size="10" text-rendering="optimizeLegibility" font-family="'Calibri'" stroke-dasharray="5,5,5,5,5,5,5,5,5,5" stroke-width="1.1">
<line clip-path="url(#clipPath61)" fill="none" x1="560" x2="717" y1="234" y2="234"/>
<text xml:space="preserve" x="622" y="226" clip-path="url(#clipPath62)" stroke="none">«import»</text>
<line clip-path="url(#clipPath63)" fill="none" x1="702" x2="717" y1="239" y2="234" stroke-dasharray="none"/>
<line clip-path="url(#clipPath63)" fill="none" x1="717" x2="702" y1="234" y2="229" stroke-dasharray="none"/>
<line clip-path="url(#clipPath61)" fill="none" x1="360" x2="210" y1="232" y2="232"/>
<text xml:space="preserve" x="266" y="226" clip-path="url(#clipPath64)" stroke="none">«import»</text>
<line clip-path="url(#clipPath65)" fill="none" x1="225" x2="210" y1="227" y2="232" stroke-dasharray="none"/>
<line clip-path="url(#clipPath65)" fill="none" x1="210" x2="225" y1="232" y2="237" stroke-dasharray="none"/>
<line clip-path="url(#clipPath61)" fill="none" x1="360" x2="210" y1="199" y2="107"/>
<text xml:space="preserve" x="270" y="159" clip-path="url(#clipPath66)" stroke="none">«import»</text>
<line clip-path="url(#clipPath67)" fill="none" x1="225" x2="210" y1="111" y2="107" stroke-dasharray="none"/>
<line clip-path="url(#clipPath67)" fill="none" x1="210" x2="220" y1="107" y2="119" stroke-dasharray="none"/>
<line clip-path="url(#clipPath61)" fill="none" x1="560" x2="717" y1="269" y2="371"/>
<text xml:space="preserve" x="621" y="312" clip-path="url(#clipPath68)" stroke="none">«import»</text>
<line clip-path="url(#clipPath69)" fill="none" x1="702" x2="717" y1="367" y2="371" stroke-dasharray="none"/>
<line clip-path="url(#clipPath69)" fill="none" x1="717" x2="707" y1="371" y2="359" stroke-dasharray="none"/>
<line clip-path="url(#clipPath61)" fill="none" x1="360" x2="210" y1="401" y2="401"/>
<text xml:space="preserve" x="267" y="396" clip-path="url(#clipPath70)" stroke="none">«import»</text>
<line clip-path="url(#clipPath71)" fill="none" x1="225" x2="210" y1="396" y2="401" stroke-dasharray="none"/>
<line clip-path="url(#clipPath71)" fill="none" x1="210" x2="225" y1="401" y2="406" stroke-dasharray="none"/>
<line clip-path="url(#clipPath61)" fill="none" x1="360" x2="210" y1="728" y2="616"/>
<text xml:space="preserve" x="269" y="677" clip-path="url(#clipPath72)" stroke="none">«import»</text>
<line clip-path="url(#clipPath73)" fill="none" x1="225" x2="210" y1="621" y2="616" stroke-dasharray="none"/>
<line clip-path="url(#clipPath73)" fill="none" x1="210" x2="219" y1="616" y2="629" stroke-dasharray="none"/>
<line clip-path="url(#clipPath61)" fill="none" x1="360" x2="210" y1="756" y2="756"/>
<text xml:space="preserve" x="267" y="752" clip-path="url(#clipPath74)" stroke="none">«import»</text>
<line clip-path="url(#clipPath75)" fill="none" x1="225" x2="210" y1="751" y2="756" stroke-dasharray="none"/>
<line clip-path="url(#clipPath75)" fill="none" x1="210" x2="225" y1="756" y2="761" stroke-dasharray="none"/>
<line clip-path="url(#clipPath61)" fill="none" x1="462" x2="462" y1="552" y2="443"/>
<text xml:space="preserve" x="419" y="501" clip-path="url(#clipPath76)" stroke="none">«import»</text>
<line clip-path="url(#clipPath77)" fill="none" x1="467" x2="462" y1="458" y2="443" stroke-dasharray="none"/>
<line clip-path="url(#clipPath77)" fill="none" x1="462" x2="457" y1="443" y2="458" stroke-dasharray="none"/>
<line clip-path="url(#clipPath61)" fill="none" x1="460" x2="460" y1="376" y2="269"/>
<text xml:space="preserve" x="417" y="327" clip-path="url(#clipPath78)" stroke="none">«import»</text>
<line clip-path="url(#clipPath79)" fill="none" x1="465" x2="460" y1="284" y2="269" stroke-dasharray="none"/>
<line clip-path="url(#clipPath79)" fill="none" x1="460" x2="455" y1="269" y2="284" stroke-dasharray="none"/>
<line clip-path="url(#clipPath61)" fill="none" x1="460" x2="460" y1="903" y2="795"/>
<text xml:space="preserve" x="416" y="853" clip-path="url(#clipPath80)" stroke="none">«import»</text>
<line clip-path="url(#clipPath81)" fill="none" x1="465" x2="460" y1="810" y2="795" stroke-dasharray="none"/>
<line clip-path="url(#clipPath81)" fill="none" x1="460" x2="455" y1="795" y2="810" stroke-dasharray="none"/>
<line clip-path="url(#clipPath61)" fill="none" x1="514" x2="514" y1="619" y2="728"/>
<text xml:space="preserve" x="520" y="678" clip-path="url(#clipPath82)" stroke="none">«import»</text>
<line clip-path="url(#clipPath83)" fill="none" x1="509" x2="514" y1="713" y2="728" stroke-dasharray="none"/>
<line clip-path="url(#clipPath83)" fill="none" x1="514" x2="519" y1="728" y2="713" stroke-dasharray="none"/>
<line clip-path="url(#clipPath61)" fill="none" x1="560" x2="717" y1="934" y2="934"/>
<text xml:space="preserve" x="621" y="929" clip-path="url(#clipPath84)" stroke="none">«import»</text>
<line clip-path="url(#clipPath85)" fill="none" x1="702" x2="717" y1="939" y2="934" stroke-dasharray="none"/>
<line clip-path="url(#clipPath85)" fill="none" x1="717" x2="702" y1="934" y2="929" stroke-dasharray="none"/>
<line clip-path="url(#clipPath61)" fill="none" x1="461" x2="461" y1="728" y2="619"/>
<text xml:space="preserve" x="418" y="676" clip-path="url(#clipPath86)" stroke="none">«import»</text>
<line clip-path="url(#clipPath87)" fill="none" x1="466" x2="461" y1="634" y2="619" stroke-dasharray="none"/>
<line clip-path="url(#clipPath87)" fill="none" x1="461" x2="456" y1="619" y2="634" stroke-dasharray="none"/>
<line clip-path="url(#clipPath61)" fill="none" x1="560" x2="717" y1="202" y2="109"/>
<text xml:space="preserve" x="622" y="159" clip-path="url(#clipPath88)" stroke="none">«import»</text>
<line clip-path="url(#clipPath89)" fill="none" x1="707" x2="717" y1="121" y2="109" stroke-dasharray="none"/>
<line clip-path="url(#clipPath89)" fill="none" x1="717" x2="702" y1="109" y2="112" stroke-dasharray="none"/>
<line clip-path="url(#clipPath61)" fill="none" x1="560" x2="717" y1="757" y2="757"/>
<text xml:space="preserve" x="620" y="751" clip-path="url(#clipPath90)" stroke="none">«import»</text>
<line clip-path="url(#clipPath91)" fill="none" x1="702" x2="717" y1="762" y2="757" stroke-dasharray="none"/>
<line clip-path="url(#clipPath91)" fill="none" x1="717" x2="702" y1="757" y2="752" stroke-dasharray="none"/>
<line clip-path="url(#clipPath61)" fill="none" x1="513" x2="513" y1="443" y2="552"/>
<text xml:space="preserve" x="521" y="501" clip-path="url(#clipPath92)" stroke="none">«import»</text>
<line clip-path="url(#clipPath93)" fill="none" x1="508" x2="513" y1="537" y2="552" stroke-dasharray="none"/>
<line clip-path="url(#clipPath93)" fill="none" x1="513" x2="518" y1="552" y2="537" stroke-dasharray="none"/>
</g>
</g>
</svg>
