<?xml version="1.0" encoding="UTF-8"?><svg xmlns="http://www.w3.org/2000/svg" xmlns:xlink="http://www.w3.org/1999/xlink" stroke-dasharray="none" shape-rendering="auto" font-family="'Dialog'" width="970" text-rendering="auto" fill-opacity="1" contentScriptType="text/ecmascript" color-interpolation="auto" color-rendering="auto" preserveAspectRatio="xMidYMid meet" font-size="12" viewBox="0 0 970 915" fill="black" stroke="black" image-rendering="auto" stroke-miterlimit="10" zoomAndPan="magnify" version="1.0" stroke-linecap="square" stroke-linejoin="miter" contentStyleType="text/css" font-style="normal" height="915" stroke-width="1" stroke-dashoffset="0" font-weight="normal" stroke-opacity="1">
<!--Generated by the Batik Graphics2D SVG Generator-->
<defs id="genericDefs"/>
<g>
<defs id="defs1">
<clipPath clipPathUnits="userSpaceOnUse" id="clipPath1">
<path d="M393 116 L657 116 L657 292 L393 292 L393 116 Z"/>
</clipPath>
<clipPath clipPathUnits="userSpaceOnUse" id="clipPath2">
<path d="M460 119 L590 119 L590 132 L460 132 L460 119 Z"/>
</clipPath>
<clipPath clipPathUnits="userSpaceOnUse" id="clipPath3">
<path d="M393 131 L657 131 L657 155 L393 155 L393 131 Z"/>
</clipPath>
<clipPath clipPathUnits="userSpaceOnUse" id="clipPath4">
<path d="M398 156 L568 156 L568 169 L398 169 L398 156 Z"/>
</clipPath>
<clipPath clipPathUnits="userSpaceOnUse" id="clipPath5">
<path d="M398 167 L588 167 L588 180 L398 180 L398 167 Z"/>
</clipPath>
<clipPath clipPathUnits="userSpaceOnUse" id="clipPath6">
<path d="M398 178 L450 178 L450 191 L398 191 L398 178 Z"/>
</clipPath>
<clipPath clipPathUnits="userSpaceOnUse" id="clipPath7">
<path d="M398 189 L532 189 L532 202 L398 202 L398 189 Z"/>
</clipPath>
<clipPath clipPathUnits="userSpaceOnUse" id="clipPath8">
<path d="M398 200 L562 200 L562 213 L398 213 L398 200 Z"/>
</clipPath>
<clipPath clipPathUnits="userSpaceOnUse" id="clipPath9">
<path d="M398 211 L541 211 L541 224 L398 224 L398 211 Z"/>
</clipPath>
<clipPath clipPathUnits="userSpaceOnUse" id="clipPath10">
<path d="M398 222 L571 222 L571 235 L398 235 L398 222 Z"/>
</clipPath>
<clipPath clipPathUnits="userSpaceOnUse" id="clipPath11">
<path d="M398 233 L541 233 L541 246 L398 246 L398 233 Z"/>
</clipPath>
<clipPath clipPathUnits="userSpaceOnUse" id="clipPath12">
<path d="M398 244 L550 244 L550 257 L398 257 L398 244 Z"/>
</clipPath>
<clipPath clipPathUnits="userSpaceOnUse" id="clipPath13">
<path d="M398 255 L495 255 L495 268 L398 268 L398 255 Z"/>
</clipPath>
<clipPath clipPathUnits="userSpaceOnUse" id="clipPath14">
<path d="M398 266 L652 266 L652 279 L398 279 L398 266 Z"/>
</clipPath>
<clipPath clipPathUnits="userSpaceOnUse" id="clipPath15">
<path d="M393 154 L657 154 L657 291 L393 291 L393 154 Z"/>
</clipPath>
<clipPath clipPathUnits="userSpaceOnUse" id="clipPath16">
<path d="M435 9 L614 9 L614 62 L435 62 L435 9 Z"/>
</clipPath>
<clipPath clipPathUnits="userSpaceOnUse" id="clipPath17">
<path d="M436 23 L614 23 L614 36 L436 36 L436 23 Z"/>
</clipPath>
<clipPath clipPathUnits="userSpaceOnUse" id="clipPath18">
<path d="M489 35 L562 35 L562 48 L489 48 L489 35 Z"/>
</clipPath>
<clipPath clipPathUnits="userSpaceOnUse" id="clipPath19">
<path d="M124 177 L250 177 L250 230 L124 230 L124 177 Z"/>
</clipPath>
<clipPath clipPathUnits="userSpaceOnUse" id="clipPath20">
<path d="M125 191 L250 191 L250 204 L125 204 L125 191 Z"/>
</clipPath>
<clipPath clipPathUnits="userSpaceOnUse" id="clipPath21">
<path d="M154 203 L222 203 L222 216 L154 216 L154 203 Z"/>
</clipPath>
<clipPath clipPathUnits="userSpaceOnUse" id="clipPath22">
<path d="M385 375 L672 375 L672 514 L385 514 L385 375 Z"/>
</clipPath>
<clipPath clipPathUnits="userSpaceOnUse" id="clipPath23">
<path d="M491 378 L565 378 L565 391 L491 391 L491 378 Z"/>
</clipPath>
<clipPath clipPathUnits="userSpaceOnUse" id="clipPath24">
<path d="M390 392 L506 392 L506 405 L390 405 L390 392 Z"/>
</clipPath>
<clipPath clipPathUnits="userSpaceOnUse" id="clipPath25">
<path d="M385 390 L672 390 L672 415 L385 415 L385 390 Z"/>
</clipPath>
<clipPath clipPathUnits="userSpaceOnUse" id="clipPath26">
<path d="M390 416 L620 416 L620 429 L390 429 L390 416 Z"/>
</clipPath>
<clipPath clipPathUnits="userSpaceOnUse" id="clipPath27">
<path d="M390 427 L442 427 L442 440 L390 440 L390 427 Z"/>
</clipPath>
<clipPath clipPathUnits="userSpaceOnUse" id="clipPath28">
<path d="M390 438 L487 438 L487 451 L390 451 L390 438 Z"/>
</clipPath>
<clipPath clipPathUnits="userSpaceOnUse" id="clipPath29">
<path d="M390 449 L582 449 L582 462 L390 462 L390 449 Z"/>
</clipPath>
<clipPath clipPathUnits="userSpaceOnUse" id="clipPath30">
<path d="M390 460 L667 460 L667 473 L390 473 L390 460 Z"/>
</clipPath>
<clipPath clipPathUnits="userSpaceOnUse" id="clipPath31">
<path d="M390 471 L608 471 L608 484 L390 484 L390 471 Z"/>
</clipPath>
<clipPath clipPathUnits="userSpaceOnUse" id="clipPath32">
<path d="M390 482 L620 482 L620 495 L390 495 L390 482 Z"/>
</clipPath>
<clipPath clipPathUnits="userSpaceOnUse" id="clipPath33">
<path d="M390 493 L447 493 L447 506 L390 506 L390 493 Z"/>
</clipPath>
<clipPath clipPathUnits="userSpaceOnUse" id="clipPath34">
<path d="M385 414 L672 414 L672 513 L385 513 L385 414 Z"/>
</clipPath>
<clipPath clipPathUnits="userSpaceOnUse" id="clipPath35">
<path d="M9 558 L463 558 L463 810 L9 810 L9 558 Z"/>
</clipPath>
<clipPath clipPathUnits="userSpaceOnUse" id="clipPath36">
<path d="M198 561 L273 561 L273 574 L198 574 L198 561 Z"/>
</clipPath>
<clipPath clipPathUnits="userSpaceOnUse" id="clipPath37">
<path d="M14 575 L133 575 L133 588 L14 588 L14 575 Z"/>
</clipPath>
<clipPath clipPathUnits="userSpaceOnUse" id="clipPath38">
<path d="M9 573 L463 573 L463 598 L9 598 L9 573 Z"/>
</clipPath>
<clipPath clipPathUnits="userSpaceOnUse" id="clipPath39">
<path d="M14 599 L183 599 L183 612 L14 612 L14 599 Z"/>
</clipPath>
<clipPath clipPathUnits="userSpaceOnUse" id="clipPath40">
<path d="M14 610 L195 610 L195 623 L14 623 L14 610 Z"/>
</clipPath>
<clipPath clipPathUnits="userSpaceOnUse" id="clipPath41">
<path d="M14 621 L153 621 L153 634 L14 634 L14 621 Z"/>
</clipPath>
<clipPath clipPathUnits="userSpaceOnUse" id="clipPath42">
<path d="M14 632 L256 632 L256 645 L14 645 L14 632 Z"/>
</clipPath>
<clipPath clipPathUnits="userSpaceOnUse" id="clipPath43">
<path d="M14 643 L256 643 L256 656 L14 656 L14 643 Z"/>
</clipPath>
<clipPath clipPathUnits="userSpaceOnUse" id="clipPath44">
<path d="M14 654 L303 654 L303 667 L14 667 L14 654 Z"/>
</clipPath>
<clipPath clipPathUnits="userSpaceOnUse" id="clipPath45">
<path d="M14 665 L251 665 L251 678 L14 678 L14 665 Z"/>
</clipPath>
<clipPath clipPathUnits="userSpaceOnUse" id="clipPath46">
<path d="M14 676 L251 676 L251 689 L14 689 L14 676 Z"/>
</clipPath>
<clipPath clipPathUnits="userSpaceOnUse" id="clipPath47">
<path d="M14 687 L119 687 L119 700 L14 700 L14 687 Z"/>
</clipPath>
<clipPath clipPathUnits="userSpaceOnUse" id="clipPath48">
<path d="M14 698 L212 698 L212 711 L14 711 L14 698 Z"/>
</clipPath>
<clipPath clipPathUnits="userSpaceOnUse" id="clipPath49">
<path d="M14 709 L458 709 L458 722 L14 722 L14 709 Z"/>
</clipPath>
<clipPath clipPathUnits="userSpaceOnUse" id="clipPath50">
<path d="M14 720 L446 720 L446 733 L14 733 L14 720 Z"/>
</clipPath>
<clipPath clipPathUnits="userSpaceOnUse" id="clipPath51">
<path d="M14 731 L348 731 L348 744 L14 744 L14 731 Z"/>
</clipPath>
<clipPath clipPathUnits="userSpaceOnUse" id="clipPath52">
<path d="M14 742 L228 742 L228 755 L14 755 L14 742 Z"/>
</clipPath>
<clipPath clipPathUnits="userSpaceOnUse" id="clipPath53">
<path d="M14 753 L228 753 L228 766 L14 766 L14 753 Z"/>
</clipPath>
<clipPath clipPathUnits="userSpaceOnUse" id="clipPath54">
<path d="M14 764 L322 764 L322 777 L14 777 L14 764 Z"/>
</clipPath>
<clipPath clipPathUnits="userSpaceOnUse" id="clipPath55">
<path d="M14 775 L310 775 L310 788 L14 788 L14 775 Z"/>
</clipPath>
<clipPath clipPathUnits="userSpaceOnUse" id="clipPath56">
<path d="M14 786 L71 786 L71 799 L14 799 L14 786 Z"/>
</clipPath>
<clipPath clipPathUnits="userSpaceOnUse" id="clipPath57">
<path d="M9 597 L463 597 L463 809 L9 809 L9 597 Z"/>
</clipPath>
<clipPath clipPathUnits="userSpaceOnUse" id="clipPath58">
<path d="M679 558 L961 558 L961 810 L679 810 L679 558 Z"/>
</clipPath>
<clipPath clipPathUnits="userSpaceOnUse" id="clipPath59">
<path d="M775 561 L865 561 L865 574 L775 574 L775 561 Z"/>
</clipPath>
<clipPath clipPathUnits="userSpaceOnUse" id="clipPath60">
<path d="M684 575 L821 575 L821 588 L684 588 L684 575 Z"/>
</clipPath>
<clipPath clipPathUnits="userSpaceOnUse" id="clipPath61">
<path d="M679 573 L961 573 L961 600 L679 600 L679 573 Z"/>
</clipPath>
<clipPath clipPathUnits="userSpaceOnUse" id="clipPath62">
<path d="M684 601 L761 601 L761 614 L684 614 L684 601 Z"/>
</clipPath>
<clipPath clipPathUnits="userSpaceOnUse" id="clipPath63">
<path d="M684 612 L716 612 L716 625 L684 625 L684 612 Z"/>
</clipPath>
<clipPath clipPathUnits="userSpaceOnUse" id="clipPath64">
<path d="M684 623 L883 623 L883 636 L684 636 L684 623 Z"/>
</clipPath>
<clipPath clipPathUnits="userSpaceOnUse" id="clipPath65">
<path d="M684 634 L841 634 L841 647 L684 647 L684 634 Z"/>
</clipPath>
<clipPath clipPathUnits="userSpaceOnUse" id="clipPath66">
<path d="M684 645 L799 645 L799 658 L684 658 L684 645 Z"/>
</clipPath>
<clipPath clipPathUnits="userSpaceOnUse" id="clipPath67">
<path d="M684 656 L804 656 L804 669 L684 669 L684 656 Z"/>
</clipPath>
<clipPath clipPathUnits="userSpaceOnUse" id="clipPath68">
<path d="M684 667 L816 667 L816 680 L684 680 L684 667 Z"/>
</clipPath>
<clipPath clipPathUnits="userSpaceOnUse" id="clipPath69">
<path d="M684 678 L956 678 L956 691 L684 691 L684 678 Z"/>
</clipPath>
<clipPath clipPathUnits="userSpaceOnUse" id="clipPath70">
<path d="M684 689 L801 689 L801 702 L684 702 L684 689 Z"/>
</clipPath>
<clipPath clipPathUnits="userSpaceOnUse" id="clipPath71">
<path d="M684 700 L798 700 L798 713 L684 713 L684 700 Z"/>
</clipPath>
<clipPath clipPathUnits="userSpaceOnUse" id="clipPath72">
<path d="M684 711 L874 711 L874 724 L684 724 L684 711 Z"/>
</clipPath>
<clipPath clipPathUnits="userSpaceOnUse" id="clipPath73">
<path d="M684 722 L904 722 L904 735 L684 735 L684 722 Z"/>
</clipPath>
<clipPath clipPathUnits="userSpaceOnUse" id="clipPath74">
<path d="M684 733 L871 733 L871 746 L684 746 L684 733 Z"/>
</clipPath>
<clipPath clipPathUnits="userSpaceOnUse" id="clipPath75">
<path d="M684 744 L901 744 L901 757 L684 757 L684 744 Z"/>
</clipPath>
<clipPath clipPathUnits="userSpaceOnUse" id="clipPath76">
<path d="M684 755 L752 755 L752 768 L684 768 L684 755 Z"/>
</clipPath>
<clipPath clipPathUnits="userSpaceOnUse" id="clipPath77">
<path d="M684 766 L749 766 L749 779 L684 779 L684 766 Z"/>
</clipPath>
<clipPath clipPathUnits="userSpaceOnUse" id="clipPath78">
<path d="M684 777 L900 777 L900 790 L684 790 L684 777 Z"/>
</clipPath>
<clipPath clipPathUnits="userSpaceOnUse" id="clipPath79">
<path d="M679 599 L961 599 L961 809 L679 809 L679 599 Z"/>
</clipPath>
<clipPath clipPathUnits="userSpaceOnUse" id="clipPath80">
<path d="M185 825 L287 825 L287 888 L185 888 L185 825 Z"/>
</clipPath>
<clipPath clipPathUnits="userSpaceOnUse" id="clipPath81">
<path d="M203 828 L269 828 L269 841 L203 841 L203 828 Z"/>
</clipPath>
<clipPath clipPathUnits="userSpaceOnUse" id="clipPath82">
<path d="M205 840 L267 840 L267 853 L205 853 L205 840 Z"/>
</clipPath>
<clipPath clipPathUnits="userSpaceOnUse" id="clipPath83">
<path d="M190 854 L206 854 L206 867 L190 867 L190 854 Z"/>
</clipPath>
<clipPath clipPathUnits="userSpaceOnUse" id="clipPath84">
<path d="M190 865 L217 865 L217 878 L190 878 L190 865 Z"/>
</clipPath>
<clipPath clipPathUnits="userSpaceOnUse" id="clipPath85">
<path d="M185 852 L287 852 L287 888 L185 888 L185 852 Z"/>
</clipPath>
<clipPath clipPathUnits="userSpaceOnUse" id="clipPath86">
<path d="M769 825 L871 825 L871 906 L769 906 L769 825 Z"/>
</clipPath>
<clipPath clipPathUnits="userSpaceOnUse" id="clipPath87">
<path d="M787 828 L853 828 L853 841 L787 841 L787 828 Z"/>
</clipPath>
<clipPath clipPathUnits="userSpaceOnUse" id="clipPath88">
<path d="M778 840 L861 840 L861 853 L778 853 L778 840 Z"/>
</clipPath>
<clipPath clipPathUnits="userSpaceOnUse" id="clipPath89">
<path d="M774 854 L796 854 L796 867 L774 867 L774 854 Z"/>
</clipPath>
<clipPath clipPathUnits="userSpaceOnUse" id="clipPath90">
<path d="M774 865 L809 865 L809 878 L774 878 L774 865 Z"/>
</clipPath>
<clipPath clipPathUnits="userSpaceOnUse" id="clipPath91">
<path d="M774 876 L815 876 L815 889 L774 889 L774 876 Z"/>
</clipPath>
<clipPath clipPathUnits="userSpaceOnUse" id="clipPath92">
<path d="M774 887 L818 887 L818 900 L774 900 L774 887 Z"/>
</clipPath>
<clipPath clipPathUnits="userSpaceOnUse" id="clipPath93">
<path d="M769 852 L871 852 L871 906 L769 906 L769 852 Z"/>
</clipPath>
<clipPath clipPathUnits="userSpaceOnUse" id="clipPath94">
<path d="M-1 -1 L971 -1 L971 916 L-1 916 L-1 -1 Z"/>
</clipPath>
<clipPath clipPathUnits="userSpaceOnUse" id="clipPath95">
<path d="M658 233 L699 233 L699 246 L658 246 L658 233 Z"/>
</clipPath>
<clipPath clipPathUnits="userSpaceOnUse" id="clipPath96">
<path d="M676 149 L718 149 L718 162 L676 162 L676 149 Z"/>
</clipPath>
<clipPath clipPathUnits="userSpaceOnUse" id="clipPath97">
<path d="M661 251 L671 251 L671 264 L661 264 L661 251 Z"/>
</clipPath>
<clipPath clipPathUnits="userSpaceOnUse" id="clipPath98">
<path d="M679 164 L702 164 L702 177 L679 177 L679 164 Z"/>
</clipPath>
<clipPath clipPathUnits="userSpaceOnUse" id="clipPath99">
<path d="M655 155 L676 155 L676 170 L655 170 L655 155 Z"/>
</clipPath>
<clipPath clipPathUnits="userSpaceOnUse" id="clipPath100">
<path d="M515 60 L534 60 L534 73 L515 73 L515 60 Z"/>
</clipPath>
<clipPath clipPathUnits="userSpaceOnUse" id="clipPath101">
<path d="M270 186 L306 186 L306 199 L270 199 L270 186 Z"/>
</clipPath>
<clipPath clipPathUnits="userSpaceOnUse" id="clipPath102">
<path d="M348 186 L389 186 L389 199 L348 199 L348 186 Z"/>
</clipPath>
<clipPath clipPathUnits="userSpaceOnUse" id="clipPath103">
<path d="M271 206 L282 206 L282 219 L271 219 L271 206 Z"/>
</clipPath>
<clipPath clipPathUnits="userSpaceOnUse" id="clipPath104">
<path d="M380 205 L390 205 L390 218 L380 218 L380 205 Z"/>
</clipPath>
<clipPath clipPathUnits="userSpaceOnUse" id="clipPath105">
<path d="M248 195 L269 195 L269 210 L248 210 L248 195 Z"/>
</clipPath>
<clipPath clipPathUnits="userSpaceOnUse" id="clipPath106">
<path d="M516 290 L535 290 L535 303 L516 303 L516 290 Z"/>
</clipPath>
<clipPath clipPathUnits="userSpaceOnUse" id="clipPath107">
<path d="M275 437 L360 437 L360 450 L275 450 L275 437 Z"/>
</clipPath>
<clipPath clipPathUnits="userSpaceOnUse" id="clipPath108">
<path d="M145 519 L235 519 L235 532 L145 532 L145 519 Z"/>
</clipPath>
<clipPath clipPathUnits="userSpaceOnUse" id="clipPath109">
<path d="M351 455 L362 455 L362 468 L351 468 L351 455 Z"/>
</clipPath>
<clipPath clipPathUnits="userSpaceOnUse" id="clipPath110">
<path d="M238 522 L248 522 L248 535 L238 535 L238 522 Z"/>
</clipPath>
<clipPath clipPathUnits="userSpaceOnUse" id="clipPath111">
<path d="M369 448 L388 448 L388 459 L369 459 L369 448 Z"/>
</clipPath>
<clipPath clipPathUnits="userSpaceOnUse" id="clipPath112">
<path d="M228 540 L243 540 L243 561 L228 561 L228 540 Z"/>
</clipPath>
<clipPath clipPathUnits="userSpaceOnUse" id="clipPath113">
<path d="M690 437 L775 437 L775 450 L690 450 L690 437 Z"/>
</clipPath>
<clipPath clipPathUnits="userSpaceOnUse" id="clipPath114">
<path d="M716 529 L820 529 L820 542 L716 542 L716 529 Z"/>
</clipPath>
<clipPath clipPathUnits="userSpaceOnUse" id="clipPath115">
<path d="M690 458 L701 458 L701 471 L690 471 L690 458 Z"/>
</clipPath>
<clipPath clipPathUnits="userSpaceOnUse" id="clipPath116">
<path d="M824 532 L834 532 L834 545 L824 545 L824 532 Z"/>
</clipPath>
<clipPath clipPathUnits="userSpaceOnUse" id="clipPath117">
<path d="M670 449 L689 449 L689 460 L670 460 L670 449 Z"/>
</clipPath>
<clipPath clipPathUnits="userSpaceOnUse" id="clipPath118">
<path d="M815 540 L830 540 L830 561 L815 561 L815 540 Z"/>
</clipPath>
<clipPath clipPathUnits="userSpaceOnUse" id="clipPath119">
<path d="M480 648 L596 648 L596 661 L480 661 L480 648 Z"/>
</clipPath>
<clipPath clipPathUnits="userSpaceOnUse" id="clipPath120">
<path d="M522 666 L667 666 L667 679 L522 679 L522 666 Z"/>
</clipPath>
<clipPath clipPathUnits="userSpaceOnUse" id="clipPath121">
<path d="M481 666 L492 666 L492 679 L481 679 L481 666 Z"/>
</clipPath>
<clipPath clipPathUnits="userSpaceOnUse" id="clipPath122">
<path d="M653 649 L663 649 L663 662 L653 662 L653 649 Z"/>
</clipPath>
<clipPath clipPathUnits="userSpaceOnUse" id="clipPath123">
<path d="M461 655 L482 655 L482 670 L461 670 L461 655 Z"/>
</clipPath>
<clipPath clipPathUnits="userSpaceOnUse" id="clipPath124">
<path d="M661 655 L682 655 L682 670 L661 670 L661 655 Z"/>
</clipPath>
<clipPath clipPathUnits="userSpaceOnUse" id="clipPath125">
<path d="M517 750 L663 750 L663 763 L517 763 L517 750 Z"/>
</clipPath>
<clipPath clipPathUnits="userSpaceOnUse" id="clipPath126">
<path d="M482 736 L595 736 L595 749 L482 749 L482 736 Z"/>
</clipPath>
<clipPath clipPathUnits="userSpaceOnUse" id="clipPath127">
<path d="M653 737 L663 737 L663 750 L653 750 L653 737 Z"/>
</clipPath>
<clipPath clipPathUnits="userSpaceOnUse" id="clipPath128">
<path d="M479 752 L490 752 L490 765 L479 765 L479 752 Z"/>
</clipPath>
<clipPath clipPathUnits="userSpaceOnUse" id="clipPath129">
<path d="M661 742 L682 742 L682 757 L661 757 L661 742 Z"/>
</clipPath>
<clipPath clipPathUnits="userSpaceOnUse" id="clipPath130">
<path d="M461 742 L482 742 L482 757 L461 757 L461 742 Z"/>
</clipPath>
</defs>
<g font-size="11" fill="white" stroke-linejoin="round" stroke="white" stroke-width="0" stroke-miterlimit="0">
<rect x="394" y="117" clip-path="url(#clipPath1)" width="262" rx="0" ry="0" height="174" stroke="none"/>
</g>
<g font-size="9" font-family="'Helvetica'" stroke-linejoin="round" font-style="italic" font-weight="bold" stroke-width="0" stroke-miterlimit="0">
<text xml:space="preserve" x="461" y="127" clip-path="url(#clipPath2)" stroke="none">StateMachineSemanticVisitor</text>
</g>
<g font-size="11" stroke-width="1.1" stroke-linecap="butt">
<line clip-path="url(#clipPath3)" fill="none" x1="394" x2="656" y1="132" y2="132"/>
<text x="399" font-size="9" y="164" clip-path="url(#clipPath4)" font-family="'Helvetica'" stroke="none" xml:space="preserve"> + getContextChain(): SemanticVisitor [*]</text>
<text x="399" font-size="9" y="175" clip-path="url(#clipPath5)" font-family="'Helvetica'" stroke="none" xml:space="preserve"> + getStateMachineExecution(): Execution [1]</text>
<text x="399" font-size="9" y="186" clip-path="url(#clipPath6)" font-family="'Helvetica'" stroke="none" xml:space="preserve"> + activate()</text>
<text x="399" font-size="9" y="197" clip-path="url(#clipPath7)" font-family="'Helvetica'" stroke="none" xml:space="preserve"> + getNode(): NamedElement [1]</text>
<text x="399" font-size="9" y="208" clip-path="url(#clipPath8)" font-family="'Helvetica'" stroke="none" xml:space="preserve"> + setNode(  in null: NamedElement [1])</text>
<text x="399" font-size="9" y="219" clip-path="url(#clipPath9)" font-family="'Helvetica'" stroke="none" xml:space="preserve"> + getParent(): SemanticVisitor [1]</text>
<text x="399" font-size="9" y="230" clip-path="url(#clipPath10)" font-family="'Helvetica'" stroke="none" xml:space="preserve"> + setParent(  in null: SemanticVisitor [1])</text>
<text x="399" font-size="9" y="241" clip-path="url(#clipPath11)" font-family="'Helvetica'" stroke="none" xml:space="preserve"> + getExecutionLocus(): Locus [1]</text>
<text x="399" font-size="9" y="252" clip-path="url(#clipPath12)" font-family="'Helvetica'" stroke="none" xml:space="preserve"> + getExecutionContext(): Object [1]</text>
<text x="399" font-size="9" y="263" clip-path="url(#clipPath13)" font-family="'Helvetica'" stroke="none" xml:space="preserve"> + activateTransitions()</text>
<text x="399" font-size="9" y="274" clip-path="url(#clipPath14)" font-family="'Helvetica'" stroke="none" xml:space="preserve"> # getExecutionFor(  in behavior: Behavior [1]): Execution [1]</text>
<line clip-path="url(#clipPath15)" fill="none" x1="394" x2="656" y1="155" y2="155"/>
<rect x="394" y="117" clip-path="url(#clipPath1)" fill="none" width="261" rx="0" ry="0" height="173"/>
<rect x="436" y="10" clip-path="url(#clipPath16)" fill="silver" width="177" rx="0" ry="0" height="51" stroke="none"/>
</g>
<g stroke-linecap="butt" font-size="9" font-family="'Helvetica'" font-style="italic" font-weight="bold" stroke-width="1.1">
<text xml:space="preserve" x="449" y="31" clip-path="url(#clipPath17)" stroke="none">(fUML_Semantics::Semantics::Loci)</text>
<text xml:space="preserve" x="490" y="43" clip-path="url(#clipPath18)" stroke="none">SemanticVisitor</text>
</g>
<g font-size="11" stroke-width="1.1" stroke-linecap="butt">
<rect x="436" y="10" clip-path="url(#clipPath16)" fill="none" width="176" rx="0" ry="0" height="50"/>
<rect x="125" y="178" clip-path="url(#clipPath19)" fill="silver" width="124" rx="0" ry="0" height="51" stroke="none"/>
</g>
<g stroke-linecap="butt" font-size="9" font-family="'Helvetica'" font-style="italic" font-weight="bold" stroke-width="1.1">
<text xml:space="preserve" x="134" y="199" clip-path="url(#clipPath20)" stroke="none">(UML::CommonStructure)</text>
<text xml:space="preserve" x="155" y="211" clip-path="url(#clipPath21)" stroke="none">NamedElement</text>
</g>
<g font-size="11" stroke-width="1.1" stroke-linecap="butt">
<rect x="125" y="178" clip-path="url(#clipPath19)" fill="none" width="123" rx="0" ry="0" height="50"/>
<rect x="386" y="376" clip-path="url(#clipPath22)" fill="white" width="285" rx="0" ry="0" height="137" stroke="none"/>
<text x="492" font-size="9" y="386" clip-path="url(#clipPath23)" font-family="'Helvetica'" stroke="none" font-weight="bold" xml:space="preserve">RegionActivation</text>
<text x="391" font-size="9" y="400" clip-path="url(#clipPath24)" font-family="'Helvetica'" stroke="none" xml:space="preserve"> + isCompleted: Boolean [1]</text>
<line clip-path="url(#clipPath25)" fill="none" x1="386" x2="671" y1="391" y2="391"/>
<text x="391" font-size="9" y="424" clip-path="url(#clipPath26)" font-family="'Helvetica'" stroke="none" xml:space="preserve"> + exit(  in transitionActivation: TransitionActivation [1])</text>
<text x="391" font-size="9" y="435" clip-path="url(#clipPath27)" font-family="'Helvetica'" stroke="none" xml:space="preserve"> + activate()</text>
<text x="391" font-size="9" y="446" clip-path="url(#clipPath28)" font-family="'Helvetica'" stroke="none" xml:space="preserve"> + activateTransitions()</text>
<text x="391" font-size="9" y="457" clip-path="url(#clipPath29)" font-family="'Helvetica'" stroke="none" xml:space="preserve"> + getVertexActivations(): VertexActivation [*]</text>
<text x="391" font-size="9" y="468" clip-path="url(#clipPath30)" font-family="'Helvetica'" stroke="none" xml:space="preserve"> # getVertexActivation(  in vertex: Vertex [1]): VertexActivation [1]</text>
<text x="391" font-size="9" y="479" clip-path="url(#clipPath31)" font-family="'Helvetica'" stroke="none" xml:space="preserve"> + getTransitionActivations(): TransitionActivation [*]</text>
<text x="391" font-size="9" y="490" clip-path="url(#clipPath32)" font-family="'Helvetica'" stroke="none" xml:space="preserve"> + enter(  in enteringTransition: TransitionActivation [1])</text>
<text x="391" font-size="9" y="501" clip-path="url(#clipPath33)" font-family="'Helvetica'" stroke="none" xml:space="preserve"> + terminate()</text>
<line clip-path="url(#clipPath34)" fill="none" x1="386" x2="671" y1="415" y2="415"/>
<rect x="386" y="376" clip-path="url(#clipPath22)" fill="none" width="284" rx="0" ry="0" height="136"/>
<rect x="10" y="559" clip-path="url(#clipPath35)" fill="white" width="452" rx="0" ry="0" height="250" stroke="none"/>
</g>
<g stroke-linecap="butt" font-size="9" font-family="'Helvetica'" font-style="italic" font-weight="bold" stroke-width="1.1">
<text xml:space="preserve" x="199" y="569" clip-path="url(#clipPath36)" stroke="none">VertexActivation</text>
<text x="15" y="583" clip-path="url(#clipPath37)" font-style="normal" stroke="none" font-weight="normal" xml:space="preserve"> # status: StateMetadata [1]</text>
</g>
<g font-size="11" stroke-width="1.1" stroke-linecap="butt">
<line clip-path="url(#clipPath38)" fill="none" x1="10" x2="462" y1="574" y2="574"/>
<text x="15" font-size="9" y="607" clip-path="url(#clipPath39)" font-family="'Helvetica'" stroke="none" xml:space="preserve"> + getParentState(): VertexActivation [1]</text>
<text x="15" font-size="9" y="618" clip-path="url(#clipPath40)" font-family="'Helvetica'" stroke="none" xml:space="preserve"> + setStatus(  in status: StateMetadata [1])</text>
<text x="15" font-size="9" y="629" clip-path="url(#clipPath41)" font-family="'Helvetica'" stroke="none" xml:space="preserve"> + getStatus(): StateMetadata [1]</text>
<text x="15" font-size="9" y="640" clip-path="url(#clipPath42)" font-family="'Helvetica'" stroke="none" xml:space="preserve"> + addIncomingTransition(  in null: TransitionActivation [1])</text>
<text x="15" font-size="9" y="651" clip-path="url(#clipPath43)" font-family="'Helvetica'" stroke="none" xml:space="preserve"> + addOutgoingTransition(  in null: TransitionActivation [1])</text>
<text x="15" font-size="9" y="662" clip-path="url(#clipPath44)" font-family="'Helvetica'" stroke="none" xml:space="preserve"> # getVertexActivation(  in null: &lt;Undefined&gt; [1]): VertexActivation [1]</text>
<text x="15" font-size="9" y="673" clip-path="url(#clipPath45)" font-family="'Helvetica'" stroke="none" xml:space="preserve"> + tagOutgoingTransition(  in null: TransitionMetadata [1])</text>
<text x="15" font-size="9" y="684" clip-path="url(#clipPath46)" font-family="'Helvetica'" stroke="none" xml:space="preserve"> + tagIncomingTransition(  in null: TransitionMetadata [1])</text>
<text x="15" font-size="9" y="695" clip-path="url(#clipPath47)" font-family="'Helvetica'" stroke="none" xml:space="preserve"> + isActive(): Boolean [1]</text>
<text x="15" font-size="9" y="706" clip-path="url(#clipPath48)" font-family="'Helvetica'" stroke="none" xml:space="preserve"> + getAscendingHierachy(): VertexActivation [*]</text>
<text x="15" font-size="9" y="717" clip-path="url(#clipPath49)" font-family="'Helvetica'" stroke="none" xml:space="preserve"> + enter(  in enteringTransition: TransitionActivation [1],   in leastCommonAncestor: RegionActivation [0..1])</text>
<text x="15" font-size="9" y="728" clip-path="url(#clipPath50)" font-family="'Helvetica'" stroke="none" xml:space="preserve"> + exit(  in exitingTransition: TransitionActivation [1],   in leastCommonAncestor: RegionActivation [0..1])</text>
<text x="15" font-size="9" y="739" clip-path="url(#clipPath51)" font-family="'Helvetica'" stroke="none" xml:space="preserve"> + getLeastCommonAncestor(  in null: VertexActivation [1]): RegionActivation [1]</text>
<text x="15" font-size="9" y="750" clip-path="url(#clipPath52)" font-family="'Helvetica'" stroke="none" xml:space="preserve"> + getIncomingTransitions(): TransitionActivation [*]</text>
<text x="15" font-size="9" y="761" clip-path="url(#clipPath53)" font-family="'Helvetica'" stroke="none" xml:space="preserve"> + getOutgoingTransitions(): TransitionActivation [*]</text>
<text x="15" font-size="9" y="772" clip-path="url(#clipPath54)" font-family="'Helvetica'" stroke="none" xml:space="preserve"> + isEnterable(  in enteringTransition: TransitionActivation [1]): Boolean [1]</text>
<text x="15" font-size="9" y="783" clip-path="url(#clipPath55)" font-family="'Helvetica'" stroke="none" xml:space="preserve"> + isExitable(  in exitingTransition: TransitionActivation [1]): Boolean [1]</text>
<text x="15" font-size="9" y="794" clip-path="url(#clipPath56)" font-family="'Helvetica'" stroke="none" xml:space="preserve"> + terminate()</text>
<line clip-path="url(#clipPath57)" fill="none" x1="10" x2="462" y1="598" y2="598"/>
<rect x="10" y="559" clip-path="url(#clipPath35)" fill="none" width="451" rx="0" ry="0" height="249"/>
<rect x="680" y="559" clip-path="url(#clipPath58)" fill="white" width="280" rx="0" ry="0" height="250" stroke="none"/>
</g>
<g stroke-linecap="butt" font-size="9" font-family="'Helvetica'" font-style="italic" font-weight="bold" stroke-width="1.1">
<text xml:space="preserve" x="776" y="569" clip-path="url(#clipPath59)" stroke="none">TransitionActivation</text>
<text x="685" y="583" clip-path="url(#clipPath60)" font-style="normal" stroke="none" font-weight="normal" xml:space="preserve"> # status: TransitionMetadata [1]</text>
</g>
<g font-size="11" stroke-width="1.1" stroke-linecap="butt">
<line clip-path="url(#clipPath61)" fill="none" x1="680" x2="960" y1="574" y2="574"/>
<text x="685" font-size="9" y="609" clip-path="url(#clipPath62)" font-family="'Helvetica'" stroke="none" xml:space="preserve"> + executeEffect()</text>
<text x="685" font-size="9" y="620" clip-path="url(#clipPath63)" font-family="'Helvetica'" stroke="none" xml:space="preserve"> + fire()</text>
<text x="685" font-size="9" y="631" clip-path="url(#clipPath64)" font-family="'Helvetica'" stroke="none" xml:space="preserve"> + setStatus(  in status: TransitionMetadata [1])</text>
<text x="685" font-size="9" y="642" clip-path="url(#clipPath65)" font-family="'Helvetica'" stroke="none" xml:space="preserve"> + getStatus(): TransitionMetadata [1]</text>
<text x="685" font-size="9" y="653" clip-path="url(#clipPath66)" font-family="'Helvetica'" stroke="none" xml:space="preserve"> + isReached(): Boolean [1]</text>
<text x="685" font-size="9" y="664" clip-path="url(#clipPath67)" font-family="'Helvetica'" stroke="none" xml:space="preserve"> + isTraversed(): Boolean [1]</text>
<text x="685" font-size="9" y="675" clip-path="url(#clipPath68)" font-family="'Helvetica'" stroke="none" xml:space="preserve"> + evaluateGuard(): Boolean [1]</text>
<text x="685" font-size="9" y="686" clip-path="url(#clipPath69)" font-family="'Helvetica'" stroke="none" xml:space="preserve"> + hasTrigger(  in signalInstance: SignalInstance [1]): Boolean [1]</text>
<text x="685" font-size="9" y="697" clip-path="url(#clipPath70)" font-family="'Helvetica'" stroke="none" xml:space="preserve"> + isTriggered(): Boolean [1]</text>
<text x="685" font-size="9" y="708" clip-path="url(#clipPath71)" font-family="'Helvetica'" stroke="none" xml:space="preserve"> + isGuarded(): Boolean [1]</text>
<text x="685" font-size="9" y="719" clip-path="url(#clipPath72)" font-family="'Helvetica'" stroke="none" xml:space="preserve"> + getSourceActivation(): VertexActivation [1]</text>
<text x="685" font-size="9" y="730" clip-path="url(#clipPath73)" font-family="'Helvetica'" stroke="none" xml:space="preserve"> + setSourceActivation(  in null: VertexActivation [1])</text>
<text x="685" font-size="9" y="741" clip-path="url(#clipPath74)" font-family="'Helvetica'" stroke="none" xml:space="preserve"> + getTargetActivation(): VertexActivation [1]</text>
<text x="685" font-size="9" y="752" clip-path="url(#clipPath75)" font-family="'Helvetica'" stroke="none" xml:space="preserve"> + setTargetActivation(  in null: VertexActivation [1])</text>
<text x="685" font-size="9" y="763" clip-path="url(#clipPath76)" font-family="'Helvetica'" font-style="italic" stroke="none" xml:space="preserve"> # enterTarget()</text>
<text x="685" font-size="9" y="774" clip-path="url(#clipPath77)" font-family="'Helvetica'" font-style="italic" stroke="none" xml:space="preserve"> # exitSource()</text>
<text x="685" font-size="9" y="785" clip-path="url(#clipPath78)" font-family="'Helvetica'" stroke="none" xml:space="preserve"> # getLeastCommonAncestor(): RegionActivation [1]</text>
<line clip-path="url(#clipPath79)" fill="none" x1="680" x2="960" y1="600" y2="600"/>
<rect x="680" y="559" clip-path="url(#clipPath58)" fill="none" width="279" rx="0" ry="0" height="249"/>
<rect x="186" y="826" clip-path="url(#clipPath80)" fill="white" width="100" rx="0" ry="0" height="61" stroke="none"/>
<text x="204" font-size="9" y="836" clip-path="url(#clipPath81)" font-family="'Helvetica'" stroke="none" font-weight="bold" xml:space="preserve">«Enumeration»</text>
<text x="206" font-size="9" y="848" clip-path="url(#clipPath82)" font-family="'Helvetica'" stroke="none" font-weight="bold" xml:space="preserve">StateMetadata</text>
<text x="191" font-size="9" y="862" clip-path="url(#clipPath83)" font-family="'Helvetica'" stroke="none" xml:space="preserve">idle</text>
<text x="191" font-size="9" y="873" clip-path="url(#clipPath84)" font-family="'Helvetica'" stroke="none" xml:space="preserve">active</text>
<line clip-path="url(#clipPath85)" fill="none" x1="186" x2="286" y1="853" y2="853"/>
<rect x="186" y="826" clip-path="url(#clipPath80)" fill="none" width="99" rx="0" ry="0" height="60"/>
<rect x="770" y="826" clip-path="url(#clipPath86)" fill="white" width="100" rx="0" ry="0" height="79" stroke="none"/>
<text x="788" font-size="9" y="836" clip-path="url(#clipPath87)" font-family="'Helvetica'" stroke="none" font-weight="bold" xml:space="preserve">«Enumeration»</text>
<text x="779" font-size="9" y="848" clip-path="url(#clipPath88)" font-family="'Helvetica'" stroke="none" font-weight="bold" xml:space="preserve">TransitionMetadata</text>
<text x="775" font-size="9" y="862" clip-path="url(#clipPath89)" font-family="'Helvetica'" stroke="none" xml:space="preserve">none</text>
<text x="775" font-size="9" y="873" clip-path="url(#clipPath90)" font-family="'Helvetica'" stroke="none" xml:space="preserve">reached</text>
<text x="775" font-size="9" y="884" clip-path="url(#clipPath91)" font-family="'Helvetica'" stroke="none" xml:space="preserve">traversed</text>
<text x="775" font-size="9" y="895" clip-path="url(#clipPath92)" font-family="'Helvetica'" stroke="none" xml:space="preserve">completed</text>
<line clip-path="url(#clipPath93)" fill="none" x1="770" x2="870" y1="853" y2="853"/>
<rect x="770" y="826" clip-path="url(#clipPath86)" fill="none" width="99" rx="0" ry="0" height="78"/>
<line clip-path="url(#clipPath94)" fill="none" text-rendering="optimizeLegibility" x1="656" x2="741" y1="247" y2="247"/>
<line clip-path="url(#clipPath94)" fill="none" text-rendering="optimizeLegibility" x1="741" x2="741" y1="247" y2="162"/>
<line clip-path="url(#clipPath94)" fill="none" text-rendering="optimizeLegibility" x1="741" x2="656" y1="162" y2="162"/>
<text x="659" font-size="9" y="243" clip-path="url(#clipPath95)" text-rendering="optimizeLegibility" stroke="none" xml:space="preserve"> + visitor</text>
<text x="677" font-size="9" y="159" clip-path="url(#clipPath96)" text-rendering="optimizeLegibility" stroke="none" xml:space="preserve"> + parent</text>
<text x="662" font-size="9" y="261" clip-path="url(#clipPath97)" text-rendering="optimizeLegibility" stroke="none" xml:space="preserve"> *</text>
<text x="680" font-size="9" y="174" clip-path="url(#clipPath98)" text-rendering="optimizeLegibility" stroke="none" xml:space="preserve"> 0..1</text>
<polygon text-rendering="optimizeLegibility" clip-path="url(#clipPath99)" points=" 656 161 658 159 660 159 662 161 662 162 674 156 662 162 674 168 662 162 662 163 660 165 658 165 656 163" stroke="none"/>
<polygon fill="none" text-rendering="optimizeLegibility" clip-path="url(#clipPath99)" points=" 656 161 658 159 660 159 662 161 662 162 674 156 662 162 674 168 662 162 662 163 660 165 658 165 656 163"/>
<line clip-path="url(#clipPath94)" fill="none" text-rendering="optimizeLegibility" x1="524" x2="524" y1="117" y2="61"/>
</g>
<g stroke-linecap="butt" font-size="9" fill="white" text-rendering="optimizeLegibility" stroke="white" stroke-width="1.1">
<polygon clip-path="url(#clipPath100)" points=" 524 61 532 71 516 71" stroke="none"/>
<polygon fill="none" clip-path="url(#clipPath100)" points=" 524 61 532 71 516 71" stroke="black"/>
<line clip-path="url(#clipPath94)" fill="none" x1="249" x2="394" y1="202" y2="202" stroke="black"/>
<text x="271" y="196" clip-path="url(#clipPath101)" fill="black" stroke="none" xml:space="preserve"> + node</text>
<text x="349" y="196" clip-path="url(#clipPath102)" fill="black" stroke="none" xml:space="preserve"> + visitor</text>
<text x="272" y="216" clip-path="url(#clipPath103)" fill="black" stroke="none" xml:space="preserve"> 1</text>
<text x="381" y="215" clip-path="url(#clipPath104)" fill="black" stroke="none" xml:space="preserve"> *</text>
<polygon fill="black" clip-path="url(#clipPath105)" points=" 249 201 251 199 253 199 255 201 255 202 267 196 255 202 267 208 255 202 255 203 253 205 251 205 249 203" stroke="none"/>
<polygon fill="none" clip-path="url(#clipPath105)" points=" 249 201 251 199 253 199 255 201 255 202 267 196 255 202 267 208 255 202 255 203 253 205 251 205 249 203" stroke="black"/>
<line clip-path="url(#clipPath94)" fill="none" x1="525" x2="525" y1="376" y2="323" stroke="black"/>
<line clip-path="url(#clipPath94)" fill="none" x1="525" x2="525" y1="323" y2="323" stroke="black"/>
<line clip-path="url(#clipPath94)" fill="none" x1="525" x2="525" y1="323" y2="291" stroke="black"/>
<polygon clip-path="url(#clipPath106)" points=" 525 291 533 301 517 301" stroke="none"/>
<polygon fill="none" clip-path="url(#clipPath106)" points=" 525 291 533 301 517 301" stroke="black"/>
<line clip-path="url(#clipPath94)" fill="none" x1="70" x2="70" y1="559" y2="323" stroke="black"/>
<line clip-path="url(#clipPath94)" fill="none" x1="70" x2="525" y1="323" y2="323" stroke="black"/>
<line clip-path="url(#clipPath94)" fill="none" x1="525" x2="525" y1="323" y2="291" stroke="black"/>
<polygon clip-path="url(#clipPath106)" points=" 525 291 533 301 517 301" stroke="none"/>
<polygon fill="none" clip-path="url(#clipPath106)" points=" 525 291 533 301 517 301" stroke="black"/>
<line clip-path="url(#clipPath94)" fill="none" x1="896" x2="896" y1="559" y2="323" stroke="black"/>
<line clip-path="url(#clipPath94)" fill="none" x1="896" x2="525" y1="323" y2="323" stroke="black"/>
<line clip-path="url(#clipPath94)" fill="none" x1="525" x2="525" y1="323" y2="291" stroke="black"/>
<polygon clip-path="url(#clipPath106)" points=" 525 291 533 301 517 301" stroke="none"/>
<polygon fill="none" clip-path="url(#clipPath106)" points=" 525 291 533 301 517 301" stroke="black"/>
<line clip-path="url(#clipPath94)" fill="none" x1="386" x2="235" y1="453" y2="453" stroke="black"/>
<line clip-path="url(#clipPath94)" fill="none" x1="235" x2="235" y1="453" y2="559" stroke="black"/>
<text x="276" y="447" clip-path="url(#clipPath107)" fill="black" stroke="none" xml:space="preserve"> + regionActivation</text>
<text x="146" y="529" clip-path="url(#clipPath108)" fill="black" stroke="none" xml:space="preserve"> # vertexActivations</text>
<text x="352" y="465" clip-path="url(#clipPath109)" fill="black" stroke="none" xml:space="preserve"> 1</text>
<text x="239" y="532" clip-path="url(#clipPath110)" fill="black" stroke="none" xml:space="preserve"> *</text>
<polygon fill="black" clip-path="url(#clipPath111)" points=" 386 453 378 457 370 453 378 449" stroke="none"/>
<polygon fill="none" clip-path="url(#clipPath111)" points=" 386 453 378 457 370 453 378 449" stroke="black"/>
<polygon fill="black" clip-path="url(#clipPath112)" points=" 234 559 232 557 232 555 234 553 235 553 229 541 235 553 241 541 235 553 236 553 238 555 238 557 236 559" stroke="none"/>
<polygon fill="none" clip-path="url(#clipPath112)" points=" 234 559 232 557 232 555 234 553 235 553 229 541 235 553 241 541 235 553 236 553 238 555 238 557 236 559" stroke="black"/>
<line clip-path="url(#clipPath94)" fill="none" x1="671" x2="822" y1="454" y2="454" stroke="black"/>
<line clip-path="url(#clipPath94)" fill="none" x1="822" x2="822" y1="454" y2="559" stroke="black"/>
<text x="691" y="447" clip-path="url(#clipPath113)" fill="black" stroke="none" xml:space="preserve"> + regionActivation</text>
<text x="717" y="539" clip-path="url(#clipPath114)" fill="black" stroke="none" xml:space="preserve"> # transitionActivations</text>
<text x="691" y="468" clip-path="url(#clipPath115)" fill="black" stroke="none" xml:space="preserve"> 1</text>
<text x="825" y="542" clip-path="url(#clipPath116)" fill="black" stroke="none" xml:space="preserve"> *</text>
<polygon fill="black" clip-path="url(#clipPath117)" points=" 671 454 679 450 687 454 679 458" stroke="none"/>
<polygon fill="none" clip-path="url(#clipPath117)" points=" 671 454 679 450 687 454 679 458" stroke="black"/>
<polygon fill="black" clip-path="url(#clipPath118)" points=" 821 559 819 557 819 555 821 553 822 553 816 541 822 553 828 541 822 553 823 553 825 555 825 557 823 559" stroke="none"/>
<polygon fill="none" clip-path="url(#clipPath118)" points=" 821 559 819 557 819 555 821 553 822 553 816 541 822 553 828 541 822 553 823 553 825 555 825 557 823 559" stroke="black"/>
<line clip-path="url(#clipPath94)" fill="none" x1="462" x2="680" y1="662" y2="662" stroke="black"/>
<text x="481" y="658" clip-path="url(#clipPath119)" fill="black" stroke="none" xml:space="preserve"> + vertexSourceActivation</text>
<text x="523" y="676" clip-path="url(#clipPath120)" fill="black" stroke="none" xml:space="preserve"> + outgoingTransitionActivations</text>
<text x="482" y="676" clip-path="url(#clipPath121)" fill="black" stroke="none" xml:space="preserve"> 1</text>
<text x="654" y="659" clip-path="url(#clipPath122)" fill="black" stroke="none" xml:space="preserve"> *</text>
<polygon fill="black" clip-path="url(#clipPath123)" points=" 462 661 464 659 466 659 468 661 468 662 480 656 468 662 480 668 468 662 468 663 466 665 464 665 462 663" stroke="none"/>
<polygon fill="none" clip-path="url(#clipPath123)" points=" 462 661 464 659 466 659 468 661 468 662 480 656 468 662 480 668 468 662 468 663 466 665 464 665 462 663" stroke="black"/>
<polygon fill="black" clip-path="url(#clipPath124)" points=" 680 663 678 665 676 665 674 663 674 662 662 668 674 662 662 656 674 662 674 661 676 659 678 659 680 661" stroke="none"/>
<polygon fill="none" clip-path="url(#clipPath124)" points=" 680 663 678 665 676 665 674 663 674 662 662 668 674 662 662 656 674 662 674 661 676 659 678 659 680 661" stroke="black"/>
<line clip-path="url(#clipPath94)" fill="none" x1="680" x2="462" y1="749" y2="749" stroke="black"/>
<text x="518" y="760" clip-path="url(#clipPath125)" fill="black" stroke="none" xml:space="preserve"> + incomingTransitionActivations</text>
<text x="483" y="746" clip-path="url(#clipPath126)" fill="black" stroke="none" xml:space="preserve"> + vertexTargetActivation</text>
<text x="654" y="747" clip-path="url(#clipPath127)" fill="black" stroke="none" xml:space="preserve"> *</text>
<text x="480" y="762" clip-path="url(#clipPath128)" fill="black" stroke="none" xml:space="preserve"> 1</text>
<polygon fill="black" clip-path="url(#clipPath129)" points=" 680 750 678 752 676 752 674 750 674 749 662 755 674 749 662 743 674 749 674 748 676 746 678 746 680 748" stroke="none"/>
<polygon fill="none" clip-path="url(#clipPath129)" points=" 680 750 678 752 676 752 674 750 674 749 662 755 674 749 662 743 674 749 674 748 676 746 678 746 680 748" stroke="black"/>
<polygon fill="black" clip-path="url(#clipPath130)" points=" 462 748 464 746 466 746 468 748 468 749 480 743 468 749 480 755 468 749 468 750 466 752 464 752 462 750" stroke="none"/>
<polygon fill="none" clip-path="url(#clipPath130)" points=" 462 748 464 746 466 746 468 748 468 749 480 743 468 749 480 755 468 749 468 750 466 752 464 752 462 750" stroke="black"/>
</g>
</g>
</svg>
