<?xml version="1.0" encoding="UTF-8"?><svg xmlns="http://www.w3.org/2000/svg" xmlns:xlink="http://www.w3.org/1999/xlink" stroke-dasharray="none" shape-rendering="auto" font-family="'Dialog'" width="741" text-rendering="auto" fill-opacity="1" contentScriptType="text/ecmascript" color-interpolation="auto" color-rendering="auto" preserveAspectRatio="xMidYMid meet" font-size="12" viewBox="0 0 741 550" fill="black" stroke="black" image-rendering="auto" stroke-miterlimit="10" zoomAndPan="magnify" version="1.0" stroke-linecap="square" stroke-linejoin="miter" contentStyleType="text/css" font-style="normal" height="550" stroke-width="1" stroke-dashoffset="0" font-weight="normal" stroke-opacity="1">
<!--Generated by the Batik Graphics2D SVG Generator-->
<defs id="genericDefs"/>
<g>
<defs id="defs1">
<clipPath clipPathUnits="userSpaceOnUse" id="clipPath1">
<path d="M9 191 L111 191 L111 245 L9 245 L9 191 Z"/>
</clipPath>
<clipPath clipPathUnits="userSpaceOnUse" id="clipPath2">
<path d="M27 211 L94 211 L94 224 L27 224 L27 211 Z"/>
</clipPath>
<clipPath clipPathUnits="userSpaceOnUse" id="clipPath3">
<path d="M295 136 L732 136 L732 281 L295 281 L295 136 Z"/>
</clipPath>
<clipPath clipPathUnits="userSpaceOnUse" id="clipPath4">
<path d="M460 139 L566 139 L566 152 L460 152 L460 139 Z"/>
</clipPath>
<clipPath clipPathUnits="userSpaceOnUse" id="clipPath5">
<path d="M295 151 L732 151 L732 173 L295 173 L295 151 Z"/>
</clipPath>
<clipPath clipPathUnits="userSpaceOnUse" id="clipPath6">
<path d="M300 174 L596 174 L596 187 L300 187 L300 174 Z"/>
</clipPath>
<clipPath clipPathUnits="userSpaceOnUse" id="clipPath7">
<path d="M300 185 L727 185 L727 198 L300 198 L300 185 Z"/>
</clipPath>
<clipPath clipPathUnits="userSpaceOnUse" id="clipPath8">
<path d="M300 196 L529 196 L529 209 L300 209 L300 196 Z"/>
</clipPath>
<clipPath clipPathUnits="userSpaceOnUse" id="clipPath9">
<path d="M300 207 L496 207 L496 220 L300 220 L300 207 Z"/>
</clipPath>
<clipPath clipPathUnits="userSpaceOnUse" id="clipPath10">
<path d="M300 218 L493 218 L493 231 L300 231 L300 218 Z"/>
</clipPath>
<clipPath clipPathUnits="userSpaceOnUse" id="clipPath11">
<path d="M300 229 L483 229 L483 242 L300 242 L300 229 Z"/>
</clipPath>
<clipPath clipPathUnits="userSpaceOnUse" id="clipPath12">
<path d="M300 240 L350 240 L350 253 L300 253 L300 240 Z"/>
</clipPath>
<clipPath clipPathUnits="userSpaceOnUse" id="clipPath13">
<path d="M300 251 L601 251 L601 264 L300 264 L300 251 Z"/>
</clipPath>
<clipPath clipPathUnits="userSpaceOnUse" id="clipPath14">
<path d="M300 262 L446 262 L446 275 L300 275 L300 262 Z"/>
</clipPath>
<clipPath clipPathUnits="userSpaceOnUse" id="clipPath15">
<path d="M295 172 L732 172 L732 280 L295 280 L295 172 Z"/>
</clipPath>
<clipPath clipPathUnits="userSpaceOnUse" id="clipPath16">
<path d="M404 489 L623 489 L623 541 L404 541 L404 489 Z"/>
</clipPath>
<clipPath clipPathUnits="userSpaceOnUse" id="clipPath17">
<path d="M405 503 L623 503 L623 516 L405 516 L405 503 Z"/>
</clipPath>
<clipPath clipPathUnits="userSpaceOnUse" id="clipPath18">
<path d="M481 515 L547 515 L547 528 L481 528 L481 515 Z"/>
</clipPath>
<clipPath clipPathUnits="userSpaceOnUse" id="clipPath19">
<path d="M370 349 L656 349 L656 415 L370 415 L370 349 Z"/>
</clipPath>
<clipPath clipPathUnits="userSpaceOnUse" id="clipPath20">
<path d="M438 352 L588 352 L588 365 L438 365 L438 352 Z"/>
</clipPath>
<clipPath clipPathUnits="userSpaceOnUse" id="clipPath21">
<path d="M370 364 L656 364 L656 384 L370 384 L370 364 Z"/>
</clipPath>
<clipPath clipPathUnits="userSpaceOnUse" id="clipPath22">
<path d="M375 385 L651 385 L651 398 L375 398 L375 385 Z"/>
</clipPath>
<clipPath clipPathUnits="userSpaceOnUse" id="clipPath23">
<path d="M375 396 L601 396 L601 409 L375 409 L375 396 Z"/>
</clipPath>
<clipPath clipPathUnits="userSpaceOnUse" id="clipPath24">
<path d="M370 383 L656 383 L656 414 L370 414 L370 383 Z"/>
</clipPath>
<clipPath clipPathUnits="userSpaceOnUse" id="clipPath25">
<path d="M386 9 L641 9 L641 63 L386 63 L386 9 Z"/>
</clipPath>
<clipPath clipPathUnits="userSpaceOnUse" id="clipPath26">
<path d="M387 24 L641 24 L641 37 L387 37 L387 24 Z"/>
</clipPath>
<clipPath clipPathUnits="userSpaceOnUse" id="clipPath27">
<path d="M499 36 L529 36 L529 49 L499 49 L499 36 Z"/>
</clipPath>
<clipPath clipPathUnits="userSpaceOnUse" id="clipPath28">
<path d="M-1 -1 L742 -1 L742 551 L-1 551 L-1 -1 Z"/>
</clipPath>
<clipPath clipPathUnits="userSpaceOnUse" id="clipPath29">
<path d="M345 459 L450 459 L450 472 L345 472 L345 459 Z"/>
</clipPath>
<clipPath clipPathUnits="userSpaceOnUse" id="clipPath30">
<path d="M342 430 L449 430 L449 443 L342 443 L342 430 Z"/>
</clipPath>
<clipPath clipPathUnits="userSpaceOnUse" id="clipPath31">
<path d="M458 457 L468 457 L468 470 L458 470 L458 457 Z"/>
</clipPath>
<clipPath clipPathUnits="userSpaceOnUse" id="clipPath32">
<path d="M459 430 L480 430 L480 443 L459 443 L459 430 Z"/>
</clipPath>
<clipPath clipPathUnits="userSpaceOnUse" id="clipPath33">
<path d="M448 471 L463 471 L463 492 L448 492 L448 471 Z"/>
</clipPath>
<clipPath clipPathUnits="userSpaceOnUse" id="clipPath34">
<path d="M450 413 L461 413 L461 432 L450 432 L450 413 Z"/>
</clipPath>
<clipPath clipPathUnits="userSpaceOnUse" id="clipPath35">
<path d="M385 82 L429 82 L429 95 L385 95 L385 82 Z"/>
</clipPath>
<clipPath clipPathUnits="userSpaceOnUse" id="clipPath36">
<path d="M316 118 L429 118 L429 131 L316 131 L316 118 Z"/>
</clipPath>
<clipPath clipPathUnits="userSpaceOnUse" id="clipPath37">
<path d="M438 83 L448 83 L448 96 L438 96 L438 83 Z"/>
</clipPath>
<clipPath clipPathUnits="userSpaceOnUse" id="clipPath38">
<path d="M438 118 L447 118 L447 131 L438 131 L438 118 Z"/>
</clipPath>
<clipPath clipPathUnits="userSpaceOnUse" id="clipPath39">
<path d="M427 61 L442 61 L442 82 L427 82 L427 61 Z"/>
</clipPath>
<clipPath clipPathUnits="userSpaceOnUse" id="clipPath40">
<path d="M511 301 L555 301 L555 314 L511 314 L511 301 Z"/>
</clipPath>
<clipPath clipPathUnits="userSpaceOnUse" id="clipPath41">
<path d="M517 334 L632 334 L632 347 L517 347 L517 334 Z"/>
</clipPath>
<clipPath clipPathUnits="userSpaceOnUse" id="clipPath42">
<path d="M494 302 L504 302 L504 315 L494 315 L494 302 Z"/>
</clipPath>
<clipPath clipPathUnits="userSpaceOnUse" id="clipPath43">
<path d="M495 335 L505 335 L505 348 L495 348 L495 335 Z"/>
</clipPath>
<clipPath clipPathUnits="userSpaceOnUse" id="clipPath44">
<path d="M501 279 L516 279 L516 300 L501 300 L501 279 Z"/>
</clipPath>
<clipPath clipPathUnits="userSpaceOnUse" id="clipPath45">
<path d="M135 205 L172 205 L172 218 L135 218 L135 205 Z"/>
</clipPath>
<clipPath clipPathUnits="userSpaceOnUse" id="clipPath46">
<path d="M166 218 L279 218 L279 231 L166 231 L166 218 Z"/>
</clipPath>
<clipPath clipPathUnits="userSpaceOnUse" id="clipPath47">
<path d="M132 221 L142 221 L142 234 L132 234 L132 221 Z"/>
</clipPath>
<clipPath clipPathUnits="userSpaceOnUse" id="clipPath48">
<path d="M253 203 L274 203 L274 216 L253 216 L253 203 Z"/>
</clipPath>
<clipPath clipPathUnits="userSpaceOnUse" id="clipPath49">
<path d="M109 211 L130 211 L130 226 L109 226 L109 211 Z"/>
</clipPath>
<clipPath clipPathUnits="userSpaceOnUse" id="clipPath50">
<path d="M277 211 L298 211 L298 226 L277 226 L277 211 Z"/>
</clipPath>
<clipPath clipPathUnits="userSpaceOnUse" id="clipPath51">
<path d="M502 61 L521 61 L521 74 L502 74 L502 61 Z"/>
</clipPath>
<clipPath clipPathUnits="userSpaceOnUse" id="clipPath52">
<path d="M500 479 L519 479 L519 492 L500 492 L500 479 Z"/>
</clipPath>
</defs>
<g font-size="11" fill="white" stroke-linejoin="round" stroke="white" stroke-width="0" stroke-miterlimit="0">
<rect x="10" y="192" clip-path="url(#clipPath1)" width="100" rx="0" ry="0" height="52" stroke="none"/>
</g>
<g font-size="9" font-family="'Helvetica'" stroke-linejoin="round" font-weight="bold" stroke-width="0" stroke-miterlimit="0">
<text xml:space="preserve" x="28" y="219" clip-path="url(#clipPath2)" stroke="none">StateActivation</text>
</g>
<g font-size="11" stroke-width="1.1" stroke-linecap="butt">
<rect x="10" y="192" clip-path="url(#clipPath1)" fill="none" width="99" rx="0" ry="0" height="51"/>
<rect x="296" y="137" clip-path="url(#clipPath3)" fill="white" width="435" rx="0" ry="0" height="143" stroke="none"/>
<text x="461" font-size="9" y="147" clip-path="url(#clipPath4)" font-family="'Helvetica'" stroke="none" font-weight="bold" xml:space="preserve">DoActivityContextObject</text>
<line clip-path="url(#clipPath5)" fill="none" x1="296" x2="731" y1="152" y2="152"/>
<text x="301" font-size="9" y="182" clip-path="url(#clipPath6)" font-family="'Helvetica'" stroke="none" xml:space="preserve"> + getFeatureValue(  in feature: StructuralFeature [1]): FeatureValue [1]</text>
<text x="301" font-size="9" y="193" clip-path="url(#clipPath7)" font-family="'Helvetica'" stroke="none" xml:space="preserve"> + setFeatureValue(  in feature: StructuralFeature [1],   in values: Value [*],   in position: Integer [0..1])</text>
<text x="301" font-size="9" y="204" clip-path="url(#clipPath8)" font-family="'Helvetica'" stroke="none" xml:space="preserve"> + dispatch(  in operation: Operation [1]): Execution [1]</text>
<text x="301" font-size="9" y="215" clip-path="url(#clipPath9)" font-family="'Helvetica'" stroke="none" xml:space="preserve"> + send(  in signalInstance: SignalInstance [1])</text>
<text x="301" font-size="9" y="226" clip-path="url(#clipPath10)" font-family="'Helvetica'" stroke="none" xml:space="preserve"> + unregister(  in accepter: EventAccepter [1])</text>
<text x="301" font-size="9" y="237" clip-path="url(#clipPath11)" font-family="'Helvetica'" stroke="none" xml:space="preserve"> + register(  in accepter: EventAccepter [1])</text>
<text x="301" font-size="9" y="248" clip-path="url(#clipPath12)" font-family="'Helvetica'" stroke="none" xml:space="preserve"> + destroy()</text>
<text x="301" font-size="9" y="259" clip-path="url(#clipPath13)" font-family="'Helvetica'" stroke="none" xml:space="preserve"> # unregisterFromContext(  in encapsulatedAccepter: EventAccepter [1])</text>
<text x="301" font-size="9" y="270" clip-path="url(#clipPath14)" font-family="'Helvetica'" stroke="none" xml:space="preserve"> + initialize(  in context: Object [1])</text>
<line clip-path="url(#clipPath15)" fill="none" x1="296" x2="731" y1="173" y2="173"/>
<rect x="296" y="137" clip-path="url(#clipPath3)" fill="none" width="434" rx="0" ry="0" height="142"/>
<rect x="405" y="490" clip-path="url(#clipPath16)" fill="silver" width="217" rx="0" ry="0" height="50" stroke="none"/>
</g>
<g stroke-linecap="butt" font-size="9" font-family="'Helvetica'" font-style="italic" font-weight="bold" stroke-width="1.1">
<text xml:space="preserve" x="410" y="511" clip-path="url(#clipPath17)" stroke="none">(fUML_Semantics::Semantics::CommonBehavior)</text>
<text xml:space="preserve" x="482" y="523" clip-path="url(#clipPath18)" stroke="none">EventAccepter</text>
</g>
<g font-size="11" stroke-width="1.1" stroke-linecap="butt">
<rect x="405" y="490" clip-path="url(#clipPath16)" fill="none" width="216" rx="0" ry="0" height="49"/>
<rect x="371" y="350" clip-path="url(#clipPath19)" fill="white" width="284" rx="0" ry="0" height="64" stroke="none"/>
<text x="439" font-size="9" y="360" clip-path="url(#clipPath20)" font-family="'Helvetica'" stroke="none" font-weight="bold" xml:space="preserve">DoActivityExecutionEventAccepter</text>
<line clip-path="url(#clipPath21)" fill="none" x1="371" x2="655" y1="365" y2="365"/>
<text x="376" font-size="9" y="393" clip-path="url(#clipPath22)" font-family="'Helvetica'" stroke="none" xml:space="preserve"> + match(  in eventOccurrence: EventOccurrence [1]): Boolean [1]</text>
<text x="376" font-size="9" y="404" clip-path="url(#clipPath23)" font-family="'Helvetica'" stroke="none" xml:space="preserve"> + accept(  in eventOccurrence: EventOccurrence [1])</text>
<line clip-path="url(#clipPath24)" fill="none" x1="371" x2="655" y1="384" y2="384"/>
<rect x="371" y="350" clip-path="url(#clipPath19)" fill="none" width="283" rx="0" ry="0" height="63"/>
<rect x="387" y="10" clip-path="url(#clipPath25)" fill="silver" width="253" rx="0" ry="0" height="52" stroke="none"/>
<text x="402" font-size="9" y="32" clip-path="url(#clipPath26)" font-family="'Helvetica'" stroke="none" font-weight="bold" xml:space="preserve">(fUML_Semantics::Semantics::StructuredClassifiers)</text>
<text x="500" font-size="9" y="44" clip-path="url(#clipPath27)" font-family="'Helvetica'" stroke="none" font-weight="bold" xml:space="preserve">Object</text>
<rect x="387" y="10" clip-path="url(#clipPath25)" fill="none" width="252" rx="0" ry="0" height="51"/>
<line clip-path="url(#clipPath28)" fill="none" text-rendering="optimizeLegibility" x1="455" x2="455" y1="490" y2="414"/>
<text x="346" font-size="9" y="467" clip-path="url(#clipPath29)" text-rendering="optimizeLegibility" font-family="'Helvetica'" stroke="none" xml:space="preserve"> + encapsulatedAccepter</text>
<text x="343" font-size="9" y="438" clip-path="url(#clipPath30)" text-rendering="optimizeLegibility" font-family="'Helvetica'" stroke="none" xml:space="preserve"> + encapsulatingAccepter</text>
<text x="459" font-size="9" y="465" clip-path="url(#clipPath31)" text-rendering="optimizeLegibility" font-family="'Helvetica'" stroke="none" xml:space="preserve"> 1</text>
<text x="460" font-size="9" y="438" clip-path="url(#clipPath32)" text-rendering="optimizeLegibility" font-family="'Helvetica'" stroke="none" xml:space="preserve"> 0..1</text>
<polygon text-rendering="optimizeLegibility" clip-path="url(#clipPath33)" points=" 454 490 452 488 452 486 454 484 455 484 449 472 455 484 461 472 455 484 456 484 458 486 458 488 456 490" stroke="none"/>
<polygon fill="none" text-rendering="optimizeLegibility" clip-path="url(#clipPath33)" points=" 454 490 452 488 452 486 454 484 455 484 449 472 455 484 461 472 455 484 456 484 458 486 458 488 456 490"/>
<polygon text-rendering="optimizeLegibility" clip-path="url(#clipPath34)" points=" 455 414 459 422 455 430 451 422" stroke="none"/>
<polygon fill="none" text-rendering="optimizeLegibility" clip-path="url(#clipPath34)" points=" 455 414 459 422 455 430 451 422"/>
<line clip-path="url(#clipPath28)" fill="none" text-rendering="optimizeLegibility" x1="434" x2="434" y1="62" y2="137"/>
<text x="386" font-size="9" y="90" clip-path="url(#clipPath35)" text-rendering="optimizeLegibility" font-family="'Helvetica'" stroke="none" xml:space="preserve"> + context</text>
<text x="317" font-size="9" y="126" clip-path="url(#clipPath36)" text-rendering="optimizeLegibility" font-family="'Helvetica'" stroke="none" xml:space="preserve"> + doActivityContextObject</text>
<text x="439" font-size="9" y="91" clip-path="url(#clipPath37)" text-rendering="optimizeLegibility" font-family="'Helvetica'" stroke="none" xml:space="preserve"> 1</text>
<text x="439" font-size="9" y="126" clip-path="url(#clipPath38)" text-rendering="optimizeLegibility" font-family="'Helvetica'" stroke="none" xml:space="preserve"> *</text>
<polygon text-rendering="optimizeLegibility" clip-path="url(#clipPath39)" points=" 435 62 437 64 437 66 435 68 434 68 440 80 434 68 428 80 434 68 433 68 431 66 431 64 433 62" stroke="none"/>
<polygon fill="none" text-rendering="optimizeLegibility" clip-path="url(#clipPath39)" points=" 435 62 437 64 437 66 435 68 434 68 440 80 434 68 428 80 434 68 433 68 431 66 431 64 433 62"/>
<line clip-path="url(#clipPath28)" fill="none" text-rendering="optimizeLegibility" x1="508" x2="508" y1="280" y2="350"/>
<text x="512" font-size="9" y="309" clip-path="url(#clipPath40)" text-rendering="optimizeLegibility" font-family="'Helvetica'" stroke="none" xml:space="preserve"> + context</text>
<text x="518" font-size="9" y="342" clip-path="url(#clipPath41)" text-rendering="optimizeLegibility" font-family="'Helvetica'" stroke="none" xml:space="preserve"> + doActivityEventAccepter</text>
<text x="495" font-size="9" y="310" clip-path="url(#clipPath42)" text-rendering="optimizeLegibility" font-family="'Helvetica'" stroke="none" xml:space="preserve"> 1</text>
<text x="496" font-size="9" y="343" clip-path="url(#clipPath43)" text-rendering="optimizeLegibility" font-family="'Helvetica'" stroke="none" xml:space="preserve"> 1</text>
<polygon text-rendering="optimizeLegibility" clip-path="url(#clipPath44)" points=" 509 280 511 282 511 284 509 286 508 286 514 298 508 286 502 298 508 286 507 286 505 284 505 282 507 280" stroke="none"/>
<polygon fill="none" text-rendering="optimizeLegibility" clip-path="url(#clipPath44)" points=" 509 280 511 282 511 284 509 286 508 286 514 298 508 286 502 298 508 286 507 286 505 284 505 282 507 280"/>
<line clip-path="url(#clipPath28)" fill="none" text-rendering="optimizeLegibility" x1="110" x2="259" y1="218" y2="218"/>
<line clip-path="url(#clipPath28)" fill="none" text-rendering="optimizeLegibility" x1="259" x2="296" y1="218" y2="218"/>
<text x="136" font-size="9" y="213" clip-path="url(#clipPath45)" text-rendering="optimizeLegibility" font-family="'Helvetica'" stroke="none" xml:space="preserve"> + owner</text>
<text x="167" font-size="9" y="226" clip-path="url(#clipPath46)" text-rendering="optimizeLegibility" font-family="'Helvetica'" stroke="none" xml:space="preserve"> + doActivityContextObject</text>
<text x="133" font-size="9" y="229" clip-path="url(#clipPath47)" text-rendering="optimizeLegibility" font-family="'Helvetica'" stroke="none" xml:space="preserve"> 1</text>
<text x="254" font-size="9" y="211" clip-path="url(#clipPath48)" text-rendering="optimizeLegibility" font-family="'Helvetica'" stroke="none" xml:space="preserve"> 0..1</text>
<polygon text-rendering="optimizeLegibility" clip-path="url(#clipPath49)" points=" 110 217 112 215 114 215 116 217 116 218 128 212 116 218 128 224 116 218 116 219 114 221 112 221 110 219" stroke="none"/>
<polygon fill="none" text-rendering="optimizeLegibility" clip-path="url(#clipPath49)" points=" 110 217 112 215 114 215 116 217 116 218 128 212 116 218 128 224 116 218 116 219 114 221 112 221 110 219"/>
<polygon text-rendering="optimizeLegibility" clip-path="url(#clipPath50)" points=" 296 219 294 221 292 221 290 219 290 218 278 224 290 218 278 212 290 218 290 217 292 215 294 215 296 217" stroke="none"/>
<polygon fill="none" text-rendering="optimizeLegibility" clip-path="url(#clipPath50)" points=" 296 219 294 221 292 221 290 219 290 218 278 224 290 218 278 212 290 218 290 217 292 215 294 215 296 217"/>
<line clip-path="url(#clipPath28)" fill="none" text-rendering="optimizeLegibility" x1="511" x2="511" y1="137" y2="62"/>
</g>
<g stroke-linecap="butt" font-size="9" fill="white" text-rendering="optimizeLegibility" font-family="'Helvetica'" stroke="white" stroke-width="1.1">
<polygon clip-path="url(#clipPath51)" points=" 511 62 519 72 503 72" stroke="none"/>
<polygon fill="none" clip-path="url(#clipPath51)" points=" 511 62 519 72 503 72" stroke="black"/>
<line clip-path="url(#clipPath28)" fill="none" x1="509" x2="509" y1="414" y2="490" stroke="black"/>
<polygon clip-path="url(#clipPath52)" points=" 509 490 501 480 517 480" stroke="none"/>
<polygon fill="none" clip-path="url(#clipPath52)" points=" 509 490 501 480 517 480" stroke="black"/>
</g>
</g>
</svg>
