<?xml version="1.0" encoding="UTF-8"?><svg xmlns="http://www.w3.org/2000/svg" xmlns:xlink="http://www.w3.org/1999/xlink" stroke-dasharray="none" shape-rendering="auto" font-family="'Dialog'" width="903" text-rendering="auto" fill-opacity="1" contentScriptType="text/ecmascript" color-interpolation="auto" color-rendering="auto" preserveAspectRatio="xMidYMid meet" font-size="12" viewBox="0 0 903 794" fill="black" stroke="black" image-rendering="auto" stroke-miterlimit="10" zoomAndPan="magnify" version="1.0" stroke-linecap="square" stroke-linejoin="miter" contentStyleType="text/css" font-style="normal" height="794" stroke-width="1" stroke-dashoffset="0" font-weight="normal" stroke-opacity="1">
<!--Generated by the Batik Graphics2D SVG Generator-->
<defs id="genericDefs"/>
<g>
<defs id="defs1">
<clipPath clipPathUnits="userSpaceOnUse" id="clipPath1">
<path d="M538 9 L640 9 L640 62 L538 62 L538 9 Z"/>
</clipPath>
<clipPath clipPathUnits="userSpaceOnUse" id="clipPath2">
<path d="M552 29 L627 29 L627 42 L552 42 L552 29 Z"/>
</clipPath>
<clipPath clipPathUnits="userSpaceOnUse" id="clipPath3">
<path d="M715 471 L894 471 L894 543 L715 543 L715 471 Z"/>
</clipPath>
<clipPath clipPathUnits="userSpaceOnUse" id="clipPath4">
<path d="M746 474 L862 474 L862 487 L746 487 L746 474 Z"/>
</clipPath>
<clipPath clipPathUnits="userSpaceOnUse" id="clipPath5">
<path d="M715 486 L894 486 L894 513 L715 513 L715 486 Z"/>
</clipPath>
<clipPath clipPathUnits="userSpaceOnUse" id="clipPath6">
<path d="M720 514 L889 514 L889 527 L720 527 L720 514 Z"/>
</clipPath>
<clipPath clipPathUnits="userSpaceOnUse" id="clipPath7">
<path d="M715 512 L894 512 L894 542 L715 542 L715 512 Z"/>
</clipPath>
<clipPath clipPathUnits="userSpaceOnUse" id="clipPath8">
<path d="M9 218 L463 218 L463 290 L9 290 L9 218 Z"/>
</clipPath>
<clipPath clipPathUnits="userSpaceOnUse" id="clipPath9">
<path d="M175 221 L297 221 L297 234 L175 234 L175 221 Z"/>
</clipPath>
<clipPath clipPathUnits="userSpaceOnUse" id="clipPath10">
<path d="M9 233 L463 233 L463 255 L9 255 L9 233 Z"/>
</clipPath>
<clipPath clipPathUnits="userSpaceOnUse" id="clipPath11">
<path d="M14 256 L46 256 L46 269 L14 269 L14 256 Z"/>
</clipPath>
<clipPath clipPathUnits="userSpaceOnUse" id="clipPath12">
<path d="M14 267 L458 267 L458 280 L14 280 L14 267 Z"/>
</clipPath>
<clipPath clipPathUnits="userSpaceOnUse" id="clipPath13">
<path d="M9 254 L463 254 L463 289 L9 289 L9 254 Z"/>
</clipPath>
<clipPath clipPathUnits="userSpaceOnUse" id="clipPath14">
<path d="M537 105 L639 105 L639 154 L537 154 L537 105 Z"/>
</clipPath>
<clipPath clipPathUnits="userSpaceOnUse" id="clipPath15">
<path d="M538 108 L637 108 L637 121 L538 121 L538 108 Z"/>
</clipPath>
<clipPath clipPathUnits="userSpaceOnUse" id="clipPath16">
<path d="M537 120 L639 120 L639 137 L537 137 L537 120 Z"/>
</clipPath>
<clipPath clipPathUnits="userSpaceOnUse" id="clipPath17">
<path d="M537 136 L639 136 L639 153 L537 153 L537 136 Z"/>
</clipPath>
<clipPath clipPathUnits="userSpaceOnUse" id="clipPath18">
<path d="M291 631 L745 631 L745 702 L291 702 L291 631 Z"/>
</clipPath>
<clipPath clipPathUnits="userSpaceOnUse" id="clipPath19">
<path d="M473 634 L563 634 L563 647 L473 647 L473 634 Z"/>
</clipPath>
<clipPath clipPathUnits="userSpaceOnUse" id="clipPath20">
<path d="M291 646 L745 646 L745 668 L291 668 L291 646 Z"/>
</clipPath>
<clipPath clipPathUnits="userSpaceOnUse" id="clipPath21">
<path d="M296 669 L740 669 L740 682 L296 682 L296 669 Z"/>
</clipPath>
<clipPath clipPathUnits="userSpaceOnUse" id="clipPath22">
<path d="M296 680 L592 680 L592 693 L296 693 L296 680 Z"/>
</clipPath>
<clipPath clipPathUnits="userSpaceOnUse" id="clipPath23">
<path d="M291 667 L745 667 L745 701 L291 701 L291 667 Z"/>
</clipPath>
<clipPath clipPathUnits="userSpaceOnUse" id="clipPath24">
<path d="M440 713 L894 713 L894 785 L440 785 L440 713 Z"/>
</clipPath>
<clipPath clipPathUnits="userSpaceOnUse" id="clipPath25">
<path d="M625 716 L709 716 L709 729 L625 729 L625 716 Z"/>
</clipPath>
<clipPath clipPathUnits="userSpaceOnUse" id="clipPath26">
<path d="M440 728 L894 728 L894 747 L440 747 L440 728 Z"/>
</clipPath>
<clipPath clipPathUnits="userSpaceOnUse" id="clipPath27">
<path d="M445 748 L889 748 L889 761 L445 761 L445 748 Z"/>
</clipPath>
<clipPath clipPathUnits="userSpaceOnUse" id="clipPath28">
<path d="M445 759 L753 759 L753 772 L445 772 L445 759 Z"/>
</clipPath>
<clipPath clipPathUnits="userSpaceOnUse" id="clipPath29">
<path d="M445 770 L685 770 L685 783 L445 783 L445 770 Z"/>
</clipPath>
<clipPath clipPathUnits="userSpaceOnUse" id="clipPath30">
<path d="M440 746 L894 746 L894 784 L440 784 L440 746 Z"/>
</clipPath>
<clipPath clipPathUnits="userSpaceOnUse" id="clipPath31">
<path d="M234 548 L688 548 L688 620 L234 620 L234 548 Z"/>
</clipPath>
<clipPath clipPathUnits="userSpaceOnUse" id="clipPath32">
<path d="M398 551 L524 551 L524 564 L398 564 L398 551 Z"/>
</clipPath>
<clipPath clipPathUnits="userSpaceOnUse" id="clipPath33">
<path d="M234 563 L688 563 L688 585 L234 585 L234 563 Z"/>
</clipPath>
<clipPath clipPathUnits="userSpaceOnUse" id="clipPath34">
<path d="M239 586 L683 586 L683 599 L239 599 L239 586 Z"/>
</clipPath>
<clipPath clipPathUnits="userSpaceOnUse" id="clipPath35">
<path d="M239 597 L531 597 L531 610 L239 610 L239 597 Z"/>
</clipPath>
<clipPath clipPathUnits="userSpaceOnUse" id="clipPath36">
<path d="M234 584 L688 584 L688 619 L234 619 L234 584 Z"/>
</clipPath>
<clipPath clipPathUnits="userSpaceOnUse" id="clipPath37">
<path d="M121 383 L575 383 L575 455 L121 455 L121 383 Z"/>
</clipPath>
<clipPath clipPathUnits="userSpaceOnUse" id="clipPath38">
<path d="M290 386 L406 386 L406 399 L290 399 L290 386 Z"/>
</clipPath>
<clipPath clipPathUnits="userSpaceOnUse" id="clipPath39">
<path d="M121 398 L575 398 L575 417 L121 417 L121 398 Z"/>
</clipPath>
<clipPath clipPathUnits="userSpaceOnUse" id="clipPath40">
<path d="M126 418 L422 418 L422 431 L126 431 L126 418 Z"/>
</clipPath>
<clipPath clipPathUnits="userSpaceOnUse" id="clipPath41">
<path d="M126 429 L570 429 L570 442 L126 442 L126 429 Z"/>
</clipPath>
<clipPath clipPathUnits="userSpaceOnUse" id="clipPath42">
<path d="M126 440 L558 440 L558 453 L126 453 L126 440 Z"/>
</clipPath>
<clipPath clipPathUnits="userSpaceOnUse" id="clipPath43">
<path d="M121 416 L575 416 L575 454 L121 454 L121 416 Z"/>
</clipPath>
<clipPath clipPathUnits="userSpaceOnUse" id="clipPath44">
<path d="M178 466 L632 466 L632 538 L178 538 L178 466 Z"/>
</clipPath>
<clipPath clipPathUnits="userSpaceOnUse" id="clipPath45">
<path d="M347 469 L462 469 L462 482 L347 482 L347 469 Z"/>
</clipPath>
<clipPath clipPathUnits="userSpaceOnUse" id="clipPath46">
<path d="M178 481 L632 481 L632 500 L178 500 L178 481 Z"/>
</clipPath>
<clipPath clipPathUnits="userSpaceOnUse" id="clipPath47">
<path d="M183 501 L491 501 L491 514 L183 514 L183 501 Z"/>
</clipPath>
<clipPath clipPathUnits="userSpaceOnUse" id="clipPath48">
<path d="M183 512 L615 512 L615 525 L183 525 L183 512 Z"/>
</clipPath>
<clipPath clipPathUnits="userSpaceOnUse" id="clipPath49">
<path d="M183 523 L627 523 L627 536 L183 536 L183 523 Z"/>
</clipPath>
<clipPath clipPathUnits="userSpaceOnUse" id="clipPath50">
<path d="M178 499 L632 499 L632 537 L178 537 L178 499 Z"/>
</clipPath>
<clipPath clipPathUnits="userSpaceOnUse" id="clipPath51">
<path d="M65 300 L519 300 L519 372 L65 372 L65 300 Z"/>
</clipPath>
<clipPath clipPathUnits="userSpaceOnUse" id="clipPath52">
<path d="M222 303 L362 303 L362 316 L222 316 L222 303 Z"/>
</clipPath>
<clipPath clipPathUnits="userSpaceOnUse" id="clipPath53">
<path d="M65 315 L519 315 L519 342 L65 342 L65 315 Z"/>
</clipPath>
<clipPath clipPathUnits="userSpaceOnUse" id="clipPath54">
<path d="M70 343 L514 343 L514 356 L70 356 L70 343 Z"/>
</clipPath>
<clipPath clipPathUnits="userSpaceOnUse" id="clipPath55">
<path d="M65 341 L519 341 L519 371 L65 371 L65 341 Z"/>
</clipPath>
<clipPath clipPathUnits="userSpaceOnUse" id="clipPath56">
<path d="M-1 -1 L904 -1 L904 795 L-1 795 L-1 -1 Z"/>
</clipPath>
<clipPath clipPathUnits="userSpaceOnUse" id="clipPath57">
<path d="M575 152 L594 152 L594 165 L575 165 L575 152 Z"/>
</clipPath>
<clipPath clipPathUnits="userSpaceOnUse" id="clipPath58">
<path d="M577 60 L596 60 L596 73 L577 73 L577 60 Z"/>
</clipPath>
<clipPath clipPathUnits="userSpaceOnUse" id="clipPath59">
<path d="M786 541 L805 541 L805 554 L786 554 L786 541 Z"/>
</clipPath>
</defs>
<g font-size="11" fill="white" stroke-linejoin="round" stroke="white" stroke-width="0" stroke-miterlimit="0">
<rect x="539" y="10" clip-path="url(#clipPath1)" width="100" rx="0" ry="0" height="51" stroke="none"/>
</g>
<g font-size="9" font-family="'Helvetica'" stroke-linejoin="round" font-style="italic" font-weight="bold" stroke-width="0" stroke-miterlimit="0">
<text xml:space="preserve" x="553" y="37" clip-path="url(#clipPath2)" stroke="none">VertexActivation</text>
</g>
<g font-size="11" stroke-width="1.1" stroke-linecap="butt">
<rect x="539" y="10" clip-path="url(#clipPath1)" fill="none" width="99" rx="0" ry="0" height="50"/>
<rect x="716" y="472" clip-path="url(#clipPath3)" fill="white" width="177" rx="0" ry="0" height="70" stroke="none"/>
</g>
<g stroke-linecap="butt" font-size="9" font-family="'Helvetica'" font-style="italic" font-weight="bold" stroke-width="1.1">
<text xml:space="preserve" x="747" y="482" clip-path="url(#clipPath4)" stroke="none">ConnectionPointActivation</text>
</g>
<g font-size="11" stroke-width="1.1" stroke-linecap="butt">
<line clip-path="url(#clipPath5)" fill="none" x1="716" x2="893" y1="487" y2="487"/>
<text x="721" font-size="9" y="522" clip-path="url(#clipPath6)" font-family="'Helvetica'" stroke="none" xml:space="preserve"> + getParentState(): VertexActivation [1]</text>
<line clip-path="url(#clipPath7)" fill="none" x1="716" x2="893" y1="513" y2="513"/>
<rect x="716" y="472" clip-path="url(#clipPath3)" fill="none" width="176" rx="0" ry="0" height="69"/>
<rect x="10" y="219" clip-path="url(#clipPath8)" fill="white" width="452" rx="0" ry="0" height="70" stroke="none"/>
<text x="176" font-size="9" y="229" clip-path="url(#clipPath9)" font-family="'Helvetica'" stroke="none" font-weight="bold" xml:space="preserve">InitialPseudostateActivation</text>
<line clip-path="url(#clipPath10)" fill="none" x1="10" x2="462" y1="234" y2="234"/>
<text x="15" font-size="9" y="264" clip-path="url(#clipPath11)" font-family="'Helvetica'" stroke="none" xml:space="preserve"> + run()</text>
<text x="15" font-size="9" y="275" clip-path="url(#clipPath12)" font-family="'Helvetica'" stroke="none" xml:space="preserve"> + enter(  in enteringTransition: TransitionActivation [1],   in leastCommonAncestor: RegionActivation [0..1])</text>
<line clip-path="url(#clipPath13)" fill="none" x1="10" x2="462" y1="255" y2="255"/>
<rect x="10" y="219" clip-path="url(#clipPath8)" fill="none" width="451" rx="0" ry="0" height="69"/>
<rect x="538" y="106" clip-path="url(#clipPath14)" fill="white" width="100" rx="0" ry="0" height="47" stroke="none"/>
</g>
<g stroke-linecap="butt" font-size="9" font-family="'Helvetica'" font-style="italic" font-weight="bold" stroke-width="1.1">
<text xml:space="preserve" x="539" y="116" clip-path="url(#clipPath15)" stroke="none">PseudostateActivation</text>
</g>
<g font-size="11" stroke-width="1.1" stroke-linecap="butt">
<line clip-path="url(#clipPath16)" fill="none" x1="538" x2="638" y1="121" y2="121"/>
<line clip-path="url(#clipPath17)" fill="none" x1="538" x2="638" y1="137" y2="137"/>
<rect x="538" y="106" clip-path="url(#clipPath14)" fill="none" width="99" rx="0" ry="0" height="46"/>
<rect x="292" y="632" clip-path="url(#clipPath18)" fill="white" width="452" rx="0" ry="0" height="69" stroke="none"/>
<text x="474" font-size="9" y="642" clip-path="url(#clipPath19)" font-family="'Helvetica'" stroke="none" font-weight="bold" xml:space="preserve">EntryPointActivation</text>
<line clip-path="url(#clipPath20)" fill="none" x1="292" x2="744" y1="647" y2="647"/>
<text x="297" font-size="9" y="677" clip-path="url(#clipPath21)" font-family="'Helvetica'" stroke="none" xml:space="preserve"> + enter(  in enteringTransition: TransitionActivation [1],   in leastCommonAncestor: RegionActivation [0..1])</text>
<text x="297" font-size="9" y="688" clip-path="url(#clipPath22)" font-family="'Helvetica'" stroke="none" xml:space="preserve"> + isExitable(  in exitingTransition: TransitionActivation [1]): Boolean [1]</text>
<line clip-path="url(#clipPath23)" fill="none" x1="292" x2="744" y1="668" y2="668"/>
<rect x="292" y="632" clip-path="url(#clipPath18)" fill="none" width="451" rx="0" ry="0" height="68"/>
<rect x="441" y="714" clip-path="url(#clipPath24)" fill="white" width="452" rx="0" ry="0" height="70" stroke="none"/>
<text x="626" font-size="9" y="724" clip-path="url(#clipPath25)" font-family="'Helvetica'" stroke="none" font-weight="bold" xml:space="preserve">ExitPointActivation</text>
<line clip-path="url(#clipPath26)" fill="none" x1="441" x2="893" y1="729" y2="729"/>
<text x="446" font-size="9" y="756" clip-path="url(#clipPath27)" font-family="'Helvetica'" stroke="none" xml:space="preserve"> + enter(  in enteringTransition: TransitionActivation [1],   in leastCommonAncestor: RegionActivation [0..1])</text>
<text x="446" font-size="9" y="767" clip-path="url(#clipPath28)" font-family="'Helvetica'" stroke="none" xml:space="preserve"> + isEnterable(  in enteringTransition: TransitionActivation [1]): Boolean [1]</text>
<text x="446" font-size="9" y="778" clip-path="url(#clipPath29)" font-family="'Helvetica'" stroke="none" xml:space="preserve"> # getFireableTransitions(  in null: TransitionActivation [1])</text>
<line clip-path="url(#clipPath30)" fill="none" x1="441" x2="893" y1="747" y2="747"/>
<rect x="441" y="714" clip-path="url(#clipPath24)" fill="none" width="451" rx="0" ry="0" height="69"/>
<rect x="235" y="549" clip-path="url(#clipPath31)" fill="white" width="452" rx="0" ry="0" height="70" stroke="none"/>
<text x="399" font-size="9" y="559" clip-path="url(#clipPath32)" font-family="'Helvetica'" stroke="none" font-weight="bold" xml:space="preserve">ChoicePseudostateActivation</text>
<line clip-path="url(#clipPath33)" fill="none" x1="235" x2="687" y1="564" y2="564"/>
<text x="240" font-size="9" y="594" clip-path="url(#clipPath34)" font-family="'Helvetica'" stroke="none" xml:space="preserve"> + enter(  in enteringTransition: TransitionActivation [1],   in leastCommonAncestor: RegionActivation [0..1])</text>
<text x="240" font-size="9" y="605" clip-path="url(#clipPath35)" font-family="'Helvetica'" stroke="none" xml:space="preserve"> # isElseTransition(  in transition: TransitionActivation [1]): Boolean [1]</text>
<line clip-path="url(#clipPath36)" fill="none" x1="235" x2="687" y1="585" y2="585"/>
<rect x="235" y="549" clip-path="url(#clipPath31)" fill="none" width="451" rx="0" ry="0" height="69"/>
<rect x="122" y="384" clip-path="url(#clipPath37)" fill="white" width="452" rx="0" ry="0" height="70" stroke="none"/>
<text x="291" font-size="9" y="394" clip-path="url(#clipPath38)" font-family="'Helvetica'" stroke="none" font-weight="bold" xml:space="preserve">ForkPseudostateActivation</text>
<line clip-path="url(#clipPath39)" fill="none" x1="122" x2="574" y1="399" y2="399"/>
<text x="127" font-size="9" y="426" clip-path="url(#clipPath40)" font-family="'Helvetica'" stroke="none" xml:space="preserve"> + isExitable(  in exitingTransition: TransitionActivation [1]): Boolean [1]</text>
<text x="127" font-size="9" y="437" clip-path="url(#clipPath41)" font-family="'Helvetica'" stroke="none" xml:space="preserve"> + enter(  in enteringTransition: TransitionActivation [1],   in leastCommonAncestor: RegionActivation [0..1])</text>
<text x="127" font-size="9" y="448" clip-path="url(#clipPath42)" font-family="'Helvetica'" stroke="none" xml:space="preserve"> + exit(  in exitingTransition: TransitionActivation [1],   in leastCommonAncestor: RegionActivation [0..1])</text>
<line clip-path="url(#clipPath43)" fill="none" x1="122" x2="574" y1="417" y2="417"/>
<rect x="122" y="384" clip-path="url(#clipPath37)" fill="none" width="451" rx="0" ry="0" height="69"/>
<rect x="179" y="467" clip-path="url(#clipPath44)" fill="white" width="452" rx="0" ry="0" height="70" stroke="none"/>
<text x="348" font-size="9" y="477" clip-path="url(#clipPath45)" font-family="'Helvetica'" stroke="none" font-weight="bold" xml:space="preserve">JoinPseudostateActivation</text>
<line clip-path="url(#clipPath46)" fill="none" x1="179" x2="631" y1="482" y2="482"/>
<text x="184" font-size="9" y="509" clip-path="url(#clipPath47)" font-family="'Helvetica'" stroke="none" xml:space="preserve"> + isEnterable(  in enteringTransition: TransitionActivation [1]): Boolean [1]</text>
<text x="184" font-size="9" y="520" clip-path="url(#clipPath48)" font-family="'Helvetica'" stroke="none" xml:space="preserve"> + exit(  in exitingTransition: TransitionActivation [1],   in leastCommonAncestor: RegionActivation [0..1])</text>
<text x="184" font-size="9" y="531" clip-path="url(#clipPath49)" font-family="'Helvetica'" stroke="none" xml:space="preserve"> + enter(  in enteringTransition: TransitionActivation [1],   in leastCommonAncestor: RegionActivation [0..1])</text>
<line clip-path="url(#clipPath50)" fill="none" x1="179" x2="631" y1="500" y2="500"/>
<rect x="179" y="467" clip-path="url(#clipPath44)" fill="none" width="451" rx="0" ry="0" height="69"/>
<rect x="66" y="301" clip-path="url(#clipPath51)" fill="white" width="452" rx="0" ry="0" height="70" stroke="none"/>
<text x="223" font-size="9" y="311" clip-path="url(#clipPath52)" font-family="'Helvetica'" stroke="none" font-weight="bold" xml:space="preserve">TerminatePseudostateActivation</text>
<line clip-path="url(#clipPath53)" fill="none" x1="66" x2="518" y1="316" y2="316"/>
<text x="71" font-size="9" y="351" clip-path="url(#clipPath54)" font-family="'Helvetica'" stroke="none" xml:space="preserve"> + enter(  in enteringTransition: TransitionActivation [1],   in leastCommonAncestor: RegionActivation [0..1])</text>
<line clip-path="url(#clipPath55)" fill="none" x1="66" x2="518" y1="342" y2="342"/>
<rect x="66" y="301" clip-path="url(#clipPath51)" fill="none" width="451" rx="0" ry="0" height="69"/>
<line clip-path="url(#clipPath56)" fill="none" text-rendering="optimizeLegibility" x1="725" x2="725" y1="472" y2="191"/>
<line clip-path="url(#clipPath56)" fill="none" text-rendering="optimizeLegibility" x1="725" x2="584" y1="191" y2="191"/>
<line clip-path="url(#clipPath56)" fill="none" text-rendering="optimizeLegibility" x1="584" x2="584" y1="191" y2="153"/>
</g>
<g stroke-linecap="butt" font-size="9" fill="white" text-rendering="optimizeLegibility" stroke="white" stroke-width="1.1">
<polygon clip-path="url(#clipPath57)" points=" 584 153 592 163 576 163" stroke="none"/>
<polygon fill="none" clip-path="url(#clipPath57)" points=" 584 153 592 163 576 163" stroke="black"/>
<line clip-path="url(#clipPath56)" fill="none" x1="586" x2="586" y1="106" y2="61" stroke="black"/>
<polygon clip-path="url(#clipPath58)" points=" 586 61 594 71 578 71" stroke="none"/>
<polygon fill="none" clip-path="url(#clipPath58)" points=" 586 61 594 71 578 71" stroke="black"/>
<line clip-path="url(#clipPath56)" fill="none" x1="724" x2="724" y1="632" y2="579" stroke="black"/>
<line clip-path="url(#clipPath56)" fill="none" x1="724" x2="795" y1="579" y2="579" stroke="black"/>
<line clip-path="url(#clipPath56)" fill="none" x1="795" x2="795" y1="579" y2="542" stroke="black"/>
<polygon clip-path="url(#clipPath59)" points=" 795 542 803 552 787 552" stroke="none"/>
<polygon fill="none" clip-path="url(#clipPath59)" points=" 795 542 803 552 787 552" stroke="black"/>
<line clip-path="url(#clipPath56)" fill="none" x1="876" x2="876" y1="714" y2="579" stroke="black"/>
<line clip-path="url(#clipPath56)" fill="none" x1="876" x2="795" y1="579" y2="579" stroke="black"/>
<line clip-path="url(#clipPath56)" fill="none" x1="795" x2="795" y1="579" y2="542" stroke="black"/>
<polygon clip-path="url(#clipPath59)" points=" 795 542 803 552 787 552" stroke="none"/>
<polygon fill="none" clip-path="url(#clipPath59)" points=" 795 542 803 552 787 552" stroke="black"/>
<line clip-path="url(#clipPath56)" fill="none" x1="558" x2="558" y1="384" y2="191" stroke="black"/>
<line clip-path="url(#clipPath56)" fill="none" x1="558" x2="584" y1="191" y2="191" stroke="black"/>
<line clip-path="url(#clipPath56)" fill="none" x1="584" x2="584" y1="191" y2="153" stroke="black"/>
<polygon clip-path="url(#clipPath57)" points=" 584 153 592 163 576 163" stroke="none"/>
<polygon fill="none" clip-path="url(#clipPath57)" points=" 584 153 592 163 576 163" stroke="black"/>
<line clip-path="url(#clipPath56)" fill="none" x1="669" x2="669" y1="549" y2="191" stroke="black"/>
<line clip-path="url(#clipPath56)" fill="none" x1="669" x2="584" y1="191" y2="191" stroke="black"/>
<line clip-path="url(#clipPath56)" fill="none" x1="584" x2="584" y1="191" y2="153" stroke="black"/>
<polygon clip-path="url(#clipPath57)" points=" 584 153 592 163 576 163" stroke="none"/>
<polygon fill="none" clip-path="url(#clipPath57)" points=" 584 153 592 163 576 163" stroke="black"/>
<line clip-path="url(#clipPath56)" fill="none" x1="615" x2="615" y1="467" y2="191" stroke="black"/>
<line clip-path="url(#clipPath56)" fill="none" x1="615" x2="584" y1="191" y2="191" stroke="black"/>
<line clip-path="url(#clipPath56)" fill="none" x1="584" x2="584" y1="191" y2="153" stroke="black"/>
<polygon clip-path="url(#clipPath57)" points=" 584 153 592 163 576 163" stroke="none"/>
<polygon fill="none" clip-path="url(#clipPath57)" points=" 584 153 592 163 576 163" stroke="black"/>
<line clip-path="url(#clipPath56)" fill="none" x1="448" x2="448" y1="219" y2="191" stroke="black"/>
<line clip-path="url(#clipPath56)" fill="none" x1="448" x2="584" y1="191" y2="191" stroke="black"/>
<line clip-path="url(#clipPath56)" fill="none" x1="584" x2="584" y1="191" y2="153" stroke="black"/>
<polygon clip-path="url(#clipPath57)" points=" 584 153 592 163 576 163" stroke="none"/>
<polygon fill="none" clip-path="url(#clipPath57)" points=" 584 153 592 163 576 163" stroke="black"/>
<line clip-path="url(#clipPath56)" fill="none" x1="507" x2="507" y1="301" y2="191" stroke="black"/>
<line clip-path="url(#clipPath56)" fill="none" x1="507" x2="584" y1="191" y2="191" stroke="black"/>
<line clip-path="url(#clipPath56)" fill="none" x1="584" x2="584" y1="191" y2="153" stroke="black"/>
<polygon clip-path="url(#clipPath57)" points=" 584 153 592 163 576 163" stroke="none"/>
<polygon fill="none" clip-path="url(#clipPath57)" points=" 584 153 592 163 576 163" stroke="black"/>
</g>
</g>
</svg>
