<?xml version="1.0" encoding="UTF-8"?><svg xmlns="http://www.w3.org/2000/svg" xmlns:xlink="http://www.w3.org/1999/xlink" stroke-dasharray="none" shape-rendering="auto" font-family="'Dialog'" width="1245" text-rendering="auto" fill-opacity="1" contentScriptType="text/ecmascript" color-interpolation="auto" color-rendering="auto" preserveAspectRatio="xMidYMid meet" font-size="12" viewBox="0 0 1245 542" fill="black" stroke="black" image-rendering="auto" stroke-miterlimit="10" zoomAndPan="magnify" version="1.0" stroke-linecap="square" stroke-linejoin="miter" contentStyleType="text/css" font-style="normal" height="542" stroke-width="1" stroke-dashoffset="0" font-weight="normal" stroke-opacity="1">
<!--Generated by the Batik Graphics2D SVG Generator-->
<defs id="genericDefs"/>
<g>
<defs id="defs1">
<clipPath clipPathUnits="userSpaceOnUse" id="clipPath1">
<path d="M9 109 L798 109 L798 446 L9 446 L9 109 Z"/>
</clipPath>
<clipPath clipPathUnits="userSpaceOnUse" id="clipPath2">
<path d="M370 112 L437 112 L437 124 L370 124 L370 112 Z"/>
</clipPath>
<clipPath clipPathUnits="userSpaceOnUse" id="clipPath3">
<path d="M14 125 L172 125 L172 137 L14 137 L14 125 Z"/>
</clipPath>
<clipPath clipPathUnits="userSpaceOnUse" id="clipPath4">
<path d="M14 135 L152 135 L152 147 L14 147 L14 135 Z"/>
</clipPath>
<clipPath clipPathUnits="userSpaceOnUse" id="clipPath5">
<path d="M14 145 L146 145 L146 157 L14 157 L14 145 Z"/>
</clipPath>
<clipPath clipPathUnits="userSpaceOnUse" id="clipPath6">
<path d="M9 123 L798 123 L798 173 L9 173 L9 123 Z"/>
</clipPath>
<clipPath clipPathUnits="userSpaceOnUse" id="clipPath7">
<path d="M14 174 L66 174 L66 186 L14 186 L14 174 Z"/>
</clipPath>
<clipPath clipPathUnits="userSpaceOnUse" id="clipPath8">
<path d="M14 184 L71 184 L71 196 L14 196 L14 184 Z"/>
</clipPath>
<clipPath clipPathUnits="userSpaceOnUse" id="clipPath9">
<path d="M14 194 L101 194 L101 206 L14 206 L14 194 Z"/>
</clipPath>
<clipPath clipPathUnits="userSpaceOnUse" id="clipPath10">
<path d="M14 204 L111 204 L111 216 L14 216 L14 204 Z"/>
</clipPath>
<clipPath clipPathUnits="userSpaceOnUse" id="clipPath11">
<path d="M14 214 L127 214 L127 226 L14 226 L14 214 Z"/>
</clipPath>
<clipPath clipPathUnits="userSpaceOnUse" id="clipPath12">
<path d="M14 224 L144 224 L144 236 L14 236 L14 224 Z"/>
</clipPath>
<clipPath clipPathUnits="userSpaceOnUse" id="clipPath13">
<path d="M14 234 L233 234 L233 246 L14 246 L14 234 Z"/>
</clipPath>
<clipPath clipPathUnits="userSpaceOnUse" id="clipPath14">
<path d="M14 244 L249 244 L249 256 L14 256 L14 244 Z"/>
</clipPath>
<clipPath clipPathUnits="userSpaceOnUse" id="clipPath15">
<path d="M14 254 L203 254 L203 266 L14 266 L14 254 Z"/>
</clipPath>
<clipPath clipPathUnits="userSpaceOnUse" id="clipPath16">
<path d="M14 264 L273 264 L273 276 L14 276 L14 264 Z"/>
</clipPath>
<clipPath clipPathUnits="userSpaceOnUse" id="clipPath17">
<path d="M14 274 L279 274 L279 286 L14 286 L14 274 Z"/>
</clipPath>
<clipPath clipPathUnits="userSpaceOnUse" id="clipPath18">
<path d="M14 284 L302 284 L302 296 L14 296 L14 284 Z"/>
</clipPath>
<clipPath clipPathUnits="userSpaceOnUse" id="clipPath19">
<path d="M14 294 L299 294 L299 306 L14 306 L14 294 Z"/>
</clipPath>
<clipPath clipPathUnits="userSpaceOnUse" id="clipPath20">
<path d="M14 304 L302 304 L302 316 L14 316 L14 304 Z"/>
</clipPath>
<clipPath clipPathUnits="userSpaceOnUse" id="clipPath21">
<path d="M14 314 L281 314 L281 326 L14 326 L14 314 Z"/>
</clipPath>
<clipPath clipPathUnits="userSpaceOnUse" id="clipPath22">
<path d="M14 324 L382 324 L382 336 L14 336 L14 324 Z"/>
</clipPath>
<clipPath clipPathUnits="userSpaceOnUse" id="clipPath23">
<path d="M14 334 L434 334 L434 346 L14 346 L14 334 Z"/>
</clipPath>
<clipPath clipPathUnits="userSpaceOnUse" id="clipPath24">
<path d="M14 344 L446 344 L446 356 L14 356 L14 344 Z"/>
</clipPath>
<clipPath clipPathUnits="userSpaceOnUse" id="clipPath25">
<path d="M14 354 L402 354 L402 366 L14 366 L14 354 Z"/>
</clipPath>
<clipPath clipPathUnits="userSpaceOnUse" id="clipPath26">
<path d="M14 364 L462 364 L462 376 L14 376 L14 364 Z"/>
</clipPath>
<clipPath clipPathUnits="userSpaceOnUse" id="clipPath27">
<path d="M14 374 L631 374 L631 386 L14 386 L14 374 Z"/>
</clipPath>
<clipPath clipPathUnits="userSpaceOnUse" id="clipPath28">
<path d="M14 384 L643 384 L643 396 L14 396 L14 384 Z"/>
</clipPath>
<clipPath clipPathUnits="userSpaceOnUse" id="clipPath29">
<path d="M14 394 L773 394 L773 406 L14 406 L14 394 Z"/>
</clipPath>
<clipPath clipPathUnits="userSpaceOnUse" id="clipPath30">
<path d="M9 172 L798 172 L798 445 L9 445 L9 172 Z"/>
</clipPath>
<clipPath clipPathUnits="userSpaceOnUse" id="clipPath31">
<path d="M353 9 L455 9 L455 61 L353 61 L353 9 Z"/>
</clipPath>
<clipPath clipPathUnits="userSpaceOnUse" id="clipPath32">
<path d="M367 29 L442 29 L442 41 L367 41 L367 29 Z"/>
</clipPath>
<clipPath clipPathUnits="userSpaceOnUse" id="clipPath33">
<path d="M51 487 L751 487 L751 533 L51 533 L51 487 Z"/>
</clipPath>
<clipPath clipPathUnits="userSpaceOnUse" id="clipPath34">
<path d="M357 490 L445 490 L445 502 L357 502 L357 490 Z"/>
</clipPath>
<clipPath clipPathUnits="userSpaceOnUse" id="clipPath35">
<path d="M56 503 L685 503 L685 515 L56 515 L56 503 Z"/>
</clipPath>
<clipPath clipPathUnits="userSpaceOnUse" id="clipPath36">
<path d="M51 501 L751 501 L751 532 L51 532 L51 501 Z"/>
</clipPath>
<clipPath clipPathUnits="userSpaceOnUse" id="clipPath37">
<path d="M1046 332 L1172 332 L1172 385 L1046 385 L1046 332 Z"/>
</clipPath>
<clipPath clipPathUnits="userSpaceOnUse" id="clipPath38">
<path d="M1073 352 L1147 352 L1147 364 L1073 364 L1073 352 Z"/>
</clipPath>
<clipPath clipPathUnits="userSpaceOnUse" id="clipPath39">
<path d="M1046 397 L1172 397 L1172 448 L1046 448 L1046 397 Z"/>
</clipPath>
<clipPath clipPathUnits="userSpaceOnUse" id="clipPath40">
<path d="M1052 416 L1168 416 L1168 428 L1052 428 L1052 416 Z"/>
</clipPath>
<clipPath clipPathUnits="userSpaceOnUse" id="clipPath41">
<path d="M1096 209 L1236 209 L1236 257 L1096 257 L1096 209 Z"/>
</clipPath>
<clipPath clipPathUnits="userSpaceOnUse" id="clipPath42">
<path d="M1105 227 L1229 227 L1229 239 L1105 239 L1105 227 Z"/>
</clipPath>
<clipPath clipPathUnits="userSpaceOnUse" id="clipPath43">
<path d="M996 41 L1222 41 L1222 93 L996 93 L996 41 Z"/>
</clipPath>
<clipPath clipPathUnits="userSpaceOnUse" id="clipPath44">
<path d="M1004 56 L1215 56 L1215 68 L1004 68 L1004 56 Z"/>
</clipPath>
<clipPath clipPathUnits="userSpaceOnUse" id="clipPath45">
<path d="M1072 67 L1148 67 L1148 79 L1072 79 L1072 67 Z"/>
</clipPath>
<clipPath clipPathUnits="userSpaceOnUse" id="clipPath46">
<path d="M1046 268 L1172 268 L1172 321 L1046 321 L1046 268 Z"/>
</clipPath>
<clipPath clipPathUnits="userSpaceOnUse" id="clipPath47">
<path d="M1057 288 L1163 288 L1163 300 L1057 300 L1057 288 Z"/>
</clipPath>
<clipPath clipPathUnits="userSpaceOnUse" id="clipPath48">
<path d="M996 150 L1122 150 L1122 198 L996 198 L996 150 Z"/>
</clipPath>
<clipPath clipPathUnits="userSpaceOnUse" id="clipPath49">
<path d="M1003 168 L1116 168 L1116 180 L1003 180 L1003 168 Z"/>
</clipPath>
<clipPath clipPathUnits="userSpaceOnUse" id="clipPath50">
<path d="M-1 -1 L1246 -1 L1246 543 L-1 543 L-1 -1 Z"/>
</clipPath>
<clipPath clipPathUnits="userSpaceOnUse" id="clipPath51">
<path d="M392 59 L411 59 L411 72 L392 72 L392 59 Z"/>
</clipPath>
<clipPath clipPathUnits="userSpaceOnUse" id="clipPath52">
<path d="M391 444 L410 444 L410 457 L391 457 L391 444 Z"/>
</clipPath>
<clipPath clipPathUnits="userSpaceOnUse" id="clipPath53">
<path d="M944 340 L1028 340 L1028 352 L944 352 L944 340 Z"/>
</clipPath>
<clipPath clipPathUnits="userSpaceOnUse" id="clipPath54">
<path d="M815 359 L836 359 L836 371 L815 371 L815 359 Z"/>
</clipPath>
<clipPath clipPathUnits="userSpaceOnUse" id="clipPath55">
<path d="M1017 359 L1026 359 L1026 371 L1017 371 L1017 359 Z"/>
</clipPath>
<clipPath clipPathUnits="userSpaceOnUse" id="clipPath56">
<path d="M796 351 L815 351 L815 362 L796 362 L796 351 Z"/>
</clipPath>
<clipPath clipPathUnits="userSpaceOnUse" id="clipPath57">
<path d="M1028 349 L1049 349 L1049 364 L1028 364 L1028 349 Z"/>
</clipPath>
<clipPath clipPathUnits="userSpaceOnUse" id="clipPath58">
<path d="M901 404 L1026 404 L1026 416 L901 416 L901 404 Z"/>
</clipPath>
<clipPath clipPathUnits="userSpaceOnUse" id="clipPath59">
<path d="M818 424 L828 424 L828 436 L818 436 L818 424 Z"/>
</clipPath>
<clipPath clipPathUnits="userSpaceOnUse" id="clipPath60">
<path d="M1014 424 L1023 424 L1023 436 L1014 436 L1014 424 Z"/>
</clipPath>
<clipPath clipPathUnits="userSpaceOnUse" id="clipPath61">
<path d="M796 415 L815 415 L815 426 L796 426 L796 415 Z"/>
</clipPath>
<clipPath clipPathUnits="userSpaceOnUse" id="clipPath62">
<path d="M1028 413 L1049 413 L1049 428 L1028 428 L1028 413 Z"/>
</clipPath>
<clipPath clipPathUnits="userSpaceOnUse" id="clipPath63">
<path d="M820 234 L895 234 L895 246 L820 246 L820 234 Z"/>
</clipPath>
<clipPath clipPathUnits="userSpaceOnUse" id="clipPath64">
<path d="M1013 219 L1097 219 L1097 231 L1013 231 L1013 219 Z"/>
</clipPath>
<clipPath clipPathUnits="userSpaceOnUse" id="clipPath65">
<path d="M823 217 L833 217 L833 229 L823 229 L823 217 Z"/>
</clipPath>
<clipPath clipPathUnits="userSpaceOnUse" id="clipPath66">
<path d="M1075 235 L1096 235 L1096 247 L1075 247 L1075 235 Z"/>
</clipPath>
<clipPath clipPathUnits="userSpaceOnUse" id="clipPath67">
<path d="M796 225 L817 225 L817 240 L796 240 L796 225 Z"/>
</clipPath>
<clipPath clipPathUnits="userSpaceOnUse" id="clipPath68">
<path d="M1102 91 L1121 91 L1121 104 L1102 104 L1102 91 Z"/>
</clipPath>
<clipPath clipPathUnits="userSpaceOnUse" id="clipPath69">
<path d="M822 298 L859 298 L859 310 L822 310 L822 298 Z"/>
</clipPath>
<clipPath clipPathUnits="userSpaceOnUse" id="clipPath70">
<path d="M915 280 L1028 280 L1028 292 L915 292 L915 280 Z"/>
</clipPath>
<clipPath clipPathUnits="userSpaceOnUse" id="clipPath71">
<path d="M822 283 L832 283 L832 295 L822 295 L822 283 Z"/>
</clipPath>
<clipPath clipPathUnits="userSpaceOnUse" id="clipPath72">
<path d="M1007 299 L1028 299 L1028 311 L1007 311 L1007 299 Z"/>
</clipPath>
<clipPath clipPathUnits="userSpaceOnUse" id="clipPath73">
<path d="M796 289 L817 289 L817 304 L796 304 L796 289 Z"/>
</clipPath>
<clipPath clipPathUnits="userSpaceOnUse" id="clipPath74">
<path d="M1028 289 L1049 289 L1049 304 L1028 304 L1028 289 Z"/>
</clipPath>
<clipPath clipPathUnits="userSpaceOnUse" id="clipPath75">
<path d="M875 163 L994 163 L994 175 L875 175 L875 163 Z"/>
</clipPath>
<clipPath clipPathUnits="userSpaceOnUse" id="clipPath76">
<path d="M820 178 L946 178 L946 190 L820 190 L820 178 Z"/>
</clipPath>
<clipPath clipPathUnits="userSpaceOnUse" id="clipPath77">
<path d="M982 182 L991 182 L991 194 L982 194 L982 182 Z"/>
</clipPath>
<clipPath clipPathUnits="userSpaceOnUse" id="clipPath78">
<path d="M822 163 L832 163 L832 175 L822 175 L822 163 Z"/>
</clipPath>
<clipPath clipPathUnits="userSpaceOnUse" id="clipPath79">
<path d="M796 169 L817 169 L817 184 L796 184 L796 169 Z"/>
</clipPath>
<clipPath clipPathUnits="userSpaceOnUse" id="clipPath80">
<path d="M896 111 L1015 111 L1015 123 L896 123 L896 111 Z"/>
</clipPath>
<clipPath clipPathUnits="userSpaceOnUse" id="clipPath81">
<path d="M1025 136 L1046 136 L1046 148 L1025 148 L1025 136 Z"/>
</clipPath>
<clipPath clipPathUnits="userSpaceOnUse" id="clipPath82">
<path d="M1024 113 L1034 113 L1034 125 L1024 125 L1024 113 Z"/>
</clipPath>
<clipPath clipPathUnits="userSpaceOnUse" id="clipPath83">
<path d="M1014 91 L1029 91 L1029 112 L1014 112 L1014 91 Z"/>
</clipPath>
</defs>
<g font-size="11" fill="white" stroke-linejoin="round" stroke="white" stroke-width="0" stroke-miterlimit="0">
<rect x="10" y="110" clip-path="url(#clipPath1)" width="787" rx="0" ry="0" height="335" stroke="none"/>
</g>
<g font-size="9" font-family="'Arial'" stroke-linejoin="round" font-weight="bold" stroke-width="0" stroke-miterlimit="0">
<text xml:space="preserve" x="371" y="122" clip-path="url(#clipPath2)" stroke="none">StateActivation</text>
<text x="15" y="135" clip-path="url(#clipPath3)" stroke="none" font-weight="normal" xml:space="preserve"> + isDoActivityCompleted: Boolean [1]</text>
<text x="15" y="145" clip-path="url(#clipPath4)" stroke="none" font-weight="normal" xml:space="preserve"> + isEntryCompleted: Boolean [1]</text>
<text x="15" y="155" clip-path="url(#clipPath5)" stroke="none" font-weight="normal" xml:space="preserve"> + isExitCompleted: Boolean [1]</text>
</g>
<g font-size="11" stroke-width="1.1" stroke-linecap="butt">
<line clip-path="url(#clipPath6)" fill="none" x1="10" x2="797" y1="124" y2="124"/>
<text x="15" font-size="9" y="184" clip-path="url(#clipPath7)" font-family="'Arial'" stroke="none" xml:space="preserve"> + activate()</text>
<text x="15" font-size="9" y="194" clip-path="url(#clipPath8)" font-family="'Arial'" stroke="none" xml:space="preserve"> + terminate()</text>
<text x="15" font-size="9" y="204" clip-path="url(#clipPath9)" font-family="'Arial'" stroke="none" xml:space="preserve"> + notifyCompletion()</text>
<text x="15" font-size="9" y="214" clip-path="url(#clipPath10)" font-family="'Arial'" stroke="none" xml:space="preserve"> + activateTransitions()</text>
<text x="15" font-size="9" y="224" clip-path="url(#clipPath11)" font-family="'Arial'" stroke="none" xml:space="preserve"> + releaseDeferredEvents()</text>
<text x="15" font-size="9" y="234" clip-path="url(#clipPath12)" font-family="'Arial'" stroke="none" xml:space="preserve"> + hasCompleted(): Boolean [1]</text>
<text x="15" font-size="9" y="244" clip-path="url(#clipPath13)" font-family="'Arial'" stroke="none" xml:space="preserve"> + defer(  in eventOccurrence: EventOccurrence [1])</text>
<text x="15" font-size="9" y="254" clip-path="url(#clipPath14)" font-family="'Arial'" stroke="none" xml:space="preserve"> + isVisitorFor(  in node: NamedElement [1]): Boolean [1]</text>
<text x="15" font-size="9" y="264" clip-path="url(#clipPath15)" font-family="'Arial'" stroke="none" xml:space="preserve"> + getRegionActivation(): RegionActivation [*]</text>
<text x="15" font-size="9" y="274" clip-path="url(#clipPath16)" font-family="'Arial'" stroke="none" xml:space="preserve"> # tryExecuteExit(  in eventOccurrence: EventOccurrence [1])</text>
<text x="15" font-size="9" y="284" clip-path="url(#clipPath17)" font-family="'Arial'" stroke="none" xml:space="preserve"> # tryExecuteEntry(  in eventOccurrence: EventOccurrence [1])</text>
<text x="15" font-size="9" y="294" clip-path="url(#clipPath18)" font-family="'Arial'" stroke="none" xml:space="preserve"> + canDefer(  in eventOccurrence: EventOccurrence [1]): Boolean [1]</text>
<text x="15" font-size="9" y="304" clip-path="url(#clipPath19)" font-family="'Arial'" stroke="none" xml:space="preserve"> # tryExecuteDoActivity(  in eventOccurrence: EventOccurrence [1])</text>
<text x="15" font-size="9" y="314" clip-path="url(#clipPath20)" font-family="'Arial'" stroke="none" xml:space="preserve"> # getVertexActivation(  in vertex: Vertex [1]): VertexActivation [0..1]</text>
<text x="15" font-size="9" y="324" clip-path="url(#clipPath21)" font-family="'Arial'" stroke="none" xml:space="preserve"> + getConnectionPointActivation(): ConnectionPointActivation [*]</text>
<text x="15" font-size="9" y="334" clip-path="url(#clipPath22)" font-family="'Arial'" stroke="none" xml:space="preserve"> + getConnectionPointActivation(  in vertex: Vertex [1]): ConnectionPointActivation [0..1]</text>
<text x="15" font-size="9" y="344" clip-path="url(#clipPath23)" font-family="'Arial'" stroke="none" xml:space="preserve"> + isExitable(  in exitingTransition: TransitionActivation [1],   in staticCheck: Boolean [1]): Boolean [1]</text>
<text x="15" font-size="9" y="354" clip-path="url(#clipPath24)" font-family="'Arial'" stroke="none" xml:space="preserve"> + isEnterable(  in enteringTransition: TransitionActivation [1],   in staticCheck: Boolean [1]): Boolean [1]</text>
<text x="15" font-size="9" y="364" clip-path="url(#clipPath25)" font-family="'Arial'" stroke="none" xml:space="preserve"> + getFireableTransitions(  in eventOccurrence: EventOccurrence [1]): TransitionActivation [*]</text>
<text x="15" font-size="9" y="374" clip-path="url(#clipPath26)" font-family="'Arial'" stroke="none" xml:space="preserve"> + enterRegions(  in enteringTransition: TransitionActivation [1],   in eventOccurrence: EventOccurrence [1])</text>
<text x="15" font-size="9" y="384" clip-path="url(#clipPath27)" font-family="'Arial'" stroke="none" xml:space="preserve"> + exit(  in exitingTransition: TransitionActivation [1],   in eventOccurrence: EventOccurrence [1],   in leastCommonAncestor: RegionActivation [0..1])</text>
<text x="15" font-size="9" y="394" clip-path="url(#clipPath28)" font-family="'Arial'" stroke="none" xml:space="preserve"> + enter(  in enteringTransition: TransitionActivation [1],   in eventOccurrence: EventOccurrence [1],   in leastCommonAncestor: RegionActivation [0..1])</text>
<text x="15" font-size="9" y="404" clip-path="url(#clipPath29)" font-family="'Arial'" stroke="none" xml:space="preserve"> + canPropagateExecution(  in enteringTransition: TransitionActivation [1],   in eventOccurrence: EventOccurrence [1],   in leastCommonAncestor: RegionActivation [0..1]): Boolean [1]</text>
<line clip-path="url(#clipPath30)" fill="none" x1="10" x2="797" y1="173" y2="173"/>
<rect x="10" y="110" clip-path="url(#clipPath1)" fill="none" width="786" rx="0" ry="0" height="334"/>
<rect x="354" y="10" clip-path="url(#clipPath31)" fill="white" width="100" rx="0" ry="0" height="50" stroke="none"/>
</g>
<g stroke-linecap="butt" font-size="9" font-family="'Arial'" font-style="italic" font-weight="bold" stroke-width="1.1">
<text xml:space="preserve" x="368" y="39" clip-path="url(#clipPath32)" stroke="none">VertexActivation</text>
</g>
<g font-size="11" stroke-width="1.1" stroke-linecap="butt">
<rect x="354" y="10" clip-path="url(#clipPath31)" fill="none" width="99" rx="0" ry="0" height="49"/>
<rect x="52" y="488" clip-path="url(#clipPath33)" fill="white" width="698" rx="0" ry="0" height="44" stroke="none"/>
<text x="358" font-size="9" y="500" clip-path="url(#clipPath34)" font-family="'Arial'" stroke="none" font-weight="bold" xml:space="preserve">FinalStateActivation</text>
<text x="57" font-size="9" y="513" clip-path="url(#clipPath35)" font-family="'Arial'" stroke="none" xml:space="preserve"> + enter(  in enteringTransition: TransitionActivation [1],   in eventOccurrence: EventOccurrence [1],   in leastCommonAncestor: RegionActivation [0..1])</text>
<line clip-path="url(#clipPath36)" fill="none" x1="52" x2="750" y1="502" y2="502"/>
<rect x="52" y="488" clip-path="url(#clipPath33)" fill="none" width="697" rx="0" ry="0" height="43"/>
<rect x="1047" y="333" clip-path="url(#clipPath37)" fill="white" width="124" rx="0" ry="0" height="51" stroke="none"/>
<text x="1074" font-size="9" y="362" clip-path="url(#clipPath38)" font-family="'Arial'" stroke="none" font-weight="bold" xml:space="preserve">RegionActivation</text>
<rect x="1047" y="333" clip-path="url(#clipPath37)" fill="none" width="123" rx="0" ry="0" height="50"/>
<rect x="1047" y="398" clip-path="url(#clipPath39)" fill="white" width="124" rx="0" ry="0" height="49" stroke="none"/>
</g>
<g stroke-linecap="butt" font-size="9" font-family="'Arial'" font-style="italic" font-weight="bold" stroke-width="1.1">
<text xml:space="preserve" x="1053" y="426" clip-path="url(#clipPath40)" stroke="none">ConnectionPointActivation</text>
</g>
<g font-size="11" stroke-width="1.1" stroke-linecap="butt">
<rect x="1047" y="398" clip-path="url(#clipPath39)" fill="none" width="123" rx="0" ry="0" height="48"/>
<rect x="1097" y="210" clip-path="url(#clipPath41)" fill="white" width="138" rx="0" ry="0" height="46" stroke="none"/>
<text x="1106" font-size="9" y="237" clip-path="url(#clipPath42)" font-family="'Arial'" stroke="none" font-weight="bold" xml:space="preserve">CompletionEventOccurrence</text>
<rect x="1097" y="210" clip-path="url(#clipPath41)" fill="none" width="137" rx="0" ry="0" height="45"/>
<rect x="997" y="42" clip-path="url(#clipPath43)" fill="silver" width="224" rx="0" ry="0" height="50" stroke="none"/>
<text x="1005" font-size="9" y="66" clip-path="url(#clipPath44)" font-family="'Arial'" stroke="none" font-weight="bold" xml:space="preserve">(fUML_Semantics::Semantics::CommonBehavior)</text>
<text x="1073" font-size="9" y="77" clip-path="url(#clipPath45)" font-family="'Arial'" stroke="none" font-weight="bold" xml:space="preserve">EventOccurrence</text>
<rect x="997" y="42" clip-path="url(#clipPath43)" fill="none" width="223" rx="0" ry="0" height="49"/>
<rect x="1047" y="269" clip-path="url(#clipPath46)" fill="white" width="124" rx="0" ry="0" height="51" stroke="none"/>
<text x="1058" font-size="9" y="298" clip-path="url(#clipPath47)" font-family="'Arial'" stroke="none" font-weight="bold" xml:space="preserve">DoActivityContextObject</text>
<rect x="1047" y="269" clip-path="url(#clipPath46)" fill="none" width="123" rx="0" ry="0" height="50"/>
<rect x="997" y="151" clip-path="url(#clipPath48)" fill="white" width="124" rx="0" ry="0" height="46" stroke="none"/>
<text x="1004" font-size="9" y="178" clip-path="url(#clipPath49)" font-family="'Arial'" stroke="none" font-weight="bold" xml:space="preserve">DeferredEventOccurrence</text>
<rect x="997" y="151" clip-path="url(#clipPath48)" fill="none" width="123" rx="0" ry="0" height="45"/>
<line clip-path="url(#clipPath50)" fill="none" text-rendering="optimizeLegibility" x1="401" x2="401" y1="110" y2="60"/>
</g>
<g stroke-linecap="butt" font-size="9" fill="white" text-rendering="optimizeLegibility" font-family="'Arial'" stroke="white" stroke-width="1.1">
<polygon clip-path="url(#clipPath51)" points=" 401 60 409 70 393 70" stroke="none"/>
<polygon fill="none" clip-path="url(#clipPath51)" points=" 401 60 409 70 393 70" stroke="black"/>
<line clip-path="url(#clipPath50)" fill="none" x1="400" x2="400" y1="488" y2="466" stroke="black"/>
<line clip-path="url(#clipPath50)" fill="none" x1="400" x2="400" y1="466" y2="445" stroke="black"/>
<polygon clip-path="url(#clipPath52)" points=" 400 445 408 455 392 455" stroke="none"/>
<polygon fill="none" clip-path="url(#clipPath52)" points=" 400 445 408 455 392 455" stroke="black"/>
<line clip-path="url(#clipPath50)" fill="none" x1="797" x2="1047" y1="356" y2="356" stroke="black"/>
<text x="945" y="350" clip-path="url(#clipPath53)" fill="black" stroke="none" xml:space="preserve"> + regionActivations</text>
<text x="816" y="369" clip-path="url(#clipPath54)" fill="black" stroke="none" xml:space="preserve"> 0..1</text>
<text x="1018" y="369" clip-path="url(#clipPath55)" fill="black" stroke="none" xml:space="preserve"> *</text>
<polygon fill="black" clip-path="url(#clipPath56)" points=" 797 356 805 352 813 356 805 360" stroke="none"/>
<polygon fill="none" clip-path="url(#clipPath56)" points=" 797 356 805 352 813 356 805 360" stroke="black"/>
<polygon fill="black" clip-path="url(#clipPath57)" points=" 1047 357 1045 359 1043 359 1041 357 1041 356 1029 362 1041 356 1029 350 1041 356 1041 355 1043 353 1045 353 1047 355" stroke="none"/>
<polygon fill="none" clip-path="url(#clipPath57)" points=" 1047 357 1045 359 1043 359 1041 357 1041 356 1029 362 1041 356 1029 350 1041 356 1041 355 1043 353 1045 353 1047 355" stroke="black"/>
<line clip-path="url(#clipPath50)" fill="none" x1="797" x2="1047" y1="420" y2="420" stroke="black"/>
<text x="902" y="414" clip-path="url(#clipPath58)" fill="black" stroke="none" xml:space="preserve"> + connectionPointActivations</text>
<text x="819" y="434" clip-path="url(#clipPath59)" fill="black" stroke="none" xml:space="preserve"> 1</text>
<text x="1015" y="434" clip-path="url(#clipPath60)" fill="black" stroke="none" xml:space="preserve"> *</text>
<polygon fill="black" clip-path="url(#clipPath61)" points=" 797 420 805 416 813 420 805 424" stroke="none"/>
<polygon fill="none" clip-path="url(#clipPath61)" points=" 797 420 805 416 813 420 805 424" stroke="black"/>
<polygon fill="black" clip-path="url(#clipPath62)" points=" 1047 421 1045 423 1043 423 1041 421 1041 420 1029 426 1041 420 1029 414 1041 420 1041 419 1043 417 1045 417 1047 419" stroke="none"/>
<polygon fill="none" clip-path="url(#clipPath62)" points=" 1047 421 1045 423 1043 423 1041 421 1041 420 1029 426 1041 420 1029 414 1041 420 1041 419 1043 417 1045 417 1047 419" stroke="black"/>
<line clip-path="url(#clipPath50)" fill="none" x1="797" x2="1097" y1="232" y2="232" stroke="black"/>
<text x="821" y="244" clip-path="url(#clipPath63)" fill="black" stroke="none" xml:space="preserve"> + stateActivation</text>
<text x="1014" y="229" clip-path="url(#clipPath64)" fill="black" stroke="none" xml:space="preserve"> + eventOccurrence</text>
<text x="824" y="227" clip-path="url(#clipPath65)" fill="black" stroke="none" xml:space="preserve"> 1</text>
<text x="1076" y="245" clip-path="url(#clipPath66)" fill="black" stroke="none" xml:space="preserve"> 0..1</text>
<polygon fill="black" clip-path="url(#clipPath67)" points=" 797 231 799 229 801 229 803 231 803 232 815 226 803 232 815 238 803 232 803 233 801 235 799 235 797 233" stroke="none"/>
<polygon fill="none" clip-path="url(#clipPath67)" points=" 797 231 799 229 801 229 803 231 803 232 815 226 803 232 815 238 803 232 803 233 801 235 799 235 797 233" stroke="black"/>
<line clip-path="url(#clipPath50)" fill="none" x1="1164" x2="1164" y1="210" y2="126" stroke="black"/>
<line clip-path="url(#clipPath50)" fill="none" x1="1164" x2="1111" y1="126" y2="126" stroke="black"/>
<line clip-path="url(#clipPath50)" fill="none" x1="1111" x2="1111" y1="126" y2="92" stroke="black"/>
<polygon clip-path="url(#clipPath68)" points=" 1111 92 1119 102 1103 102" stroke="none"/>
<polygon fill="none" clip-path="url(#clipPath68)" points=" 1111 92 1119 102 1103 102" stroke="black"/>
<line clip-path="url(#clipPath50)" fill="none" x1="797" x2="1047" y1="296" y2="296" stroke="black"/>
<text x="823" y="308" clip-path="url(#clipPath69)" fill="black" stroke="none" xml:space="preserve"> + owner</text>
<text x="916" y="290" clip-path="url(#clipPath70)" fill="black" stroke="none" xml:space="preserve"> + doActivityContextObject</text>
<text x="823" y="293" clip-path="url(#clipPath71)" fill="black" stroke="none" xml:space="preserve"> 1</text>
<text x="1008" y="309" clip-path="url(#clipPath72)" fill="black" stroke="none" xml:space="preserve"> 0..1</text>
<polygon fill="black" clip-path="url(#clipPath73)" points=" 797 295 799 293 801 293 803 295 803 296 815 290 803 296 815 302 803 296 803 297 801 299 799 299 797 297" stroke="none"/>
<polygon fill="none" clip-path="url(#clipPath73)" points=" 797 295 799 293 801 293 803 295 803 296 815 290 803 296 815 302 803 296 803 297 801 299 799 299 797 297" stroke="black"/>
<polygon fill="black" clip-path="url(#clipPath74)" points=" 1047 297 1045 299 1043 299 1041 297 1041 296 1029 302 1041 296 1029 290 1041 296 1041 295 1043 293 1045 293 1047 295" stroke="none"/>
<polygon fill="none" clip-path="url(#clipPath74)" points=" 1047 297 1045 299 1043 299 1041 297 1041 296 1029 302 1041 296 1029 290 1041 296 1041 295 1043 293 1045 293 1047 295" stroke="black"/>
<line clip-path="url(#clipPath50)" fill="none" x1="1058" x2="1058" y1="151" y2="126" stroke="black"/>
<line clip-path="url(#clipPath50)" fill="none" x1="1058" x2="1111" y1="126" y2="126" stroke="black"/>
<line clip-path="url(#clipPath50)" fill="none" x1="1111" x2="1111" y1="126" y2="92" stroke="black"/>
<polygon clip-path="url(#clipPath68)" points=" 1111 92 1119 102 1103 102" stroke="none"/>
<polygon fill="none" clip-path="url(#clipPath68)" points=" 1111 92 1119 102 1103 102" stroke="black"/>
<line clip-path="url(#clipPath50)" fill="none" x1="997" x2="797" y1="176" y2="176" stroke="black"/>
<text x="876" y="173" clip-path="url(#clipPath75)" fill="black" stroke="none" xml:space="preserve"> + deferredEventOccurrence</text>
<text x="821" y="188" clip-path="url(#clipPath76)" fill="black" stroke="none" xml:space="preserve"> + constrainingStateActivation</text>
<text x="983" y="192" clip-path="url(#clipPath77)" fill="black" stroke="none" xml:space="preserve"> *</text>
<text x="823" y="173" clip-path="url(#clipPath78)" fill="black" stroke="none" xml:space="preserve"> 1</text>
<polygon fill="black" clip-path="url(#clipPath79)" points=" 797 175 799 173 801 173 803 175 803 176 815 170 803 176 815 182 803 176 803 177 801 179 799 179 797 177" stroke="none"/>
<polygon fill="none" clip-path="url(#clipPath79)" points=" 797 175 799 173 801 173 803 175 803 176 815 170 803 176 815 182 803 176 803 177 801 179 799 179 797 177" stroke="black"/>
<line clip-path="url(#clipPath50)" fill="none" x1="1021" x2="1021" y1="151" y2="92" stroke="black"/>
<text x="897" y="121" clip-path="url(#clipPath80)" fill="black" stroke="none" xml:space="preserve"> + deferredEventOccurrence</text>
<text x="1026" y="146" clip-path="url(#clipPath81)" fill="black" stroke="none" xml:space="preserve"> 0..1</text>
<text x="1025" y="123" clip-path="url(#clipPath82)" fill="black" stroke="none" xml:space="preserve"> 1</text>
<polygon fill="black" clip-path="url(#clipPath83)" points=" 1022 92 1024 94 1024 96 1022 98 1021 98 1027 110 1021 98 1015 110 1021 98 1020 98 1018 96 1018 94 1020 92" stroke="none"/>
<polygon fill="none" clip-path="url(#clipPath83)" points=" 1022 92 1024 94 1024 96 1022 98 1021 98 1027 110 1021 98 1015 110 1021 98 1020 98 1018 96 1018 94 1020 92" stroke="black"/>
</g>
</g>
</svg>
