<?xml version="1.0" encoding="UTF-8"?><svg xmlns="http://www.w3.org/2000/svg" xmlns:xlink="http://www.w3.org/1999/xlink" stroke-dasharray="none" shape-rendering="auto" font-family="'Dialog'" width="512" text-rendering="auto" fill-opacity="1" contentScriptType="text/ecmascript" color-interpolation="auto" color-rendering="auto" preserveAspectRatio="xMidYMid meet" font-size="12" viewBox="0 0 512 238" fill="black" stroke="black" image-rendering="auto" stroke-miterlimit="10" zoomAndPan="magnify" version="1.0" stroke-linecap="square" stroke-linejoin="miter" contentStyleType="text/css" font-style="normal" height="238" stroke-width="1" stroke-dashoffset="0" font-weight="normal" stroke-opacity="1">
<!--Generated by the Batik Graphics2D SVG Generator-->
<defs id="genericDefs"/>
<g>
<defs id="defs1">
<clipPath clipPathUnits="userSpaceOnUse" id="clipPath1">
<path d="M206 9 L308 9 L308 62 L206 62 L206 9 Z"/>
</clipPath>
<clipPath clipPathUnits="userSpaceOnUse" id="clipPath2">
<path d="M213 29 L303 29 L303 42 L213 42 L213 29 Z"/>
</clipPath>
<clipPath clipPathUnits="userSpaceOnUse" id="clipPath3">
<path d="M9 151 L135 151 L135 228 L9 228 L9 151 Z"/>
</clipPath>
<clipPath clipPathUnits="userSpaceOnUse" id="clipPath4">
<path d="M10 154 L134 154 L134 167 L10 167 L10 154 Z"/>
</clipPath>
<clipPath clipPathUnits="userSpaceOnUse" id="clipPath5">
<path d="M9 166 L135 166 L135 190 L9 190 L9 166 Z"/>
</clipPath>
<clipPath clipPathUnits="userSpaceOnUse" id="clipPath6">
<path d="M14 191 L80 191 L80 204 L14 204 L14 191 Z"/>
</clipPath>
<clipPath clipPathUnits="userSpaceOnUse" id="clipPath7">
<path d="M14 202 L77 202 L77 215 L14 215 L14 202 Z"/>
</clipPath>
<clipPath clipPathUnits="userSpaceOnUse" id="clipPath8">
<path d="M9 189 L135 189 L135 227 L9 227 L9 189 Z"/>
</clipPath>
<clipPath clipPathUnits="userSpaceOnUse" id="clipPath9">
<path d="M379 151 L502 151 L502 228 L379 228 L379 151 Z"/>
</clipPath>
<clipPath clipPathUnits="userSpaceOnUse" id="clipPath10">
<path d="M380 154 L501 154 L501 167 L380 167 L380 154 Z"/>
</clipPath>
<clipPath clipPathUnits="userSpaceOnUse" id="clipPath11">
<path d="M379 166 L502 166 L502 190 L379 190 L379 166 Z"/>
</clipPath>
<clipPath clipPathUnits="userSpaceOnUse" id="clipPath12">
<path d="M384 191 L447 191 L447 204 L384 204 L384 191 Z"/>
</clipPath>
<clipPath clipPathUnits="userSpaceOnUse" id="clipPath13">
<path d="M384 202 L450 202 L450 215 L384 215 L384 202 Z"/>
</clipPath>
<clipPath clipPathUnits="userSpaceOnUse" id="clipPath14">
<path d="M379 189 L502 189 L502 227 L379 227 L379 189 Z"/>
</clipPath>
<clipPath clipPathUnits="userSpaceOnUse" id="clipPath15">
<path d="M163 151 L353 151 L353 229 L163 229 L163 151 Z"/>
</clipPath>
<clipPath clipPathUnits="userSpaceOnUse" id="clipPath16">
<path d="M202 154 L313 154 L313 167 L202 167 L202 154 Z"/>
</clipPath>
<clipPath clipPathUnits="userSpaceOnUse" id="clipPath17">
<path d="M163 166 L353 166 L353 187 L163 187 L163 166 Z"/>
</clipPath>
<clipPath clipPathUnits="userSpaceOnUse" id="clipPath18">
<path d="M168 188 L234 188 L234 201 L168 201 L168 188 Z"/>
</clipPath>
<clipPath clipPathUnits="userSpaceOnUse" id="clipPath19">
<path d="M168 199 L231 199 L231 212 L168 212 L168 199 Z"/>
</clipPath>
<clipPath clipPathUnits="userSpaceOnUse" id="clipPath20">
<path d="M168 210 L348 210 L348 223 L168 223 L168 210 Z"/>
</clipPath>
<clipPath clipPathUnits="userSpaceOnUse" id="clipPath21">
<path d="M163 186 L353 186 L353 228 L163 228 L163 186 Z"/>
</clipPath>
<clipPath clipPathUnits="userSpaceOnUse" id="clipPath22">
<path d="M-1 -1 L513 -1 L513 239 L-1 239 L-1 -1 Z"/>
</clipPath>
<clipPath clipPathUnits="userSpaceOnUse" id="clipPath23">
<path d="M248 60 L267 60 L267 73 L248 73 L248 60 Z"/>
</clipPath>
</defs>
<g font-size="11" fill="white" stroke-linejoin="round" stroke="white" stroke-width="0" stroke-miterlimit="0">
<rect x="207" y="10" clip-path="url(#clipPath1)" width="100" rx="0" ry="0" height="51" stroke="none"/>
</g>
<g font-size="9" font-family="'Helvetica'" stroke-linejoin="round" font-style="italic" font-weight="bold" stroke-width="0" stroke-miterlimit="0">
<text xml:space="preserve" x="214" y="37" clip-path="url(#clipPath2)" stroke="none">TransitionActivation</text>
</g>
<g font-size="11" stroke-width="1.1" stroke-linecap="butt">
<rect x="207" y="10" clip-path="url(#clipPath1)" fill="none" width="99" rx="0" ry="0" height="50"/>
<rect x="10" y="152" clip-path="url(#clipPath3)" fill="white" width="124" rx="0" ry="0" height="75" stroke="none"/>
<text x="11" font-size="9" y="162" clip-path="url(#clipPath4)" font-family="'Helvetica'" stroke="none" font-weight="bold" xml:space="preserve">ExternalTransitionActivation</text>
<line clip-path="url(#clipPath5)" fill="none" x1="10" x2="134" y1="167" y2="167"/>
<text x="15" font-size="9" y="199" clip-path="url(#clipPath6)" font-family="'Helvetica'" stroke="none" xml:space="preserve"> # enterTarget()</text>
<text x="15" font-size="9" y="210" clip-path="url(#clipPath7)" font-family="'Helvetica'" stroke="none" xml:space="preserve"> # exitSource()</text>
<line clip-path="url(#clipPath8)" fill="none" x1="10" x2="134" y1="190" y2="190"/>
<rect x="10" y="152" clip-path="url(#clipPath3)" fill="none" width="123" rx="0" ry="0" height="74"/>
<rect x="380" y="152" clip-path="url(#clipPath9)" fill="white" width="121" rx="0" ry="0" height="75" stroke="none"/>
<text x="381" font-size="9" y="162" clip-path="url(#clipPath10)" font-family="'Helvetica'" stroke="none" font-weight="bold" xml:space="preserve">InternalTransitionActivation</text>
<line clip-path="url(#clipPath11)" fill="none" x1="380" x2="501" y1="167" y2="167"/>
<text x="385" font-size="9" y="199" clip-path="url(#clipPath12)" font-family="'Helvetica'" stroke="none" xml:space="preserve"> # exitSource()</text>
<text x="385" font-size="9" y="210" clip-path="url(#clipPath13)" font-family="'Helvetica'" stroke="none" xml:space="preserve"> # enterTarget()</text>
<line clip-path="url(#clipPath14)" fill="none" x1="380" x2="501" y1="190" y2="190"/>
<rect x="380" y="152" clip-path="url(#clipPath9)" fill="none" width="120" rx="0" ry="0" height="74"/>
<rect x="164" y="152" clip-path="url(#clipPath15)" fill="white" width="188" rx="0" ry="0" height="76" stroke="none"/>
<text x="203" font-size="9" y="162" clip-path="url(#clipPath16)" font-family="'Helvetica'" stroke="none" font-weight="bold" xml:space="preserve">LocalTransitionActivation</text>
<line clip-path="url(#clipPath17)" fill="none" x1="164" x2="352" y1="167" y2="167"/>
<text x="169" font-size="9" y="196" clip-path="url(#clipPath18)" font-family="'Helvetica'" stroke="none" xml:space="preserve"> # enterTarget()</text>
<text x="169" font-size="9" y="207" clip-path="url(#clipPath19)" font-family="'Helvetica'" stroke="none" xml:space="preserve"> # exitSource()</text>
<text x="169" font-size="9" y="218" clip-path="url(#clipPath20)" font-family="'Helvetica'" stroke="none" xml:space="preserve"> # getContainingState(): StateActivation [1]</text>
<line clip-path="url(#clipPath21)" fill="none" x1="164" x2="352" y1="187" y2="187"/>
<rect x="164" y="152" clip-path="url(#clipPath15)" fill="none" width="187" rx="0" ry="0" height="75"/>
<line clip-path="url(#clipPath22)" fill="none" text-rendering="optimizeLegibility" x1="75" x2="75" y1="152" y2="110"/>
<line clip-path="url(#clipPath22)" fill="none" text-rendering="optimizeLegibility" x1="75" x2="257" y1="110" y2="110"/>
<line clip-path="url(#clipPath22)" fill="none" text-rendering="optimizeLegibility" x1="257" x2="257" y1="110" y2="61"/>
</g>
<g stroke-linecap="butt" font-size="9" fill="white" text-rendering="optimizeLegibility" stroke="white" stroke-width="1.1">
<polygon clip-path="url(#clipPath23)" points=" 257 61 265 71 249 71" stroke="none"/>
<polygon fill="none" clip-path="url(#clipPath23)" points=" 257 61 265 71 249 71" stroke="black"/>
<line clip-path="url(#clipPath22)" fill="none" x1="257" x2="257" y1="152" y2="112" stroke="black"/>
<line clip-path="url(#clipPath22)" fill="none" x1="257" x2="257" y1="112" y2="112" stroke="black"/>
<line clip-path="url(#clipPath22)" fill="none" x1="257" x2="257" y1="112" y2="61" stroke="black"/>
<polygon clip-path="url(#clipPath23)" points=" 257 61 265 71 249 71" stroke="none"/>
<polygon fill="none" clip-path="url(#clipPath23)" points=" 257 61 265 71 249 71" stroke="black"/>
<line clip-path="url(#clipPath22)" fill="none" x1="441" x2="441" y1="152" y2="110" stroke="black"/>
<line clip-path="url(#clipPath22)" fill="none" x1="441" x2="257" y1="110" y2="110" stroke="black"/>
<line clip-path="url(#clipPath22)" fill="none" x1="257" x2="257" y1="110" y2="61" stroke="black"/>
<polygon clip-path="url(#clipPath23)" points=" 257 61 265 71 249 71" stroke="none"/>
<polygon fill="none" clip-path="url(#clipPath23)" points=" 257 61 265 71 249 71" stroke="black"/>
</g>
</g>
</svg>
