<?xml version="1.0" encoding="UTF-8"?><svg xmlns="http://www.w3.org/2000/svg" xmlns:xlink="http://www.w3.org/1999/xlink" stroke-dasharray="none" shape-rendering="auto" font-family="'Dialog'" width="512" text-rendering="auto" fill-opacity="1" contentScriptType="text/ecmascript" color-interpolation="auto" color-rendering="auto" preserveAspectRatio="xMidYMid meet" font-size="12" viewBox="0 0 512 239" fill="black" stroke="black" image-rendering="auto" stroke-miterlimit="10" zoomAndPan="magnify" version="1.0" stroke-linecap="square" stroke-linejoin="miter" contentStyleType="text/css" font-style="normal" height="239" stroke-width="1" stroke-dashoffset="0" font-weight="normal" stroke-opacity="1">
<!--Generated by the Batik Graphics2D SVG Generator-->
<defs id="genericDefs"/>
<g>
<defs id="defs1">
<clipPath clipPathUnits="userSpaceOnUse" id="clipPath1">
<path d="M106 9 L409 9 L409 62 L106 62 L106 9 Z"/>
</clipPath>
<clipPath clipPathUnits="userSpaceOnUse" id="clipPath2">
<path d="M212 12 L302 12 L302 25 L212 25 L212 12 Z"/>
</clipPath>
<clipPath clipPathUnits="userSpaceOnUse" id="clipPath3">
<path d="M106 24 L409 24 L409 42 L106 42 L106 24 Z"/>
</clipPath>
<clipPath clipPathUnits="userSpaceOnUse" id="clipPath4">
<path d="M111 43 L404 43 L404 56 L111 56 L111 43 Z"/>
</clipPath>
<clipPath clipPathUnits="userSpaceOnUse" id="clipPath5">
<path d="M106 41 L409 41 L409 61 L106 61 L106 41 Z"/>
</clipPath>
<clipPath clipPathUnits="userSpaceOnUse" id="clipPath6">
<path d="M9 152 L135 152 L135 229 L9 229 L9 152 Z"/>
</clipPath>
<clipPath clipPathUnits="userSpaceOnUse" id="clipPath7">
<path d="M10 155 L134 155 L134 168 L10 168 L10 155 Z"/>
</clipPath>
<clipPath clipPathUnits="userSpaceOnUse" id="clipPath8">
<path d="M9 167 L135 167 L135 191 L9 191 L9 167 Z"/>
</clipPath>
<clipPath clipPathUnits="userSpaceOnUse" id="clipPath9">
<path d="M14 192 L80 192 L80 205 L14 205 L14 192 Z"/>
</clipPath>
<clipPath clipPathUnits="userSpaceOnUse" id="clipPath10">
<path d="M14 203 L77 203 L77 216 L14 216 L14 203 Z"/>
</clipPath>
<clipPath clipPathUnits="userSpaceOnUse" id="clipPath11">
<path d="M9 190 L135 190 L135 228 L9 228 L9 190 Z"/>
</clipPath>
<clipPath clipPathUnits="userSpaceOnUse" id="clipPath12">
<path d="M379 152 L502 152 L502 229 L379 229 L379 152 Z"/>
</clipPath>
<clipPath clipPathUnits="userSpaceOnUse" id="clipPath13">
<path d="M380 155 L501 155 L501 168 L380 168 L380 155 Z"/>
</clipPath>
<clipPath clipPathUnits="userSpaceOnUse" id="clipPath14">
<path d="M379 167 L502 167 L502 191 L379 191 L379 167 Z"/>
</clipPath>
<clipPath clipPathUnits="userSpaceOnUse" id="clipPath15">
<path d="M384 192 L447 192 L447 205 L384 205 L384 192 Z"/>
</clipPath>
<clipPath clipPathUnits="userSpaceOnUse" id="clipPath16">
<path d="M384 203 L450 203 L450 216 L384 216 L384 203 Z"/>
</clipPath>
<clipPath clipPathUnits="userSpaceOnUse" id="clipPath17">
<path d="M379 190 L502 190 L502 228 L379 228 L379 190 Z"/>
</clipPath>
<clipPath clipPathUnits="userSpaceOnUse" id="clipPath18">
<path d="M163 152 L353 152 L353 230 L163 230 L163 152 Z"/>
</clipPath>
<clipPath clipPathUnits="userSpaceOnUse" id="clipPath19">
<path d="M202 155 L313 155 L313 168 L202 168 L202 155 Z"/>
</clipPath>
<clipPath clipPathUnits="userSpaceOnUse" id="clipPath20">
<path d="M163 167 L353 167 L353 188 L163 188 L163 167 Z"/>
</clipPath>
<clipPath clipPathUnits="userSpaceOnUse" id="clipPath21">
<path d="M168 189 L234 189 L234 202 L168 202 L168 189 Z"/>
</clipPath>
<clipPath clipPathUnits="userSpaceOnUse" id="clipPath22">
<path d="M168 200 L231 200 L231 213 L168 213 L168 200 Z"/>
</clipPath>
<clipPath clipPathUnits="userSpaceOnUse" id="clipPath23">
<path d="M168 211 L348 211 L348 224 L168 224 L168 211 Z"/>
</clipPath>
<clipPath clipPathUnits="userSpaceOnUse" id="clipPath24">
<path d="M163 187 L353 187 L353 229 L163 229 L163 187 Z"/>
</clipPath>
<clipPath clipPathUnits="userSpaceOnUse" id="clipPath25">
<path d="M-1 -1 L513 -1 L513 240 L-1 240 L-1 -1 Z"/>
</clipPath>
<clipPath clipPathUnits="userSpaceOnUse" id="clipPath26">
<path d="M248 60 L267 60 L267 73 L248 73 L248 60 Z"/>
</clipPath>
</defs>
<g font-size="11" fill="white" stroke-linejoin="round" stroke="white" stroke-width="0" stroke-miterlimit="0">
<rect x="107" y="10" clip-path="url(#clipPath1)" width="301" rx="0" ry="0" height="51" stroke="none"/>
</g>
<g font-size="9" font-family="'Helvetica'" stroke-linejoin="round" font-style="italic" font-weight="bold" stroke-width="0" stroke-miterlimit="0">
<text xml:space="preserve" x="213" y="20" clip-path="url(#clipPath2)" stroke="none">TransitionActivation</text>
</g>
<g font-size="11" stroke-width="1.1" stroke-linecap="butt">
<line clip-path="url(#clipPath3)" fill="none" x1="107" x2="408" y1="25" y2="25"/>
<text x="112" font-size="9" y="51" clip-path="url(#clipPath4)" font-family="'Helvetica'" stroke="none" xml:space="preserve"> + canFireOn(  in eventOccurrence: EventOccurrence [1]): Boolean [1]</text>
<line clip-path="url(#clipPath5)" fill="none" x1="107" x2="408" y1="42" y2="42"/>
<rect x="107" y="10" clip-path="url(#clipPath1)" fill="none" width="300" rx="0" ry="0" height="50"/>
<rect x="10" y="153" clip-path="url(#clipPath6)" fill="white" width="124" rx="0" ry="0" height="75" stroke="none"/>
<text x="11" font-size="9" y="163" clip-path="url(#clipPath7)" font-family="'Helvetica'" stroke="none" font-weight="bold" xml:space="preserve">ExternalTransitionActivation</text>
<line clip-path="url(#clipPath8)" fill="none" x1="10" x2="134" y1="168" y2="168"/>
<text x="15" font-size="9" y="200" clip-path="url(#clipPath9)" font-family="'Helvetica'" stroke="none" xml:space="preserve"> # enterTarget()</text>
<text x="15" font-size="9" y="211" clip-path="url(#clipPath10)" font-family="'Helvetica'" stroke="none" xml:space="preserve"> # exitSource()</text>
<line clip-path="url(#clipPath11)" fill="none" x1="10" x2="134" y1="191" y2="191"/>
<rect x="10" y="153" clip-path="url(#clipPath6)" fill="none" width="123" rx="0" ry="0" height="74"/>
<rect x="380" y="153" clip-path="url(#clipPath12)" fill="white" width="121" rx="0" ry="0" height="75" stroke="none"/>
<text x="381" font-size="9" y="163" clip-path="url(#clipPath13)" font-family="'Helvetica'" stroke="none" font-weight="bold" xml:space="preserve">InternalTransitionActivation</text>
<line clip-path="url(#clipPath14)" fill="none" x1="380" x2="501" y1="168" y2="168"/>
<text x="385" font-size="9" y="200" clip-path="url(#clipPath15)" font-family="'Helvetica'" stroke="none" xml:space="preserve"> # exitSource()</text>
<text x="385" font-size="9" y="211" clip-path="url(#clipPath16)" font-family="'Helvetica'" stroke="none" xml:space="preserve"> # enterTarget()</text>
<line clip-path="url(#clipPath17)" fill="none" x1="380" x2="501" y1="191" y2="191"/>
<rect x="380" y="153" clip-path="url(#clipPath12)" fill="none" width="120" rx="0" ry="0" height="74"/>
<rect x="164" y="153" clip-path="url(#clipPath18)" fill="white" width="188" rx="0" ry="0" height="76" stroke="none"/>
<text x="203" font-size="9" y="163" clip-path="url(#clipPath19)" font-family="'Helvetica'" stroke="none" font-weight="bold" xml:space="preserve">LocalTransitionActivation</text>
<line clip-path="url(#clipPath20)" fill="none" x1="164" x2="352" y1="168" y2="168"/>
<text x="169" font-size="9" y="197" clip-path="url(#clipPath21)" font-family="'Helvetica'" stroke="none" xml:space="preserve"> # enterTarget()</text>
<text x="169" font-size="9" y="208" clip-path="url(#clipPath22)" font-family="'Helvetica'" stroke="none" xml:space="preserve"> # exitSource()</text>
<text x="169" font-size="9" y="219" clip-path="url(#clipPath23)" font-family="'Helvetica'" stroke="none" xml:space="preserve"> # getContainingState(): StateActivation [1]</text>
<line clip-path="url(#clipPath24)" fill="none" x1="164" x2="352" y1="188" y2="188"/>
<rect x="164" y="153" clip-path="url(#clipPath18)" fill="none" width="187" rx="0" ry="0" height="75"/>
<line clip-path="url(#clipPath25)" fill="none" text-rendering="optimizeLegibility" x1="75" x2="75" y1="153" y2="102"/>
<line clip-path="url(#clipPath25)" fill="none" text-rendering="optimizeLegibility" x1="75" x2="257" y1="102" y2="102"/>
<line clip-path="url(#clipPath25)" fill="none" text-rendering="optimizeLegibility" x1="257" x2="257" y1="102" y2="61"/>
</g>
<g stroke-linecap="butt" font-size="9" fill="white" text-rendering="optimizeLegibility" font-family="'Helvetica'" stroke="white" stroke-width="1.1">
<polygon clip-path="url(#clipPath26)" points=" 257 61 265 71 249 71" stroke="none"/>
<polygon fill="none" clip-path="url(#clipPath26)" points=" 257 61 265 71 249 71" stroke="black"/>
<line clip-path="url(#clipPath25)" fill="none" x1="257" x2="257" y1="153" y2="93" stroke="black"/>
<line clip-path="url(#clipPath25)" fill="none" x1="257" x2="257" y1="93" y2="93" stroke="black"/>
<line clip-path="url(#clipPath25)" fill="none" x1="257" x2="257" y1="93" y2="61" stroke="black"/>
<polygon clip-path="url(#clipPath26)" points=" 257 61 265 71 249 71" stroke="none"/>
<polygon fill="none" clip-path="url(#clipPath26)" points=" 257 61 265 71 249 71" stroke="black"/>
<line clip-path="url(#clipPath25)" fill="none" x1="432" x2="432" y1="153" y2="102" stroke="black"/>
<line clip-path="url(#clipPath25)" fill="none" x1="432" x2="257" y1="102" y2="102" stroke="black"/>
<line clip-path="url(#clipPath25)" fill="none" x1="257" x2="257" y1="102" y2="61" stroke="black"/>
<polygon clip-path="url(#clipPath26)" points=" 257 61 265 71 249 71" stroke="none"/>
<polygon fill="none" clip-path="url(#clipPath26)" points=" 257 61 265 71 249 71" stroke="black"/>
</g>
</g>
</svg>
