<?xml version="1.0" encoding="UTF-8"?><svg xmlns="http://www.w3.org/2000/svg" xmlns:xlink="http://www.w3.org/1999/xlink" stroke-dasharray="none" shape-rendering="auto" font-family="'Dialog'" width="992" text-rendering="auto" fill-opacity="1" contentScriptType="text/ecmascript" color-interpolation="auto" color-rendering="auto" preserveAspectRatio="xMidYMid meet" font-size="12" viewBox="0 0 992 522" fill="black" stroke="black" image-rendering="auto" stroke-miterlimit="10" zoomAndPan="magnify" version="1.0" stroke-linecap="square" stroke-linejoin="miter" contentStyleType="text/css" font-style="normal" height="522" stroke-width="1" stroke-dashoffset="0" font-weight="normal" stroke-opacity="1">
<!--Generated by the Batik Graphics2D SVG Generator-->
<defs id="genericDefs"/>
<g>
<defs id="defs1">
<clipPath clipPathUnits="userSpaceOnUse" id="clipPath1">
<path d="M251 235 L573 235 L573 375 L251 375 L251 235 Z"/>
</clipPath>
<clipPath clipPathUnits="userSpaceOnUse" id="clipPath2">
<path d="M361 238 L462 238 L462 251 L361 251 L361 238 Z"/>
</clipPath>
<clipPath clipPathUnits="userSpaceOnUse" id="clipPath3">
<path d="M251 250 L573 250 L573 273 L251 273 L251 250 Z"/>
</clipPath>
<clipPath clipPathUnits="userSpaceOnUse" id="clipPath4">
<path d="M256 274 L308 274 L308 287 L256 287 L256 274 Z"/>
</clipPath>
<clipPath clipPathUnits="userSpaceOnUse" id="clipPath5">
<path d="M256 285 L339 285 L339 298 L256 298 L256 285 Z"/>
</clipPath>
<clipPath clipPathUnits="userSpaceOnUse" id="clipPath6">
<path d="M256 296 L320 296 L320 309 L256 309 L256 296 Z"/>
</clipPath>
<clipPath clipPathUnits="userSpaceOnUse" id="clipPath7">
<path d="M256 307 L342 307 L342 320 L256 320 L256 307 Z"/>
</clipPath>
<clipPath clipPathUnits="userSpaceOnUse" id="clipPath8">
<path d="M256 318 L521 318 L521 331 L256 331 L256 318 Z"/>
</clipPath>
<clipPath clipPathUnits="userSpaceOnUse" id="clipPath9">
<path d="M256 329 L456 329 L456 342 L256 342 L256 329 Z"/>
</clipPath>
<clipPath clipPathUnits="userSpaceOnUse" id="clipPath10">
<path d="M256 340 L313 340 L313 353 L256 353 L256 340 Z"/>
</clipPath>
<clipPath clipPathUnits="userSpaceOnUse" id="clipPath11">
<path d="M256 351 L568 351 L568 364 L256 364 L256 351 Z"/>
</clipPath>
<clipPath clipPathUnits="userSpaceOnUse" id="clipPath12">
<path d="M251 272 L573 272 L573 374 L251 374 L251 272 Z"/>
</clipPath>
<clipPath clipPathUnits="userSpaceOnUse" id="clipPath13">
<path d="M288 128 L537 128 L537 181 L288 181 L288 128 Z"/>
</clipPath>
<clipPath clipPathUnits="userSpaceOnUse" id="clipPath14">
<path d="M289 142 L537 142 L537 155 L289 155 L289 142 Z"/>
</clipPath>
<clipPath clipPathUnits="userSpaceOnUse" id="clipPath15">
<path d="M390 154 L436 154 L436 167 L390 167 L390 154 Z"/>
</clipPath>
<clipPath clipPathUnits="userSpaceOnUse" id="clipPath16">
<path d="M288 24 L537 24 L537 77 L288 77 L288 24 Z"/>
</clipPath>
<clipPath clipPathUnits="userSpaceOnUse" id="clipPath17">
<path d="M289 38 L537 38 L537 51 L289 51 L289 38 Z"/>
</clipPath>
<clipPath clipPathUnits="userSpaceOnUse" id="clipPath18">
<path d="M398 50 L428 50 L428 63 L398 63 L398 50 Z"/>
</clipPath>
<clipPath clipPathUnits="userSpaceOnUse" id="clipPath19">
<path d="M37 24 L161 24 L161 77 L37 77 L37 24 Z"/>
</clipPath>
<clipPath clipPathUnits="userSpaceOnUse" id="clipPath20">
<path d="M38 38 L161 38 L161 51 L38 51 L38 38 Z"/>
</clipPath>
<clipPath clipPathUnits="userSpaceOnUse" id="clipPath21">
<path d="M87 50 L113 50 L113 63 L87 63 L87 50 Z"/>
</clipPath>
<clipPath clipPathUnits="userSpaceOnUse" id="clipPath22">
<path d="M37 279 L161 279 L161 332 L37 332 L37 279 Z"/>
</clipPath>
<clipPath clipPathUnits="userSpaceOnUse" id="clipPath23">
<path d="M38 293 L161 293 L161 306 L38 306 L38 293 Z"/>
</clipPath>
<clipPath clipPathUnits="userSpaceOnUse" id="clipPath24">
<path d="M70 305 L129 305 L129 318 L70 318 L70 305 Z"/>
</clipPath>
<clipPath clipPathUnits="userSpaceOnUse" id="clipPath25">
<path d="M37 461 L161 461 L161 512 L37 512 L37 461 Z"/>
</clipPath>
<clipPath clipPathUnits="userSpaceOnUse" id="clipPath26">
<path d="M38 474 L161 474 L161 487 L38 487 L38 474 Z"/>
</clipPath>
<clipPath clipPathUnits="userSpaceOnUse" id="clipPath27">
<path d="M84 486 L115 486 L115 499 L84 499 L84 486 Z"/>
</clipPath>
<clipPath clipPathUnits="userSpaceOnUse" id="clipPath28">
<path d="M37 128 L161 128 L161 181 L37 181 L37 128 Z"/>
</clipPath>
<clipPath clipPathUnits="userSpaceOnUse" id="clipPath29">
<path d="M38 142 L161 142 L161 155 L38 155 L38 142 Z"/>
</clipPath>
<clipPath clipPathUnits="userSpaceOnUse" id="clipPath30">
<path d="M79 154 L121 154 L121 167 L79 167 L79 154 Z"/>
</clipPath>
<clipPath clipPathUnits="userSpaceOnUse" id="clipPath31">
<path d="M269 462 L371 462 L371 513 L269 513 L269 462 Z"/>
</clipPath>
<clipPath clipPathUnits="userSpaceOnUse" id="clipPath32">
<path d="M284 481 L358 481 L358 494 L284 494 L284 481 Z"/>
</clipPath>
<clipPath clipPathUnits="userSpaceOnUse" id="clipPath33">
<path d="M697 233 L983 233 L983 307 L697 307 L697 233 Z"/>
</clipPath>
<clipPath clipPathUnits="userSpaceOnUse" id="clipPath34">
<path d="M779 236 L900 236 L900 249 L779 249 L779 236 Z"/>
</clipPath>
<clipPath clipPathUnits="userSpaceOnUse" id="clipPath35">
<path d="M697 248 L983 248 L983 271 L697 271 L697 248 Z"/>
</clipPath>
<clipPath clipPathUnits="userSpaceOnUse" id="clipPath36">
<path d="M702 272 L978 272 L978 285 L702 285 L702 272 Z"/>
</clipPath>
<clipPath clipPathUnits="userSpaceOnUse" id="clipPath37">
<path d="M702 283 L928 283 L928 296 L702 296 L702 283 Z"/>
</clipPath>
<clipPath clipPathUnits="userSpaceOnUse" id="clipPath38">
<path d="M697 270 L983 270 L983 306 L697 306 L697 270 Z"/>
</clipPath>
<clipPath clipPathUnits="userSpaceOnUse" id="clipPath39">
<path d="M733 128 L956 128 L956 181 L733 181 L733 128 Z"/>
</clipPath>
<clipPath clipPathUnits="userSpaceOnUse" id="clipPath40">
<path d="M734 142 L956 142 L956 155 L734 155 L734 142 Z"/>
</clipPath>
<clipPath clipPathUnits="userSpaceOnUse" id="clipPath41">
<path d="M812 154 L878 154 L878 167 L812 167 L812 154 Z"/>
</clipPath>
<clipPath clipPathUnits="userSpaceOnUse" id="clipPath42">
<path d="M733 20 L956 20 L956 73 L733 73 L733 20 Z"/>
</clipPath>
<clipPath clipPathUnits="userSpaceOnUse" id="clipPath43">
<path d="M734 34 L956 34 L956 47 L734 47 L734 34 Z"/>
</clipPath>
<clipPath clipPathUnits="userSpaceOnUse" id="clipPath44">
<path d="M809 46 L882 46 L882 59 L809 59 L809 46 Z"/>
</clipPath>
<clipPath clipPathUnits="userSpaceOnUse" id="clipPath45">
<path d="M433 461 L550 461 L550 512 L433 512 L433 461 Z"/>
</clipPath>
<clipPath clipPathUnits="userSpaceOnUse" id="clipPath46">
<path d="M435 480 L550 480 L550 493 L435 493 L435 480 Z"/>
</clipPath>
<clipPath clipPathUnits="userSpaceOnUse" id="clipPath47">
<path d="M-1 -1 L993 -1 L993 523 L-1 523 L-1 -1 Z"/>
</clipPath>
<clipPath clipPathUnits="userSpaceOnUse" id="clipPath48">
<path d="M403 179 L422 179 L422 192 L403 192 L403 179 Z"/>
</clipPath>
<clipPath clipPathUnits="userSpaceOnUse" id="clipPath49">
<path d="M404 75 L423 75 L423 88 L404 88 L404 75 Z"/>
</clipPath>
<clipPath clipPathUnits="userSpaceOnUse" id="clipPath50">
<path d="M180 38 L218 38 L218 51 L180 51 L180 38 Z"/>
</clipPath>
<clipPath clipPathUnits="userSpaceOnUse" id="clipPath51">
<path d="M183 55 L193 55 L193 68 L183 68 L183 55 Z"/>
</clipPath>
<clipPath clipPathUnits="userSpaceOnUse" id="clipPath52">
<path d="M278 53 L288 53 L288 66 L278 66 L278 53 Z"/>
</clipPath>
<clipPath clipPathUnits="userSpaceOnUse" id="clipPath53">
<path d="M159 44 L180 44 L180 59 L159 59 L159 44 Z"/>
</clipPath>
<clipPath clipPathUnits="userSpaceOnUse" id="clipPath54">
<path d="M55 432 L97 432 L97 445 L55 445 L55 432 Z"/>
</clipPath>
<clipPath clipPathUnits="userSpaceOnUse" id="clipPath55">
<path d="M22 372 L95 372 L95 385 L22 385 L22 372 Z"/>
</clipPath>
<clipPath clipPathUnits="userSpaceOnUse" id="clipPath56">
<path d="M103 434 L123 434 L123 447 L103 447 L103 434 Z"/>
</clipPath>
<clipPath clipPathUnits="userSpaceOnUse" id="clipPath57">
<path d="M101 374 L124 374 L124 387 L101 387 L101 374 Z"/>
</clipPath>
<clipPath clipPathUnits="userSpaceOnUse" id="clipPath58">
<path d="M92 443 L107 443 L107 464 L92 464 L92 443 Z"/>
</clipPath>
<clipPath clipPathUnits="userSpaceOnUse" id="clipPath59">
<path d="M92 330 L107 330 L107 373 L92 373 L92 330 Z"/>
</clipPath>
<clipPath clipPathUnits="userSpaceOnUse" id="clipPath60">
<path d="M91 179 L110 179 L110 192 L91 192 L91 179 Z"/>
</clipPath>
<clipPath clipPathUnits="userSpaceOnUse" id="clipPath61">
<path d="M92 75 L111 75 L111 88 L92 88 L92 75 Z"/>
</clipPath>
<clipPath clipPathUnits="userSpaceOnUse" id="clipPath62">
<path d="M260 390 L316 390 L316 403 L260 403 L260 390 Z"/>
</clipPath>
<clipPath clipPathUnits="userSpaceOnUse" id="clipPath63">
<path d="M228 433 L318 433 L318 446 L228 446 L228 433 Z"/>
</clipPath>
<clipPath clipPathUnits="userSpaceOnUse" id="clipPath64">
<path d="M322 391 L345 391 L345 404 L322 404 L322 391 Z"/>
</clipPath>
<clipPath clipPathUnits="userSpaceOnUse" id="clipPath65">
<path d="M322 434 L342 434 L342 447 L322 447 L322 434 Z"/>
</clipPath>
<clipPath clipPathUnits="userSpaceOnUse" id="clipPath66">
<path d="M314 373 L325 373 L325 392 L314 392 L314 373 Z"/>
</clipPath>
<clipPath clipPathUnits="userSpaceOnUse" id="clipPath67">
<path d="M312 444 L327 444 L327 465 L312 465 L312 444 Z"/>
</clipPath>
<clipPath clipPathUnits="userSpaceOnUse" id="clipPath68">
<path d="M606 323 L705 323 L705 336 L606 336 L606 323 Z"/>
</clipPath>
<clipPath clipPathUnits="userSpaceOnUse" id="clipPath69">
<path d="M761 309 L839 309 L839 322 L761 322 L761 309 Z"/>
</clipPath>
<clipPath clipPathUnits="userSpaceOnUse" id="clipPath70">
<path d="M604 345 L615 345 L615 358 L604 358 L604 345 Z"/>
</clipPath>
<clipPath clipPathUnits="userSpaceOnUse" id="clipPath71">
<path d="M844 308 L867 308 L867 321 L844 321 L844 308 Z"/>
</clipPath>
<clipPath clipPathUnits="userSpaceOnUse" id="clipPath72">
<path d="M571 332 L592 332 L592 347 L571 347 L571 332 Z"/>
</clipPath>
<clipPath clipPathUnits="userSpaceOnUse" id="clipPath73">
<path d="M833 179 L852 179 L852 192 L833 192 L833 179 Z"/>
</clipPath>
<clipPath clipPathUnits="userSpaceOnUse" id="clipPath74">
<path d="M722 102 L836 102 L836 115 L722 115 L722 102 Z"/>
</clipPath>
<clipPath clipPathUnits="userSpaceOnUse" id="clipPath75">
<path d="M847 104 L857 104 L857 117 L847 117 L847 104 Z"/>
</clipPath>
<clipPath clipPathUnits="userSpaceOnUse" id="clipPath76">
<path d="M809 75 L832 75 L832 88 L809 88 L809 75 Z"/>
</clipPath>
<clipPath clipPathUnits="userSpaceOnUse" id="clipPath77">
<path d="M833 110 L848 110 L848 131 L833 131 L833 110 Z"/>
</clipPath>
<clipPath clipPathUnits="userSpaceOnUse" id="clipPath78">
<path d="M632 34 L717 34 L717 47 L632 47 L632 34 Z"/>
</clipPath>
<clipPath clipPathUnits="userSpaceOnUse" id="clipPath79">
<path d="M576 36 L618 36 L618 49 L576 49 L576 36 Z"/>
</clipPath>
<clipPath clipPathUnits="userSpaceOnUse" id="clipPath80">
<path d="M694 50 L717 50 L717 63 L694 63 L694 50 Z"/>
</clipPath>
<clipPath clipPathUnits="userSpaceOnUse" id="clipPath81">
<path d="M578 50 L589 50 L589 63 L578 63 L578 50 Z"/>
</clipPath>
<clipPath clipPathUnits="userSpaceOnUse" id="clipPath82">
<path d="M715 41 L736 41 L736 56 L715 56 L715 41 Z"/>
</clipPath>
<clipPath clipPathUnits="userSpaceOnUse" id="clipPath83">
<path d="M535 41 L578 41 L578 56 L535 56 L535 41 Z"/>
</clipPath>
<clipPath clipPathUnits="userSpaceOnUse" id="clipPath84">
<path d="M431 392 L487 392 L487 405 L431 405 L431 392 Z"/>
</clipPath>
<clipPath clipPathUnits="userSpaceOnUse" id="clipPath85">
<path d="M416 431 L488 431 L488 444 L416 444 L416 431 Z"/>
</clipPath>
<clipPath clipPathUnits="userSpaceOnUse" id="clipPath86">
<path d="M494 394 L505 394 L505 407 L494 407 L494 394 Z"/>
</clipPath>
<clipPath clipPathUnits="userSpaceOnUse" id="clipPath87">
<path d="M493 431 L504 431 L504 444 L493 444 L493 431 Z"/>
</clipPath>
<clipPath clipPathUnits="userSpaceOnUse" id="clipPath88">
<path d="M483 373 L498 373 L498 416 L483 416 L483 373 Z"/>
</clipPath>
<clipPath clipPathUnits="userSpaceOnUse" id="clipPath89">
<path d="M483 443 L498 443 L498 464 L483 464 L483 443 Z"/>
</clipPath>
</defs>
<g font-size="11" fill="white" stroke-linejoin="round" stroke="white" stroke-width="0" stroke-miterlimit="0">
<rect x="252" y="236" clip-path="url(#clipPath1)" width="320" rx="0" ry="0" height="138" stroke="none"/>
</g>
<g font-size="9" font-family="'Helvetica'" stroke-linejoin="round" font-weight="bold" stroke-width="0" stroke-miterlimit="0">
<text xml:space="preserve" x="362" y="246" clip-path="url(#clipPath2)" stroke="none">StateMachineExecution</text>
</g>
<g font-size="11" stroke-width="1.1" stroke-linecap="butt">
<line clip-path="url(#clipPath3)" fill="none" x1="252" x2="572" y1="251" y2="251"/>
<text x="257" font-size="9" y="282" clip-path="url(#clipPath4)" font-family="'Helvetica'" stroke="none" xml:space="preserve"> + execute()</text>
<text x="257" font-size="9" y="293" clip-path="url(#clipPath5)" font-family="'Helvetica'" stroke="none" xml:space="preserve"> + new_(): Value [1]</text>
<text x="257" font-size="9" y="304" clip-path="url(#clipPath6)" font-family="'Helvetica'" stroke="none" xml:space="preserve"> # initRegions()</text>
<text x="257" font-size="9" y="315" clip-path="url(#clipPath7)" font-family="'Helvetica'" stroke="none" xml:space="preserve"> + getConfiguration()</text>
<text x="257" font-size="9" y="326" clip-path="url(#clipPath8)" font-family="'Helvetica'" stroke="none" xml:space="preserve"> # getVertexActivation(  in null: Vertex [1]): VertexActivation [1]</text>
<text x="257" font-size="9" y="337" clip-path="url(#clipPath9)" font-family="'Helvetica'" stroke="none" xml:space="preserve"> + getRegionActivation(): RegionActivation [1..*]</text>
<text x="257" font-size="9" y="348" clip-path="url(#clipPath10)" font-family="'Helvetica'" stroke="none" xml:space="preserve"> + terminate()</text>
<text x="257" font-size="9" y="359" clip-path="url(#clipPath11)" font-family="'Helvetica'" stroke="none" xml:space="preserve"> + startBehavior(  in classifier: Class [0..1],   in inputs: ParameterValue [*])</text>
<line clip-path="url(#clipPath12)" fill="none" x1="252" x2="572" y1="273" y2="273"/>
<rect x="252" y="236" clip-path="url(#clipPath1)" fill="none" width="319" rx="0" ry="0" height="137"/>
<rect x="289" y="129" clip-path="url(#clipPath13)" fill="silver" width="247" rx="0" ry="0" height="51" stroke="none"/>
</g>
<g stroke-linecap="butt" font-size="9" font-family="'Helvetica'" font-style="italic" font-weight="bold" stroke-width="1.1">
<text xml:space="preserve" x="309" y="150" clip-path="url(#clipPath14)" stroke="none">(fUML_Semantics::Semantics::CommonBehavior)</text>
<text xml:space="preserve" x="391" y="162" clip-path="url(#clipPath15)" stroke="none">Execution</text>
</g>
<g font-size="11" stroke-width="1.1" stroke-linecap="butt">
<rect x="289" y="129" clip-path="url(#clipPath13)" fill="none" width="246" rx="0" ry="0" height="50"/>
<rect x="289" y="25" clip-path="url(#clipPath16)" fill="silver" width="247" rx="0" ry="0" height="51" stroke="none"/>
<text x="301" font-size="9" y="46" clip-path="url(#clipPath17)" font-family="'Helvetica'" stroke="none" font-weight="bold" xml:space="preserve">(fUML_Semantics::Semantics::StructuredClassifiers)</text>
<text x="399" font-size="9" y="58" clip-path="url(#clipPath18)" font-family="'Helvetica'" stroke="none" font-weight="bold" xml:space="preserve">Object</text>
<rect x="289" y="25" clip-path="url(#clipPath16)" fill="none" width="246" rx="0" ry="0" height="50"/>
<rect x="38" y="25" clip-path="url(#clipPath19)" fill="silver" width="122" rx="0" ry="0" height="51" stroke="none"/>
<text x="39" font-size="9" y="46" clip-path="url(#clipPath20)" font-family="'Helvetica'" stroke="none" font-weight="bold" xml:space="preserve">(UML::StructuredClassifiers)</text>
<text x="88" font-size="9" y="58" clip-path="url(#clipPath21)" font-family="'Helvetica'" stroke="none" font-weight="bold" xml:space="preserve">Class</text>
<rect x="38" y="25" clip-path="url(#clipPath19)" fill="none" width="121" rx="0" ry="0" height="50"/>
<rect x="38" y="280" clip-path="url(#clipPath22)" fill="white" width="122" rx="0" ry="0" height="51" stroke="none"/>
<text x="54" font-size="9" y="301" clip-path="url(#clipPath23)" font-family="'Helvetica'" stroke="none" font-weight="bold" xml:space="preserve">(UML::StateMachines)</text>
<text x="71" font-size="9" y="313" clip-path="url(#clipPath24)" font-family="'Helvetica'" stroke="none" font-weight="bold" xml:space="preserve">StateMachine</text>
<rect x="38" y="280" clip-path="url(#clipPath22)" fill="none" width="121" rx="0" ry="0" height="50"/>
<rect x="38" y="462" clip-path="url(#clipPath25)" fill="white" width="122" rx="0" ry="0" height="49" stroke="none"/>
<text x="54" font-size="9" y="482" clip-path="url(#clipPath26)" font-family="'Helvetica'" stroke="none" font-weight="bold" xml:space="preserve">(UML::StateMachines)</text>
<text x="85" font-size="9" y="494" clip-path="url(#clipPath27)" font-family="'Helvetica'" stroke="none" font-weight="bold" xml:space="preserve">Region</text>
<rect x="38" y="462" clip-path="url(#clipPath25)" fill="none" width="121" rx="0" ry="0" height="48"/>
<rect x="38" y="129" clip-path="url(#clipPath28)" fill="silver" width="122" rx="0" ry="0" height="51" stroke="none"/>
</g>
<g stroke-linecap="butt" font-size="9" font-family="'Helvetica'" font-style="italic" font-weight="bold" stroke-width="1.1">
<text xml:space="preserve" x="47" y="150" clip-path="url(#clipPath29)" stroke="none">(UML::CommonBehavior)</text>
<text xml:space="preserve" x="80" y="162" clip-path="url(#clipPath30)" stroke="none">Behavior</text>
</g>
<g font-size="11" stroke-width="1.1" stroke-linecap="butt">
<rect x="38" y="129" clip-path="url(#clipPath28)" fill="none" width="121" rx="0" ry="0" height="50"/>
<rect x="270" y="463" clip-path="url(#clipPath31)" fill="white" width="100" rx="0" ry="0" height="49" stroke="none"/>
<text x="285" font-size="9" y="489" clip-path="url(#clipPath32)" font-family="'Helvetica'" stroke="none" font-weight="bold" xml:space="preserve">RegionActivation</text>
<rect x="270" y="463" clip-path="url(#clipPath31)" fill="none" width="99" rx="0" ry="0" height="48"/>
<rect x="698" y="234" clip-path="url(#clipPath33)" fill="white" width="284" rx="0" ry="0" height="72" stroke="none"/>
<text x="780" font-size="9" y="244" clip-path="url(#clipPath34)" font-family="'Helvetica'" stroke="none" font-weight="bold" xml:space="preserve">StateMachineEventAccepter</text>
<line clip-path="url(#clipPath35)" fill="none" x1="698" x2="982" y1="249" y2="249"/>
<text x="703" font-size="9" y="280" clip-path="url(#clipPath36)" font-family="'Helvetica'" stroke="none" xml:space="preserve"> + match(  in eventOccurrence: EventOccurrence [1]): Boolean [1]</text>
<text x="703" font-size="9" y="291" clip-path="url(#clipPath37)" font-family="'Helvetica'" stroke="none" xml:space="preserve"> + accept(  in eventOccurrence: EventOccurrence [1])</text>
<line clip-path="url(#clipPath38)" fill="none" x1="698" x2="982" y1="271" y2="271"/>
<rect x="698" y="234" clip-path="url(#clipPath33)" fill="none" width="283" rx="0" ry="0" height="71"/>
<rect x="734" y="129" clip-path="url(#clipPath39)" fill="silver" width="221" rx="0" ry="0" height="51" stroke="none"/>
</g>
<g stroke-linecap="butt" font-size="9" font-family="'Helvetica'" font-style="italic" font-weight="bold" stroke-width="1.1">
<text xml:space="preserve" x="741" y="150" clip-path="url(#clipPath40)" stroke="none">(fUML_Semantics::Semantics::CommonBehavior)</text>
<text xml:space="preserve" x="813" y="162" clip-path="url(#clipPath41)" stroke="none">EventAccepter</text>
</g>
<g font-size="11" stroke-width="1.1" stroke-linecap="butt">
<rect x="734" y="129" clip-path="url(#clipPath39)" fill="none" width="220" rx="0" ry="0" height="50"/>
<rect x="734" y="21" clip-path="url(#clipPath42)" fill="silver" width="221" rx="0" ry="0" height="51" stroke="none"/>
<text x="741" font-size="9" y="42" clip-path="url(#clipPath43)" font-family="'Helvetica'" stroke="none" font-weight="bold" xml:space="preserve">(fUML_Semantics::Semantics::CommonBehavior)</text>
<text x="810" font-size="9" y="54" clip-path="url(#clipPath44)" font-family="'Helvetica'" stroke="none" font-weight="bold" xml:space="preserve">ObjectActivation</text>
<rect x="734" y="21" clip-path="url(#clipPath42)" fill="none" width="220" rx="0" ry="0" height="50"/>
<line clip-path="url(#clipPath42)" fill="none" x1="738" x2="738" y1="21" y2="71"/>
<line clip-path="url(#clipPath42)" fill="none" x1="950" x2="950" y1="21" y2="71"/>
<line clip-path="url(#clipPath42)" fill="none" x1="736" x2="736" y1="22" y2="70" stroke="silver" stroke-width="3.1"/>
<line clip-path="url(#clipPath42)" fill="none" x1="952" x2="952" y1="22" y2="70" stroke="silver" stroke-width="3.1"/>
<rect x="434" y="462" clip-path="url(#clipPath45)" fill="white" width="115" rx="0" ry="0" height="49" stroke="none" stroke-width="3.1"/>
</g>
<g stroke-width="3.1" font-size="9" font-family="'Helvetica'" font-weight="bold" stroke-linecap="butt">
<text xml:space="preserve" x="436" y="488" clip-path="url(#clipPath46)" stroke="none">StateMachineConfiguration</text>
</g>
<g font-size="11" stroke-width="1.1" stroke-linecap="butt">
<rect x="434" y="462" clip-path="url(#clipPath45)" fill="none" width="114" rx="0" ry="0" height="48"/>
<line clip-path="url(#clipPath47)" fill="none" text-rendering="optimizeLegibility" x1="412" x2="412" y1="236" y2="180"/>
</g>
<g stroke-linecap="butt" font-size="9" fill="white" text-rendering="optimizeLegibility" stroke="white" stroke-width="1.1">
<polygon clip-path="url(#clipPath48)" points=" 412 180 420 190 404 190" stroke="none"/>
<polygon fill="none" clip-path="url(#clipPath48)" points=" 412 180 420 190 404 190" stroke="black"/>
<line clip-path="url(#clipPath47)" fill="none" x1="413" x2="413" y1="129" y2="76" stroke="black"/>
<polygon clip-path="url(#clipPath49)" points=" 413 76 421 86 405 86" stroke="none"/>
<polygon fill="none" clip-path="url(#clipPath49)" points=" 413 76 421 86 405 86" stroke="black"/>
<line clip-path="url(#clipPath47)" fill="none" x1="160" x2="289" y1="51" y2="51" stroke="black"/>
<text x="181" y="48" clip-path="url(#clipPath50)" fill="black" stroke="none" xml:space="preserve"> + types</text>
<text x="184" y="65" clip-path="url(#clipPath51)" fill="black" stroke="none" xml:space="preserve"> *</text>
<text x="279" y="63" clip-path="url(#clipPath52)" fill="black" stroke="none" xml:space="preserve"> *</text>
<polygon fill="black" clip-path="url(#clipPath53)" points=" 160 50 162 48 164 48 166 50 166 51 178 45 166 51 178 57 166 51 166 52 164 54 162 54 160 52" stroke="none"/>
<polygon fill="none" clip-path="url(#clipPath53)" points=" 160 50 162 48 164 48 166 50 166 51 178 45 166 51 178 57 166 51 166 52 164 54 162 54 160 52" stroke="black"/>
<line clip-path="url(#clipPath47)" fill="none" x1="99" x2="99" y1="462" y2="331" stroke="black"/>
<text x="56" y="442" clip-path="url(#clipPath54)" fill="black" stroke="none" xml:space="preserve"> + region</text>
<text x="23" y="382" clip-path="url(#clipPath55)" fill="black" stroke="none" xml:space="preserve"> + stateMachine</text>
<text x="104" y="444" clip-path="url(#clipPath56)" fill="black" stroke="none" xml:space="preserve"> 1..*</text>
<text x="102" y="384" clip-path="url(#clipPath57)" fill="black" stroke="none" xml:space="preserve"> 0..1</text>
<polygon fill="black" clip-path="url(#clipPath58)" points=" 98 462 96 460 96 458 98 456 99 456 93 444 99 456 105 444 99 456 100 456 102 458 102 460 100 462" stroke="none"/>
<polygon fill="none" clip-path="url(#clipPath58)" points=" 98 462 96 460 96 458 98 456 99 456 93 444 99 456 105 444 99 456 100 456 102 458 102 460 100 462" stroke="black"/>
<polygon fill="black" clip-path="url(#clipPath59)" points=" 100 331 101 333 101 335 100 337 99 337 104 346 99 355 105 371 99 355 93 371 99 355 95 346 99 337 98 337 97 335 97 333 98 331" stroke="none"/>
<polygon fill="none" clip-path="url(#clipPath59)" points=" 100 331 101 333 101 335 100 337 99 337 104 346 99 355 105 371 99 355 93 371 99 355 95 346 99 337 98 337 97 335 97 333 98 331" stroke="black"/>
<line clip-path="url(#clipPath47)" fill="none" x1="100" x2="100" y1="280" y2="180" stroke="black"/>
<polygon clip-path="url(#clipPath60)" points=" 100 180 108 190 92 190" stroke="none"/>
<polygon fill="none" clip-path="url(#clipPath60)" points=" 100 180 108 190 92 190" stroke="black"/>
<line clip-path="url(#clipPath47)" fill="none" x1="101" x2="101" y1="129" y2="76" stroke="black"/>
<polygon clip-path="url(#clipPath61)" points=" 101 76 109 86 93 86" stroke="none"/>
<polygon fill="none" clip-path="url(#clipPath61)" points=" 101 76 109 86 93 86" stroke="black"/>
<line clip-path="url(#clipPath47)" fill="none" x1="319" x2="319" y1="374" y2="463" stroke="black"/>
<text x="261" y="400" clip-path="url(#clipPath62)" fill="black" stroke="none" xml:space="preserve"> + execution</text>
<text x="229" y="443" clip-path="url(#clipPath63)" fill="black" stroke="none" xml:space="preserve"> + regionActivations</text>
<text x="323" y="401" clip-path="url(#clipPath64)" fill="black" stroke="none" xml:space="preserve"> 0..1</text>
<text x="323" y="444" clip-path="url(#clipPath65)" fill="black" stroke="none" xml:space="preserve"> 1..*</text>
<polygon fill="black" clip-path="url(#clipPath66)" points=" 319 374 323 382 319 390 315 382" stroke="none"/>
<polygon fill="none" clip-path="url(#clipPath66)" points=" 319 374 323 382 319 390 315 382" stroke="black"/>
<polygon fill="black" clip-path="url(#clipPath67)" points=" 318 463 316 461 316 459 318 457 319 457 313 445 319 457 325 445 319 457 320 457 322 459 322 461 320 463" stroke="none"/>
<polygon fill="none" clip-path="url(#clipPath67)" points=" 318 463 316 461 316 459 318 457 319 457 313 445 319 457 325 445 319 457 320 457 322 459 322 461 320 463" stroke="black"/>
<line clip-path="url(#clipPath47)" fill="none" x1="572" x2="840" y1="339" y2="339" stroke="black"/>
<line clip-path="url(#clipPath47)" fill="none" x1="840" x2="840" y1="339" y2="306" stroke="black"/>
<text x="607" y="333" clip-path="url(#clipPath68)" fill="black" stroke="none" xml:space="preserve"> + registrationContext</text>
<text x="762" y="319" clip-path="url(#clipPath69)" fill="black" stroke="none" xml:space="preserve"> + eventAccepter</text>
<text x="605" y="355" clip-path="url(#clipPath70)" fill="black" stroke="none" xml:space="preserve"> 1</text>
<text x="845" y="318" clip-path="url(#clipPath71)" fill="black" stroke="none" xml:space="preserve"> 0..1</text>
<polygon fill="black" clip-path="url(#clipPath72)" points=" 572 338 574 336 576 336 578 338 578 339 590 333 578 339 590 345 578 339 578 340 576 342 574 342 572 340" stroke="none"/>
<polygon fill="none" clip-path="url(#clipPath72)" points=" 572 338 574 336 576 336 578 338 578 339 590 333 578 339 590 345 578 339 578 340 576 342 574 342 572 340" stroke="black"/>
<line clip-path="url(#clipPath47)" fill="none" x1="842" x2="842" y1="234" y2="180" stroke="black"/>
<polygon clip-path="url(#clipPath73)" points=" 842 180 850 190 834 190" stroke="none"/>
<polygon fill="none" clip-path="url(#clipPath73)" points=" 842 180 850 190 834 190" stroke="black"/>
<line clip-path="url(#clipPath47)" fill="none" x1="840" x2="840" y1="129" y2="72" stroke="black"/>
<text x="723" y="112" clip-path="url(#clipPath74)" fill="black" stroke="none" xml:space="preserve"> + waitingEventAccepters</text>
<text x="848" y="114" clip-path="url(#clipPath75)" fill="black" stroke="none" xml:space="preserve"> *</text>
<text x="810" y="85" clip-path="url(#clipPath76)" fill="black" stroke="none" xml:space="preserve"> 0..1</text>
<polygon fill="black" clip-path="url(#clipPath77)" points=" 839 129 837 127 837 125 839 123 840 123 834 111 840 123 846 111 840 123 841 123 843 125 843 127 841 129" stroke="none"/>
<polygon fill="none" clip-path="url(#clipPath77)" points=" 839 129 837 127 837 125 839 123 840 123 834 111 840 123 846 111 840 123 841 123 843 125 843 127 841 129" stroke="black"/>
<line clip-path="url(#clipPath47)" fill="none" x1="734" x2="536" y1="48" y2="48" stroke="black"/>
<text x="633" y="44" clip-path="url(#clipPath78)" fill="black" stroke="none" xml:space="preserve"> + objectActivation</text>
<text x="577" y="46" clip-path="url(#clipPath79)" fill="black" stroke="none" xml:space="preserve"> + object</text>
<text x="695" y="60" clip-path="url(#clipPath80)" fill="black" stroke="none" xml:space="preserve"> 0..1</text>
<text x="579" y="60" clip-path="url(#clipPath81)" fill="black" stroke="none" xml:space="preserve"> 1</text>
<polygon fill="black" clip-path="url(#clipPath82)" points=" 734 49 732 51 730 51 728 49 728 48 716 54 728 48 716 42 728 48 728 47 730 45 732 45 734 47" stroke="none"/>
<polygon fill="none" clip-path="url(#clipPath82)" points=" 734 49 732 51 730 51 728 49 728 48 716 54 728 48 716 42 728 48 728 47 730 45 732 45 734 47" stroke="black"/>
<polygon fill="black" clip-path="url(#clipPath83)" points=" 536 47 538 46 540 46 542 47 542 48 551 44 560 48 576 42 560 48 576 54 560 48 551 53 542 48 542 49 540 50 538 50 536 49" stroke="none"/>
<polygon fill="none" clip-path="url(#clipPath83)" points=" 536 47 538 46 540 46 542 47 542 48 551 44 560 48 576 42 560 48 576 54 560 48 551 53 542 48 542 49 540 50 538 50 536 49" stroke="black"/>
<line clip-path="url(#clipPath47)" fill="none" x1="490" x2="490" y1="374" y2="462" stroke="black"/>
<text x="432" y="402" clip-path="url(#clipPath84)" fill="black" stroke="none" xml:space="preserve"> + execution</text>
<text x="417" y="441" clip-path="url(#clipPath85)" fill="black" stroke="none" xml:space="preserve"> + configuration</text>
<text x="495" y="404" clip-path="url(#clipPath86)" fill="black" stroke="none" xml:space="preserve"> 1</text>
<text x="494" y="441" clip-path="url(#clipPath87)" fill="black" stroke="none" xml:space="preserve"> 1</text>
<polygon fill="black" clip-path="url(#clipPath88)" points=" 491 374 492 376 492 378 491 380 490 380 495 389 490 398 496 414 490 398 484 414 490 398 486 389 490 380 489 380 488 378 488 376 489 374" stroke="none"/>
<polygon fill="none" clip-path="url(#clipPath88)" points=" 491 374 492 376 492 378 491 380 490 380 495 389 490 398 496 414 490 398 484 414 490 398 486 389 490 380 489 380 488 378 488 376 489 374" stroke="black"/>
<polygon fill="black" clip-path="url(#clipPath89)" points=" 489 462 487 460 487 458 489 456 490 456 484 444 490 456 496 444 490 456 491 456 493 458 493 460 491 462" stroke="none"/>
<polygon fill="none" clip-path="url(#clipPath89)" points=" 489 462 487 460 487 458 489 456 490 456 484 444 490 456 496 444 490 456 491 456 493 458 493 460 491 462" stroke="black"/>
</g>
</g>
</svg>
