<?xml version="1.0" encoding="UTF-8"?><svg xmlns="http://www.w3.org/2000/svg" xmlns:xlink="http://www.w3.org/1999/xlink" stroke-dasharray="none" shape-rendering="auto" font-family="'Dialog'" width="1244" text-rendering="auto" fill-opacity="1" contentScriptType="text/ecmascript" color-interpolation="auto" color-rendering="auto" preserveAspectRatio="xMidYMid meet" font-size="12" viewBox="0 0 1244 522" fill="black" stroke="black" image-rendering="auto" stroke-miterlimit="10" zoomAndPan="magnify" version="1.0" stroke-linecap="square" stroke-linejoin="miter" contentStyleType="text/css" font-style="normal" height="522" stroke-width="1" stroke-dashoffset="0" font-weight="normal" stroke-opacity="1">
<!--Generated by the Batik Graphics2D SVG Generator-->
<defs id="genericDefs"/>
<g>
<defs id="defs1">
<clipPath clipPathUnits="userSpaceOnUse" id="clipPath1">
<path d="M249 235 L571 235 L571 375 L249 375 L249 235 Z"/>
</clipPath>
<clipPath clipPathUnits="userSpaceOnUse" id="clipPath2">
<path d="M359 238 L460 238 L460 250 L359 250 L359 238 Z"/>
</clipPath>
<clipPath clipPathUnits="userSpaceOnUse" id="clipPath3">
<path d="M249 249 L571 249 L571 274 L249 274 L249 249 Z"/>
</clipPath>
<clipPath clipPathUnits="userSpaceOnUse" id="clipPath4">
<path d="M254 275 L306 275 L306 287 L254 287 L254 275 Z"/>
</clipPath>
<clipPath clipPathUnits="userSpaceOnUse" id="clipPath5">
<path d="M254 285 L337 285 L337 297 L254 297 L254 285 Z"/>
</clipPath>
<clipPath clipPathUnits="userSpaceOnUse" id="clipPath6">
<path d="M254 295 L318 295 L318 307 L254 307 L254 295 Z"/>
</clipPath>
<clipPath clipPathUnits="userSpaceOnUse" id="clipPath7">
<path d="M254 305 L340 305 L340 317 L254 317 L254 305 Z"/>
</clipPath>
<clipPath clipPathUnits="userSpaceOnUse" id="clipPath8">
<path d="M254 315 L531 315 L531 327 L254 327 L254 315 Z"/>
</clipPath>
<clipPath clipPathUnits="userSpaceOnUse" id="clipPath9">
<path d="M254 325 L454 325 L454 337 L254 337 L254 325 Z"/>
</clipPath>
<clipPath clipPathUnits="userSpaceOnUse" id="clipPath10">
<path d="M254 335 L311 335 L311 347 L254 347 L254 335 Z"/>
</clipPath>
<clipPath clipPathUnits="userSpaceOnUse" id="clipPath11">
<path d="M254 345 L566 345 L566 357 L254 357 L254 345 Z"/>
</clipPath>
<clipPath clipPathUnits="userSpaceOnUse" id="clipPath12">
<path d="M249 273 L571 273 L571 374 L249 374 L249 273 Z"/>
</clipPath>
<clipPath clipPathUnits="userSpaceOnUse" id="clipPath13">
<path d="M285 128 L534 128 L534 181 L285 181 L285 128 Z"/>
</clipPath>
<clipPath clipPathUnits="userSpaceOnUse" id="clipPath14">
<path d="M304 143 L517 143 L517 155 L304 155 L304 143 Z"/>
</clipPath>
<clipPath clipPathUnits="userSpaceOnUse" id="clipPath15">
<path d="M387 154 L433 154 L433 166 L387 166 L387 154 Z"/>
</clipPath>
<clipPath clipPathUnits="userSpaceOnUse" id="clipPath16">
<path d="M286 24 L535 24 L535 77 L286 77 L286 24 Z"/>
</clipPath>
<clipPath clipPathUnits="userSpaceOnUse" id="clipPath17">
<path d="M297 39 L525 39 L525 51 L297 51 L297 39 Z"/>
</clipPath>
<clipPath clipPathUnits="userSpaceOnUse" id="clipPath18">
<path d="M396 50 L426 50 L426 62 L396 62 L396 50 Z"/>
</clipPath>
<clipPath clipPathUnits="userSpaceOnUse" id="clipPath19">
<path d="M35 24 L159 24 L159 77 L35 77 L35 24 Z"/>
</clipPath>
<clipPath clipPathUnits="userSpaceOnUse" id="clipPath20">
<path d="M36 39 L159 39 L159 51 L36 51 L36 39 Z"/>
</clipPath>
<clipPath clipPathUnits="userSpaceOnUse" id="clipPath21">
<path d="M85 50 L111 50 L111 62 L85 62 L85 50 Z"/>
</clipPath>
<clipPath clipPathUnits="userSpaceOnUse" id="clipPath22">
<path d="M35 279 L159 279 L159 332 L35 332 L35 279 Z"/>
</clipPath>
<clipPath clipPathUnits="userSpaceOnUse" id="clipPath23">
<path d="M51 294 L145 294 L145 306 L51 306 L51 294 Z"/>
</clipPath>
<clipPath clipPathUnits="userSpaceOnUse" id="clipPath24">
<path d="M68 305 L127 305 L127 317 L68 317 L68 305 Z"/>
</clipPath>
<clipPath clipPathUnits="userSpaceOnUse" id="clipPath25">
<path d="M35 461 L159 461 L159 512 L35 512 L35 461 Z"/>
</clipPath>
<clipPath clipPathUnits="userSpaceOnUse" id="clipPath26">
<path d="M51 475 L145 475 L145 487 L51 487 L51 475 Z"/>
</clipPath>
<clipPath clipPathUnits="userSpaceOnUse" id="clipPath27">
<path d="M82 486 L113 486 L113 498 L82 498 L82 486 Z"/>
</clipPath>
<clipPath clipPathUnits="userSpaceOnUse" id="clipPath28">
<path d="M35 128 L159 128 L159 181 L35 181 L35 128 Z"/>
</clipPath>
<clipPath clipPathUnits="userSpaceOnUse" id="clipPath29">
<path d="M43 143 L152 143 L152 155 L43 155 L43 143 Z"/>
</clipPath>
<clipPath clipPathUnits="userSpaceOnUse" id="clipPath30">
<path d="M77 154 L119 154 L119 166 L77 166 L77 154 Z"/>
</clipPath>
<clipPath clipPathUnits="userSpaceOnUse" id="clipPath31">
<path d="M267 462 L369 462 L369 513 L267 513 L267 462 Z"/>
</clipPath>
<clipPath clipPathUnits="userSpaceOnUse" id="clipPath32">
<path d="M282 481 L356 481 L356 493 L282 493 L282 481 Z"/>
</clipPath>
<clipPath clipPathUnits="userSpaceOnUse" id="clipPath33">
<path d="M691 234 L1235 234 L1235 375 L691 375 L691 234 Z"/>
</clipPath>
<clipPath clipPathUnits="userSpaceOnUse" id="clipPath34">
<path d="M902 237 L1023 237 L1023 249 L902 249 L902 237 Z"/>
</clipPath>
<clipPath clipPathUnits="userSpaceOnUse" id="clipPath35">
<path d="M696 250 L972 250 L972 262 L696 262 L696 250 Z"/>
</clipPath>
<clipPath clipPathUnits="userSpaceOnUse" id="clipPath36">
<path d="M696 260 L922 260 L922 272 L696 272 L696 260 Z"/>
</clipPath>
<clipPath clipPathUnits="userSpaceOnUse" id="clipPath37">
<path d="M696 270 L1019 270 L1019 282 L696 282 L696 270 Z"/>
</clipPath>
<clipPath clipPathUnits="userSpaceOnUse" id="clipPath38">
<path d="M696 280 L1215 280 L1215 292 L696 292 L696 280 Z"/>
</clipPath>
<clipPath clipPathUnits="userSpaceOnUse" id="clipPath39">
<path d="M696 290 L989 290 L989 302 L696 302 L696 290 Z"/>
</clipPath>
<clipPath clipPathUnits="userSpaceOnUse" id="clipPath40">
<path d="M696 300 L1185 300 L1185 312 L696 312 L696 300 Z"/>
</clipPath>
<clipPath clipPathUnits="userSpaceOnUse" id="clipPath41">
<path d="M696 310 L968 310 L968 322 L696 322 L696 310 Z"/>
</clipPath>
<clipPath clipPathUnits="userSpaceOnUse" id="clipPath42">
<path d="M696 320 L1164 320 L1164 332 L696 332 L696 320 Z"/>
</clipPath>
<clipPath clipPathUnits="userSpaceOnUse" id="clipPath43">
<path d="M696 330 L994 330 L994 342 L696 342 L696 330 Z"/>
</clipPath>
<clipPath clipPathUnits="userSpaceOnUse" id="clipPath44">
<path d="M691 248 L1235 248 L1235 375 L691 375 L691 248 Z"/>
</clipPath>
<clipPath clipPathUnits="userSpaceOnUse" id="clipPath45">
<path d="M852 127 L1075 127 L1075 180 L852 180 L852 127 Z"/>
</clipPath>
<clipPath clipPathUnits="userSpaceOnUse" id="clipPath46">
<path d="M858 142 L1071 142 L1071 154 L858 154 L858 142 Z"/>
</clipPath>
<clipPath clipPathUnits="userSpaceOnUse" id="clipPath47">
<path d="M931 153 L997 153 L997 165 L931 165 L931 153 Z"/>
</clipPath>
<clipPath clipPathUnits="userSpaceOnUse" id="clipPath48">
<path d="M852 19 L1075 19 L1075 72 L852 72 L852 19 Z"/>
</clipPath>
<clipPath clipPathUnits="userSpaceOnUse" id="clipPath49">
<path d="M859 34 L1070 34 L1070 46 L859 46 L859 34 Z"/>
</clipPath>
<clipPath clipPathUnits="userSpaceOnUse" id="clipPath50">
<path d="M928 45 L1001 45 L1001 57 L928 57 L928 45 Z"/>
</clipPath>
<clipPath clipPathUnits="userSpaceOnUse" id="clipPath51">
<path d="M431 461 L549 461 L549 512 L431 512 L431 461 Z"/>
</clipPath>
<clipPath clipPathUnits="userSpaceOnUse" id="clipPath52">
<path d="M433 480 L549 480 L549 492 L433 492 L433 480 Z"/>
</clipPath>
<clipPath clipPathUnits="userSpaceOnUse" id="clipPath53">
<path d="M-1 -1 L1245 -1 L1245 523 L-1 523 L-1 -1 Z"/>
</clipPath>
<clipPath clipPathUnits="userSpaceOnUse" id="clipPath54">
<path d="M400 179 L419 179 L419 192 L400 192 L400 179 Z"/>
</clipPath>
<clipPath clipPathUnits="userSpaceOnUse" id="clipPath55">
<path d="M402 75 L421 75 L421 88 L402 88 L402 75 Z"/>
</clipPath>
<clipPath clipPathUnits="userSpaceOnUse" id="clipPath56">
<path d="M179 37 L215 37 L215 49 L179 49 L179 37 Z"/>
</clipPath>
<clipPath clipPathUnits="userSpaceOnUse" id="clipPath57">
<path d="M182 53 L191 53 L191 65 L182 65 L182 53 Z"/>
</clipPath>
<clipPath clipPathUnits="userSpaceOnUse" id="clipPath58">
<path d="M273 55 L282 55 L282 67 L273 67 L273 55 Z"/>
</clipPath>
<clipPath clipPathUnits="userSpaceOnUse" id="clipPath59">
<path d="M157 44 L178 44 L178 59 L157 59 L157 44 Z"/>
</clipPath>
<clipPath clipPathUnits="userSpaceOnUse" id="clipPath60">
<path d="M48 421 L86 421 L86 433 L48 433 L48 421 Z"/>
</clipPath>
<clipPath clipPathUnits="userSpaceOnUse" id="clipPath61">
<path d="M22 372 L90 372 L90 384 L22 384 L22 372 Z"/>
</clipPath>
<clipPath clipPathUnits="userSpaceOnUse" id="clipPath62">
<path d="M109 421 L129 421 L129 433 L109 433 L109 421 Z"/>
</clipPath>
<clipPath clipPathUnits="userSpaceOnUse" id="clipPath63">
<path d="M107 371 L128 371 L128 383 L107 383 L107 371 Z"/>
</clipPath>
<clipPath clipPathUnits="userSpaceOnUse" id="clipPath64">
<path d="M90 443 L105 443 L105 464 L90 464 L90 443 Z"/>
</clipPath>
<clipPath clipPathUnits="userSpaceOnUse" id="clipPath65">
<path d="M90 330 L105 330 L105 373 L90 373 L90 330 Z"/>
</clipPath>
<clipPath clipPathUnits="userSpaceOnUse" id="clipPath66">
<path d="M89 179 L108 179 L108 192 L89 192 L89 179 Z"/>
</clipPath>
<clipPath clipPathUnits="userSpaceOnUse" id="clipPath67">
<path d="M90 75 L109 75 L109 88 L90 88 L90 75 Z"/>
</clipPath>
<clipPath clipPathUnits="userSpaceOnUse" id="clipPath68">
<path d="M257 398 L310 398 L310 410 L257 410 L257 398 Z"/>
</clipPath>
<clipPath clipPathUnits="userSpaceOnUse" id="clipPath69">
<path d="M222 425 L306 425 L306 437 L222 437 L222 425 Z"/>
</clipPath>
<clipPath clipPathUnits="userSpaceOnUse" id="clipPath70">
<path d="M326 396 L347 396 L347 408 L326 408 L326 396 Z"/>
</clipPath>
<clipPath clipPathUnits="userSpaceOnUse" id="clipPath71">
<path d="M322 423 L342 423 L342 435 L322 435 L322 423 Z"/>
</clipPath>
<clipPath clipPathUnits="userSpaceOnUse" id="clipPath72">
<path d="M312 373 L323 373 L323 392 L312 392 L312 373 Z"/>
</clipPath>
<clipPath clipPathUnits="userSpaceOnUse" id="clipPath73">
<path d="M310 444 L325 444 L325 465 L310 465 L310 444 Z"/>
</clipPath>
<clipPath clipPathUnits="userSpaceOnUse" id="clipPath74">
<path d="M587 294 L678 294 L678 306 L587 306 L587 294 Z"/>
</clipPath>
<clipPath clipPathUnits="userSpaceOnUse" id="clipPath75">
<path d="M613 322 L686 322 L686 334 L613 334 L613 322 Z"/>
</clipPath>
<clipPath clipPathUnits="userSpaceOnUse" id="clipPath76">
<path d="M591 312 L601 312 L601 324 L591 324 L591 312 Z"/>
</clipPath>
<clipPath clipPathUnits="userSpaceOnUse" id="clipPath77">
<path d="M667 311 L688 311 L688 323 L667 323 L667 311 Z"/>
</clipPath>
<clipPath clipPathUnits="userSpaceOnUse" id="clipPath78">
<path d="M569 300 L590 300 L590 315 L569 315 L569 300 Z"/>
</clipPath>
<clipPath clipPathUnits="userSpaceOnUse" id="clipPath79">
<path d="M952 178 L971 178 L971 191 L952 191 L952 178 Z"/>
</clipPath>
<clipPath clipPathUnits="userSpaceOnUse" id="clipPath80">
<path d="M845 101 L952 101 L952 113 L845 113 L845 101 Z"/>
</clipPath>
<clipPath clipPathUnits="userSpaceOnUse" id="clipPath81">
<path d="M967 103 L976 103 L976 115 L967 115 L967 103 Z"/>
</clipPath>
<clipPath clipPathUnits="userSpaceOnUse" id="clipPath82">
<path d="M965 84 L986 84 L986 96 L965 96 L965 84 Z"/>
</clipPath>
<clipPath clipPathUnits="userSpaceOnUse" id="clipPath83">
<path d="M952 109 L967 109 L967 130 L952 130 L952 109 Z"/>
</clipPath>
<clipPath clipPathUnits="userSpaceOnUse" id="clipPath84">
<path d="M720 29 L799 29 L799 41 L720 41 L720 29 Z"/>
</clipPath>
<clipPath clipPathUnits="userSpaceOnUse" id="clipPath85">
<path d="M580 32 L618 32 L618 44 L580 44 L580 32 Z"/>
</clipPath>
<clipPath clipPathUnits="userSpaceOnUse" id="clipPath86">
<path d="M759 57 L780 57 L780 69 L759 69 L759 57 Z"/>
</clipPath>
<clipPath clipPathUnits="userSpaceOnUse" id="clipPath87">
<path d="M576 52 L586 52 L586 64 L576 64 L576 52 Z"/>
</clipPath>
<clipPath clipPathUnits="userSpaceOnUse" id="clipPath88">
<path d="M834 41 L855 41 L855 56 L834 56 L834 41 Z"/>
</clipPath>
<clipPath clipPathUnits="userSpaceOnUse" id="clipPath89">
<path d="M533 41 L576 41 L576 56 L533 56 L533 41 Z"/>
</clipPath>
<clipPath clipPathUnits="userSpaceOnUse" id="clipPath90">
<path d="M417 398 L470 398 L470 410 L417 410 L417 398 Z"/>
</clipPath>
<clipPath clipPathUnits="userSpaceOnUse" id="clipPath91">
<path d="M409 428 L475 428 L475 440 L409 440 L409 428 Z"/>
</clipPath>
<clipPath clipPathUnits="userSpaceOnUse" id="clipPath92">
<path d="M498 396 L508 396 L508 408 L498 408 L498 396 Z"/>
</clipPath>
<clipPath clipPathUnits="userSpaceOnUse" id="clipPath93">
<path d="M496 429 L506 429 L506 441 L496 441 L496 429 Z"/>
</clipPath>
<clipPath clipPathUnits="userSpaceOnUse" id="clipPath94">
<path d="M481 373 L496 373 L496 416 L481 416 L481 373 Z"/>
</clipPath>
<clipPath clipPathUnits="userSpaceOnUse" id="clipPath95">
<path d="M481 443 L496 443 L496 464 L481 464 L481 443 Z"/>
</clipPath>
<clipPath clipPathUnits="userSpaceOnUse" id="clipPath96">
<path d="M486 94 L530 94 L530 106 L486 106 L486 94 Z"/>
</clipPath>
<clipPath clipPathUnits="userSpaceOnUse" id="clipPath97">
<path d="M467 94 L477 94 L477 106 L467 106 L467 94 Z"/>
</clipPath>
<clipPath clipPathUnits="userSpaceOnUse" id="clipPath98">
<path d="M467 116 L476 116 L476 128 L467 128 L467 116 Z"/>
</clipPath>
<clipPath clipPathUnits="userSpaceOnUse" id="clipPath99">
<path d="M473 75 L488 75 L488 96 L473 96 L473 75 Z"/>
</clipPath>
</defs>
<g font-size="11" fill="white" stroke-linejoin="round" stroke="white" stroke-width="0" stroke-miterlimit="0">
<rect x="250" y="236" clip-path="url(#clipPath1)" width="320" rx="0" ry="0" height="138" stroke="none"/>
</g>
<g font-size="9" font-family="'Arial'" stroke-linejoin="round" font-weight="bold" stroke-width="0" stroke-miterlimit="0">
<text xml:space="preserve" x="360" y="248" clip-path="url(#clipPath2)" stroke="none">StateMachineExecution</text>
</g>
<g font-size="11" stroke-width="1.1" stroke-linecap="butt">
<line clip-path="url(#clipPath3)" fill="none" x1="250" x2="570" y1="250" y2="250"/>
<text x="255" font-size="9" y="285" clip-path="url(#clipPath4)" font-family="'Arial'" stroke="none" xml:space="preserve"> + execute()</text>
<text x="255" font-size="9" y="295" clip-path="url(#clipPath5)" font-family="'Arial'" stroke="none" xml:space="preserve"> + new_(): Value [1]</text>
<text x="255" font-size="9" y="305" clip-path="url(#clipPath6)" font-family="'Arial'" stroke="none" xml:space="preserve"> # initRegions()</text>
<text x="255" font-size="9" y="315" clip-path="url(#clipPath7)" font-family="'Arial'" stroke="none" xml:space="preserve"> + getConfiguration()</text>
<text x="255" font-size="9" y="325" clip-path="url(#clipPath8)" font-family="'Arial'" stroke="none" xml:space="preserve"> # getVertexActivation(  in vertex: Vertex [1]): VertexActivation [1]</text>
<text x="255" font-size="9" y="335" clip-path="url(#clipPath9)" font-family="'Arial'" stroke="none" xml:space="preserve"> + getRegionActivation(): RegionActivation [1..*]</text>
<text x="255" font-size="9" y="345" clip-path="url(#clipPath10)" font-family="'Arial'" stroke="none" xml:space="preserve"> + terminate()</text>
<text x="255" font-size="9" y="355" clip-path="url(#clipPath11)" font-family="'Arial'" stroke="none" xml:space="preserve"> + startBehavior(  in classifier: Class [0..1],   in inputs: ParameterValue [*])</text>
<line clip-path="url(#clipPath12)" fill="none" x1="250" x2="570" y1="274" y2="274"/>
<rect x="250" y="236" clip-path="url(#clipPath1)" fill="none" width="319" rx="0" ry="0" height="137"/>
<rect x="286" y="129" clip-path="url(#clipPath13)" fill="silver" width="247" rx="0" ry="0" height="51" stroke="none"/>
</g>
<g stroke-linecap="butt" font-size="9" font-family="'Arial'" font-style="italic" font-weight="bold" stroke-width="1.1">
<text xml:space="preserve" x="305" y="153" clip-path="url(#clipPath14)" stroke="none">(fUML_Semantics::Semantics::CommonBehavior)</text>
<text xml:space="preserve" x="388" y="164" clip-path="url(#clipPath15)" stroke="none">Execution</text>
</g>
<g font-size="11" stroke-width="1.1" stroke-linecap="butt">
<rect x="286" y="129" clip-path="url(#clipPath13)" fill="none" width="246" rx="0" ry="0" height="50"/>
<rect x="287" y="25" clip-path="url(#clipPath16)" fill="silver" width="247" rx="0" ry="0" height="51" stroke="none"/>
<text x="298" font-size="9" y="49" clip-path="url(#clipPath17)" font-family="'Arial'" stroke="none" font-weight="bold" xml:space="preserve">(fUML_Semantics::Semantics::StructuredClassifiers)</text>
<text x="397" font-size="9" y="60" clip-path="url(#clipPath18)" font-family="'Arial'" stroke="none" font-weight="bold" xml:space="preserve">Object</text>
<rect x="287" y="25" clip-path="url(#clipPath16)" fill="none" width="246" rx="0" ry="0" height="50"/>
<rect x="36" y="25" clip-path="url(#clipPath19)" fill="silver" width="122" rx="0" ry="0" height="51" stroke="none"/>
<text x="37" font-size="9" y="49" clip-path="url(#clipPath20)" font-family="'Arial'" stroke="none" font-weight="bold" xml:space="preserve">(UML::StructuredClassifiers)</text>
<text x="86" font-size="9" y="60" clip-path="url(#clipPath21)" font-family="'Arial'" stroke="none" font-weight="bold" xml:space="preserve">Class</text>
<rect x="36" y="25" clip-path="url(#clipPath19)" fill="none" width="121" rx="0" ry="0" height="50"/>
<rect x="36" y="280" clip-path="url(#clipPath22)" fill="white" width="122" rx="0" ry="0" height="51" stroke="none"/>
<text x="52" font-size="9" y="304" clip-path="url(#clipPath23)" font-family="'Arial'" stroke="none" font-weight="bold" xml:space="preserve">(UML::StateMachines)</text>
<text x="69" font-size="9" y="315" clip-path="url(#clipPath24)" font-family="'Arial'" stroke="none" font-weight="bold" xml:space="preserve">StateMachine</text>
<rect x="36" y="280" clip-path="url(#clipPath22)" fill="none" width="121" rx="0" ry="0" height="50"/>
<rect x="36" y="462" clip-path="url(#clipPath25)" fill="white" width="122" rx="0" ry="0" height="49" stroke="none"/>
<text x="52" font-size="9" y="485" clip-path="url(#clipPath26)" font-family="'Arial'" stroke="none" font-weight="bold" xml:space="preserve">(UML::StateMachines)</text>
<text x="83" font-size="9" y="496" clip-path="url(#clipPath27)" font-family="'Arial'" stroke="none" font-weight="bold" xml:space="preserve">Region</text>
<rect x="36" y="462" clip-path="url(#clipPath25)" fill="none" width="121" rx="0" ry="0" height="48"/>
<rect x="36" y="129" clip-path="url(#clipPath28)" fill="silver" width="122" rx="0" ry="0" height="51" stroke="none"/>
</g>
<g stroke-linecap="butt" font-size="9" font-family="'Arial'" font-style="italic" font-weight="bold" stroke-width="1.1">
<text xml:space="preserve" x="44" y="153" clip-path="url(#clipPath29)" stroke="none">(UML::CommonBehavior)</text>
<text xml:space="preserve" x="78" y="164" clip-path="url(#clipPath30)" stroke="none">Behavior</text>
</g>
<g font-size="11" stroke-width="1.1" stroke-linecap="butt">
<rect x="36" y="129" clip-path="url(#clipPath28)" fill="none" width="121" rx="0" ry="0" height="50"/>
<rect x="268" y="463" clip-path="url(#clipPath31)" fill="white" width="100" rx="0" ry="0" height="49" stroke="none"/>
<text x="283" font-size="9" y="491" clip-path="url(#clipPath32)" font-family="'Arial'" stroke="none" font-weight="bold" xml:space="preserve">RegionActivation</text>
<rect x="268" y="463" clip-path="url(#clipPath31)" fill="none" width="99" rx="0" ry="0" height="48"/>
<rect x="692" y="235" clip-path="url(#clipPath33)" fill="white" width="542" rx="0" ry="0" height="139" stroke="none"/>
<text x="903" font-size="9" y="247" clip-path="url(#clipPath34)" font-family="'Arial'" stroke="none" font-weight="bold" xml:space="preserve">StateMachineEventAccepter</text>
<text x="697" font-size="9" y="260" clip-path="url(#clipPath35)" font-family="'Arial'" stroke="none" xml:space="preserve"> + match(  in eventOccurrence: EventOccurrence [1]): Boolean [1]</text>
<text x="697" font-size="9" y="270" clip-path="url(#clipPath36)" font-family="'Arial'" stroke="none" xml:space="preserve"> + accept(  in eventOccurrence: EventOccurrence [1])</text>
<text x="697" font-size="9" y="280" clip-path="url(#clipPath37)" font-family="'Arial'" stroke="none" xml:space="preserve"> # select(  in eventOccurrence: EventOccurrence [1]): TransitionActivation [*]</text>
<text x="697" font-size="9" y="290" clip-path="url(#clipPath38)" font-family="'Arial'" stroke="none" xml:space="preserve"> - _select(  in eventOccurrence: EventOccurrence [1],   in stateConfiguration: StateConfiguration [1]): TransitionActivation [*]</text>
<text x="697" font-size="9" y="300" clip-path="url(#clipPath39)" font-family="'Arial'" stroke="none" xml:space="preserve"> # isDeferred(  in eventOccurrence: EventOccurrence [1]): Boolean [1]</text>
<text x="697" font-size="9" y="310" clip-path="url(#clipPath40)" font-family="'Arial'" stroke="none" xml:space="preserve"> - _isDeferred(  in eventOccurrence: EventOccurrence [1],   in stateConfiguration: StateConfiguration [1]): Boolean [1]</text>
<text x="697" font-size="9" y="320" clip-path="url(#clipPath41)" font-family="'Arial'" stroke="none" xml:space="preserve"> # defer(  in eventOccurrence: EventOccurrence [1]): Boolean [1]</text>
<text x="697" font-size="9" y="330" clip-path="url(#clipPath42)" font-family="'Arial'" stroke="none" xml:space="preserve"> - _defer(  in eventOccurrence: EventOccurrence [1],   in stateConfiguration: StateConfiguration [1]): Boolean [1]</text>
<text x="697" font-size="9" y="340" clip-path="url(#clipPath43)" font-family="'Arial'" stroke="none" xml:space="preserve"> # isTriggering(  in eventOccurrence: EventOccurrence [1]): Boolean [1]</text>
<line clip-path="url(#clipPath44)" fill="none" x1="692" x2="1234" y1="249" y2="249"/>
<rect x="692" y="235" clip-path="url(#clipPath33)" fill="none" width="541" rx="0" ry="0" height="138"/>
<rect x="853" y="128" clip-path="url(#clipPath45)" fill="silver" width="221" rx="0" ry="0" height="51" stroke="none"/>
</g>
<g stroke-linecap="butt" font-size="9" font-family="'Arial'" font-style="italic" font-weight="bold" stroke-width="1.1">
<text xml:space="preserve" x="859" y="152" clip-path="url(#clipPath46)" stroke="none">(fUML_Semantics::Semantics::CommonBehavior)</text>
<text xml:space="preserve" x="932" y="163" clip-path="url(#clipPath47)" stroke="none">EventAccepter</text>
</g>
<g font-size="11" stroke-width="1.1" stroke-linecap="butt">
<rect x="853" y="128" clip-path="url(#clipPath45)" fill="none" width="220" rx="0" ry="0" height="50"/>
<rect x="853" y="20" clip-path="url(#clipPath48)" fill="silver" width="221" rx="0" ry="0" height="51" stroke="none"/>
<text x="860" font-size="9" y="44" clip-path="url(#clipPath49)" font-family="'Arial'" stroke="none" font-weight="bold" xml:space="preserve">(fUML_Semantics::Semantics::CommonBehavior)</text>
<text x="929" font-size="9" y="55" clip-path="url(#clipPath50)" font-family="'Arial'" stroke="none" font-weight="bold" xml:space="preserve">ObjectActivation</text>
<rect x="853" y="20" clip-path="url(#clipPath48)" fill="none" width="220" rx="0" ry="0" height="50"/>
<line clip-path="url(#clipPath48)" fill="none" x1="857" x2="857" y1="20" y2="70"/>
<line clip-path="url(#clipPath48)" fill="none" x1="1069" x2="1069" y1="20" y2="70"/>
<line clip-path="url(#clipPath48)" fill="none" x1="855" x2="855" y1="21" y2="69" stroke="silver" stroke-width="3.1"/>
<line clip-path="url(#clipPath48)" fill="none" x1="1071" x2="1071" y1="21" y2="69" stroke="silver" stroke-width="3.1"/>
<rect x="432" y="462" clip-path="url(#clipPath51)" fill="white" width="116" rx="0" ry="0" height="49" stroke="none" stroke-width="3.1"/>
</g>
<g stroke-width="3.1" font-size="9" font-family="'Arial'" font-weight="bold" stroke-linecap="butt">
<text xml:space="preserve" x="434" y="490" clip-path="url(#clipPath52)" stroke="none">StateMachineConfiguration</text>
</g>
<g font-size="11" stroke-width="1.1" stroke-linecap="butt">
<rect x="432" y="462" clip-path="url(#clipPath51)" fill="none" width="115" rx="0" ry="0" height="48"/>
<line clip-path="url(#clipPath53)" fill="none" text-rendering="optimizeLegibility" x1="407" x2="409" y1="236" y2="180"/>
</g>
<g stroke-linecap="butt" font-size="9" fill="white" text-rendering="optimizeLegibility" font-family="'Arial'" stroke="white" stroke-width="1.1">
<polygon clip-path="url(#clipPath54)" points=" 409 180 417 190 401 190" stroke="none"/>
<polygon fill="none" clip-path="url(#clipPath54)" points=" 409 180 417 190 401 190" stroke="black"/>
<line clip-path="url(#clipPath53)" fill="none" x1="411" x2="411" y1="129" y2="76" stroke="black"/>
<polygon clip-path="url(#clipPath55)" points=" 411 76 419 86 403 86" stroke="none"/>
<polygon fill="none" clip-path="url(#clipPath55)" points=" 411 76 419 86 403 86" stroke="black"/>
<line clip-path="url(#clipPath53)" fill="none" x1="158" x2="287" y1="51" y2="51" stroke="black"/>
<text x="180" y="47" clip-path="url(#clipPath56)" fill="black" stroke="none" xml:space="preserve"> + types</text>
<text x="183" y="63" clip-path="url(#clipPath57)" fill="black" stroke="none" xml:space="preserve"> *</text>
<text x="274" y="65" clip-path="url(#clipPath58)" fill="black" stroke="none" xml:space="preserve"> *</text>
<polygon fill="black" clip-path="url(#clipPath59)" points=" 158 50 160 48 162 48 164 50 164 51 176 45 164 51 176 57 164 51 164 52 162 54 160 54 158 52" stroke="none"/>
<polygon fill="none" clip-path="url(#clipPath59)" points=" 158 50 160 48 162 48 164 50 164 51 176 45 164 51 176 57 164 51 164 52 162 54 160 54 158 52" stroke="black"/>
<line clip-path="url(#clipPath53)" fill="none" x1="97" x2="97" y1="462" y2="331" stroke="black"/>
<text x="49" y="431" clip-path="url(#clipPath60)" fill="black" stroke="none" xml:space="preserve"> + region</text>
<text x="23" y="382" clip-path="url(#clipPath61)" fill="black" stroke="none" xml:space="preserve"> + stateMachine</text>
<text x="110" y="431" clip-path="url(#clipPath62)" fill="black" stroke="none" xml:space="preserve"> 1..*</text>
<text x="108" y="381" clip-path="url(#clipPath63)" fill="black" stroke="none" xml:space="preserve"> 0..1</text>
<polygon fill="black" clip-path="url(#clipPath64)" points=" 96 462 94 460 94 458 96 456 97 456 91 444 97 456 103 444 97 456 98 456 100 458 100 460 98 462" stroke="none"/>
<polygon fill="none" clip-path="url(#clipPath64)" points=" 96 462 94 460 94 458 96 456 97 456 91 444 97 456 103 444 97 456 98 456 100 458 100 460 98 462" stroke="black"/>
<polygon fill="black" clip-path="url(#clipPath65)" points=" 98 331 99 333 99 335 98 337 97 337 102 346 97 355 103 371 97 355 91 371 97 355 93 346 97 337 96 337 95 335 95 333 96 331" stroke="none"/>
<polygon fill="none" clip-path="url(#clipPath65)" points=" 98 331 99 333 99 335 98 337 97 337 102 346 97 355 103 371 97 355 91 371 97 355 93 346 97 337 96 337 95 335 95 333 96 331" stroke="black"/>
<line clip-path="url(#clipPath53)" fill="none" x1="98" x2="98" y1="280" y2="180" stroke="black"/>
<polygon clip-path="url(#clipPath66)" points=" 98 180 106 190 90 190" stroke="none"/>
<polygon fill="none" clip-path="url(#clipPath66)" points=" 98 180 106 190 90 190" stroke="black"/>
<line clip-path="url(#clipPath53)" fill="none" x1="99" x2="99" y1="129" y2="102" stroke="black"/>
<line clip-path="url(#clipPath53)" fill="none" x1="99" x2="99" y1="102" y2="76" stroke="black"/>
<polygon clip-path="url(#clipPath67)" points=" 99 76 107 86 91 86" stroke="none"/>
<polygon fill="none" clip-path="url(#clipPath67)" points=" 99 76 107 86 91 86" stroke="black"/>
<line clip-path="url(#clipPath53)" fill="none" x1="317" x2="317" y1="374" y2="463" stroke="black"/>
<text x="258" y="408" clip-path="url(#clipPath68)" fill="black" stroke="none" xml:space="preserve"> + execution</text>
<text x="223" y="435" clip-path="url(#clipPath69)" fill="black" stroke="none" xml:space="preserve"> + regionActivations</text>
<text x="327" y="406" clip-path="url(#clipPath70)" fill="black" stroke="none" xml:space="preserve"> 0..1</text>
<text x="323" y="433" clip-path="url(#clipPath71)" fill="black" stroke="none" xml:space="preserve"> 1..*</text>
<polygon fill="black" clip-path="url(#clipPath72)" points=" 317 374 321 382 317 390 313 382" stroke="none"/>
<polygon fill="none" clip-path="url(#clipPath72)" points=" 317 374 321 382 317 390 313 382" stroke="black"/>
<polygon fill="black" clip-path="url(#clipPath73)" points=" 316 463 314 461 314 459 316 457 317 457 311 445 317 457 323 445 317 457 318 457 320 459 320 461 318 463" stroke="none"/>
<polygon fill="none" clip-path="url(#clipPath73)" points=" 316 463 314 461 314 459 316 457 317 457 311 445 317 457 323 445 317 457 318 457 320 459 320 461 318 463" stroke="black"/>
<line clip-path="url(#clipPath53)" fill="none" x1="570" x2="692" y1="307" y2="307" stroke="black"/>
<text x="588" y="304" clip-path="url(#clipPath74)" fill="black" stroke="none" xml:space="preserve"> + registrationContext</text>
<text x="614" y="332" clip-path="url(#clipPath75)" fill="black" stroke="none" xml:space="preserve"> + eventAccepter</text>
<text x="592" y="322" clip-path="url(#clipPath76)" fill="black" stroke="none" xml:space="preserve"> 1</text>
<text x="668" y="321" clip-path="url(#clipPath77)" fill="black" stroke="none" xml:space="preserve"> 0..1</text>
<polygon fill="black" clip-path="url(#clipPath78)" points=" 570 306 572 304 574 304 576 306 576 307 588 301 576 307 588 313 576 307 576 308 574 310 572 310 570 308" stroke="none"/>
<polygon fill="none" clip-path="url(#clipPath78)" points=" 570 306 572 304 574 304 576 306 576 307 588 301 576 307 588 313 576 307 576 308 574 310 572 310 570 308" stroke="black"/>
<line clip-path="url(#clipPath53)" fill="none" x1="961" x2="961" y1="235" y2="179" stroke="black"/>
<polygon clip-path="url(#clipPath79)" points=" 961 179 969 189 953 189" stroke="none"/>
<polygon fill="none" clip-path="url(#clipPath79)" points=" 961 179 969 189 953 189" stroke="black"/>
<line clip-path="url(#clipPath53)" fill="none" x1="959" x2="959" y1="128" y2="71" stroke="black"/>
<text x="846" y="111" clip-path="url(#clipPath80)" fill="black" stroke="none" xml:space="preserve"> + waitingEventAccepters</text>
<text x="968" y="113" clip-path="url(#clipPath81)" fill="black" stroke="none" xml:space="preserve"> *</text>
<text x="966" y="94" clip-path="url(#clipPath82)" fill="black" stroke="none" xml:space="preserve"> 0..1</text>
<polygon fill="black" clip-path="url(#clipPath83)" points=" 958 128 956 126 956 124 958 122 959 122 953 110 959 122 965 110 959 122 960 122 962 124 962 126 960 128" stroke="none"/>
<polygon fill="none" clip-path="url(#clipPath83)" points=" 958 128 956 126 956 124 958 122 959 122 953 110 959 122 965 110 959 122 960 122 962 124 962 126 960 128" stroke="black"/>
<line clip-path="url(#clipPath53)" fill="none" x1="853" x2="534" y1="48" y2="48" stroke="black"/>
<text x="721" y="39" clip-path="url(#clipPath84)" fill="black" stroke="none" xml:space="preserve"> + objectActivation</text>
<text x="581" y="42" clip-path="url(#clipPath85)" fill="black" stroke="none" xml:space="preserve"> + object</text>
<text x="760" y="67" clip-path="url(#clipPath86)" fill="black" stroke="none" xml:space="preserve"> 0..1</text>
<text x="577" y="62" clip-path="url(#clipPath87)" fill="black" stroke="none" xml:space="preserve"> 1</text>
<polygon fill="black" clip-path="url(#clipPath88)" points=" 853 49 851 51 849 51 847 49 847 48 835 54 847 48 835 42 847 48 847 47 849 45 851 45 853 47" stroke="none"/>
<polygon fill="none" clip-path="url(#clipPath88)" points=" 853 49 851 51 849 51 847 49 847 48 835 54 847 48 835 42 847 48 847 47 849 45 851 45 853 47" stroke="black"/>
<polygon fill="black" clip-path="url(#clipPath89)" points=" 534 47 536 46 538 46 540 47 540 48 549 44 558 48 574 42 558 48 574 54 558 48 549 53 540 48 540 49 538 50 536 50 534 49" stroke="none"/>
<polygon fill="none" clip-path="url(#clipPath89)" points=" 534 47 536 46 538 46 540 47 540 48 549 44 558 48 574 42 558 48 574 54 558 48 549 53 540 48 540 49 538 50 536 50 534 49" stroke="black"/>
<line clip-path="url(#clipPath53)" fill="none" x1="488" x2="488" y1="374" y2="462" stroke="black"/>
<text x="418" y="408" clip-path="url(#clipPath90)" fill="black" stroke="none" xml:space="preserve"> + execution</text>
<text x="410" y="438" clip-path="url(#clipPath91)" fill="black" stroke="none" xml:space="preserve"> + configuration</text>
<text x="499" y="406" clip-path="url(#clipPath92)" fill="black" stroke="none" xml:space="preserve"> 1</text>
<text x="497" y="439" clip-path="url(#clipPath93)" fill="black" stroke="none" xml:space="preserve"> 1</text>
<polygon fill="black" clip-path="url(#clipPath94)" points=" 489 374 490 376 490 378 489 380 488 380 493 389 488 398 494 414 488 398 482 414 488 398 484 389 488 380 487 380 486 378 486 376 487 374" stroke="none"/>
<polygon fill="none" clip-path="url(#clipPath94)" points=" 489 374 490 376 490 378 489 380 488 380 493 389 488 398 494 414 488 398 482 414 488 398 484 389 488 380 487 380 486 378 486 376 487 374" stroke="black"/>
<polygon fill="black" clip-path="url(#clipPath95)" points=" 487 462 485 460 485 458 487 456 488 456 482 444 488 456 494 444 488 456 489 456 491 458 491 460 489 462" stroke="none"/>
<polygon fill="none" clip-path="url(#clipPath95)" points=" 487 462 485 460 485 458 487 456 488 456 482 444 488 456 494 444 488 456 489 456 491 458 491 460 489 462" stroke="black"/>
<line clip-path="url(#clipPath53)" fill="none" x1="480" x2="480" y1="76" y2="129" stroke="black"/>
<text x="487" y="104" clip-path="url(#clipPath96)" fill="black" stroke="none" xml:space="preserve"> + context</text>
<text x="468" y="104" clip-path="url(#clipPath97)" fill="black" stroke="none" xml:space="preserve"> 1</text>
<text x="468" y="126" clip-path="url(#clipPath98)" fill="black" stroke="none" xml:space="preserve"> *</text>
<polygon fill="black" clip-path="url(#clipPath99)" points=" 481 76 483 78 483 80 481 82 480 82 486 94 480 82 474 94 480 82 479 82 477 80 477 78 479 76" stroke="none"/>
<polygon fill="none" clip-path="url(#clipPath99)" points=" 481 76 483 78 483 80 481 82 480 82 486 94 480 82 474 94 480 82 479 82 477 80 477 78 479 76" stroke="black"/>
</g>
</g>
</svg>
