<?xml version="1.0" encoding="UTF-8"?><svg xmlns="http://www.w3.org/2000/svg" xmlns:xlink="http://www.w3.org/1999/xlink" stroke-dasharray="none" shape-rendering="auto" font-family="'Dialog'" width="927" text-rendering="auto" fill-opacity="1" contentScriptType="text/ecmascript" color-interpolation="auto" color-rendering="auto" preserveAspectRatio="xMidYMid meet" font-size="12" viewBox="0 0 927 583" fill="black" stroke="black" image-rendering="auto" stroke-miterlimit="10" zoomAndPan="magnify" version="1.0" stroke-linecap="square" stroke-linejoin="miter" contentStyleType="text/css" font-style="normal" height="583" stroke-width="1" stroke-dashoffset="0" font-weight="normal" stroke-opacity="1">
<!--Generated by the Batik Graphics2D SVG Generator-->
<defs id="genericDefs"/>
<g>
<defs id="defs1">
<clipPath clipPathUnits="userSpaceOnUse" id="clipPath1">
<path d="M9 281 L326 281 L326 452 L9 452 L9 281 Z"/>
</clipPath>
<clipPath clipPathUnits="userSpaceOnUse" id="clipPath2">
<path d="M110 284 L225 284 L225 297 L110 297 L110 284 Z"/>
</clipPath>
<clipPath clipPathUnits="userSpaceOnUse" id="clipPath3">
<path d="M9 296 L326 296 L326 323 L9 323 L9 296 Z"/>
</clipPath>
<clipPath clipPathUnits="userSpaceOnUse" id="clipPath4">
<path d="M14 324 L161 324 L161 337 L14 337 L14 324 Z"/>
</clipPath>
<clipPath clipPathUnits="userSpaceOnUse" id="clipPath5">
<path d="M14 335 L204 335 L204 348 L14 348 L14 335 Z"/>
</clipPath>
<clipPath clipPathUnits="userSpaceOnUse" id="clipPath6">
<path d="M14 346 L321 346 L321 359 L14 359 L14 346 Z"/>
</clipPath>
<clipPath clipPathUnits="userSpaceOnUse" id="clipPath7">
<path d="M14 357 L278 357 L278 370 L14 370 L14 357 Z"/>
</clipPath>
<clipPath clipPathUnits="userSpaceOnUse" id="clipPath8">
<path d="M14 368 L288 368 L288 381 L14 381 L14 368 Z"/>
</clipPath>
<clipPath clipPathUnits="userSpaceOnUse" id="clipPath9">
<path d="M14 379 L119 379 L119 392 L14 392 L14 379 Z"/>
</clipPath>
<clipPath clipPathUnits="userSpaceOnUse" id="clipPath10">
<path d="M14 390 L263 390 L263 403 L14 403 L14 390 Z"/>
</clipPath>
<clipPath clipPathUnits="userSpaceOnUse" id="clipPath11">
<path d="M14 401 L287 401 L287 414 L14 414 L14 401 Z"/>
</clipPath>
<clipPath clipPathUnits="userSpaceOnUse" id="clipPath12">
<path d="M14 412 L245 412 L245 425 L14 425 L14 412 Z"/>
</clipPath>
<clipPath clipPathUnits="userSpaceOnUse" id="clipPath13">
<path d="M9 322 L326 322 L326 451 L9 451 L9 322 Z"/>
</clipPath>
<clipPath clipPathUnits="userSpaceOnUse" id="clipPath14">
<path d="M577 279 L918 279 L918 454 L577 454 L577 279 Z"/>
</clipPath>
<clipPath clipPathUnits="userSpaceOnUse" id="clipPath15">
<path d="M707 282 L787 282 L787 295 L707 295 L707 282 Z"/>
</clipPath>
<clipPath clipPathUnits="userSpaceOnUse" id="clipPath16">
<path d="M582 296 L661 296 L661 309 L582 309 L582 296 Z"/>
</clipPath>
<clipPath clipPathUnits="userSpaceOnUse" id="clipPath17">
<path d="M577 294 L918 294 L918 319 L577 319 L577 294 Z"/>
</clipPath>
<clipPath clipPathUnits="userSpaceOnUse" id="clipPath18">
<path d="M582 320 L685 320 L685 333 L582 333 L582 320 Z"/>
</clipPath>
<clipPath clipPathUnits="userSpaceOnUse" id="clipPath19">
<path d="M582 331 L742 331 L742 344 L582 344 L582 331 Z"/>
</clipPath>
<clipPath clipPathUnits="userSpaceOnUse" id="clipPath20">
<path d="M582 342 L737 342 L737 355 L582 355 L582 342 Z"/>
</clipPath>
<clipPath clipPathUnits="userSpaceOnUse" id="clipPath21">
<path d="M582 353 L770 353 L770 366 L582 366 L582 353 Z"/>
</clipPath>
<clipPath clipPathUnits="userSpaceOnUse" id="clipPath22">
<path d="M582 364 L828 364 L828 377 L582 377 L582 364 Z"/>
</clipPath>
<clipPath clipPathUnits="userSpaceOnUse" id="clipPath23">
<path d="M582 375 L875 375 L875 388 L582 388 L582 375 Z"/>
</clipPath>
<clipPath clipPathUnits="userSpaceOnUse" id="clipPath24">
<path d="M582 386 L795 386 L795 399 L582 399 L582 386 Z"/>
</clipPath>
<clipPath clipPathUnits="userSpaceOnUse" id="clipPath25">
<path d="M582 397 L913 397 L913 410 L582 410 L582 397 Z"/>
</clipPath>
<clipPath clipPathUnits="userSpaceOnUse" id="clipPath26">
<path d="M582 408 L780 408 L780 421 L582 421 L582 408 Z"/>
</clipPath>
<clipPath clipPathUnits="userSpaceOnUse" id="clipPath27">
<path d="M582 419 L909 419 L909 432 L582 432 L582 419 Z"/>
</clipPath>
<clipPath clipPathUnits="userSpaceOnUse" id="clipPath28">
<path d="M582 430 L687 430 L687 443 L582 443 L582 430 Z"/>
</clipPath>
<clipPath clipPathUnits="userSpaceOnUse" id="clipPath29">
<path d="M577 318 L918 318 L918 453 L577 453 L577 318 Z"/>
</clipPath>
<clipPath clipPathUnits="userSpaceOnUse" id="clipPath30">
<path d="M695 155 L797 155 L797 207 L695 207 L695 155 Z"/>
</clipPath>
<clipPath clipPathUnits="userSpaceOnUse" id="clipPath31">
<path d="M709 174 L784 174 L784 187 L709 187 L709 174 Z"/>
</clipPath>
<clipPath clipPathUnits="userSpaceOnUse" id="clipPath32">
<path d="M117 12 L220 12 L220 64 L117 64 L117 12 Z"/>
</clipPath>
<clipPath clipPathUnits="userSpaceOnUse" id="clipPath33">
<path d="M119 31 L220 31 L220 44 L119 44 L119 31 Z"/>
</clipPath>
<clipPath clipPathUnits="userSpaceOnUse" id="clipPath34">
<path d="M695 11 L797 11 L797 63 L695 63 L695 11 Z"/>
</clipPath>
<clipPath clipPathUnits="userSpaceOnUse" id="clipPath35">
<path d="M710 30 L784 30 L784 43 L710 43 L710 30 Z"/>
</clipPath>
<clipPath clipPathUnits="userSpaceOnUse" id="clipPath36">
<path d="M-1 -1 L928 -1 L928 584 L-1 584 L-1 -1 Z"/>
</clipPath>
<clipPath clipPathUnits="userSpaceOnUse" id="clipPath37">
<path d="M636 500 L678 500 L678 513 L636 513 L636 500 Z"/>
</clipPath>
<clipPath clipPathUnits="userSpaceOnUse" id="clipPath38">
<path d="M769 475 L818 475 L818 488 L769 488 L769 475 Z"/>
</clipPath>
<clipPath clipPathUnits="userSpaceOnUse" id="clipPath39">
<path d="M684 501 L707 501 L707 514 L684 514 L684 501 Z"/>
</clipPath>
<clipPath clipPathUnits="userSpaceOnUse" id="clipPath40">
<path d="M825 475 L835 475 L835 488 L825 488 L825 475 Z"/>
</clipPath>
<clipPath clipPathUnits="userSpaceOnUse" id="clipPath41">
<path d="M674 452 L689 452 L689 495 L674 495 L674 452 Z"/>
</clipPath>
<clipPath clipPathUnits="userSpaceOnUse" id="clipPath42">
<path d="M814 452 L829 452 L829 473 L814 473 L814 452 Z"/>
</clipPath>
<clipPath clipPathUnits="userSpaceOnUse" id="clipPath43">
<path d="M345 352 L460 352 L460 365 L345 365 L345 352 Z"/>
</clipPath>
<clipPath clipPathUnits="userSpaceOnUse" id="clipPath44">
<path d="M471 351 L563 351 L563 364 L471 364 L471 351 Z"/>
</clipPath>
<clipPath clipPathUnits="userSpaceOnUse" id="clipPath45">
<path d="M347 367 L358 367 L358 380 L347 380 L347 367 Z"/>
</clipPath>
<clipPath clipPathUnits="userSpaceOnUse" id="clipPath46">
<path d="M551 369 L562 369 L562 382 L551 382 L551 369 Z"/>
</clipPath>
<clipPath clipPathUnits="userSpaceOnUse" id="clipPath47">
<path d="M324 359 L345 359 L345 374 L324 374 L324 359 Z"/>
</clipPath>
<clipPath clipPathUnits="userSpaceOnUse" id="clipPath48">
<path d="M559 359 L580 359 L580 374 L559 374 L559 359 Z"/>
</clipPath>
<clipPath clipPathUnits="userSpaceOnUse" id="clipPath49">
<path d="M749 264 L845 264 L845 277 L749 277 L749 264 Z"/>
</clipPath>
<clipPath clipPathUnits="userSpaceOnUse" id="clipPath50">
<path d="M749 229 L834 229 L834 242 L749 242 L749 229 Z"/>
</clipPath>
<clipPath clipPathUnits="userSpaceOnUse" id="clipPath51">
<path d="M734 263 L745 263 L745 276 L734 276 L734 263 Z"/>
</clipPath>
<clipPath clipPathUnits="userSpaceOnUse" id="clipPath52">
<path d="M734 229 L745 229 L745 242 L734 242 L734 229 Z"/>
</clipPath>
<clipPath clipPathUnits="userSpaceOnUse" id="clipPath53">
<path d="M739 205 L754 205 L754 226 L739 226 L739 205 Z"/>
</clipPath>
<clipPath clipPathUnits="userSpaceOnUse" id="clipPath54">
<path d="M108 102 L164 102 L164 115 L108 115 L108 102 Z"/>
</clipPath>
<clipPath clipPathUnits="userSpaceOnUse" id="clipPath55">
<path d="M95 245 L167 245 L167 258 L95 258 L95 245 Z"/>
</clipPath>
<clipPath clipPathUnits="userSpaceOnUse" id="clipPath56">
<path d="M169 104 L180 104 L180 117 L169 117 L169 104 Z"/>
</clipPath>
<clipPath clipPathUnits="userSpaceOnUse" id="clipPath57">
<path d="M171 245 L182 245 L182 258 L171 258 L171 245 Z"/>
</clipPath>
<clipPath clipPathUnits="userSpaceOnUse" id="clipPath58">
<path d="M161 62 L176 62 L176 105 L161 105 L161 62 Z"/>
</clipPath>
<clipPath clipPathUnits="userSpaceOnUse" id="clipPath59">
<path d="M161 263 L176 263 L176 284 L161 284 L161 263 Z"/>
</clipPath>
<clipPath clipPathUnits="userSpaceOnUse" id="clipPath60">
<path d="M244 22 L300 22 L300 35 L244 35 L244 22 Z"/>
</clipPath>
<clipPath clipPathUnits="userSpaceOnUse" id="clipPath61">
<path d="M579 23 L669 23 L669 36 L579 36 L579 23 Z"/>
</clipPath>
<clipPath clipPathUnits="userSpaceOnUse" id="clipPath62">
<path d="M245 38 L268 38 L268 51 L245 51 L245 38 Z"/>
</clipPath>
<clipPath clipPathUnits="userSpaceOnUse" id="clipPath63">
<path d="M649 43 L669 43 L669 56 L649 56 L649 43 Z"/>
</clipPath>
<clipPath clipPathUnits="userSpaceOnUse" id="clipPath64">
<path d="M218 32 L237 32 L237 43 L218 43 L218 32 Z"/>
</clipPath>
<clipPath clipPathUnits="userSpaceOnUse" id="clipPath65">
<path d="M677 30 L698 30 L698 45 L677 45 L677 30 Z"/>
</clipPath>
<clipPath clipPathUnits="userSpaceOnUse" id="clipPath66">
<path d="M751 76 L836 76 L836 89 L751 89 L751 76 Z"/>
</clipPath>
<clipPath clipPathUnits="userSpaceOnUse" id="clipPath67">
<path d="M755 127 L845 127 L845 140 L755 140 L755 127 Z"/>
</clipPath>
<clipPath clipPathUnits="userSpaceOnUse" id="clipPath68">
<path d="M734 76 L745 76 L745 89 L734 89 L734 76 Z"/>
</clipPath>
<clipPath clipPathUnits="userSpaceOnUse" id="clipPath69">
<path d="M732 126 L742 126 L742 139 L732 139 L732 126 Z"/>
</clipPath>
<clipPath clipPathUnits="userSpaceOnUse" id="clipPath70">
<path d="M742 61 L753 61 L753 80 L742 80 L742 61 Z"/>
</clipPath>
<clipPath clipPathUnits="userSpaceOnUse" id="clipPath71">
<path d="M740 137 L755 137 L755 158 L740 158 L740 137 Z"/>
</clipPath>
</defs>
<g font-size="11" fill="white" stroke-linejoin="round" stroke="white" stroke-width="0" stroke-miterlimit="0">
<rect x="10" y="282" clip-path="url(#clipPath1)" width="315" rx="0" ry="0" height="169" stroke="none"/>
</g>
<g font-size="9" font-family="'Helvetica'" stroke-linejoin="round" font-weight="bold" stroke-width="0" stroke-miterlimit="0">
<text xml:space="preserve" x="111" y="292" clip-path="url(#clipPath2)" stroke="none">StateMachineConfiguration</text>
</g>
<g font-size="11" stroke-width="1.1" stroke-linecap="butt">
<line clip-path="url(#clipPath3)" fill="none" x1="10" x2="325" y1="297" y2="297"/>
<text x="15" font-size="9" y="332" clip-path="url(#clipPath4)" font-family="'Helvetica'" stroke="none" xml:space="preserve"> + getRoot(): StateConfiguration [1]</text>
<text x="15" font-size="9" y="343" clip-path="url(#clipPath5)" font-family="'Helvetica'" stroke="none" xml:space="preserve"> + getExecution(): StateMachineExecution [1]</text>
<text x="15" font-size="9" y="354" clip-path="url(#clipPath6)" font-family="'Helvetica'" stroke="none" xml:space="preserve"> + getVertexActivationsAtLevel(  in level: Integer [1]): VertexActivation [*]</text>
<text x="15" font-size="9" y="365" clip-path="url(#clipPath7)" font-family="'Helvetica'" stroke="none" xml:space="preserve"> + register(  in stateActivation: StateActivation [1]): Boolean [1]</text>
<text x="15" font-size="9" y="376" clip-path="url(#clipPath8)" font-family="'Helvetica'" stroke="none" xml:space="preserve"> + unregister(  in stateActivation: StateActivation [1]): Boolean [1]</text>
<text x="15" font-size="9" y="387" clip-path="url(#clipPath9)" font-family="'Helvetica'" stroke="none" xml:space="preserve"> + isStable(): Boolean [1]</text>
<text x="15" font-size="9" y="398" clip-path="url(#clipPath10)" font-family="'Helvetica'" stroke="none" xml:space="preserve"> + isActive(  in activation: VertexActivation [1]): Boolean [1]</text>
<text x="15" font-size="9" y="409" clip-path="url(#clipPath11)" font-family="'Helvetica'" stroke="none" xml:space="preserve"> # remove(  in vertexActivation: VertexActivation [1]): Boolean [1]</text>
<text x="15" font-size="9" y="420" clip-path="url(#clipPath12)" font-family="'Helvetica'" stroke="none" xml:space="preserve"> # add(  in activation: VertexActivation [1]): Boolean [1]</text>
<line clip-path="url(#clipPath13)" fill="none" x1="10" x2="325" y1="323" y2="323"/>
<rect x="10" y="282" clip-path="url(#clipPath1)" fill="none" width="314" rx="0" ry="0" height="168"/>
<rect x="578" y="280" clip-path="url(#clipPath14)" fill="white" width="339" rx="0" ry="0" height="173" stroke="none"/>
<text x="708" font-size="9" y="290" clip-path="url(#clipPath15)" font-family="'Helvetica'" stroke="none" font-weight="bold" xml:space="preserve">StateConfiguration</text>
<text x="583" font-size="9" y="304" clip-path="url(#clipPath16)" font-family="'Helvetica'" stroke="none" xml:space="preserve"> - level: Integer [1]</text>
<line clip-path="url(#clipPath17)" fill="none" x1="578" x2="917" y1="295" y2="295"/>
<text x="583" font-size="9" y="328" clip-path="url(#clipPath18)" font-family="'Helvetica'" stroke="none" xml:space="preserve"> # getLevel(): Integer [1]</text>
<text x="583" font-size="9" y="339" clip-path="url(#clipPath19)" font-family="'Helvetica'" stroke="none" xml:space="preserve"> + getChildren(): StateConfiguration [*]</text>
<text x="583" font-size="9" y="350" clip-path="url(#clipPath20)" font-family="'Helvetica'" stroke="none" xml:space="preserve"> + getParent(): StateConfiguration [1]</text>
<text x="583" font-size="9" y="361" clip-path="url(#clipPath21)" font-family="'Helvetica'" stroke="none" xml:space="preserve"> + getVertexActivation(): VertexActivation [1]</text>
<text x="583" font-size="9" y="372" clip-path="url(#clipPath22)" font-family="'Helvetica'" stroke="none" xml:space="preserve"> + setParent(  in stateConfiguration: StateConfiguration [1])</text>
<text x="583" font-size="9" y="383" clip-path="url(#clipPath23)" font-family="'Helvetica'" stroke="none" xml:space="preserve"> - getContext(  in activation: VertexActivation [1]): VertexActivation [*]</text>
<text x="583" font-size="9" y="394" clip-path="url(#clipPath24)" font-family="'Helvetica'" stroke="none" xml:space="preserve"> + removeChild(  in activation: VertexActivation [1])</text>
<text x="583" font-size="9" y="405" clip-path="url(#clipPath25)" font-family="'Helvetica'" stroke="none" xml:space="preserve"> - remove(  in activation: VertexActivation [1],   in context: VertexActivation [*])</text>
<text x="583" font-size="9" y="416" clip-path="url(#clipPath26)" font-family="'Helvetica'" stroke="none" xml:space="preserve"> + addChild(  in activation: VertexActivation [1])</text>
<text x="583" font-size="9" y="427" clip-path="url(#clipPath27)" font-family="'Helvetica'" stroke="none" xml:space="preserve"> - add(  in activation: VertexActivation [1],   in context: VertexActivation [1..*])</text>
<text x="583" font-size="9" y="438" clip-path="url(#clipPath28)" font-family="'Helvetica'" stroke="none" xml:space="preserve"> + isActive(): Boolean [1]</text>
<line clip-path="url(#clipPath29)" fill="none" x1="578" x2="917" y1="319" y2="319"/>
<rect x="578" y="280" clip-path="url(#clipPath14)" fill="none" width="338" rx="0" ry="0" height="172"/>
<rect x="696" y="156" clip-path="url(#clipPath30)" fill="white" width="100" rx="0" ry="0" height="50" stroke="none"/>
</g>
<g stroke-linecap="butt" font-size="9" font-family="'Helvetica'" font-style="italic" font-weight="bold" stroke-width="1.1">
<text xml:space="preserve" x="710" y="182" clip-path="url(#clipPath31)" stroke="none">VertexActivation</text>
</g>
<g font-size="11" stroke-width="1.1" stroke-linecap="butt">
<rect x="696" y="156" clip-path="url(#clipPath30)" fill="none" width="99" rx="0" ry="0" height="49"/>
<rect x="118" y="13" clip-path="url(#clipPath32)" fill="white" width="101" rx="0" ry="0" height="50" stroke="none"/>
<text x="120" font-size="9" y="39" clip-path="url(#clipPath33)" font-family="'Helvetica'" stroke="none" font-weight="bold" xml:space="preserve">StateMachineExecution</text>
<rect x="118" y="13" clip-path="url(#clipPath32)" fill="none" width="100" rx="0" ry="0" height="49"/>
<rect x="696" y="12" clip-path="url(#clipPath34)" fill="white" width="100" rx="0" ry="0" height="50" stroke="none"/>
<text x="711" font-size="9" y="38" clip-path="url(#clipPath35)" font-family="'Helvetica'" stroke="none" font-weight="bold" xml:space="preserve">RegionActivation</text>
<rect x="696" y="12" clip-path="url(#clipPath34)" fill="none" width="99" rx="0" ry="0" height="49"/>
<line clip-path="url(#clipPath36)" fill="none" text-rendering="optimizeLegibility" x1="681" x2="681" y1="453" y2="534"/>
<line clip-path="url(#clipPath36)" fill="none" text-rendering="optimizeLegibility" x1="681" x2="821" y1="534" y2="534"/>
<line clip-path="url(#clipPath36)" fill="none" text-rendering="optimizeLegibility" x1="821" x2="821" y1="534" y2="453"/>
<text x="637" font-size="9" y="510" clip-path="url(#clipPath37)" text-rendering="optimizeLegibility" stroke="none" xml:space="preserve"> + parent</text>
<text x="770" font-size="9" y="485" clip-path="url(#clipPath38)" text-rendering="optimizeLegibility" stroke="none" xml:space="preserve"> + children</text>
<text x="685" font-size="9" y="511" clip-path="url(#clipPath39)" text-rendering="optimizeLegibility" stroke="none" xml:space="preserve"> 0..1</text>
<text x="826" font-size="9" y="485" clip-path="url(#clipPath40)" text-rendering="optimizeLegibility" stroke="none" xml:space="preserve"> *</text>
<polygon text-rendering="optimizeLegibility" clip-path="url(#clipPath41)" points=" 682 453 683 455 683 457 682 459 681 459 686 468 681 477 687 493 681 477 675 493 681 477 677 468 681 459 680 459 679 457 679 455 680 453" stroke="none"/>
<polygon fill="none" text-rendering="optimizeLegibility" clip-path="url(#clipPath41)" points=" 682 453 683 455 683 457 682 459 681 459 686 468 681 477 687 493 681 477 675 493 681 477 677 468 681 459 680 459 679 457 679 455 680 453"/>
<polygon text-rendering="optimizeLegibility" clip-path="url(#clipPath42)" points=" 822 453 824 455 824 457 822 459 821 459 827 471 821 459 815 471 821 459 820 459 818 457 818 455 820 453" stroke="none"/>
<polygon fill="none" text-rendering="optimizeLegibility" clip-path="url(#clipPath42)" points=" 822 453 824 455 824 457 822 459 821 459 827 471 821 459 815 471 821 459 820 459 818 457 818 455 820 453"/>
<line clip-path="url(#clipPath36)" fill="none" text-rendering="optimizeLegibility" x1="325" x2="578" y1="366" y2="366"/>
<text x="346" font-size="9" y="362" clip-path="url(#clipPath43)" text-rendering="optimizeLegibility" stroke="none" xml:space="preserve"> + completeConfiguration</text>
<text x="472" font-size="9" y="361" clip-path="url(#clipPath44)" text-rendering="optimizeLegibility" stroke="none" xml:space="preserve"> + rootConfiguration</text>
<text x="348" font-size="9" y="377" clip-path="url(#clipPath45)" text-rendering="optimizeLegibility" stroke="none" xml:space="preserve"> 1</text>
<text x="552" font-size="9" y="379" clip-path="url(#clipPath46)" text-rendering="optimizeLegibility" stroke="none" xml:space="preserve"> 1</text>
<polygon text-rendering="optimizeLegibility" clip-path="url(#clipPath47)" points=" 325 365 327 363 329 363 331 365 331 366 343 360 331 366 343 372 331 366 331 367 329 369 327 369 325 367" stroke="none"/>
<polygon fill="none" text-rendering="optimizeLegibility" clip-path="url(#clipPath47)" points=" 325 365 327 363 329 363 331 365 331 366 343 360 331 366 343 372 331 366 331 367 329 369 327 369 325 367"/>
<polygon text-rendering="optimizeLegibility" clip-path="url(#clipPath48)" points=" 578 367 576 369 574 369 572 367 572 366 560 372 572 366 560 360 572 366 572 365 574 363 576 363 578 365" stroke="none"/>
<polygon fill="none" text-rendering="optimizeLegibility" clip-path="url(#clipPath48)" points=" 578 367 576 369 574 369 572 367 572 366 560 372 572 366 560 360 572 366 572 365 574 363 576 363 578 365"/>
<line clip-path="url(#clipPath36)" fill="none" text-rendering="optimizeLegibility" x1="746" x2="746" y1="280" y2="206"/>
<text x="750" font-size="9" y="274" clip-path="url(#clipPath49)" text-rendering="optimizeLegibility" stroke="none" xml:space="preserve"> + stateConfiguration</text>
<text x="750" font-size="9" y="239" clip-path="url(#clipPath50)" text-rendering="optimizeLegibility" stroke="none" xml:space="preserve"> + vertexActivation</text>
<text x="735" font-size="9" y="273" clip-path="url(#clipPath51)" text-rendering="optimizeLegibility" stroke="none" xml:space="preserve"> 1</text>
<text x="735" font-size="9" y="239" clip-path="url(#clipPath52)" text-rendering="optimizeLegibility" stroke="none" xml:space="preserve"> 1</text>
<polygon text-rendering="optimizeLegibility" clip-path="url(#clipPath53)" points=" 747 206 749 208 749 210 747 212 746 212 752 224 746 212 740 224 746 212 745 212 743 210 743 208 745 206" stroke="none"/>
<polygon fill="none" text-rendering="optimizeLegibility" clip-path="url(#clipPath53)" points=" 747 206 749 208 749 210 747 212 746 212 752 224 746 212 740 224 746 212 745 212 743 210 743 208 745 206"/>
<line clip-path="url(#clipPath36)" fill="none" text-rendering="optimizeLegibility" x1="168" x2="168" y1="63" y2="282"/>
<text x="109" font-size="9" y="112" clip-path="url(#clipPath54)" text-rendering="optimizeLegibility" stroke="none" xml:space="preserve"> + execution</text>
<text x="96" font-size="9" y="255" clip-path="url(#clipPath55)" text-rendering="optimizeLegibility" stroke="none" xml:space="preserve"> + configuration</text>
<text x="170" font-size="9" y="114" clip-path="url(#clipPath56)" text-rendering="optimizeLegibility" stroke="none" xml:space="preserve"> 1</text>
<text x="172" font-size="9" y="255" clip-path="url(#clipPath57)" text-rendering="optimizeLegibility" stroke="none" xml:space="preserve"> 1</text>
<polygon text-rendering="optimizeLegibility" clip-path="url(#clipPath58)" points=" 169 63 170 65 170 67 169 69 168 69 173 78 168 87 174 103 168 87 162 103 168 87 164 78 168 69 167 69 166 67 166 65 167 63" stroke="none"/>
<polygon fill="none" text-rendering="optimizeLegibility" clip-path="url(#clipPath58)" points=" 169 63 170 65 170 67 169 69 168 69 173 78 168 87 174 103 168 87 162 103 168 87 164 78 168 69 167 69 166 67 166 65 167 63"/>
<polygon text-rendering="optimizeLegibility" clip-path="url(#clipPath59)" points=" 167 282 165 280 165 278 167 276 168 276 162 264 168 276 174 264 168 276 169 276 171 278 171 280 169 282" stroke="none"/>
<polygon fill="none" text-rendering="optimizeLegibility" clip-path="url(#clipPath59)" points=" 167 282 165 280 165 278 167 276 168 276 162 264 168 276 174 264 168 276 169 276 171 278 171 280 169 282"/>
<line clip-path="url(#clipPath36)" fill="none" text-rendering="optimizeLegibility" x1="219" x2="696" y1="37" y2="37"/>
<text x="245" font-size="9" y="32" clip-path="url(#clipPath60)" text-rendering="optimizeLegibility" stroke="none" xml:space="preserve"> + execution</text>
<text x="580" font-size="9" y="33" clip-path="url(#clipPath61)" text-rendering="optimizeLegibility" stroke="none" xml:space="preserve"> + regionActivations</text>
<text x="246" font-size="9" y="48" clip-path="url(#clipPath62)" text-rendering="optimizeLegibility" stroke="none" xml:space="preserve"> 0..1</text>
<text x="650" font-size="9" y="53" clip-path="url(#clipPath63)" text-rendering="optimizeLegibility" stroke="none" xml:space="preserve"> 1..*</text>
<polygon text-rendering="optimizeLegibility" clip-path="url(#clipPath64)" points=" 219 37 227 33 235 37 227 41" stroke="none"/>
<polygon fill="none" text-rendering="optimizeLegibility" clip-path="url(#clipPath64)" points=" 219 37 227 33 235 37 227 41"/>
<polygon text-rendering="optimizeLegibility" clip-path="url(#clipPath65)" points=" 696 38 694 40 692 40 690 38 690 37 678 43 690 37 678 31 690 37 690 36 692 34 694 34 696 36" stroke="none"/>
<polygon fill="none" text-rendering="optimizeLegibility" clip-path="url(#clipPath65)" points=" 696 38 694 40 692 40 690 38 690 37 678 43 690 37 678 31 690 37 690 36 692 34 694 34 696 36"/>
<line clip-path="url(#clipPath36)" fill="none" text-rendering="optimizeLegibility" x1="747" x2="747" y1="62" y2="156"/>
<text x="752" font-size="9" y="86" clip-path="url(#clipPath66)" text-rendering="optimizeLegibility" stroke="none" xml:space="preserve"> + regionActivation</text>
<text x="756" font-size="9" y="137" clip-path="url(#clipPath67)" text-rendering="optimizeLegibility" stroke="none" xml:space="preserve"> # vertexActivations</text>
<text x="735" font-size="9" y="86" clip-path="url(#clipPath68)" text-rendering="optimizeLegibility" stroke="none" xml:space="preserve"> 1</text>
<text x="733" font-size="9" y="136" clip-path="url(#clipPath69)" text-rendering="optimizeLegibility" stroke="none" xml:space="preserve"> *</text>
<polygon text-rendering="optimizeLegibility" clip-path="url(#clipPath70)" points=" 747 62 751 70 747 78 743 70" stroke="none"/>
<polygon fill="none" text-rendering="optimizeLegibility" clip-path="url(#clipPath70)" points=" 747 62 751 70 747 78 743 70"/>
<polygon text-rendering="optimizeLegibility" clip-path="url(#clipPath71)" points=" 746 156 744 154 744 152 746 150 747 150 741 138 747 150 753 138 747 150 748 150 750 152 750 154 748 156" stroke="none"/>
<polygon fill="none" text-rendering="optimizeLegibility" clip-path="url(#clipPath71)" points=" 746 156 744 154 744 152 746 150 747 150 741 138 747 150 753 138 747 150 748 150 750 152 750 154 748 156"/>
</g>
</g>
</svg>
