<?xml version="1.0" encoding="UTF-8"?><svg xmlns="http://www.w3.org/2000/svg" xmlns:xlink="http://www.w3.org/1999/xlink" stroke-dasharray="none" shape-rendering="auto" font-family="'Dialog'" width="1111" text-rendering="auto" fill-opacity="1" contentScriptType="text/ecmascript" color-interpolation="auto" color-rendering="auto" preserveAspectRatio="xMidYMid meet" font-size="12" viewBox="0 0 1111 720" fill="black" stroke="black" image-rendering="auto" stroke-miterlimit="10" zoomAndPan="magnify" version="1.0" stroke-linecap="square" stroke-linejoin="miter" contentStyleType="text/css" font-style="normal" height="720" stroke-width="1" stroke-dashoffset="0" font-weight="normal" stroke-opacity="1">
<!--Generated by the Batik Graphics2D SVG Generator-->
<defs id="genericDefs"/>
<g>
<defs id="defs1">
<clipPath clipPathUnits="userSpaceOnUse" id="clipPath1">
<path d="M636 9 L738 9 L738 62 L636 62 L636 9 Z"/>
</clipPath>
<clipPath clipPathUnits="userSpaceOnUse" id="clipPath2">
<path d="M650 29 L725 29 L725 41 L650 41 L650 29 Z"/>
</clipPath>
<clipPath clipPathUnits="userSpaceOnUse" id="clipPath3">
<path d="M10 501 L294 501 L294 561 L10 561 L10 501 Z"/>
</clipPath>
<clipPath clipPathUnits="userSpaceOnUse" id="clipPath4">
<path d="M94 504 L210 504 L210 516 L94 516 L94 504 Z"/>
</clipPath>
<clipPath clipPathUnits="userSpaceOnUse" id="clipPath5">
<path d="M15 517 L230 517 L230 529 L15 529 L15 517 Z"/>
</clipPath>
<clipPath clipPathUnits="userSpaceOnUse" id="clipPath6">
<path d="M15 527 L235 527 L235 539 L15 539 L15 527 Z"/>
</clipPath>
<clipPath clipPathUnits="userSpaceOnUse" id="clipPath7">
<path d="M10 515 L294 515 L294 561 L10 561 L10 515 Z"/>
</clipPath>
<clipPath clipPathUnits="userSpaceOnUse" id="clipPath8">
<path d="M9 216 L648 216 L648 261 L9 261 L9 216 Z"/>
</clipPath>
<clipPath clipPathUnits="userSpaceOnUse" id="clipPath9">
<path d="M267 219 L389 219 L389 231 L267 231 L267 219 Z"/>
</clipPath>
<clipPath clipPathUnits="userSpaceOnUse" id="clipPath10">
<path d="M14 232 L643 232 L643 244 L14 244 L14 232 Z"/>
</clipPath>
<clipPath clipPathUnits="userSpaceOnUse" id="clipPath11">
<path d="M9 230 L648 230 L648 261 L9 261 L9 230 Z"/>
</clipPath>
<clipPath clipPathUnits="userSpaceOnUse" id="clipPath12">
<path d="M312 102 L1102 102 L1102 151 L312 151 L312 102 Z"/>
</clipPath>
<clipPath clipPathUnits="userSpaceOnUse" id="clipPath13">
<path d="M657 105 L756 105 L756 117 L657 117 L657 105 Z"/>
</clipPath>
<clipPath clipPathUnits="userSpaceOnUse" id="clipPath14">
<path d="M317 118 L590 118 L590 130 L317 130 L317 118 Z"/>
</clipPath>
<clipPath clipPathUnits="userSpaceOnUse" id="clipPath15">
<path d="M317 128 L1076 128 L1076 140 L317 140 L317 128 Z"/>
</clipPath>
<clipPath clipPathUnits="userSpaceOnUse" id="clipPath16">
<path d="M312 116 L1102 116 L1102 151 L312 151 L312 116 Z"/>
</clipPath>
<clipPath clipPathUnits="userSpaceOnUse" id="clipPath17">
<path d="M10 324 L810 324 L810 400 L10 400 L10 324 Z"/>
</clipPath>
<clipPath clipPathUnits="userSpaceOnUse" id="clipPath18">
<path d="M352 327 L468 327 L468 339 L352 339 L352 327 Z"/>
</clipPath>
<clipPath clipPathUnits="userSpaceOnUse" id="clipPath19">
<path d="M15 340 L435 340 L435 352 L15 352 L15 340 Z"/>
</clipPath>
<clipPath clipPathUnits="userSpaceOnUse" id="clipPath20">
<path d="M15 350 L644 350 L644 362 L15 362 L15 350 Z"/>
</clipPath>
<clipPath clipPathUnits="userSpaceOnUse" id="clipPath21">
<path d="M15 360 L774 360 L774 372 L15 372 L15 360 Z"/>
</clipPath>
<clipPath clipPathUnits="userSpaceOnUse" id="clipPath22">
<path d="M15 370 L777 370 L777 382 L15 382 L15 370 Z"/>
</clipPath>
<clipPath clipPathUnits="userSpaceOnUse" id="clipPath23">
<path d="M10 338 L810 338 L810 400 L10 400 L10 338 Z"/>
</clipPath>
<clipPath clipPathUnits="userSpaceOnUse" id="clipPath24">
<path d="M10 408 L811 408 L811 488 L10 488 L10 408 Z"/>
</clipPath>
<clipPath clipPathUnits="userSpaceOnUse" id="clipPath25">
<path d="M353 411 L468 411 L468 423 L353 423 L353 411 Z"/>
</clipPath>
<clipPath clipPathUnits="userSpaceOnUse" id="clipPath26">
<path d="M15 424 L447 424 L447 436 L15 436 L15 424 Z"/>
</clipPath>
<clipPath clipPathUnits="userSpaceOnUse" id="clipPath27">
<path d="M15 434 L644 434 L644 446 L15 446 L15 434 Z"/>
</clipPath>
<clipPath clipPathUnits="userSpaceOnUse" id="clipPath28">
<path d="M15 444 L774 444 L774 456 L15 456 L15 444 Z"/>
</clipPath>
<clipPath clipPathUnits="userSpaceOnUse" id="clipPath29">
<path d="M15 454 L777 454 L777 466 L15 466 L15 454 Z"/>
</clipPath>
<clipPath clipPathUnits="userSpaceOnUse" id="clipPath30">
<path d="M10 422 L811 422 L811 488 L10 488 L10 422 Z"/>
</clipPath>
<clipPath clipPathUnits="userSpaceOnUse" id="clipPath31">
<path d="M10 269 L657 269 L657 314 L10 314 L10 269 Z"/>
</clipPath>
<clipPath clipPathUnits="userSpaceOnUse" id="clipPath32">
<path d="M263 272 L403 272 L403 284 L263 284 L263 272 Z"/>
</clipPath>
<clipPath clipPathUnits="userSpaceOnUse" id="clipPath33">
<path d="M15 285 L644 285 L644 297 L15 297 L15 285 Z"/>
</clipPath>
<clipPath clipPathUnits="userSpaceOnUse" id="clipPath34">
<path d="M10 283 L657 283 L657 314 L10 314 L10 283 Z"/>
</clipPath>
<clipPath clipPathUnits="userSpaceOnUse" id="clipPath35">
<path d="M10 98 L189 98 L189 152 L10 152 L10 98 Z"/>
</clipPath>
<clipPath clipPathUnits="userSpaceOnUse" id="clipPath36">
<path d="M55 119 L145 119 L145 131 L55 131 L55 119 Z"/>
</clipPath>
<clipPath clipPathUnits="userSpaceOnUse" id="clipPath37">
<path d="M10 639 L670 639 L670 711 L10 711 L10 639 Z"/>
</clipPath>
<clipPath clipPathUnits="userSpaceOnUse" id="clipPath38">
<path d="M275 642 L405 642 L405 654 L275 654 L275 642 Z"/>
</clipPath>
<clipPath clipPathUnits="userSpaceOnUse" id="clipPath39">
<path d="M15 655 L644 655 L644 667 L15 667 L15 655 Z"/>
</clipPath>
<clipPath clipPathUnits="userSpaceOnUse" id="clipPath40">
<path d="M15 665 L617 665 L617 677 L15 677 L15 665 Z"/>
</clipPath>
<clipPath clipPathUnits="userSpaceOnUse" id="clipPath41">
<path d="M15 675 L605 675 L605 687 L15 687 L15 675 Z"/>
</clipPath>
<clipPath clipPathUnits="userSpaceOnUse" id="clipPath42">
<path d="M10 653 L670 653 L670 711 L10 711 L10 653 Z"/>
</clipPath>
<clipPath clipPathUnits="userSpaceOnUse" id="clipPath43">
<path d="M10 570 L380 570 L380 627 L10 627 L10 570 Z"/>
</clipPath>
<clipPath clipPathUnits="userSpaceOnUse" id="clipPath44">
<path d="M121 573 L268 573 L268 585 L121 585 L121 573 Z"/>
</clipPath>
<clipPath clipPathUnits="userSpaceOnUse" id="clipPath45">
<path d="M15 586 L288 586 L288 598 L15 598 L15 586 Z"/>
</clipPath>
<clipPath clipPathUnits="userSpaceOnUse" id="clipPath46">
<path d="M15 596 L348 596 L348 608 L15 608 L15 596 Z"/>
</clipPath>
<clipPath clipPathUnits="userSpaceOnUse" id="clipPath47">
<path d="M10 584 L380 584 L380 627 L10 627 L10 584 Z"/>
</clipPath>
<clipPath clipPathUnits="userSpaceOnUse" id="clipPath48">
<path d="M-1 -1 L1112 -1 L1112 721 L-1 721 L-1 -1 Z"/>
</clipPath>
<clipPath clipPathUnits="userSpaceOnUse" id="clipPath49">
<path d="M675 60 L694 60 L694 73 L675 73 L675 60 Z"/>
</clipPath>
<clipPath clipPathUnits="userSpaceOnUse" id="clipPath50">
<path d="M206 113 L294 113 L294 125 L206 125 L206 113 Z"/>
</clipPath>
<clipPath clipPathUnits="userSpaceOnUse" id="clipPath51">
<path d="M295 127 L316 127 L316 139 L295 139 L295 127 Z"/>
</clipPath>
<clipPath clipPathUnits="userSpaceOnUse" id="clipPath52">
<path d="M210 130 L219 130 L219 142 L210 142 L210 130 Z"/>
</clipPath>
<clipPath clipPathUnits="userSpaceOnUse" id="clipPath53">
<path d="M187 120 L208 120 L208 135 L187 135 L187 120 Z"/>
</clipPath>
<clipPath clipPathUnits="userSpaceOnUse" id="clipPath54">
<path d="M610 149 L629 149 L629 162 L610 162 L610 149 Z"/>
</clipPath>
<clipPath clipPathUnits="userSpaceOnUse" id="clipPath55">
<path d="M676 149 L695 149 L695 162 L676 162 L676 149 Z"/>
</clipPath>
<clipPath clipPathUnits="userSpaceOnUse" id="clipPath56">
<path d="M721 149 L740 149 L740 162 L721 162 L721 149 Z"/>
</clipPath>
<clipPath clipPathUnits="userSpaceOnUse" id="clipPath57">
<path d="M826 149 L845 149 L845 162 L826 162 L826 149 Z"/>
</clipPath>
<clipPath clipPathUnits="userSpaceOnUse" id="clipPath58">
<path d="M871 149 L890 149 L890 162 L871 162 L871 149 Z"/>
</clipPath>
<clipPath clipPathUnits="userSpaceOnUse" id="clipPath59">
<path d="M945 149 L964 149 L964 162 L945 162 L945 149 Z"/>
</clipPath>
<clipPath clipPathUnits="userSpaceOnUse" id="clipPath60">
<path d="M903 149 L922 149 L922 162 L903 162 L903 149 Z"/>
</clipPath>
</defs>
<g font-size="11" fill="white" stroke-linejoin="round" stroke="white" stroke-width="0" stroke-miterlimit="0">
<rect x="637" y="10" clip-path="url(#clipPath1)" width="100" rx="0" ry="0" height="51" stroke="none"/>
</g>
<g font-size="9" font-family="'Arial'" stroke-linejoin="round" font-style="italic" font-weight="bold" stroke-width="0" stroke-miterlimit="0">
<text xml:space="preserve" x="651" y="39" clip-path="url(#clipPath2)" stroke="none">VertexActivation</text>
</g>
<g font-size="11" stroke-width="1.1" stroke-linecap="butt">
<rect x="637" y="10" clip-path="url(#clipPath1)" fill="none" width="99" rx="0" ry="0" height="50"/>
<rect x="11" y="502" clip-path="url(#clipPath3)" fill="white" width="282" rx="0" ry="0" height="58" stroke="none"/>
</g>
<g stroke-linecap="butt" font-size="9" font-family="'Arial'" font-style="italic" font-weight="bold" stroke-width="1.1">
<text xml:space="preserve" x="95" y="514" clip-path="url(#clipPath4)" stroke="none">ConnectionPointActivation</text>
<text x="16" y="527" clip-path="url(#clipPath5)" font-style="normal" stroke="none" font-weight="normal" xml:space="preserve"> + getParentVertexActivation(): VertexActivation [1]</text>
<text x="16" y="537" clip-path="url(#clipPath6)" font-style="normal" stroke="none" font-weight="normal" xml:space="preserve"> + getOwningRegionActivation(): RegionActivation [1]</text>
</g>
<g font-size="11" stroke-width="1.1" stroke-linecap="butt">
<line clip-path="url(#clipPath7)" fill="none" x1="11" x2="293" y1="516" y2="516"/>
<rect x="11" y="502" clip-path="url(#clipPath3)" fill="none" width="281" rx="0" ry="0" height="57"/>
<rect x="10" y="217" clip-path="url(#clipPath8)" fill="white" width="637" rx="0" ry="0" height="43" stroke="none"/>
<text x="268" font-size="9" y="229" clip-path="url(#clipPath9)" font-family="'Arial'" stroke="none" font-weight="bold" xml:space="preserve">InitialPseudostateActivation</text>
<text x="15" font-size="9" y="242" clip-path="url(#clipPath10)" font-family="'Arial'" stroke="none" xml:space="preserve"> + enter(  in enteringTransition: TransitionActivation [1],   in eventOccurrence: EventOccurrence [1],   in leastCommonAncestor: RegionActivation [0..1])</text>
<line clip-path="url(#clipPath11)" fill="none" x1="10" x2="647" y1="231" y2="231"/>
<rect x="10" y="217" clip-path="url(#clipPath8)" fill="none" width="636" rx="0" ry="0" height="42"/>
<rect x="313" y="103" clip-path="url(#clipPath12)" fill="white" width="788" rx="0" ry="0" height="47" stroke="none"/>
</g>
<g stroke-linecap="butt" font-size="9" font-family="'Arial'" font-style="italic" font-weight="bold" stroke-width="1.1">
<text xml:space="preserve" x="658" y="115" clip-path="url(#clipPath13)" stroke="none">PseudostateActivation</text>
<text x="318" y="128" clip-path="url(#clipPath14)" font-style="normal" stroke="none" font-weight="normal" xml:space="preserve"> + evaluateAllGuards(  in eventOccurrence: EventOccurrence [1])</text>
<text x="318" y="138" clip-path="url(#clipPath15)" font-style="normal" stroke="none" font-weight="normal" xml:space="preserve"> + canPropagateExecution(  in enteringTransition: TransitionActivation [1],   in eventOccurrence: EventOccurrence [1],   in leastCommonAncestor: RegionActivation [0..1]): Boolean [1]</text>
</g>
<g font-size="11" stroke-width="1.1" stroke-linecap="butt">
<line clip-path="url(#clipPath16)" fill="none" x1="313" x2="1101" y1="117" y2="117"/>
<rect x="313" y="103" clip-path="url(#clipPath12)" fill="none" width="787" rx="0" ry="0" height="46"/>
<rect x="11" y="325" clip-path="url(#clipPath17)" fill="white" width="798" rx="0" ry="0" height="74" stroke="none"/>
<text x="353" font-size="9" y="337" clip-path="url(#clipPath18)" font-family="'Arial'" stroke="none" font-weight="bold" xml:space="preserve">ForkPseudostateActivation</text>
<text x="16" font-size="9" y="350" clip-path="url(#clipPath19)" font-family="'Arial'" stroke="none" xml:space="preserve"> + isExitable(  in exitingTransition: TransitionActivation [1],   in staticCheck: Boolean [1]): Boolean [1]</text>
<text x="16" font-size="9" y="360" clip-path="url(#clipPath20)" font-family="'Arial'" stroke="none" xml:space="preserve"> + enter(  in enteringTransition: TransitionActivation [1],   in eventOccurrence: EventOccurrence [1],   in leastCommonAncestor: RegionActivation [0..1])</text>
<text x="16" font-size="9" y="370" clip-path="url(#clipPath21)" font-family="'Arial'" stroke="none" xml:space="preserve"> + canPropagateExecution(  in enteringTransition: TransitionActivation [1],   in eventOccurrence: EventOccurrence [1],   in leastCommonAncestor: RegionActivation [0..1]): Boolean [1]</text>
<text x="16" font-size="9" y="380" clip-path="url(#clipPath22)" font-family="'Arial'" stroke="none" xml:space="preserve"> - _canPropagateExecution(  in enteringTransition: TransitionActivation [1],   in eventOccurrence: EventOccurrence [1],   in leastCommonAncestor: RegionActivation [0..1]): Boolean [1]</text>
<line clip-path="url(#clipPath23)" fill="none" x1="11" x2="809" y1="339" y2="339"/>
<rect x="11" y="325" clip-path="url(#clipPath17)" fill="none" width="797" rx="0" ry="0" height="73"/>
<rect x="11" y="409" clip-path="url(#clipPath24)" fill="white" width="799" rx="0" ry="0" height="78" stroke="none"/>
<text x="354" font-size="9" y="421" clip-path="url(#clipPath25)" font-family="'Arial'" stroke="none" font-weight="bold" xml:space="preserve">JoinPseudostateActivation</text>
<text x="16" font-size="9" y="434" clip-path="url(#clipPath26)" font-family="'Arial'" stroke="none" xml:space="preserve"> + isEnterable(  in enteringTransition: TransitionActivation [1],   in staticCheck: Boolean [1]): Boolean [1]</text>
<text x="16" font-size="9" y="444" clip-path="url(#clipPath27)" font-family="'Arial'" stroke="none" xml:space="preserve"> + enter(  in enteringTransition: TransitionActivation [1],   in eventOccurrence: EventOccurrence [1],   in leastCommonAncestor: RegionActivation [0..1])</text>
<text x="16" font-size="9" y="454" clip-path="url(#clipPath28)" font-family="'Arial'" stroke="none" xml:space="preserve"> + canPropagateExecution(  in enteringTransition: TransitionActivation [1],   in eventOccurrence: EventOccurrence [1],   in leastCommonAncestor: RegionActivation [0..1]): Boolean [1]</text>
<text x="16" font-size="9" y="464" clip-path="url(#clipPath29)" font-family="'Arial'" stroke="none" xml:space="preserve"> - _canPropagateExecution(  in enteringTransition: TransitionActivation [1],   in eventOccurrence: EventOccurrence [1],   in leastCommonAncestor: RegionActivation [0..1]): Boolean [1]</text>
<line clip-path="url(#clipPath30)" fill="none" x1="11" x2="810" y1="423" y2="423"/>
<rect x="11" y="409" clip-path="url(#clipPath24)" fill="none" width="798" rx="0" ry="0" height="77"/>
<rect x="11" y="270" clip-path="url(#clipPath31)" fill="white" width="645" rx="0" ry="0" height="43" stroke="none"/>
<text x="264" font-size="9" y="282" clip-path="url(#clipPath32)" font-family="'Arial'" stroke="none" font-weight="bold" xml:space="preserve">TerminatePseudostateActivation</text>
<text x="16" font-size="9" y="295" clip-path="url(#clipPath33)" font-family="'Arial'" stroke="none" xml:space="preserve"> + enter(  in enteringTransition: TransitionActivation [1],   in eventOccurrence: EventOccurrence [1],   in leastCommonAncestor: RegionActivation [0..1])</text>
<line clip-path="url(#clipPath34)" fill="none" x1="11" x2="656" y1="284" y2="284"/>
<rect x="11" y="270" clip-path="url(#clipPath31)" fill="none" width="644" rx="0" ry="0" height="42"/>
<rect x="11" y="99" clip-path="url(#clipPath35)" fill="white" width="177" rx="0" ry="0" height="52" stroke="none"/>
</g>
<g stroke-linecap="butt" font-size="9" font-family="'Arial'" font-style="italic" font-weight="bold" stroke-width="1.1">
<text xml:space="preserve" x="56" y="129" clip-path="url(#clipPath36)" stroke="none">TransitionActivation</text>
</g>
<g font-size="11" stroke-width="1.1" stroke-linecap="butt">
<rect x="11" y="99" clip-path="url(#clipPath35)" fill="none" width="176" rx="0" ry="0" height="51"/>
<rect x="11" y="640" clip-path="url(#clipPath37)" fill="white" width="658" rx="0" ry="0" height="70" stroke="none"/>
</g>
<g stroke-linecap="butt" font-size="9" font-family="'Arial'" font-style="italic" font-weight="bold" stroke-width="1.1">
<text xml:space="preserve" x="276" y="652" clip-path="url(#clipPath38)" stroke="none">HistoryPseudostateActivation</text>
<text x="16" y="665" clip-path="url(#clipPath39)" font-style="normal" stroke="none" font-weight="normal" xml:space="preserve"> + enter(  in enteringTransition: TransitionActivation [1],   in eventOccurrence: EventOccurrence [1],   in leastCommonAncestor: RegionActivation [0..1])</text>
<text x="16" y="675" clip-path="url(#clipPath40)" stroke="none" font-weight="normal" xml:space="preserve"> + restore(  in regionActivation: RegionActivation [1],   in enteringTransition: TransitionActivation [1],   in eventOccurrence: EventOccurrence [1])</text>
<text x="16" y="685" clip-path="url(#clipPath41)" font-style="normal" stroke="none" font-weight="normal" xml:space="preserve"> + restore(  in stateActivation: StateActivation [1],   in enteringTransition: TransitionActivation [1],   in eventOccurrence: EventOccurrence [1])</text>
</g>
<g font-size="11" stroke-width="1.1" stroke-linecap="butt">
<line clip-path="url(#clipPath42)" fill="none" x1="11" x2="669" y1="654" y2="654"/>
<rect x="11" y="640" clip-path="url(#clipPath37)" fill="none" width="657" rx="0" ry="0" height="69"/>
<rect x="11" y="571" clip-path="url(#clipPath43)" fill="white" width="368" rx="0" ry="0" height="55" stroke="none"/>
</g>
<g stroke-linecap="butt" font-size="9" font-family="'Arial'" font-style="italic" font-weight="bold" stroke-width="1.1">
<text xml:space="preserve" x="122" y="583" clip-path="url(#clipPath44)" stroke="none">ConditionalPseudostateActivation</text>
<text x="16" y="596" clip-path="url(#clipPath45)" font-style="normal" stroke="none" font-weight="normal" xml:space="preserve"> + evaluateAllGuards(  in eventOccurrence: EventOccurrence [1])</text>
<text x="16" y="606" clip-path="url(#clipPath46)" font-style="normal" stroke="none" font-weight="normal" xml:space="preserve"> + isElseTransition(  in transitionActivation: TransitionActivation [1]): Boolean [1]</text>
</g>
<g font-size="11" stroke-width="1.1" stroke-linecap="butt">
<line clip-path="url(#clipPath47)" fill="none" x1="11" x2="379" y1="585" y2="585"/>
<rect x="11" y="571" clip-path="url(#clipPath43)" fill="none" width="367" rx="0" ry="0" height="54"/>
<line clip-path="url(#clipPath48)" fill="none" text-rendering="optimizeLegibility" x1="684" x2="684" y1="103" y2="61"/>
</g>
<g stroke-linecap="butt" font-size="9" fill="white" text-rendering="optimizeLegibility" font-family="'Arial'" stroke="white" stroke-width="1.1">
<polygon clip-path="url(#clipPath49)" points=" 684 61 692 71 676 71" stroke="none"/>
<polygon fill="none" clip-path="url(#clipPath49)" points=" 684 61 692 71 676 71" stroke="black"/>
<line clip-path="url(#clipPath48)" fill="none" x1="313" x2="188" y1="127" y2="127" stroke="black"/>
<text x="207" y="123" clip-path="url(#clipPath50)" fill="black" stroke="none" xml:space="preserve"> + fireableTransitions</text>
<text x="296" y="137" clip-path="url(#clipPath51)" fill="black" stroke="none" xml:space="preserve"> 0..1</text>
<text x="211" y="140" clip-path="url(#clipPath52)" fill="black" stroke="none" xml:space="preserve"> *</text>
<polygon fill="black" clip-path="url(#clipPath53)" points=" 188 126 190 124 192 124 194 126 194 127 206 121 194 127 206 133 194 127 194 128 192 130 190 130 188 128" stroke="none"/>
<polygon fill="none" clip-path="url(#clipPath53)" points=" 188 126 190 124 192 124 194 126 194 127 206 121 194 127 206 133 194 127 194 128 192 130 190 130 188 128" stroke="black"/>
<line clip-path="url(#clipPath48)" fill="none" x1="619" x2="619" y1="217" y2="150" stroke="black"/>
<polygon clip-path="url(#clipPath54)" points=" 619 150 627 160 611 160" stroke="none"/>
<polygon fill="none" clip-path="url(#clipPath54)" points=" 619 150 627 160 611 160" stroke="black"/>
<line clip-path="url(#clipPath48)" fill="none" x1="656" x2="685" y1="288" y2="288" stroke="black"/>
<line clip-path="url(#clipPath48)" fill="none" x1="685" x2="685" y1="288" y2="150" stroke="black"/>
<polygon clip-path="url(#clipPath55)" points=" 685 150 693 160 677 160" stroke="none"/>
<polygon fill="none" clip-path="url(#clipPath55)" points=" 685 150 693 160 677 160" stroke="black"/>
<line clip-path="url(#clipPath48)" fill="none" x1="730" x2="730" y1="325" y2="150" stroke="black"/>
<polygon clip-path="url(#clipPath56)" points=" 730 150 738 160 722 160" stroke="none"/>
<polygon fill="none" clip-path="url(#clipPath56)" points=" 730 150 738 160 722 160" stroke="black"/>
<line clip-path="url(#clipPath48)" fill="none" x1="810" x2="835" y1="451" y2="451" stroke="black"/>
<line clip-path="url(#clipPath48)" fill="none" x1="835" x2="835" y1="451" y2="150" stroke="black"/>
<polygon clip-path="url(#clipPath57)" points=" 835 150 843 160 827 160" stroke="none"/>
<polygon fill="none" clip-path="url(#clipPath57)" points=" 835 150 843 160 827 160" stroke="black"/>
<line clip-path="url(#clipPath48)" fill="none" x1="293" x2="880" y1="532" y2="532" stroke="black"/>
<line clip-path="url(#clipPath48)" fill="none" x1="880" x2="880" y1="532" y2="150" stroke="black"/>
<polygon clip-path="url(#clipPath58)" points=" 880 150 888 160 872 160" stroke="none"/>
<polygon fill="none" clip-path="url(#clipPath58)" points=" 880 150 888 160 872 160" stroke="black"/>
<line clip-path="url(#clipPath48)" fill="none" x1="669" x2="954" y1="675" y2="675" stroke="black"/>
<line clip-path="url(#clipPath48)" fill="none" x1="954" x2="954" y1="675" y2="150" stroke="black"/>
<polygon clip-path="url(#clipPath59)" points=" 954 150 962 160 946 160" stroke="none"/>
<polygon fill="none" clip-path="url(#clipPath59)" points=" 954 150 962 160 946 160" stroke="black"/>
<line clip-path="url(#clipPath48)" fill="none" x1="379" x2="912" y1="601" y2="601" stroke="black"/>
<line clip-path="url(#clipPath48)" fill="none" x1="912" x2="912" y1="601" y2="150" stroke="black"/>
<polygon clip-path="url(#clipPath60)" points=" 912 150 920 160 904 160" stroke="none"/>
<polygon fill="none" clip-path="url(#clipPath60)" points=" 912 150 920 160 904 160" stroke="black"/>
</g>
</g>
</svg>
