<?xml version="1.0" encoding="UTF-8"?><svg xmlns="http://www.w3.org/2000/svg" xmlns:xlink="http://www.w3.org/1999/xlink" stroke-dasharray="none" shape-rendering="auto" font-family="'Dialog'" width="512" text-rendering="auto" fill-opacity="1" contentScriptType="text/ecmascript" color-interpolation="auto" color-rendering="auto" preserveAspectRatio="xMidYMid meet" font-size="12" viewBox="0 0 512 241" fill="black" stroke="black" image-rendering="auto" stroke-miterlimit="10" zoomAndPan="magnify" version="1.0" stroke-linecap="square" stroke-linejoin="miter" contentStyleType="text/css" font-style="normal" height="241" stroke-width="1" stroke-dashoffset="0" font-weight="normal" stroke-opacity="1">
<!--Generated by the Batik Graphics2D SVG Generator-->
<defs id="genericDefs"/>
<g>
<defs id="defs1">
<clipPath clipPathUnits="userSpaceOnUse" id="clipPath1">
<path d="M207 9 L309 9 L309 62 L207 62 L207 9 Z"/>
</clipPath>
<clipPath clipPathUnits="userSpaceOnUse" id="clipPath2">
<path d="M214 29 L304 29 L304 42 L214 42 L214 29 Z"/>
</clipPath>
<clipPath clipPathUnits="userSpaceOnUse" id="clipPath3">
<path d="M9 154 L135 154 L135 231 L9 231 L9 154 Z"/>
</clipPath>
<clipPath clipPathUnits="userSpaceOnUse" id="clipPath4">
<path d="M10 157 L134 157 L134 170 L10 170 L10 157 Z"/>
</clipPath>
<clipPath clipPathUnits="userSpaceOnUse" id="clipPath5">
<path d="M9 169 L135 169 L135 193 L9 193 L9 169 Z"/>
</clipPath>
<clipPath clipPathUnits="userSpaceOnUse" id="clipPath6">
<path d="M14 194 L80 194 L80 207 L14 207 L14 194 Z"/>
</clipPath>
<clipPath clipPathUnits="userSpaceOnUse" id="clipPath7">
<path d="M14 205 L77 205 L77 218 L14 218 L14 205 Z"/>
</clipPath>
<clipPath clipPathUnits="userSpaceOnUse" id="clipPath8">
<path d="M9 192 L135 192 L135 230 L9 230 L9 192 Z"/>
</clipPath>
<clipPath clipPathUnits="userSpaceOnUse" id="clipPath9">
<path d="M379 154 L502 154 L502 231 L379 231 L379 154 Z"/>
</clipPath>
<clipPath clipPathUnits="userSpaceOnUse" id="clipPath10">
<path d="M380 157 L501 157 L501 170 L380 170 L380 157 Z"/>
</clipPath>
<clipPath clipPathUnits="userSpaceOnUse" id="clipPath11">
<path d="M379 169 L502 169 L502 193 L379 193 L379 169 Z"/>
</clipPath>
<clipPath clipPathUnits="userSpaceOnUse" id="clipPath12">
<path d="M384 194 L447 194 L447 207 L384 207 L384 194 Z"/>
</clipPath>
<clipPath clipPathUnits="userSpaceOnUse" id="clipPath13">
<path d="M384 205 L450 205 L450 218 L384 218 L384 205 Z"/>
</clipPath>
<clipPath clipPathUnits="userSpaceOnUse" id="clipPath14">
<path d="M379 192 L502 192 L502 230 L379 230 L379 192 Z"/>
</clipPath>
<clipPath clipPathUnits="userSpaceOnUse" id="clipPath15">
<path d="M163 154 L353 154 L353 232 L163 232 L163 154 Z"/>
</clipPath>
<clipPath clipPathUnits="userSpaceOnUse" id="clipPath16">
<path d="M202 157 L313 157 L313 170 L202 170 L202 157 Z"/>
</clipPath>
<clipPath clipPathUnits="userSpaceOnUse" id="clipPath17">
<path d="M163 169 L353 169 L353 190 L163 190 L163 169 Z"/>
</clipPath>
<clipPath clipPathUnits="userSpaceOnUse" id="clipPath18">
<path d="M168 191 L234 191 L234 204 L168 204 L168 191 Z"/>
</clipPath>
<clipPath clipPathUnits="userSpaceOnUse" id="clipPath19">
<path d="M168 202 L231 202 L231 215 L168 215 L168 202 Z"/>
</clipPath>
<clipPath clipPathUnits="userSpaceOnUse" id="clipPath20">
<path d="M168 213 L348 213 L348 226 L168 226 L168 213 Z"/>
</clipPath>
<clipPath clipPathUnits="userSpaceOnUse" id="clipPath21">
<path d="M163 189 L353 189 L353 231 L163 231 L163 189 Z"/>
</clipPath>
<clipPath clipPathUnits="userSpaceOnUse" id="clipPath22">
<path d="M-1 -1 L513 -1 L513 242 L-1 242 L-1 -1 Z"/>
</clipPath>
<clipPath clipPathUnits="userSpaceOnUse" id="clipPath23">
<path d="M248 60 L267 60 L267 73 L248 73 L248 60 Z"/>
</clipPath>
</defs>
<g font-size="11" fill="white" stroke-linejoin="round" stroke="white" stroke-width="0" stroke-miterlimit="0">
<rect x="208" y="10" clip-path="url(#clipPath1)" width="100" rx="0" ry="0" height="51" stroke="none"/>
</g>
<g font-size="9" font-family="'Helvetica'" stroke-linejoin="round" font-style="italic" font-weight="bold" stroke-width="0" stroke-miterlimit="0">
<text xml:space="preserve" x="215" y="37" clip-path="url(#clipPath2)" stroke="none">TransitionActivation</text>
</g>
<g font-size="11" stroke-width="1.1" stroke-linecap="butt">
<rect x="208" y="10" clip-path="url(#clipPath1)" fill="none" width="99" rx="0" ry="0" height="50"/>
<rect x="10" y="155" clip-path="url(#clipPath3)" fill="white" width="124" rx="0" ry="0" height="75" stroke="none"/>
<text x="11" font-size="9" y="165" clip-path="url(#clipPath4)" font-family="'Helvetica'" stroke="none" font-weight="bold" xml:space="preserve">ExternalTransitionActivation</text>
<line clip-path="url(#clipPath5)" fill="none" x1="10" x2="134" y1="170" y2="170"/>
<text x="15" font-size="9" y="202" clip-path="url(#clipPath6)" font-family="'Helvetica'" stroke="none" xml:space="preserve"> # enterTarget()</text>
<text x="15" font-size="9" y="213" clip-path="url(#clipPath7)" font-family="'Helvetica'" stroke="none" xml:space="preserve"> # exitSource()</text>
<line clip-path="url(#clipPath8)" fill="none" x1="10" x2="134" y1="193" y2="193"/>
<rect x="10" y="155" clip-path="url(#clipPath3)" fill="none" width="123" rx="0" ry="0" height="74"/>
<rect x="380" y="155" clip-path="url(#clipPath9)" fill="white" width="121" rx="0" ry="0" height="75" stroke="none"/>
<text x="381" font-size="9" y="165" clip-path="url(#clipPath10)" font-family="'Helvetica'" stroke="none" font-weight="bold" xml:space="preserve">InternalTransitionActivation</text>
<line clip-path="url(#clipPath11)" fill="none" x1="380" x2="501" y1="170" y2="170"/>
<text x="385" font-size="9" y="202" clip-path="url(#clipPath12)" font-family="'Helvetica'" stroke="none" xml:space="preserve"> # exitSource()</text>
<text x="385" font-size="9" y="213" clip-path="url(#clipPath13)" font-family="'Helvetica'" stroke="none" xml:space="preserve"> # enterTarget()</text>
<line clip-path="url(#clipPath14)" fill="none" x1="380" x2="501" y1="193" y2="193"/>
<rect x="380" y="155" clip-path="url(#clipPath9)" fill="none" width="120" rx="0" ry="0" height="74"/>
<rect x="164" y="155" clip-path="url(#clipPath15)" fill="white" width="188" rx="0" ry="0" height="76" stroke="none"/>
<text x="203" font-size="9" y="165" clip-path="url(#clipPath16)" font-family="'Helvetica'" stroke="none" font-weight="bold" xml:space="preserve">LocalTransitionActivation</text>
<line clip-path="url(#clipPath17)" fill="none" x1="164" x2="352" y1="170" y2="170"/>
<text x="169" font-size="9" y="199" clip-path="url(#clipPath18)" font-family="'Helvetica'" stroke="none" xml:space="preserve"> # enterTarget()</text>
<text x="169" font-size="9" y="210" clip-path="url(#clipPath19)" font-family="'Helvetica'" stroke="none" xml:space="preserve"> # exitSource()</text>
<text x="169" font-size="9" y="221" clip-path="url(#clipPath20)" font-family="'Helvetica'" stroke="none" xml:space="preserve"> # getContainingState(): StateActivation [1]</text>
<line clip-path="url(#clipPath21)" fill="none" x1="164" x2="352" y1="190" y2="190"/>
<rect x="164" y="155" clip-path="url(#clipPath15)" fill="none" width="187" rx="0" ry="0" height="75"/>
<line clip-path="url(#clipPath22)" fill="none" text-rendering="optimizeLegibility" x1="75" x2="75" y1="155" y2="109"/>
<line clip-path="url(#clipPath22)" fill="none" text-rendering="optimizeLegibility" x1="75" x2="257" y1="109" y2="109"/>
<line clip-path="url(#clipPath22)" fill="none" text-rendering="optimizeLegibility" x1="257" x2="257" y1="109" y2="61"/>
</g>
<g stroke-linecap="butt" font-size="9" fill="white" text-rendering="optimizeLegibility" font-family="'Helvetica'" stroke="white" stroke-width="1.1">
<polygon clip-path="url(#clipPath23)" points=" 257 61 265 71 249 71" stroke="none"/>
<polygon fill="none" clip-path="url(#clipPath23)" points=" 257 61 265 71 249 71" stroke="black"/>
<line clip-path="url(#clipPath22)" fill="none" x1="257" x2="257" y1="155" y2="109" stroke="black"/>
<line clip-path="url(#clipPath22)" fill="none" x1="257" x2="257" y1="109" y2="109" stroke="black"/>
<line clip-path="url(#clipPath22)" fill="none" x1="257" x2="257" y1="109" y2="61" stroke="black"/>
<polygon clip-path="url(#clipPath23)" points=" 257 61 265 71 249 71" stroke="none"/>
<polygon fill="none" clip-path="url(#clipPath23)" points=" 257 61 265 71 249 71" stroke="black"/>
<line clip-path="url(#clipPath22)" fill="none" x1="439" x2="439" y1="155" y2="109" stroke="black"/>
<line clip-path="url(#clipPath22)" fill="none" x1="439" x2="257" y1="109" y2="109" stroke="black"/>
<line clip-path="url(#clipPath22)" fill="none" x1="257" x2="257" y1="109" y2="61" stroke="black"/>
<polygon clip-path="url(#clipPath23)" points=" 257 61 265 71 249 71" stroke="none"/>
<polygon fill="none" clip-path="url(#clipPath23)" points=" 257 61 265 71 249 71" stroke="black"/>
</g>
</g>
</svg>
