<?xml version="1.0" encoding="UTF-8"?><svg xmlns="http://www.w3.org/2000/svg" xmlns:xlink="http://www.w3.org/1999/xlink" stroke-dasharray="none" shape-rendering="auto" font-family="'Dialog'" width="990" text-rendering="auto" fill-opacity="1" contentScriptType="text/ecmascript" color-interpolation="auto" color-rendering="auto" preserveAspectRatio="xMidYMid meet" font-size="12" viewBox="0 0 990 522" fill="black" stroke="black" image-rendering="auto" stroke-miterlimit="10" zoomAndPan="magnify" version="1.0" stroke-linecap="square" stroke-linejoin="miter" contentStyleType="text/css" font-style="normal" height="522" stroke-width="1" stroke-dashoffset="0" font-weight="normal" stroke-opacity="1">
<!--Generated by the Batik Graphics2D SVG Generator-->
<defs id="genericDefs"/>
<g>
<defs id="defs1">
<clipPath clipPathUnits="userSpaceOnUse" id="clipPath1">
<path d="M249 235 L571 235 L571 375 L249 375 L249 235 Z"/>
</clipPath>
<clipPath clipPathUnits="userSpaceOnUse" id="clipPath2">
<path d="M359 238 L460 238 L460 251 L359 251 L359 238 Z"/>
</clipPath>
<clipPath clipPathUnits="userSpaceOnUse" id="clipPath3">
<path d="M249 250 L571 250 L571 273 L249 273 L249 250 Z"/>
</clipPath>
<clipPath clipPathUnits="userSpaceOnUse" id="clipPath4">
<path d="M254 274 L306 274 L306 287 L254 287 L254 274 Z"/>
</clipPath>
<clipPath clipPathUnits="userSpaceOnUse" id="clipPath5">
<path d="M254 285 L337 285 L337 298 L254 298 L254 285 Z"/>
</clipPath>
<clipPath clipPathUnits="userSpaceOnUse" id="clipPath6">
<path d="M254 296 L318 296 L318 309 L254 309 L254 296 Z"/>
</clipPath>
<clipPath clipPathUnits="userSpaceOnUse" id="clipPath7">
<path d="M254 307 L340 307 L340 320 L254 320 L254 307 Z"/>
</clipPath>
<clipPath clipPathUnits="userSpaceOnUse" id="clipPath8">
<path d="M254 318 L519 318 L519 331 L254 331 L254 318 Z"/>
</clipPath>
<clipPath clipPathUnits="userSpaceOnUse" id="clipPath9">
<path d="M254 329 L454 329 L454 342 L254 342 L254 329 Z"/>
</clipPath>
<clipPath clipPathUnits="userSpaceOnUse" id="clipPath10">
<path d="M254 340 L311 340 L311 353 L254 353 L254 340 Z"/>
</clipPath>
<clipPath clipPathUnits="userSpaceOnUse" id="clipPath11">
<path d="M254 351 L566 351 L566 364 L254 364 L254 351 Z"/>
</clipPath>
<clipPath clipPathUnits="userSpaceOnUse" id="clipPath12">
<path d="M249 272 L571 272 L571 374 L249 374 L249 272 Z"/>
</clipPath>
<clipPath clipPathUnits="userSpaceOnUse" id="clipPath13">
<path d="M286 128 L535 128 L535 181 L286 181 L286 128 Z"/>
</clipPath>
<clipPath clipPathUnits="userSpaceOnUse" id="clipPath14">
<path d="M287 142 L535 142 L535 155 L287 155 L287 142 Z"/>
</clipPath>
<clipPath clipPathUnits="userSpaceOnUse" id="clipPath15">
<path d="M388 154 L434 154 L434 167 L388 167 L388 154 Z"/>
</clipPath>
<clipPath clipPathUnits="userSpaceOnUse" id="clipPath16">
<path d="M286 24 L535 24 L535 77 L286 77 L286 24 Z"/>
</clipPath>
<clipPath clipPathUnits="userSpaceOnUse" id="clipPath17">
<path d="M287 38 L535 38 L535 51 L287 51 L287 38 Z"/>
</clipPath>
<clipPath clipPathUnits="userSpaceOnUse" id="clipPath18">
<path d="M396 50 L426 50 L426 63 L396 63 L396 50 Z"/>
</clipPath>
<clipPath clipPathUnits="userSpaceOnUse" id="clipPath19">
<path d="M35 24 L159 24 L159 77 L35 77 L35 24 Z"/>
</clipPath>
<clipPath clipPathUnits="userSpaceOnUse" id="clipPath20">
<path d="M36 38 L159 38 L159 51 L36 51 L36 38 Z"/>
</clipPath>
<clipPath clipPathUnits="userSpaceOnUse" id="clipPath21">
<path d="M85 50 L111 50 L111 63 L85 63 L85 50 Z"/>
</clipPath>
<clipPath clipPathUnits="userSpaceOnUse" id="clipPath22">
<path d="M35 279 L159 279 L159 332 L35 332 L35 279 Z"/>
</clipPath>
<clipPath clipPathUnits="userSpaceOnUse" id="clipPath23">
<path d="M36 293 L159 293 L159 306 L36 306 L36 293 Z"/>
</clipPath>
<clipPath clipPathUnits="userSpaceOnUse" id="clipPath24">
<path d="M68 305 L127 305 L127 318 L68 318 L68 305 Z"/>
</clipPath>
<clipPath clipPathUnits="userSpaceOnUse" id="clipPath25">
<path d="M35 461 L159 461 L159 512 L35 512 L35 461 Z"/>
</clipPath>
<clipPath clipPathUnits="userSpaceOnUse" id="clipPath26">
<path d="M36 474 L159 474 L159 487 L36 487 L36 474 Z"/>
</clipPath>
<clipPath clipPathUnits="userSpaceOnUse" id="clipPath27">
<path d="M82 486 L113 486 L113 499 L82 499 L82 486 Z"/>
</clipPath>
<clipPath clipPathUnits="userSpaceOnUse" id="clipPath28">
<path d="M35 128 L159 128 L159 181 L35 181 L35 128 Z"/>
</clipPath>
<clipPath clipPathUnits="userSpaceOnUse" id="clipPath29">
<path d="M36 142 L159 142 L159 155 L36 155 L36 142 Z"/>
</clipPath>
<clipPath clipPathUnits="userSpaceOnUse" id="clipPath30">
<path d="M77 154 L119 154 L119 167 L77 167 L77 154 Z"/>
</clipPath>
<clipPath clipPathUnits="userSpaceOnUse" id="clipPath31">
<path d="M267 462 L369 462 L369 513 L267 513 L267 462 Z"/>
</clipPath>
<clipPath clipPathUnits="userSpaceOnUse" id="clipPath32">
<path d="M282 481 L356 481 L356 494 L282 494 L282 481 Z"/>
</clipPath>
<clipPath clipPathUnits="userSpaceOnUse" id="clipPath33">
<path d="M695 233 L981 233 L981 307 L695 307 L695 233 Z"/>
</clipPath>
<clipPath clipPathUnits="userSpaceOnUse" id="clipPath34">
<path d="M777 236 L898 236 L898 249 L777 249 L777 236 Z"/>
</clipPath>
<clipPath clipPathUnits="userSpaceOnUse" id="clipPath35">
<path d="M695 248 L981 248 L981 271 L695 271 L695 248 Z"/>
</clipPath>
<clipPath clipPathUnits="userSpaceOnUse" id="clipPath36">
<path d="M700 272 L976 272 L976 285 L700 285 L700 272 Z"/>
</clipPath>
<clipPath clipPathUnits="userSpaceOnUse" id="clipPath37">
<path d="M700 283 L926 283 L926 296 L700 296 L700 283 Z"/>
</clipPath>
<clipPath clipPathUnits="userSpaceOnUse" id="clipPath38">
<path d="M695 270 L981 270 L981 306 L695 306 L695 270 Z"/>
</clipPath>
<clipPath clipPathUnits="userSpaceOnUse" id="clipPath39">
<path d="M731 128 L954 128 L954 181 L731 181 L731 128 Z"/>
</clipPath>
<clipPath clipPathUnits="userSpaceOnUse" id="clipPath40">
<path d="M732 142 L954 142 L954 155 L732 155 L732 142 Z"/>
</clipPath>
<clipPath clipPathUnits="userSpaceOnUse" id="clipPath41">
<path d="M810 154 L876 154 L876 167 L810 167 L810 154 Z"/>
</clipPath>
<clipPath clipPathUnits="userSpaceOnUse" id="clipPath42">
<path d="M731 20 L954 20 L954 73 L731 73 L731 20 Z"/>
</clipPath>
<clipPath clipPathUnits="userSpaceOnUse" id="clipPath43">
<path d="M732 34 L954 34 L954 47 L732 47 L732 34 Z"/>
</clipPath>
<clipPath clipPathUnits="userSpaceOnUse" id="clipPath44">
<path d="M807 46 L880 46 L880 59 L807 59 L807 46 Z"/>
</clipPath>
<clipPath clipPathUnits="userSpaceOnUse" id="clipPath45">
<path d="M431 461 L548 461 L548 512 L431 512 L431 461 Z"/>
</clipPath>
<clipPath clipPathUnits="userSpaceOnUse" id="clipPath46">
<path d="M433 480 L548 480 L548 493 L433 493 L433 480 Z"/>
</clipPath>
<clipPath clipPathUnits="userSpaceOnUse" id="clipPath47">
<path d="M-1 -1 L991 -1 L991 523 L-1 523 L-1 -1 Z"/>
</clipPath>
<clipPath clipPathUnits="userSpaceOnUse" id="clipPath48">
<path d="M401 179 L420 179 L420 192 L401 192 L401 179 Z"/>
</clipPath>
<clipPath clipPathUnits="userSpaceOnUse" id="clipPath49">
<path d="M402 75 L421 75 L421 88 L402 88 L402 75 Z"/>
</clipPath>
<clipPath clipPathUnits="userSpaceOnUse" id="clipPath50">
<path d="M179 38 L215 38 L215 51 L179 51 L179 38 Z"/>
</clipPath>
<clipPath clipPathUnits="userSpaceOnUse" id="clipPath51">
<path d="M182 55 L191 55 L191 68 L182 68 L182 55 Z"/>
</clipPath>
<clipPath clipPathUnits="userSpaceOnUse" id="clipPath52">
<path d="M277 53 L286 53 L286 66 L277 66 L277 53 Z"/>
</clipPath>
<clipPath clipPathUnits="userSpaceOnUse" id="clipPath53">
<path d="M157 44 L178 44 L178 59 L157 59 L157 44 Z"/>
</clipPath>
<clipPath clipPathUnits="userSpaceOnUse" id="clipPath54">
<path d="M55 432 L93 432 L93 445 L55 445 L55 432 Z"/>
</clipPath>
<clipPath clipPathUnits="userSpaceOnUse" id="clipPath55">
<path d="M22 372 L90 372 L90 385 L22 385 L22 372 Z"/>
</clipPath>
<clipPath clipPathUnits="userSpaceOnUse" id="clipPath56">
<path d="M101 434 L121 434 L121 447 L101 447 L101 434 Z"/>
</clipPath>
<clipPath clipPathUnits="userSpaceOnUse" id="clipPath57">
<path d="M100 374 L121 374 L121 387 L100 387 L100 374 Z"/>
</clipPath>
<clipPath clipPathUnits="userSpaceOnUse" id="clipPath58">
<path d="M90 443 L105 443 L105 464 L90 464 L90 443 Z"/>
</clipPath>
<clipPath clipPathUnits="userSpaceOnUse" id="clipPath59">
<path d="M90 330 L105 330 L105 373 L90 373 L90 330 Z"/>
</clipPath>
<clipPath clipPathUnits="userSpaceOnUse" id="clipPath60">
<path d="M89 179 L108 179 L108 192 L89 192 L89 179 Z"/>
</clipPath>
<clipPath clipPathUnits="userSpaceOnUse" id="clipPath61">
<path d="M90 75 L109 75 L109 88 L90 88 L90 75 Z"/>
</clipPath>
<clipPath clipPathUnits="userSpaceOnUse" id="clipPath62">
<path d="M260 390 L313 390 L313 403 L260 403 L260 390 Z"/>
</clipPath>
<clipPath clipPathUnits="userSpaceOnUse" id="clipPath63">
<path d="M229 433 L313 433 L313 446 L229 446 L229 433 Z"/>
</clipPath>
<clipPath clipPathUnits="userSpaceOnUse" id="clipPath64">
<path d="M321 391 L342 391 L342 404 L321 404 L321 391 Z"/>
</clipPath>
<clipPath clipPathUnits="userSpaceOnUse" id="clipPath65">
<path d="M320 434 L340 434 L340 447 L320 447 L320 434 Z"/>
</clipPath>
<clipPath clipPathUnits="userSpaceOnUse" id="clipPath66">
<path d="M312 373 L323 373 L323 392 L312 392 L312 373 Z"/>
</clipPath>
<clipPath clipPathUnits="userSpaceOnUse" id="clipPath67">
<path d="M310 444 L325 444 L325 465 L310 465 L310 444 Z"/>
</clipPath>
<clipPath clipPathUnits="userSpaceOnUse" id="clipPath68">
<path d="M608 323 L699 323 L699 336 L608 336 L608 323 Z"/>
</clipPath>
<clipPath clipPathUnits="userSpaceOnUse" id="clipPath69">
<path d="M762 309 L835 309 L835 322 L762 322 L762 309 Z"/>
</clipPath>
<clipPath clipPathUnits="userSpaceOnUse" id="clipPath70">
<path d="M602 345 L612 345 L612 358 L602 358 L602 345 Z"/>
</clipPath>
<clipPath clipPathUnits="userSpaceOnUse" id="clipPath71">
<path d="M843 308 L864 308 L864 321 L843 321 L843 308 Z"/>
</clipPath>
<clipPath clipPathUnits="userSpaceOnUse" id="clipPath72">
<path d="M569 332 L590 332 L590 347 L569 347 L569 332 Z"/>
</clipPath>
<clipPath clipPathUnits="userSpaceOnUse" id="clipPath73">
<path d="M831 179 L850 179 L850 192 L831 192 L831 179 Z"/>
</clipPath>
<clipPath clipPathUnits="userSpaceOnUse" id="clipPath74">
<path d="M724 102 L831 102 L831 115 L724 115 L724 102 Z"/>
</clipPath>
<clipPath clipPathUnits="userSpaceOnUse" id="clipPath75">
<path d="M846 104 L855 104 L855 117 L846 117 L846 104 Z"/>
</clipPath>
<clipPath clipPathUnits="userSpaceOnUse" id="clipPath76">
<path d="M844 76 L865 76 L865 89 L844 89 L844 76 Z"/>
</clipPath>
<clipPath clipPathUnits="userSpaceOnUse" id="clipPath77">
<path d="M831 110 L846 110 L846 131 L831 131 L831 110 Z"/>
</clipPath>
<clipPath clipPathUnits="userSpaceOnUse" id="clipPath78">
<path d="M633 34 L712 34 L712 47 L633 47 L633 34 Z"/>
</clipPath>
<clipPath clipPathUnits="userSpaceOnUse" id="clipPath79">
<path d="M576 36 L614 36 L614 49 L576 49 L576 36 Z"/>
</clipPath>
<clipPath clipPathUnits="userSpaceOnUse" id="clipPath80">
<path d="M693 50 L714 50 L714 63 L693 63 L693 50 Z"/>
</clipPath>
<clipPath clipPathUnits="userSpaceOnUse" id="clipPath81">
<path d="M576 50 L586 50 L586 63 L576 63 L576 50 Z"/>
</clipPath>
<clipPath clipPathUnits="userSpaceOnUse" id="clipPath82">
<path d="M713 41 L734 41 L734 56 L713 56 L713 41 Z"/>
</clipPath>
<clipPath clipPathUnits="userSpaceOnUse" id="clipPath83">
<path d="M533 41 L576 41 L576 56 L533 56 L533 41 Z"/>
</clipPath>
<clipPath clipPathUnits="userSpaceOnUse" id="clipPath84">
<path d="M431 392 L484 392 L484 405 L431 405 L431 392 Z"/>
</clipPath>
<clipPath clipPathUnits="userSpaceOnUse" id="clipPath85">
<path d="M417 431 L483 431 L483 444 L417 444 L417 431 Z"/>
</clipPath>
<clipPath clipPathUnits="userSpaceOnUse" id="clipPath86">
<path d="M492 394 L502 394 L502 407 L492 407 L492 394 Z"/>
</clipPath>
<clipPath clipPathUnits="userSpaceOnUse" id="clipPath87">
<path d="M491 431 L501 431 L501 444 L491 444 L491 431 Z"/>
</clipPath>
<clipPath clipPathUnits="userSpaceOnUse" id="clipPath88">
<path d="M481 373 L496 373 L496 416 L481 416 L481 373 Z"/>
</clipPath>
<clipPath clipPathUnits="userSpaceOnUse" id="clipPath89">
<path d="M481 443 L496 443 L496 464 L481 464 L481 443 Z"/>
</clipPath>
<clipPath clipPathUnits="userSpaceOnUse" id="clipPath90">
<path d="M487 94 L531 94 L531 107 L487 107 L487 94 Z"/>
</clipPath>
<clipPath clipPathUnits="userSpaceOnUse" id="clipPath91">
<path d="M467 95 L477 95 L477 108 L467 108 L467 95 Z"/>
</clipPath>
<clipPath clipPathUnits="userSpaceOnUse" id="clipPath92">
<path d="M471 115 L480 115 L480 128 L471 128 L471 115 Z"/>
</clipPath>
<clipPath clipPathUnits="userSpaceOnUse" id="clipPath93">
<path d="M474 75 L489 75 L489 96 L474 96 L474 75 Z"/>
</clipPath>
</defs>
<g font-size="11" fill="white" stroke-linejoin="round" stroke="white" stroke-width="0" stroke-miterlimit="0">
<rect x="250" y="236" clip-path="url(#clipPath1)" width="320" rx="0" ry="0" height="138" stroke="none"/>
</g>
<g font-size="9" font-family="'Helvetica'" stroke-linejoin="round" font-weight="bold" stroke-width="0" stroke-miterlimit="0">
<text xml:space="preserve" x="360" y="246" clip-path="url(#clipPath2)" stroke="none">StateMachineExecution</text>
</g>
<g font-size="11" stroke-width="1.1" stroke-linecap="butt">
<line clip-path="url(#clipPath3)" fill="none" x1="250" x2="570" y1="251" y2="251"/>
<text x="255" font-size="9" y="282" clip-path="url(#clipPath4)" font-family="'Helvetica'" stroke="none" xml:space="preserve"> + execute()</text>
<text x="255" font-size="9" y="293" clip-path="url(#clipPath5)" font-family="'Helvetica'" stroke="none" xml:space="preserve"> + new_(): Value [1]</text>
<text x="255" font-size="9" y="304" clip-path="url(#clipPath6)" font-family="'Helvetica'" stroke="none" xml:space="preserve"> # initRegions()</text>
<text x="255" font-size="9" y="315" clip-path="url(#clipPath7)" font-family="'Helvetica'" stroke="none" xml:space="preserve"> + getConfiguration()</text>
<text x="255" font-size="9" y="326" clip-path="url(#clipPath8)" font-family="'Helvetica'" stroke="none" xml:space="preserve"> # getVertexActivation(  in null: Vertex [1]): VertexActivation [1]</text>
<text x="255" font-size="9" y="337" clip-path="url(#clipPath9)" font-family="'Helvetica'" stroke="none" xml:space="preserve"> + getRegionActivation(): RegionActivation [1..*]</text>
<text x="255" font-size="9" y="348" clip-path="url(#clipPath10)" font-family="'Helvetica'" stroke="none" xml:space="preserve"> + terminate()</text>
<text x="255" font-size="9" y="359" clip-path="url(#clipPath11)" font-family="'Helvetica'" stroke="none" xml:space="preserve"> + startBehavior(  in classifier: Class [0..1],   in inputs: ParameterValue [*])</text>
<line clip-path="url(#clipPath12)" fill="none" x1="250" x2="570" y1="273" y2="273"/>
<rect x="250" y="236" clip-path="url(#clipPath1)" fill="none" width="319" rx="0" ry="0" height="137"/>
<rect x="287" y="129" clip-path="url(#clipPath13)" fill="silver" width="247" rx="0" ry="0" height="51" stroke="none"/>
</g>
<g stroke-linecap="butt" font-size="9" font-family="'Helvetica'" font-style="italic" font-weight="bold" stroke-width="1.1">
<text xml:space="preserve" x="307" y="150" clip-path="url(#clipPath14)" stroke="none">(fUML_Semantics::Semantics::CommonBehavior)</text>
<text xml:space="preserve" x="389" y="162" clip-path="url(#clipPath15)" stroke="none">Execution</text>
</g>
<g font-size="11" stroke-width="1.1" stroke-linecap="butt">
<rect x="287" y="129" clip-path="url(#clipPath13)" fill="none" width="246" rx="0" ry="0" height="50"/>
<rect x="287" y="25" clip-path="url(#clipPath16)" fill="silver" width="247" rx="0" ry="0" height="51" stroke="none"/>
<text x="299" font-size="9" y="46" clip-path="url(#clipPath17)" font-family="'Helvetica'" stroke="none" font-weight="bold" xml:space="preserve">(fUML_Semantics::Semantics::StructuredClassifiers)</text>
<text x="397" font-size="9" y="58" clip-path="url(#clipPath18)" font-family="'Helvetica'" stroke="none" font-weight="bold" xml:space="preserve">Object</text>
<rect x="287" y="25" clip-path="url(#clipPath16)" fill="none" width="246" rx="0" ry="0" height="50"/>
<rect x="36" y="25" clip-path="url(#clipPath19)" fill="silver" width="122" rx="0" ry="0" height="51" stroke="none"/>
<text x="37" font-size="9" y="46" clip-path="url(#clipPath20)" font-family="'Helvetica'" stroke="none" font-weight="bold" xml:space="preserve">(UML::StructuredClassifiers)</text>
<text x="86" font-size="9" y="58" clip-path="url(#clipPath21)" font-family="'Helvetica'" stroke="none" font-weight="bold" xml:space="preserve">Class</text>
<rect x="36" y="25" clip-path="url(#clipPath19)" fill="none" width="121" rx="0" ry="0" height="50"/>
<rect x="36" y="280" clip-path="url(#clipPath22)" fill="white" width="122" rx="0" ry="0" height="51" stroke="none"/>
<text x="52" font-size="9" y="301" clip-path="url(#clipPath23)" font-family="'Helvetica'" stroke="none" font-weight="bold" xml:space="preserve">(UML::StateMachines)</text>
<text x="69" font-size="9" y="313" clip-path="url(#clipPath24)" font-family="'Helvetica'" stroke="none" font-weight="bold" xml:space="preserve">StateMachine</text>
<rect x="36" y="280" clip-path="url(#clipPath22)" fill="none" width="121" rx="0" ry="0" height="50"/>
<rect x="36" y="462" clip-path="url(#clipPath25)" fill="white" width="122" rx="0" ry="0" height="49" stroke="none"/>
<text x="52" font-size="9" y="482" clip-path="url(#clipPath26)" font-family="'Helvetica'" stroke="none" font-weight="bold" xml:space="preserve">(UML::StateMachines)</text>
<text x="83" font-size="9" y="494" clip-path="url(#clipPath27)" font-family="'Helvetica'" stroke="none" font-weight="bold" xml:space="preserve">Region</text>
<rect x="36" y="462" clip-path="url(#clipPath25)" fill="none" width="121" rx="0" ry="0" height="48"/>
<rect x="36" y="129" clip-path="url(#clipPath28)" fill="silver" width="122" rx="0" ry="0" height="51" stroke="none"/>
</g>
<g stroke-linecap="butt" font-size="9" font-family="'Helvetica'" font-style="italic" font-weight="bold" stroke-width="1.1">
<text xml:space="preserve" x="45" y="150" clip-path="url(#clipPath29)" stroke="none">(UML::CommonBehavior)</text>
<text xml:space="preserve" x="78" y="162" clip-path="url(#clipPath30)" stroke="none">Behavior</text>
</g>
<g font-size="11" stroke-width="1.1" stroke-linecap="butt">
<rect x="36" y="129" clip-path="url(#clipPath28)" fill="none" width="121" rx="0" ry="0" height="50"/>
<rect x="268" y="463" clip-path="url(#clipPath31)" fill="white" width="100" rx="0" ry="0" height="49" stroke="none"/>
<text x="283" font-size="9" y="489" clip-path="url(#clipPath32)" font-family="'Helvetica'" stroke="none" font-weight="bold" xml:space="preserve">RegionActivation</text>
<rect x="268" y="463" clip-path="url(#clipPath31)" fill="none" width="99" rx="0" ry="0" height="48"/>
<rect x="696" y="234" clip-path="url(#clipPath33)" fill="white" width="284" rx="0" ry="0" height="72" stroke="none"/>
<text x="778" font-size="9" y="244" clip-path="url(#clipPath34)" font-family="'Helvetica'" stroke="none" font-weight="bold" xml:space="preserve">StateMachineEventAccepter</text>
<line clip-path="url(#clipPath35)" fill="none" x1="696" x2="980" y1="249" y2="249"/>
<text x="701" font-size="9" y="280" clip-path="url(#clipPath36)" font-family="'Helvetica'" stroke="none" xml:space="preserve"> + match(  in eventOccurrence: EventOccurrence [1]): Boolean [1]</text>
<text x="701" font-size="9" y="291" clip-path="url(#clipPath37)" font-family="'Helvetica'" stroke="none" xml:space="preserve"> + accept(  in eventOccurrence: EventOccurrence [1])</text>
<line clip-path="url(#clipPath38)" fill="none" x1="696" x2="980" y1="271" y2="271"/>
<rect x="696" y="234" clip-path="url(#clipPath33)" fill="none" width="283" rx="0" ry="0" height="71"/>
<rect x="732" y="129" clip-path="url(#clipPath39)" fill="silver" width="221" rx="0" ry="0" height="51" stroke="none"/>
</g>
<g stroke-linecap="butt" font-size="9" font-family="'Helvetica'" font-style="italic" font-weight="bold" stroke-width="1.1">
<text xml:space="preserve" x="739" y="150" clip-path="url(#clipPath40)" stroke="none">(fUML_Semantics::Semantics::CommonBehavior)</text>
<text xml:space="preserve" x="811" y="162" clip-path="url(#clipPath41)" stroke="none">EventAccepter</text>
</g>
<g font-size="11" stroke-width="1.1" stroke-linecap="butt">
<rect x="732" y="129" clip-path="url(#clipPath39)" fill="none" width="220" rx="0" ry="0" height="50"/>
<rect x="732" y="21" clip-path="url(#clipPath42)" fill="silver" width="221" rx="0" ry="0" height="51" stroke="none"/>
<text x="739" font-size="9" y="42" clip-path="url(#clipPath43)" font-family="'Helvetica'" stroke="none" font-weight="bold" xml:space="preserve">(fUML_Semantics::Semantics::CommonBehavior)</text>
<text x="808" font-size="9" y="54" clip-path="url(#clipPath44)" font-family="'Helvetica'" stroke="none" font-weight="bold" xml:space="preserve">ObjectActivation</text>
<rect x="732" y="21" clip-path="url(#clipPath42)" fill="none" width="220" rx="0" ry="0" height="50"/>
<line clip-path="url(#clipPath42)" fill="none" x1="736" x2="736" y1="21" y2="71"/>
<line clip-path="url(#clipPath42)" fill="none" x1="948" x2="948" y1="21" y2="71"/>
<line clip-path="url(#clipPath42)" fill="none" x1="734" x2="734" y1="22" y2="70" stroke="silver" stroke-width="3.1"/>
<line clip-path="url(#clipPath42)" fill="none" x1="950" x2="950" y1="22" y2="70" stroke="silver" stroke-width="3.1"/>
<rect x="432" y="462" clip-path="url(#clipPath45)" fill="white" width="115" rx="0" ry="0" height="49" stroke="none" stroke-width="3.1"/>
</g>
<g stroke-width="3.1" font-size="9" font-family="'Helvetica'" font-weight="bold" stroke-linecap="butt">
<text xml:space="preserve" x="434" y="488" clip-path="url(#clipPath46)" stroke="none">StateMachineConfiguration</text>
</g>
<g font-size="11" stroke-width="1.1" stroke-linecap="butt">
<rect x="432" y="462" clip-path="url(#clipPath45)" fill="none" width="114" rx="0" ry="0" height="48"/>
<line clip-path="url(#clipPath47)" fill="none" text-rendering="optimizeLegibility" x1="410" x2="410" y1="236" y2="180"/>
</g>
<g stroke-linecap="butt" font-size="9" fill="white" text-rendering="optimizeLegibility" font-family="'Helvetica'" stroke="white" stroke-width="1.1">
<polygon clip-path="url(#clipPath48)" points=" 410 180 418 190 402 190" stroke="none"/>
<polygon fill="none" clip-path="url(#clipPath48)" points=" 410 180 418 190 402 190" stroke="black"/>
<line clip-path="url(#clipPath47)" fill="none" x1="411" x2="411" y1="129" y2="76" stroke="black"/>
<polygon clip-path="url(#clipPath49)" points=" 411 76 419 86 403 86" stroke="none"/>
<polygon fill="none" clip-path="url(#clipPath49)" points=" 411 76 419 86 403 86" stroke="black"/>
<line clip-path="url(#clipPath47)" fill="none" x1="158" x2="287" y1="51" y2="51" stroke="black"/>
<text x="180" y="46" clip-path="url(#clipPath50)" fill="black" stroke="none" xml:space="preserve"> + types</text>
<text x="183" y="63" clip-path="url(#clipPath51)" fill="black" stroke="none" xml:space="preserve"> *</text>
<text x="278" y="61" clip-path="url(#clipPath52)" fill="black" stroke="none" xml:space="preserve"> *</text>
<polygon fill="black" clip-path="url(#clipPath53)" points=" 158 50 160 48 162 48 164 50 164 51 176 45 164 51 176 57 164 51 164 52 162 54 160 54 158 52" stroke="none"/>
<polygon fill="none" clip-path="url(#clipPath53)" points=" 158 50 160 48 162 48 164 50 164 51 176 45 164 51 176 57 164 51 164 52 162 54 160 54 158 52" stroke="black"/>
<line clip-path="url(#clipPath47)" fill="none" x1="97" x2="97" y1="462" y2="331" stroke="black"/>
<text x="56" y="440" clip-path="url(#clipPath54)" fill="black" stroke="none" xml:space="preserve"> + region</text>
<text x="23" y="380" clip-path="url(#clipPath55)" fill="black" stroke="none" xml:space="preserve"> + stateMachine</text>
<text x="102" y="442" clip-path="url(#clipPath56)" fill="black" stroke="none" xml:space="preserve"> 1..*</text>
<text x="101" y="382" clip-path="url(#clipPath57)" fill="black" stroke="none" xml:space="preserve"> 0..1</text>
<polygon fill="black" clip-path="url(#clipPath58)" points=" 96 462 94 460 94 458 96 456 97 456 91 444 97 456 103 444 97 456 98 456 100 458 100 460 98 462" stroke="none"/>
<polygon fill="none" clip-path="url(#clipPath58)" points=" 96 462 94 460 94 458 96 456 97 456 91 444 97 456 103 444 97 456 98 456 100 458 100 460 98 462" stroke="black"/>
<polygon fill="black" clip-path="url(#clipPath59)" points=" 98 331 99 333 99 335 98 337 97 337 102 346 97 355 103 371 97 355 91 371 97 355 93 346 97 337 96 337 95 335 95 333 96 331" stroke="none"/>
<polygon fill="none" clip-path="url(#clipPath59)" points=" 98 331 99 333 99 335 98 337 97 337 102 346 97 355 103 371 97 355 91 371 97 355 93 346 97 337 96 337 95 335 95 333 96 331" stroke="black"/>
<line clip-path="url(#clipPath47)" fill="none" x1="98" x2="98" y1="280" y2="180" stroke="black"/>
<polygon clip-path="url(#clipPath60)" points=" 98 180 106 190 90 190" stroke="none"/>
<polygon fill="none" clip-path="url(#clipPath60)" points=" 98 180 106 190 90 190" stroke="black"/>
<line clip-path="url(#clipPath47)" fill="none" x1="99" x2="99" y1="129" y2="76" stroke="black"/>
<polygon clip-path="url(#clipPath61)" points=" 99 76 107 86 91 86" stroke="none"/>
<polygon fill="none" clip-path="url(#clipPath61)" points=" 99 76 107 86 91 86" stroke="black"/>
<line clip-path="url(#clipPath47)" fill="none" x1="317" x2="317" y1="374" y2="463" stroke="black"/>
<text x="261" y="398" clip-path="url(#clipPath62)" fill="black" stroke="none" xml:space="preserve"> + execution</text>
<text x="230" y="441" clip-path="url(#clipPath63)" fill="black" stroke="none" xml:space="preserve"> + regionActivations</text>
<text x="322" y="399" clip-path="url(#clipPath64)" fill="black" stroke="none" xml:space="preserve"> 0..1</text>
<text x="321" y="442" clip-path="url(#clipPath65)" fill="black" stroke="none" xml:space="preserve"> 1..*</text>
<polygon fill="black" clip-path="url(#clipPath66)" points=" 317 374 321 382 317 390 313 382" stroke="none"/>
<polygon fill="none" clip-path="url(#clipPath66)" points=" 317 374 321 382 317 390 313 382" stroke="black"/>
<polygon fill="black" clip-path="url(#clipPath67)" points=" 316 463 314 461 314 459 316 457 317 457 311 445 317 457 323 445 317 457 318 457 320 459 320 461 318 463" stroke="none"/>
<polygon fill="none" clip-path="url(#clipPath67)" points=" 316 463 314 461 314 459 316 457 317 457 311 445 317 457 323 445 317 457 318 457 320 459 320 461 318 463" stroke="black"/>
<line clip-path="url(#clipPath47)" fill="none" x1="570" x2="838" y1="339" y2="339" stroke="black"/>
<line clip-path="url(#clipPath47)" fill="none" x1="838" x2="838" y1="339" y2="306" stroke="black"/>
<text x="609" y="331" clip-path="url(#clipPath68)" fill="black" stroke="none" xml:space="preserve"> + registrationContext</text>
<text x="763" y="317" clip-path="url(#clipPath69)" fill="black" stroke="none" xml:space="preserve"> + eventAccepter</text>
<text x="603" y="353" clip-path="url(#clipPath70)" fill="black" stroke="none" xml:space="preserve"> 1</text>
<text x="844" y="316" clip-path="url(#clipPath71)" fill="black" stroke="none" xml:space="preserve"> 0..1</text>
<polygon fill="black" clip-path="url(#clipPath72)" points=" 570 338 572 336 574 336 576 338 576 339 588 333 576 339 588 345 576 339 576 340 574 342 572 342 570 340" stroke="none"/>
<polygon fill="none" clip-path="url(#clipPath72)" points=" 570 338 572 336 574 336 576 338 576 339 588 333 576 339 588 345 576 339 576 340 574 342 572 342 570 340" stroke="black"/>
<line clip-path="url(#clipPath47)" fill="none" x1="840" x2="840" y1="234" y2="180" stroke="black"/>
<polygon clip-path="url(#clipPath73)" points=" 840 180 848 190 832 190" stroke="none"/>
<polygon fill="none" clip-path="url(#clipPath73)" points=" 840 180 848 190 832 190" stroke="black"/>
<line clip-path="url(#clipPath47)" fill="none" x1="838" x2="838" y1="129" y2="72" stroke="black"/>
<text x="725" y="110" clip-path="url(#clipPath74)" fill="black" stroke="none" xml:space="preserve"> + waitingEventAccepters</text>
<text x="847" y="112" clip-path="url(#clipPath75)" fill="black" stroke="none" xml:space="preserve"> *</text>
<text x="845" y="84" clip-path="url(#clipPath76)" fill="black" stroke="none" xml:space="preserve"> 0..1</text>
<polygon fill="black" clip-path="url(#clipPath77)" points=" 837 129 835 127 835 125 837 123 838 123 832 111 838 123 844 111 838 123 839 123 841 125 841 127 839 129" stroke="none"/>
<polygon fill="none" clip-path="url(#clipPath77)" points=" 837 129 835 127 835 125 837 123 838 123 832 111 838 123 844 111 838 123 839 123 841 125 841 127 839 129" stroke="black"/>
<line clip-path="url(#clipPath47)" fill="none" x1="732" x2="534" y1="48" y2="48" stroke="black"/>
<text x="634" y="42" clip-path="url(#clipPath78)" fill="black" stroke="none" xml:space="preserve"> + objectActivation</text>
<text x="577" y="44" clip-path="url(#clipPath79)" fill="black" stroke="none" xml:space="preserve"> + object</text>
<text x="694" y="58" clip-path="url(#clipPath80)" fill="black" stroke="none" xml:space="preserve"> 0..1</text>
<text x="577" y="58" clip-path="url(#clipPath81)" fill="black" stroke="none" xml:space="preserve"> 1</text>
<polygon fill="black" clip-path="url(#clipPath82)" points=" 732 49 730 51 728 51 726 49 726 48 714 54 726 48 714 42 726 48 726 47 728 45 730 45 732 47" stroke="none"/>
<polygon fill="none" clip-path="url(#clipPath82)" points=" 732 49 730 51 728 51 726 49 726 48 714 54 726 48 714 42 726 48 726 47 728 45 730 45 732 47" stroke="black"/>
<polygon fill="black" clip-path="url(#clipPath83)" points=" 534 47 536 46 538 46 540 47 540 48 549 44 558 48 574 42 558 48 574 54 558 48 549 53 540 48 540 49 538 50 536 50 534 49" stroke="none"/>
<polygon fill="none" clip-path="url(#clipPath83)" points=" 534 47 536 46 538 46 540 47 540 48 549 44 558 48 574 42 558 48 574 54 558 48 549 53 540 48 540 49 538 50 536 50 534 49" stroke="black"/>
<line clip-path="url(#clipPath47)" fill="none" x1="488" x2="488" y1="374" y2="462" stroke="black"/>
<text x="432" y="400" clip-path="url(#clipPath84)" fill="black" stroke="none" xml:space="preserve"> + execution</text>
<text x="418" y="439" clip-path="url(#clipPath85)" fill="black" stroke="none" xml:space="preserve"> + configuration</text>
<text x="493" y="402" clip-path="url(#clipPath86)" fill="black" stroke="none" xml:space="preserve"> 1</text>
<text x="492" y="439" clip-path="url(#clipPath87)" fill="black" stroke="none" xml:space="preserve"> 1</text>
<polygon fill="black" clip-path="url(#clipPath88)" points=" 489 374 490 376 490 378 489 380 488 380 493 389 488 398 494 414 488 398 482 414 488 398 484 389 488 380 487 380 486 378 486 376 487 374" stroke="none"/>
<polygon fill="none" clip-path="url(#clipPath88)" points=" 489 374 490 376 490 378 489 380 488 380 493 389 488 398 494 414 488 398 482 414 488 398 484 389 488 380 487 380 486 378 486 376 487 374" stroke="black"/>
<polygon fill="black" clip-path="url(#clipPath89)" points=" 487 462 485 460 485 458 487 456 488 456 482 444 488 456 494 444 488 456 489 456 491 458 491 460 489 462" stroke="none"/>
<polygon fill="none" clip-path="url(#clipPath89)" points=" 487 462 485 460 485 458 487 456 488 456 482 444 488 456 494 444 488 456 489 456 491 458 491 460 489 462" stroke="black"/>
<line clip-path="url(#clipPath47)" fill="none" x1="481" x2="481" y1="76" y2="129" stroke="black"/>
<text x="488" y="102" clip-path="url(#clipPath90)" fill="black" stroke="none" xml:space="preserve"> + context</text>
<text x="468" y="103" clip-path="url(#clipPath91)" fill="black" stroke="none" xml:space="preserve"> 1</text>
<text x="472" y="123" clip-path="url(#clipPath92)" fill="black" stroke="none" xml:space="preserve"> *</text>
<polygon fill="black" clip-path="url(#clipPath93)" points=" 482 76 484 78 484 80 482 82 481 82 487 94 481 82 475 94 481 82 480 82 478 80 478 78 480 76" stroke="none"/>
<polygon fill="none" clip-path="url(#clipPath93)" points=" 482 76 484 78 484 80 482 82 481 82 487 94 481 82 475 94 481 82 480 82 478 80 478 78 480 76" stroke="black"/>
</g>
</g>
</svg>
