<?xml version="1.0" encoding="UTF-8"?><svg xmlns="http://www.w3.org/2000/svg" xmlns:xlink="http://www.w3.org/1999/xlink" stroke-dasharray="none" shape-rendering="auto" font-family="'Dialog'" width="963" text-rendering="auto" fill-opacity="1" contentScriptType="text/ecmascript" color-interpolation="auto" color-rendering="auto" preserveAspectRatio="xMidYMid meet" font-size="12" viewBox="0 0 963 916" fill="black" stroke="black" image-rendering="auto" stroke-miterlimit="10" zoomAndPan="magnify" version="1.0" stroke-linecap="square" stroke-linejoin="miter" contentStyleType="text/css" font-style="normal" height="916" stroke-width="1" stroke-dashoffset="0" font-weight="normal" stroke-opacity="1">
<!--Generated by the Batik Graphics2D SVG Generator-->
<defs id="genericDefs"/>
<g>
<defs id="defs1">
<clipPath clipPathUnits="userSpaceOnUse" id="clipPath1">
<path d="M393 118 L657 118 L657 294 L393 294 L393 118 Z"/>
</clipPath>
<clipPath clipPathUnits="userSpaceOnUse" id="clipPath2">
<path d="M460 121 L590 121 L590 134 L460 134 L460 121 Z"/>
</clipPath>
<clipPath clipPathUnits="userSpaceOnUse" id="clipPath3">
<path d="M393 133 L657 133 L657 157 L393 157 L393 133 Z"/>
</clipPath>
<clipPath clipPathUnits="userSpaceOnUse" id="clipPath4">
<path d="M398 158 L568 158 L568 171 L398 171 L398 158 Z"/>
</clipPath>
<clipPath clipPathUnits="userSpaceOnUse" id="clipPath5">
<path d="M398 169 L588 169 L588 182 L398 182 L398 169 Z"/>
</clipPath>
<clipPath clipPathUnits="userSpaceOnUse" id="clipPath6">
<path d="M398 180 L450 180 L450 193 L398 193 L398 180 Z"/>
</clipPath>
<clipPath clipPathUnits="userSpaceOnUse" id="clipPath7">
<path d="M398 191 L532 191 L532 204 L398 204 L398 191 Z"/>
</clipPath>
<clipPath clipPathUnits="userSpaceOnUse" id="clipPath8">
<path d="M398 202 L562 202 L562 215 L398 215 L398 202 Z"/>
</clipPath>
<clipPath clipPathUnits="userSpaceOnUse" id="clipPath9">
<path d="M398 213 L541 213 L541 226 L398 226 L398 213 Z"/>
</clipPath>
<clipPath clipPathUnits="userSpaceOnUse" id="clipPath10">
<path d="M398 224 L571 224 L571 237 L398 237 L398 224 Z"/>
</clipPath>
<clipPath clipPathUnits="userSpaceOnUse" id="clipPath11">
<path d="M398 235 L541 235 L541 248 L398 248 L398 235 Z"/>
</clipPath>
<clipPath clipPathUnits="userSpaceOnUse" id="clipPath12">
<path d="M398 246 L550 246 L550 259 L398 259 L398 246 Z"/>
</clipPath>
<clipPath clipPathUnits="userSpaceOnUse" id="clipPath13">
<path d="M398 257 L495 257 L495 270 L398 270 L398 257 Z"/>
</clipPath>
<clipPath clipPathUnits="userSpaceOnUse" id="clipPath14">
<path d="M398 268 L652 268 L652 281 L398 281 L398 268 Z"/>
</clipPath>
<clipPath clipPathUnits="userSpaceOnUse" id="clipPath15">
<path d="M393 156 L657 156 L657 293 L393 293 L393 156 Z"/>
</clipPath>
<clipPath clipPathUnits="userSpaceOnUse" id="clipPath16">
<path d="M435 11 L614 11 L614 64 L435 64 L435 11 Z"/>
</clipPath>
<clipPath clipPathUnits="userSpaceOnUse" id="clipPath17">
<path d="M436 25 L614 25 L614 38 L436 38 L436 25 Z"/>
</clipPath>
<clipPath clipPathUnits="userSpaceOnUse" id="clipPath18">
<path d="M489 37 L562 37 L562 50 L489 50 L489 37 Z"/>
</clipPath>
<clipPath clipPathUnits="userSpaceOnUse" id="clipPath19">
<path d="M124 179 L250 179 L250 232 L124 232 L124 179 Z"/>
</clipPath>
<clipPath clipPathUnits="userSpaceOnUse" id="clipPath20">
<path d="M125 193 L250 193 L250 206 L125 206 L125 193 Z"/>
</clipPath>
<clipPath clipPathUnits="userSpaceOnUse" id="clipPath21">
<path d="M154 205 L222 205 L222 218 L154 218 L154 205 Z"/>
</clipPath>
<clipPath clipPathUnits="userSpaceOnUse" id="clipPath22">
<path d="M385 377 L672 377 L672 516 L385 516 L385 377 Z"/>
</clipPath>
<clipPath clipPathUnits="userSpaceOnUse" id="clipPath23">
<path d="M491 380 L565 380 L565 393 L491 393 L491 380 Z"/>
</clipPath>
<clipPath clipPathUnits="userSpaceOnUse" id="clipPath24">
<path d="M390 394 L506 394 L506 407 L390 407 L390 394 Z"/>
</clipPath>
<clipPath clipPathUnits="userSpaceOnUse" id="clipPath25">
<path d="M385 392 L672 392 L672 417 L385 417 L385 392 Z"/>
</clipPath>
<clipPath clipPathUnits="userSpaceOnUse" id="clipPath26">
<path d="M390 418 L620 418 L620 431 L390 431 L390 418 Z"/>
</clipPath>
<clipPath clipPathUnits="userSpaceOnUse" id="clipPath27">
<path d="M390 429 L442 429 L442 442 L390 442 L390 429 Z"/>
</clipPath>
<clipPath clipPathUnits="userSpaceOnUse" id="clipPath28">
<path d="M390 440 L487 440 L487 453 L390 453 L390 440 Z"/>
</clipPath>
<clipPath clipPathUnits="userSpaceOnUse" id="clipPath29">
<path d="M390 451 L582 451 L582 464 L390 464 L390 451 Z"/>
</clipPath>
<clipPath clipPathUnits="userSpaceOnUse" id="clipPath30">
<path d="M390 462 L667 462 L667 475 L390 475 L390 462 Z"/>
</clipPath>
<clipPath clipPathUnits="userSpaceOnUse" id="clipPath31">
<path d="M390 473 L608 473 L608 486 L390 486 L390 473 Z"/>
</clipPath>
<clipPath clipPathUnits="userSpaceOnUse" id="clipPath32">
<path d="M390 484 L620 484 L620 497 L390 497 L390 484 Z"/>
</clipPath>
<clipPath clipPathUnits="userSpaceOnUse" id="clipPath33">
<path d="M390 495 L447 495 L447 508 L390 508 L390 495 Z"/>
</clipPath>
<clipPath clipPathUnits="userSpaceOnUse" id="clipPath34">
<path d="M385 416 L672 416 L672 515 L385 515 L385 416 Z"/>
</clipPath>
<clipPath clipPathUnits="userSpaceOnUse" id="clipPath35">
<path d="M9 560 L463 560 L463 812 L9 812 L9 560 Z"/>
</clipPath>
<clipPath clipPathUnits="userSpaceOnUse" id="clipPath36">
<path d="M198 563 L273 563 L273 576 L198 576 L198 563 Z"/>
</clipPath>
<clipPath clipPathUnits="userSpaceOnUse" id="clipPath37">
<path d="M14 577 L133 577 L133 590 L14 590 L14 577 Z"/>
</clipPath>
<clipPath clipPathUnits="userSpaceOnUse" id="clipPath38">
<path d="M9 575 L463 575 L463 600 L9 600 L9 575 Z"/>
</clipPath>
<clipPath clipPathUnits="userSpaceOnUse" id="clipPath39">
<path d="M14 601 L183 601 L183 614 L14 614 L14 601 Z"/>
</clipPath>
<clipPath clipPathUnits="userSpaceOnUse" id="clipPath40">
<path d="M14 612 L195 612 L195 625 L14 625 L14 612 Z"/>
</clipPath>
<clipPath clipPathUnits="userSpaceOnUse" id="clipPath41">
<path d="M14 623 L153 623 L153 636 L14 636 L14 623 Z"/>
</clipPath>
<clipPath clipPathUnits="userSpaceOnUse" id="clipPath42">
<path d="M14 634 L256 634 L256 647 L14 647 L14 634 Z"/>
</clipPath>
<clipPath clipPathUnits="userSpaceOnUse" id="clipPath43">
<path d="M14 645 L256 645 L256 658 L14 658 L14 645 Z"/>
</clipPath>
<clipPath clipPathUnits="userSpaceOnUse" id="clipPath44">
<path d="M14 656 L303 656 L303 669 L14 669 L14 656 Z"/>
</clipPath>
<clipPath clipPathUnits="userSpaceOnUse" id="clipPath45">
<path d="M14 667 L251 667 L251 680 L14 680 L14 667 Z"/>
</clipPath>
<clipPath clipPathUnits="userSpaceOnUse" id="clipPath46">
<path d="M14 678 L251 678 L251 691 L14 691 L14 678 Z"/>
</clipPath>
<clipPath clipPathUnits="userSpaceOnUse" id="clipPath47">
<path d="M14 689 L119 689 L119 702 L14 702 L14 689 Z"/>
</clipPath>
<clipPath clipPathUnits="userSpaceOnUse" id="clipPath48">
<path d="M14 700 L212 700 L212 713 L14 713 L14 700 Z"/>
</clipPath>
<clipPath clipPathUnits="userSpaceOnUse" id="clipPath49">
<path d="M14 711 L458 711 L458 724 L14 724 L14 711 Z"/>
</clipPath>
<clipPath clipPathUnits="userSpaceOnUse" id="clipPath50">
<path d="M14 722 L446 722 L446 735 L14 735 L14 722 Z"/>
</clipPath>
<clipPath clipPathUnits="userSpaceOnUse" id="clipPath51">
<path d="M14 733 L348 733 L348 746 L14 746 L14 733 Z"/>
</clipPath>
<clipPath clipPathUnits="userSpaceOnUse" id="clipPath52">
<path d="M14 744 L228 744 L228 757 L14 757 L14 744 Z"/>
</clipPath>
<clipPath clipPathUnits="userSpaceOnUse" id="clipPath53">
<path d="M14 755 L228 755 L228 768 L14 768 L14 755 Z"/>
</clipPath>
<clipPath clipPathUnits="userSpaceOnUse" id="clipPath54">
<path d="M14 766 L322 766 L322 779 L14 779 L14 766 Z"/>
</clipPath>
<clipPath clipPathUnits="userSpaceOnUse" id="clipPath55">
<path d="M14 777 L310 777 L310 790 L14 790 L14 777 Z"/>
</clipPath>
<clipPath clipPathUnits="userSpaceOnUse" id="clipPath56">
<path d="M14 788 L71 788 L71 801 L14 801 L14 788 Z"/>
</clipPath>
<clipPath clipPathUnits="userSpaceOnUse" id="clipPath57">
<path d="M9 599 L463 599 L463 811 L9 811 L9 599 Z"/>
</clipPath>
<clipPath clipPathUnits="userSpaceOnUse" id="clipPath58">
<path d="M651 560 L954 560 L954 812 L651 812 L651 560 Z"/>
</clipPath>
<clipPath clipPathUnits="userSpaceOnUse" id="clipPath59">
<path d="M757 563 L847 563 L847 576 L757 576 L757 563 Z"/>
</clipPath>
<clipPath clipPathUnits="userSpaceOnUse" id="clipPath60">
<path d="M656 577 L793 577 L793 590 L656 590 L656 577 Z"/>
</clipPath>
<clipPath clipPathUnits="userSpaceOnUse" id="clipPath61">
<path d="M651 575 L954 575 L954 600 L651 600 L651 575 Z"/>
</clipPath>
<clipPath clipPathUnits="userSpaceOnUse" id="clipPath62">
<path d="M656 601 L733 601 L733 614 L656 614 L656 601 Z"/>
</clipPath>
<clipPath clipPathUnits="userSpaceOnUse" id="clipPath63">
<path d="M656 612 L688 612 L688 625 L656 625 L656 612 Z"/>
</clipPath>
<clipPath clipPathUnits="userSpaceOnUse" id="clipPath64">
<path d="M656 623 L949 623 L949 636 L656 636 L656 623 Z"/>
</clipPath>
<clipPath clipPathUnits="userSpaceOnUse" id="clipPath65">
<path d="M656 634 L855 634 L855 647 L656 647 L656 634 Z"/>
</clipPath>
<clipPath clipPathUnits="userSpaceOnUse" id="clipPath66">
<path d="M656 645 L813 645 L813 658 L656 658 L656 645 Z"/>
</clipPath>
<clipPath clipPathUnits="userSpaceOnUse" id="clipPath67">
<path d="M656 656 L771 656 L771 669 L656 669 L656 656 Z"/>
</clipPath>
<clipPath clipPathUnits="userSpaceOnUse" id="clipPath68">
<path d="M656 667 L776 667 L776 680 L656 680 L656 667 Z"/>
</clipPath>
<clipPath clipPathUnits="userSpaceOnUse" id="clipPath69">
<path d="M656 678 L788 678 L788 691 L656 691 L656 678 Z"/>
</clipPath>
<clipPath clipPathUnits="userSpaceOnUse" id="clipPath70">
<path d="M656 689 L928 689 L928 702 L656 702 L656 689 Z"/>
</clipPath>
<clipPath clipPathUnits="userSpaceOnUse" id="clipPath71">
<path d="M656 700 L773 700 L773 713 L656 713 L656 700 Z"/>
</clipPath>
<clipPath clipPathUnits="userSpaceOnUse" id="clipPath72">
<path d="M656 711 L770 711 L770 724 L656 724 L656 711 Z"/>
</clipPath>
<clipPath clipPathUnits="userSpaceOnUse" id="clipPath73">
<path d="M656 722 L846 722 L846 735 L656 735 L656 722 Z"/>
</clipPath>
<clipPath clipPathUnits="userSpaceOnUse" id="clipPath74">
<path d="M656 733 L876 733 L876 746 L656 746 L656 733 Z"/>
</clipPath>
<clipPath clipPathUnits="userSpaceOnUse" id="clipPath75">
<path d="M656 744 L843 744 L843 757 L656 757 L656 744 Z"/>
</clipPath>
<clipPath clipPathUnits="userSpaceOnUse" id="clipPath76">
<path d="M656 755 L873 755 L873 768 L656 768 L656 755 Z"/>
</clipPath>
<clipPath clipPathUnits="userSpaceOnUse" id="clipPath77">
<path d="M656 766 L724 766 L724 779 L656 779 L656 766 Z"/>
</clipPath>
<clipPath clipPathUnits="userSpaceOnUse" id="clipPath78">
<path d="M656 777 L721 777 L721 790 L656 790 L656 777 Z"/>
</clipPath>
<clipPath clipPathUnits="userSpaceOnUse" id="clipPath79">
<path d="M656 788 L872 788 L872 801 L656 801 L656 788 Z"/>
</clipPath>
<clipPath clipPathUnits="userSpaceOnUse" id="clipPath80">
<path d="M651 599 L954 599 L954 811 L651 811 L651 599 Z"/>
</clipPath>
<clipPath clipPathUnits="userSpaceOnUse" id="clipPath81">
<path d="M185 827 L287 827 L287 890 L185 890 L185 827 Z"/>
</clipPath>
<clipPath clipPathUnits="userSpaceOnUse" id="clipPath82">
<path d="M203 830 L269 830 L269 843 L203 843 L203 830 Z"/>
</clipPath>
<clipPath clipPathUnits="userSpaceOnUse" id="clipPath83">
<path d="M205 842 L267 842 L267 855 L205 855 L205 842 Z"/>
</clipPath>
<clipPath clipPathUnits="userSpaceOnUse" id="clipPath84">
<path d="M190 856 L206 856 L206 869 L190 869 L190 856 Z"/>
</clipPath>
<clipPath clipPathUnits="userSpaceOnUse" id="clipPath85">
<path d="M190 867 L217 867 L217 880 L190 880 L190 867 Z"/>
</clipPath>
<clipPath clipPathUnits="userSpaceOnUse" id="clipPath86">
<path d="M185 854 L287 854 L287 890 L185 890 L185 854 Z"/>
</clipPath>
<clipPath clipPathUnits="userSpaceOnUse" id="clipPath87">
<path d="M751 826 L853 826 L853 907 L751 907 L751 826 Z"/>
</clipPath>
<clipPath clipPathUnits="userSpaceOnUse" id="clipPath88">
<path d="M769 829 L835 829 L835 842 L769 842 L769 829 Z"/>
</clipPath>
<clipPath clipPathUnits="userSpaceOnUse" id="clipPath89">
<path d="M760 841 L843 841 L843 854 L760 854 L760 841 Z"/>
</clipPath>
<clipPath clipPathUnits="userSpaceOnUse" id="clipPath90">
<path d="M756 855 L778 855 L778 868 L756 868 L756 855 Z"/>
</clipPath>
<clipPath clipPathUnits="userSpaceOnUse" id="clipPath91">
<path d="M756 866 L791 866 L791 879 L756 879 L756 866 Z"/>
</clipPath>
<clipPath clipPathUnits="userSpaceOnUse" id="clipPath92">
<path d="M756 877 L797 877 L797 890 L756 890 L756 877 Z"/>
</clipPath>
<clipPath clipPathUnits="userSpaceOnUse" id="clipPath93">
<path d="M756 888 L800 888 L800 901 L756 901 L756 888 Z"/>
</clipPath>
<clipPath clipPathUnits="userSpaceOnUse" id="clipPath94">
<path d="M751 853 L853 853 L853 907 L751 907 L751 853 Z"/>
</clipPath>
<clipPath clipPathUnits="userSpaceOnUse" id="clipPath95">
<path d="M-1 -1 L964 -1 L964 917 L-1 917 L-1 -1 Z"/>
</clipPath>
<clipPath clipPathUnits="userSpaceOnUse" id="clipPath96">
<path d="M660 173 L698 173 L698 186 L660 186 L660 173 Z"/>
</clipPath>
<clipPath clipPathUnits="userSpaceOnUse" id="clipPath97">
<path d="M633 22 L672 22 L672 35 L633 35 L633 22 Z"/>
</clipPath>
<clipPath clipPathUnits="userSpaceOnUse" id="clipPath98">
<path d="M662 189 L671 189 L671 202 L662 202 L662 189 Z"/>
</clipPath>
<clipPath clipPathUnits="userSpaceOnUse" id="clipPath99">
<path d="M638 38 L659 38 L659 51 L638 51 L638 38 Z"/>
</clipPath>
<clipPath clipPathUnits="userSpaceOnUse" id="clipPath100">
<path d="M612 29 L633 29 L633 44 L612 44 L612 29 Z"/>
</clipPath>
<clipPath clipPathUnits="userSpaceOnUse" id="clipPath101">
<path d="M515 62 L534 62 L534 75 L515 75 L515 62 Z"/>
</clipPath>
<clipPath clipPathUnits="userSpaceOnUse" id="clipPath102">
<path d="M272 188 L305 188 L305 201 L272 201 L272 188 Z"/>
</clipPath>
<clipPath clipPathUnits="userSpaceOnUse" id="clipPath103">
<path d="M349 188 L387 188 L387 201 L349 201 L349 188 Z"/>
</clipPath>
<clipPath clipPathUnits="userSpaceOnUse" id="clipPath104">
<path d="M271 208 L281 208 L281 221 L271 221 L271 208 Z"/>
</clipPath>
<clipPath clipPathUnits="userSpaceOnUse" id="clipPath105">
<path d="M381 207 L390 207 L390 220 L381 220 L381 207 Z"/>
</clipPath>
<clipPath clipPathUnits="userSpaceOnUse" id="clipPath106">
<path d="M248 197 L269 197 L269 212 L248 212 L248 197 Z"/>
</clipPath>
<clipPath clipPathUnits="userSpaceOnUse" id="clipPath107">
<path d="M516 292 L535 292 L535 305 L516 305 L516 292 Z"/>
</clipPath>
<clipPath clipPathUnits="userSpaceOnUse" id="clipPath108">
<path d="M278 439 L357 439 L357 452 L278 452 L278 439 Z"/>
</clipPath>
<clipPath clipPathUnits="userSpaceOnUse" id="clipPath109">
<path d="M148 521 L233 521 L233 534 L148 534 L148 521 Z"/>
</clipPath>
<clipPath clipPathUnits="userSpaceOnUse" id="clipPath110">
<path d="M351 457 L361 457 L361 470 L351 470 L351 457 Z"/>
</clipPath>
<clipPath clipPathUnits="userSpaceOnUse" id="clipPath111">
<path d="M239 524 L248 524 L248 537 L239 537 L239 524 Z"/>
</clipPath>
<clipPath clipPathUnits="userSpaceOnUse" id="clipPath112">
<path d="M369 450 L388 450 L388 461 L369 461 L369 450 Z"/>
</clipPath>
<clipPath clipPathUnits="userSpaceOnUse" id="clipPath113">
<path d="M228 542 L243 542 L243 563 L228 563 L228 542 Z"/>
</clipPath>
<clipPath clipPathUnits="userSpaceOnUse" id="clipPath114">
<path d="M691 434 L770 434 L770 447 L691 447 L691 434 Z"/>
</clipPath>
<clipPath clipPathUnits="userSpaceOnUse" id="clipPath115">
<path d="M697 533 L794 533 L794 546 L697 546 L697 533 Z"/>
</clipPath>
<clipPath clipPathUnits="userSpaceOnUse" id="clipPath116">
<path d="M688 455 L698 455 L698 468 L688 468 L688 455 Z"/>
</clipPath>
<clipPath clipPathUnits="userSpaceOnUse" id="clipPath117">
<path d="M802 536 L811 536 L811 549 L802 549 L802 536 Z"/>
</clipPath>
<clipPath clipPathUnits="userSpaceOnUse" id="clipPath118">
<path d="M670 446 L689 446 L689 457 L670 457 L670 446 Z"/>
</clipPath>
<clipPath clipPathUnits="userSpaceOnUse" id="clipPath119">
<path d="M792 542 L807 542 L807 563 L792 563 L792 542 Z"/>
</clipPath>
<clipPath clipPathUnits="userSpaceOnUse" id="clipPath120">
<path d="M480 650 L589 650 L589 663 L480 663 L480 650 Z"/>
</clipPath>
<clipPath clipPathUnits="userSpaceOnUse" id="clipPath121">
<path d="M504 668 L638 668 L638 681 L504 681 L504 668 Z"/>
</clipPath>
<clipPath clipPathUnits="userSpaceOnUse" id="clipPath122">
<path d="M477 668 L487 668 L487 681 L477 681 L477 668 Z"/>
</clipPath>
<clipPath clipPathUnits="userSpaceOnUse" id="clipPath123">
<path d="M631 651 L640 651 L640 664 L631 664 L631 651 Z"/>
</clipPath>
<clipPath clipPathUnits="userSpaceOnUse" id="clipPath124">
<path d="M461 657 L482 657 L482 672 L461 672 L461 657 Z"/>
</clipPath>
<clipPath clipPathUnits="userSpaceOnUse" id="clipPath125">
<path d="M633 657 L654 657 L654 672 L633 672 L633 657 Z"/>
</clipPath>
<clipPath clipPathUnits="userSpaceOnUse" id="clipPath126">
<path d="M499 752 L634 752 L634 765 L499 765 L499 752 Z"/>
</clipPath>
<clipPath clipPathUnits="userSpaceOnUse" id="clipPath127">
<path d="M480 738 L586 738 L586 751 L480 751 L480 738 Z"/>
</clipPath>
<clipPath clipPathUnits="userSpaceOnUse" id="clipPath128">
<path d="M630 739 L639 739 L639 752 L630 752 L630 739 Z"/>
</clipPath>
<clipPath clipPathUnits="userSpaceOnUse" id="clipPath129">
<path d="M474 754 L484 754 L484 767 L474 767 L474 754 Z"/>
</clipPath>
<clipPath clipPathUnits="userSpaceOnUse" id="clipPath130">
<path d="M633 744 L654 744 L654 759 L633 759 L633 744 Z"/>
</clipPath>
<clipPath clipPathUnits="userSpaceOnUse" id="clipPath131">
<path d="M461 744 L482 744 L482 759 L461 759 L461 744 Z"/>
</clipPath>
</defs>
<g font-size="11" fill="white" stroke-linejoin="round" stroke="white" stroke-width="0" stroke-miterlimit="0">
<rect x="394" y="119" clip-path="url(#clipPath1)" width="262" rx="0" ry="0" height="174" stroke="none"/>
</g>
<g font-size="9" font-family="'Helvetica'" stroke-linejoin="round" font-style="italic" font-weight="bold" stroke-width="0" stroke-miterlimit="0">
<text xml:space="preserve" x="461" y="129" clip-path="url(#clipPath2)" stroke="none">StateMachineSemanticVisitor</text>
</g>
<g font-size="11" stroke-width="1.1" stroke-linecap="butt">
<line clip-path="url(#clipPath3)" fill="none" x1="394" x2="656" y1="134" y2="134"/>
<text x="399" font-size="9" y="166" clip-path="url(#clipPath4)" font-family="'Helvetica'" stroke="none" xml:space="preserve"> + getContextChain(): SemanticVisitor [*]</text>
<text x="399" font-size="9" y="177" clip-path="url(#clipPath5)" font-family="'Helvetica'" stroke="none" xml:space="preserve"> + getStateMachineExecution(): Execution [1]</text>
<text x="399" font-size="9" y="188" clip-path="url(#clipPath6)" font-family="'Helvetica'" stroke="none" xml:space="preserve"> + activate()</text>
<text x="399" font-size="9" y="199" clip-path="url(#clipPath7)" font-family="'Helvetica'" stroke="none" xml:space="preserve"> + getNode(): NamedElement [1]</text>
<text x="399" font-size="9" y="210" clip-path="url(#clipPath8)" font-family="'Helvetica'" stroke="none" xml:space="preserve"> + setNode(  in null: NamedElement [1])</text>
<text x="399" font-size="9" y="221" clip-path="url(#clipPath9)" font-family="'Helvetica'" stroke="none" xml:space="preserve"> + getParent(): SemanticVisitor [1]</text>
<text x="399" font-size="9" y="232" clip-path="url(#clipPath10)" font-family="'Helvetica'" stroke="none" xml:space="preserve"> + setParent(  in null: SemanticVisitor [1])</text>
<text x="399" font-size="9" y="243" clip-path="url(#clipPath11)" font-family="'Helvetica'" stroke="none" xml:space="preserve"> + getExecutionLocus(): Locus [1]</text>
<text x="399" font-size="9" y="254" clip-path="url(#clipPath12)" font-family="'Helvetica'" stroke="none" xml:space="preserve"> + getExecutionContext(): Object [1]</text>
<text x="399" font-size="9" y="265" clip-path="url(#clipPath13)" font-family="'Helvetica'" stroke="none" xml:space="preserve"> + activateTransitions()</text>
<text x="399" font-size="9" y="276" clip-path="url(#clipPath14)" font-family="'Helvetica'" stroke="none" xml:space="preserve"> # getExecutionFor(  in behavior: Behavior [1]): Execution [1]</text>
<line clip-path="url(#clipPath15)" fill="none" x1="394" x2="656" y1="157" y2="157"/>
<rect x="394" y="119" clip-path="url(#clipPath1)" fill="none" width="261" rx="0" ry="0" height="173"/>
<rect x="436" y="12" clip-path="url(#clipPath16)" fill="silver" width="177" rx="0" ry="0" height="51" stroke="none"/>
</g>
<g stroke-linecap="butt" font-size="9" font-family="'Helvetica'" font-style="italic" font-weight="bold" stroke-width="1.1">
<text xml:space="preserve" x="449" y="33" clip-path="url(#clipPath17)" stroke="none">(fUML_Semantics::Semantics::Loci)</text>
<text xml:space="preserve" x="490" y="45" clip-path="url(#clipPath18)" stroke="none">SemanticVisitor</text>
</g>
<g font-size="11" stroke-width="1.1" stroke-linecap="butt">
<rect x="436" y="12" clip-path="url(#clipPath16)" fill="none" width="176" rx="0" ry="0" height="50"/>
<rect x="125" y="180" clip-path="url(#clipPath19)" fill="silver" width="124" rx="0" ry="0" height="51" stroke="none"/>
</g>
<g stroke-linecap="butt" font-size="9" font-family="'Helvetica'" font-style="italic" font-weight="bold" stroke-width="1.1">
<text xml:space="preserve" x="134" y="201" clip-path="url(#clipPath20)" stroke="none">(UML::CommonStructure)</text>
<text xml:space="preserve" x="155" y="213" clip-path="url(#clipPath21)" stroke="none">NamedElement</text>
</g>
<g font-size="11" stroke-width="1.1" stroke-linecap="butt">
<rect x="125" y="180" clip-path="url(#clipPath19)" fill="none" width="123" rx="0" ry="0" height="50"/>
<rect x="386" y="378" clip-path="url(#clipPath22)" fill="white" width="285" rx="0" ry="0" height="137" stroke="none"/>
<text x="492" font-size="9" y="388" clip-path="url(#clipPath23)" font-family="'Helvetica'" stroke="none" font-weight="bold" xml:space="preserve">RegionActivation</text>
<text x="391" font-size="9" y="402" clip-path="url(#clipPath24)" font-family="'Helvetica'" stroke="none" xml:space="preserve"> + isCompleted: Boolean [1]</text>
<line clip-path="url(#clipPath25)" fill="none" x1="386" x2="671" y1="393" y2="393"/>
<text x="391" font-size="9" y="426" clip-path="url(#clipPath26)" font-family="'Helvetica'" stroke="none" xml:space="preserve"> + exit(  in transitionActivation: TransitionActivation [1])</text>
<text x="391" font-size="9" y="437" clip-path="url(#clipPath27)" font-family="'Helvetica'" stroke="none" xml:space="preserve"> + activate()</text>
<text x="391" font-size="9" y="448" clip-path="url(#clipPath28)" font-family="'Helvetica'" stroke="none" xml:space="preserve"> + activateTransitions()</text>
<text x="391" font-size="9" y="459" clip-path="url(#clipPath29)" font-family="'Helvetica'" stroke="none" xml:space="preserve"> + getVertexActivations(): VertexActivation [*]</text>
<text x="391" font-size="9" y="470" clip-path="url(#clipPath30)" font-family="'Helvetica'" stroke="none" xml:space="preserve"> # getVertexActivation(  in vertex: Vertex [1]): VertexActivation [1]</text>
<text x="391" font-size="9" y="481" clip-path="url(#clipPath31)" font-family="'Helvetica'" stroke="none" xml:space="preserve"> + getTransitionActivations(): TransitionActivation [*]</text>
<text x="391" font-size="9" y="492" clip-path="url(#clipPath32)" font-family="'Helvetica'" stroke="none" xml:space="preserve"> + enter(  in enteringTransition: TransitionActivation [1])</text>
<text x="391" font-size="9" y="503" clip-path="url(#clipPath33)" font-family="'Helvetica'" stroke="none" xml:space="preserve"> + terminate()</text>
<line clip-path="url(#clipPath34)" fill="none" x1="386" x2="671" y1="417" y2="417"/>
<rect x="386" y="378" clip-path="url(#clipPath22)" fill="none" width="284" rx="0" ry="0" height="136"/>
<rect x="10" y="561" clip-path="url(#clipPath35)" fill="white" width="452" rx="0" ry="0" height="250" stroke="none"/>
</g>
<g stroke-linecap="butt" font-size="9" font-family="'Helvetica'" font-style="italic" font-weight="bold" stroke-width="1.1">
<text xml:space="preserve" x="199" y="571" clip-path="url(#clipPath36)" stroke="none">VertexActivation</text>
<text x="15" y="585" clip-path="url(#clipPath37)" font-style="normal" stroke="none" font-weight="normal" xml:space="preserve"> # status: StateMetadata [1]</text>
</g>
<g font-size="11" stroke-width="1.1" stroke-linecap="butt">
<line clip-path="url(#clipPath38)" fill="none" x1="10" x2="462" y1="576" y2="576"/>
<text x="15" font-size="9" y="609" clip-path="url(#clipPath39)" font-family="'Helvetica'" stroke="none" xml:space="preserve"> + getParentState(): VertexActivation [1]</text>
<text x="15" font-size="9" y="620" clip-path="url(#clipPath40)" font-family="'Helvetica'" stroke="none" xml:space="preserve"> + setStatus(  in status: StateMetadata [1])</text>
<text x="15" font-size="9" y="631" clip-path="url(#clipPath41)" font-family="'Helvetica'" stroke="none" xml:space="preserve"> + getStatus(): StateMetadata [1]</text>
<text x="15" font-size="9" y="642" clip-path="url(#clipPath42)" font-family="'Helvetica'" stroke="none" xml:space="preserve"> + addIncomingTransition(  in null: TransitionActivation [1])</text>
<text x="15" font-size="9" y="653" clip-path="url(#clipPath43)" font-family="'Helvetica'" stroke="none" xml:space="preserve"> + addOutgoingTransition(  in null: TransitionActivation [1])</text>
<text x="15" font-size="9" y="664" clip-path="url(#clipPath44)" font-family="'Helvetica'" stroke="none" xml:space="preserve"> # getVertexActivation(  in null: &lt;Undefined&gt; [1]): VertexActivation [1]</text>
<text x="15" font-size="9" y="675" clip-path="url(#clipPath45)" font-family="'Helvetica'" stroke="none" xml:space="preserve"> + tagOutgoingTransition(  in null: TransitionMetadata [1])</text>
<text x="15" font-size="9" y="686" clip-path="url(#clipPath46)" font-family="'Helvetica'" stroke="none" xml:space="preserve"> + tagIncomingTransition(  in null: TransitionMetadata [1])</text>
<text x="15" font-size="9" y="697" clip-path="url(#clipPath47)" font-family="'Helvetica'" stroke="none" xml:space="preserve"> + isActive(): Boolean [1]</text>
<text x="15" font-size="9" y="708" clip-path="url(#clipPath48)" font-family="'Helvetica'" stroke="none" xml:space="preserve"> + getAscendingHierachy(): VertexActivation [*]</text>
<text x="15" font-size="9" y="719" clip-path="url(#clipPath49)" font-family="'Helvetica'" stroke="none" xml:space="preserve"> + enter(  in enteringTransition: TransitionActivation [1],   in leastCommonAncestor: RegionActivation [0..1])</text>
<text x="15" font-size="9" y="730" clip-path="url(#clipPath50)" font-family="'Helvetica'" stroke="none" xml:space="preserve"> + exit(  in exitingTransition: TransitionActivation [1],   in leastCommonAncestor: RegionActivation [0..1])</text>
<text x="15" font-size="9" y="741" clip-path="url(#clipPath51)" font-family="'Helvetica'" stroke="none" xml:space="preserve"> + getLeastCommonAncestor(  in null: VertexActivation [1]): RegionActivation [1]</text>
<text x="15" font-size="9" y="752" clip-path="url(#clipPath52)" font-family="'Helvetica'" stroke="none" xml:space="preserve"> + getIncomingTransitions(): TransitionActivation [*]</text>
<text x="15" font-size="9" y="763" clip-path="url(#clipPath53)" font-family="'Helvetica'" stroke="none" xml:space="preserve"> + getOutgoingTransitions(): TransitionActivation [*]</text>
<text x="15" font-size="9" y="774" clip-path="url(#clipPath54)" font-family="'Helvetica'" stroke="none" xml:space="preserve"> + isEnterable(  in enteringTransition: TransitionActivation [1]): Boolean [1]</text>
<text x="15" font-size="9" y="785" clip-path="url(#clipPath55)" font-family="'Helvetica'" stroke="none" xml:space="preserve"> + isExitable(  in exitingTransition: TransitionActivation [1]): Boolean [1]</text>
<text x="15" font-size="9" y="796" clip-path="url(#clipPath56)" font-family="'Helvetica'" stroke="none" xml:space="preserve"> + terminate()</text>
<line clip-path="url(#clipPath57)" fill="none" x1="10" x2="462" y1="600" y2="600"/>
<rect x="10" y="561" clip-path="url(#clipPath35)" fill="none" width="451" rx="0" ry="0" height="249"/>
<rect x="652" y="561" clip-path="url(#clipPath58)" fill="white" width="301" rx="0" ry="0" height="250" stroke="none"/>
</g>
<g stroke-linecap="butt" font-size="9" font-family="'Helvetica'" font-style="italic" font-weight="bold" stroke-width="1.1">
<text xml:space="preserve" x="758" y="571" clip-path="url(#clipPath59)" stroke="none">TransitionActivation</text>
<text x="657" y="585" clip-path="url(#clipPath60)" font-style="normal" stroke="none" font-weight="normal" xml:space="preserve"> # status: TransitionMetadata [1]</text>
</g>
<g font-size="11" stroke-width="1.1" stroke-linecap="butt">
<line clip-path="url(#clipPath61)" fill="none" x1="652" x2="953" y1="576" y2="576"/>
<text x="657" font-size="9" y="609" clip-path="url(#clipPath62)" font-family="'Helvetica'" stroke="none" xml:space="preserve"> + executeEffect()</text>
<text x="657" font-size="9" y="620" clip-path="url(#clipPath63)" font-family="'Helvetica'" stroke="none" xml:space="preserve"> + fire()</text>
<text x="657" font-size="9" y="631" clip-path="url(#clipPath64)" font-family="'Helvetica'" stroke="none" xml:space="preserve"> + canFireOn(  in eventOccurrence: EventOccurrence [1]): Boolean [1]</text>
<text x="657" font-size="9" y="642" clip-path="url(#clipPath65)" font-family="'Helvetica'" stroke="none" xml:space="preserve"> + setStatus(  in status: TransitionMetadata [1])</text>
<text x="657" font-size="9" y="653" clip-path="url(#clipPath66)" font-family="'Helvetica'" stroke="none" xml:space="preserve"> + getStatus(): TransitionMetadata [1]</text>
<text x="657" font-size="9" y="664" clip-path="url(#clipPath67)" font-family="'Helvetica'" stroke="none" xml:space="preserve"> + isReached(): Boolean [1]</text>
<text x="657" font-size="9" y="675" clip-path="url(#clipPath68)" font-family="'Helvetica'" stroke="none" xml:space="preserve"> + isTraversed(): Boolean [1]</text>
<text x="657" font-size="9" y="686" clip-path="url(#clipPath69)" font-family="'Helvetica'" stroke="none" xml:space="preserve"> + evaluateGuard(): Boolean [1]</text>
<text x="657" font-size="9" y="697" clip-path="url(#clipPath70)" font-family="'Helvetica'" stroke="none" xml:space="preserve"> + hasTrigger(  in signalInstance: SignalInstance [1]): Boolean [1]</text>
<text x="657" font-size="9" y="708" clip-path="url(#clipPath71)" font-family="'Helvetica'" stroke="none" xml:space="preserve"> + isTriggered(): Boolean [1]</text>
<text x="657" font-size="9" y="719" clip-path="url(#clipPath72)" font-family="'Helvetica'" stroke="none" xml:space="preserve"> + isGuarded(): Boolean [1]</text>
<text x="657" font-size="9" y="730" clip-path="url(#clipPath73)" font-family="'Helvetica'" stroke="none" xml:space="preserve"> + getSourceActivation(): VertexActivation [1]</text>
<text x="657" font-size="9" y="741" clip-path="url(#clipPath74)" font-family="'Helvetica'" stroke="none" xml:space="preserve"> + setSourceActivation(  in null: VertexActivation [1])</text>
<text x="657" font-size="9" y="752" clip-path="url(#clipPath75)" font-family="'Helvetica'" stroke="none" xml:space="preserve"> + getTargetActivation(): VertexActivation [1]</text>
<text x="657" font-size="9" y="763" clip-path="url(#clipPath76)" font-family="'Helvetica'" stroke="none" xml:space="preserve"> + setTargetActivation(  in null: VertexActivation [1])</text>
<text x="657" font-size="9" y="774" clip-path="url(#clipPath77)" font-family="'Helvetica'" font-style="italic" stroke="none" xml:space="preserve"> # enterTarget()</text>
<text x="657" font-size="9" y="785" clip-path="url(#clipPath78)" font-family="'Helvetica'" font-style="italic" stroke="none" xml:space="preserve"> # exitSource()</text>
<text x="657" font-size="9" y="796" clip-path="url(#clipPath79)" font-family="'Helvetica'" stroke="none" xml:space="preserve"> # getLeastCommonAncestor(): RegionActivation [1]</text>
<line clip-path="url(#clipPath80)" fill="none" x1="652" x2="953" y1="600" y2="600"/>
<rect x="652" y="561" clip-path="url(#clipPath58)" fill="none" width="300" rx="0" ry="0" height="249"/>
<rect x="186" y="828" clip-path="url(#clipPath81)" fill="white" width="100" rx="0" ry="0" height="61" stroke="none"/>
<text x="204" font-size="9" y="838" clip-path="url(#clipPath82)" font-family="'Helvetica'" stroke="none" font-weight="bold" xml:space="preserve">«Enumeration»</text>
<text x="206" font-size="9" y="850" clip-path="url(#clipPath83)" font-family="'Helvetica'" stroke="none" font-weight="bold" xml:space="preserve">StateMetadata</text>
<text x="191" font-size="9" y="864" clip-path="url(#clipPath84)" font-family="'Helvetica'" stroke="none" xml:space="preserve">idle</text>
<text x="191" font-size="9" y="875" clip-path="url(#clipPath85)" font-family="'Helvetica'" stroke="none" xml:space="preserve">active</text>
<line clip-path="url(#clipPath86)" fill="none" x1="186" x2="286" y1="855" y2="855"/>
<rect x="186" y="828" clip-path="url(#clipPath81)" fill="none" width="99" rx="0" ry="0" height="60"/>
<rect x="752" y="827" clip-path="url(#clipPath87)" fill="white" width="100" rx="0" ry="0" height="79" stroke="none"/>
<text x="770" font-size="9" y="837" clip-path="url(#clipPath88)" font-family="'Helvetica'" stroke="none" font-weight="bold" xml:space="preserve">«Enumeration»</text>
<text x="761" font-size="9" y="849" clip-path="url(#clipPath89)" font-family="'Helvetica'" stroke="none" font-weight="bold" xml:space="preserve">TransitionMetadata</text>
<text x="757" font-size="9" y="863" clip-path="url(#clipPath90)" font-family="'Helvetica'" stroke="none" xml:space="preserve">none</text>
<text x="757" font-size="9" y="874" clip-path="url(#clipPath91)" font-family="'Helvetica'" stroke="none" xml:space="preserve">reached</text>
<text x="757" font-size="9" y="885" clip-path="url(#clipPath92)" font-family="'Helvetica'" stroke="none" xml:space="preserve">traversed</text>
<text x="757" font-size="9" y="896" clip-path="url(#clipPath93)" font-family="'Helvetica'" stroke="none" xml:space="preserve">completed</text>
<line clip-path="url(#clipPath94)" fill="none" x1="752" x2="852" y1="854" y2="854"/>
<rect x="752" y="827" clip-path="url(#clipPath87)" fill="none" width="99" rx="0" ry="0" height="78"/>
<line clip-path="url(#clipPath95)" fill="none" text-rendering="optimizeLegibility" x1="656" x2="736" y1="187" y2="187"/>
<line clip-path="url(#clipPath95)" fill="none" text-rendering="optimizeLegibility" x1="736" x2="736" y1="187" y2="36"/>
<line clip-path="url(#clipPath95)" fill="none" text-rendering="optimizeLegibility" x1="736" x2="613" y1="36" y2="36"/>
<text x="661" font-size="9" y="181" clip-path="url(#clipPath96)" text-rendering="optimizeLegibility" font-family="'Helvetica'" stroke="none" xml:space="preserve"> + visitor</text>
<text x="634" font-size="9" y="30" clip-path="url(#clipPath97)" text-rendering="optimizeLegibility" font-family="'Helvetica'" stroke="none" xml:space="preserve"> + parent</text>
<text x="663" font-size="9" y="197" clip-path="url(#clipPath98)" text-rendering="optimizeLegibility" font-family="'Helvetica'" stroke="none" xml:space="preserve"> *</text>
<text x="639" font-size="9" y="46" clip-path="url(#clipPath99)" text-rendering="optimizeLegibility" font-family="'Helvetica'" stroke="none" xml:space="preserve"> 0..1</text>
<polygon text-rendering="optimizeLegibility" clip-path="url(#clipPath100)" points=" 613 35 615 33 617 33 619 35 619 36 631 30 619 36 631 42 619 36 619 37 617 39 615 39 613 37" stroke="none"/>
<polygon fill="none" text-rendering="optimizeLegibility" clip-path="url(#clipPath100)" points=" 613 35 615 33 617 33 619 35 619 36 631 30 619 36 631 42 619 36 619 37 617 39 615 39 613 37"/>
<line clip-path="url(#clipPath95)" fill="none" text-rendering="optimizeLegibility" x1="524" x2="524" y1="119" y2="63"/>
</g>
<g stroke-linecap="butt" font-size="9" fill="white" text-rendering="optimizeLegibility" font-family="'Helvetica'" stroke="white" stroke-width="1.1">
<polygon clip-path="url(#clipPath101)" points=" 524 63 532 73 516 73" stroke="none"/>
<polygon fill="none" clip-path="url(#clipPath101)" points=" 524 63 532 73 516 73" stroke="black"/>
<line clip-path="url(#clipPath95)" fill="none" x1="249" x2="394" y1="204" y2="204" stroke="black"/>
<text x="273" y="196" clip-path="url(#clipPath102)" fill="black" stroke="none" xml:space="preserve"> + node</text>
<text x="350" y="196" clip-path="url(#clipPath103)" fill="black" stroke="none" xml:space="preserve"> + visitor</text>
<text x="272" y="216" clip-path="url(#clipPath104)" fill="black" stroke="none" xml:space="preserve"> 1</text>
<text x="382" y="215" clip-path="url(#clipPath105)" fill="black" stroke="none" xml:space="preserve"> *</text>
<polygon fill="black" clip-path="url(#clipPath106)" points=" 249 203 251 201 253 201 255 203 255 204 267 198 255 204 267 210 255 204 255 205 253 207 251 207 249 205" stroke="none"/>
<polygon fill="none" clip-path="url(#clipPath106)" points=" 249 203 251 201 253 201 255 203 255 204 267 198 255 204 267 210 255 204 255 205 253 207 251 207 249 205" stroke="black"/>
<line clip-path="url(#clipPath95)" fill="none" x1="525" x2="525" y1="378" y2="325" stroke="black"/>
<line clip-path="url(#clipPath95)" fill="none" x1="525" x2="525" y1="325" y2="325" stroke="black"/>
<line clip-path="url(#clipPath95)" fill="none" x1="525" x2="525" y1="325" y2="293" stroke="black"/>
<polygon clip-path="url(#clipPath107)" points=" 525 293 533 303 517 303" stroke="none"/>
<polygon fill="none" clip-path="url(#clipPath107)" points=" 525 293 533 303 517 303" stroke="black"/>
<line clip-path="url(#clipPath95)" fill="none" x1="70" x2="70" y1="561" y2="325" stroke="black"/>
<line clip-path="url(#clipPath95)" fill="none" x1="70" x2="525" y1="325" y2="325" stroke="black"/>
<line clip-path="url(#clipPath95)" fill="none" x1="525" x2="525" y1="325" y2="293" stroke="black"/>
<polygon clip-path="url(#clipPath107)" points=" 525 293 533 303 517 303" stroke="none"/>
<polygon fill="none" clip-path="url(#clipPath107)" points=" 525 293 533 303 517 303" stroke="black"/>
<line clip-path="url(#clipPath95)" fill="none" x1="884" x2="884" y1="561" y2="325" stroke="black"/>
<line clip-path="url(#clipPath95)" fill="none" x1="884" x2="525" y1="325" y2="325" stroke="black"/>
<line clip-path="url(#clipPath95)" fill="none" x1="525" x2="525" y1="325" y2="293" stroke="black"/>
<polygon clip-path="url(#clipPath107)" points=" 525 293 533 303 517 303" stroke="none"/>
<polygon fill="none" clip-path="url(#clipPath107)" points=" 525 293 533 303 517 303" stroke="black"/>
<line clip-path="url(#clipPath95)" fill="none" x1="386" x2="235" y1="455" y2="455" stroke="black"/>
<line clip-path="url(#clipPath95)" fill="none" x1="235" x2="235" y1="455" y2="561" stroke="black"/>
<text x="279" y="447" clip-path="url(#clipPath108)" fill="black" stroke="none" xml:space="preserve"> + regionActivation</text>
<text x="149" y="529" clip-path="url(#clipPath109)" fill="black" stroke="none" xml:space="preserve"> # vertexActivations</text>
<text x="352" y="465" clip-path="url(#clipPath110)" fill="black" stroke="none" xml:space="preserve"> 1</text>
<text x="240" y="532" clip-path="url(#clipPath111)" fill="black" stroke="none" xml:space="preserve"> *</text>
<polygon fill="black" clip-path="url(#clipPath112)" points=" 386 455 378 459 370 455 378 451" stroke="none"/>
<polygon fill="none" clip-path="url(#clipPath112)" points=" 386 455 378 459 370 455 378 451" stroke="black"/>
<polygon fill="black" clip-path="url(#clipPath113)" points=" 234 561 232 559 232 557 234 555 235 555 229 543 235 555 241 543 235 555 236 555 238 557 238 559 236 561" stroke="none"/>
<polygon fill="none" clip-path="url(#clipPath113)" points=" 234 561 232 559 232 557 234 555 235 555 229 543 235 555 241 543 235 555 236 555 238 557 238 559 236 561" stroke="black"/>
<line clip-path="url(#clipPath95)" fill="none" x1="671" x2="799" y1="451" y2="451" stroke="black"/>
<line clip-path="url(#clipPath95)" fill="none" x1="799" x2="799" y1="451" y2="561" stroke="black"/>
<text x="692" y="442" clip-path="url(#clipPath114)" fill="black" stroke="none" xml:space="preserve"> + regionActivation</text>
<text x="698" y="541" clip-path="url(#clipPath115)" fill="black" stroke="none" xml:space="preserve"> # transitionActivations</text>
<text x="689" y="463" clip-path="url(#clipPath116)" fill="black" stroke="none" xml:space="preserve"> 1</text>
<text x="803" y="544" clip-path="url(#clipPath117)" fill="black" stroke="none" xml:space="preserve"> *</text>
<polygon fill="black" clip-path="url(#clipPath118)" points=" 671 451 679 447 687 451 679 455" stroke="none"/>
<polygon fill="none" clip-path="url(#clipPath118)" points=" 671 451 679 447 687 451 679 455" stroke="black"/>
<polygon fill="black" clip-path="url(#clipPath119)" points=" 798 561 796 559 796 557 798 555 799 555 793 543 799 555 805 543 799 555 800 555 802 557 802 559 800 561" stroke="none"/>
<polygon fill="none" clip-path="url(#clipPath119)" points=" 798 561 796 559 796 557 798 555 799 555 793 543 799 555 805 543 799 555 800 555 802 557 802 559 800 561" stroke="black"/>
<line clip-path="url(#clipPath95)" fill="none" x1="462" x2="652" y1="664" y2="664" stroke="black"/>
<text x="481" y="658" clip-path="url(#clipPath120)" fill="black" stroke="none" xml:space="preserve"> + vertexSourceActivation</text>
<text x="505" y="676" clip-path="url(#clipPath121)" fill="black" stroke="none" xml:space="preserve"> + outgoingTransitionActivations</text>
<text x="478" y="676" clip-path="url(#clipPath122)" fill="black" stroke="none" xml:space="preserve"> 1</text>
<text x="632" y="659" clip-path="url(#clipPath123)" fill="black" stroke="none" xml:space="preserve"> *</text>
<polygon fill="black" clip-path="url(#clipPath124)" points=" 462 663 464 661 466 661 468 663 468 664 480 658 468 664 480 670 468 664 468 665 466 667 464 667 462 665" stroke="none"/>
<polygon fill="none" clip-path="url(#clipPath124)" points=" 462 663 464 661 466 661 468 663 468 664 480 658 468 664 480 670 468 664 468 665 466 667 464 667 462 665" stroke="black"/>
<polygon fill="black" clip-path="url(#clipPath125)" points=" 652 665 650 667 648 667 646 665 646 664 634 670 646 664 634 658 646 664 646 663 648 661 650 661 652 663" stroke="none"/>
<polygon fill="none" clip-path="url(#clipPath125)" points=" 652 665 650 667 648 667 646 665 646 664 634 670 646 664 634 658 646 664 646 663 648 661 650 661 652 663" stroke="black"/>
<line clip-path="url(#clipPath95)" fill="none" x1="652" x2="462" y1="751" y2="751" stroke="black"/>
<text x="500" y="760" clip-path="url(#clipPath126)" fill="black" stroke="none" xml:space="preserve"> + incomingTransitionActivations</text>
<text x="481" y="746" clip-path="url(#clipPath127)" fill="black" stroke="none" xml:space="preserve"> + vertexTargetActivation</text>
<text x="631" y="747" clip-path="url(#clipPath128)" fill="black" stroke="none" xml:space="preserve"> *</text>
<text x="475" y="762" clip-path="url(#clipPath129)" fill="black" stroke="none" xml:space="preserve"> 1</text>
<polygon fill="black" clip-path="url(#clipPath130)" points=" 652 752 650 754 648 754 646 752 646 751 634 757 646 751 634 745 646 751 646 750 648 748 650 748 652 750" stroke="none"/>
<polygon fill="none" clip-path="url(#clipPath130)" points=" 652 752 650 754 648 754 646 752 646 751 634 757 646 751 634 745 646 751 646 750 648 748 650 748 652 750" stroke="black"/>
<polygon fill="black" clip-path="url(#clipPath131)" points=" 462 750 464 748 466 748 468 750 468 751 480 745 468 751 480 757 468 751 468 752 466 754 464 754 462 752" stroke="none"/>
<polygon fill="none" clip-path="url(#clipPath131)" points=" 462 750 464 748 466 748 468 750 468 751 480 745 468 751 480 757 468 751 468 752 466 754 464 754 462 752" stroke="black"/>
</g>
</g>
</svg>
