<?xml version="1.0" encoding="UTF-8"?><svg xmlns="http://www.w3.org/2000/svg" xmlns:xlink="http://www.w3.org/1999/xlink" stroke-dasharray="none" shape-rendering="auto" font-family="'Dialog'" width="927" text-rendering="auto" fill-opacity="1" contentScriptType="text/ecmascript" color-interpolation="auto" color-rendering="auto" preserveAspectRatio="xMidYMid meet" font-size="12" viewBox="0 0 927 575" fill="black" stroke="black" image-rendering="auto" stroke-miterlimit="10" zoomAndPan="magnify" version="1.0" stroke-linecap="square" stroke-linejoin="miter" contentStyleType="text/css" font-style="normal" height="575" stroke-width="1" stroke-dashoffset="0" font-weight="normal" stroke-opacity="1">
<!--Generated by the Batik Graphics2D SVG Generator-->
<defs id="genericDefs"/>
<g>
<defs id="defs1">
<clipPath clipPathUnits="userSpaceOnUse" id="clipPath1">
<path d="M9 281 L326 281 L326 450 L9 450 L9 281 Z"/>
</clipPath>
<clipPath clipPathUnits="userSpaceOnUse" id="clipPath2">
<path d="M109 284 L225 284 L225 296 L109 296 L109 284 Z"/>
</clipPath>
<clipPath clipPathUnits="userSpaceOnUse" id="clipPath3">
<path d="M9 295 L326 295 L326 323 L9 323 L9 295 Z"/>
</clipPath>
<clipPath clipPathUnits="userSpaceOnUse" id="clipPath4">
<path d="M14 324 L161 324 L161 336 L14 336 L14 324 Z"/>
</clipPath>
<clipPath clipPathUnits="userSpaceOnUse" id="clipPath5">
<path d="M14 334 L204 334 L204 346 L14 346 L14 334 Z"/>
</clipPath>
<clipPath clipPathUnits="userSpaceOnUse" id="clipPath6">
<path d="M14 344 L321 344 L321 356 L14 356 L14 344 Z"/>
</clipPath>
<clipPath clipPathUnits="userSpaceOnUse" id="clipPath7">
<path d="M14 354 L278 354 L278 366 L14 366 L14 354 Z"/>
</clipPath>
<clipPath clipPathUnits="userSpaceOnUse" id="clipPath8">
<path d="M14 364 L288 364 L288 376 L14 376 L14 364 Z"/>
</clipPath>
<clipPath clipPathUnits="userSpaceOnUse" id="clipPath9">
<path d="M14 374 L119 374 L119 386 L14 386 L14 374 Z"/>
</clipPath>
<clipPath clipPathUnits="userSpaceOnUse" id="clipPath10">
<path d="M14 384 L263 384 L263 396 L14 396 L14 384 Z"/>
</clipPath>
<clipPath clipPathUnits="userSpaceOnUse" id="clipPath11">
<path d="M14 394 L287 394 L287 406 L14 406 L14 394 Z"/>
</clipPath>
<clipPath clipPathUnits="userSpaceOnUse" id="clipPath12">
<path d="M14 404 L245 404 L245 416 L14 416 L14 404 Z"/>
</clipPath>
<clipPath clipPathUnits="userSpaceOnUse" id="clipPath13">
<path d="M9 322 L326 322 L326 449 L9 449 L9 322 Z"/>
</clipPath>
<clipPath clipPathUnits="userSpaceOnUse" id="clipPath14">
<path d="M577 279 L918 279 L918 448 L577 448 L577 279 Z"/>
</clipPath>
<clipPath clipPathUnits="userSpaceOnUse" id="clipPath15">
<path d="M707 282 L788 282 L788 294 L707 294 L707 282 Z"/>
</clipPath>
<clipPath clipPathUnits="userSpaceOnUse" id="clipPath16">
<path d="M582 295 L661 295 L661 307 L582 307 L582 295 Z"/>
</clipPath>
<clipPath clipPathUnits="userSpaceOnUse" id="clipPath17">
<path d="M577 293 L918 293 L918 318 L577 318 L577 293 Z"/>
</clipPath>
<clipPath clipPathUnits="userSpaceOnUse" id="clipPath18">
<path d="M582 319 L685 319 L685 331 L582 331 L582 319 Z"/>
</clipPath>
<clipPath clipPathUnits="userSpaceOnUse" id="clipPath19">
<path d="M582 329 L742 329 L742 341 L582 341 L582 329 Z"/>
</clipPath>
<clipPath clipPathUnits="userSpaceOnUse" id="clipPath20">
<path d="M582 339 L737 339 L737 351 L582 351 L582 339 Z"/>
</clipPath>
<clipPath clipPathUnits="userSpaceOnUse" id="clipPath21">
<path d="M582 349 L770 349 L770 361 L582 361 L582 349 Z"/>
</clipPath>
<clipPath clipPathUnits="userSpaceOnUse" id="clipPath22">
<path d="M582 359 L828 359 L828 371 L582 371 L582 359 Z"/>
</clipPath>
<clipPath clipPathUnits="userSpaceOnUse" id="clipPath23">
<path d="M582 369 L875 369 L875 381 L582 381 L582 369 Z"/>
</clipPath>
<clipPath clipPathUnits="userSpaceOnUse" id="clipPath24">
<path d="M582 379 L795 379 L795 391 L582 391 L582 379 Z"/>
</clipPath>
<clipPath clipPathUnits="userSpaceOnUse" id="clipPath25">
<path d="M582 389 L913 389 L913 401 L582 401 L582 389 Z"/>
</clipPath>
<clipPath clipPathUnits="userSpaceOnUse" id="clipPath26">
<path d="M582 399 L780 399 L780 411 L582 411 L582 399 Z"/>
</clipPath>
<clipPath clipPathUnits="userSpaceOnUse" id="clipPath27">
<path d="M582 409 L909 409 L909 421 L582 421 L582 409 Z"/>
</clipPath>
<clipPath clipPathUnits="userSpaceOnUse" id="clipPath28">
<path d="M582 419 L687 419 L687 431 L582 431 L582 419 Z"/>
</clipPath>
<clipPath clipPathUnits="userSpaceOnUse" id="clipPath29">
<path d="M577 317 L918 317 L918 447 L577 447 L577 317 Z"/>
</clipPath>
<clipPath clipPathUnits="userSpaceOnUse" id="clipPath30">
<path d="M694 155 L796 155 L796 207 L694 207 L694 155 Z"/>
</clipPath>
<clipPath clipPathUnits="userSpaceOnUse" id="clipPath31">
<path d="M708 175 L783 175 L783 187 L708 187 L708 175 Z"/>
</clipPath>
<clipPath clipPathUnits="userSpaceOnUse" id="clipPath32">
<path d="M117 12 L220 12 L220 64 L117 64 L117 12 Z"/>
</clipPath>
<clipPath clipPathUnits="userSpaceOnUse" id="clipPath33">
<path d="M119 32 L220 32 L220 44 L119 44 L119 32 Z"/>
</clipPath>
<clipPath clipPathUnits="userSpaceOnUse" id="clipPath34">
<path d="M693 11 L795 11 L795 63 L693 63 L693 11 Z"/>
</clipPath>
<clipPath clipPathUnits="userSpaceOnUse" id="clipPath35">
<path d="M708 31 L782 31 L782 43 L708 43 L708 31 Z"/>
</clipPath>
<clipPath clipPathUnits="userSpaceOnUse" id="clipPath36">
<path d="M-1 -1 L928 -1 L928 576 L-1 576 L-1 -1 Z"/>
</clipPath>
<clipPath clipPathUnits="userSpaceOnUse" id="clipPath37">
<path d="M635 492 L674 492 L674 504 L635 504 L635 492 Z"/>
</clipPath>
<clipPath clipPathUnits="userSpaceOnUse" id="clipPath38">
<path d="M774 471 L819 471 L819 483 L774 483 L774 471 Z"/>
</clipPath>
<clipPath clipPathUnits="userSpaceOnUse" id="clipPath39">
<path d="M682 492 L703 492 L703 504 L682 504 L682 492 Z"/>
</clipPath>
<clipPath clipPathUnits="userSpaceOnUse" id="clipPath40">
<path d="M828 469 L837 469 L837 481 L828 481 L828 469 Z"/>
</clipPath>
<clipPath clipPathUnits="userSpaceOnUse" id="clipPath41">
<path d="M671 446 L686 446 L686 489 L671 489 L671 446 Z"/>
</clipPath>
<clipPath clipPathUnits="userSpaceOnUse" id="clipPath42">
<path d="M816 446 L831 446 L831 467 L816 467 L816 446 Z"/>
</clipPath>
<clipPath clipPathUnits="userSpaceOnUse" id="clipPath43">
<path d="M352 350 L456 350 L456 362 L352 362 L352 350 Z"/>
</clipPath>
<clipPath clipPathUnits="userSpaceOnUse" id="clipPath44">
<path d="M474 349 L557 349 L557 361 L474 361 L474 349 Z"/>
</clipPath>
<clipPath clipPathUnits="userSpaceOnUse" id="clipPath45">
<path d="M349 365 L359 365 L359 377 L349 377 L349 365 Z"/>
</clipPath>
<clipPath clipPathUnits="userSpaceOnUse" id="clipPath46">
<path d="M549 367 L559 367 L559 379 L549 379 L549 367 Z"/>
</clipPath>
<clipPath clipPathUnits="userSpaceOnUse" id="clipPath47">
<path d="M324 357 L345 357 L345 372 L324 372 L324 357 Z"/>
</clipPath>
<clipPath clipPathUnits="userSpaceOnUse" id="clipPath48">
<path d="M559 357 L580 357 L580 372 L559 372 L559 357 Z"/>
</clipPath>
<clipPath clipPathUnits="userSpaceOnUse" id="clipPath49">
<path d="M752 263 L840 263 L840 275 L752 275 L752 263 Z"/>
</clipPath>
<clipPath clipPathUnits="userSpaceOnUse" id="clipPath50">
<path d="M750 230 L830 230 L830 242 L750 242 L750 230 Z"/>
</clipPath>
<clipPath clipPathUnits="userSpaceOnUse" id="clipPath51">
<path d="M733 262 L743 262 L743 274 L733 274 L733 262 Z"/>
</clipPath>
<clipPath clipPathUnits="userSpaceOnUse" id="clipPath52">
<path d="M733 230 L743 230 L743 242 L733 242 L733 230 Z"/>
</clipPath>
<clipPath clipPathUnits="userSpaceOnUse" id="clipPath53">
<path d="M738 205 L753 205 L753 226 L738 226 L738 205 Z"/>
</clipPath>
<clipPath clipPathUnits="userSpaceOnUse" id="clipPath54">
<path d="M110 103 L163 103 L163 115 L110 115 L110 103 Z"/>
</clipPath>
<clipPath clipPathUnits="userSpaceOnUse" id="clipPath55">
<path d="M98 244 L164 244 L164 256 L98 256 L98 244 Z"/>
</clipPath>
<clipPath clipPathUnits="userSpaceOnUse" id="clipPath56">
<path d="M169 105 L179 105 L179 117 L169 117 L169 105 Z"/>
</clipPath>
<clipPath clipPathUnits="userSpaceOnUse" id="clipPath57">
<path d="M171 244 L181 244 L181 256 L171 256 L171 244 Z"/>
</clipPath>
<clipPath clipPathUnits="userSpaceOnUse" id="clipPath58">
<path d="M161 62 L176 62 L176 105 L161 105 L161 62 Z"/>
</clipPath>
<clipPath clipPathUnits="userSpaceOnUse" id="clipPath59">
<path d="M161 263 L176 263 L176 284 L161 284 L161 263 Z"/>
</clipPath>
<clipPath clipPathUnits="userSpaceOnUse" id="clipPath60">
<path d="M246 22 L299 22 L299 34 L246 34 L246 22 Z"/>
</clipPath>
<clipPath clipPathUnits="userSpaceOnUse" id="clipPath61">
<path d="M580 23 L664 23 L664 35 L580 35 L580 23 Z"/>
</clipPath>
<clipPath clipPathUnits="userSpaceOnUse" id="clipPath62">
<path d="M246 38 L267 38 L267 50 L246 50 L246 38 Z"/>
</clipPath>
<clipPath clipPathUnits="userSpaceOnUse" id="clipPath63">
<path d="M647 43 L667 43 L667 55 L647 55 L647 43 Z"/>
</clipPath>
<clipPath clipPathUnits="userSpaceOnUse" id="clipPath64">
<path d="M218 32 L237 32 L237 43 L218 43 L218 32 Z"/>
</clipPath>
<clipPath clipPathUnits="userSpaceOnUse" id="clipPath65">
<path d="M675 30 L696 30 L696 45 L675 45 L675 30 Z"/>
</clipPath>
<clipPath clipPathUnits="userSpaceOnUse" id="clipPath66">
<path d="M754 84 L833 84 L833 96 L754 96 L754 84 Z"/>
</clipPath>
<clipPath clipPathUnits="userSpaceOnUse" id="clipPath67">
<path d="M758 119 L843 119 L843 131 L758 131 L758 119 Z"/>
</clipPath>
<clipPath clipPathUnits="userSpaceOnUse" id="clipPath68">
<path d="M734 84 L744 84 L744 96 L734 96 L734 84 Z"/>
</clipPath>
<clipPath clipPathUnits="userSpaceOnUse" id="clipPath69">
<path d="M733 118 L742 118 L742 130 L733 130 L733 118 Z"/>
</clipPath>
<clipPath clipPathUnits="userSpaceOnUse" id="clipPath70">
<path d="M742 61 L753 61 L753 80 L742 80 L742 61 Z"/>
</clipPath>
<clipPath clipPathUnits="userSpaceOnUse" id="clipPath71">
<path d="M740 137 L755 137 L755 158 L740 158 L740 137 Z"/>
</clipPath>
</defs>
<g font-size="11" fill="white" stroke-linejoin="round" stroke="white" stroke-width="0" stroke-miterlimit="0">
<rect x="10" y="282" clip-path="url(#clipPath1)" width="315" rx="0" ry="0" height="167" stroke="none"/>
</g>
<g font-size="9" font-family="'Arial'" stroke-linejoin="round" font-weight="bold" stroke-width="0" stroke-miterlimit="0">
<text xml:space="preserve" x="110" y="294" clip-path="url(#clipPath2)" stroke="none">StateMachineConfiguration</text>
</g>
<g font-size="11" stroke-width="1.1" stroke-linecap="butt">
<line clip-path="url(#clipPath3)" fill="none" x1="10" x2="325" y1="296" y2="296"/>
<text x="15" font-size="9" y="334" clip-path="url(#clipPath4)" font-family="'Arial'" stroke="none" xml:space="preserve"> + getRoot(): StateConfiguration [1]</text>
<text x="15" font-size="9" y="344" clip-path="url(#clipPath5)" font-family="'Arial'" stroke="none" xml:space="preserve"> + getExecution(): StateMachineExecution [1]</text>
<text x="15" font-size="9" y="354" clip-path="url(#clipPath6)" font-family="'Arial'" stroke="none" xml:space="preserve"> + getVertexActivationsAtLevel(  in level: Integer [1]): VertexActivation [*]</text>
<text x="15" font-size="9" y="364" clip-path="url(#clipPath7)" font-family="'Arial'" stroke="none" xml:space="preserve"> + register(  in stateActivation: StateActivation [1]): Boolean [1]</text>
<text x="15" font-size="9" y="374" clip-path="url(#clipPath8)" font-family="'Arial'" stroke="none" xml:space="preserve"> + unregister(  in stateActivation: StateActivation [1]): Boolean [1]</text>
<text x="15" font-size="9" y="384" clip-path="url(#clipPath9)" font-family="'Arial'" stroke="none" xml:space="preserve"> + isStable(): Boolean [1]</text>
<text x="15" font-size="9" y="394" clip-path="url(#clipPath10)" font-family="'Arial'" stroke="none" xml:space="preserve"> + isActive(  in activation: VertexActivation [1]): Boolean [1]</text>
<text x="15" font-size="9" y="404" clip-path="url(#clipPath11)" font-family="'Arial'" stroke="none" xml:space="preserve"> # remove(  in vertexActivation: VertexActivation [1]): Boolean [1]</text>
<text x="15" font-size="9" y="414" clip-path="url(#clipPath12)" font-family="'Arial'" stroke="none" xml:space="preserve"> # add(  in activation: VertexActivation [1]): Boolean [1]</text>
<line clip-path="url(#clipPath13)" fill="none" x1="10" x2="325" y1="323" y2="323"/>
<rect x="10" y="282" clip-path="url(#clipPath1)" fill="none" width="314" rx="0" ry="0" height="166"/>
<rect x="578" y="280" clip-path="url(#clipPath14)" fill="white" width="339" rx="0" ry="0" height="167" stroke="none"/>
<text x="708" font-size="9" y="292" clip-path="url(#clipPath15)" font-family="'Arial'" stroke="none" font-weight="bold" xml:space="preserve">StateConfiguration</text>
<text x="583" font-size="9" y="305" clip-path="url(#clipPath16)" font-family="'Arial'" stroke="none" xml:space="preserve"> - level: Integer [1]</text>
<line clip-path="url(#clipPath17)" fill="none" x1="578" x2="917" y1="294" y2="294"/>
<text x="583" font-size="9" y="329" clip-path="url(#clipPath18)" font-family="'Arial'" stroke="none" xml:space="preserve"> # getLevel(): Integer [1]</text>
<text x="583" font-size="9" y="339" clip-path="url(#clipPath19)" font-family="'Arial'" stroke="none" xml:space="preserve"> + getChildren(): StateConfiguration [*]</text>
<text x="583" font-size="9" y="349" clip-path="url(#clipPath20)" font-family="'Arial'" stroke="none" xml:space="preserve"> + getParent(): StateConfiguration [1]</text>
<text x="583" font-size="9" y="359" clip-path="url(#clipPath21)" font-family="'Arial'" stroke="none" xml:space="preserve"> + getVertexActivation(): VertexActivation [1]</text>
<text x="583" font-size="9" y="369" clip-path="url(#clipPath22)" font-family="'Arial'" stroke="none" xml:space="preserve"> + setParent(  in stateConfiguration: StateConfiguration [1])</text>
<text x="583" font-size="9" y="379" clip-path="url(#clipPath23)" font-family="'Arial'" stroke="none" xml:space="preserve"> - getContext(  in activation: VertexActivation [1]): VertexActivation [*]</text>
<text x="583" font-size="9" y="389" clip-path="url(#clipPath24)" font-family="'Arial'" stroke="none" xml:space="preserve"> + removeChild(  in activation: VertexActivation [1])</text>
<text x="583" font-size="9" y="399" clip-path="url(#clipPath25)" font-family="'Arial'" stroke="none" xml:space="preserve"> - remove(  in activation: VertexActivation [1],   in context: VertexActivation [*])</text>
<text x="583" font-size="9" y="409" clip-path="url(#clipPath26)" font-family="'Arial'" stroke="none" xml:space="preserve"> + addChild(  in activation: VertexActivation [1])</text>
<text x="583" font-size="9" y="419" clip-path="url(#clipPath27)" font-family="'Arial'" stroke="none" xml:space="preserve"> - add(  in activation: VertexActivation [1],   in context: VertexActivation [1..*])</text>
<text x="583" font-size="9" y="429" clip-path="url(#clipPath28)" font-family="'Arial'" stroke="none" xml:space="preserve"> + isActive(): Boolean [1]</text>
<line clip-path="url(#clipPath29)" fill="none" x1="578" x2="917" y1="318" y2="318"/>
<rect x="578" y="280" clip-path="url(#clipPath14)" fill="none" width="338" rx="0" ry="0" height="166"/>
<rect x="695" y="156" clip-path="url(#clipPath30)" fill="white" width="100" rx="0" ry="0" height="50" stroke="none"/>
</g>
<g stroke-linecap="butt" font-size="9" font-family="'Arial'" font-style="italic" font-weight="bold" stroke-width="1.1">
<text xml:space="preserve" x="709" y="185" clip-path="url(#clipPath31)" stroke="none">VertexActivation</text>
</g>
<g font-size="11" stroke-width="1.1" stroke-linecap="butt">
<rect x="695" y="156" clip-path="url(#clipPath30)" fill="none" width="99" rx="0" ry="0" height="49"/>
<rect x="118" y="13" clip-path="url(#clipPath32)" fill="white" width="101" rx="0" ry="0" height="50" stroke="none"/>
<text x="120" font-size="9" y="42" clip-path="url(#clipPath33)" font-family="'Arial'" stroke="none" font-weight="bold" xml:space="preserve">StateMachineExecution</text>
<rect x="118" y="13" clip-path="url(#clipPath32)" fill="none" width="100" rx="0" ry="0" height="49"/>
<rect x="694" y="12" clip-path="url(#clipPath34)" fill="white" width="100" rx="0" ry="0" height="50" stroke="none"/>
<text x="709" font-size="9" y="41" clip-path="url(#clipPath35)" font-family="'Arial'" stroke="none" font-weight="bold" xml:space="preserve">RegionActivation</text>
<rect x="694" y="12" clip-path="url(#clipPath34)" fill="none" width="99" rx="0" ry="0" height="49"/>
<line clip-path="url(#clipPath36)" fill="none" text-rendering="optimizeLegibility" x1="678" x2="678" y1="447" y2="527"/>
<line clip-path="url(#clipPath36)" fill="none" text-rendering="optimizeLegibility" x1="678" x2="823" y1="527" y2="527"/>
<line clip-path="url(#clipPath36)" fill="none" text-rendering="optimizeLegibility" x1="823" x2="823" y1="527" y2="447"/>
<text x="636" font-size="9" y="502" clip-path="url(#clipPath37)" text-rendering="optimizeLegibility" font-family="'Arial'" stroke="none" xml:space="preserve"> + parent</text>
<text x="775" font-size="9" y="481" clip-path="url(#clipPath38)" text-rendering="optimizeLegibility" font-family="'Arial'" stroke="none" xml:space="preserve"> + children</text>
<text x="683" font-size="9" y="502" clip-path="url(#clipPath39)" text-rendering="optimizeLegibility" font-family="'Arial'" stroke="none" xml:space="preserve"> 0..1</text>
<text x="829" font-size="9" y="479" clip-path="url(#clipPath40)" text-rendering="optimizeLegibility" font-family="'Arial'" stroke="none" xml:space="preserve"> *</text>
<polygon text-rendering="optimizeLegibility" clip-path="url(#clipPath41)" points=" 679 447 680 449 680 451 679 453 678 453 683 462 678 471 684 487 678 471 672 487 678 471 674 462 678 453 677 453 676 451 676 449 677 447" stroke="none"/>
<polygon fill="none" text-rendering="optimizeLegibility" clip-path="url(#clipPath41)" points=" 679 447 680 449 680 451 679 453 678 453 683 462 678 471 684 487 678 471 672 487 678 471 674 462 678 453 677 453 676 451 676 449 677 447"/>
<polygon text-rendering="optimizeLegibility" clip-path="url(#clipPath42)" points=" 824 447 826 449 826 451 824 453 823 453 829 465 823 453 817 465 823 453 822 453 820 451 820 449 822 447" stroke="none"/>
<polygon fill="none" text-rendering="optimizeLegibility" clip-path="url(#clipPath42)" points=" 824 447 826 449 826 451 824 453 823 453 829 465 823 453 817 465 823 453 822 453 820 451 820 449 822 447"/>
<line clip-path="url(#clipPath36)" fill="none" text-rendering="optimizeLegibility" x1="325" x2="578" y1="364" y2="364"/>
<text x="353" font-size="9" y="360" clip-path="url(#clipPath43)" text-rendering="optimizeLegibility" font-family="'Arial'" stroke="none" xml:space="preserve"> + completeConfiguration</text>
<text x="475" font-size="9" y="359" clip-path="url(#clipPath44)" text-rendering="optimizeLegibility" font-family="'Arial'" stroke="none" xml:space="preserve"> + rootConfiguration</text>
<text x="350" font-size="9" y="375" clip-path="url(#clipPath45)" text-rendering="optimizeLegibility" font-family="'Arial'" stroke="none" xml:space="preserve"> 1</text>
<text x="550" font-size="9" y="377" clip-path="url(#clipPath46)" text-rendering="optimizeLegibility" font-family="'Arial'" stroke="none" xml:space="preserve"> 1</text>
<polygon text-rendering="optimizeLegibility" clip-path="url(#clipPath47)" points=" 325 363 327 361 329 361 331 363 331 364 343 358 331 364 343 370 331 364 331 365 329 367 327 367 325 365" stroke="none"/>
<polygon fill="none" text-rendering="optimizeLegibility" clip-path="url(#clipPath47)" points=" 325 363 327 361 329 361 331 363 331 364 343 358 331 364 343 370 331 364 331 365 329 367 327 367 325 365"/>
<polygon text-rendering="optimizeLegibility" clip-path="url(#clipPath48)" points=" 578 365 576 367 574 367 572 365 572 364 560 370 572 364 560 358 572 364 572 363 574 361 576 361 578 363" stroke="none"/>
<polygon fill="none" text-rendering="optimizeLegibility" clip-path="url(#clipPath48)" points=" 578 365 576 367 574 367 572 365 572 364 560 370 572 364 560 358 572 364 572 363 574 361 576 361 578 363"/>
<line clip-path="url(#clipPath36)" fill="none" text-rendering="optimizeLegibility" x1="745" x2="745" y1="280" y2="243"/>
<line clip-path="url(#clipPath36)" fill="none" text-rendering="optimizeLegibility" x1="745" x2="745" y1="243" y2="206"/>
<text x="753" font-size="9" y="273" clip-path="url(#clipPath49)" text-rendering="optimizeLegibility" font-family="'Arial'" stroke="none" xml:space="preserve"> + stateConfiguration</text>
<text x="751" font-size="9" y="240" clip-path="url(#clipPath50)" text-rendering="optimizeLegibility" font-family="'Arial'" stroke="none" xml:space="preserve"> + vertexActivation</text>
<text x="734" font-size="9" y="272" clip-path="url(#clipPath51)" text-rendering="optimizeLegibility" font-family="'Arial'" stroke="none" xml:space="preserve"> 1</text>
<text x="734" font-size="9" y="240" clip-path="url(#clipPath52)" text-rendering="optimizeLegibility" font-family="'Arial'" stroke="none" xml:space="preserve"> 1</text>
<polygon text-rendering="optimizeLegibility" clip-path="url(#clipPath53)" points=" 746 206 748 208 748 210 746 212 745 212 751 224 745 212 739 224 745 212 744 212 742 210 742 208 744 206" stroke="none"/>
<polygon fill="none" text-rendering="optimizeLegibility" clip-path="url(#clipPath53)" points=" 746 206 748 208 748 210 746 212 745 212 751 224 745 212 739 224 745 212 744 212 742 210 742 208 744 206"/>
<line clip-path="url(#clipPath36)" fill="none" text-rendering="optimizeLegibility" x1="168" x2="168" y1="63" y2="172"/>
<line clip-path="url(#clipPath36)" fill="none" text-rendering="optimizeLegibility" x1="168" x2="168" y1="172" y2="282"/>
<text x="111" font-size="9" y="113" clip-path="url(#clipPath54)" text-rendering="optimizeLegibility" font-family="'Arial'" stroke="none" xml:space="preserve"> + execution</text>
<text x="99" font-size="9" y="254" clip-path="url(#clipPath55)" text-rendering="optimizeLegibility" font-family="'Arial'" stroke="none" xml:space="preserve"> + configuration</text>
<text x="170" font-size="9" y="115" clip-path="url(#clipPath56)" text-rendering="optimizeLegibility" font-family="'Arial'" stroke="none" xml:space="preserve"> 1</text>
<text x="172" font-size="9" y="254" clip-path="url(#clipPath57)" text-rendering="optimizeLegibility" font-family="'Arial'" stroke="none" xml:space="preserve"> 1</text>
<polygon text-rendering="optimizeLegibility" clip-path="url(#clipPath58)" points=" 169 63 170 65 170 67 169 69 168 69 173 78 168 87 174 103 168 87 162 103 168 87 164 78 168 69 167 69 166 67 166 65 167 63" stroke="none"/>
<polygon fill="none" text-rendering="optimizeLegibility" clip-path="url(#clipPath58)" points=" 169 63 170 65 170 67 169 69 168 69 173 78 168 87 174 103 168 87 162 103 168 87 164 78 168 69 167 69 166 67 166 65 167 63"/>
<polygon text-rendering="optimizeLegibility" clip-path="url(#clipPath59)" points=" 167 282 165 280 165 278 167 276 168 276 162 264 168 276 174 264 168 276 169 276 171 278 171 280 169 282" stroke="none"/>
<polygon fill="none" text-rendering="optimizeLegibility" clip-path="url(#clipPath59)" points=" 167 282 165 280 165 278 167 276 168 276 162 264 168 276 174 264 168 276 169 276 171 278 171 280 169 282"/>
<line clip-path="url(#clipPath36)" fill="none" text-rendering="optimizeLegibility" x1="219" x2="454" y1="37" y2="37"/>
<line clip-path="url(#clipPath36)" fill="none" text-rendering="optimizeLegibility" x1="454" x2="694" y1="37" y2="37"/>
<text x="247" font-size="9" y="32" clip-path="url(#clipPath60)" text-rendering="optimizeLegibility" font-family="'Arial'" stroke="none" xml:space="preserve"> + execution</text>
<text x="581" font-size="9" y="33" clip-path="url(#clipPath61)" text-rendering="optimizeLegibility" font-family="'Arial'" stroke="none" xml:space="preserve"> + regionActivations</text>
<text x="247" font-size="9" y="48" clip-path="url(#clipPath62)" text-rendering="optimizeLegibility" font-family="'Arial'" stroke="none" xml:space="preserve"> 0..1</text>
<text x="648" font-size="9" y="53" clip-path="url(#clipPath63)" text-rendering="optimizeLegibility" font-family="'Arial'" stroke="none" xml:space="preserve"> 1..*</text>
<polygon text-rendering="optimizeLegibility" clip-path="url(#clipPath64)" points=" 219 37 227 33 235 37 227 41" stroke="none"/>
<polygon fill="none" text-rendering="optimizeLegibility" clip-path="url(#clipPath64)" points=" 219 37 227 33 235 37 227 41"/>
<polygon text-rendering="optimizeLegibility" clip-path="url(#clipPath65)" points=" 694 38 692 40 690 40 688 38 688 37 676 43 688 37 676 31 688 37 688 36 690 34 692 34 694 36" stroke="none"/>
<polygon fill="none" text-rendering="optimizeLegibility" clip-path="url(#clipPath65)" points=" 694 38 692 40 690 40 688 38 688 37 676 43 688 37 676 31 688 37 688 36 690 34 692 34 694 36"/>
<line clip-path="url(#clipPath36)" fill="none" text-rendering="optimizeLegibility" x1="747" x2="747" y1="62" y2="156"/>
<text x="755" font-size="9" y="94" clip-path="url(#clipPath66)" text-rendering="optimizeLegibility" font-family="'Arial'" stroke="none" xml:space="preserve"> + regionActivation</text>
<text x="759" font-size="9" y="129" clip-path="url(#clipPath67)" text-rendering="optimizeLegibility" font-family="'Arial'" stroke="none" xml:space="preserve"> # vertexActivations</text>
<text x="735" font-size="9" y="94" clip-path="url(#clipPath68)" text-rendering="optimizeLegibility" font-family="'Arial'" stroke="none" xml:space="preserve"> 1</text>
<text x="734" font-size="9" y="128" clip-path="url(#clipPath69)" text-rendering="optimizeLegibility" font-family="'Arial'" stroke="none" xml:space="preserve"> *</text>
<polygon text-rendering="optimizeLegibility" clip-path="url(#clipPath70)" points=" 747 62 751 70 747 78 743 70" stroke="none"/>
<polygon fill="none" text-rendering="optimizeLegibility" clip-path="url(#clipPath70)" points=" 747 62 751 70 747 78 743 70"/>
<polygon text-rendering="optimizeLegibility" clip-path="url(#clipPath71)" points=" 746 156 744 154 744 152 746 150 747 150 741 138 747 150 753 138 747 150 748 150 750 152 750 154 748 156" stroke="none"/>
<polygon fill="none" text-rendering="optimizeLegibility" clip-path="url(#clipPath71)" points=" 746 156 744 154 744 152 746 150 747 150 741 138 747 150 753 138 747 150 748 150 750 152 750 154 748 156"/>
</g>
</g>
</svg>
