<?xml version="1.0" encoding="UTF-8"?><svg xmlns="http://www.w3.org/2000/svg" xmlns:xlink="http://www.w3.org/1999/xlink" stroke-dasharray="none" shape-rendering="auto" font-family="'Dialog'" width="881" text-rendering="auto" fill-opacity="1" contentScriptType="text/ecmascript" color-interpolation="auto" color-rendering="auto" preserveAspectRatio="xMidYMid meet" font-size="12" viewBox="0 0 881 569" fill="black" stroke="black" image-rendering="auto" stroke-miterlimit="10" zoomAndPan="magnify" version="1.0" stroke-linecap="square" stroke-linejoin="miter" contentStyleType="text/css" font-style="normal" height="569" stroke-width="1" stroke-dashoffset="0" font-weight="normal" stroke-opacity="1">
<!--Generated by the Batik Graphics2D SVG Generator-->
<defs id="genericDefs"/>
<g>
<defs id="defs1">
<clipPath clipPathUnits="userSpaceOnUse" id="clipPath1">
<path d="M89 360 L191 360 L191 414 L89 414 L89 360 Z"/>
</clipPath>
<clipPath clipPathUnits="userSpaceOnUse" id="clipPath2">
<path d="M107 381 L174 381 L174 393 L107 393 L107 381 Z"/>
</clipPath>
<clipPath clipPathUnits="userSpaceOnUse" id="clipPath3">
<path d="M79 137 L516 137 L516 278 L79 278 L79 137 Z"/>
</clipPath>
<clipPath clipPathUnits="userSpaceOnUse" id="clipPath4">
<path d="M244 140 L350 140 L350 152 L244 152 L244 140 Z"/>
</clipPath>
<clipPath clipPathUnits="userSpaceOnUse" id="clipPath5">
<path d="M84 153 L380 153 L380 165 L84 165 L84 153 Z"/>
</clipPath>
<clipPath clipPathUnits="userSpaceOnUse" id="clipPath6">
<path d="M84 163 L511 163 L511 175 L84 175 L84 163 Z"/>
</clipPath>
<clipPath clipPathUnits="userSpaceOnUse" id="clipPath7">
<path d="M84 173 L313 173 L313 185 L84 185 L84 173 Z"/>
</clipPath>
<clipPath clipPathUnits="userSpaceOnUse" id="clipPath8">
<path d="M84 183 L302 183 L302 195 L84 195 L84 183 Z"/>
</clipPath>
<clipPath clipPathUnits="userSpaceOnUse" id="clipPath9">
<path d="M84 193 L277 193 L277 205 L84 205 L84 193 Z"/>
</clipPath>
<clipPath clipPathUnits="userSpaceOnUse" id="clipPath10">
<path d="M84 203 L267 203 L267 215 L84 215 L84 203 Z"/>
</clipPath>
<clipPath clipPathUnits="userSpaceOnUse" id="clipPath11">
<path d="M84 213 L134 213 L134 225 L84 225 L84 213 Z"/>
</clipPath>
<clipPath clipPathUnits="userSpaceOnUse" id="clipPath12">
<path d="M84 223 L385 223 L385 235 L84 235 L84 223 Z"/>
</clipPath>
<clipPath clipPathUnits="userSpaceOnUse" id="clipPath13">
<path d="M84 233 L230 233 L230 245 L84 245 L84 233 Z"/>
</clipPath>
<clipPath clipPathUnits="userSpaceOnUse" id="clipPath14">
<path d="M84 243 L385 243 L385 255 L84 255 L84 243 Z"/>
</clipPath>
<clipPath clipPathUnits="userSpaceOnUse" id="clipPath15">
<path d="M79 151 L516 151 L516 278 L79 278 L79 151 Z"/>
</clipPath>
<clipPath clipPathUnits="userSpaceOnUse" id="clipPath16">
<path d="M267 508 L486 508 L486 560 L267 560 L267 508 Z"/>
</clipPath>
<clipPath clipPathUnits="userSpaceOnUse" id="clipPath17">
<path d="M271 523 L484 523 L484 535 L271 535 L271 523 Z"/>
</clipPath>
<clipPath clipPathUnits="userSpaceOnUse" id="clipPath18">
<path d="M344 534 L410 534 L410 546 L344 546 L344 534 Z"/>
</clipPath>
<clipPath clipPathUnits="userSpaceOnUse" id="clipPath19">
<path d="M242 362 L528 362 L528 415 L242 415 L242 362 Z"/>
</clipPath>
<clipPath clipPathUnits="userSpaceOnUse" id="clipPath20">
<path d="M310 365 L460 365 L460 377 L310 377 L310 365 Z"/>
</clipPath>
<clipPath clipPathUnits="userSpaceOnUse" id="clipPath21">
<path d="M247 378 L523 378 L523 390 L247 390 L247 378 Z"/>
</clipPath>
<clipPath clipPathUnits="userSpaceOnUse" id="clipPath22">
<path d="M247 388 L473 388 L473 400 L247 400 L247 388 Z"/>
</clipPath>
<clipPath clipPathUnits="userSpaceOnUse" id="clipPath23">
<path d="M242 376 L528 376 L528 415 L242 415 L242 376 Z"/>
</clipPath>
<clipPath clipPathUnits="userSpaceOnUse" id="clipPath24">
<path d="M175 10 L430 10 L430 64 L175 64 L175 10 Z"/>
</clipPath>
<clipPath clipPathUnits="userSpaceOnUse" id="clipPath25">
<path d="M189 26 L417 26 L417 38 L189 38 L189 26 Z"/>
</clipPath>
<clipPath clipPathUnits="userSpaceOnUse" id="clipPath26">
<path d="M288 37 L318 37 L318 49 L288 49 L288 37 Z"/>
</clipPath>
<clipPath clipPathUnits="userSpaceOnUse" id="clipPath27">
<path d="M588 11 L843 11 L843 65 L588 65 L588 11 Z"/>
</clipPath>
<clipPath clipPathUnits="userSpaceOnUse" id="clipPath28">
<path d="M611 27 L822 27 L822 39 L611 39 L611 27 Z"/>
</clipPath>
<clipPath clipPathUnits="userSpaceOnUse" id="clipPath29">
<path d="M680 38 L753 38 L753 50 L680 50 L680 38 Z"/>
</clipPath>
<clipPath clipPathUnits="userSpaceOnUse" id="clipPath30">
<path d="M553 136 L872 136 L872 202 L553 202 L553 136 Z"/>
</clipPath>
<clipPath clipPathUnits="userSpaceOnUse" id="clipPath31">
<path d="M638 139 L787 139 L787 151 L638 151 L638 139 Z"/>
</clipPath>
<clipPath clipPathUnits="userSpaceOnUse" id="clipPath32">
<path d="M558 152 L655 152 L655 164 L558 164 L558 152 Z"/>
</clipPath>
<clipPath clipPathUnits="userSpaceOnUse" id="clipPath33">
<path d="M558 162 L859 162 L859 174 L558 174 L558 162 Z"/>
</clipPath>
<clipPath clipPathUnits="userSpaceOnUse" id="clipPath34">
<path d="M553 150 L872 150 L872 202 L553 202 L553 150 Z"/>
</clipPath>
<clipPath clipPathUnits="userSpaceOnUse" id="clipPath35">
<path d="M-1 -1 L882 -1 L882 570 L-1 570 L-1 -1 Z"/>
</clipPath>
<clipPath clipPathUnits="userSpaceOnUse" id="clipPath36">
<path d="M203 476 L308 476 L308 488 L203 488 L203 476 Z"/>
</clipPath>
<clipPath clipPathUnits="userSpaceOnUse" id="clipPath37">
<path d="M202 434 L309 434 L309 446 L202 446 L202 434 Z"/>
</clipPath>
<clipPath clipPathUnits="userSpaceOnUse" id="clipPath38">
<path d="M317 476 L327 476 L327 488 L317 488 L317 476 Z"/>
</clipPath>
<clipPath clipPathUnits="userSpaceOnUse" id="clipPath39">
<path d="M319 434 L340 434 L340 446 L319 446 L319 434 Z"/>
</clipPath>
<clipPath clipPathUnits="userSpaceOnUse" id="clipPath40">
<path d="M308 490 L323 490 L323 511 L308 511 L308 490 Z"/>
</clipPath>
<clipPath clipPathUnits="userSpaceOnUse" id="clipPath41">
<path d="M310 413 L321 413 L321 432 L310 432 L310 413 Z"/>
</clipPath>
<clipPath clipPathUnits="userSpaceOnUse" id="clipPath42">
<path d="M447 22 L491 22 L491 34 L447 34 L447 22 Z"/>
</clipPath>
<clipPath clipPathUnits="userSpaceOnUse" id="clipPath43">
<path d="M377 116 L490 116 L490 128 L377 128 L377 116 Z"/>
</clipPath>
<clipPath clipPathUnits="userSpaceOnUse" id="clipPath44">
<path d="M449 41 L459 41 L459 53 L449 53 L449 41 Z"/>
</clipPath>
<clipPath clipPathUnits="userSpaceOnUse" id="clipPath45">
<path d="M498 112 L507 112 L507 124 L498 124 L498 112 Z"/>
</clipPath>
<clipPath clipPathUnits="userSpaceOnUse" id="clipPath46">
<path d="M428 30 L449 30 L449 45 L428 45 L428 30 Z"/>
</clipPath>
<clipPath clipPathUnits="userSpaceOnUse" id="clipPath47">
<path d="M383 300 L427 300 L427 312 L383 312 L383 300 Z"/>
</clipPath>
<clipPath clipPathUnits="userSpaceOnUse" id="clipPath48">
<path d="M381 348 L496 348 L496 360 L381 360 L381 348 Z"/>
</clipPath>
<clipPath clipPathUnits="userSpaceOnUse" id="clipPath49">
<path d="M364 299 L374 299 L374 311 L364 311 L364 299 Z"/>
</clipPath>
<clipPath clipPathUnits="userSpaceOnUse" id="clipPath50">
<path d="M362 347 L372 347 L372 359 L362 359 L362 347 Z"/>
</clipPath>
<clipPath clipPathUnits="userSpaceOnUse" id="clipPath51">
<path d="M372 276 L387 276 L387 297 L372 297 L372 276 Z"/>
</clipPath>
<clipPath clipPathUnits="userSpaceOnUse" id="clipPath52">
<path d="M95 337 L132 337 L132 349 L95 349 L95 337 Z"/>
</clipPath>
<clipPath clipPathUnits="userSpaceOnUse" id="clipPath53">
<path d="M22 294 L135 294 L135 306 L22 306 L22 294 Z"/>
</clipPath>
<clipPath clipPathUnits="userSpaceOnUse" id="clipPath54">
<path d="M142 339 L152 339 L152 351 L142 351 L142 339 Z"/>
</clipPath>
<clipPath clipPathUnits="userSpaceOnUse" id="clipPath55">
<path d="M143 296 L164 296 L164 308 L143 308 L143 296 Z"/>
</clipPath>
<clipPath clipPathUnits="userSpaceOnUse" id="clipPath56">
<path d="M131 342 L146 342 L146 363 L131 363 L131 342 Z"/>
</clipPath>
<clipPath clipPathUnits="userSpaceOnUse" id="clipPath57">
<path d="M131 276 L146 276 L146 297 L131 297 L131 276 Z"/>
</clipPath>
<clipPath clipPathUnits="userSpaceOnUse" id="clipPath58">
<path d="M302 62 L321 62 L321 75 L302 75 L302 62 Z"/>
</clipPath>
<clipPath clipPathUnits="userSpaceOnUse" id="clipPath59">
<path d="M370 498 L389 498 L389 511 L370 511 L370 498 Z"/>
</clipPath>
<clipPath clipPathUnits="userSpaceOnUse" id="clipPath60">
<path d="M712 63 L731 63 L731 76 L712 76 L712 63 Z"/>
</clipPath>
</defs>
<g font-size="11" fill="white" stroke-linejoin="round" stroke="white" stroke-width="0" stroke-miterlimit="0">
<rect x="90" y="361" clip-path="url(#clipPath1)" width="100" rx="0" ry="0" height="52" stroke="none"/>
</g>
<g font-size="9" font-family="'Arial'" stroke-linejoin="round" font-weight="bold" stroke-width="0" stroke-miterlimit="0">
<text xml:space="preserve" x="108" y="391" clip-path="url(#clipPath2)" stroke="none">StateActivation</text>
</g>
<g font-size="11" stroke-width="1.1" stroke-linecap="butt">
<rect x="90" y="361" clip-path="url(#clipPath1)" fill="none" width="99" rx="0" ry="0" height="51"/>
<rect x="80" y="138" clip-path="url(#clipPath3)" fill="white" width="435" rx="0" ry="0" height="139" stroke="none"/>
<text x="245" font-size="9" y="150" clip-path="url(#clipPath4)" font-family="'Arial'" stroke="none" font-weight="bold" xml:space="preserve">DoActivityContextObject</text>
<text x="85" font-size="9" y="163" clip-path="url(#clipPath5)" font-family="'Arial'" stroke="none" xml:space="preserve"> + getFeatureValue(  in feature: StructuralFeature [1]): FeatureValue [1]</text>
<text x="85" font-size="9" y="173" clip-path="url(#clipPath6)" font-family="'Arial'" stroke="none" xml:space="preserve"> + setFeatureValue(  in feature: StructuralFeature [1],   in values: Value [*],   in position: Integer [0..1])</text>
<text x="85" font-size="9" y="183" clip-path="url(#clipPath7)" font-family="'Arial'" stroke="none" xml:space="preserve"> + dispatch(  in operation: Operation [1]): Execution [1]</text>
<text x="85" font-size="9" y="193" clip-path="url(#clipPath8)" font-family="'Arial'" stroke="none" xml:space="preserve"> + send(  in eventOccurrence: EventOccurrence [1])</text>
<text x="85" font-size="9" y="203" clip-path="url(#clipPath9)" font-family="'Arial'" stroke="none" xml:space="preserve"> + unregister(  in accepter: EventAccepter [1])</text>
<text x="85" font-size="9" y="213" clip-path="url(#clipPath10)" font-family="'Arial'" stroke="none" xml:space="preserve"> + register(  in accepter: EventAccepter [1])</text>
<text x="85" font-size="9" y="223" clip-path="url(#clipPath11)" font-family="'Arial'" stroke="none" xml:space="preserve"> + destroy()</text>
<text x="85" font-size="9" y="233" clip-path="url(#clipPath12)" font-family="'Arial'" stroke="none" xml:space="preserve"> # unregisterFromContext(  in encapsulatedAccepter: EventAccepter [1])</text>
<text x="85" font-size="9" y="243" clip-path="url(#clipPath13)" font-family="'Arial'" stroke="none" xml:space="preserve"> + initialize(  in context: Object [1])</text>
<text x="85" font-size="9" y="253" clip-path="url(#clipPath14)" font-family="'Arial'" stroke="none" xml:space="preserve"> + startBehavior(  in classifier: Class [1],   in inputs: ParameterValue [*])</text>
<line clip-path="url(#clipPath15)" fill="none" x1="80" x2="515" y1="152" y2="152"/>
<rect x="80" y="138" clip-path="url(#clipPath3)" fill="none" width="434" rx="0" ry="0" height="138"/>
<rect x="268" y="509" clip-path="url(#clipPath16)" fill="silver" width="217" rx="0" ry="0" height="50" stroke="none"/>
</g>
<g stroke-linecap="butt" font-size="9" font-family="'Arial'" font-style="italic" font-weight="bold" stroke-width="1.1">
<text xml:space="preserve" x="272" y="533" clip-path="url(#clipPath17)" stroke="none">(fUML_Semantics::Semantics::CommonBehavior)</text>
<text xml:space="preserve" x="345" y="544" clip-path="url(#clipPath18)" stroke="none">EventAccepter</text>
</g>
<g font-size="11" stroke-width="1.1" stroke-linecap="butt">
<rect x="268" y="509" clip-path="url(#clipPath16)" fill="none" width="216" rx="0" ry="0" height="49"/>
<rect x="243" y="363" clip-path="url(#clipPath19)" fill="white" width="284" rx="0" ry="0" height="51" stroke="none"/>
<text x="311" font-size="9" y="375" clip-path="url(#clipPath20)" font-family="'Arial'" stroke="none" font-weight="bold" xml:space="preserve">DoActivityExecutionEventAccepter</text>
<text x="248" font-size="9" y="388" clip-path="url(#clipPath21)" font-family="'Arial'" stroke="none" xml:space="preserve"> + match(  in eventOccurrence: EventOccurrence [1]): Boolean [1]</text>
<text x="248" font-size="9" y="398" clip-path="url(#clipPath22)" font-family="'Arial'" stroke="none" xml:space="preserve"> + accept(  in eventOccurrence: EventOccurrence [1])</text>
<line clip-path="url(#clipPath23)" fill="none" x1="243" x2="527" y1="377" y2="377"/>
<rect x="243" y="363" clip-path="url(#clipPath19)" fill="none" width="283" rx="0" ry="0" height="50"/>
<rect x="176" y="11" clip-path="url(#clipPath24)" fill="silver" width="253" rx="0" ry="0" height="52" stroke="none"/>
<text x="190" font-size="9" y="36" clip-path="url(#clipPath25)" font-family="'Arial'" stroke="none" font-weight="bold" xml:space="preserve">(fUML_Semantics::Semantics::StructuredClassifiers)</text>
<text x="289" font-size="9" y="47" clip-path="url(#clipPath26)" font-family="'Arial'" stroke="none" font-weight="bold" xml:space="preserve">Object</text>
<rect x="176" y="11" clip-path="url(#clipPath24)" fill="none" width="252" rx="0" ry="0" height="51"/>
<rect x="589" y="12" clip-path="url(#clipPath27)" fill="silver" width="253" rx="0" ry="0" height="52" stroke="none"/>
<text x="612" font-size="9" y="37" clip-path="url(#clipPath28)" font-family="'Arial'" stroke="none" font-weight="bold" xml:space="preserve">(fUML_Semantics::Semantics::CommonBehavior)</text>
<text x="681" font-size="9" y="48" clip-path="url(#clipPath29)" font-family="'Arial'" stroke="none" font-weight="bold" xml:space="preserve">ObjectActivation</text>
<rect x="589" y="12" clip-path="url(#clipPath27)" fill="none" width="252" rx="0" ry="0" height="51"/>
<line clip-path="url(#clipPath27)" fill="none" x1="593" x2="593" y1="12" y2="63"/>
<line clip-path="url(#clipPath27)" fill="none" x1="837" x2="837" y1="12" y2="63"/>
<line clip-path="url(#clipPath27)" fill="none" x1="591" x2="591" y1="13" y2="62" stroke="silver" stroke-width="3.1"/>
<line clip-path="url(#clipPath27)" fill="none" x1="839" x2="839" y1="13" y2="62" stroke="silver" stroke-width="3.1"/>
<rect x="554" y="137" clip-path="url(#clipPath30)" fill="white" width="317" rx="0" ry="0" height="64" stroke="none" stroke-width="3.1"/>
</g>
<g stroke-width="3.1" font-size="9" font-family="'Arial'" font-weight="bold" stroke-linecap="butt">
<text xml:space="preserve" x="639" y="149" clip-path="url(#clipPath31)" stroke="none">DoActivityContextObjectActivation</text>
<text x="559" y="162" clip-path="url(#clipPath32)" stroke="none" font-weight="normal" xml:space="preserve"> + dispatchNextEvent()</text>
<text x="559" y="172" clip-path="url(#clipPath33)" stroke="none" font-weight="normal" xml:space="preserve"> + startBehavior(  in classifier: Class [1],   in inputs: ParameterValue [*])</text>
</g>
<g font-size="11" stroke-width="1.1" stroke-linecap="butt">
<line clip-path="url(#clipPath34)" fill="none" x1="554" x2="871" y1="151" y2="151"/>
<rect x="554" y="137" clip-path="url(#clipPath30)" fill="none" width="316" rx="0" ry="0" height="63"/>
<line clip-path="url(#clipPath30)" fill="none" x1="558" x2="558" y1="137" y2="200"/>
<line clip-path="url(#clipPath30)" fill="none" x1="866" x2="866" y1="137" y2="200"/>
<line clip-path="url(#clipPath30)" fill="none" x1="556" x2="556" y1="138" y2="199" stroke="white" stroke-width="3.1"/>
<line clip-path="url(#clipPath30)" fill="none" x1="868" x2="868" y1="138" y2="199" stroke="white" stroke-width="3.1"/>
<line clip-path="url(#clipPath35)" fill="none" text-rendering="optimizeLegibility" x1="315" x2="315" y1="509" y2="414"/>
<text x="204" font-size="9" y="486" clip-path="url(#clipPath36)" text-rendering="optimizeLegibility" font-family="'Arial'" stroke="none" xml:space="preserve"> + encapsulatedAccepter</text>
<text x="203" font-size="9" y="444" clip-path="url(#clipPath37)" text-rendering="optimizeLegibility" font-family="'Arial'" stroke="none" xml:space="preserve"> + encapsulatingAccepter</text>
<text x="318" font-size="9" y="486" clip-path="url(#clipPath38)" text-rendering="optimizeLegibility" font-family="'Arial'" stroke="none" xml:space="preserve"> 1</text>
<text x="320" font-size="9" y="444" clip-path="url(#clipPath39)" text-rendering="optimizeLegibility" font-family="'Arial'" stroke="none" xml:space="preserve"> 0..1</text>
<polygon text-rendering="optimizeLegibility" clip-path="url(#clipPath40)" points=" 314 509 312 507 312 505 314 503 315 503 309 491 315 503 321 491 315 503 316 503 318 505 318 507 316 509" stroke="none"/>
<polygon fill="none" text-rendering="optimizeLegibility" clip-path="url(#clipPath40)" points=" 314 509 312 507 312 505 314 503 315 503 309 491 315 503 321 491 315 503 316 503 318 505 318 507 316 509"/>
<polygon text-rendering="optimizeLegibility" clip-path="url(#clipPath41)" points=" 315 414 319 422 315 430 311 422" stroke="none"/>
<polygon fill="none" text-rendering="optimizeLegibility" clip-path="url(#clipPath41)" points=" 315 414 319 422 315 430 311 422"/>
<line clip-path="url(#clipPath35)" fill="none" text-rendering="optimizeLegibility" x1="429" x2="494" y1="37" y2="37"/>
<line clip-path="url(#clipPath35)" fill="none" text-rendering="optimizeLegibility" x1="494" x2="494" y1="37" y2="138"/>
<text x="448" font-size="9" y="32" clip-path="url(#clipPath42)" text-rendering="optimizeLegibility" font-family="'Arial'" stroke="none" xml:space="preserve"> + context</text>
<text x="378" font-size="9" y="126" clip-path="url(#clipPath43)" text-rendering="optimizeLegibility" font-family="'Arial'" stroke="none" xml:space="preserve"> + doActivityContextObject</text>
<text x="450" font-size="9" y="51" clip-path="url(#clipPath44)" text-rendering="optimizeLegibility" font-family="'Arial'" stroke="none" xml:space="preserve"> 1</text>
<text x="499" font-size="9" y="122" clip-path="url(#clipPath45)" text-rendering="optimizeLegibility" font-family="'Arial'" stroke="none" xml:space="preserve"> *</text>
<polygon text-rendering="optimizeLegibility" clip-path="url(#clipPath46)" points=" 429 36 431 34 433 34 435 36 435 37 447 31 435 37 447 43 435 37 435 38 433 40 431 40 429 38" stroke="none"/>
<polygon fill="none" text-rendering="optimizeLegibility" clip-path="url(#clipPath46)" points=" 429 36 431 34 433 34 435 36 435 37 447 31 435 37 447 43 435 37 435 38 433 40 431 40 429 38"/>
<line clip-path="url(#clipPath35)" fill="none" text-rendering="optimizeLegibility" x1="379" x2="379" y1="277" y2="363"/>
<text x="384" font-size="9" y="310" clip-path="url(#clipPath47)" text-rendering="optimizeLegibility" font-family="'Arial'" stroke="none" xml:space="preserve"> + context</text>
<text x="382" font-size="9" y="358" clip-path="url(#clipPath48)" text-rendering="optimizeLegibility" font-family="'Arial'" stroke="none" xml:space="preserve"> + doActivityEventAccepter</text>
<text x="365" font-size="9" y="309" clip-path="url(#clipPath49)" text-rendering="optimizeLegibility" font-family="'Arial'" stroke="none" xml:space="preserve"> 1</text>
<text x="363" font-size="9" y="357" clip-path="url(#clipPath50)" text-rendering="optimizeLegibility" font-family="'Arial'" stroke="none" xml:space="preserve"> 1</text>
<polygon text-rendering="optimizeLegibility" clip-path="url(#clipPath51)" points=" 380 277 382 279 382 281 380 283 379 283 385 295 379 283 373 295 379 283 378 283 376 281 376 279 378 277" stroke="none"/>
<polygon fill="none" text-rendering="optimizeLegibility" clip-path="url(#clipPath51)" points=" 380 277 382 279 382 281 380 283 379 283 385 295 379 283 373 295 379 283 378 283 376 281 376 279 378 277"/>
<line clip-path="url(#clipPath35)" fill="none" text-rendering="optimizeLegibility" x1="138" x2="138" y1="361" y2="277"/>
<text x="96" font-size="9" y="347" clip-path="url(#clipPath52)" text-rendering="optimizeLegibility" font-family="'Arial'" stroke="none" xml:space="preserve"> + owner</text>
<text x="23" font-size="9" y="304" clip-path="url(#clipPath53)" text-rendering="optimizeLegibility" font-family="'Arial'" stroke="none" xml:space="preserve"> + doActivityContextObject</text>
<text x="143" font-size="9" y="349" clip-path="url(#clipPath54)" text-rendering="optimizeLegibility" font-family="'Arial'" stroke="none" xml:space="preserve"> 1</text>
<text x="144" font-size="9" y="306" clip-path="url(#clipPath55)" text-rendering="optimizeLegibility" font-family="'Arial'" stroke="none" xml:space="preserve"> 0..1</text>
<polygon text-rendering="optimizeLegibility" clip-path="url(#clipPath56)" points=" 137 361 135 359 135 357 137 355 138 355 132 343 138 355 144 343 138 355 139 355 141 357 141 359 139 361" stroke="none"/>
<polygon fill="none" text-rendering="optimizeLegibility" clip-path="url(#clipPath56)" points=" 137 361 135 359 135 357 137 355 138 355 132 343 138 355 144 343 138 355 139 355 141 357 141 359 139 361"/>
<polygon text-rendering="optimizeLegibility" clip-path="url(#clipPath57)" points=" 139 277 141 279 141 281 139 283 138 283 144 295 138 283 132 295 138 283 137 283 135 281 135 279 137 277" stroke="none"/>
<polygon fill="none" text-rendering="optimizeLegibility" clip-path="url(#clipPath57)" points=" 139 277 141 279 141 281 139 283 138 283 144 295 138 283 132 295 138 283 137 283 135 281 135 279 137 277"/>
<line clip-path="url(#clipPath35)" fill="none" text-rendering="optimizeLegibility" x1="311" x2="311" y1="138" y2="63"/>
</g>
<g stroke-linecap="butt" font-size="9" fill="white" text-rendering="optimizeLegibility" font-family="'Arial'" stroke="white" stroke-width="1.1">
<polygon clip-path="url(#clipPath58)" points=" 311 63 319 73 303 73" stroke="none"/>
<polygon fill="none" clip-path="url(#clipPath58)" points=" 311 63 319 73 303 73" stroke="black"/>
<line clip-path="url(#clipPath35)" fill="none" x1="379" x2="379" y1="414" y2="509" stroke="black"/>
<polygon clip-path="url(#clipPath59)" points=" 379 509 371 499 387 499" stroke="none"/>
<polygon fill="none" clip-path="url(#clipPath59)" points=" 379 509 371 499 387 499" stroke="black"/>
<line clip-path="url(#clipPath35)" fill="none" x1="721" x2="721" y1="137" y2="100" stroke="black"/>
<line clip-path="url(#clipPath35)" fill="none" x1="721" x2="721" y1="100" y2="64" stroke="black"/>
<polygon clip-path="url(#clipPath60)" points=" 721 64 729 74 713 74" stroke="none"/>
<polygon fill="none" clip-path="url(#clipPath60)" points=" 721 64 729 74 713 74" stroke="black"/>
</g>
</g>
</svg>
