<?xml version="1.0" encoding="UTF-8"?><svg xmlns="http://www.w3.org/2000/svg" xmlns:xlink="http://www.w3.org/1999/xlink" stroke-dasharray="none" shape-rendering="auto" font-family="'Dialog'" width="862" text-rendering="auto" fill-opacity="1" contentScriptType="text/ecmascript" color-interpolation="auto" color-rendering="auto" preserveAspectRatio="xMidYMid meet" font-size="12" viewBox="0 0 862 480" fill="black" stroke="black" image-rendering="auto" stroke-miterlimit="10" zoomAndPan="magnify" version="1.0" stroke-linecap="square" stroke-linejoin="miter" contentStyleType="text/css" font-style="normal" height="480" stroke-width="1" stroke-dashoffset="0" font-weight="normal" stroke-opacity="1">
<!--Generated by the Batik Graphics2D SVG Generator-->
<defs id="genericDefs"/>
<g>
<defs id="defs1">
<clipPath clipPathUnits="userSpaceOnUse" id="clipPath1">
<path d="M9 114 L463 114 L463 366 L9 366 L9 114 Z"/>
</clipPath>
<clipPath clipPathUnits="userSpaceOnUse" id="clipPath2">
<path d="M202 117 L269 117 L269 130 L202 130 L202 117 Z"/>
</clipPath>
<clipPath clipPathUnits="userSpaceOnUse" id="clipPath3">
<path d="M14 131 L172 131 L172 144 L14 144 L14 131 Z"/>
</clipPath>
<clipPath clipPathUnits="userSpaceOnUse" id="clipPath4">
<path d="M14 142 L146 142 L146 155 L14 155 L14 142 Z"/>
</clipPath>
<clipPath clipPathUnits="userSpaceOnUse" id="clipPath5">
<path d="M9 129 L463 129 L463 165 L9 165 L9 129 Z"/>
</clipPath>
<clipPath clipPathUnits="userSpaceOnUse" id="clipPath6">
<path d="M14 166 L100 166 L100 179 L14 179 L14 166 Z"/>
</clipPath>
<clipPath clipPathUnits="userSpaceOnUse" id="clipPath7">
<path d="M14 177 L120 177 L120 190 L14 190 L14 177 Z"/>
</clipPath>
<clipPath clipPathUnits="userSpaceOnUse" id="clipPath8">
<path d="M14 188 L94 188 L94 201 L14 201 L14 188 Z"/>
</clipPath>
<clipPath clipPathUnits="userSpaceOnUse" id="clipPath9">
<path d="M14 199 L66 199 L66 212 L14 212 L14 199 Z"/>
</clipPath>
<clipPath clipPathUnits="userSpaceOnUse" id="clipPath10">
<path d="M14 210 L111 210 L111 223 L14 223 L14 210 Z"/>
</clipPath>
<clipPath clipPathUnits="userSpaceOnUse" id="clipPath11">
<path d="M14 221 L281 221 L281 234 L14 234 L14 221 Z"/>
</clipPath>
<clipPath clipPathUnits="userSpaceOnUse" id="clipPath12">
<path d="M14 232 L382 232 L382 245 L14 245 L14 232 Z"/>
</clipPath>
<clipPath clipPathUnits="userSpaceOnUse" id="clipPath13">
<path d="M14 243 L203 243 L203 256 L14 256 L14 243 Z"/>
</clipPath>
<clipPath clipPathUnits="userSpaceOnUse" id="clipPath14">
<path d="M14 254 L458 254 L458 267 L14 267 L14 254 Z"/>
</clipPath>
<clipPath clipPathUnits="userSpaceOnUse" id="clipPath15">
<path d="M14 265 L277 265 L277 278 L14 278 L14 265 Z"/>
</clipPath>
<clipPath clipPathUnits="userSpaceOnUse" id="clipPath16">
<path d="M14 276 L446 276 L446 289 L14 289 L14 276 Z"/>
</clipPath>
<clipPath clipPathUnits="userSpaceOnUse" id="clipPath17">
<path d="M14 287 L144 287 L144 300 L14 300 L14 287 Z"/>
</clipPath>
<clipPath clipPathUnits="userSpaceOnUse" id="clipPath18">
<path d="M14 298 L101 298 L101 311 L14 311 L14 298 Z"/>
</clipPath>
<clipPath clipPathUnits="userSpaceOnUse" id="clipPath19">
<path d="M14 309 L302 309 L302 322 L14 322 L14 309 Z"/>
</clipPath>
<clipPath clipPathUnits="userSpaceOnUse" id="clipPath20">
<path d="M14 320 L322 320 L322 333 L14 333 L14 320 Z"/>
</clipPath>
<clipPath clipPathUnits="userSpaceOnUse" id="clipPath21">
<path d="M14 331 L310 331 L310 344 L14 344 L14 331 Z"/>
</clipPath>
<clipPath clipPathUnits="userSpaceOnUse" id="clipPath22">
<path d="M14 342 L71 342 L71 355 L14 355 L14 342 Z"/>
</clipPath>
<clipPath clipPathUnits="userSpaceOnUse" id="clipPath23">
<path d="M9 164 L463 164 L463 365 L9 365 L9 164 Z"/>
</clipPath>
<clipPath clipPathUnits="userSpaceOnUse" id="clipPath24">
<path d="M185 9 L287 9 L287 61 L185 61 L185 9 Z"/>
</clipPath>
<clipPath clipPathUnits="userSpaceOnUse" id="clipPath25">
<path d="M199 28 L274 28 L274 41 L199 41 L199 28 Z"/>
</clipPath>
<clipPath clipPathUnits="userSpaceOnUse" id="clipPath26">
<path d="M64 415 L408 415 L408 471 L64 471 L64 415 Z"/>
</clipPath>
<clipPath clipPathUnits="userSpaceOnUse" id="clipPath27">
<path d="M192 418 L280 418 L280 431 L192 431 L192 418 Z"/>
</clipPath>
<clipPath clipPathUnits="userSpaceOnUse" id="clipPath28">
<path d="M64 430 L408 430 L408 450 L64 450 L64 430 Z"/>
</clipPath>
<clipPath clipPathUnits="userSpaceOnUse" id="clipPath29">
<path d="M69 451 L403 451 L403 464 L69 464 L69 451 Z"/>
</clipPath>
<clipPath clipPathUnits="userSpaceOnUse" id="clipPath30">
<path d="M64 449 L408 449 L408 470 L64 470 L64 449 Z"/>
</clipPath>
<clipPath clipPathUnits="userSpaceOnUse" id="clipPath31">
<path d="M678 246 L804 246 L804 299 L678 299 L678 246 Z"/>
</clipPath>
<clipPath clipPathUnits="userSpaceOnUse" id="clipPath32">
<path d="M705 266 L779 266 L779 279 L705 279 L705 266 Z"/>
</clipPath>
<clipPath clipPathUnits="userSpaceOnUse" id="clipPath33">
<path d="M678 315 L804 315 L804 366 L678 366 L678 315 Z"/>
</clipPath>
<clipPath clipPathUnits="userSpaceOnUse" id="clipPath34">
<path d="M684 334 L800 334 L800 347 L684 347 L684 334 Z"/>
</clipPath>
<clipPath clipPathUnits="userSpaceOnUse" id="clipPath35">
<path d="M678 114 L804 114 L804 162 L678 162 L678 114 Z"/>
</clipPath>
<clipPath clipPathUnits="userSpaceOnUse" id="clipPath36">
<path d="M679 117 L803 117 L803 130 L679 130 L679 117 Z"/>
</clipPath>
<clipPath clipPathUnits="userSpaceOnUse" id="clipPath37">
<path d="M678 129 L804 129 L804 146 L678 146 L678 129 Z"/>
</clipPath>
<clipPath clipPathUnits="userSpaceOnUse" id="clipPath38">
<path d="M678 145 L804 145 L804 162 L678 162 L678 145 Z"/>
</clipPath>
<clipPath clipPathUnits="userSpaceOnUse" id="clipPath39">
<path d="M627 9 L853 9 L853 61 L627 61 L627 9 Z"/>
</clipPath>
<clipPath clipPathUnits="userSpaceOnUse" id="clipPath40">
<path d="M628 23 L853 23 L853 36 L628 36 L628 23 Z"/>
</clipPath>
<clipPath clipPathUnits="userSpaceOnUse" id="clipPath41">
<path d="M703 35 L779 35 L779 48 L703 48 L703 35 Z"/>
</clipPath>
<clipPath clipPathUnits="userSpaceOnUse" id="clipPath42">
<path d="M678 177 L804 177 L804 230 L678 230 L678 177 Z"/>
</clipPath>
<clipPath clipPathUnits="userSpaceOnUse" id="clipPath43">
<path d="M689 197 L795 197 L795 210 L689 210 L689 197 Z"/>
</clipPath>
<clipPath clipPathUnits="userSpaceOnUse" id="clipPath44">
<path d="M-1 -1 L863 -1 L863 481 L-1 481 L-1 -1 Z"/>
</clipPath>
<clipPath clipPathUnits="userSpaceOnUse" id="clipPath45">
<path d="M227 59 L246 59 L246 72 L227 72 L227 59 Z"/>
</clipPath>
<clipPath clipPathUnits="userSpaceOnUse" id="clipPath46">
<path d="M224 364 L243 364 L243 377 L224 377 L224 364 Z"/>
</clipPath>
<clipPath clipPathUnits="userSpaceOnUse" id="clipPath47">
<path d="M479 276 L559 276 L559 289 L479 289 L479 276 Z"/>
</clipPath>
<clipPath clipPathUnits="userSpaceOnUse" id="clipPath48">
<path d="M569 261 L659 261 L659 274 L569 274 L569 261 Z"/>
</clipPath>
<clipPath clipPathUnits="userSpaceOnUse" id="clipPath49">
<path d="M479 260 L502 260 L502 273 L479 273 L479 260 Z"/>
</clipPath>
<clipPath clipPathUnits="userSpaceOnUse" id="clipPath50">
<path d="M648 277 L658 277 L658 290 L648 290 L648 277 Z"/>
</clipPath>
<clipPath clipPathUnits="userSpaceOnUse" id="clipPath51">
<path d="M461 270 L480 270 L480 281 L461 281 L461 270 Z"/>
</clipPath>
<clipPath clipPathUnits="userSpaceOnUse" id="clipPath52">
<path d="M660 268 L681 268 L681 283 L660 283 L660 268 Z"/>
</clipPath>
<clipPath clipPathUnits="userSpaceOnUse" id="clipPath53">
<path d="M482 340 L562 340 L562 353 L482 353 L482 340 Z"/>
</clipPath>
<clipPath clipPathUnits="userSpaceOnUse" id="clipPath54">
<path d="M526 327 L660 327 L660 340 L526 340 L526 327 Z"/>
</clipPath>
<clipPath clipPathUnits="userSpaceOnUse" id="clipPath55">
<path d="M480 324 L491 324 L491 337 L480 337 L480 324 Z"/>
</clipPath>
<clipPath clipPathUnits="userSpaceOnUse" id="clipPath56">
<path d="M649 342 L659 342 L659 355 L649 355 L649 342 Z"/>
</clipPath>
<clipPath clipPathUnits="userSpaceOnUse" id="clipPath57">
<path d="M461 336 L480 336 L480 347 L461 347 L461 336 Z"/>
</clipPath>
<clipPath clipPathUnits="userSpaceOnUse" id="clipPath58">
<path d="M660 334 L681 334 L681 349 L660 349 L660 334 Z"/>
</clipPath>
<clipPath clipPathUnits="userSpaceOnUse" id="clipPath59">
<path d="M486 141 L566 141 L566 154 L486 154 L486 141 Z"/>
</clipPath>
<clipPath clipPathUnits="userSpaceOnUse" id="clipPath60">
<path d="M584 127 L673 127 L673 140 L584 140 L584 127 Z"/>
</clipPath>
<clipPath clipPathUnits="userSpaceOnUse" id="clipPath61">
<path d="M484 126 L495 126 L495 139 L484 139 L484 126 Z"/>
</clipPath>
<clipPath clipPathUnits="userSpaceOnUse" id="clipPath62">
<path d="M651 141 L674 141 L674 154 L651 154 L651 141 Z"/>
</clipPath>
<clipPath clipPathUnits="userSpaceOnUse" id="clipPath63">
<path d="M461 133 L482 133 L482 148 L461 148 L461 133 Z"/>
</clipPath>
<clipPath clipPathUnits="userSpaceOnUse" id="clipPath64">
<path d="M730 59 L749 59 L749 72 L730 72 L730 59 Z"/>
</clipPath>
<clipPath clipPathUnits="userSpaceOnUse" id="clipPath65">
<path d="M482 203 L523 203 L523 216 L482 216 L482 203 Z"/>
</clipPath>
<clipPath clipPathUnits="userSpaceOnUse" id="clipPath66">
<path d="M533 190 L654 190 L654 203 L533 203 L533 190 Z"/>
</clipPath>
<clipPath clipPathUnits="userSpaceOnUse" id="clipPath67">
<path d="M484 190 L495 190 L495 203 L484 203 L484 190 Z"/>
</clipPath>
<clipPath clipPathUnits="userSpaceOnUse" id="clipPath68">
<path d="M631 204 L654 204 L654 217 L631 217 L631 204 Z"/>
</clipPath>
<clipPath clipPathUnits="userSpaceOnUse" id="clipPath69">
<path d="M461 196 L482 196 L482 211 L461 211 L461 196 Z"/>
</clipPath>
<clipPath clipPathUnits="userSpaceOnUse" id="clipPath70">
<path d="M660 196 L681 196 L681 211 L660 211 L660 196 Z"/>
</clipPath>
</defs>
<g font-size="11" fill="white" stroke-linejoin="round" stroke="white" stroke-width="0" stroke-miterlimit="0">
<rect x="10" y="115" clip-path="url(#clipPath1)" width="452" rx="0" ry="0" height="250" stroke="none"/>
</g>
<g font-size="9" font-family="'Helvetica'" stroke-linejoin="round" font-weight="bold" stroke-width="0" stroke-miterlimit="0">
<text xml:space="preserve" x="203" y="125" clip-path="url(#clipPath2)" stroke="none">StateActivation</text>
<text x="15" y="139" clip-path="url(#clipPath3)" stroke="none" font-weight="normal" xml:space="preserve"> + isDoActivityCompleted: Boolean [1]</text>
<text x="15" y="150" clip-path="url(#clipPath4)" stroke="none" font-weight="normal" xml:space="preserve"> + isExitCompleted: Boolean [1]</text>
</g>
<g font-size="11" stroke-width="1.1" stroke-linecap="butt">
<line clip-path="url(#clipPath5)" fill="none" x1="10" x2="462" y1="130" y2="130"/>
<text x="15" font-size="9" y="174" clip-path="url(#clipPath6)" font-family="'Helvetica'" stroke="none" xml:space="preserve"> # tryExecuteEntry()</text>
<text x="15" font-size="9" y="185" clip-path="url(#clipPath7)" font-family="'Helvetica'" stroke="none" xml:space="preserve"> # tryExecuteDoActivity()</text>
<text x="15" font-size="9" y="196" clip-path="url(#clipPath8)" font-family="'Helvetica'" stroke="none" xml:space="preserve"> # tryExecuteExit()</text>
<text x="15" font-size="9" y="207" clip-path="url(#clipPath9)" font-family="'Helvetica'" stroke="none" xml:space="preserve"> + activate()</text>
<text x="15" font-size="9" y="218" clip-path="url(#clipPath10)" font-family="'Helvetica'" stroke="none" xml:space="preserve"> + activateTransitions()</text>
<text x="15" font-size="9" y="229" clip-path="url(#clipPath11)" font-family="'Helvetica'" stroke="none" xml:space="preserve"> + getConnectionPointActivation(): ConnectionPointActivation [*]</text>
<text x="15" font-size="9" y="240" clip-path="url(#clipPath12)" font-family="'Helvetica'" stroke="none" xml:space="preserve"> + getConnectionPointActivation(  in vertex: Vertex [1]): ConnectionPointActivation [0..1]</text>
<text x="15" font-size="9" y="251" clip-path="url(#clipPath13)" font-family="'Helvetica'" stroke="none" xml:space="preserve"> + getRegionActivation(): RegionActivation [*]</text>
<text x="15" font-size="9" y="262" clip-path="url(#clipPath14)" font-family="'Helvetica'" stroke="none" xml:space="preserve"> + enter(  in enteringTransition: TransitionActivation [1],   in leastCommonAncestor: RegionActivation [0..1])</text>
<text x="15" font-size="9" y="273" clip-path="url(#clipPath15)" font-family="'Helvetica'" stroke="none" xml:space="preserve"> + enterRegions(  in enteringTransition: TransitionActivation [1])</text>
<text x="15" font-size="9" y="284" clip-path="url(#clipPath16)" font-family="'Helvetica'" stroke="none" xml:space="preserve"> + exit(  in exitingTransition: TransitionActivation [1],   in leastCommonAncestor: RegionActivation [0..1])</text>
<text x="15" font-size="9" y="295" clip-path="url(#clipPath17)" font-family="'Helvetica'" stroke="none" xml:space="preserve"> + hasCompleted(): Boolean [1]</text>
<text x="15" font-size="9" y="306" clip-path="url(#clipPath18)" font-family="'Helvetica'" stroke="none" xml:space="preserve"> + notifyCompletion()</text>
<text x="15" font-size="9" y="317" clip-path="url(#clipPath19)" font-family="'Helvetica'" stroke="none" xml:space="preserve"> # getVertexActivation(  in vertex: Vertex [1]): VertexActivation [0..1]</text>
<text x="15" font-size="9" y="328" clip-path="url(#clipPath20)" font-family="'Helvetica'" stroke="none" xml:space="preserve"> + isEnterable(  in enteringTransition: TransitionActivation [1]): Boolean [1]</text>
<text x="15" font-size="9" y="339" clip-path="url(#clipPath21)" font-family="'Helvetica'" stroke="none" xml:space="preserve"> + isExitable(  in exitingTransition: TransitionActivation [1]): Boolean [1]</text>
<text x="15" font-size="9" y="350" clip-path="url(#clipPath22)" font-family="'Helvetica'" stroke="none" xml:space="preserve"> + terminate()</text>
<line clip-path="url(#clipPath23)" fill="none" x1="10" x2="462" y1="165" y2="165"/>
<rect x="10" y="115" clip-path="url(#clipPath1)" fill="none" width="451" rx="0" ry="0" height="249"/>
<rect x="186" y="10" clip-path="url(#clipPath24)" fill="white" width="100" rx="0" ry="0" height="50" stroke="none"/>
</g>
<g stroke-linecap="butt" font-size="9" font-family="'Helvetica'" font-style="italic" font-weight="bold" stroke-width="1.1">
<text xml:space="preserve" x="200" y="36" clip-path="url(#clipPath25)" stroke="none">VertexActivation</text>
</g>
<g font-size="11" stroke-width="1.1" stroke-linecap="butt">
<rect x="186" y="10" clip-path="url(#clipPath24)" fill="none" width="99" rx="0" ry="0" height="49"/>
<rect x="65" y="416" clip-path="url(#clipPath26)" fill="white" width="342" rx="0" ry="0" height="54" stroke="none"/>
<text x="193" font-size="9" y="426" clip-path="url(#clipPath27)" font-family="'Helvetica'" stroke="none" font-weight="bold" xml:space="preserve">FinalStateActivation</text>
<line clip-path="url(#clipPath28)" fill="none" x1="65" x2="407" y1="431" y2="431"/>
<text x="70" font-size="9" y="459" clip-path="url(#clipPath29)" font-family="'Helvetica'" stroke="none" xml:space="preserve"> + enter(  in enteringTransition: TransitionActivation [1],   in explicit: Boolean [1])</text>
<line clip-path="url(#clipPath30)" fill="none" x1="65" x2="407" y1="450" y2="450"/>
<rect x="65" y="416" clip-path="url(#clipPath26)" fill="none" width="341" rx="0" ry="0" height="53"/>
<rect x="679" y="247" clip-path="url(#clipPath31)" fill="white" width="124" rx="0" ry="0" height="51" stroke="none"/>
<text x="706" font-size="9" y="274" clip-path="url(#clipPath32)" font-family="'Helvetica'" stroke="none" font-weight="bold" xml:space="preserve">RegionActivation</text>
<rect x="679" y="247" clip-path="url(#clipPath31)" fill="none" width="123" rx="0" ry="0" height="50"/>
<rect x="679" y="316" clip-path="url(#clipPath33)" fill="white" width="124" rx="0" ry="0" height="49" stroke="none"/>
</g>
<g stroke-linecap="butt" font-size="9" font-family="'Helvetica'" font-style="italic" font-weight="bold" stroke-width="1.1">
<text xml:space="preserve" x="685" y="342" clip-path="url(#clipPath34)" stroke="none">ConnectionPointActivation</text>
</g>
<g font-size="11" stroke-width="1.1" stroke-linecap="butt">
<rect x="679" y="316" clip-path="url(#clipPath33)" fill="none" width="123" rx="0" ry="0" height="48"/>
<rect x="679" y="115" clip-path="url(#clipPath35)" fill="white" width="124" rx="0" ry="0" height="46" stroke="none"/>
<text x="680" font-size="9" y="125" clip-path="url(#clipPath36)" font-family="'Helvetica'" stroke="none" font-weight="bold" xml:space="preserve">CompletionEventOccurrence</text>
<line clip-path="url(#clipPath37)" fill="none" x1="679" x2="803" y1="130" y2="130"/>
<line clip-path="url(#clipPath38)" fill="none" x1="679" x2="803" y1="146" y2="146"/>
<rect x="679" y="115" clip-path="url(#clipPath35)" fill="none" width="123" rx="0" ry="0" height="45"/>
<rect x="628" y="10" clip-path="url(#clipPath39)" fill="silver" width="224" rx="0" ry="0" height="50" stroke="none"/>
<text x="636" font-size="9" y="31" clip-path="url(#clipPath40)" font-family="'Helvetica'" stroke="none" font-weight="bold" xml:space="preserve">(fUML_Semantics::Semantics::CommonBehavior)</text>
<text x="704" font-size="9" y="43" clip-path="url(#clipPath41)" font-family="'Helvetica'" stroke="none" font-weight="bold" xml:space="preserve">EventOccurrence</text>
<rect x="628" y="10" clip-path="url(#clipPath39)" fill="none" width="223" rx="0" ry="0" height="49"/>
<rect x="679" y="178" clip-path="url(#clipPath42)" fill="white" width="124" rx="0" ry="0" height="51" stroke="none"/>
<text x="690" font-size="9" y="205" clip-path="url(#clipPath43)" font-family="'Helvetica'" stroke="none" font-weight="bold" xml:space="preserve">DoActivityContextObject</text>
<rect x="679" y="178" clip-path="url(#clipPath42)" fill="none" width="123" rx="0" ry="0" height="50"/>
<line clip-path="url(#clipPath44)" fill="none" text-rendering="optimizeLegibility" x1="236" x2="236" y1="115" y2="60"/>
</g>
<g stroke-linecap="butt" font-size="9" fill="white" text-rendering="optimizeLegibility" stroke="white" stroke-width="1.1">
<polygon clip-path="url(#clipPath45)" points=" 236 60 244 70 228 70" stroke="none"/>
<polygon fill="none" clip-path="url(#clipPath45)" points=" 236 60 244 70 228 70" stroke="black"/>
<line clip-path="url(#clipPath44)" fill="none" x1="233" x2="233" y1="416" y2="365" stroke="black"/>
<polygon clip-path="url(#clipPath46)" points=" 233 365 241 375 225 375" stroke="none"/>
<polygon fill="none" clip-path="url(#clipPath46)" points=" 233 365 241 375 225 375" stroke="black"/>
<line clip-path="url(#clipPath44)" fill="none" x1="462" x2="679" y1="275" y2="275" stroke="black"/>
<text x="480" y="286" clip-path="url(#clipPath47)" fill="black" stroke="none" xml:space="preserve"> + stateActivation</text>
<text x="570" y="271" clip-path="url(#clipPath48)" fill="black" stroke="none" xml:space="preserve"> + regionActivations</text>
<text x="480" y="270" clip-path="url(#clipPath49)" fill="black" stroke="none" xml:space="preserve"> 0..1</text>
<text x="649" y="287" clip-path="url(#clipPath50)" fill="black" stroke="none" xml:space="preserve"> *</text>
<polygon fill="black" clip-path="url(#clipPath51)" points=" 462 275 470 271 478 275 470 279" stroke="none"/>
<polygon fill="none" clip-path="url(#clipPath51)" points=" 462 275 470 271 478 275 470 279" stroke="black"/>
<polygon fill="black" clip-path="url(#clipPath52)" points=" 679 276 677 278 675 278 673 276 673 275 661 281 673 275 661 269 673 275 673 274 675 272 677 272 679 274" stroke="none"/>
<polygon fill="none" clip-path="url(#clipPath52)" points=" 679 276 677 278 675 278 673 276 673 275 661 281 673 275 661 269 673 275 673 274 675 272 677 272 679 274" stroke="black"/>
<line clip-path="url(#clipPath44)" fill="none" x1="462" x2="679" y1="341" y2="341" stroke="black"/>
<text x="483" y="350" clip-path="url(#clipPath53)" fill="black" stroke="none" xml:space="preserve"> + stateActivation</text>
<text x="527" y="337" clip-path="url(#clipPath54)" fill="black" stroke="none" xml:space="preserve"> + connectionPointActivations</text>
<text x="481" y="334" clip-path="url(#clipPath55)" fill="black" stroke="none" xml:space="preserve"> 1</text>
<text x="650" y="352" clip-path="url(#clipPath56)" fill="black" stroke="none" xml:space="preserve"> *</text>
<polygon fill="black" clip-path="url(#clipPath57)" points=" 462 341 470 337 478 341 470 345" stroke="none"/>
<polygon fill="none" clip-path="url(#clipPath57)" points=" 462 341 470 337 478 341 470 345" stroke="black"/>
<polygon fill="black" clip-path="url(#clipPath58)" points=" 679 342 677 344 675 344 673 342 673 341 661 347 673 341 661 335 673 341 673 340 675 338 677 338 679 340" stroke="none"/>
<polygon fill="none" clip-path="url(#clipPath58)" points=" 679 342 677 344 675 344 673 342 673 341 661 347 673 341 661 335 673 341 673 340 675 338 677 338 679 340" stroke="black"/>
<line clip-path="url(#clipPath44)" fill="none" x1="462" x2="679" y1="140" y2="140" stroke="black"/>
<text x="487" y="151" clip-path="url(#clipPath59)" fill="black" stroke="none" xml:space="preserve"> + stateActivation</text>
<text x="585" y="137" clip-path="url(#clipPath60)" fill="black" stroke="none" xml:space="preserve"> + eventOccurrence</text>
<text x="485" y="136" clip-path="url(#clipPath61)" fill="black" stroke="none" xml:space="preserve"> 1</text>
<text x="652" y="151" clip-path="url(#clipPath62)" fill="black" stroke="none" xml:space="preserve"> 0..1</text>
<polygon fill="black" clip-path="url(#clipPath63)" points=" 462 139 464 137 466 137 468 139 468 140 480 134 468 140 480 146 468 140 468 141 466 143 464 143 462 141" stroke="none"/>
<polygon fill="none" clip-path="url(#clipPath63)" points=" 462 139 464 137 466 137 468 139 468 140 480 134 468 140 480 146 468 140 468 141 466 143 464 143 462 141" stroke="black"/>
<line clip-path="url(#clipPath44)" fill="none" x1="739" x2="739" y1="115" y2="60" stroke="black"/>
<polygon clip-path="url(#clipPath64)" points=" 739 60 747 70 731 70" stroke="none"/>
<polygon fill="none" clip-path="url(#clipPath64)" points=" 739 60 747 70 731 70" stroke="black"/>
<line clip-path="url(#clipPath44)" fill="none" x1="462" x2="679" y1="203" y2="203" stroke="black"/>
<text x="483" y="213" clip-path="url(#clipPath65)" fill="black" stroke="none" xml:space="preserve"> + owner</text>
<text x="534" y="200" clip-path="url(#clipPath66)" fill="black" stroke="none" xml:space="preserve"> + doActivityContextObject</text>
<text x="485" y="200" clip-path="url(#clipPath67)" fill="black" stroke="none" xml:space="preserve"> 1</text>
<text x="632" y="214" clip-path="url(#clipPath68)" fill="black" stroke="none" xml:space="preserve"> 0..1</text>
<polygon fill="black" clip-path="url(#clipPath69)" points=" 462 202 464 200 466 200 468 202 468 203 480 197 468 203 480 209 468 203 468 204 466 206 464 206 462 204" stroke="none"/>
<polygon fill="none" clip-path="url(#clipPath69)" points=" 462 202 464 200 466 200 468 202 468 203 480 197 468 203 480 209 468 203 468 204 466 206 464 206 462 204" stroke="black"/>
<polygon fill="black" clip-path="url(#clipPath70)" points=" 679 204 677 206 675 206 673 204 673 203 661 209 673 203 661 197 673 203 673 202 675 200 677 200 679 202" stroke="none"/>
<polygon fill="none" clip-path="url(#clipPath70)" points=" 679 204 677 206 675 206 673 204 673 203 661 209 673 203 661 197 673 203 673 202 675 200 677 200 679 202" stroke="black"/>
</g>
</g>
</svg>
