<?xml version="1.0" encoding="UTF-8"?><svg xmlns="http://www.w3.org/2000/svg" xmlns:xlink="http://www.w3.org/1999/xlink" stroke-dasharray="none" shape-rendering="auto" font-family="'Dialog'" width="965" text-rendering="auto" fill-opacity="1" contentScriptType="text/ecmascript" color-interpolation="auto" color-rendering="auto" preserveAspectRatio="xMidYMid meet" font-size="12" viewBox="0 0 965 553" fill="black" stroke="black" image-rendering="auto" stroke-miterlimit="10" zoomAndPan="magnify" version="1.0" stroke-linecap="square" stroke-linejoin="miter" contentStyleType="text/css" font-style="normal" height="553" stroke-width="1" stroke-dashoffset="0" font-weight="normal" stroke-opacity="1">
<!--Generated by the Batik Graphics2D SVG Generator-->
<defs id="genericDefs"/>
<g>
<defs id="defs1">
<clipPath clipPathUnits="userSpaceOnUse" id="clipPath1">
<path d="M9 194 L111 194 L111 248 L9 248 L9 194 Z"/>
</clipPath>
<clipPath clipPathUnits="userSpaceOnUse" id="clipPath2">
<path d="M27 214 L94 214 L94 227 L27 227 L27 214 Z"/>
</clipPath>
<clipPath clipPathUnits="userSpaceOnUse" id="clipPath3">
<path d="M295 139 L732 139 L732 284 L295 284 L295 139 Z"/>
</clipPath>
<clipPath clipPathUnits="userSpaceOnUse" id="clipPath4">
<path d="M460 142 L566 142 L566 155 L460 155 L460 142 Z"/>
</clipPath>
<clipPath clipPathUnits="userSpaceOnUse" id="clipPath5">
<path d="M295 154 L732 154 L732 176 L295 176 L295 154 Z"/>
</clipPath>
<clipPath clipPathUnits="userSpaceOnUse" id="clipPath6">
<path d="M300 177 L596 177 L596 190 L300 190 L300 177 Z"/>
</clipPath>
<clipPath clipPathUnits="userSpaceOnUse" id="clipPath7">
<path d="M300 188 L727 188 L727 201 L300 201 L300 188 Z"/>
</clipPath>
<clipPath clipPathUnits="userSpaceOnUse" id="clipPath8">
<path d="M300 199 L529 199 L529 212 L300 212 L300 199 Z"/>
</clipPath>
<clipPath clipPathUnits="userSpaceOnUse" id="clipPath9">
<path d="M300 210 L496 210 L496 223 L300 223 L300 210 Z"/>
</clipPath>
<clipPath clipPathUnits="userSpaceOnUse" id="clipPath10">
<path d="M300 221 L493 221 L493 234 L300 234 L300 221 Z"/>
</clipPath>
<clipPath clipPathUnits="userSpaceOnUse" id="clipPath11">
<path d="M300 232 L483 232 L483 245 L300 245 L300 232 Z"/>
</clipPath>
<clipPath clipPathUnits="userSpaceOnUse" id="clipPath12">
<path d="M300 243 L350 243 L350 256 L300 256 L300 243 Z"/>
</clipPath>
<clipPath clipPathUnits="userSpaceOnUse" id="clipPath13">
<path d="M300 254 L601 254 L601 267 L300 267 L300 254 Z"/>
</clipPath>
<clipPath clipPathUnits="userSpaceOnUse" id="clipPath14">
<path d="M300 265 L446 265 L446 278 L300 278 L300 265 Z"/>
</clipPath>
<clipPath clipPathUnits="userSpaceOnUse" id="clipPath15">
<path d="M295 175 L732 175 L732 283 L295 283 L295 175 Z"/>
</clipPath>
<clipPath clipPathUnits="userSpaceOnUse" id="clipPath16">
<path d="M328 492 L547 492 L547 544 L328 544 L328 492 Z"/>
</clipPath>
<clipPath clipPathUnits="userSpaceOnUse" id="clipPath17">
<path d="M329 506 L547 506 L547 519 L329 519 L329 506 Z"/>
</clipPath>
<clipPath clipPathUnits="userSpaceOnUse" id="clipPath18">
<path d="M405 518 L471 518 L471 531 L405 531 L405 518 Z"/>
</clipPath>
<clipPath clipPathUnits="userSpaceOnUse" id="clipPath19">
<path d="M294 352 L580 352 L580 418 L294 418 L294 352 Z"/>
</clipPath>
<clipPath clipPathUnits="userSpaceOnUse" id="clipPath20">
<path d="M362 355 L512 355 L512 368 L362 368 L362 355 Z"/>
</clipPath>
<clipPath clipPathUnits="userSpaceOnUse" id="clipPath21">
<path d="M294 367 L580 367 L580 387 L294 387 L294 367 Z"/>
</clipPath>
<clipPath clipPathUnits="userSpaceOnUse" id="clipPath22">
<path d="M299 388 L575 388 L575 401 L299 401 L299 388 Z"/>
</clipPath>
<clipPath clipPathUnits="userSpaceOnUse" id="clipPath23">
<path d="M299 399 L525 399 L525 412 L299 412 L299 399 Z"/>
</clipPath>
<clipPath clipPathUnits="userSpaceOnUse" id="clipPath24">
<path d="M294 386 L580 386 L580 417 L294 417 L294 386 Z"/>
</clipPath>
<clipPath clipPathUnits="userSpaceOnUse" id="clipPath25">
<path d="M386 12 L641 12 L641 66 L386 66 L386 12 Z"/>
</clipPath>
<clipPath clipPathUnits="userSpaceOnUse" id="clipPath26">
<path d="M387 27 L641 27 L641 40 L387 40 L387 27 Z"/>
</clipPath>
<clipPath clipPathUnits="userSpaceOnUse" id="clipPath27">
<path d="M499 39 L529 39 L529 52 L499 52 L499 39 Z"/>
</clipPath>
<clipPath clipPathUnits="userSpaceOnUse" id="clipPath28">
<path d="M723 358 L956 358 L956 411 L723 411 L723 358 Z"/>
</clipPath>
<clipPath clipPathUnits="userSpaceOnUse" id="clipPath29">
<path d="M724 372 L956 372 L956 385 L724 385 L724 372 Z"/>
</clipPath>
<clipPath clipPathUnits="userSpaceOnUse" id="clipPath30">
<path d="M817 384 L863 384 L863 397 L817 397 L817 384 Z"/>
</clipPath>
<clipPath clipPathUnits="userSpaceOnUse" id="clipPath31">
<path d="M-1 -1 L966 -1 L966 554 L-1 554 L-1 -1 Z"/>
</clipPath>
<clipPath clipPathUnits="userSpaceOnUse" id="clipPath32">
<path d="M265 462 L377 462 L377 475 L265 475 L265 462 Z"/>
</clipPath>
<clipPath clipPathUnits="userSpaceOnUse" id="clipPath33">
<path d="M262 433 L377 433 L377 446 L262 446 L262 433 Z"/>
</clipPath>
<clipPath clipPathUnits="userSpaceOnUse" id="clipPath34">
<path d="M382 460 L393 460 L393 473 L382 473 L382 460 Z"/>
</clipPath>
<clipPath clipPathUnits="userSpaceOnUse" id="clipPath35">
<path d="M382 433 L405 433 L405 446 L382 446 L382 433 Z"/>
</clipPath>
<clipPath clipPathUnits="userSpaceOnUse" id="clipPath36">
<path d="M372 474 L387 474 L387 495 L372 495 L372 474 Z"/>
</clipPath>
<clipPath clipPathUnits="userSpaceOnUse" id="clipPath37">
<path d="M374 416 L385 416 L385 435 L374 435 L374 416 Z"/>
</clipPath>
<clipPath clipPathUnits="userSpaceOnUse" id="clipPath38">
<path d="M384 85 L431 85 L431 98 L384 98 L384 85 Z"/>
</clipPath>
<clipPath clipPathUnits="userSpaceOnUse" id="clipPath39">
<path d="M312 121 L433 121 L433 134 L312 134 L312 121 Z"/>
</clipPath>
<clipPath clipPathUnits="userSpaceOnUse" id="clipPath40">
<path d="M438 86 L449 86 L449 99 L438 99 L438 86 Z"/>
</clipPath>
<clipPath clipPathUnits="userSpaceOnUse" id="clipPath41">
<path d="M437 121 L447 121 L447 134 L437 134 L437 121 Z"/>
</clipPath>
<clipPath clipPathUnits="userSpaceOnUse" id="clipPath42">
<path d="M427 64 L442 64 L442 85 L427 85 L427 64 Z"/>
</clipPath>
<clipPath clipPathUnits="userSpaceOnUse" id="clipPath43">
<path d="M434 304 L481 304 L481 317 L434 317 L434 304 Z"/>
</clipPath>
<clipPath clipPathUnits="userSpaceOnUse" id="clipPath44">
<path d="M437 337 L559 337 L559 350 L437 350 L437 337 Z"/>
</clipPath>
<clipPath clipPathUnits="userSpaceOnUse" id="clipPath45">
<path d="M418 305 L429 305 L429 318 L418 318 L418 305 Z"/>
</clipPath>
<clipPath clipPathUnits="userSpaceOnUse" id="clipPath46">
<path d="M419 338 L430 338 L430 351 L419 351 L419 338 Z"/>
</clipPath>
<clipPath clipPathUnits="userSpaceOnUse" id="clipPath47">
<path d="M425 282 L440 282 L440 303 L425 303 L425 282 Z"/>
</clipPath>
<clipPath clipPathUnits="userSpaceOnUse" id="clipPath48">
<path d="M133 208 L174 208 L174 221 L133 221 L133 208 Z"/>
</clipPath>
<clipPath clipPathUnits="userSpaceOnUse" id="clipPath49">
<path d="M162 221 L283 221 L283 234 L162 234 L162 221 Z"/>
</clipPath>
<clipPath clipPathUnits="userSpaceOnUse" id="clipPath50">
<path d="M132 224 L143 224 L143 237 L132 237 L132 224 Z"/>
</clipPath>
<clipPath clipPathUnits="userSpaceOnUse" id="clipPath51">
<path d="M252 206 L275 206 L275 219 L252 219 L252 206 Z"/>
</clipPath>
<clipPath clipPathUnits="userSpaceOnUse" id="clipPath52">
<path d="M109 214 L130 214 L130 229 L109 229 L109 214 Z"/>
</clipPath>
<clipPath clipPathUnits="userSpaceOnUse" id="clipPath53">
<path d="M277 214 L298 214 L298 229 L277 229 L277 214 Z"/>
</clipPath>
<clipPath clipPathUnits="userSpaceOnUse" id="clipPath54">
<path d="M502 64 L521 64 L521 77 L502 77 L502 64 Z"/>
</clipPath>
<clipPath clipPathUnits="userSpaceOnUse" id="clipPath55">
<path d="M649 372 L705 372 L705 385 L649 385 L649 372 Z"/>
</clipPath>
<clipPath clipPathUnits="userSpaceOnUse" id="clipPath56">
<path d="M582 373 L635 373 L635 386 L582 386 L582 373 Z"/>
</clipPath>
<clipPath clipPathUnits="userSpaceOnUse" id="clipPath57">
<path d="M694 390 L705 390 L705 403 L694 403 L694 390 Z"/>
</clipPath>
<clipPath clipPathUnits="userSpaceOnUse" id="clipPath58">
<path d="M582 392 L605 392 L605 405 L582 405 L582 392 Z"/>
</clipPath>
<clipPath clipPathUnits="userSpaceOnUse" id="clipPath59">
<path d="M705 379 L726 379 L726 394 L705 394 L705 379 Z"/>
</clipPath>
<clipPath clipPathUnits="userSpaceOnUse" id="clipPath60">
<path d="M424 482 L443 482 L443 495 L424 495 L424 482 Z"/>
</clipPath>
<clipPath clipPathUnits="userSpaceOnUse" id="clipPath61">
<path d="M660 22 L707 22 L707 35 L660 35 L660 22 Z"/>
</clipPath>
<clipPath clipPathUnits="userSpaceOnUse" id="clipPath62">
<path d="M663 40 L674 40 L674 53 L663 53 L663 40 Z"/>
</clipPath>
<clipPath clipPathUnits="userSpaceOnUse" id="clipPath63">
<path d="M825 341 L835 341 L835 354 L825 354 L825 341 Z"/>
</clipPath>
<clipPath clipPathUnits="userSpaceOnUse" id="clipPath64">
<path d="M639 32 L660 32 L660 47 L639 47 L639 32 Z"/>
</clipPath>
</defs>
<g font-size="11" fill="white" stroke-linejoin="round" stroke="white" stroke-width="0" stroke-miterlimit="0">
<rect x="10" y="195" clip-path="url(#clipPath1)" width="100" rx="0" ry="0" height="52" stroke="none"/>
</g>
<g font-size="9" font-family="'Helvetica'" stroke-linejoin="round" font-weight="bold" stroke-width="0" stroke-miterlimit="0">
<text xml:space="preserve" x="28" y="222" clip-path="url(#clipPath2)" stroke="none">StateActivation</text>
</g>
<g font-size="11" stroke-width="1.1" stroke-linecap="butt">
<rect x="10" y="195" clip-path="url(#clipPath1)" fill="none" width="99" rx="0" ry="0" height="51"/>
<rect x="296" y="140" clip-path="url(#clipPath3)" fill="white" width="435" rx="0" ry="0" height="143" stroke="none"/>
<text x="461" font-size="9" y="150" clip-path="url(#clipPath4)" font-family="'Helvetica'" stroke="none" font-weight="bold" xml:space="preserve">DoActivityContextObject</text>
<line clip-path="url(#clipPath5)" fill="none" x1="296" x2="731" y1="155" y2="155"/>
<text x="301" font-size="9" y="185" clip-path="url(#clipPath6)" font-family="'Helvetica'" stroke="none" xml:space="preserve"> + getFeatureValue(  in feature: StructuralFeature [1]): FeatureValue [1]</text>
<text x="301" font-size="9" y="196" clip-path="url(#clipPath7)" font-family="'Helvetica'" stroke="none" xml:space="preserve"> + setFeatureValue(  in feature: StructuralFeature [1],   in values: Value [*],   in position: Integer [0..1])</text>
<text x="301" font-size="9" y="207" clip-path="url(#clipPath8)" font-family="'Helvetica'" stroke="none" xml:space="preserve"> + dispatch(  in operation: Operation [1]): Execution [1]</text>
<text x="301" font-size="9" y="218" clip-path="url(#clipPath9)" font-family="'Helvetica'" stroke="none" xml:space="preserve"> + send(  in signalInstance: SignalInstance [1])</text>
<text x="301" font-size="9" y="229" clip-path="url(#clipPath10)" font-family="'Helvetica'" stroke="none" xml:space="preserve"> + unregister(  in accepter: EventAccepter [1])</text>
<text x="301" font-size="9" y="240" clip-path="url(#clipPath11)" font-family="'Helvetica'" stroke="none" xml:space="preserve"> + register(  in accepter: EventAccepter [1])</text>
<text x="301" font-size="9" y="251" clip-path="url(#clipPath12)" font-family="'Helvetica'" stroke="none" xml:space="preserve"> + destroy()</text>
<text x="301" font-size="9" y="262" clip-path="url(#clipPath13)" font-family="'Helvetica'" stroke="none" xml:space="preserve"> # unregisterFromContext(  in encapsulatedAccepter: EventAccepter [1])</text>
<text x="301" font-size="9" y="273" clip-path="url(#clipPath14)" font-family="'Helvetica'" stroke="none" xml:space="preserve"> + initialize(  in context: Object [1])</text>
<line clip-path="url(#clipPath15)" fill="none" x1="296" x2="731" y1="176" y2="176"/>
<rect x="296" y="140" clip-path="url(#clipPath3)" fill="none" width="434" rx="0" ry="0" height="142"/>
<rect x="329" y="493" clip-path="url(#clipPath16)" fill="silver" width="217" rx="0" ry="0" height="50" stroke="none"/>
</g>
<g stroke-linecap="butt" font-size="9" font-family="'Helvetica'" font-style="italic" font-weight="bold" stroke-width="1.1">
<text xml:space="preserve" x="334" y="514" clip-path="url(#clipPath17)" stroke="none">(fUML_Semantics::Semantics::CommonBehavior)</text>
<text xml:space="preserve" x="406" y="526" clip-path="url(#clipPath18)" stroke="none">EventAccepter</text>
</g>
<g font-size="11" stroke-width="1.1" stroke-linecap="butt">
<rect x="329" y="493" clip-path="url(#clipPath16)" fill="none" width="216" rx="0" ry="0" height="49"/>
<rect x="295" y="353" clip-path="url(#clipPath19)" fill="white" width="284" rx="0" ry="0" height="64" stroke="none"/>
<text x="363" font-size="9" y="363" clip-path="url(#clipPath20)" font-family="'Helvetica'" stroke="none" font-weight="bold" xml:space="preserve">DoActivityExecutionEventAccepter</text>
<line clip-path="url(#clipPath21)" fill="none" x1="295" x2="579" y1="368" y2="368"/>
<text x="300" font-size="9" y="396" clip-path="url(#clipPath22)" font-family="'Helvetica'" stroke="none" xml:space="preserve"> + match(  in eventOccurrence: EventOccurrence [1]): Boolean [1]</text>
<text x="300" font-size="9" y="407" clip-path="url(#clipPath23)" font-family="'Helvetica'" stroke="none" xml:space="preserve"> + accept(  in eventOccurrence: EventOccurrence [1])</text>
<line clip-path="url(#clipPath24)" fill="none" x1="295" x2="579" y1="387" y2="387"/>
<rect x="295" y="353" clip-path="url(#clipPath19)" fill="none" width="283" rx="0" ry="0" height="63"/>
<rect x="387" y="13" clip-path="url(#clipPath25)" fill="silver" width="253" rx="0" ry="0" height="52" stroke="none"/>
<text x="402" font-size="9" y="35" clip-path="url(#clipPath26)" font-family="'Helvetica'" stroke="none" font-weight="bold" xml:space="preserve">(fUML_Semantics::Semantics::StructuredClassifiers)</text>
<text x="500" font-size="9" y="47" clip-path="url(#clipPath27)" font-family="'Helvetica'" stroke="none" font-weight="bold" xml:space="preserve">Object</text>
<rect x="387" y="13" clip-path="url(#clipPath25)" fill="none" width="252" rx="0" ry="0" height="51"/>
<rect x="724" y="359" clip-path="url(#clipPath28)" fill="silver" width="231" rx="0" ry="0" height="51" stroke="none"/>
</g>
<g stroke-linecap="butt" font-size="9" font-family="'Helvetica'" font-style="italic" font-weight="bold" stroke-width="1.1">
<text xml:space="preserve" x="736" y="380" clip-path="url(#clipPath29)" stroke="none">(fUML_Semantics::Semantics::CommonBehavior)</text>
<text xml:space="preserve" x="818" y="392" clip-path="url(#clipPath30)" stroke="none">Execution</text>
</g>
<g font-size="11" stroke-width="1.1" stroke-linecap="butt">
<rect x="724" y="359" clip-path="url(#clipPath28)" fill="none" width="230" rx="0" ry="0" height="50"/>
<line clip-path="url(#clipPath31)" fill="none" text-rendering="optimizeLegibility" x1="379" x2="379" y1="493" y2="417"/>
<text x="266" font-size="9" y="472" clip-path="url(#clipPath32)" text-rendering="optimizeLegibility" stroke="none" xml:space="preserve"> + encapsulatedAccepter</text>
<text x="263" font-size="9" y="443" clip-path="url(#clipPath33)" text-rendering="optimizeLegibility" stroke="none" xml:space="preserve"> + encapsulatingAccepter</text>
<text x="383" font-size="9" y="470" clip-path="url(#clipPath34)" text-rendering="optimizeLegibility" stroke="none" xml:space="preserve"> 1</text>
<text x="383" font-size="9" y="443" clip-path="url(#clipPath35)" text-rendering="optimizeLegibility" stroke="none" xml:space="preserve"> 0..1</text>
<polygon text-rendering="optimizeLegibility" clip-path="url(#clipPath36)" points=" 378 493 376 491 376 489 378 487 379 487 373 475 379 487 385 475 379 487 380 487 382 489 382 491 380 493" stroke="none"/>
<polygon fill="none" text-rendering="optimizeLegibility" clip-path="url(#clipPath36)" points=" 378 493 376 491 376 489 378 487 379 487 373 475 379 487 385 475 379 487 380 487 382 489 382 491 380 493"/>
<polygon text-rendering="optimizeLegibility" clip-path="url(#clipPath37)" points=" 379 417 383 425 379 433 375 425" stroke="none"/>
<polygon fill="none" text-rendering="optimizeLegibility" clip-path="url(#clipPath37)" points=" 379 417 383 425 379 433 375 425"/>
<line clip-path="url(#clipPath31)" fill="none" text-rendering="optimizeLegibility" x1="434" x2="434" y1="65" y2="140"/>
<text x="385" font-size="9" y="95" clip-path="url(#clipPath38)" text-rendering="optimizeLegibility" stroke="none" xml:space="preserve"> + context</text>
<text x="313" font-size="9" y="131" clip-path="url(#clipPath39)" text-rendering="optimizeLegibility" stroke="none" xml:space="preserve"> + doActivityContextObject</text>
<text x="439" font-size="9" y="96" clip-path="url(#clipPath40)" text-rendering="optimizeLegibility" stroke="none" xml:space="preserve"> 1</text>
<text x="438" font-size="9" y="131" clip-path="url(#clipPath41)" text-rendering="optimizeLegibility" stroke="none" xml:space="preserve"> *</text>
<polygon text-rendering="optimizeLegibility" clip-path="url(#clipPath42)" points=" 435 65 437 67 437 69 435 71 434 71 440 83 434 71 428 83 434 71 433 71 431 69 431 67 433 65" stroke="none"/>
<polygon fill="none" text-rendering="optimizeLegibility" clip-path="url(#clipPath42)" points=" 435 65 437 67 437 69 435 71 434 71 440 83 434 71 428 83 434 71 433 71 431 69 431 67 433 65"/>
<line clip-path="url(#clipPath31)" fill="none" text-rendering="optimizeLegibility" x1="432" x2="432" y1="283" y2="353"/>
<text x="435" font-size="9" y="314" clip-path="url(#clipPath43)" text-rendering="optimizeLegibility" stroke="none" xml:space="preserve"> + context</text>
<text x="438" font-size="9" y="347" clip-path="url(#clipPath44)" text-rendering="optimizeLegibility" stroke="none" xml:space="preserve"> + doActivityEventAccepter</text>
<text x="419" font-size="9" y="315" clip-path="url(#clipPath45)" text-rendering="optimizeLegibility" stroke="none" xml:space="preserve"> 1</text>
<text x="420" font-size="9" y="348" clip-path="url(#clipPath46)" text-rendering="optimizeLegibility" stroke="none" xml:space="preserve"> 1</text>
<polygon text-rendering="optimizeLegibility" clip-path="url(#clipPath47)" points=" 433 283 435 285 435 287 433 289 432 289 438 301 432 289 426 301 432 289 431 289 429 287 429 285 431 283" stroke="none"/>
<polygon fill="none" text-rendering="optimizeLegibility" clip-path="url(#clipPath47)" points=" 433 283 435 285 435 287 433 289 432 289 438 301 432 289 426 301 432 289 431 289 429 287 429 285 431 283"/>
<line clip-path="url(#clipPath31)" fill="none" text-rendering="optimizeLegibility" x1="110" x2="259" y1="221" y2="221"/>
<line clip-path="url(#clipPath31)" fill="none" text-rendering="optimizeLegibility" x1="259" x2="296" y1="221" y2="221"/>
<text x="134" font-size="9" y="218" clip-path="url(#clipPath48)" text-rendering="optimizeLegibility" stroke="none" xml:space="preserve"> + owner</text>
<text x="163" font-size="9" y="231" clip-path="url(#clipPath49)" text-rendering="optimizeLegibility" stroke="none" xml:space="preserve"> + doActivityContextObject</text>
<text x="133" font-size="9" y="234" clip-path="url(#clipPath50)" text-rendering="optimizeLegibility" stroke="none" xml:space="preserve"> 1</text>
<text x="253" font-size="9" y="216" clip-path="url(#clipPath51)" text-rendering="optimizeLegibility" stroke="none" xml:space="preserve"> 0..1</text>
<polygon text-rendering="optimizeLegibility" clip-path="url(#clipPath52)" points=" 110 220 112 218 114 218 116 220 116 221 128 215 116 221 128 227 116 221 116 222 114 224 112 224 110 222" stroke="none"/>
<polygon fill="none" text-rendering="optimizeLegibility" clip-path="url(#clipPath52)" points=" 110 220 112 218 114 218 116 220 116 221 128 215 116 221 128 227 116 221 116 222 114 224 112 224 110 222"/>
<polygon text-rendering="optimizeLegibility" clip-path="url(#clipPath53)" points=" 296 222 294 224 292 224 290 222 290 221 278 227 290 221 278 215 290 221 290 220 292 218 294 218 296 220" stroke="none"/>
<polygon fill="none" text-rendering="optimizeLegibility" clip-path="url(#clipPath53)" points=" 296 222 294 224 292 224 290 222 290 221 278 227 290 221 278 215 290 221 290 220 292 218 294 218 296 220"/>
<line clip-path="url(#clipPath31)" fill="none" text-rendering="optimizeLegibility" x1="511" x2="511" y1="140" y2="65"/>
</g>
<g stroke-linecap="butt" font-size="9" fill="white" text-rendering="optimizeLegibility" stroke="white" stroke-width="1.1">
<polygon clip-path="url(#clipPath54)" points=" 511 65 519 75 503 75" stroke="none"/>
<polygon fill="none" clip-path="url(#clipPath54)" points=" 511 65 519 75 503 75" stroke="black"/>
<line clip-path="url(#clipPath31)" fill="none" x1="724" x2="579" y1="386" y2="386" stroke="black"/>
<text x="650" y="382" clip-path="url(#clipPath55)" fill="black" stroke="none" xml:space="preserve"> + execution</text>
<text x="583" y="383" clip-path="url(#clipPath56)" fill="black" stroke="none" xml:space="preserve"> + accepter</text>
<text x="695" y="400" clip-path="url(#clipPath57)" fill="black" stroke="none" xml:space="preserve"> 1</text>
<text x="583" y="402" clip-path="url(#clipPath58)" fill="black" stroke="none" xml:space="preserve"> 0..1</text>
<polygon fill="black" clip-path="url(#clipPath59)" points=" 724 387 722 389 720 389 718 387 718 386 706 392 718 386 706 380 718 386 718 385 720 383 722 383 724 385" stroke="none"/>
<polygon fill="none" clip-path="url(#clipPath59)" points=" 724 387 722 389 720 389 718 387 718 386 706 392 718 386 706 380 718 386 718 385 720 383 722 383 724 385" stroke="black"/>
<line clip-path="url(#clipPath31)" fill="none" x1="433" x2="433" y1="417" y2="493" stroke="black"/>
<polygon clip-path="url(#clipPath60)" points=" 433 493 425 483 441 483" stroke="none"/>
<polygon fill="none" clip-path="url(#clipPath60)" points=" 433 493 425 483 441 483" stroke="black"/>
<line clip-path="url(#clipPath31)" fill="none" x1="640" x2="837" y1="39" y2="39" stroke="black"/>
<line clip-path="url(#clipPath31)" fill="none" x1="837" x2="837" y1="39" y2="359" stroke="black"/>
<text x="661" y="32" clip-path="url(#clipPath61)" fill="black" stroke="none" xml:space="preserve"> + context</text>
<text x="664" y="50" clip-path="url(#clipPath62)" fill="black" stroke="none" xml:space="preserve"> 1</text>
<text x="826" y="351" clip-path="url(#clipPath63)" fill="black" stroke="none" xml:space="preserve"> *</text>
<polygon fill="black" clip-path="url(#clipPath64)" points=" 640 38 642 36 644 36 646 38 646 39 658 33 646 39 658 45 646 39 646 40 644 42 642 42 640 40" stroke="none"/>
<polygon fill="none" clip-path="url(#clipPath64)" points=" 640 38 642 36 644 36 646 38 646 39 658 33 646 39 658 45 646 39 646 40 644 42 642 42 640 40" stroke="black"/>
</g>
</g>
</svg>
