<?xml version="1.0" encoding="UTF-8"?><svg xmlns="http://www.w3.org/2000/svg" xmlns:xlink="http://www.w3.org/1999/xlink" stroke-dasharray="none" shape-rendering="auto" font-family="'Dialog'" width="865" text-rendering="auto" fill-opacity="1" contentScriptType="text/ecmascript" color-interpolation="auto" color-rendering="auto" preserveAspectRatio="xMidYMid meet" font-size="12" viewBox="0 0 865 527" fill="black" stroke="black" image-rendering="auto" stroke-miterlimit="10" zoomAndPan="magnify" version="1.0" stroke-linecap="square" stroke-linejoin="miter" contentStyleType="text/css" font-style="normal" height="527" stroke-width="1" stroke-dashoffset="0" font-weight="normal" stroke-opacity="1">
<!--Generated by the Batik Graphics2D SVG Generator-->
<defs id="genericDefs"/>
<g>
<defs id="defs1">
<clipPath clipPathUnits="userSpaceOnUse" id="clipPath1">
<path d="M9 118 L466 118 L466 416 L9 416 L9 118 Z"/>
</clipPath>
<clipPath clipPathUnits="userSpaceOnUse" id="clipPath2">
<path d="M204 121 L271 121 L271 134 L204 134 L204 121 Z"/>
</clipPath>
<clipPath clipPathUnits="userSpaceOnUse" id="clipPath3">
<path d="M14 135 L172 135 L172 148 L14 148 L14 135 Z"/>
</clipPath>
<clipPath clipPathUnits="userSpaceOnUse" id="clipPath4">
<path d="M14 146 L152 146 L152 159 L14 159 L14 146 Z"/>
</clipPath>
<clipPath clipPathUnits="userSpaceOnUse" id="clipPath5">
<path d="M14 157 L146 157 L146 170 L14 170 L14 157 Z"/>
</clipPath>
<clipPath clipPathUnits="userSpaceOnUse" id="clipPath6">
<path d="M9 133 L466 133 L466 179 L9 179 L9 133 Z"/>
</clipPath>
<clipPath clipPathUnits="userSpaceOnUse" id="clipPath7">
<path d="M14 180 L100 180 L100 193 L14 193 L14 180 Z"/>
</clipPath>
<clipPath clipPathUnits="userSpaceOnUse" id="clipPath8">
<path d="M14 191 L120 191 L120 204 L14 204 L14 191 Z"/>
</clipPath>
<clipPath clipPathUnits="userSpaceOnUse" id="clipPath9">
<path d="M14 202 L94 202 L94 215 L14 215 L14 202 Z"/>
</clipPath>
<clipPath clipPathUnits="userSpaceOnUse" id="clipPath10">
<path d="M14 213 L66 213 L66 226 L14 226 L14 213 Z"/>
</clipPath>
<clipPath clipPathUnits="userSpaceOnUse" id="clipPath11">
<path d="M14 224 L111 224 L111 237 L14 237 L14 224 Z"/>
</clipPath>
<clipPath clipPathUnits="userSpaceOnUse" id="clipPath12">
<path d="M14 235 L281 235 L281 248 L14 248 L14 235 Z"/>
</clipPath>
<clipPath clipPathUnits="userSpaceOnUse" id="clipPath13">
<path d="M14 246 L382 246 L382 259 L14 259 L14 246 Z"/>
</clipPath>
<clipPath clipPathUnits="userSpaceOnUse" id="clipPath14">
<path d="M14 257 L203 257 L203 270 L14 270 L14 257 Z"/>
</clipPath>
<clipPath clipPathUnits="userSpaceOnUse" id="clipPath15">
<path d="M14 268 L402 268 L402 281 L14 281 L14 268 Z"/>
</clipPath>
<clipPath clipPathUnits="userSpaceOnUse" id="clipPath16">
<path d="M14 279 L458 279 L458 292 L14 292 L14 279 Z"/>
</clipPath>
<clipPath clipPathUnits="userSpaceOnUse" id="clipPath17">
<path d="M14 290 L277 290 L277 303 L14 303 L14 290 Z"/>
</clipPath>
<clipPath clipPathUnits="userSpaceOnUse" id="clipPath18">
<path d="M14 301 L446 301 L446 314 L14 314 L14 301 Z"/>
</clipPath>
<clipPath clipPathUnits="userSpaceOnUse" id="clipPath19">
<path d="M14 312 L144 312 L144 325 L14 325 L14 312 Z"/>
</clipPath>
<clipPath clipPathUnits="userSpaceOnUse" id="clipPath20">
<path d="M14 323 L101 323 L101 336 L14 336 L14 323 Z"/>
</clipPath>
<clipPath clipPathUnits="userSpaceOnUse" id="clipPath21">
<path d="M14 334 L302 334 L302 347 L14 347 L14 334 Z"/>
</clipPath>
<clipPath clipPathUnits="userSpaceOnUse" id="clipPath22">
<path d="M14 345 L322 345 L322 358 L14 358 L14 345 Z"/>
</clipPath>
<clipPath clipPathUnits="userSpaceOnUse" id="clipPath23">
<path d="M14 356 L310 356 L310 369 L14 369 L14 356 Z"/>
</clipPath>
<clipPath clipPathUnits="userSpaceOnUse" id="clipPath24">
<path d="M14 367 L302 367 L302 380 L14 380 L14 367 Z"/>
</clipPath>
<clipPath clipPathUnits="userSpaceOnUse" id="clipPath25">
<path d="M14 378 L233 378 L233 391 L14 391 L14 378 Z"/>
</clipPath>
<clipPath clipPathUnits="userSpaceOnUse" id="clipPath26">
<path d="M14 389 L127 389 L127 402 L14 402 L14 389 Z"/>
</clipPath>
<clipPath clipPathUnits="userSpaceOnUse" id="clipPath27">
<path d="M14 400 L71 400 L71 413 L14 413 L14 400 Z"/>
</clipPath>
<clipPath clipPathUnits="userSpaceOnUse" id="clipPath28">
<path d="M9 178 L466 178 L466 415 L9 415 L9 178 Z"/>
</clipPath>
<clipPath clipPathUnits="userSpaceOnUse" id="clipPath29">
<path d="M187 9 L289 9 L289 61 L187 61 L187 9 Z"/>
</clipPath>
<clipPath clipPathUnits="userSpaceOnUse" id="clipPath30">
<path d="M201 28 L276 28 L276 41 L201 41 L201 28 Z"/>
</clipPath>
<clipPath clipPathUnits="userSpaceOnUse" id="clipPath31">
<path d="M66 462 L410 462 L410 518 L66 518 L66 462 Z"/>
</clipPath>
<clipPath clipPathUnits="userSpaceOnUse" id="clipPath32">
<path d="M194 465 L282 465 L282 478 L194 478 L194 465 Z"/>
</clipPath>
<clipPath clipPathUnits="userSpaceOnUse" id="clipPath33">
<path d="M66 477 L410 477 L410 497 L66 497 L66 477 Z"/>
</clipPath>
<clipPath clipPathUnits="userSpaceOnUse" id="clipPath34">
<path d="M71 498 L405 498 L405 511 L71 511 L71 498 Z"/>
</clipPath>
<clipPath clipPathUnits="userSpaceOnUse" id="clipPath35">
<path d="M66 496 L410 496 L410 517 L66 517 L66 496 Z"/>
</clipPath>
<clipPath clipPathUnits="userSpaceOnUse" id="clipPath36">
<path d="M679 300 L805 300 L805 353 L679 353 L679 300 Z"/>
</clipPath>
<clipPath clipPathUnits="userSpaceOnUse" id="clipPath37">
<path d="M706 320 L780 320 L780 333 L706 333 L706 320 Z"/>
</clipPath>
<clipPath clipPathUnits="userSpaceOnUse" id="clipPath38">
<path d="M679 365 L805 365 L805 416 L679 416 L679 365 Z"/>
</clipPath>
<clipPath clipPathUnits="userSpaceOnUse" id="clipPath39">
<path d="M685 384 L801 384 L801 397 L685 397 L685 384 Z"/>
</clipPath>
<clipPath clipPathUnits="userSpaceOnUse" id="clipPath40">
<path d="M729 177 L855 177 L855 225 L729 225 L729 177 Z"/>
</clipPath>
<clipPath clipPathUnits="userSpaceOnUse" id="clipPath41">
<path d="M730 180 L854 180 L854 193 L730 193 L730 180 Z"/>
</clipPath>
<clipPath clipPathUnits="userSpaceOnUse" id="clipPath42">
<path d="M729 192 L855 192 L855 209 L729 209 L729 192 Z"/>
</clipPath>
<clipPath clipPathUnits="userSpaceOnUse" id="clipPath43">
<path d="M729 208 L855 208 L855 225 L729 225 L729 208 Z"/>
</clipPath>
<clipPath clipPathUnits="userSpaceOnUse" id="clipPath44">
<path d="M629 9 L855 9 L855 61 L629 61 L629 9 Z"/>
</clipPath>
<clipPath clipPathUnits="userSpaceOnUse" id="clipPath45">
<path d="M630 23 L855 23 L855 36 L630 36 L630 23 Z"/>
</clipPath>
<clipPath clipPathUnits="userSpaceOnUse" id="clipPath46">
<path d="M705 35 L781 35 L781 48 L705 48 L705 35 Z"/>
</clipPath>
<clipPath clipPathUnits="userSpaceOnUse" id="clipPath47">
<path d="M679 236 L805 236 L805 289 L679 289 L679 236 Z"/>
</clipPath>
<clipPath clipPathUnits="userSpaceOnUse" id="clipPath48">
<path d="M690 256 L796 256 L796 269 L690 269 L690 256 Z"/>
</clipPath>
<clipPath clipPathUnits="userSpaceOnUse" id="clipPath49">
<path d="M629 118 L755 118 L755 166 L629 166 L629 118 Z"/>
</clipPath>
<clipPath clipPathUnits="userSpaceOnUse" id="clipPath50">
<path d="M635 121 L748 121 L748 134 L635 134 L635 121 Z"/>
</clipPath>
<clipPath clipPathUnits="userSpaceOnUse" id="clipPath51">
<path d="M629 133 L755 133 L755 150 L629 150 L629 133 Z"/>
</clipPath>
<clipPath clipPathUnits="userSpaceOnUse" id="clipPath52">
<path d="M629 149 L755 149 L755 166 L629 166 L629 149 Z"/>
</clipPath>
<clipPath clipPathUnits="userSpaceOnUse" id="clipPath53">
<path d="M-1 -1 L866 -1 L866 528 L-1 528 L-1 -1 Z"/>
</clipPath>
<clipPath clipPathUnits="userSpaceOnUse" id="clipPath54">
<path d="M231 59 L250 59 L250 72 L231 72 L231 59 Z"/>
</clipPath>
<clipPath clipPathUnits="userSpaceOnUse" id="clipPath55">
<path d="M225 414 L244 414 L244 427 L225 427 L225 414 Z"/>
</clipPath>
<clipPath clipPathUnits="userSpaceOnUse" id="clipPath56">
<path d="M484 329 L559 329 L559 342 L484 342 L484 329 Z"/>
</clipPath>
<clipPath clipPathUnits="userSpaceOnUse" id="clipPath57">
<path d="M574 314 L658 314 L658 327 L574 327 L574 314 Z"/>
</clipPath>
<clipPath clipPathUnits="userSpaceOnUse" id="clipPath58">
<path d="M482 313 L503 313 L503 326 L482 326 L482 313 Z"/>
</clipPath>
<clipPath clipPathUnits="userSpaceOnUse" id="clipPath59">
<path d="M651 330 L660 330 L660 343 L651 343 L651 330 Z"/>
</clipPath>
<clipPath clipPathUnits="userSpaceOnUse" id="clipPath60">
<path d="M464 323 L483 323 L483 334 L464 334 L464 323 Z"/>
</clipPath>
<clipPath clipPathUnits="userSpaceOnUse" id="clipPath61">
<path d="M661 321 L682 321 L682 336 L661 336 L661 321 Z"/>
</clipPath>
<clipPath clipPathUnits="userSpaceOnUse" id="clipPath62">
<path d="M484 389 L559 389 L559 402 L484 402 L484 389 Z"/>
</clipPath>
<clipPath clipPathUnits="userSpaceOnUse" id="clipPath63">
<path d="M533 375 L658 375 L658 388 L533 388 L533 375 Z"/>
</clipPath>
<clipPath clipPathUnits="userSpaceOnUse" id="clipPath64">
<path d="M482 372 L492 372 L492 385 L482 385 L482 372 Z"/>
</clipPath>
<clipPath clipPathUnits="userSpaceOnUse" id="clipPath65">
<path d="M652 390 L661 390 L661 403 L652 403 L652 390 Z"/>
</clipPath>
<clipPath clipPathUnits="userSpaceOnUse" id="clipPath66">
<path d="M464 384 L483 384 L483 395 L464 395 L464 384 Z"/>
</clipPath>
<clipPath clipPathUnits="userSpaceOnUse" id="clipPath67">
<path d="M661 382 L682 382 L682 397 L661 397 L661 382 Z"/>
</clipPath>
<clipPath clipPathUnits="userSpaceOnUse" id="clipPath68">
<path d="M488 202 L563 202 L563 215 L488 215 L488 202 Z"/>
</clipPath>
<clipPath clipPathUnits="userSpaceOnUse" id="clipPath69">
<path d="M642 189 L726 189 L726 202 L642 202 L642 189 Z"/>
</clipPath>
<clipPath clipPathUnits="userSpaceOnUse" id="clipPath70">
<path d="M486 187 L496 187 L496 200 L486 200 L486 187 Z"/>
</clipPath>
<clipPath clipPathUnits="userSpaceOnUse" id="clipPath71">
<path d="M705 204 L726 204 L726 217 L705 217 L705 204 Z"/>
</clipPath>
<clipPath clipPathUnits="userSpaceOnUse" id="clipPath72">
<path d="M464 196 L485 196 L485 211 L464 211 L464 196 Z"/>
</clipPath>
<clipPath clipPathUnits="userSpaceOnUse" id="clipPath73">
<path d="M733 59 L752 59 L752 72 L733 72 L733 59 Z"/>
</clipPath>
<clipPath clipPathUnits="userSpaceOnUse" id="clipPath74">
<path d="M486 260 L523 260 L523 273 L486 273 L486 260 Z"/>
</clipPath>
<clipPath clipPathUnits="userSpaceOnUse" id="clipPath75">
<path d="M545 247 L658 247 L658 260 L545 260 L545 247 Z"/>
</clipPath>
<clipPath clipPathUnits="userSpaceOnUse" id="clipPath76">
<path d="M486 247 L496 247 L496 260 L486 260 L486 247 Z"/>
</clipPath>
<clipPath clipPathUnits="userSpaceOnUse" id="clipPath77">
<path d="M638 261 L659 261 L659 274 L638 274 L638 261 Z"/>
</clipPath>
<clipPath clipPathUnits="userSpaceOnUse" id="clipPath78">
<path d="M464 253 L485 253 L485 268 L464 268 L464 253 Z"/>
</clipPath>
<clipPath clipPathUnits="userSpaceOnUse" id="clipPath79">
<path d="M661 253 L682 253 L682 268 L661 268 L661 253 Z"/>
</clipPath>
<clipPath clipPathUnits="userSpaceOnUse" id="clipPath80">
<path d="M512 130 L631 130 L631 143 L512 143 L512 130 Z"/>
</clipPath>
<clipPath clipPathUnits="userSpaceOnUse" id="clipPath81">
<path d="M486 144 L612 144 L612 157 L486 157 L486 144 Z"/>
</clipPath>
<clipPath clipPathUnits="userSpaceOnUse" id="clipPath82">
<path d="M619 145 L628 145 L628 158 L619 158 L619 145 Z"/>
</clipPath>
<clipPath clipPathUnits="userSpaceOnUse" id="clipPath83">
<path d="M486 128 L496 128 L496 141 L486 141 L486 128 Z"/>
</clipPath>
<clipPath clipPathUnits="userSpaceOnUse" id="clipPath84">
<path d="M464 136 L485 136 L485 151 L464 151 L464 136 Z"/>
</clipPath>
<clipPath clipPathUnits="userSpaceOnUse" id="clipPath85">
<path d="M593 104 L637 104 L637 117 L593 117 L593 104 Z"/>
</clipPath>
<clipPath clipPathUnits="userSpaceOnUse" id="clipPath86">
<path d="M519 77 L638 77 L638 90 L519 90 L519 77 Z"/>
</clipPath>
<clipPath clipPathUnits="userSpaceOnUse" id="clipPath87">
<path d="M646 104 L655 104 L655 117 L646 117 L646 104 Z"/>
</clipPath>
<clipPath clipPathUnits="userSpaceOnUse" id="clipPath88">
<path d="M643 78 L653 78 L653 91 L643 91 L643 78 Z"/>
</clipPath>
<clipPath clipPathUnits="userSpaceOnUse" id="clipPath89">
<path d="M634 59 L649 59 L649 80 L634 80 L634 59 Z"/>
</clipPath>
</defs>
<g font-size="11" fill="white" stroke-linejoin="round" stroke="white" stroke-width="0" stroke-miterlimit="0">
<rect x="10" y="119" clip-path="url(#clipPath1)" width="455" rx="0" ry="0" height="296" stroke="none"/>
</g>
<g font-size="9" font-family="'Helvetica'" stroke-linejoin="round" font-weight="bold" stroke-width="0" stroke-miterlimit="0">
<text xml:space="preserve" x="205" y="129" clip-path="url(#clipPath2)" stroke="none">StateActivation</text>
<text x="15" y="143" clip-path="url(#clipPath3)" stroke="none" font-weight="normal" xml:space="preserve"> + isDoActivityCompleted: Boolean [1]</text>
<text x="15" y="154" clip-path="url(#clipPath4)" stroke="none" font-weight="normal" xml:space="preserve"> + isEntryCompleted: Boolean [1]</text>
<text x="15" y="165" clip-path="url(#clipPath5)" stroke="none" font-weight="normal" xml:space="preserve"> + isExitCompleted: Boolean [1]</text>
</g>
<g font-size="11" stroke-width="1.1" stroke-linecap="butt">
<line clip-path="url(#clipPath6)" fill="none" x1="10" x2="465" y1="134" y2="134"/>
<text x="15" font-size="9" y="188" clip-path="url(#clipPath7)" font-family="'Helvetica'" stroke="none" xml:space="preserve"> # tryExecuteEntry()</text>
<text x="15" font-size="9" y="199" clip-path="url(#clipPath8)" font-family="'Helvetica'" stroke="none" xml:space="preserve"> # tryExecuteDoActivity()</text>
<text x="15" font-size="9" y="210" clip-path="url(#clipPath9)" font-family="'Helvetica'" stroke="none" xml:space="preserve"> # tryExecuteExit()</text>
<text x="15" font-size="9" y="221" clip-path="url(#clipPath10)" font-family="'Helvetica'" stroke="none" xml:space="preserve"> + activate()</text>
<text x="15" font-size="9" y="232" clip-path="url(#clipPath11)" font-family="'Helvetica'" stroke="none" xml:space="preserve"> + activateTransitions()</text>
<text x="15" font-size="9" y="243" clip-path="url(#clipPath12)" font-family="'Helvetica'" stroke="none" xml:space="preserve"> + getConnectionPointActivation(): ConnectionPointActivation [*]</text>
<text x="15" font-size="9" y="254" clip-path="url(#clipPath13)" font-family="'Helvetica'" stroke="none" xml:space="preserve"> + getConnectionPointActivation(  in vertex: Vertex [1]): ConnectionPointActivation [0..1]</text>
<text x="15" font-size="9" y="265" clip-path="url(#clipPath14)" font-family="'Helvetica'" stroke="none" xml:space="preserve"> + getRegionActivation(): RegionActivation [*]</text>
<text x="15" font-size="9" y="276" clip-path="url(#clipPath15)" font-family="'Helvetica'" stroke="none" xml:space="preserve"> + getFireableTransitions(  in eventOccurrence: EventOccurrence [1]): TransitionActivation [*]</text>
<text x="15" font-size="9" y="287" clip-path="url(#clipPath16)" font-family="'Helvetica'" stroke="none" xml:space="preserve"> + enter(  in enteringTransition: TransitionActivation [1],   in leastCommonAncestor: RegionActivation [0..1])</text>
<text x="15" font-size="9" y="298" clip-path="url(#clipPath17)" font-family="'Helvetica'" stroke="none" xml:space="preserve"> + enterRegions(  in enteringTransition: TransitionActivation [1])</text>
<text x="15" font-size="9" y="309" clip-path="url(#clipPath18)" font-family="'Helvetica'" stroke="none" xml:space="preserve"> + exit(  in exitingTransition: TransitionActivation [1],   in leastCommonAncestor: RegionActivation [0..1])</text>
<text x="15" font-size="9" y="320" clip-path="url(#clipPath19)" font-family="'Helvetica'" stroke="none" xml:space="preserve"> + hasCompleted(): Boolean [1]</text>
<text x="15" font-size="9" y="331" clip-path="url(#clipPath20)" font-family="'Helvetica'" stroke="none" xml:space="preserve"> + notifyCompletion()</text>
<text x="15" font-size="9" y="342" clip-path="url(#clipPath21)" font-family="'Helvetica'" stroke="none" xml:space="preserve"> # getVertexActivation(  in vertex: Vertex [1]): VertexActivation [0..1]</text>
<text x="15" font-size="9" y="353" clip-path="url(#clipPath22)" font-family="'Helvetica'" stroke="none" xml:space="preserve"> + isEnterable(  in enteringTransition: TransitionActivation [1]): Boolean [1]</text>
<text x="15" font-size="9" y="364" clip-path="url(#clipPath23)" font-family="'Helvetica'" stroke="none" xml:space="preserve"> + isExitable(  in exitingTransition: TransitionActivation [1]): Boolean [1]</text>
<text x="15" font-size="9" y="375" clip-path="url(#clipPath24)" font-family="'Helvetica'" stroke="none" xml:space="preserve"> + canDefer(  in eventOccurrence: EventOccurrence [1]): Boolean [1]</text>
<text x="15" font-size="9" y="386" clip-path="url(#clipPath25)" font-family="'Helvetica'" stroke="none" xml:space="preserve"> + defer(  in eventOccurrence: EventOccurrence [1])</text>
<text x="15" font-size="9" y="397" clip-path="url(#clipPath26)" font-family="'Helvetica'" stroke="none" xml:space="preserve"> + releaseDeferredEvents()</text>
<text x="15" font-size="9" y="408" clip-path="url(#clipPath27)" font-family="'Helvetica'" stroke="none" xml:space="preserve"> + terminate()</text>
<line clip-path="url(#clipPath28)" fill="none" x1="10" x2="465" y1="179" y2="179"/>
<rect x="10" y="119" clip-path="url(#clipPath1)" fill="none" width="454" rx="0" ry="0" height="295"/>
<rect x="188" y="10" clip-path="url(#clipPath29)" fill="white" width="100" rx="0" ry="0" height="50" stroke="none"/>
</g>
<g stroke-linecap="butt" font-size="9" font-family="'Helvetica'" font-style="italic" font-weight="bold" stroke-width="1.1">
<text xml:space="preserve" x="202" y="36" clip-path="url(#clipPath30)" stroke="none">VertexActivation</text>
</g>
<g font-size="11" stroke-width="1.1" stroke-linecap="butt">
<rect x="188" y="10" clip-path="url(#clipPath29)" fill="none" width="99" rx="0" ry="0" height="49"/>
<rect x="67" y="463" clip-path="url(#clipPath31)" fill="white" width="342" rx="0" ry="0" height="54" stroke="none"/>
<text x="195" font-size="9" y="473" clip-path="url(#clipPath32)" font-family="'Helvetica'" stroke="none" font-weight="bold" xml:space="preserve">FinalStateActivation</text>
<line clip-path="url(#clipPath33)" fill="none" x1="67" x2="409" y1="478" y2="478"/>
<text x="72" font-size="9" y="506" clip-path="url(#clipPath34)" font-family="'Helvetica'" stroke="none" xml:space="preserve"> + enter(  in enteringTransition: TransitionActivation [1],   in explicit: Boolean [1])</text>
<line clip-path="url(#clipPath35)" fill="none" x1="67" x2="409" y1="497" y2="497"/>
<rect x="67" y="463" clip-path="url(#clipPath31)" fill="none" width="341" rx="0" ry="0" height="53"/>
<rect x="680" y="301" clip-path="url(#clipPath36)" fill="white" width="124" rx="0" ry="0" height="51" stroke="none"/>
<text x="707" font-size="9" y="328" clip-path="url(#clipPath37)" font-family="'Helvetica'" stroke="none" font-weight="bold" xml:space="preserve">RegionActivation</text>
<rect x="680" y="301" clip-path="url(#clipPath36)" fill="none" width="123" rx="0" ry="0" height="50"/>
<rect x="680" y="366" clip-path="url(#clipPath38)" fill="white" width="124" rx="0" ry="0" height="49" stroke="none"/>
</g>
<g stroke-linecap="butt" font-size="9" font-family="'Helvetica'" font-style="italic" font-weight="bold" stroke-width="1.1">
<text xml:space="preserve" x="686" y="392" clip-path="url(#clipPath39)" stroke="none">ConnectionPointActivation</text>
</g>
<g font-size="11" stroke-width="1.1" stroke-linecap="butt">
<rect x="680" y="366" clip-path="url(#clipPath38)" fill="none" width="123" rx="0" ry="0" height="48"/>
<rect x="730" y="178" clip-path="url(#clipPath40)" fill="white" width="124" rx="0" ry="0" height="46" stroke="none"/>
<text x="731" font-size="9" y="188" clip-path="url(#clipPath41)" font-family="'Helvetica'" stroke="none" font-weight="bold" xml:space="preserve">CompletionEventOccurrence</text>
<line clip-path="url(#clipPath42)" fill="none" x1="730" x2="854" y1="193" y2="193"/>
<line clip-path="url(#clipPath43)" fill="none" x1="730" x2="854" y1="209" y2="209"/>
<rect x="730" y="178" clip-path="url(#clipPath40)" fill="none" width="123" rx="0" ry="0" height="45"/>
<rect x="630" y="10" clip-path="url(#clipPath44)" fill="silver" width="224" rx="0" ry="0" height="50" stroke="none"/>
<text x="638" font-size="9" y="31" clip-path="url(#clipPath45)" font-family="'Helvetica'" stroke="none" font-weight="bold" xml:space="preserve">(fUML_Semantics::Semantics::CommonBehavior)</text>
<text x="706" font-size="9" y="43" clip-path="url(#clipPath46)" font-family="'Helvetica'" stroke="none" font-weight="bold" xml:space="preserve">EventOccurrence</text>
<rect x="630" y="10" clip-path="url(#clipPath44)" fill="none" width="223" rx="0" ry="0" height="49"/>
<rect x="680" y="237" clip-path="url(#clipPath47)" fill="white" width="124" rx="0" ry="0" height="51" stroke="none"/>
<text x="691" font-size="9" y="264" clip-path="url(#clipPath48)" font-family="'Helvetica'" stroke="none" font-weight="bold" xml:space="preserve">DoActivityContextObject</text>
<rect x="680" y="237" clip-path="url(#clipPath47)" fill="none" width="123" rx="0" ry="0" height="50"/>
<rect x="630" y="119" clip-path="url(#clipPath49)" fill="white" width="124" rx="0" ry="0" height="46" stroke="none"/>
<text x="636" font-size="9" y="129" clip-path="url(#clipPath50)" font-family="'Helvetica'" stroke="none" font-weight="bold" xml:space="preserve">DeferredEventOccurrence</text>
<line clip-path="url(#clipPath51)" fill="none" x1="630" x2="754" y1="134" y2="134"/>
<line clip-path="url(#clipPath52)" fill="none" x1="630" x2="754" y1="150" y2="150"/>
<rect x="630" y="119" clip-path="url(#clipPath49)" fill="none" width="123" rx="0" ry="0" height="45"/>
<line clip-path="url(#clipPath53)" fill="none" text-rendering="optimizeLegibility" x1="240" x2="240" y1="119" y2="60"/>
</g>
<g stroke-linecap="butt" font-size="9" fill="white" text-rendering="optimizeLegibility" font-family="'Helvetica'" stroke="white" stroke-width="1.1">
<polygon clip-path="url(#clipPath54)" points=" 240 60 248 70 232 70" stroke="none"/>
<polygon fill="none" clip-path="url(#clipPath54)" points=" 240 60 248 70 232 70" stroke="black"/>
<line clip-path="url(#clipPath53)" fill="none" x1="234" x2="234" y1="463" y2="415" stroke="black"/>
<polygon clip-path="url(#clipPath55)" points=" 234 415 242 425 226 425" stroke="none"/>
<polygon fill="none" clip-path="url(#clipPath55)" points=" 234 415 242 425 226 425" stroke="black"/>
<line clip-path="url(#clipPath53)" fill="none" x1="465" x2="680" y1="328" y2="328" stroke="black"/>
<text x="485" y="337" clip-path="url(#clipPath56)" fill="black" stroke="none" xml:space="preserve"> + stateActivation</text>
<text x="575" y="322" clip-path="url(#clipPath57)" fill="black" stroke="none" xml:space="preserve"> + regionActivations</text>
<text x="483" y="321" clip-path="url(#clipPath58)" fill="black" stroke="none" xml:space="preserve"> 0..1</text>
<text x="652" y="338" clip-path="url(#clipPath59)" fill="black" stroke="none" xml:space="preserve"> *</text>
<polygon fill="black" clip-path="url(#clipPath60)" points=" 465 328 473 324 481 328 473 332" stroke="none"/>
<polygon fill="none" clip-path="url(#clipPath60)" points=" 465 328 473 324 481 328 473 332" stroke="black"/>
<polygon fill="black" clip-path="url(#clipPath61)" points=" 680 329 678 331 676 331 674 329 674 328 662 334 674 328 662 322 674 328 674 327 676 325 678 325 680 327" stroke="none"/>
<polygon fill="none" clip-path="url(#clipPath61)" points=" 680 329 678 331 676 331 674 329 674 328 662 334 674 328 662 322 674 328 674 327 676 325 678 325 680 327" stroke="black"/>
<line clip-path="url(#clipPath53)" fill="none" x1="465" x2="680" y1="389" y2="389" stroke="black"/>
<text x="485" y="397" clip-path="url(#clipPath62)" fill="black" stroke="none" xml:space="preserve"> + stateActivation</text>
<text x="534" y="383" clip-path="url(#clipPath63)" fill="black" stroke="none" xml:space="preserve"> + connectionPointActivations</text>
<text x="483" y="380" clip-path="url(#clipPath64)" fill="black" stroke="none" xml:space="preserve"> 1</text>
<text x="653" y="398" clip-path="url(#clipPath65)" fill="black" stroke="none" xml:space="preserve"> *</text>
<polygon fill="black" clip-path="url(#clipPath66)" points=" 465 389 473 385 481 389 473 393" stroke="none"/>
<polygon fill="none" clip-path="url(#clipPath66)" points=" 465 389 473 385 481 389 473 393" stroke="black"/>
<polygon fill="black" clip-path="url(#clipPath67)" points=" 680 390 678 392 676 392 674 390 674 389 662 395 674 389 662 383 674 389 674 388 676 386 678 386 680 388" stroke="none"/>
<polygon fill="none" clip-path="url(#clipPath67)" points=" 680 390 678 392 676 392 674 390 674 389 662 395 674 389 662 383 674 389 674 388 676 386 678 386 680 388" stroke="black"/>
<line clip-path="url(#clipPath53)" fill="none" x1="465" x2="730" y1="203" y2="203" stroke="black"/>
<text x="489" y="210" clip-path="url(#clipPath68)" fill="black" stroke="none" xml:space="preserve"> + stateActivation</text>
<text x="643" y="197" clip-path="url(#clipPath69)" fill="black" stroke="none" xml:space="preserve"> + eventOccurrence</text>
<text x="487" y="195" clip-path="url(#clipPath70)" fill="black" stroke="none" xml:space="preserve"> 1</text>
<text x="706" y="212" clip-path="url(#clipPath71)" fill="black" stroke="none" xml:space="preserve"> 0..1</text>
<polygon fill="black" clip-path="url(#clipPath72)" points=" 465 202 467 200 469 200 471 202 471 203 483 197 471 203 483 209 471 203 471 204 469 206 467 206 465 204" stroke="none"/>
<polygon fill="none" clip-path="url(#clipPath72)" points=" 465 202 467 200 469 200 471 202 471 203 483 197 471 203 483 209 471 203 471 204 469 206 467 206 465 204" stroke="black"/>
<line clip-path="url(#clipPath53)" fill="none" x1="791" x2="791" y1="178" y2="94" stroke="black"/>
<line clip-path="url(#clipPath53)" fill="none" x1="791" x2="742" y1="94" y2="94" stroke="black"/>
<line clip-path="url(#clipPath53)" fill="none" x1="742" x2="742" y1="94" y2="60" stroke="black"/>
<polygon clip-path="url(#clipPath73)" points=" 742 60 750 70 734 70" stroke="none"/>
<polygon fill="none" clip-path="url(#clipPath73)" points=" 742 60 750 70 734 70" stroke="black"/>
<line clip-path="url(#clipPath53)" fill="none" x1="465" x2="680" y1="260" y2="260" stroke="black"/>
<text x="487" y="268" clip-path="url(#clipPath74)" fill="black" stroke="none" xml:space="preserve"> + owner</text>
<text x="546" y="255" clip-path="url(#clipPath75)" fill="black" stroke="none" xml:space="preserve"> + doActivityContextObject</text>
<text x="487" y="255" clip-path="url(#clipPath76)" fill="black" stroke="none" xml:space="preserve"> 1</text>
<text x="639" y="269" clip-path="url(#clipPath77)" fill="black" stroke="none" xml:space="preserve"> 0..1</text>
<polygon fill="black" clip-path="url(#clipPath78)" points=" 465 259 467 257 469 257 471 259 471 260 483 254 471 260 483 266 471 260 471 261 469 263 467 263 465 261" stroke="none"/>
<polygon fill="none" clip-path="url(#clipPath78)" points=" 465 259 467 257 469 257 471 259 471 260 483 254 471 260 483 266 471 260 471 261 469 263 467 263 465 261" stroke="black"/>
<polygon fill="black" clip-path="url(#clipPath79)" points=" 680 261 678 263 676 263 674 261 674 260 662 266 674 260 662 254 674 260 674 259 676 257 678 257 680 259" stroke="none"/>
<polygon fill="none" clip-path="url(#clipPath79)" points=" 680 261 678 263 676 263 674 261 674 260 662 266 674 260 662 254 674 260 674 259 676 257 678 257 680 259" stroke="black"/>
<line clip-path="url(#clipPath53)" fill="none" x1="691" x2="691" y1="119" y2="94" stroke="black"/>
<line clip-path="url(#clipPath53)" fill="none" x1="691" x2="742" y1="94" y2="94" stroke="black"/>
<line clip-path="url(#clipPath53)" fill="none" x1="742" x2="742" y1="94" y2="60" stroke="black"/>
<polygon clip-path="url(#clipPath73)" points=" 742 60 750 70 734 70" stroke="none"/>
<polygon fill="none" clip-path="url(#clipPath73)" points=" 742 60 750 70 734 70" stroke="black"/>
<line clip-path="url(#clipPath53)" fill="none" x1="630" x2="465" y1="143" y2="143" stroke="black"/>
<text x="513" y="138" clip-path="url(#clipPath80)" fill="black" stroke="none" xml:space="preserve"> + deferredEventOccurrence</text>
<text x="487" y="152" clip-path="url(#clipPath81)" fill="black" stroke="none" xml:space="preserve"> + constrainingStateActivation</text>
<text x="620" y="153" clip-path="url(#clipPath82)" fill="black" stroke="none" xml:space="preserve"> *</text>
<text x="487" y="136" clip-path="url(#clipPath83)" fill="black" stroke="none" xml:space="preserve"> 1</text>
<polygon fill="black" clip-path="url(#clipPath84)" points=" 465 142 467 140 469 140 471 142 471 143 483 137 471 143 483 149 471 143 471 144 469 146 467 146 465 144" stroke="none"/>
<polygon fill="none" clip-path="url(#clipPath84)" points=" 465 142 467 140 469 140 471 142 471 143 483 137 471 143 483 149 471 143 471 144 469 146 467 146 465 144" stroke="black"/>
<line clip-path="url(#clipPath53)" fill="none" x1="641" x2="641" y1="119" y2="60" stroke="black"/>
<text x="594" y="112" clip-path="url(#clipPath85)" fill="black" stroke="none" xml:space="preserve"> + deferral</text>
<text x="520" y="85" clip-path="url(#clipPath86)" fill="black" stroke="none" xml:space="preserve"> + deferredEventOccurrence</text>
<text x="647" y="112" clip-path="url(#clipPath87)" fill="black" stroke="none" xml:space="preserve"> *</text>
<text x="644" y="86" clip-path="url(#clipPath88)" fill="black" stroke="none" xml:space="preserve"> 1</text>
<polygon fill="black" clip-path="url(#clipPath89)" points=" 642 60 644 62 644 64 642 66 641 66 647 78 641 66 635 78 641 66 640 66 638 64 638 62 640 60" stroke="none"/>
<polygon fill="none" clip-path="url(#clipPath89)" points=" 642 60 644 62 644 64 642 66 641 66 647 78 641 66 635 78 641 66 640 66 638 64 638 62 640 60" stroke="black"/>
</g>
</g>
</svg>
