<?xml version="1.0" encoding="UTF-8"?><svg xmlns="http://www.w3.org/2000/svg" xmlns:xlink="http://www.w3.org/1999/xlink" stroke-dasharray="none" shape-rendering="auto" font-family="'Dialog'" width="652" text-rendering="auto" fill-opacity="1" contentScriptType="text/ecmascript" color-interpolation="auto" color-rendering="auto" preserveAspectRatio="xMidYMid meet" font-size="12" viewBox="0 0 652 640" fill="black" stroke="black" image-rendering="auto" stroke-miterlimit="10" zoomAndPan="magnify" version="1.0" stroke-linecap="square" stroke-linejoin="miter" contentStyleType="text/css" font-style="normal" height="640" stroke-width="1" stroke-dashoffset="0" font-weight="normal" stroke-opacity="1">
<!--Generated by the Batik Graphics2D SVG Generator-->
<defs id="genericDefs"/>
<g>
<defs id="defs1">
<clipPath clipPathUnits="userSpaceOnUse" id="clipPath1">
<path d="M91 179 L222 179 L222 232 L91 232 L91 179 Z"/>
</clipPath>
<clipPath clipPathUnits="userSpaceOnUse" id="clipPath2">
<path d="M103 198 L212 198 L212 213 L103 213 L103 198 Z"/>
</clipPath>
<clipPath clipPathUnits="userSpaceOnUse" id="clipPath3">
<path d="M209 15 L451 15 L451 64 L209 64 L209 15 Z"/>
</clipPath>
<clipPath clipPathUnits="userSpaceOnUse" id="clipPath4">
<path d="M228 25 L433 25 L433 40 L228 40 L228 25 Z"/>
</clipPath>
<clipPath clipPathUnits="userSpaceOnUse" id="clipPath5">
<path d="M295 39 L367 39 L367 54 L295 54 L295 39 Z"/>
</clipPath>
<clipPath clipPathUnits="userSpaceOnUse" id="clipPath6">
<path d="M90 305 L221 305 L221 358 L90 358 L90 305 Z"/>
</clipPath>
<clipPath clipPathUnits="userSpaceOnUse" id="clipPath7">
<path d="M124 324 L189 324 L189 339 L124 339 L124 324 Z"/>
</clipPath>
<clipPath clipPathUnits="userSpaceOnUse" id="clipPath8">
<path d="M264 178 L395 178 L395 231 L264 231 L264 178 Z"/>
</clipPath>
<clipPath clipPathUnits="userSpaceOnUse" id="clipPath9">
<path d="M271 197 L389 197 L389 212 L271 212 L271 197 Z"/>
</clipPath>
<clipPath clipPathUnits="userSpaceOnUse" id="clipPath10">
<path d="M441 177 L574 177 L574 230 L441 230 L441 177 Z"/>
</clipPath>
<clipPath clipPathUnits="userSpaceOnUse" id="clipPath11">
<path d="M465 196 L551 196 L551 211 L465 211 L465 196 Z"/>
</clipPath>
<clipPath clipPathUnits="userSpaceOnUse" id="clipPath12">
<path d="M379 352 L643 352 L643 521 L379 521 L379 352 Z"/>
</clipPath>
<clipPath clipPathUnits="userSpaceOnUse" id="clipPath13">
<path d="M471 355 L550 355 L550 370 L471 370 L471 355 Z"/>
</clipPath>
<clipPath clipPathUnits="userSpaceOnUse" id="clipPath14">
<path d="M384 371 L510 371 L510 386 L384 386 L384 371 Z"/>
</clipPath>
<clipPath clipPathUnits="userSpaceOnUse" id="clipPath15">
<path d="M379 369 L643 369 L643 400 L379 400 L379 369 Z"/>
</clipPath>
<clipPath clipPathUnits="userSpaceOnUse" id="clipPath16">
<path d="M384 401 L606 401 L606 416 L384 416 L384 401 Z"/>
</clipPath>
<clipPath clipPathUnits="userSpaceOnUse" id="clipPath17">
<path d="M384 414 L437 414 L437 429 L384 429 L384 414 Z"/>
</clipPath>
<clipPath clipPathUnits="userSpaceOnUse" id="clipPath18">
<path d="M384 427 L432 427 L432 442 L384 442 L384 427 Z"/>
</clipPath>
<clipPath clipPathUnits="userSpaceOnUse" id="clipPath19">
<path d="M384 440 L502 440 L502 455 L384 455 L384 440 Z"/>
</clipPath>
<clipPath clipPathUnits="userSpaceOnUse" id="clipPath20">
<path d="M384 453 L464 453 L464 468 L384 468 L384 453 Z"/>
</clipPath>
<clipPath clipPathUnits="userSpaceOnUse" id="clipPath21">
<path d="M384 466 L452 466 L452 481 L384 481 L384 466 Z"/>
</clipPath>
<clipPath clipPathUnits="userSpaceOnUse" id="clipPath22">
<path d="M384 479 L587 479 L587 494 L384 494 L384 479 Z"/>
</clipPath>
<clipPath clipPathUnits="userSpaceOnUse" id="clipPath23">
<path d="M379 399 L643 399 L643 520 L379 520 L379 399 Z"/>
</clipPath>
<clipPath clipPathUnits="userSpaceOnUse" id="clipPath24">
<path d="M380 577 L637 577 L637 630 L380 630 L380 577 Z"/>
</clipPath>
<clipPath clipPathUnits="userSpaceOnUse" id="clipPath25">
<path d="M406 589 L613 589 L613 604 L406 604 L406 589 Z"/>
</clipPath>
<clipPath clipPathUnits="userSpaceOnUse" id="clipPath26">
<path d="M487 603 L531 603 L531 618 L487 618 L487 603 Z"/>
</clipPath>
<clipPath clipPathUnits="userSpaceOnUse" id="clipPath27">
<path d="M91 578 L348 578 L348 631 L91 631 L91 578 Z"/>
</clipPath>
<clipPath clipPathUnits="userSpaceOnUse" id="clipPath28">
<path d="M112 590 L328 590 L328 605 L112 605 L112 590 Z"/>
</clipPath>
<clipPath clipPathUnits="userSpaceOnUse" id="clipPath29">
<path d="M206 604 L235 604 L235 619 L206 619 L206 604 Z"/>
</clipPath>
<clipPath clipPathUnits="userSpaceOnUse" id="clipPath30">
<path d="M90 366 L221 366 L221 420 L90 420 L90 366 Z"/>
</clipPath>
<clipPath clipPathUnits="userSpaceOnUse" id="clipPath31">
<path d="M113 379 L200 379 L200 394 L113 394 L113 379 Z"/>
</clipPath>
<clipPath clipPathUnits="userSpaceOnUse" id="clipPath32">
<path d="M134 393 L178 393 L178 408 L134 408 L134 393 Z"/>
</clipPath>
<clipPath clipPathUnits="userSpaceOnUse" id="clipPath33">
<path d="M90 429 L220 429 L220 483 L90 483 L90 429 Z"/>
</clipPath>
<clipPath clipPathUnits="userSpaceOnUse" id="clipPath34">
<path d="M101 442 L210 442 L210 457 L101 457 L101 442 Z"/>
</clipPath>
<clipPath clipPathUnits="userSpaceOnUse" id="clipPath35">
<path d="M135 456 L176 456 L176 471 L135 471 L135 456 Z"/>
</clipPath>
<clipPath clipPathUnits="userSpaceOnUse" id="clipPath36">
<path d="M-1 -1 L653 -1 L653 641 L-1 641 L-1 -1 Z"/>
</clipPath>
<clipPath clipPathUnits="userSpaceOnUse" id="clipPath37">
<path d="M321 62 L340 62 L340 75 L321 75 L321 62 Z"/>
</clipPath>
<clipPath clipPathUnits="userSpaceOnUse" id="clipPath38">
<path d="M33 268 L155 268 L155 283 L33 283 L33 268 Z"/>
</clipPath>
<clipPath clipPathUnits="userSpaceOnUse" id="clipPath39">
<path d="M39 236 L152 236 L152 251 L39 251 L39 236 Z"/>
</clipPath>
<clipPath clipPathUnits="userSpaceOnUse" id="clipPath40">
<path d="M163 272 L172 272 L172 287 L163 287 L163 272 Z"/>
</clipPath>
<clipPath clipPathUnits="userSpaceOnUse" id="clipPath41">
<path d="M161 236 L170 236 L170 251 L161 251 L161 236 Z"/>
</clipPath>
<clipPath clipPathUnits="userSpaceOnUse" id="clipPath42">
<path d="M149 287 L164 287 L164 308 L149 308 L149 287 Z"/>
</clipPath>
<clipPath clipPathUnits="userSpaceOnUse" id="clipPath43">
<path d="M75 22 L188 22 L188 37 L75 37 L75 22 Z"/>
</clipPath>
<clipPath clipPathUnits="userSpaceOnUse" id="clipPath44">
<path d="M72 161 L114 161 L114 176 L72 176 L72 161 Z"/>
</clipPath>
<clipPath clipPathUnits="userSpaceOnUse" id="clipPath45">
<path d="M180 42 L189 42 L189 57 L180 57 L180 42 Z"/>
</clipPath>
<clipPath clipPathUnits="userSpaceOnUse" id="clipPath46">
<path d="M115 160 L135 160 L135 175 L115 175 L115 160 Z"/>
</clipPath>
<clipPath clipPathUnits="userSpaceOnUse" id="clipPath47">
<path d="M191 33 L212 33 L212 48 L191 48 L191 33 Z"/>
</clipPath>
<clipPath clipPathUnits="userSpaceOnUse" id="clipPath48">
<path d="M241 314 L314 314 L314 329 L241 329 L241 314 Z"/>
</clipPath>
<clipPath clipPathUnits="userSpaceOnUse" id="clipPath49">
<path d="M336 237 L415 237 L415 252 L336 252 L336 237 Z"/>
</clipPath>
<clipPath clipPathUnits="userSpaceOnUse" id="clipPath50">
<path d="M242 332 L251 332 L251 347 L242 347 L242 332 Z"/>
</clipPath>
<clipPath clipPathUnits="userSpaceOnUse" id="clipPath51">
<path d="M305 236 L325 236 L325 251 L305 251 L305 236 Z"/>
</clipPath>
<clipPath clipPathUnits="userSpaceOnUse" id="clipPath52">
<path d="M219 323 L240 323 L240 338 L219 338 L219 323 Z"/>
</clipPath>
<clipPath clipPathUnits="userSpaceOnUse" id="clipPath53">
<path d="M510 231 L602 231 L602 246 L510 246 L510 231 Z"/>
</clipPath>
<clipPath clipPathUnits="userSpaceOnUse" id="clipPath54">
<path d="M511 316 L561 316 L561 331 L511 331 L511 316 Z"/>
</clipPath>
<clipPath clipPathUnits="userSpaceOnUse" id="clipPath55">
<path d="M482 230 L502 230 L502 245 L482 245 L482 230 Z"/>
</clipPath>
<clipPath clipPathUnits="userSpaceOnUse" id="clipPath56">
<path d="M492 317 L501 317 L501 332 L492 332 L492 317 Z"/>
</clipPath>
<clipPath clipPathUnits="userSpaceOnUse" id="clipPath57">
<path d="M498 334 L513 334 L513 355 L498 355 L498 334 Z"/>
</clipPath>
<clipPath clipPathUnits="userSpaceOnUse" id="clipPath58">
<path d="M501 567 L520 567 L520 580 L501 580 L501 567 Z"/>
</clipPath>
<clipPath clipPathUnits="userSpaceOnUse" id="clipPath59">
<path d="M289 508 L375 508 L375 523 L289 523 L289 508 Z"/>
</clipPath>
<clipPath clipPathUnits="userSpaceOnUse" id="clipPath60">
<path d="M227 543 L289 543 L289 558 L227 558 L227 543 Z"/>
</clipPath>
<clipPath clipPathUnits="userSpaceOnUse" id="clipPath61">
<path d="M366 491 L375 491 L375 506 L366 506 L366 491 Z"/>
</clipPath>
<clipPath clipPathUnits="userSpaceOnUse" id="clipPath62">
<path d="M212 542 L221 542 L221 557 L212 557 L212 542 Z"/>
</clipPath>
<clipPath clipPathUnits="userSpaceOnUse" id="clipPath63">
<path d="M217 560 L232 560 L232 581 L217 581 L217 560 Z"/>
</clipPath>
<clipPath clipPathUnits="userSpaceOnUse" id="clipPath64">
<path d="M288 394 L374 394 L374 409 L288 409 L288 394 Z"/>
</clipPath>
<clipPath clipPathUnits="userSpaceOnUse" id="clipPath65">
<path d="M240 376 L290 376 L290 391 L240 391 L240 376 Z"/>
</clipPath>
<clipPath clipPathUnits="userSpaceOnUse" id="clipPath66">
<path d="M365 378 L374 378 L374 393 L365 393 L365 378 Z"/>
</clipPath>
<clipPath clipPathUnits="userSpaceOnUse" id="clipPath67">
<path d="M240 395 L249 395 L249 410 L240 410 L240 395 Z"/>
</clipPath>
<clipPath clipPathUnits="userSpaceOnUse" id="clipPath68">
<path d="M219 386 L240 386 L240 401 L219 401 L219 386 Z"/>
</clipPath>
<clipPath clipPathUnits="userSpaceOnUse" id="clipPath69">
<path d="M289 456 L375 456 L375 471 L289 471 L289 456 Z"/>
</clipPath>
<clipPath clipPathUnits="userSpaceOnUse" id="clipPath70">
<path d="M239 440 L285 440 L285 455 L239 455 L239 440 Z"/>
</clipPath>
<clipPath clipPathUnits="userSpaceOnUse" id="clipPath71">
<path d="M366 440 L375 440 L375 455 L366 455 L366 440 Z"/>
</clipPath>
<clipPath clipPathUnits="userSpaceOnUse" id="clipPath72">
<path d="M240 457 L249 457 L249 472 L240 472 L240 457 Z"/>
</clipPath>
<clipPath clipPathUnits="userSpaceOnUse" id="clipPath73">
<path d="M218 448 L239 448 L239 463 L218 463 L218 448 Z"/>
</clipPath>
</defs>
<g font-size="11" fill="white" stroke-linejoin="round" stroke="white" stroke-width="0" stroke-miterlimit="0">
<rect x="92" y="180" clip-path="url(#clipPath1)" width="129" rx="0" ry="0" height="51" stroke="none"/>
</g>
<g font-size="10" font-family="'Calibri'" stroke-linejoin="round" font-weight="bold" stroke-width="0" stroke-miterlimit="0">
<text xml:space="preserve" x="104" y="209" clip-path="url(#clipPath2)" stroke="none">DeferredEventOccurrence</text>
</g>
<g font-size="11" stroke-width="1.1" stroke-linecap="butt">
<rect x="92" y="180" clip-path="url(#clipPath1)" fill="none" width="128" rx="0" ry="0" height="50"/>
<rect x="210" y="16" clip-path="url(#clipPath3)" fill="silver" width="240" rx="0" ry="0" height="47" stroke="none"/>
<text x="229" font-size="10" y="36" clip-path="url(#clipPath4)" font-family="'Calibri'" stroke="none" font-weight="bold" xml:space="preserve">(fUML_Semantics::Semantics::CommonBehavior)</text>
<text x="296" font-size="10" y="50" clip-path="url(#clipPath5)" font-family="'Calibri'" stroke="none" font-weight="bold" xml:space="preserve">EventOccurrence</text>
<rect x="210" y="16" clip-path="url(#clipPath3)" fill="none" width="239" rx="0" ry="0" height="46"/>
<rect x="91" y="306" clip-path="url(#clipPath6)" fill="white" width="129" rx="0" ry="0" height="51" stroke="none"/>
<text x="125" font-size="10" y="335" clip-path="url(#clipPath7)" font-family="'Calibri'" stroke="none" font-weight="bold" xml:space="preserve">StateActivation</text>
<rect x="91" y="306" clip-path="url(#clipPath6)" fill="none" width="128" rx="0" ry="0" height="50"/>
<rect x="265" y="179" clip-path="url(#clipPath8)" fill="white" width="129" rx="0" ry="0" height="51" stroke="none"/>
<text x="272" font-size="10" y="208" clip-path="url(#clipPath9)" font-family="'Calibri'" stroke="none" font-weight="bold" xml:space="preserve">CompletionEventOccurrence</text>
<rect x="265" y="179" clip-path="url(#clipPath8)" fill="none" width="128" rx="0" ry="0" height="50"/>
<rect x="442" y="178" clip-path="url(#clipPath10)" fill="white" width="131" rx="0" ry="0" height="51" stroke="none"/>
<text x="466" font-size="10" y="207" clip-path="url(#clipPath11)" font-family="'Calibri'" stroke="none" font-weight="bold" xml:space="preserve">CallEventOccurrence</text>
<rect x="442" y="178" clip-path="url(#clipPath10)" fill="none" width="130" rx="0" ry="0" height="50"/>
<rect x="380" y="353" clip-path="url(#clipPath12)" fill="white" width="262" rx="0" ry="0" height="167" stroke="none"/>
<text x="472" font-size="10" y="366" clip-path="url(#clipPath13)" font-family="'Calibri'" stroke="none" font-weight="bold" xml:space="preserve">CallEventExecution</text>
<text x="385" font-size="10" y="382" clip-path="url(#clipPath14)" font-family="'Calibri'" stroke="none" xml:space="preserve"> + callerSuspended: Boolean [1]</text>
<line clip-path="url(#clipPath15)" fill="none" x1="380" x2="642" y1="370" y2="370"/>
<text x="385" font-size="10" y="412" clip-path="url(#clipPath16)" font-family="'Calibri'" stroke="none" xml:space="preserve"> # _send(  in eventOccurrence: CallEventOccurrence [1])</text>
<text x="385" font-size="10" y="425" clip-path="url(#clipPath17)" font-family="'Calibri'" stroke="none" xml:space="preserve"> - _suspend()</text>
<text x="385" font-size="10" y="438" clip-path="url(#clipPath18)" font-family="'Calibri'" stroke="none" xml:space="preserve"> + execute()</text>
<text x="385" font-size="10" y="451" clip-path="url(#clipPath19)" font-family="'Calibri'" stroke="none" xml:space="preserve"> + getBehavior(): Behavior [1]</text>
<text x="385" font-size="10" y="464" clip-path="url(#clipPath20)" font-family="'Calibri'" stroke="none" xml:space="preserve"> + new_(): Value [1]</text>
<text x="385" font-size="10" y="477" clip-path="url(#clipPath21)" font-family="'Calibri'" stroke="none" xml:space="preserve"> + releaseCaller()</text>
<text x="385" font-size="10" y="490" clip-path="url(#clipPath22)" font-family="'Calibri'" stroke="none" xml:space="preserve"> + getInputParameterValues(): ParameterValue [*]</text>
<line clip-path="url(#clipPath23)" fill="none" x1="380" x2="642" y1="400" y2="400"/>
<rect x="380" y="353" clip-path="url(#clipPath12)" fill="none" width="261" rx="0" ry="0" height="166"/>
<rect x="381" y="578" clip-path="url(#clipPath24)" fill="silver" width="255" rx="0" ry="0" height="51" stroke="none"/>
</g>
<g stroke-linecap="butt" font-size="10" font-family="'Calibri'" font-style="italic" font-weight="bold" stroke-width="1.1">
<text xml:space="preserve" x="407" y="600" clip-path="url(#clipPath25)" stroke="none">(fUML_Semantics::Semantics::CommonBehavior)</text>
<text xml:space="preserve" x="488" y="614" clip-path="url(#clipPath26)" stroke="none">Execution</text>
</g>
<g font-size="11" stroke-width="1.1" stroke-linecap="butt">
<rect x="381" y="578" clip-path="url(#clipPath24)" fill="none" width="254" rx="0" ry="0" height="50"/>
<rect x="92" y="579" clip-path="url(#clipPath27)" fill="silver" width="255" rx="0" ry="0" height="51" stroke="none"/>
<text x="113" font-size="10" y="601" clip-path="url(#clipPath28)" font-family="'Calibri'" stroke="none" font-weight="bold" xml:space="preserve">(fUML_Semantics::Semantics::StructuredClassifiers)</text>
<text x="207" font-size="10" y="615" clip-path="url(#clipPath29)" font-family="'Calibri'" stroke="none" font-weight="bold" xml:space="preserve">Object</text>
<rect x="92" y="579" clip-path="url(#clipPath27)" fill="none" width="254" rx="0" ry="0" height="50"/>
<rect x="91" y="367" clip-path="url(#clipPath30)" fill="silver" width="129" rx="0" ry="0" height="52" stroke="none"/>
<text x="114" font-size="10" y="390" clip-path="url(#clipPath31)" font-family="'Calibri'" stroke="none" font-weight="bold" xml:space="preserve">(UML::Classification)</text>
<text x="135" font-size="10" y="404" clip-path="url(#clipPath32)" font-family="'Calibri'" stroke="none" font-weight="bold" xml:space="preserve">Operation</text>
<rect x="91" y="367" clip-path="url(#clipPath30)" fill="none" width="128" rx="0" ry="0" height="51"/>
<rect x="91" y="430" clip-path="url(#clipPath33)" fill="silver" width="128" rx="0" ry="0" height="52" stroke="none"/>
</g>
<g stroke-linecap="butt" font-size="10" font-family="'Calibri'" font-style="italic" font-weight="bold" stroke-width="1.1">
<text xml:space="preserve" x="102" y="453" clip-path="url(#clipPath34)" stroke="none">(UML::CommonBehavior)</text>
<text xml:space="preserve" x="136" y="467" clip-path="url(#clipPath35)" stroke="none">Behavior</text>
</g>
<g font-size="11" stroke-width="1.1" stroke-linecap="butt">
<rect x="91" y="430" clip-path="url(#clipPath33)" fill="none" width="127" rx="0" ry="0" height="51"/>
<line clip-path="url(#clipPath36)" fill="none" text-rendering="optimizeLegibility" x1="157" x2="157" y1="180" y2="107"/>
<line clip-path="url(#clipPath36)" fill="none" text-rendering="optimizeLegibility" x1="157" x2="330" y1="107" y2="107"/>
<line clip-path="url(#clipPath36)" fill="none" text-rendering="optimizeLegibility" x1="330" x2="330" y1="107" y2="63"/>
</g>
<g stroke-linecap="butt" font-size="10" fill="white" text-rendering="optimizeLegibility" font-family="'Calibri'" stroke="white" stroke-width="1.1">
<polygon clip-path="url(#clipPath37)" points=" 330 63 338 73 322 73" stroke="none"/>
<polygon fill="none" clip-path="url(#clipPath37)" points=" 330 63 338 73 322 73" stroke="black"/>
<line clip-path="url(#clipPath36)" fill="none" x1="156" x2="156" y1="306" y2="231" stroke="black"/>
<text x="34" y="279" clip-path="url(#clipPath38)" fill="black" stroke="none" xml:space="preserve"> + constrainingStateActivation</text>
<text x="40" y="247" clip-path="url(#clipPath39)" fill="black" stroke="none" xml:space="preserve"> + deferredEventOccurrence</text>
<text x="164" y="283" clip-path="url(#clipPath40)" fill="black" stroke="none" xml:space="preserve"> 1</text>
<text x="162" y="247" clip-path="url(#clipPath41)" fill="black" stroke="none" xml:space="preserve"> *</text>
<polygon fill="black" clip-path="url(#clipPath42)" points=" 155 306 153 304 153 302 155 300 156 300 150 288 156 300 162 288 156 300 157 300 159 302 159 304 157 306" stroke="none"/>
<polygon fill="none" clip-path="url(#clipPath42)" points=" 155 306 153 304 153 302 155 300 156 300 150 288 156 300 162 288 156 300 157 300 159 302 159 304 157 306" stroke="black"/>
<line clip-path="url(#clipPath36)" fill="none" x1="210" x2="117" y1="40" y2="40" stroke="black"/>
<line clip-path="url(#clipPath36)" fill="none" x1="117" x2="117" y1="40" y2="180" stroke="black"/>
<text x="76" y="33" clip-path="url(#clipPath43)" fill="black" stroke="none" xml:space="preserve"> + deferredEventOccurrence</text>
<text x="73" y="172" clip-path="url(#clipPath44)" fill="black" stroke="none" xml:space="preserve"> + deferral</text>
<text x="181" y="53" clip-path="url(#clipPath45)" fill="black" stroke="none" xml:space="preserve"> 1</text>
<text x="116" y="171" clip-path="url(#clipPath46)" fill="black" stroke="none" xml:space="preserve"> 0..1</text>
<polygon fill="black" clip-path="url(#clipPath47)" points=" 210 41 208 43 206 43 204 41 204 40 192 46 204 40 192 34 204 40 204 39 206 37 208 37 210 39" stroke="none"/>
<polygon fill="none" clip-path="url(#clipPath47)" points=" 210 41 208 43 206 43 204 41 204 40 192 46 204 40 192 34 204 40 204 39 206 37 208 37 210 39" stroke="black"/>
<line clip-path="url(#clipPath36)" fill="none" x1="330" x2="330" y1="179" y2="63" stroke="black"/>
<polygon clip-path="url(#clipPath37)" points=" 330 63 338 73 322 73" stroke="none"/>
<polygon fill="none" clip-path="url(#clipPath37)" points=" 330 63 338 73 322 73" stroke="black"/>
<line clip-path="url(#clipPath36)" fill="none" x1="220" x2="330" y1="330" y2="330" stroke="black"/>
<line clip-path="url(#clipPath36)" fill="none" x1="330" x2="330" y1="330" y2="230" stroke="black"/>
<text x="242" y="325" clip-path="url(#clipPath48)" fill="black" stroke="none" xml:space="preserve"> + stateActivation</text>
<text x="337" y="248" clip-path="url(#clipPath49)" fill="black" stroke="none" xml:space="preserve"> + eventOccurrence</text>
<text x="243" y="343" clip-path="url(#clipPath50)" fill="black" stroke="none" xml:space="preserve"> 1</text>
<text x="306" y="247" clip-path="url(#clipPath51)" fill="black" stroke="none" xml:space="preserve"> 0..1</text>
<polygon fill="black" clip-path="url(#clipPath52)" points=" 220 329 222 327 224 327 226 329 226 330 238 324 226 330 238 336 226 330 226 331 224 333 222 333 220 331" stroke="none"/>
<polygon fill="none" clip-path="url(#clipPath52)" points=" 220 329 222 327 224 327 226 329 226 330 238 324 226 330 238 336 226 330 226 331 224 333 222 333 220 331" stroke="black"/>
<line clip-path="url(#clipPath36)" fill="none" x1="508" x2="508" y1="178" y2="107" stroke="black"/>
<line clip-path="url(#clipPath36)" fill="none" x1="508" x2="330" y1="107" y2="107" stroke="black"/>
<line clip-path="url(#clipPath36)" fill="none" x1="330" x2="330" y1="107" y2="63" stroke="black"/>
<polygon clip-path="url(#clipPath37)" points=" 330 63 338 73 322 73" stroke="none"/>
<polygon fill="none" clip-path="url(#clipPath37)" points=" 330 63 338 73 322 73" stroke="black"/>
<line clip-path="url(#clipPath36)" fill="none" x1="505" x2="505" y1="229" y2="353" stroke="black"/>
<text x="511" y="242" clip-path="url(#clipPath53)" fill="black" stroke="none" xml:space="preserve"> + callEventOccurrence</text>
<text x="512" y="327" clip-path="url(#clipPath54)" fill="black" stroke="none" xml:space="preserve"> + execution</text>
<text x="483" y="241" clip-path="url(#clipPath55)" fill="black" stroke="none" xml:space="preserve"> 0..1</text>
<text x="493" y="328" clip-path="url(#clipPath56)" fill="black" stroke="none" xml:space="preserve"> 1</text>
<polygon fill="black" clip-path="url(#clipPath57)" points=" 504 353 502 351 502 349 504 347 505 347 499 335 505 347 511 335 505 347 506 347 508 349 508 351 506 353" stroke="none"/>
<polygon fill="none" clip-path="url(#clipPath57)" points=" 504 353 502 351 502 349 504 347 505 347 499 335 505 347 511 335 505 347 506 347 508 349 508 351 506 353" stroke="black"/>
<line clip-path="url(#clipPath36)" fill="none" x1="510" x2="510" y1="520" y2="578" stroke="black"/>
<polygon clip-path="url(#clipPath58)" points=" 510 578 502 568 518 568" stroke="none"/>
<polygon fill="none" clip-path="url(#clipPath58)" points=" 510 578 502 568 518 568" stroke="black"/>
<line clip-path="url(#clipPath36)" fill="none" x1="380" x2="224" y1="506" y2="506" stroke="black"/>
<line clip-path="url(#clipPath36)" fill="none" x1="224" x2="224" y1="506" y2="579" stroke="black"/>
<text x="290" y="519" clip-path="url(#clipPath59)" fill="black" stroke="none" xml:space="preserve"> + callEventExecution</text>
<text x="228" y="554" clip-path="url(#clipPath60)" fill="black" stroke="none" xml:space="preserve"> + callerContext</text>
<text x="367" y="502" clip-path="url(#clipPath61)" fill="black" stroke="none" xml:space="preserve"> *</text>
<text x="213" y="553" clip-path="url(#clipPath62)" fill="black" stroke="none" xml:space="preserve"> 1</text>
<polygon fill="black" clip-path="url(#clipPath63)" points=" 223 579 221 577 221 575 223 573 224 573 218 561 224 573 230 561 224 573 225 573 227 575 227 577 225 579" stroke="none"/>
<polygon fill="none" clip-path="url(#clipPath63)" points=" 223 579 221 577 221 575 223 573 224 573 218 561 224 573 230 561 224 573 225 573 227 575 227 577 225 579" stroke="black"/>
<line clip-path="url(#clipPath36)" fill="none" x1="380" x2="220" y1="393" y2="393" stroke="black"/>
<text x="289" y="405" clip-path="url(#clipPath64)" fill="black" stroke="none" xml:space="preserve"> + callEventExecution</text>
<text x="241" y="387" clip-path="url(#clipPath65)" fill="black" stroke="none" xml:space="preserve"> + operation</text>
<text x="366" y="389" clip-path="url(#clipPath66)" fill="black" stroke="none" xml:space="preserve"> *</text>
<text x="241" y="406" clip-path="url(#clipPath67)" fill="black" stroke="none" xml:space="preserve"> 1</text>
<polygon fill="black" clip-path="url(#clipPath68)" points=" 220 392 222 390 224 390 226 392 226 393 238 387 226 393 238 399 226 393 226 394 224 396 222 396 220 394" stroke="none"/>
<polygon fill="none" clip-path="url(#clipPath68)" points=" 220 392 222 390 224 390 226 392 226 393 238 387 226 393 238 399 226 393 226 394 224 396 222 396 220 394" stroke="black"/>
<line clip-path="url(#clipPath36)" fill="none" x1="380" x2="302" y1="455" y2="455" stroke="black"/>
<line clip-path="url(#clipPath36)" fill="none" x1="302" x2="219" y1="455" y2="455" stroke="black"/>
<text x="290" y="467" clip-path="url(#clipPath69)" fill="black" stroke="none" xml:space="preserve"> + callEventExecution</text>
<text x="240" y="451" clip-path="url(#clipPath70)" fill="black" stroke="none" xml:space="preserve"> + behavior</text>
<text x="367" y="451" clip-path="url(#clipPath71)" fill="black" stroke="none" xml:space="preserve"> 1</text>
<text x="241" y="468" clip-path="url(#clipPath72)" fill="black" stroke="none" xml:space="preserve"> 1</text>
<polygon fill="black" clip-path="url(#clipPath73)" points=" 219 454 221 452 223 452 225 454 225 455 237 449 225 455 237 461 225 455 225 456 223 458 221 458 219 456" stroke="none"/>
<polygon fill="none" clip-path="url(#clipPath73)" points=" 219 454 221 452 223 452 225 454 225 455 237 449 225 455 237 461 225 455 225 456 223 458 221 458 219 456" stroke="black"/>
</g>
</g>
</svg>
