<?xml version="1.0" encoding="UTF-8"?><svg xmlns="http://www.w3.org/2000/svg" xmlns:xlink="http://www.w3.org/1999/xlink" stroke-dasharray="none" shape-rendering="auto" font-family="'Dialog'" width="720" text-rendering="auto" fill-opacity="1" contentScriptType="text/ecmascript" color-interpolation="auto" color-rendering="auto" preserveAspectRatio="xMidYMid meet" font-size="12" viewBox="0 0 720 440" fill="black" stroke="black" image-rendering="auto" stroke-miterlimit="10" zoomAndPan="magnify" version="1.0" stroke-linecap="square" stroke-linejoin="miter" contentStyleType="text/css" font-style="normal" height="440" stroke-width="1" stroke-dashoffset="0" font-weight="normal" stroke-opacity="1">
<!--Generated by the Batik Graphics2D SVG Generator-->
<defs id="genericDefs"/>
<g>
<defs id="defs1">
<clipPath clipPathUnits="userSpaceOnUse" id="clipPath1">
<path d="M9 368 L331 368 L331 431 L9 431 L9 368 Z"/>
</clipPath>
<clipPath clipPathUnits="userSpaceOnUse" id="clipPath2">
<path d="M146 371 L194 371 L194 384 L146 384 L146 371 Z"/>
</clipPath>
<clipPath clipPathUnits="userSpaceOnUse" id="clipPath3">
<path d="M9 383 L331 383 L331 402 L9 402 L9 383 Z"/>
</clipPath>
<clipPath clipPathUnits="userSpaceOnUse" id="clipPath4">
<path d="M14 403 L326 403 L326 416 L14 416 L14 403 Z"/>
</clipPath>
<clipPath clipPathUnits="userSpaceOnUse" id="clipPath5">
<path d="M14 414 L64 414 L64 427 L14 427 L14 414 Z"/>
</clipPath>
<clipPath clipPathUnits="userSpaceOnUse" id="clipPath6">
<path d="M9 401 L331 401 L331 430 L9 430 L9 401 Z"/>
</clipPath>
<clipPath clipPathUnits="userSpaceOnUse" id="clipPath7">
<path d="M53 260 L287 260 L287 313 L53 313 L53 260 Z"/>
</clipPath>
<clipPath clipPathUnits="userSpaceOnUse" id="clipPath8">
<path d="M54 274 L287 274 L287 287 L54 287 L54 274 Z"/>
</clipPath>
<clipPath clipPathUnits="userSpaceOnUse" id="clipPath9">
<path d="M147 286 L194 286 L194 299 L147 299 L147 286 Z"/>
</clipPath>
<clipPath clipPathUnits="userSpaceOnUse" id="clipPath10">
<path d="M53 150 L287 150 L287 203 L53 203 L53 150 Z"/>
</clipPath>
<clipPath clipPathUnits="userSpaceOnUse" id="clipPath11">
<path d="M54 164 L287 164 L287 177 L54 177 L54 164 Z"/>
</clipPath>
<clipPath clipPathUnits="userSpaceOnUse" id="clipPath12">
<path d="M156 176 L186 176 L186 189 L156 189 L156 176 Z"/>
</clipPath>
<clipPath clipPathUnits="userSpaceOnUse" id="clipPath13">
<path d="M477 146 L711 146 L711 199 L477 199 L477 146 Z"/>
</clipPath>
<clipPath clipPathUnits="userSpaceOnUse" id="clipPath14">
<path d="M478 160 L711 160 L711 173 L478 173 L478 160 Z"/>
</clipPath>
<clipPath clipPathUnits="userSpaceOnUse" id="clipPath15">
<path d="M558 172 L631 172 L631 185 L558 185 L558 172 Z"/>
</clipPath>
<clipPath clipPathUnits="userSpaceOnUse" id="clipPath16">
<path d="M477 372 L711 372 L711 425 L477 425 L477 372 Z"/>
</clipPath>
<clipPath clipPathUnits="userSpaceOnUse" id="clipPath17">
<path d="M478 386 L711 386 L711 399 L478 399 L478 386 Z"/>
</clipPath>
<clipPath clipPathUnits="userSpaceOnUse" id="clipPath18">
<path d="M549 398 L640 398 L640 411 L549 411 L549 398 Z"/>
</clipPath>
<clipPath clipPathUnits="userSpaceOnUse" id="clipPath19">
<path d="M477 9 L711 9 L711 62 L477 62 L477 9 Z"/>
</clipPath>
<clipPath clipPathUnits="userSpaceOnUse" id="clipPath20">
<path d="M478 23 L711 23 L711 36 L478 36 L478 23 Z"/>
</clipPath>
<clipPath clipPathUnits="userSpaceOnUse" id="clipPath21">
<path d="M557 35 L633 35 L633 48 L557 48 L557 35 Z"/>
</clipPath>
<clipPath clipPathUnits="userSpaceOnUse" id="clipPath22">
<path d="M-1 -1 L721 -1 L721 441 L-1 441 L-1 -1 Z"/>
</clipPath>
<clipPath clipPathUnits="userSpaceOnUse" id="clipPath23">
<path d="M160 311 L179 311 L179 324 L160 324 L160 311 Z"/>
</clipPath>
<clipPath clipPathUnits="userSpaceOnUse" id="clipPath24">
<path d="M160 201 L179 201 L179 214 L160 214 L160 201 Z"/>
</clipPath>
<clipPath clipPathUnits="userSpaceOnUse" id="clipPath25">
<path d="M381 159 L460 159 L460 172 L381 172 L381 159 Z"/>
</clipPath>
<clipPath clipPathUnits="userSpaceOnUse" id="clipPath26">
<path d="M329 159 L367 159 L367 172 L329 172 L329 159 Z"/>
</clipPath>
<clipPath clipPathUnits="userSpaceOnUse" id="clipPath27">
<path d="M440 174 L461 174 L461 187 L440 187 L440 174 Z"/>
</clipPath>
<clipPath clipPathUnits="userSpaceOnUse" id="clipPath28">
<path d="M332 175 L342 175 L342 188 L332 188 L332 175 Z"/>
</clipPath>
<clipPath clipPathUnits="userSpaceOnUse" id="clipPath29">
<path d="M459 166 L480 166 L480 181 L459 181 L459 166 Z"/>
</clipPath>
<clipPath clipPathUnits="userSpaceOnUse" id="clipPath30">
<path d="M285 166 L328 166 L328 181 L285 181 L285 166 Z"/>
</clipPath>
<clipPath clipPathUnits="userSpaceOnUse" id="clipPath31">
<path d="M587 197 L606 197 L606 210 L587 210 L587 197 Z"/>
</clipPath>
<clipPath clipPathUnits="userSpaceOnUse" id="clipPath32">
<path d="M600 77 L654 77 L654 90 L600 90 L600 77 Z"/>
</clipPath>
<clipPath clipPathUnits="userSpaceOnUse" id="clipPath33">
<path d="M583 81 L592 81 L592 94 L583 94 L583 81 Z"/>
</clipPath>
<clipPath clipPathUnits="userSpaceOnUse" id="clipPath34">
<path d="M570 123 L591 123 L591 136 L570 136 L570 123 Z"/>
</clipPath>
<clipPath clipPathUnits="userSpaceOnUse" id="clipPath35">
<path d="M588 60 L603 60 L603 81 L588 81 L588 60 Z"/>
</clipPath>
<clipPath clipPathUnits="userSpaceOnUse" id="clipPath36">
<path d="M590 130 L601 130 L601 149 L590 149 L590 130 Z"/>
</clipPath>
</defs>
<g font-size="11" fill="white" stroke-linejoin="round" stroke="white" stroke-width="0" stroke-miterlimit="0">
<rect x="10" y="369" clip-path="url(#clipPath1)" width="320" rx="0" ry="0" height="61" stroke="none"/>
</g>
<g font-size="9" font-family="'Helvetica'" stroke-linejoin="round" font-weight="bold" stroke-width="0" stroke-miterlimit="0">
<text xml:space="preserve" x="147" y="379" clip-path="url(#clipPath2)" stroke="none">SM_Object</text>
</g>
<g font-size="11" stroke-width="1.1" stroke-linecap="butt">
<line clip-path="url(#clipPath3)" fill="none" x1="10" x2="330" y1="384" y2="384"/>
<text x="15" font-size="9" y="411" clip-path="url(#clipPath4)" font-family="'Helvetica'" stroke="none" xml:space="preserve"> + startBehavior(  in classifier: Class [0..1],   in inputs: ParameterValue [*])</text>
<text x="15" font-size="9" y="422" clip-path="url(#clipPath5)" font-family="'Helvetica'" stroke="none" xml:space="preserve"> + destroy()</text>
<line clip-path="url(#clipPath6)" fill="none" x1="10" x2="330" y1="402" y2="402"/>
<rect x="10" y="369" clip-path="url(#clipPath1)" fill="none" width="319" rx="0" ry="0" height="60"/>
<rect x="54" y="261" clip-path="url(#clipPath7)" fill="silver" width="232" rx="0" ry="0" height="51" stroke="none"/>
<text x="57" font-size="9" y="282" clip-path="url(#clipPath8)" font-family="'Helvetica'" stroke="none" font-weight="bold" xml:space="preserve">(PSCS_Semantics::Semantics::StructuredClassifiers)</text>
<text x="148" font-size="9" y="294" clip-path="url(#clipPath9)" font-family="'Helvetica'" stroke="none" font-weight="bold" xml:space="preserve">CS_Object</text>
<rect x="54" y="261" clip-path="url(#clipPath7)" fill="none" width="231" rx="0" ry="0" height="50"/>
<rect x="54" y="151" clip-path="url(#clipPath10)" fill="silver" width="232" rx="0" ry="0" height="51" stroke="none"/>
<text x="58" font-size="9" y="172" clip-path="url(#clipPath11)" font-family="'Helvetica'" stroke="none" font-weight="bold" xml:space="preserve">(fUML_Semantics::Semantics::StructuredClassifiers)</text>
<text x="157" font-size="9" y="184" clip-path="url(#clipPath12)" font-family="'Helvetica'" stroke="none" font-weight="bold" xml:space="preserve">Object</text>
<rect x="54" y="151" clip-path="url(#clipPath10)" fill="none" width="231" rx="0" ry="0" height="50"/>
<rect x="478" y="147" clip-path="url(#clipPath13)" fill="silver" width="232" rx="0" ry="0" height="51" stroke="none"/>
<text x="490" font-size="9" y="168" clip-path="url(#clipPath14)" font-family="'Helvetica'" stroke="none" font-weight="bold" xml:space="preserve">(fUML_Semantics::Semantics::CommonBehavior)</text>
<text x="559" font-size="9" y="180" clip-path="url(#clipPath15)" font-family="'Helvetica'" stroke="none" font-weight="bold" xml:space="preserve">ObjectActivation</text>
<rect x="478" y="147" clip-path="url(#clipPath13)" fill="none" width="231" rx="0" ry="0" height="50"/>
<line clip-path="url(#clipPath13)" fill="none" x1="482" x2="482" y1="147" y2="197"/>
<line clip-path="url(#clipPath13)" fill="none" x1="705" x2="705" y1="147" y2="197"/>
<line clip-path="url(#clipPath13)" fill="none" x1="480" x2="480" y1="148" y2="196" stroke="silver" stroke-width="3.1"/>
<line clip-path="url(#clipPath13)" fill="none" x1="707" x2="707" y1="148" y2="196" stroke="silver" stroke-width="3.1"/>
<rect x="478" y="373" clip-path="url(#clipPath16)" fill="white" width="232" rx="0" ry="0" height="51" stroke="none" stroke-width="3.1"/>
</g>
<g stroke-width="3.1" font-size="9" font-family="'Helvetica'" font-weight="bold" stroke-linecap="butt">
<text xml:space="preserve" x="488" y="394" clip-path="url(#clipPath17)" stroke="none">(PSSM_Semantics::Semantics::CommonBehavior)</text>
<text xml:space="preserve" x="550" y="406" clip-path="url(#clipPath18)" stroke="none">SM_ObjectActivation</text>
</g>
<g font-size="11" stroke-width="1.1" stroke-linecap="butt">
<rect x="478" y="373" clip-path="url(#clipPath16)" fill="none" width="231" rx="0" ry="0" height="50"/>
<line clip-path="url(#clipPath16)" fill="none" x1="482" x2="482" y1="373" y2="423"/>
<line clip-path="url(#clipPath16)" fill="none" x1="705" x2="705" y1="373" y2="423"/>
<line clip-path="url(#clipPath16)" fill="none" x1="480" x2="480" y1="374" y2="422" stroke="white" stroke-width="3.1"/>
<line clip-path="url(#clipPath16)" fill="none" x1="707" x2="707" y1="374" y2="422" stroke="white" stroke-width="3.1"/>
<rect x="478" y="10" clip-path="url(#clipPath19)" fill="silver" width="232" rx="0" ry="0" height="51" stroke="none" stroke-width="3.1"/>
</g>
<g stroke-width="3.1" font-size="9" font-family="'Helvetica'" font-weight="bold" stroke-linecap="butt">
<text xml:space="preserve" x="490" y="31" clip-path="url(#clipPath20)" stroke="none">(fUML_Semantics::Semantics::CommonBehavior)</text>
<text xml:space="preserve" x="558" y="43" clip-path="url(#clipPath21)" stroke="none">EventOccurrence</text>
</g>
<g font-size="11" stroke-width="1.1" stroke-linecap="butt">
<rect x="478" y="10" clip-path="url(#clipPath19)" fill="none" width="231" rx="0" ry="0" height="50"/>
<line clip-path="url(#clipPath22)" fill="none" text-rendering="optimizeLegibility" x1="169" x2="169" y1="369" y2="312"/>
</g>
<g stroke-linecap="butt" font-size="9" fill="white" text-rendering="optimizeLegibility" font-family="'Helvetica'" stroke="white" stroke-width="1.1">
<polygon clip-path="url(#clipPath23)" points=" 169 312 177 322 161 322" stroke="none"/>
<polygon fill="none" clip-path="url(#clipPath23)" points=" 169 312 177 322 161 322" stroke="black"/>
<line clip-path="url(#clipPath22)" fill="none" x1="169" x2="169" y1="261" y2="202" stroke="black"/>
<polygon clip-path="url(#clipPath24)" points=" 169 202 177 212 161 212" stroke="none"/>
<polygon fill="none" clip-path="url(#clipPath24)" points=" 169 202 177 212 161 212" stroke="black"/>
<line clip-path="url(#clipPath22)" fill="none" x1="478" x2="286" y1="173" y2="173" stroke="black"/>
<text x="382" y="167" clip-path="url(#clipPath25)" fill="black" stroke="none" xml:space="preserve"> + objectActivation</text>
<text x="330" y="167" clip-path="url(#clipPath26)" fill="black" stroke="none" xml:space="preserve"> + object</text>
<text x="441" y="182" clip-path="url(#clipPath27)" fill="black" stroke="none" xml:space="preserve"> 0..1</text>
<text x="333" y="183" clip-path="url(#clipPath28)" fill="black" stroke="none" xml:space="preserve"> 1</text>
<polygon fill="black" clip-path="url(#clipPath29)" points=" 478 174 476 176 474 176 472 174 472 173 460 179 472 173 460 167 472 173 472 172 474 170 476 170 478 172" stroke="none"/>
<polygon fill="none" clip-path="url(#clipPath29)" points=" 478 174 476 176 474 176 472 174 472 173 460 179 472 173 460 167 472 173 472 172 474 170 476 170 478 172" stroke="black"/>
<polygon fill="black" clip-path="url(#clipPath30)" points=" 286 172 288 171 290 171 292 172 292 173 301 169 310 173 326 167 310 173 326 179 310 173 301 178 292 173 292 174 290 175 288 175 286 174" stroke="none"/>
<polygon fill="none" clip-path="url(#clipPath30)" points=" 286 172 288 171 290 171 292 172 292 173 301 169 310 173 326 167 310 173 326 179 310 173 301 178 292 173 292 174 290 175 288 175 286 174" stroke="black"/>
<line clip-path="url(#clipPath22)" fill="none" x1="596" x2="596" y1="373" y2="198" stroke="black"/>
<polygon clip-path="url(#clipPath31)" points=" 596 198 604 208 588 208" stroke="none"/>
<polygon fill="none" clip-path="url(#clipPath31)" points=" 596 198 604 208 588 208" stroke="black"/>
<line clip-path="url(#clipPath22)" fill="none" x1="595" x2="595" y1="61" y2="147" stroke="black"/>
<text x="601" y="85" clip-path="url(#clipPath32)" fill="black" stroke="none" xml:space="preserve"> + eventPool</text>
<text x="584" y="89" clip-path="url(#clipPath33)" fill="black" stroke="none" xml:space="preserve"> *</text>
<text x="571" y="131" clip-path="url(#clipPath34)" fill="black" stroke="none" xml:space="preserve"> 0..1</text>
<polygon fill="black" clip-path="url(#clipPath35)" points=" 596 61 598 63 598 65 596 67 595 67 601 79 595 67 589 79 595 67 594 67 592 65 592 63 594 61" stroke="none"/>
<polygon fill="none" clip-path="url(#clipPath35)" points=" 596 61 598 63 598 65 596 67 595 67 601 79 595 67 589 79 595 67 594 67 592 65 592 63 594 61" stroke="black"/>
<polygon fill="black" clip-path="url(#clipPath36)" points=" 595 147 591 139 595 131 599 139" stroke="none"/>
<polygon fill="none" clip-path="url(#clipPath36)" points=" 595 147 591 139 595 131 599 139" stroke="black"/>
</g>
</g>
</svg>
