<?xml version="1.0" encoding="UTF-8"?><svg xmlns="http://www.w3.org/2000/svg" xmlns:xlink="http://www.w3.org/1999/xlink" stroke-dasharray="none" shape-rendering="auto" font-family="'Dialog'" width="340" text-rendering="auto" fill-opacity="1" contentScriptType="text/ecmascript" color-interpolation="auto" color-rendering="auto" preserveAspectRatio="xMidYMid meet" font-size="12" viewBox="0 0 340 189" fill="black" stroke="black" image-rendering="auto" stroke-miterlimit="10" zoomAndPan="magnify" version="1.0" stroke-linecap="square" stroke-linejoin="miter" contentStyleType="text/css" font-style="normal" height="189" stroke-width="1" stroke-dashoffset="0" font-weight="normal" stroke-opacity="1">
<!--Generated by the Batik Graphics2D SVG Generator-->
<defs id="genericDefs"/>
<g>
<defs id="defs1">
<clipPath clipPathUnits="userSpaceOnUse" id="clipPath1">
<path d="M9 117 L331 117 L331 180 L9 180 L9 117 Z"/>
</clipPath>
<clipPath clipPathUnits="userSpaceOnUse" id="clipPath2">
<path d="M146 120 L194 120 L194 133 L146 133 L146 120 Z"/>
</clipPath>
<clipPath clipPathUnits="userSpaceOnUse" id="clipPath3">
<path d="M9 132 L331 132 L331 151 L9 151 L9 132 Z"/>
</clipPath>
<clipPath clipPathUnits="userSpaceOnUse" id="clipPath4">
<path d="M14 152 L326 152 L326 165 L14 165 L14 152 Z"/>
</clipPath>
<clipPath clipPathUnits="userSpaceOnUse" id="clipPath5">
<path d="M14 163 L64 163 L64 176 L14 176 L14 163 Z"/>
</clipPath>
<clipPath clipPathUnits="userSpaceOnUse" id="clipPath6">
<path d="M9 150 L331 150 L331 179 L9 179 L9 150 Z"/>
</clipPath>
<clipPath clipPathUnits="userSpaceOnUse" id="clipPath7">
<path d="M53 9 L287 9 L287 62 L53 62 L53 9 Z"/>
</clipPath>
<clipPath clipPathUnits="userSpaceOnUse" id="clipPath8">
<path d="M54 23 L287 23 L287 36 L54 36 L54 23 Z"/>
</clipPath>
<clipPath clipPathUnits="userSpaceOnUse" id="clipPath9">
<path d="M147 35 L194 35 L194 48 L147 48 L147 35 Z"/>
</clipPath>
<clipPath clipPathUnits="userSpaceOnUse" id="clipPath10">
<path d="M-1 -1 L341 -1 L341 190 L-1 190 L-1 -1 Z"/>
</clipPath>
<clipPath clipPathUnits="userSpaceOnUse" id="clipPath11">
<path d="M160 60 L179 60 L179 73 L160 73 L160 60 Z"/>
</clipPath>
</defs>
<g font-size="11" fill="white" stroke-linejoin="round" stroke="white" stroke-width="0" stroke-miterlimit="0">
<rect x="10" y="118" clip-path="url(#clipPath1)" width="320" rx="0" ry="0" height="61" stroke="none"/>
</g>
<g font-size="9" font-family="'Helvetica'" stroke-linejoin="round" font-weight="bold" stroke-width="0" stroke-miterlimit="0">
<text xml:space="preserve" x="147" y="128" clip-path="url(#clipPath2)" stroke="none">SM_Object</text>
</g>
<g font-size="11" stroke-width="1.1" stroke-linecap="butt">
<line clip-path="url(#clipPath3)" fill="none" x1="10" x2="330" y1="133" y2="133"/>
<text x="15" font-size="9" y="160" clip-path="url(#clipPath4)" font-family="'Helvetica'" stroke="none" xml:space="preserve"> + startBehavior(  in classifier: Class [0..1],   in inputs: ParameterValue [*])</text>
<text x="15" font-size="9" y="171" clip-path="url(#clipPath5)" font-family="'Helvetica'" stroke="none" xml:space="preserve"> + destroy()</text>
<line clip-path="url(#clipPath6)" fill="none" x1="10" x2="330" y1="151" y2="151"/>
<rect x="10" y="118" clip-path="url(#clipPath1)" fill="none" width="319" rx="0" ry="0" height="60"/>
<rect x="54" y="10" clip-path="url(#clipPath7)" fill="silver" width="232" rx="0" ry="0" height="51" stroke="none"/>
<text x="57" font-size="9" y="31" clip-path="url(#clipPath8)" font-family="'Helvetica'" stroke="none" font-weight="bold" xml:space="preserve">(PSCS_Semantics::Semantics::StructuredClassifiers)</text>
<text x="148" font-size="9" y="43" clip-path="url(#clipPath9)" font-family="'Helvetica'" stroke="none" font-weight="bold" xml:space="preserve">CS_Object</text>
<rect x="54" y="10" clip-path="url(#clipPath7)" fill="none" width="231" rx="0" ry="0" height="50"/>
<line clip-path="url(#clipPath10)" fill="none" text-rendering="optimizeLegibility" x1="169" x2="169" y1="118" y2="61"/>
</g>
<g stroke-linecap="butt" font-size="9" fill="white" text-rendering="optimizeLegibility" stroke="white" stroke-width="1.1">
<polygon clip-path="url(#clipPath11)" points=" 169 61 177 71 161 71" stroke="none"/>
<polygon fill="none" clip-path="url(#clipPath11)" points=" 169 61 177 71 161 71" stroke="black"/>
</g>
</g>
</svg>
