<?xml version="1.0" encoding="UTF-8"?><svg xmlns="http://www.w3.org/2000/svg" xmlns:xlink="http://www.w3.org/1999/xlink" stroke-dasharray="none" shape-rendering="auto" font-family="'Dialog'" width="707" text-rendering="auto" fill-opacity="1" contentScriptType="text/ecmascript" color-interpolation="auto" color-rendering="auto" preserveAspectRatio="xMidYMid meet" font-size="12" viewBox="0 0 707 772" fill="black" stroke="black" image-rendering="auto" stroke-miterlimit="10" zoomAndPan="magnify" version="1.0" stroke-linecap="square" stroke-linejoin="miter" contentStyleType="text/css" font-style="normal" height="772" stroke-width="1" stroke-dashoffset="0" font-weight="normal" stroke-opacity="1">
<!--Generated by the Batik Graphics2D SVG Generator-->
<defs id="genericDefs"/>
<g>
<defs id="defs1">
<clipPath clipPathUnits="userSpaceOnUse" id="clipPath1">
<path d="M35 367 L335 367 L335 439 L35 439 L35 367 Z"/>
</clipPath>
<clipPath clipPathUnits="userSpaceOnUse" id="clipPath2">
<path d="M161 370 L209 370 L209 385 L161 385 L161 370 Z"/>
</clipPath>
<clipPath clipPathUnits="userSpaceOnUse" id="clipPath3">
<path d="M35 384 L335 384 L335 404 L35 404 L35 384 Z"/>
</clipPath>
<clipPath clipPathUnits="userSpaceOnUse" id="clipPath4">
<path d="M40 405 L330 405 L330 420 L40 420 L40 405 Z"/>
</clipPath>
<clipPath clipPathUnits="userSpaceOnUse" id="clipPath5">
<path d="M40 418 L87 418 L87 433 L40 433 L40 418 Z"/>
</clipPath>
<clipPath clipPathUnits="userSpaceOnUse" id="clipPath6">
<path d="M35 403 L335 403 L335 438 L35 438 L35 403 Z"/>
</clipPath>
<clipPath clipPathUnits="userSpaceOnUse" id="clipPath7">
<path d="M68 260 L302 260 L302 313 L68 313 L68 260 Z"/>
</clipPath>
<clipPath clipPathUnits="userSpaceOnUse" id="clipPath8">
<path d="M79 272 L292 272 L292 287 L79 287 L79 272 Z"/>
</clipPath>
<clipPath clipPathUnits="userSpaceOnUse" id="clipPath9">
<path d="M164 286 L208 286 L208 301 L164 301 L164 286 Z"/>
</clipPath>
<clipPath clipPathUnits="userSpaceOnUse" id="clipPath10">
<path d="M68 150 L302 150 L302 203 L68 203 L68 150 Z"/>
</clipPath>
<clipPath clipPathUnits="userSpaceOnUse" id="clipPath11">
<path d="M78 162 L294 162 L294 177 L78 177 L78 162 Z"/>
</clipPath>
<clipPath clipPathUnits="userSpaceOnUse" id="clipPath12">
<path d="M171 176 L200 176 L200 191 L171 191 L171 176 Z"/>
</clipPath>
<clipPath clipPathUnits="userSpaceOnUse" id="clipPath13">
<path d="M464 146 L698 146 L698 199 L464 199 L464 146 Z"/>
</clipPath>
<clipPath clipPathUnits="userSpaceOnUse" id="clipPath14">
<path d="M479 158 L684 158 L684 173 L479 173 L479 158 Z"/>
</clipPath>
<clipPath clipPathUnits="userSpaceOnUse" id="clipPath15">
<path d="M546 172 L617 172 L617 187 L546 187 L546 172 Z"/>
</clipPath>
<clipPath clipPathUnits="userSpaceOnUse" id="clipPath16">
<path d="M461 367 L695 367 L695 420 L461 420 L461 367 Z"/>
</clipPath>
<clipPath clipPathUnits="userSpaceOnUse" id="clipPath17">
<path d="M476 379 L682 379 L682 394 L476 394 L476 379 Z"/>
</clipPath>
<clipPath clipPathUnits="userSpaceOnUse" id="clipPath18">
<path d="M534 393 L624 393 L624 408 L534 408 L534 393 Z"/>
</clipPath>
<clipPath clipPathUnits="userSpaceOnUse" id="clipPath19">
<path d="M464 9 L698 9 L698 62 L464 62 L464 9 Z"/>
</clipPath>
<clipPath clipPathUnits="userSpaceOnUse" id="clipPath20">
<path d="M479 21 L684 21 L684 36 L479 36 L479 21 Z"/>
</clipPath>
<clipPath clipPathUnits="userSpaceOnUse" id="clipPath21">
<path d="M546 35 L618 35 L618 50 L546 50 L546 35 Z"/>
</clipPath>
<clipPath clipPathUnits="userSpaceOnUse" id="clipPath22">
<path d="M9 693 L355 693 L355 763 L9 763 L9 693 Z"/>
</clipPath>
<clipPath clipPathUnits="userSpaceOnUse" id="clipPath23">
<path d="M99 696 L264 696 L264 711 L99 711 L99 696 Z"/>
</clipPath>
<clipPath clipPathUnits="userSpaceOnUse" id="clipPath24">
<path d="M9 710 L355 710 L355 730 L9 730 L9 710 Z"/>
</clipPath>
<clipPath clipPathUnits="userSpaceOnUse" id="clipPath25">
<path d="M14 731 L325 731 L325 746 L14 746 L14 731 Z"/>
</clipPath>
<clipPath clipPathUnits="userSpaceOnUse" id="clipPath26">
<path d="M14 744 L317 744 L317 759 L14 759 L14 744 Z"/>
</clipPath>
<clipPath clipPathUnits="userSpaceOnUse" id="clipPath27">
<path d="M9 729 L355 729 L355 762 L9 762 L9 729 Z"/>
</clipPath>
<clipPath clipPathUnits="userSpaceOnUse" id="clipPath28">
<path d="M70 585 L293 585 L293 636 L70 636 L70 585 Z"/>
</clipPath>
<clipPath clipPathUnits="userSpaceOnUse" id="clipPath29">
<path d="M76 596 L289 596 L289 611 L76 611 L76 596 Z"/>
</clipPath>
<clipPath clipPathUnits="userSpaceOnUse" id="clipPath30">
<path d="M95 610 L270 610 L270 625 L95 625 L95 610 Z"/>
</clipPath>
<clipPath clipPathUnits="userSpaceOnUse" id="clipPath31">
<path d="M64 474 L299 474 L299 525 L64 525 L64 474 Z"/>
</clipPath>
<clipPath clipPathUnits="userSpaceOnUse" id="clipPath32">
<path d="M74 485 L290 485 L290 500 L74 500 L74 485 Z"/>
</clipPath>
<clipPath clipPathUnits="userSpaceOnUse" id="clipPath33">
<path d="M109 499 L255 499 L255 514 L109 514 L109 499 Z"/>
</clipPath>
<clipPath clipPathUnits="userSpaceOnUse" id="clipPath34">
<path d="M-1 -1 L708 -1 L708 773 L-1 773 L-1 -1 Z"/>
</clipPath>
<clipPath clipPathUnits="userSpaceOnUse" id="clipPath35">
<path d="M175 311 L194 311 L194 324 L175 324 L175 311 Z"/>
</clipPath>
<clipPath clipPathUnits="userSpaceOnUse" id="clipPath36">
<path d="M175 201 L194 201 L194 214 L175 214 L175 201 Z"/>
</clipPath>
<clipPath clipPathUnits="userSpaceOnUse" id="clipPath37">
<path d="M367 175 L444 175 L444 190 L367 190 L367 175 Z"/>
</clipPath>
<clipPath clipPathUnits="userSpaceOnUse" id="clipPath38">
<path d="M343 156 L378 156 L378 171 L343 171 L343 156 Z"/>
</clipPath>
<clipPath clipPathUnits="userSpaceOnUse" id="clipPath39">
<path d="M425 156 L445 156 L445 171 L425 171 L425 156 Z"/>
</clipPath>
<clipPath clipPathUnits="userSpaceOnUse" id="clipPath40">
<path d="M345 175 L354 175 L354 190 L345 190 L345 175 Z"/>
</clipPath>
<clipPath clipPathUnits="userSpaceOnUse" id="clipPath41">
<path d="M446 166 L467 166 L467 181 L446 181 L446 166 Z"/>
</clipPath>
<clipPath clipPathUnits="userSpaceOnUse" id="clipPath42">
<path d="M300 166 L343 166 L343 181 L300 181 L300 166 Z"/>
</clipPath>
<clipPath clipPathUnits="userSpaceOnUse" id="clipPath43">
<path d="M574 197 L593 197 L593 210 L574 210 L574 197 Z"/>
</clipPath>
<clipPath clipPathUnits="userSpaceOnUse" id="clipPath44">
<path d="M589 76 L640 76 L640 91 L589 91 L589 76 Z"/>
</clipPath>
<clipPath clipPathUnits="userSpaceOnUse" id="clipPath45">
<path d="M568 79 L577 79 L577 94 L568 94 L568 79 Z"/>
</clipPath>
<clipPath clipPathUnits="userSpaceOnUse" id="clipPath46">
<path d="M556 108 L576 108 L576 123 L556 123 L556 108 Z"/>
</clipPath>
<clipPath clipPathUnits="userSpaceOnUse" id="clipPath47">
<path d="M575 60 L590 60 L590 81 L575 81 L575 60 Z"/>
</clipPath>
<clipPath clipPathUnits="userSpaceOnUse" id="clipPath48">
<path d="M577 130 L588 130 L588 149 L577 149 L577 130 Z"/>
</clipPath>
<clipPath clipPathUnits="userSpaceOnUse" id="clipPath49">
<path d="M170 523 L189 523 L189 536 L170 536 L170 523 Z"/>
</clipPath>
<clipPath clipPathUnits="userSpaceOnUse" id="clipPath50">
<path d="M172 634 L191 634 L191 647 L172 647 L172 634 Z"/>
</clipPath>
</defs>
<g font-size="11" fill="white" stroke-linejoin="round" stroke="white" stroke-width="0" stroke-miterlimit="0">
<rect x="36" y="368" clip-path="url(#clipPath1)" width="298" rx="0" ry="0" height="70" stroke="none"/>
</g>
<g font-size="10" font-family="'Calibri'" stroke-linejoin="round" font-weight="bold" stroke-width="0" stroke-miterlimit="0">
<text xml:space="preserve" x="162" y="381" clip-path="url(#clipPath2)" stroke="none">SM_Object</text>
</g>
<g font-size="11" stroke-width="1.1" stroke-linecap="butt">
<line clip-path="url(#clipPath3)" fill="none" x1="36" x2="334" y1="385" y2="385"/>
<text x="41" font-size="10" y="416" clip-path="url(#clipPath4)" font-family="'Calibri'" stroke="none" xml:space="preserve"> + startBehavior(  in classifier: Class [0..1],   in inputs: ParameterValue [*])</text>
<text x="41" font-size="10" y="429" clip-path="url(#clipPath5)" font-family="'Calibri'" stroke="none" xml:space="preserve"> + destroy()</text>
<line clip-path="url(#clipPath6)" fill="none" x1="36" x2="334" y1="404" y2="404"/>
<rect x="36" y="368" clip-path="url(#clipPath1)" fill="none" width="297" rx="0" ry="0" height="69"/>
<rect x="69" y="261" clip-path="url(#clipPath7)" fill="silver" width="232" rx="0" ry="0" height="51" stroke="none"/>
<text x="80" font-size="10" y="283" clip-path="url(#clipPath8)" font-family="'Calibri'" stroke="none" font-weight="bold" xml:space="preserve">(PSCS_Semantics::Semantics::StructuredClassifiers)</text>
<text x="165" font-size="10" y="297" clip-path="url(#clipPath9)" font-family="'Calibri'" stroke="none" font-weight="bold" xml:space="preserve">CS_Object</text>
<rect x="69" y="261" clip-path="url(#clipPath7)" fill="none" width="231" rx="0" ry="0" height="50"/>
<rect x="69" y="151" clip-path="url(#clipPath10)" fill="silver" width="232" rx="0" ry="0" height="51" stroke="none"/>
<text x="79" font-size="10" y="173" clip-path="url(#clipPath11)" font-family="'Calibri'" stroke="none" font-weight="bold" xml:space="preserve">(fUML_Semantics::Semantics::StructuredClassifiers)</text>
<text x="172" font-size="10" y="187" clip-path="url(#clipPath12)" font-family="'Calibri'" stroke="none" font-weight="bold" xml:space="preserve">Object</text>
<rect x="69" y="151" clip-path="url(#clipPath10)" fill="none" width="231" rx="0" ry="0" height="50"/>
<rect x="465" y="147" clip-path="url(#clipPath13)" fill="silver" width="232" rx="0" ry="0" height="51" stroke="none"/>
<text x="480" font-size="10" y="169" clip-path="url(#clipPath14)" font-family="'Calibri'" stroke="none" font-weight="bold" xml:space="preserve">(fUML_Semantics::Semantics::CommonBehavior)</text>
<text x="547" font-size="10" y="183" clip-path="url(#clipPath15)" font-family="'Calibri'" stroke="none" font-weight="bold" xml:space="preserve">ObjectActivation</text>
<rect x="465" y="147" clip-path="url(#clipPath13)" fill="none" width="231" rx="0" ry="0" height="50"/>
<line clip-path="url(#clipPath13)" fill="none" x1="469" x2="469" y1="147" y2="197"/>
<line clip-path="url(#clipPath13)" fill="none" x1="692" x2="692" y1="147" y2="197"/>
<line clip-path="url(#clipPath13)" fill="none" x1="467" x2="467" y1="148" y2="196" stroke="silver" stroke-width="3.1"/>
<line clip-path="url(#clipPath13)" fill="none" x1="694" x2="694" y1="148" y2="196" stroke="silver" stroke-width="3.1"/>
<rect x="462" y="368" clip-path="url(#clipPath16)" fill="white" width="232" rx="0" ry="0" height="51" stroke="none" stroke-width="3.1"/>
</g>
<g stroke-width="3.1" font-size="10" font-family="'Calibri'" font-weight="bold" stroke-linecap="butt">
<text xml:space="preserve" x="477" y="390" clip-path="url(#clipPath17)" stroke="none">(PSSM_Semantics::Semantics::CommonBehavior)</text>
<text xml:space="preserve" x="535" y="404" clip-path="url(#clipPath18)" stroke="none">SM_ObjectActivation</text>
</g>
<g font-size="11" stroke-width="1.1" stroke-linecap="butt">
<rect x="462" y="368" clip-path="url(#clipPath16)" fill="none" width="231" rx="0" ry="0" height="50"/>
<line clip-path="url(#clipPath16)" fill="none" x1="466" x2="466" y1="368" y2="418"/>
<line clip-path="url(#clipPath16)" fill="none" x1="689" x2="689" y1="368" y2="418"/>
<line clip-path="url(#clipPath16)" fill="none" x1="464" x2="464" y1="369" y2="417" stroke="white" stroke-width="3.1"/>
<line clip-path="url(#clipPath16)" fill="none" x1="691" x2="691" y1="369" y2="417" stroke="white" stroke-width="3.1"/>
<rect x="465" y="10" clip-path="url(#clipPath19)" fill="silver" width="232" rx="0" ry="0" height="51" stroke="none" stroke-width="3.1"/>
</g>
<g stroke-width="3.1" font-size="10" font-family="'Calibri'" font-weight="bold" stroke-linecap="butt">
<text xml:space="preserve" x="480" y="32" clip-path="url(#clipPath20)" stroke="none">(fUML_Semantics::Semantics::CommonBehavior)</text>
<text xml:space="preserve" x="547" y="46" clip-path="url(#clipPath21)" stroke="none">EventOccurrence</text>
</g>
<g font-size="11" stroke-width="1.1" stroke-linecap="butt">
<rect x="465" y="10" clip-path="url(#clipPath19)" fill="none" width="231" rx="0" ry="0" height="50"/>
<rect x="10" y="694" clip-path="url(#clipPath22)" fill="white" width="344" rx="0" ry="0" height="68" stroke="none"/>
<text x="100" font-size="10" y="707" clip-path="url(#clipPath23)" font-family="'Calibri'" stroke="none" font-weight="bold" xml:space="preserve">SM_RedefinitionBasedDispatchStrategy</text>
<line clip-path="url(#clipPath24)" fill="none" x1="10" x2="354" y1="711" y2="711"/>
<text x="15" font-size="10" y="742" clip-path="url(#clipPath25)" font-family="'Calibri'" stroke="none" xml:space="preserve"> + getMethod(  in object: Object [1],   in operation: Operation [1]): Behavior [1]</text>
<text x="15" font-size="10" y="755" clip-path="url(#clipPath26)" font-family="'Calibri'" stroke="none" xml:space="preserve"> + dispatch(  in object: Object [1],   in operation: Operation [1]): Execution [1]</text>
<line clip-path="url(#clipPath27)" fill="none" x1="10" x2="354" y1="730" y2="730"/>
<rect x="10" y="694" clip-path="url(#clipPath22)" fill="none" width="343" rx="0" ry="0" height="67"/>
<rect x="71" y="586" clip-path="url(#clipPath28)" fill="silver" width="221" rx="0" ry="0" height="49" stroke="none"/>
<text x="77" font-size="10" y="607" clip-path="url(#clipPath29)" font-family="'Calibri'" stroke="none" font-weight="bold" xml:space="preserve">(PSCS_Semantics::Semantics::StructuredClassifiers)</text>
<text x="96" font-size="10" y="621" clip-path="url(#clipPath30)" font-family="'Calibri'" stroke="none" font-weight="bold" xml:space="preserve">CS_DispatchOperationOfInterfaceStrategy</text>
<rect x="71" y="586" clip-path="url(#clipPath28)" fill="none" width="220" rx="0" ry="0" height="48"/>
<rect x="65" y="475" clip-path="url(#clipPath31)" fill="silver" width="233" rx="0" ry="0" height="49" stroke="none"/>
<text x="75" font-size="10" y="496" clip-path="url(#clipPath32)" font-family="'Calibri'" stroke="none" font-weight="bold" xml:space="preserve">(fUML_Semantics::Semantics::StructuredClassifiers)</text>
<text x="110" font-size="10" y="510" clip-path="url(#clipPath33)" font-family="'Calibri'" stroke="none" font-weight="bold" xml:space="preserve">RedefinitionBasedDispatchStrategy</text>
<rect x="65" y="475" clip-path="url(#clipPath31)" fill="none" width="232" rx="0" ry="0" height="48"/>
<line clip-path="url(#clipPath34)" fill="none" text-rendering="optimizeLegibility" x1="184" x2="184" y1="368" y2="340"/>
<line clip-path="url(#clipPath34)" fill="none" text-rendering="optimizeLegibility" x1="184" x2="184" y1="340" y2="312"/>
</g>
<g stroke-linecap="butt" font-size="10" fill="white" text-rendering="optimizeLegibility" font-family="'Calibri'" stroke="white" stroke-width="1.1">
<polygon clip-path="url(#clipPath35)" points=" 184 312 192 322 176 322" stroke="none"/>
<polygon fill="none" clip-path="url(#clipPath35)" points=" 184 312 192 322 176 322" stroke="black"/>
<line clip-path="url(#clipPath34)" fill="none" x1="184" x2="184" y1="261" y2="202" stroke="black"/>
<polygon clip-path="url(#clipPath36)" points=" 184 202 192 212 176 212" stroke="none"/>
<polygon fill="none" clip-path="url(#clipPath36)" points=" 184 202 192 212 176 212" stroke="black"/>
<line clip-path="url(#clipPath34)" fill="none" x1="465" x2="301" y1="173" y2="173" stroke="black"/>
<text x="368" y="186" clip-path="url(#clipPath37)" fill="black" stroke="none" xml:space="preserve"> + objectActivation</text>
<text x="344" y="167" clip-path="url(#clipPath38)" fill="black" stroke="none" xml:space="preserve"> + object</text>
<text x="426" y="167" clip-path="url(#clipPath39)" fill="black" stroke="none" xml:space="preserve"> 0..1</text>
<text x="346" y="186" clip-path="url(#clipPath40)" fill="black" stroke="none" xml:space="preserve"> 1</text>
<polygon fill="black" clip-path="url(#clipPath41)" points=" 465 174 463 176 461 176 459 174 459 173 447 179 459 173 447 167 459 173 459 172 461 170 463 170 465 172" stroke="none"/>
<polygon fill="none" clip-path="url(#clipPath41)" points=" 465 174 463 176 461 176 459 174 459 173 447 179 459 173 447 167 459 173 459 172 461 170 463 170 465 172" stroke="black"/>
<polygon fill="black" clip-path="url(#clipPath42)" points=" 301 172 303 171 305 171 307 172 307 173 316 169 325 173 341 167 325 173 341 179 325 173 316 178 307 173 307 174 305 175 303 175 301 174" stroke="none"/>
<polygon fill="none" clip-path="url(#clipPath42)" points=" 301 172 303 171 305 171 307 172 307 173 316 169 325 173 341 167 325 173 341 179 325 173 316 178 307 173 307 174 305 175 303 175 301 174" stroke="black"/>
<line clip-path="url(#clipPath34)" fill="none" x1="583" x2="583" y1="368" y2="198" stroke="black"/>
<polygon clip-path="url(#clipPath43)" points=" 583 198 591 208 575 208" stroke="none"/>
<polygon fill="none" clip-path="url(#clipPath43)" points=" 583 198 591 208 575 208" stroke="black"/>
<line clip-path="url(#clipPath34)" fill="none" x1="582" x2="582" y1="61" y2="147" stroke="black"/>
<text x="590" y="87" clip-path="url(#clipPath44)" fill="black" stroke="none" xml:space="preserve"> + eventPool</text>
<text x="569" y="90" clip-path="url(#clipPath45)" fill="black" stroke="none" xml:space="preserve"> *</text>
<text x="557" y="119" clip-path="url(#clipPath46)" fill="black" stroke="none" xml:space="preserve"> 0..1</text>
<polygon fill="black" clip-path="url(#clipPath47)" points=" 583 61 585 63 585 65 583 67 582 67 588 79 582 67 576 79 582 67 581 67 579 65 579 63 581 61" stroke="none"/>
<polygon fill="none" clip-path="url(#clipPath47)" points=" 583 61 585 63 585 65 583 67 582 67 588 79 582 67 576 79 582 67 581 67 579 65 579 63 581 61" stroke="black"/>
<polygon fill="black" clip-path="url(#clipPath48)" points=" 582 147 578 139 582 131 586 139" stroke="none"/>
<polygon fill="none" clip-path="url(#clipPath48)" points=" 582 147 578 139 582 131 586 139" stroke="black"/>
<line clip-path="url(#clipPath34)" fill="none" x1="179" x2="179" y1="586" y2="524" stroke="black"/>
<polygon clip-path="url(#clipPath49)" points=" 179 524 187 534 171 534" stroke="none"/>
<polygon fill="none" clip-path="url(#clipPath49)" points=" 179 524 187 534 171 534" stroke="black"/>
<line clip-path="url(#clipPath34)" fill="none" x1="181" x2="181" y1="694" y2="635" stroke="black"/>
<polygon clip-path="url(#clipPath50)" points=" 181 635 189 645 173 645" stroke="none"/>
<polygon fill="none" clip-path="url(#clipPath50)" points=" 181 635 189 645 173 645" stroke="black"/>
</g>
</g>
</svg>
