<?xml version="1.0" encoding="UTF-8"?><svg xmlns="http://www.w3.org/2000/svg" xmlns:xlink="http://www.w3.org/1999/xlink" stroke-dasharray="none" shape-rendering="auto" font-family="'Dialog'" width="488" text-rendering="auto" fill-opacity="1" contentScriptType="text/ecmascript" color-interpolation="auto" color-rendering="auto" preserveAspectRatio="xMidYMid meet" font-size="12" viewBox="0 0 488 355" fill="black" stroke="black" image-rendering="auto" stroke-miterlimit="10" zoomAndPan="magnify" version="1.0" stroke-linecap="square" stroke-linejoin="miter" contentStyleType="text/css" font-style="normal" height="355" stroke-width="1" stroke-dashoffset="0" font-weight="normal" stroke-opacity="1">
<!--Generated by the Batik Graphics2D SVG Generator-->
<defs id="genericDefs"/>
<g>
<defs id="defs1">
<clipPath clipPathUnits="userSpaceOnUse" id="clipPath1">
<path d="M11 122 L454 122 L454 204 L11 204 L11 122 Z"/>
</clipPath>
<clipPath clipPathUnits="userSpaceOnUse" id="clipPath2">
<path d="M160 125 L305 125 L305 137 L160 137 L160 125 Z"/>
</clipPath>
<clipPath clipPathUnits="userSpaceOnUse" id="clipPath3">
<path d="M16 138 L192 138 L192 150 L16 150 L16 138 Z"/>
</clipPath>
<clipPath clipPathUnits="userSpaceOnUse" id="clipPath4">
<path d="M16 148 L247 148 L247 160 L16 160 L16 148 Z"/>
</clipPath>
<clipPath clipPathUnits="userSpaceOnUse" id="clipPath5">
<path d="M16 158 L317 158 L317 170 L16 170 L16 158 Z"/>
</clipPath>
<clipPath clipPathUnits="userSpaceOnUse" id="clipPath6">
<path d="M16 168 L278 168 L278 180 L16 180 L16 168 Z"/>
</clipPath>
<clipPath clipPathUnits="userSpaceOnUse" id="clipPath7">
<path d="M11 136 L454 136 L454 204 L11 204 L11 136 Z"/>
</clipPath>
<clipPath clipPathUnits="userSpaceOnUse" id="clipPath8">
<path d="M237 9 L479 9 L479 62 L237 62 L237 9 Z"/>
</clipPath>
<clipPath clipPathUnits="userSpaceOnUse" id="clipPath9">
<path d="M245 24 L473 24 L473 36 L245 36 L245 24 Z"/>
</clipPath>
<clipPath clipPathUnits="userSpaceOnUse" id="clipPath10">
<path d="M344 35 L374 35 L374 47 L344 47 L344 35 Z"/>
</clipPath>
<clipPath clipPathUnits="userSpaceOnUse" id="clipPath11">
<path d="M9 10 L228 10 L228 63 L9 63 L9 10 Z"/>
</clipPath>
<clipPath clipPathUnits="userSpaceOnUse" id="clipPath12">
<path d="M35 25 L203 25 L203 37 L35 37 L35 25 Z"/>
</clipPath>
<clipPath clipPathUnits="userSpaceOnUse" id="clipPath13">
<path d="M47 36 L191 36 L191 48 L47 48 L47 36 Z"/>
</clipPath>
<clipPath clipPathUnits="userSpaceOnUse" id="clipPath14">
<path d="M113 273 L351 273 L351 333 L113 333 L113 273 Z"/>
</clipPath>
<clipPath clipPathUnits="userSpaceOnUse" id="clipPath15">
<path d="M127 292 L338 292 L338 304 L127 304 L127 292 Z"/>
</clipPath>
<clipPath clipPathUnits="userSpaceOnUse" id="clipPath16">
<path d="M197 303 L268 303 L268 315 L197 315 L197 303 Z"/>
</clipPath>
<clipPath clipPathUnits="userSpaceOnUse" id="clipPath17">
<path d="M-1 -1 L489 -1 L489 356 L-1 356 L-1 -1 Z"/>
</clipPath>
<clipPath clipPathUnits="userSpaceOnUse" id="clipPath18">
<path d="M224 106 L356 106 L356 118 L224 118 L224 106 Z"/>
</clipPath>
<clipPath clipPathUnits="userSpaceOnUse" id="clipPath19">
<path d="M312 81 L356 81 L356 93 L312 93 L312 81 Z"/>
</clipPath>
<clipPath clipPathUnits="userSpaceOnUse" id="clipPath20">
<path d="M363 108 L372 108 L372 120 L363 120 L363 108 Z"/>
</clipPath>
<clipPath clipPathUnits="userSpaceOnUse" id="clipPath21">
<path d="M362 82 L383 82 L383 94 L362 94 L362 82 Z"/>
</clipPath>
<clipPath clipPathUnits="userSpaceOnUse" id="clipPath22">
<path d="M351 60 L366 60 L366 81 L351 81 L351 60 Z"/>
</clipPath>
<clipPath clipPathUnits="userSpaceOnUse" id="clipPath23">
<path d="M106 61 L125 61 L125 74 L106 74 L106 61 Z"/>
</clipPath>
<clipPath clipPathUnits="userSpaceOnUse" id="clipPath24">
<path d="M142 238 L224 238 L224 250 L142 250 L142 238 Z"/>
</clipPath>
<clipPath clipPathUnits="userSpaceOnUse" id="clipPath25">
<path d="M234 206 L244 206 L244 218 L234 218 L234 206 Z"/>
</clipPath>
<clipPath clipPathUnits="userSpaceOnUse" id="clipPath26">
<path d="M234 242 L243 242 L243 254 L234 254 L234 242 Z"/>
</clipPath>
<clipPath clipPathUnits="userSpaceOnUse" id="clipPath27">
<path d="M223 255 L238 255 L238 276 L223 276 L223 255 Z"/>
</clipPath>
</defs>
<g font-size="11" fill="white" stroke-linejoin="round" stroke="white" stroke-width="0" stroke-miterlimit="0">
<rect x="12" y="123" clip-path="url(#clipPath1)" width="441" rx="0" ry="0" height="80" stroke="none"/>
</g>
<g font-size="9" font-family="'Arial'" stroke-linejoin="round" font-weight="bold" stroke-width="0" stroke-miterlimit="0">
<text xml:space="preserve" x="161" y="135" clip-path="url(#clipPath2)" stroke="none">SM_OpaqueExpressionEvaluation</text>
<text x="17" y="148" clip-path="url(#clipPath3)" stroke="none" font-weight="normal" xml:space="preserve"> + executeExpressionBehavior(): Value [*]</text>
<text x="17" y="158" clip-path="url(#clipPath4)" stroke="none" font-weight="normal" xml:space="preserve"> + initialize(  in eventOccurrence: EventOccurrence [1])</text>
<text x="17" y="168" clip-path="url(#clipPath5)" stroke="none" font-weight="normal" xml:space="preserve"> + getParameterValue(  in parameter: Parameter [1]): ParameterValue [1]</text>
<text x="17" y="178" clip-path="url(#clipPath6)" stroke="none" font-weight="normal" xml:space="preserve"> + setParameterValue(  in parameterValue: ParameterValue [1])</text>
</g>
<g font-size="11" stroke-width="1.1" stroke-linecap="butt">
<line clip-path="url(#clipPath7)" fill="none" x1="12" x2="453" y1="137" y2="137"/>
<rect x="12" y="123" clip-path="url(#clipPath1)" fill="none" width="440" rx="0" ry="0" height="79"/>
<rect x="238" y="10" clip-path="url(#clipPath8)" fill="silver" width="240" rx="0" ry="0" height="51" stroke="none"/>
<text x="246" font-size="9" y="34" clip-path="url(#clipPath9)" font-family="'Arial'" stroke="none" font-weight="bold" xml:space="preserve">(fUML_Semantics::Semantics::StructuredClassifiers)</text>
<text x="345" font-size="9" y="45" clip-path="url(#clipPath10)" font-family="'Arial'" stroke="none" font-weight="bold" xml:space="preserve">Object</text>
<rect x="238" y="10" clip-path="url(#clipPath8)" fill="none" width="239" rx="0" ry="0" height="50"/>
<rect x="10" y="11" clip-path="url(#clipPath11)" fill="silver" width="217" rx="0" ry="0" height="51" stroke="none"/>
<text x="36" font-size="9" y="35" clip-path="url(#clipPath12)" font-family="'Arial'" stroke="none" font-weight="bold" xml:space="preserve">(PSCS_Semantics::Semantics::Values)</text>
<text x="48" font-size="9" y="46" clip-path="url(#clipPath13)" font-family="'Arial'" stroke="none" font-weight="bold" xml:space="preserve">CS_OpaqueExpressionEvaluation</text>
<rect x="10" y="11" clip-path="url(#clipPath11)" fill="none" width="216" rx="0" ry="0" height="50"/>
<rect x="114" y="274" clip-path="url(#clipPath14)" fill="silver" width="236" rx="0" ry="0" height="58" stroke="none"/>
<text x="128" font-size="9" y="302" clip-path="url(#clipPath15)" font-family="'Arial'" stroke="none" font-weight="bold" xml:space="preserve">(fUML_Semantics::Semantics::CommonBehavior)</text>
<text x="198" font-size="9" y="313" clip-path="url(#clipPath16)" font-family="'Arial'" stroke="none" font-weight="bold" xml:space="preserve">ParameterValue</text>
<rect x="114" y="274" clip-path="url(#clipPath14)" fill="none" width="235" rx="0" ry="0" height="57"/>
<line clip-path="url(#clipPath17)" fill="none" text-rendering="optimizeLegibility" x1="358" x2="358" y1="123" y2="61"/>
<text x="225" font-size="9" y="116" clip-path="url(#clipPath18)" text-rendering="optimizeLegibility" font-family="'Arial'" stroke="none" xml:space="preserve"> + opaqueExpressionEvaluation</text>
<text x="313" font-size="9" y="91" clip-path="url(#clipPath19)" text-rendering="optimizeLegibility" font-family="'Arial'" stroke="none" xml:space="preserve"> + context</text>
<text x="364" font-size="9" y="118" clip-path="url(#clipPath20)" text-rendering="optimizeLegibility" font-family="'Arial'" stroke="none" xml:space="preserve"> *</text>
<text x="363" font-size="9" y="92" clip-path="url(#clipPath21)" text-rendering="optimizeLegibility" font-family="'Arial'" stroke="none" xml:space="preserve"> 0..1</text>
<polygon text-rendering="optimizeLegibility" clip-path="url(#clipPath22)" points=" 359 61 361 63 361 65 359 67 358 67 364 79 358 67 352 79 358 67 357 67 355 65 355 63 357 61" stroke="none"/>
<polygon fill="none" text-rendering="optimizeLegibility" clip-path="url(#clipPath22)" points=" 359 61 361 63 361 65 359 67 358 67 364 79 358 67 352 79 358 67 357 67 355 65 355 63 357 61"/>
<line clip-path="url(#clipPath17)" fill="none" text-rendering="optimizeLegibility" x1="115" x2="115" y1="123" y2="62"/>
</g>
<g stroke-linecap="butt" font-size="9" fill="white" text-rendering="optimizeLegibility" font-family="'Arial'" stroke="white" stroke-width="1.1">
<polygon clip-path="url(#clipPath23)" points=" 115 62 123 72 107 72" stroke="none"/>
<polygon fill="none" clip-path="url(#clipPath23)" points=" 115 62 123 72 107 72" stroke="black"/>
<line clip-path="url(#clipPath17)" fill="none" x1="230" x2="230" y1="203" y2="274" stroke="black"/>
<text x="143" y="248" clip-path="url(#clipPath24)" fill="black" stroke="none" xml:space="preserve"> + parameterValues</text>
<text x="235" y="216" clip-path="url(#clipPath25)" fill="black" stroke="none" xml:space="preserve"> 1</text>
<text x="235" y="252" clip-path="url(#clipPath26)" fill="black" stroke="none" xml:space="preserve"> *</text>
<polygon fill="black" clip-path="url(#clipPath27)" points=" 229 274 227 272 227 270 229 268 230 268 224 256 230 268 236 256 230 268 231 268 233 270 233 272 231 274" stroke="none"/>
<polygon fill="none" clip-path="url(#clipPath27)" points=" 229 274 227 272 227 270 229 268 230 268 224 256 230 268 236 256 230 268 231 268 233 270 233 272 231 274" stroke="black"/>
</g>
</g>
</svg>
