<?xml version="1.0" encoding="UTF-8"?><svg xmlns="http://www.w3.org/2000/svg" xmlns:xlink="http://www.w3.org/1999/xlink" stroke-dasharray="none" shape-rendering="auto" font-family="'Dialog'" width="300" text-rendering="auto" fill-opacity="1" contentScriptType="text/ecmascript" color-interpolation="auto" color-rendering="auto" preserveAspectRatio="xMidYMid meet" font-size="12" viewBox="0 0 300 315" fill="black" stroke="black" image-rendering="auto" stroke-miterlimit="10" zoomAndPan="magnify" version="1.0" stroke-linecap="square" stroke-linejoin="miter" contentStyleType="text/css" font-style="normal" height="315" stroke-width="1" stroke-dashoffset="0" font-weight="normal" stroke-opacity="1">
<!--Generated by the Batik Graphics2D SVG Generator-->
<defs id="genericDefs"/>
<g>
<defs id="defs1">
<clipPath clipPathUnits="userSpaceOnUse" id="clipPath1">
<path d="M77 119 L263 119 L263 184 L77 184 L77 119 Z"/>
</clipPath>
<clipPath clipPathUnits="userSpaceOnUse" id="clipPath2">
<path d="M97 122 L242 122 L242 135 L97 135 L97 122 Z"/>
</clipPath>
<clipPath clipPathUnits="userSpaceOnUse" id="clipPath3">
<path d="M77 134 L263 134 L263 158 L77 158 L77 134 Z"/>
</clipPath>
<clipPath clipPathUnits="userSpaceOnUse" id="clipPath4">
<path d="M82 159 L258 159 L258 172 L82 172 L82 159 Z"/>
</clipPath>
<clipPath clipPathUnits="userSpaceOnUse" id="clipPath5">
<path d="M77 157 L263 157 L263 183 L77 183 L77 157 Z"/>
</clipPath>
<clipPath clipPathUnits="userSpaceOnUse" id="clipPath6">
<path d="M49 253 L291 253 L291 306 L49 306 L49 253 Z"/>
</clipPath>
<clipPath clipPathUnits="userSpaceOnUse" id="clipPath7">
<path d="M50 267 L291 267 L291 280 L50 280 L50 267 Z"/>
</clipPath>
<clipPath clipPathUnits="userSpaceOnUse" id="clipPath8">
<path d="M156 279 L186 279 L186 292 L156 292 L156 279 Z"/>
</clipPath>
<clipPath clipPathUnits="userSpaceOnUse" id="clipPath9">
<path d="M61 9 L280 9 L280 62 L61 62 L61 9 Z"/>
</clipPath>
<clipPath clipPathUnits="userSpaceOnUse" id="clipPath10">
<path d="M62 23 L280 23 L280 36 L62 36 L62 23 Z"/>
</clipPath>
<clipPath clipPathUnits="userSpaceOnUse" id="clipPath11">
<path d="M99 35 L243 35 L243 48 L99 48 L99 35 Z"/>
</clipPath>
<clipPath clipPathUnits="userSpaceOnUse" id="clipPath12">
<path d="M-1 -1 L301 -1 L301 316 L-1 316 L-1 -1 Z"/>
</clipPath>
<clipPath clipPathUnits="userSpaceOnUse" id="clipPath13">
<path d="M22 186 L162 186 L162 199 L22 199 L22 186 Z"/>
</clipPath>
<clipPath clipPathUnits="userSpaceOnUse" id="clipPath14">
<path d="M114 222 L161 222 L161 235 L114 235 L114 222 Z"/>
</clipPath>
<clipPath clipPathUnits="userSpaceOnUse" id="clipPath15">
<path d="M174 188 L184 188 L184 201 L174 201 L174 188 Z"/>
</clipPath>
<clipPath clipPathUnits="userSpaceOnUse" id="clipPath16">
<path d="M174 224 L197 224 L197 237 L174 237 L174 224 Z"/>
</clipPath>
<clipPath clipPathUnits="userSpaceOnUse" id="clipPath17">
<path d="M159 235 L174 235 L174 256 L159 256 L159 235 Z"/>
</clipPath>
<clipPath clipPathUnits="userSpaceOnUse" id="clipPath18">
<path d="M158 60 L177 60 L177 73 L158 73 L158 60 Z"/>
</clipPath>
</defs>
<g font-size="11" fill="white" stroke-linejoin="round" stroke="white" stroke-width="0" stroke-miterlimit="0">
<rect x="78" y="120" clip-path="url(#clipPath1)" width="184" rx="0" ry="0" height="63" stroke="none"/>
</g>
<g font-size="9" font-family="'Helvetica'" stroke-linejoin="round" font-weight="bold" stroke-width="0" stroke-miterlimit="0">
<text xml:space="preserve" x="98" y="130" clip-path="url(#clipPath2)" stroke="none">SM_OpaqueExpressionEvaluation</text>
</g>
<g font-size="11" stroke-width="1.1" stroke-linecap="butt">
<line clip-path="url(#clipPath3)" fill="none" x1="78" x2="262" y1="135" y2="135"/>
<text x="83" font-size="9" y="167" clip-path="url(#clipPath4)" font-family="'Helvetica'" stroke="none" xml:space="preserve"> + executeExpressionBehavior(): Value [*]</text>
<line clip-path="url(#clipPath5)" fill="none" x1="78" x2="262" y1="158" y2="158"/>
<rect x="78" y="120" clip-path="url(#clipPath1)" fill="none" width="183" rx="0" ry="0" height="62"/>
<rect x="50" y="254" clip-path="url(#clipPath6)" fill="silver" width="240" rx="0" ry="0" height="51" stroke="none"/>
<text x="58" font-size="9" y="275" clip-path="url(#clipPath7)" font-family="'Helvetica'" stroke="none" font-weight="bold" xml:space="preserve">(fUML_Semantics::Semantics::StructuredClassifiers)</text>
<text x="157" font-size="9" y="287" clip-path="url(#clipPath8)" font-family="'Helvetica'" stroke="none" font-weight="bold" xml:space="preserve">Object</text>
<rect x="50" y="254" clip-path="url(#clipPath6)" fill="none" width="239" rx="0" ry="0" height="50"/>
<rect x="62" y="10" clip-path="url(#clipPath9)" fill="silver" width="217" rx="0" ry="0" height="51" stroke="none"/>
<text x="88" font-size="9" y="31" clip-path="url(#clipPath10)" font-family="'Helvetica'" stroke="none" font-weight="bold" xml:space="preserve">(PSCS_Semantics::Semantics::Values)</text>
<text x="100" font-size="9" y="43" clip-path="url(#clipPath11)" font-family="'Helvetica'" stroke="none" font-weight="bold" xml:space="preserve">CS_OpaqueExpressionEvaluation</text>
<rect x="62" y="10" clip-path="url(#clipPath9)" fill="none" width="216" rx="0" ry="0" height="50"/>
<line clip-path="url(#clipPath12)" fill="none" text-rendering="optimizeLegibility" x1="166" x2="166" y1="183" y2="254"/>
<text x="23" font-size="9" y="196" clip-path="url(#clipPath13)" text-rendering="optimizeLegibility" stroke="none" xml:space="preserve"> + opaqueExpressionEvaluation</text>
<text x="115" font-size="9" y="232" clip-path="url(#clipPath14)" text-rendering="optimizeLegibility" stroke="none" xml:space="preserve"> + context</text>
<text x="175" font-size="9" y="198" clip-path="url(#clipPath15)" text-rendering="optimizeLegibility" stroke="none" xml:space="preserve"> *</text>
<text x="175" font-size="9" y="234" clip-path="url(#clipPath16)" text-rendering="optimizeLegibility" stroke="none" xml:space="preserve"> 0..1</text>
<polygon text-rendering="optimizeLegibility" clip-path="url(#clipPath17)" points=" 165 254 163 252 163 250 165 248 166 248 160 236 166 248 172 236 166 248 167 248 169 250 169 252 167 254" stroke="none"/>
<polygon fill="none" text-rendering="optimizeLegibility" clip-path="url(#clipPath17)" points=" 165 254 163 252 163 250 165 248 166 248 160 236 166 248 172 236 166 248 167 248 169 250 169 252 167 254"/>
<line clip-path="url(#clipPath12)" fill="none" text-rendering="optimizeLegibility" x1="167" x2="167" y1="120" y2="61"/>
</g>
<g stroke-linecap="butt" font-size="9" fill="white" text-rendering="optimizeLegibility" stroke="white" stroke-width="1.1">
<polygon clip-path="url(#clipPath18)" points=" 167 61 175 71 159 71" stroke="none"/>
<polygon fill="none" clip-path="url(#clipPath18)" points=" 167 61 175 71 159 71" stroke="black"/>
</g>
</g>
</svg>
