<?xml version="1.0" encoding="UTF-8"?><svg xmlns="http://www.w3.org/2000/svg" xmlns:xlink="http://www.w3.org/1999/xlink" stroke-dasharray="none" shape-rendering="auto" font-family="'Dialog'" width="720" text-rendering="auto" fill-opacity="1" contentScriptType="text/ecmascript" color-interpolation="auto" color-rendering="auto" preserveAspectRatio="xMidYMid meet" font-size="12" viewBox="0 0 720 239" fill="black" stroke="black" image-rendering="auto" stroke-miterlimit="10" zoomAndPan="magnify" version="1.0" stroke-linecap="square" stroke-linejoin="miter" contentStyleType="text/css" font-style="normal" height="239" stroke-width="1" stroke-dashoffset="0" font-weight="normal" stroke-opacity="1">
<!--Generated by the Batik Graphics2D SVG Generator-->
<defs id="genericDefs"/>
<g>
<g font-size="11" fill="white" stroke-linejoin="round" stroke="white" stroke-width="0" stroke-miterlimit="0">
<rect x="10" y="10" clip-path="url(#clipPath1)" width="700" rx="10" ry="10" height="219" stroke="none"/>
</g>
<g stroke-miterlimit="0" stroke-width="0" font-size="9" font-family="'Tahoma'" stroke-linejoin="round">
<text xml:space="preserve" x="349" y="22" clip-path="url(#clipPath2)" stroke="none">Stack</text>
</g>
<g font-size="11" fill="white" stroke-linejoin="round" stroke="white" stroke-width="0" stroke-miterlimit="0">
<rect x="10" y="26" clip-path="url(#clipPath3)" width="700" height="203" stroke="none"/>
<rect x="52" y="111" clip-path="url(#clipPath4)" fill="rgb(211,211,211)" width="99" rx="10" ry="10" height="40" stroke="none"/>
</g>
<g font-size="9" font-family="'Helvetica'" stroke-linejoin="round" font-weight="bold" stroke-width="0" stroke-miterlimit="0">
<text xml:space="preserve" x="88" y="121" clip-path="url(#clipPath5)" stroke="none">Empty</text>
</g>
<g font-size="11" stroke-width="1.1" stroke-linecap="butt">
<rect x="52" y="111" clip-path="url(#clipPath4)" fill="none" width="98" rx="10" ry="10" height="39"/>
<rect x="91" y="45" clip-path="url(#clipPath6)" width="20" rx="0" opacity="0" ry="0" height="20" stroke="none"/>
<rect x="91" y="45" clip-path="url(#clipPath6)" fill="none" width="19" rx="0" opacity="0" ry="0" height="19"/>
</g>
<svg xmlns:rdf="http://www.w3.org/1999/02/22-rdf-syntax-ns#" xmlns:svg="http://www.w3.org/2000/svg" xmlns:sodipodi="http://sodipodi.sourceforge.net/DTD/sodipodi-0.dtd" xmlns:dc="http://purl.org/dc/elements/1.1/" xmlns:inkscape="http://www.inkscape.org/namespaces/inkscape" xmlns:cc="http://creativecommons.org/ns#" contentScriptType="text/ecmascript" zoomAndPan="magnify" contentStyleType="text/css" id="svg2" sodipodi:docname="round_full.svg" style="" version="1.1" width="20" preserveAspectRatio="xMidYMid meet" inkscape:version="0.48.5 r10040" height="20" class="" x="91" y="45">
  <defs style="" id="defs4">
    <linearGradient xlink:type="simple" style="" xlink:actuate="onLoad" id="linearGradient3789" xlink:show="other">
      <stop id="stop3791" offset="0" style="stop-color:#000005;stop-opacity:1"/>
      <stop id="stop3793" offset="1" style="  stop-color:black;stop-opacity:0"/>
    </linearGradient>
    <inkscape:perspective inkscape:persp3d-origin="42.5 : 13.333333 : 1" style="" id="perspective3063" inkscape:vp_z="85 : 20 : 1" inkscape:vp_y="0 : 1000 : 0" inkscape:vp_x="0 : 20 : 1" sodipodi:type="inkscape:persp3d"/>
    <linearGradient xlink:type="simple" style="" xlink:actuate="onLoad" id="linearGradient3786" xlink:show="other">
      <stop id="stop3788" offset="0" style=" stop-color:black;stop-opacity:0"/>
      <stop id="stop3794" offset="1" style="stop-color:#919cd7;stop-opacity:1"/>
    </linearGradient>
  <clipPath clipPathUnits="userSpaceOnUse" id="clipPath1">
<path d="M9 9 L711 9 L711 230 L9 230 L9 9 Z"/>
</clipPath>
<clipPath clipPathUnits="userSpaceOnUse" id="clipPath2">
<path d="M348 12 L371 12 L371 25 L348 25 L348 12 Z"/>
</clipPath>
<clipPath clipPathUnits="userSpaceOnUse" id="clipPath3">
<path d="M9 25 L711 25 L711 230 L9 230 L9 25 Z"/>
</clipPath>
<clipPath clipPathUnits="userSpaceOnUse" id="clipPath4">
<path d="M51 110 L152 110 L152 152 L51 152 L51 110 Z"/>
</clipPath>
<clipPath clipPathUnits="userSpaceOnUse" id="clipPath5">
<path d="M87 113 L116 113 L116 126 L87 126 L87 113 Z"/>
</clipPath>
<clipPath clipPathUnits="userSpaceOnUse" id="clipPath6">
<path d="M90 44 L112 44 L112 66 L90 66 L90 44 Z"/>
</clipPath>
<clipPath clipPathUnits="userSpaceOnUse" id="clipPath7">
<path d="M115 47 L120 47 L120 60 L115 60 L115 47 Z"/>
</clipPath>
<clipPath clipPathUnits="userSpaceOnUse" id="clipPath8">
<path d="M304 111 L411 111 L411 153 L304 153 L304 111 Z"/>
</clipPath>
<clipPath clipPathUnits="userSpaceOnUse" id="clipPath9">
<path d="M341 114 L374 114 L374 127 L341 127 L341 114 Z"/>
</clipPath>
<clipPath clipPathUnits="userSpaceOnUse" id="clipPath10">
<path d="M567 112 L676 112 L676 154 L567 154 L567 112 Z"/>
</clipPath>
<clipPath clipPathUnits="userSpaceOnUse" id="clipPath11">
<path d="M612 115 L630 115 L630 128 L612 128 L612 115 Z"/>
</clipPath>
<clipPath clipPathUnits="userSpaceOnUse" id="clipPath12">
<path d="M9 24 L711 24 L711 230 L9 230 L9 24 Z"/>
</clipPath>
<clipPath clipPathUnits="userSpaceOnUse" id="clipPath13">
<path d="M-1 -1 L721 -1 L721 240 L-1 240 L-1 -1 Z"/>
</clipPath>
<clipPath clipPathUnits="userSpaceOnUse" id="clipPath14">
<path d="M299 189 L415 189 L415 202 L299 202 L299 189 Z"/>
</clipPath>
<clipPath clipPathUnits="userSpaceOnUse" id="clipPath15">
<path d="M355 181 L360 181 L360 194 L355 194 L355 181 Z"/>
</clipPath>
<clipPath clipPathUnits="userSpaceOnUse" id="clipPath16">
<path d="M317 151 L330 151 L330 169 L317 169 L317 151 Z"/>
</clipPath>
<clipPath clipPathUnits="userSpaceOnUse" id="clipPath17">
<path d="M168 144 L290 144 L290 157 L168 157 L168 144 Z"/>
</clipPath>
<clipPath clipPathUnits="userSpaceOnUse" id="clipPath18">
<path d="M226 135 L231 135 L231 148 L226 148 L226 135 Z"/>
</clipPath>
<clipPath clipPathUnits="userSpaceOnUse" id="clipPath19">
<path d="M150 135 L168 135 L168 148 L150 148 L150 135 Z"/>
</clipPath>
<clipPath clipPathUnits="userSpaceOnUse" id="clipPath20">
<path d="M46 78 L96 78 L96 91 L46 91 L46 78 Z"/>
</clipPath>
<clipPath clipPathUnits="userSpaceOnUse" id="clipPath21">
<path d="M98 81 L103 81 L103 94 L98 94 L98 81 Z"/>
</clipPath>
<clipPath clipPathUnits="userSpaceOnUse" id="clipPath22">
<path d="M94 95 L107 95 L107 113 L94 113 L94 95 Z"/>
</clipPath>
<clipPath clipPathUnits="userSpaceOnUse" id="clipPath23">
<path d="M189 104 L264 104 L264 117 L189 117 L189 104 Z"/>
</clipPath>
<clipPath clipPathUnits="userSpaceOnUse" id="clipPath24">
<path d="M225 113 L230 113 L230 126 L225 126 L225 113 Z"/>
</clipPath>
<clipPath clipPathUnits="userSpaceOnUse" id="clipPath25">
<path d="M289 113 L307 113 L307 126 L289 126 L289 113 Z"/>
</clipPath>
<clipPath clipPathUnits="userSpaceOnUse" id="clipPath26">
<path d="M408 101 L569 101 L569 114 L408 114 L408 101 Z"/>
</clipPath>
<clipPath clipPathUnits="userSpaceOnUse" id="clipPath27">
<path d="M487 115 L492 115 L492 128 L487 128 L487 115 Z"/>
</clipPath>
<clipPath clipPathUnits="userSpaceOnUse" id="clipPath28">
<path d="M552 115 L570 115 L570 128 L552 128 L552 115 Z"/>
</clipPath>
<clipPath clipPathUnits="userSpaceOnUse" id="clipPath29">
<path d="M58 187 L137 187 L137 200 L58 200 L58 187 Z"/>
</clipPath>
<clipPath clipPathUnits="userSpaceOnUse" id="clipPath30">
<path d="M96 170 L101 170 L101 183 L96 183 L96 170 Z"/>
</clipPath>
<clipPath clipPathUnits="userSpaceOnUse" id="clipPath31">
<path d="M61 150 L74 150 L74 168 L61 168 L61 150 Z"/>
</clipPath>
<clipPath clipPathUnits="userSpaceOnUse" id="clipPath32">
<path d="M280 66 L434 66 L434 79 L280 79 L280 66 Z"/>
</clipPath>
<clipPath clipPathUnits="userSpaceOnUse" id="clipPath33">
<path d="M356 75 L361 75 L361 88 L356 88 L356 75 Z"/>
</clipPath>
<clipPath clipPathUnits="userSpaceOnUse" id="clipPath34">
<path d="M385 96 L398 96 L398 114 L385 114 L385 96 Z"/>
</clipPath>
<clipPath clipPathUnits="userSpaceOnUse" id="clipPath35">
<path d="M585 190 L656 190 L656 203 L585 203 L585 190 Z"/>
</clipPath>
<clipPath clipPathUnits="userSpaceOnUse" id="clipPath36">
<path d="M619 182 L624 182 L624 195 L619 195 L619 182 Z"/>
</clipPath>
<clipPath clipPathUnits="userSpaceOnUse" id="clipPath37">
<path d="M580 152 L593 152 L593 170 L580 170 L580 152 Z"/>
</clipPath>
<clipPath clipPathUnits="userSpaceOnUse" id="clipPath38">
<path d="M458 145 L523 145 L523 158 L458 158 L458 145 Z"/>
</clipPath>
<clipPath clipPathUnits="userSpaceOnUse" id="clipPath39">
<path d="M487 136 L492 136 L492 149 L487 149 L487 136 Z"/>
</clipPath>
<clipPath clipPathUnits="userSpaceOnUse" id="clipPath40">
<path d="M409 136 L427 136 L427 149 L409 149 L409 136 Z"/>
</clipPath>
</defs>
  <sodipodi:namedview bordercolor="#666666" inkscape:window-height="1005" inkscape:zoom="5.6" id="base" inkscape:current-layer="layer1" style="" inkscape:window-y="-9" inkscape:cy="21.696429" inkscape:window-x="-9" inkscape:cx="-0.034771143" showgrid="false" inkscape:pageopacity="0.0" inkscape:document-units="px" units="px" inkscape:pageshadow="2" inkscape:window-width="1920" pagecolor="#ffffff" borderopacity="1.0" inkscape:window-maximized="1"/>
  <metadata style="" id="metadata7">
    <rdf:RDF style="">
      <cc:Work rdf:about="" style="">
        <dc:format style="">image/svg+xml</dc:format>
        <dc:type style="" rdf:resource="http://purl.org/dc/dcmitype/StillImage"/>
        <dc:title style=""/>
      </cc:Work>
    </rdf:RDF>
  </metadata>
  <g inkscape:groupmode="layer" id="layer1" style="" transform="translate(0,-1032.3617)" inkscape:label="Calque 1">
    <path sodipodi:arg1="0.56068699" inkscape:flatsided="false" inkscape:randomized="0" sodipodi:type="star" d="M 17.5,14.821429 L 16.411844,16.226801 L 15.070423,17.392882 L 13.527285,18.274857 L 11.841734,18.838835 L 10.078543,19.063141 L 8.3054712,18.939156 L 6.5906569,18.471644 L 4.9999996,17.678572 L 3.5946269,16.590416 L 2.4285468,15.248994 L 1.5465709,13.705857 L 0.98259317,12.020305 L 0.75828691,10.257114 L 0.8822721,8.4840429 L 1.3497841,6.7692286 L 2.1428565,5.1785713 L 3.2310123,3.7731986 L 4.5724339,2.6071185 L 6.1155716,1.7251426 L 7.8011231,1.1611649 L 9.564314,0.93685861 L 11.337385,1.0608438 L 13.0522,1.5283558 L 14.642857,2.3214282 L 16.04823,3.409584 L 17.21431,4.7510056 L 18.096286,6.2941433 L 18.660263,7.9796948 L 18.88457,9.7428857 L 18.760584,11.515957 L 18.293073,13.230771 z" id="PapyrusPath" style="stroke-opacity:1; fill:black;fill-opacity:1;stroke:none" inkscape:rounded="0" transform="translate(0,1032.3617)" sodipodi:sides="16" sodipodi:r1="9.0667877" sodipodi:cx="9.8214283" sodipodi:cy="10" sodipodi:arg2="0.75703654" sodipodi:r2="9.0667877"/>
  </g>
</svg>
<g font-size="9" stroke-width="1.1" stroke-linecap="butt">
<text xml:space="preserve" x="116" y="57" clip-path="url(#clipPath7)" stroke="none"> </text>
<rect x="305" y="112" clip-path="url(#clipPath8)" fill="rgb(211,211,211)" width="105" rx="10" ry="10" height="40" stroke="none"/>
<text x="342" y="122" clip-path="url(#clipPath9)" font-family="'Helvetica'" stroke="none" font-weight="bold" xml:space="preserve">Normal</text>
<rect x="305" y="112" clip-path="url(#clipPath8)" fill="none" width="104" rx="10" ry="10" height="39"/>
<rect x="568" y="113" clip-path="url(#clipPath10)" fill="rgb(211,211,211)" width="107" rx="10" ry="10" height="40" stroke="none"/>
<text x="613" y="123" clip-path="url(#clipPath11)" font-family="'Helvetica'" stroke="none" font-weight="bold" xml:space="preserve">Full</text>
<rect x="568" y="113" clip-path="url(#clipPath10)" fill="none" width="106" rx="10" ry="10" height="39"/>
<line clip-path="url(#clipPath12)" fill="none" x1="10" x2="710" y1="25" y2="25" stroke="rgb(176,176,176)"/>
<rect x="10" y="10" clip-path="url(#clipPath1)" fill="none" width="699" rx="10" ry="10" height="218" stroke="rgb(176,176,176)"/>
<line clip-path="url(#clipPath13)" fill="none" text-rendering="optimizeLegibility" x1="392" x2="392" y1="152" y2="187"/>
<line clip-path="url(#clipPath13)" fill="none" text-rendering="optimizeLegibility" x1="392" x2="323" y1="187" y2="187"/>
<line clip-path="url(#clipPath13)" fill="none" text-rendering="optimizeLegibility" x1="323" x2="323" y1="187" y2="152"/>
<text x="300" y="199" clip-path="url(#clipPath14)" text-rendering="optimizeLegibility" stroke="none" xml:space="preserve">pop[stkSize&gt;1]/popItem()</text>
<text x="356" y="191" clip-path="url(#clipPath15)" text-rendering="optimizeLegibility" stroke="none" xml:space="preserve"> </text>
<line clip-path="url(#clipPath16)" fill="none" text-rendering="optimizeLegibility" x1="328" x2="323" y1="167" y2="152"/>
<line clip-path="url(#clipPath16)" fill="none" text-rendering="optimizeLegibility" x1="323" x2="318" y1="152" y2="167"/>
<line clip-path="url(#clipPath13)" fill="none" text-rendering="optimizeLegibility" x1="305" x2="151" y1="141" y2="141"/>
<text x="169" y="154" clip-path="url(#clipPath17)" text-rendering="optimizeLegibility" stroke="none" xml:space="preserve">pop[stkSize==1]/popItem()</text>
<text x="227" y="145" clip-path="url(#clipPath18)" text-rendering="optimizeLegibility" stroke="none" xml:space="preserve"> </text>
<line clip-path="url(#clipPath19)" fill="none" text-rendering="optimizeLegibility" x1="166" x2="151" y1="136" y2="141"/>
<line clip-path="url(#clipPath19)" fill="none" text-rendering="optimizeLegibility" x1="151" x2="166" y1="141" y2="146"/>
<line clip-path="url(#clipPath13)" fill="none" text-rendering="optimizeLegibility" x1="100" x2="100" y1="63" y2="111"/>
<text x="47" y="88" clip-path="url(#clipPath20)" text-rendering="optimizeLegibility" stroke="none" xml:space="preserve">/stkSize=0</text>
<text x="99" y="91" clip-path="url(#clipPath21)" text-rendering="optimizeLegibility" stroke="none" xml:space="preserve"> </text>
<line clip-path="url(#clipPath22)" fill="none" text-rendering="optimizeLegibility" x1="95" x2="100" y1="96" y2="111"/>
<line clip-path="url(#clipPath22)" fill="none" text-rendering="optimizeLegibility" x1="100" x2="105" y1="111" y2="96"/>
<line clip-path="url(#clipPath13)" fill="none" text-rendering="optimizeLegibility" x1="150" x2="305" y1="119" y2="119"/>
<text x="190" y="114" clip-path="url(#clipPath23)" text-rendering="optimizeLegibility" stroke="none" xml:space="preserve">push/pushItem()</text>
<text x="226" y="123" clip-path="url(#clipPath24)" text-rendering="optimizeLegibility" stroke="none" xml:space="preserve"> </text>
<line clip-path="url(#clipPath25)" fill="none" text-rendering="optimizeLegibility" x1="290" x2="305" y1="124" y2="119"/>
<line clip-path="url(#clipPath25)" fill="none" text-rendering="optimizeLegibility" x1="305" x2="290" y1="119" y2="114"/>
<line clip-path="url(#clipPath13)" fill="none" text-rendering="optimizeLegibility" x1="409" x2="492" y1="121" y2="121"/>
<line clip-path="url(#clipPath13)" fill="none" text-rendering="optimizeLegibility" x1="492" x2="568" y1="121" y2="121"/>
<text x="409" y="111" clip-path="url(#clipPath26)" text-rendering="optimizeLegibility" stroke="none" xml:space="preserve">push[stkSize==(max-1)]/pushItem()</text>
<text x="488" y="125" clip-path="url(#clipPath27)" text-rendering="optimizeLegibility" stroke="none" xml:space="preserve"> </text>
<line clip-path="url(#clipPath28)" fill="none" text-rendering="optimizeLegibility" x1="553" x2="568" y1="126" y2="121"/>
<line clip-path="url(#clipPath28)" fill="none" text-rendering="optimizeLegibility" x1="568" x2="553" y1="121" y2="116"/>
<line clip-path="url(#clipPath13)" fill="none" text-rendering="optimizeLegibility" x1="130" x2="130" y1="151" y2="185"/>
<line clip-path="url(#clipPath13)" fill="none" text-rendering="optimizeLegibility" x1="130" x2="67" y1="185" y2="185"/>
<line clip-path="url(#clipPath13)" fill="none" text-rendering="optimizeLegibility" x1="67" x2="67" y1="185" y2="151"/>
<text x="59" y="197" clip-path="url(#clipPath29)" text-rendering="optimizeLegibility" stroke="none" xml:space="preserve">pop/errorEmpty()</text>
<text x="97" y="180" clip-path="url(#clipPath30)" text-rendering="optimizeLegibility" stroke="none" xml:space="preserve"> </text>
<line clip-path="url(#clipPath31)" fill="none" text-rendering="optimizeLegibility" x1="72" x2="67" y1="166" y2="151"/>
<line clip-path="url(#clipPath31)" fill="none" text-rendering="optimizeLegibility" x1="67" x2="62" y1="151" y2="166"/>
<line clip-path="url(#clipPath13)" fill="none" text-rendering="optimizeLegibility" x1="325" x2="325" y1="112" y2="81"/>
<line clip-path="url(#clipPath13)" fill="none" text-rendering="optimizeLegibility" x1="325" x2="391" y1="81" y2="81"/>
<line clip-path="url(#clipPath13)" fill="none" text-rendering="optimizeLegibility" x1="391" x2="391" y1="81" y2="112"/>
<text x="281" y="76" clip-path="url(#clipPath32)" text-rendering="optimizeLegibility" stroke="none" xml:space="preserve">push[stkSize&lt;(max-1)]/pushItem()</text>
<text x="357" y="85" clip-path="url(#clipPath33)" text-rendering="optimizeLegibility" stroke="none" xml:space="preserve"> </text>
<line clip-path="url(#clipPath34)" fill="none" text-rendering="optimizeLegibility" x1="386" x2="391" y1="97" y2="112"/>
<line clip-path="url(#clipPath34)" fill="none" text-rendering="optimizeLegibility" x1="391" x2="396" y1="112" y2="97"/>
<line clip-path="url(#clipPath13)" fill="none" text-rendering="optimizeLegibility" x1="656" x2="656" y1="153" y2="188"/>
<line clip-path="url(#clipPath13)" fill="none" text-rendering="optimizeLegibility" x1="656" x2="586" y1="188" y2="188"/>
<line clip-path="url(#clipPath13)" fill="none" text-rendering="optimizeLegibility" x1="586" x2="586" y1="188" y2="153"/>
<text x="586" y="200" clip-path="url(#clipPath35)" text-rendering="optimizeLegibility" stroke="none" xml:space="preserve">push/errorFull()</text>
<text x="620" y="192" clip-path="url(#clipPath36)" text-rendering="optimizeLegibility" stroke="none" xml:space="preserve"> </text>
<line clip-path="url(#clipPath37)" fill="none" text-rendering="optimizeLegibility" x1="591" x2="586" y1="168" y2="153"/>
<line clip-path="url(#clipPath37)" fill="none" text-rendering="optimizeLegibility" x1="586" x2="581" y1="153" y2="168"/>
<line clip-path="url(#clipPath13)" fill="none" text-rendering="optimizeLegibility" x1="568" x2="410" y1="142" y2="142"/>
<text x="459" y="155" clip-path="url(#clipPath38)" text-rendering="optimizeLegibility" stroke="none" xml:space="preserve">pop/popItem()</text>
<text x="488" y="146" clip-path="url(#clipPath39)" text-rendering="optimizeLegibility" stroke="none" xml:space="preserve"> </text>
<line clip-path="url(#clipPath40)" fill="none" text-rendering="optimizeLegibility" x1="425" x2="410" y1="137" y2="142"/>
<line clip-path="url(#clipPath40)" fill="none" text-rendering="optimizeLegibility" x1="410" x2="425" y1="142" y2="147"/>
<line clip-path="url(#clipPath13)" fill="none" text-rendering="optimizeLegibility" x1="100" x2="100" y1="63" y2="111"/>
<text x="47" y="88" clip-path="url(#clipPath20)" text-rendering="optimizeLegibility" stroke="none" xml:space="preserve">/stkSize=0</text>
<text x="99" y="91" clip-path="url(#clipPath21)" text-rendering="optimizeLegibility" stroke="none" xml:space="preserve"> </text>
<line clip-path="url(#clipPath22)" fill="none" text-rendering="optimizeLegibility" x1="95" x2="100" y1="96" y2="111"/>
<line clip-path="url(#clipPath22)" fill="none" text-rendering="optimizeLegibility" x1="100" x2="105" y1="111" y2="96"/>
<line clip-path="url(#clipPath13)" fill="none" text-rendering="optimizeLegibility" x1="130" x2="130" y1="151" y2="185"/>
<line clip-path="url(#clipPath13)" fill="none" text-rendering="optimizeLegibility" x1="130" x2="67" y1="185" y2="185"/>
<line clip-path="url(#clipPath13)" fill="none" text-rendering="optimizeLegibility" x1="67" x2="67" y1="185" y2="151"/>
<text x="59" y="197" clip-path="url(#clipPath29)" text-rendering="optimizeLegibility" stroke="none" xml:space="preserve">pop/errorEmpty()</text>
<text x="97" y="180" clip-path="url(#clipPath30)" text-rendering="optimizeLegibility" stroke="none" xml:space="preserve"> </text>
<line clip-path="url(#clipPath31)" fill="none" text-rendering="optimizeLegibility" x1="72" x2="67" y1="166" y2="151"/>
<line clip-path="url(#clipPath31)" fill="none" text-rendering="optimizeLegibility" x1="67" x2="62" y1="151" y2="166"/>
<line clip-path="url(#clipPath13)" fill="none" text-rendering="optimizeLegibility" x1="150" x2="305" y1="119" y2="119"/>
<text x="190" y="114" clip-path="url(#clipPath23)" text-rendering="optimizeLegibility" stroke="none" xml:space="preserve">push/pushItem()</text>
<text x="226" y="123" clip-path="url(#clipPath24)" text-rendering="optimizeLegibility" stroke="none" xml:space="preserve"> </text>
<line clip-path="url(#clipPath25)" fill="none" text-rendering="optimizeLegibility" x1="290" x2="305" y1="124" y2="119"/>
<line clip-path="url(#clipPath25)" fill="none" text-rendering="optimizeLegibility" x1="305" x2="290" y1="119" y2="114"/>
<line clip-path="url(#clipPath13)" fill="none" text-rendering="optimizeLegibility" x1="305" x2="151" y1="141" y2="141"/>
<text x="169" y="154" clip-path="url(#clipPath17)" text-rendering="optimizeLegibility" stroke="none" xml:space="preserve">pop[stkSize==1]/popItem()</text>
<text x="227" y="145" clip-path="url(#clipPath18)" text-rendering="optimizeLegibility" stroke="none" xml:space="preserve"> </text>
<line clip-path="url(#clipPath19)" fill="none" text-rendering="optimizeLegibility" x1="166" x2="151" y1="136" y2="141"/>
<line clip-path="url(#clipPath19)" fill="none" text-rendering="optimizeLegibility" x1="151" x2="166" y1="141" y2="146"/>
<line clip-path="url(#clipPath13)" fill="none" text-rendering="optimizeLegibility" x1="409" x2="492" y1="121" y2="121"/>
<line clip-path="url(#clipPath13)" fill="none" text-rendering="optimizeLegibility" x1="492" x2="568" y1="121" y2="121"/>
<text x="409" y="111" clip-path="url(#clipPath26)" text-rendering="optimizeLegibility" stroke="none" xml:space="preserve">push[stkSize==(max-1)]/pushItem()</text>
<text x="488" y="125" clip-path="url(#clipPath27)" text-rendering="optimizeLegibility" stroke="none" xml:space="preserve"> </text>
<line clip-path="url(#clipPath28)" fill="none" text-rendering="optimizeLegibility" x1="553" x2="568" y1="126" y2="121"/>
<line clip-path="url(#clipPath28)" fill="none" text-rendering="optimizeLegibility" x1="568" x2="553" y1="121" y2="116"/>
<line clip-path="url(#clipPath13)" fill="none" text-rendering="optimizeLegibility" x1="568" x2="410" y1="142" y2="142"/>
<text x="459" y="155" clip-path="url(#clipPath38)" text-rendering="optimizeLegibility" stroke="none" xml:space="preserve">pop/popItem()</text>
<text x="488" y="146" clip-path="url(#clipPath39)" text-rendering="optimizeLegibility" stroke="none" xml:space="preserve"> </text>
<line clip-path="url(#clipPath40)" fill="none" text-rendering="optimizeLegibility" x1="425" x2="410" y1="137" y2="142"/>
<line clip-path="url(#clipPath40)" fill="none" text-rendering="optimizeLegibility" x1="410" x2="425" y1="142" y2="147"/>
<line clip-path="url(#clipPath13)" fill="none" text-rendering="optimizeLegibility" x1="325" x2="325" y1="112" y2="81"/>
<line clip-path="url(#clipPath13)" fill="none" text-rendering="optimizeLegibility" x1="325" x2="391" y1="81" y2="81"/>
<line clip-path="url(#clipPath13)" fill="none" text-rendering="optimizeLegibility" x1="391" x2="391" y1="81" y2="112"/>
<text x="281" y="76" clip-path="url(#clipPath32)" text-rendering="optimizeLegibility" stroke="none" xml:space="preserve">push[stkSize&lt;(max-1)]/pushItem()</text>
<text x="357" y="85" clip-path="url(#clipPath33)" text-rendering="optimizeLegibility" stroke="none" xml:space="preserve"> </text>
<line clip-path="url(#clipPath34)" fill="none" text-rendering="optimizeLegibility" x1="386" x2="391" y1="97" y2="112"/>
<line clip-path="url(#clipPath34)" fill="none" text-rendering="optimizeLegibility" x1="391" x2="396" y1="112" y2="97"/>
<line clip-path="url(#clipPath13)" fill="none" text-rendering="optimizeLegibility" x1="392" x2="392" y1="152" y2="187"/>
<line clip-path="url(#clipPath13)" fill="none" text-rendering="optimizeLegibility" x1="392" x2="323" y1="187" y2="187"/>
<line clip-path="url(#clipPath13)" fill="none" text-rendering="optimizeLegibility" x1="323" x2="323" y1="187" y2="152"/>
<text x="300" y="199" clip-path="url(#clipPath14)" text-rendering="optimizeLegibility" stroke="none" xml:space="preserve">pop[stkSize&gt;1]/popItem()</text>
<text x="356" y="191" clip-path="url(#clipPath15)" text-rendering="optimizeLegibility" stroke="none" xml:space="preserve"> </text>
<line clip-path="url(#clipPath16)" fill="none" text-rendering="optimizeLegibility" x1="328" x2="323" y1="167" y2="152"/>
<line clip-path="url(#clipPath16)" fill="none" text-rendering="optimizeLegibility" x1="323" x2="318" y1="152" y2="167"/>
<line clip-path="url(#clipPath13)" fill="none" text-rendering="optimizeLegibility" x1="656" x2="656" y1="153" y2="188"/>
<line clip-path="url(#clipPath13)" fill="none" text-rendering="optimizeLegibility" x1="656" x2="586" y1="188" y2="188"/>
<line clip-path="url(#clipPath13)" fill="none" text-rendering="optimizeLegibility" x1="586" x2="586" y1="188" y2="153"/>
<text x="586" y="200" clip-path="url(#clipPath35)" text-rendering="optimizeLegibility" stroke="none" xml:space="preserve">push/errorFull()</text>
<text x="620" y="192" clip-path="url(#clipPath36)" text-rendering="optimizeLegibility" stroke="none" xml:space="preserve"> </text>
<line clip-path="url(#clipPath37)" fill="none" text-rendering="optimizeLegibility" x1="591" x2="586" y1="168" y2="153"/>
<line clip-path="url(#clipPath37)" fill="none" text-rendering="optimizeLegibility" x1="586" x2="581" y1="153" y2="168"/>
</g>
</g>
</svg>
